<svg width="102" height="102" viewBox="0 0 102 102" fill="none" xmlns="http://www.w3.org/2000/svg">
<rect x="1" y="1" width="100" height="100" rx="10" fill="black" stroke="black"/>
<path d="M14.52 11.07C14.9133 10.6967 15.26 10.3667 15.56 10.08C15.86 9.78667 16.12 9.52667 16.34 9.3C16.56 9.06667 16.74 8.85333 16.88 8.66C17.0267 8.46 17.1333 8.26667 17.2 8.08C17.2667 7.89333 17.3 7.69 17.3 7.47C17.3 7.35 17.2833 7.24333 17.25 7.15C17.2233 7.05667 17.1767 6.98 17.11 6.92C17.0433 6.85333 16.9567 6.80333 16.85 6.77C16.75 6.73667 16.6267 6.72 16.48 6.72C16.3467 6.72 16.2233 6.73333 16.11 6.76C15.9967 6.78667 15.89 6.83 15.79 6.89C15.69 6.95 15.5967 7.03 15.51 7.13C15.4433 7.21667 15.4 7.28333 15.38 7.33C15.3667 7.37667 15.3633 7.42667 15.37 7.48L15.31 7.57L15.23 7.52L14.37 6.85C14.5233 6.59 14.71 6.37333 14.93 6.2C15.1567 6.02667 15.4033 5.89667 15.67 5.81C15.9367 5.71667 16.2133 5.67 16.5 5.67C16.8667 5.67 17.2 5.74333 17.5 5.89C17.8067 6.03667 18.05 6.24667 18.23 6.52C18.41 6.78667 18.5 7.10333 18.5 7.47C18.5 7.72333 18.4633 7.96 18.39 8.18C18.3233 8.4 18.2267 8.61667 18.1 8.83C17.9733 9.03667 17.8167 9.25 17.63 9.47C17.4433 9.69 17.23 9.92333 16.99 10.17C16.75 10.4167 16.4833 10.6833 16.19 10.97H18.04C18.1533 10.97 18.2333 10.9633 18.28 10.95C18.3267 10.9367 18.37 10.9133 18.41 10.88H18.51V10.97V12H14.52V11.07ZM20.06 10.04L22.72 6.98L22.91 7.82L20.25 10.87L20.06 10.04ZM21.5 12.12C21.0533 12.12 20.6633 11.9967 20.33 11.75C20.0033 11.5033 19.75 11.1433 19.57 10.67C19.3967 10.19 19.31 9.60667 19.31 8.92C19.31 8.24 19.3967 7.65667 19.57 7.17C19.75 6.68333 20.0033 6.31333 20.33 6.06C20.6633 5.8 21.0533 5.67 21.5 5.67C21.9467 5.67 22.3333 5.8 22.66 6.06C22.9933 6.31333 23.2467 6.68333 23.42 7.17C23.6 7.65667 23.69 8.24 23.69 8.92C23.69 9.60667 23.6 10.19 23.42 10.67C23.2467 11.1433 22.9933 11.5033 22.66 11.75C22.3333 11.9967 21.9467 12.12 21.5 12.12ZM21.5 11.17C21.74 11.17 21.9333 11.0833 22.08 10.91C22.2333 10.73 22.3467 10.4733 22.42 10.14C22.4933 9.80667 22.53 9.4 22.53 8.92C22.53 8.44 22.4933 8.03333 22.42 7.7C22.3467 7.36667 22.2333 7.11333 22.08 6.94C21.9333 6.76 21.74 6.67 21.5 6.67C21.2667 6.67 21.0733 6.76 20.92 6.94C20.7667 7.11333 20.6533 7.36667 20.58 7.7C20.5067 8.03333 20.47 8.44 20.47 8.92C20.47 9.4 20.5067 9.80667 20.58 10.14C20.6533 10.4733 20.7667 10.73 20.92 10.91C21.0733 11.0833 21.2667 11.17 21.5 11.17ZM24.52 11.07C24.9133 10.6967 25.26 10.3667 25.56 10.08C25.86 9.78667 26.12 9.52667 26.34 9.3C26.56 9.06667 26.74 8.85333 26.88 8.66C27.0267 8.46 27.1333 8.26667 27.2 8.08C27.2667 7.89333 27.3 7.69 27.3 7.47C27.3 7.35 27.2833 7.24333 27.25 7.15C27.2233 7.05667 27.1767 6.98 27.11 6.92C27.0433 6.85333 26.9567 6.80333 26.85 6.77C26.75 6.73667 26.6267 6.72 26.48 6.72C26.3467 6.72 26.2233 6.73333 26.11 6.76C25.9967 6.78667 25.89 6.83 25.79 6.89C25.69 6.95 25.5967 7.03 25.51 7.13C25.4433 7.21667 25.4 7.28333 25.38 7.33C25.3667 7.37667 25.3633 7.42667 25.37 7.48L25.31 7.57L25.23 7.52L24.37 6.85C24.5233 6.59 24.71 6.37333 24.93 6.2C25.1567 6.02667 25.4033 5.89667 25.67 5.81C25.9367 5.71667 26.2133 5.67 26.5 5.67C26.8667 5.67 27.2 5.74333 27.5 5.89C27.8067 6.03667 28.05 6.24667 28.23 6.52C28.41 6.78667 28.5 7.10333 28.5 7.47C28.5 7.72333 28.4633 7.96 28.39 8.18C28.3233 8.4 28.2267 8.61667 28.1 8.83C27.9733 9.03667 27.8167 9.25 27.63 9.47C27.4433 9.69 27.23 9.92333 26.99 10.17C26.75 10.4167 26.4833 10.6833 26.19 10.97H28.04C28.1533 10.97 28.2333 10.9633 28.28 10.95C28.3267 10.9367 28.37 10.9133 28.41 10.88H28.51V10.97V12H24.52V11.07ZM31 12V7.12L29.92 7.53L29.65 6.67L31.33 5.77H32.28V12H31ZM36.4 12.13C36.1667 12.13 35.97 12.05 35.81 11.89C35.6567 11.73 35.58 11.5367 35.58 11.31C35.58 11.0833 35.6567 10.8933 35.81 10.74C35.97 10.58 36.1667 10.5 36.4 10.5C36.62 10.5 36.81 10.58 36.97 10.74C37.13 10.8933 37.21 11.0833 37.21 11.31C37.21 11.5367 37.13 11.73 36.97 11.89C36.81 12.05 36.62 12.13 36.4 12.13ZM40.06 10.04L42.72 6.98L42.91 7.82L40.25 10.87L40.06 10.04ZM41.5 12.12C41.0533 12.12 40.6633 11.9967 40.33 11.75C40.0033 11.5033 39.75 11.1433 39.57 10.67C39.3967 10.19 39.31 9.60667 39.31 8.92C39.31 8.24 39.3967 7.65667 39.57 7.17C39.75 6.68333 40.0033 6.31333 40.33 6.06C40.6633 5.8 41.0533 5.67 41.5 5.67C41.9467 5.67 42.3333 5.8 42.66 6.06C42.9933 6.31333 43.2467 6.68333 43.42 7.17C43.6 7.65667 43.69 8.24 43.69 8.92C43.69 9.60667 43.6 10.19 43.42 10.67C43.2467 11.1433 42.9933 11.5033 42.66 11.75C42.3333 11.9967 41.9467 12.12 41.5 12.12ZM41.5 11.17C41.74 11.17 41.9333 11.0833 42.08 10.91C42.2333 10.73 42.3467 10.4733 42.42 10.14C42.4933 9.80667 42.53 9.4 42.53 8.92C42.53 8.44 42.4933 8.03333 42.42 7.7C42.3467 7.36667 42.2333 7.11333 42.08 6.94C41.9333 6.76 41.74 6.67 41.5 6.67C41.2667 6.67 41.0733 6.76 40.92 6.94C40.7667 7.11333 40.6533 7.36667 40.58 7.7C40.5067 8.03333 40.47 8.44 40.47 8.92C40.47 9.4 40.5067 9.80667 40.58 10.14C40.6533 10.4733 40.7667 10.73 40.92 10.91C41.0733 11.0833 41.2667 11.17 41.5 11.17ZM46.22 12.12C45.9133 12.12 45.6033 12.08 45.29 12C44.9833 11.9133 44.7033 11.7667 44.45 11.56L45.07 10.61L45.12 10.53L45.21 10.59C45.2233 10.6367 45.2433 10.6833 45.27 10.73C45.3033 10.7767 45.3633 10.8333 45.45 10.9C45.5633 10.9667 45.68 11.0167 45.8 11.05C45.9267 11.0767 46.0567 11.09 46.19 11.09C46.3567 11.09 46.51 11.0433 46.65 10.95C46.79 10.8567 46.91 10.7167 47.01 10.53C47.1167 10.3433 47.1967 10.12 47.25 9.86C47.31 9.6 47.3433 9.30667 47.35 8.98C47.3633 8.39333 47.3367 7.93333 47.27 7.6C47.2033 7.26 47.1033 7.02 46.97 6.88C46.8367 6.73333 46.6633 6.66 46.45 6.66C46.3167 6.66 46.1967 6.69 46.09 6.75C45.9833 6.80333 45.89 6.88333 45.81 6.99C45.7367 7.09 45.68 7.21333 45.64 7.36C45.6 7.50667 45.58 7.67333 45.58 7.86C45.58 8.02667 45.6 8.17 45.64 8.29C45.6867 8.41 45.75 8.51 45.83 8.59C45.91 8.67 46.0033 8.73333 46.11 8.78C46.2167 8.82 46.33 8.84 46.45 8.84C46.5967 8.84 46.7367 8.82333 46.87 8.79C47.01 8.75 47.1333 8.68667 47.24 8.6C47.3533 8.51333 47.45 8.39333 47.53 8.24L47.67 9.29C47.5767 9.39667 47.46 9.49333 47.32 9.58C47.18 9.66 47.0267 9.72333 46.86 9.77C46.6933 9.81 46.5167 9.83 46.33 9.83C46.0567 9.83 45.8033 9.78333 45.57 9.69C45.3367 9.59667 45.13 9.46333 44.95 9.29C44.7767 9.11 44.64 8.89667 44.54 8.65C44.44 8.40333 44.39 8.12333 44.39 7.81C44.39 7.50333 44.4433 7.22 44.55 6.96C44.6633 6.7 44.8133 6.47333 45 6.28C45.1933 6.08667 45.42 5.93667 45.68 5.83C45.94 5.72333 46.2167 5.67 46.51 5.67C46.9633 5.67 47.3367 5.78 47.63 6C47.93 6.22 48.1533 6.55 48.3 6.99C48.4467 7.43 48.52 7.97667 48.52 8.63C48.52 9.37667 48.43 10.01 48.25 10.53C48.07 11.0433 47.81 11.4367 47.47 11.71C47.13 11.9767 46.7133 12.1133 46.22 12.12ZM50.03 9.32V8.3H52.99V9.32H50.03ZM54.52 11.07C54.9133 10.6967 55.26 10.3667 55.56 10.08C55.86 9.78667 56.12 9.52667 56.34 9.3C56.56 9.06667 56.74 8.85333 56.88 8.66C57.0267 8.46 57.1333 8.26667 57.2 8.08C57.2667 7.89333 57.3 7.69 57.3 7.47C57.3 7.35 57.2833 7.24333 57.25 7.15C57.2233 7.05667 57.1767 6.98 57.11 6.92C57.0433 6.85333 56.9567 6.80333 56.85 6.77C56.75 6.73667 56.6267 6.72 56.48 6.72C56.3467 6.72 56.2233 6.73333 56.11 6.76C55.9967 6.78667 55.89 6.83 55.79 6.89C55.69 6.95 55.5967 7.03 55.51 7.13C55.4433 7.21667 55.4 7.28333 55.38 7.33C55.3667 7.37667 55.3633 7.42667 55.37 7.48L55.31 7.57L55.23 7.52L54.37 6.85C54.5233 6.59 54.71 6.37333 54.93 6.2C55.1567 6.02667 55.4033 5.89667 55.67 5.81C55.9367 5.71667 56.2133 5.67 56.5 5.67C56.8667 5.67 57.2 5.74333 57.5 5.89C57.8067 6.03667 58.05 6.24667 58.23 6.52C58.41 6.78667 58.5 7.10333 58.5 7.47C58.5 7.72333 58.4633 7.96 58.39 8.18C58.3233 8.4 58.2267 8.61667 58.1 8.83C57.9733 9.03667 57.8167 9.25 57.63 9.47C57.4433 9.69 57.23 9.92333 56.99 10.17C56.75 10.4167 56.4833 10.6833 56.19 10.97H58.04C58.1533 10.97 58.2333 10.9633 58.28 10.95C58.3267 10.9367 58.37 10.9133 58.41 10.88H58.51V10.97V12H54.52V11.07ZM60.06 10.04L62.72 6.98L62.91 7.82L60.25 10.87L60.06 10.04ZM61.5 12.12C61.0533 12.12 60.6633 11.9967 60.33 11.75C60.0033 11.5033 59.75 11.1433 59.57 10.67C59.3967 10.19 59.31 9.60667 59.31 8.92C59.31 8.24 59.3967 7.65667 59.57 7.17C59.75 6.68333 60.0033 6.31333 60.33 6.06C60.6633 5.8 61.0533 5.67 61.5 5.67C61.9467 5.67 62.3333 5.8 62.66 6.06C62.9933 6.31333 63.2467 6.68333 63.42 7.17C63.6 7.65667 63.69 8.24 63.69 8.92C63.69 9.60667 63.6 10.19 63.42 10.67C63.2467 11.1433 62.9933 11.5033 62.66 11.75C62.3333 11.9967 61.9467 12.12 61.5 12.12ZM61.5 11.17C61.74 11.17 61.9333 11.0833 62.08 10.91C62.2333 10.73 62.3467 10.4733 62.42 10.14C62.4933 9.80667 62.53 9.4 62.53 8.92C62.53 8.44 62.4933 8.03333 62.42 7.7C62.3467 7.36667 62.2333 7.11333 62.08 6.94C61.9333 6.76 61.74 6.67 61.5 6.67C61.2667 6.67 61.0733 6.76 60.92 6.94C60.7667 7.11333 60.6533 7.36667 60.58 7.7C60.5067 8.03333 60.47 8.44 60.47 8.92C60.47 9.4 60.5067 9.80667 60.58 10.14C60.6533 10.4733 60.7667 10.73 60.92 10.91C61.0733 11.0833 61.2667 11.17 61.5 11.17ZM64.52 11.07C64.9133 10.6967 65.26 10.3667 65.56 10.08C65.86 9.78667 66.12 9.52667 66.34 9.3C66.56 9.06667 66.74 8.85333 66.88 8.66C67.0267 8.46 67.1333 8.26667 67.2 8.08C67.2667 7.89333 67.3 7.69 67.3 7.47C67.3 7.35 67.2833 7.24333 67.25 7.15C67.2233 7.05667 67.1767 6.98 67.11 6.92C67.0433 6.85333 66.9567 6.80333 66.85 6.77C66.75 6.73667 66.6267 6.72 66.48 6.72C66.3467 6.72 66.2233 6.73333 66.11 6.76C65.9967 6.78667 65.89 6.83 65.79 6.89C65.69 6.95 65.5967 7.03 65.51 7.13C65.4433 7.21667 65.4 7.28333 65.38 7.33C65.3667 7.37667 65.3633 7.42667 65.37 7.48L65.31 7.57L65.23 7.52L64.37 6.85C64.5233 6.59 64.71 6.37333 64.93 6.2C65.1567 6.02667 65.4033 5.89667 65.67 5.81C65.9367 5.71667 66.2133 5.67 66.5 5.67C66.8667 5.67 67.2 5.74333 67.5 5.89C67.8067 6.03667 68.05 6.24667 68.23 6.52C68.41 6.78667 68.5 7.10333 68.5 7.47C68.5 7.72333 68.4633 7.96 68.39 8.18C68.3233 8.4 68.2267 8.61667 68.1 8.83C67.9733 9.03667 67.8167 9.25 67.63 9.47C67.4433 9.69 67.23 9.92333 66.99 10.17C66.75 10.4167 66.4833 10.6833 66.19 10.97H68.04C68.1533 10.97 68.2333 10.9633 68.28 10.95C68.3267 10.9367 68.37 10.9133 68.41 10.88H68.51V10.97V12H64.52V11.07ZM71 12V7.12L69.92 7.53L69.65 6.67L71.33 5.77H72.28V12H71ZM76.4 12.13C76.1667 12.13 75.97 12.05 75.81 11.89C75.6567 11.73 75.58 11.5367 75.58 11.31C75.58 11.0833 75.6567 10.8933 75.81 10.74C75.97 10.58 76.1667 10.5 76.4 10.5C76.62 10.5 76.81 10.58 76.97 10.74C77.13 10.8933 77.21 11.0833 77.21 11.31C77.21 11.5367 77.13 11.73 76.97 11.89C76.81 12.05 76.62 12.13 76.4 12.13ZM81 12V7.12L79.92 7.53L79.65 6.67L81.33 5.77H82.28V12H81ZM84.52 11.07C84.9133 10.6967 85.26 10.3667 85.56 10.08C85.86 9.78667 86.12 9.52667 86.34 9.3C86.56 9.06667 86.74 8.85333 86.88 8.66C87.0267 8.46 87.1333 8.26667 87.2 8.08C87.2667 7.89333 87.3 7.69 87.3 7.47C87.3 7.35 87.2833 7.24333 87.25 7.15C87.2233 7.05667 87.1767 6.98 87.11 6.92C87.0433 6.85333 86.9567 6.80333 86.85 6.77C86.75 6.73667 86.6267 6.72 86.48 6.72C86.3467 6.72 86.2233 6.73333 86.11 6.76C85.9967 6.78667 85.89 6.83 85.79 6.89C85.69 6.95 85.5967 7.03 85.51 7.13C85.4433 7.21667 85.4 7.28333 85.38 7.33C85.3667 7.37667 85.3633 7.42667 85.37 7.48L85.31 7.57L85.23 7.52L84.37 6.85C84.5233 6.59 84.71 6.37333 84.93 6.2C85.1567 6.02667 85.4033 5.89667 85.67 5.81C85.9367 5.71667 86.2133 5.67 86.5 5.67C86.8667 5.67 87.2 5.74333 87.5 5.89C87.8067 6.03667 88.05 6.24667 88.23 6.52C88.41 6.78667 88.5 7.10333 88.5 7.47C88.5 7.72333 88.4633 7.96 88.39 8.18C88.3233 8.4 88.2267 8.61667 88.1 8.83C87.9733 9.03667 87.8167 9.25 87.63 9.47C87.4433 9.69 87.23 9.92333 86.99 10.17C86.75 10.4167 86.4833 10.6833 86.19 10.97H88.04C88.1533 10.97 88.2333 10.9633 88.28 10.95C88.3267 10.9367 88.37 10.9133 88.41 10.88H88.51V10.97V12H84.52V11.07Z" fill="white"/>
<path d="M19 38.625V29H27.25V30.375H28.625V34.5H25.875V35.875H27.25V37.25H28.625V38.625H24.5V37.25H23.125V35.875H21.75V38.625H19ZM21.75 34.5H24.5V33.125H25.875V30.375H21.75V34.5ZM30 38.625V29H32.75V31.75H38.25V33.125H39.625V38.625H36.875V33.125H32.75V38.625H30ZM42.375 40V38.625H47.875V37.25H42.375V35.875H41V31.75H43.75V35.875H47.875V31.75H50.625V38.625H49.25V40H42.375ZM56.125 38.625V33.125H53.375V31.75H56.125V29H58.875V31.75H61.625V33.125H58.875V38.625H56.125ZM63 38.625V29H65.75V31.75H71.25V33.125H72.625V38.625H69.875V33.125H65.75V38.625H63ZM74 38.625V31.75H82.25V33.125H83.625V38.625H80.875V33.125H79.5V38.625H76.75V33.125H75.375V38.625H74Z" fill="white"/>
</svg>
