<svg width="102" height="102" viewBox="0 0 102 102" fill="none" xmlns="http://www.w3.org/2000/svg">
<rect x="1" y="1" width="100" height="100" rx="10" fill="black" stroke="black"/>
<path d="M13.52 11.07C13.9133 10.6967 14.26 10.3667 14.56 10.08C14.86 9.78667 15.12 9.52667 15.34 9.3C15.56 9.06667 15.74 8.85333 15.88 8.66C16.0267 8.46 16.1333 8.26667 16.2 8.08C16.2667 7.89333 16.3 7.69 16.3 7.47C16.3 7.35 16.2833 7.24333 16.25 7.15C16.2233 7.05667 16.1767 6.98 16.11 6.92C16.0433 6.85333 15.9567 6.80333 15.85 6.77C15.75 6.73667 15.6267 6.72 15.48 6.72C15.3467 6.72 15.2233 6.73333 15.11 6.76C14.9967 6.78667 14.89 6.83 14.79 6.89C14.69 6.95 14.5967 7.03 14.51 7.13C14.4433 7.21667 14.4 7.28333 14.38 7.33C14.3667 7.37667 14.3633 7.42667 14.37 7.48L14.31 7.57L14.23 7.52L13.37 6.85C13.5233 6.59 13.71 6.37333 13.93 6.2C14.1567 6.02667 14.4033 5.89667 14.67 5.81C14.9367 5.71667 15.2133 5.67 15.5 5.67C15.8667 5.67 16.2 5.74333 16.5 5.89C16.8067 6.03667 17.05 6.24667 17.23 6.52C17.41 6.78667 17.5 7.10333 17.5 7.47C17.5 7.72333 17.4633 7.96 17.39 8.18C17.3233 8.4 17.2267 8.61667 17.1 8.83C16.9733 9.03667 16.8167 9.25 16.63 9.47C16.4433 9.69 16.23 9.92333 15.99 10.17C15.75 10.4167 15.4833 10.6833 15.19 10.97H17.04C17.1533 10.97 17.2333 10.9633 17.28 10.95C17.3267 10.9367 17.37 10.9133 17.41 10.88H17.51V10.97V12H13.52V11.07ZM19.06 10.04L21.72 6.98L21.91 7.82L19.25 10.87L19.06 10.04ZM20.5 12.12C20.0533 12.12 19.6633 11.9967 19.33 11.75C19.0033 11.5033 18.75 11.1433 18.57 10.67C18.3967 10.19 18.31 9.60667 18.31 8.92C18.31 8.24 18.3967 7.65667 18.57 7.17C18.75 6.68333 19.0033 6.31333 19.33 6.06C19.6633 5.8 20.0533 5.67 20.5 5.67C20.9467 5.67 21.3333 5.8 21.66 6.06C21.9933 6.31333 22.2467 6.68333 22.42 7.17C22.6 7.65667 22.69 8.24 22.69 8.92C22.69 9.60667 22.6 10.19 22.42 10.67C22.2467 11.1433 21.9933 11.5033 21.66 11.75C21.3333 11.9967 20.9467 12.12 20.5 12.12ZM20.5 11.17C20.74 11.17 20.9333 11.0833 21.08 10.91C21.2333 10.73 21.3467 10.4733 21.42 10.14C21.4933 9.80667 21.53 9.4 21.53 8.92C21.53 8.44 21.4933 8.03333 21.42 7.7C21.3467 7.36667 21.2333 7.11333 21.08 6.94C20.9333 6.76 20.74 6.67 20.5 6.67C20.2667 6.67 20.0733 6.76 19.92 6.94C19.7667 7.11333 19.6533 7.36667 19.58 7.7C19.5067 8.03333 19.47 8.44 19.47 8.92C19.47 9.4 19.5067 9.80667 19.58 10.14C19.6533 10.4733 19.7667 10.73 19.92 10.91C20.0733 11.0833 20.2667 11.17 20.5 11.17ZM23.52 11.07C23.9133 10.6967 24.26 10.3667 24.56 10.08C24.86 9.78667 25.12 9.52667 25.34 9.3C25.56 9.06667 25.74 8.85333 25.88 8.66C26.0267 8.46 26.1333 8.26667 26.2 8.08C26.2667 7.89333 26.3 7.69 26.3 7.47C26.3 7.35 26.2833 7.24333 26.25 7.15C26.2233 7.05667 26.1767 6.98 26.11 6.92C26.0433 6.85333 25.9567 6.80333 25.85 6.77C25.75 6.73667 25.6267 6.72 25.48 6.72C25.3467 6.72 25.2233 6.73333 25.11 6.76C24.9967 6.78667 24.89 6.83 24.79 6.89C24.69 6.95 24.5967 7.03 24.51 7.13C24.4433 7.21667 24.4 7.28333 24.38 7.33C24.3667 7.37667 24.3633 7.42667 24.37 7.48L24.31 7.57L24.23 7.52L23.37 6.85C23.5233 6.59 23.71 6.37333 23.93 6.2C24.1567 6.02667 24.4033 5.89667 24.67 5.81C24.9367 5.71667 25.2133 5.67 25.5 5.67C25.8667 5.67 26.2 5.74333 26.5 5.89C26.8067 6.03667 27.05 6.24667 27.23 6.52C27.41 6.78667 27.5 7.10333 27.5 7.47C27.5 7.72333 27.4633 7.96 27.39 8.18C27.3233 8.4 27.2267 8.61667 27.1 8.83C26.9733 9.03667 26.8167 9.25 26.63 9.47C26.4433 9.69 26.23 9.92333 25.99 10.17C25.75 10.4167 25.4833 10.6833 25.19 10.97H27.04C27.1533 10.97 27.2333 10.9633 27.28 10.95C27.3267 10.9367 27.37 10.9133 27.41 10.88H27.51V10.97V12H23.52V11.07ZM30 12V7.12L28.92 7.53L28.65 6.67L30.33 5.77H31.28V12H30ZM35.4 12.13C35.1667 12.13 34.97 12.05 34.81 11.89C34.6567 11.73 34.58 11.5367 34.58 11.31C34.58 11.0833 34.6567 10.8933 34.81 10.74C34.97 10.58 35.1667 10.5 35.4 10.5C35.62 10.5 35.81 10.58 35.97 10.74C36.13 10.8933 36.21 11.0833 36.21 11.31C36.21 11.5367 36.13 11.73 35.97 11.89C35.81 12.05 35.62 12.13 35.4 12.13ZM39.06 10.04L41.72 6.98L41.91 7.82L39.25 10.87L39.06 10.04ZM40.5 12.12C40.0533 12.12 39.6633 11.9967 39.33 11.75C39.0033 11.5033 38.75 11.1433 38.57 10.67C38.3967 10.19 38.31 9.60667 38.31 8.92C38.31 8.24 38.3967 7.65667 38.57 7.17C38.75 6.68333 39.0033 6.31333 39.33 6.06C39.6633 5.8 40.0533 5.67 40.5 5.67C40.9467 5.67 41.3333 5.8 41.66 6.06C41.9933 6.31333 42.2467 6.68333 42.42 7.17C42.6 7.65667 42.69 8.24 42.69 8.92C42.69 9.60667 42.6 10.19 42.42 10.67C42.2467 11.1433 41.9933 11.5033 41.66 11.75C41.3333 11.9967 40.9467 12.12 40.5 12.12ZM40.5 11.17C40.74 11.17 40.9333 11.0833 41.08 10.91C41.2333 10.73 41.3467 10.4733 41.42 10.14C41.4933 9.80667 41.53 9.4 41.53 8.92C41.53 8.44 41.4933 8.03333 41.42 7.7C41.3467 7.36667 41.2333 7.11333 41.08 6.94C40.9333 6.76 40.74 6.67 40.5 6.67C40.2667 6.67 40.0733 6.76 39.92 6.94C39.7667 7.11333 39.6533 7.36667 39.58 7.7C39.5067 8.03333 39.47 8.44 39.47 8.92C39.47 9.4 39.5067 9.80667 39.58 10.14C39.6533 10.4733 39.7667 10.73 39.92 10.91C40.0733 11.0833 40.2667 11.17 40.5 11.17ZM45.53 12.12C45.0833 12.12 44.68 12.04 44.32 11.88C43.96 11.7133 43.6867 11.46 43.5 11.12L44.38 10.4L44.45 10.34L44.51 10.42C44.51 10.4733 44.52 10.5233 44.54 10.57C44.56 10.6167 44.6033 10.6833 44.67 10.77C44.7833 10.8767 44.91 10.96 45.05 11.02C45.19 11.0733 45.3433 11.1 45.51 11.1C45.65 11.1 45.7767 11.0733 45.89 11.02C46.01 10.9667 46.1133 10.89 46.2 10.79C46.2867 10.69 46.3533 10.5767 46.4 10.45C46.4467 10.3167 46.47 10.1767 46.47 10.03C46.47 9.85667 46.4467 9.7 46.4 9.56C46.36 9.42 46.2967 9.3 46.21 9.2C46.13 9.09333 46.03 9.01333 45.91 8.96C45.79 8.9 45.65 8.87 45.49 8.87C45.3633 8.87 45.24 8.88667 45.12 8.92C45 8.94667 44.89 8.99333 44.79 9.06C44.6967 9.12667 44.61 9.21333 44.53 9.32L43.76 9.14L43.99 5.77H47.38V6.78H45.05L44.97 8.06C45.0367 8.02 45.1167 7.98333 45.21 7.95C45.31 7.91667 45.41 7.89333 45.51 7.88C45.6167 7.86 45.7133 7.85 45.8 7.85C46.08 7.85 46.3333 7.89333 46.56 7.98C46.7867 8.06667 46.98 8.19667 47.14 8.37C47.3067 8.54333 47.4333 8.76 47.52 9.02C47.6133 9.28 47.66 9.57667 47.66 9.91C47.66 10.3633 47.5667 10.7567 47.38 11.09C47.2 11.4233 46.95 11.68 46.63 11.86C46.31 12.0333 45.9433 12.12 45.53 12.12ZM49.03 9.32V8.3H51.99V9.32H49.03ZM53.52 11.07C53.9133 10.6967 54.26 10.3667 54.56 10.08C54.86 9.78667 55.12 9.52667 55.34 9.3C55.56 9.06667 55.74 8.85333 55.88 8.66C56.0267 8.46 56.1333 8.26667 56.2 8.08C56.2667 7.89333 56.3 7.69 56.3 7.47C56.3 7.35 56.2833 7.24333 56.25 7.15C56.2233 7.05667 56.1767 6.98 56.11 6.92C56.0433 6.85333 55.9567 6.80333 55.85 6.77C55.75 6.73667 55.6267 6.72 55.48 6.72C55.3467 6.72 55.2233 6.73333 55.11 6.76C54.9967 6.78667 54.89 6.83 54.79 6.89C54.69 6.95 54.5967 7.03 54.51 7.13C54.4433 7.21667 54.4 7.28333 54.38 7.33C54.3667 7.37667 54.3633 7.42667 54.37 7.48L54.31 7.57L54.23 7.52L53.37 6.85C53.5233 6.59 53.71 6.37333 53.93 6.2C54.1567 6.02667 54.4033 5.89667 54.67 5.81C54.9367 5.71667 55.2133 5.67 55.5 5.67C55.8667 5.67 56.2 5.74333 56.5 5.89C56.8067 6.03667 57.05 6.24667 57.23 6.52C57.41 6.78667 57.5 7.10333 57.5 7.47C57.5 7.72333 57.4633 7.96 57.39 8.18C57.3233 8.4 57.2267 8.61667 57.1 8.83C56.9733 9.03667 56.8167 9.25 56.63 9.47C56.4433 9.69 56.23 9.92333 55.99 10.17C55.75 10.4167 55.4833 10.6833 55.19 10.97H57.04C57.1533 10.97 57.2333 10.9633 57.28 10.95C57.3267 10.9367 57.37 10.9133 57.41 10.88H57.51V10.97V12H53.52V11.07ZM59.06 10.04L61.72 6.98L61.91 7.82L59.25 10.87L59.06 10.04ZM60.5 12.12C60.0533 12.12 59.6633 11.9967 59.33 11.75C59.0033 11.5033 58.75 11.1433 58.57 10.67C58.3967 10.19 58.31 9.60667 58.31 8.92C58.31 8.24 58.3967 7.65667 58.57 7.17C58.75 6.68333 59.0033 6.31333 59.33 6.06C59.6633 5.8 60.0533 5.67 60.5 5.67C60.9467 5.67 61.3333 5.8 61.66 6.06C61.9933 6.31333 62.2467 6.68333 62.42 7.17C62.6 7.65667 62.69 8.24 62.69 8.92C62.69 9.60667 62.6 10.19 62.42 10.67C62.2467 11.1433 61.9933 11.5033 61.66 11.75C61.3333 11.9967 60.9467 12.12 60.5 12.12ZM60.5 11.17C60.74 11.17 60.9333 11.0833 61.08 10.91C61.2333 10.73 61.3467 10.4733 61.42 10.14C61.4933 9.80667 61.53 9.4 61.53 8.92C61.53 8.44 61.4933 8.03333 61.42 7.7C61.3467 7.36667 61.2333 7.11333 61.08 6.94C60.9333 6.76 60.74 6.67 60.5 6.67C60.2667 6.67 60.0733 6.76 59.92 6.94C59.7667 7.11333 59.6533 7.36667 59.58 7.7C59.5067 8.03333 59.47 8.44 59.47 8.92C59.47 9.4 59.5067 9.80667 59.58 10.14C59.6533 10.4733 59.7667 10.73 59.92 10.91C60.0733 11.0833 60.2667 11.17 60.5 11.17ZM63.52 11.07C63.9133 10.6967 64.26 10.3667 64.56 10.08C64.86 9.78667 65.12 9.52667 65.34 9.3C65.56 9.06667 65.74 8.85333 65.88 8.66C66.0267 8.46 66.1333 8.26667 66.2 8.08C66.2667 7.89333 66.3 7.69 66.3 7.47C66.3 7.35 66.2833 7.24333 66.25 7.15C66.2233 7.05667 66.1767 6.98 66.11 6.92C66.0433 6.85333 65.9567 6.80333 65.85 6.77C65.75 6.73667 65.6267 6.72 65.48 6.72C65.3467 6.72 65.2233 6.73333 65.11 6.76C64.9967 6.78667 64.89 6.83 64.79 6.89C64.69 6.95 64.5967 7.03 64.51 7.13C64.4433 7.21667 64.4 7.28333 64.38 7.33C64.3667 7.37667 64.3633 7.42667 64.37 7.48L64.31 7.57L64.23 7.52L63.37 6.85C63.5233 6.59 63.71 6.37333 63.93 6.2C64.1567 6.02667 64.4033 5.89667 64.67 5.81C64.9367 5.71667 65.2133 5.67 65.5 5.67C65.8667 5.67 66.2 5.74333 66.5 5.89C66.8067 6.03667 67.05 6.24667 67.23 6.52C67.41 6.78667 67.5 7.10333 67.5 7.47C67.5 7.72333 67.4633 7.96 67.39 8.18C67.3233 8.4 67.2267 8.61667 67.1 8.83C66.9733 9.03667 66.8167 9.25 66.63 9.47C66.4433 9.69 66.23 9.92333 65.99 10.17C65.75 10.4167 65.4833 10.6833 65.19 10.97H67.04C67.1533 10.97 67.2333 10.9633 67.28 10.95C67.3267 10.9367 67.37 10.9133 67.41 10.88H67.51V10.97V12H63.52V11.07ZM70 12V7.12L68.92 7.53L68.65 6.67L70.33 5.77H71.28V12H70ZM75.4 12.13C75.1667 12.13 74.97 12.05 74.81 11.89C74.6567 11.73 74.58 11.5367 74.58 11.31C74.58 11.0833 74.6567 10.8933 74.81 10.74C74.97 10.58 75.1667 10.5 75.4 10.5C75.62 10.5 75.81 10.58 75.97 10.74C76.13 10.8933 76.21 11.0833 76.21 11.31C76.21 11.5367 76.13 11.73 75.97 11.89C75.81 12.05 75.62 12.13 75.4 12.13ZM79.06 10.04L81.72 6.98L81.91 7.82L79.25 10.87L79.06 10.04ZM80.5 12.12C80.0533 12.12 79.6633 11.9967 79.33 11.75C79.0033 11.5033 78.75 11.1433 78.57 10.67C78.3967 10.19 78.31 9.60667 78.31 8.92C78.31 8.24 78.3967 7.65667 78.57 7.17C78.75 6.68333 79.0033 6.31333 79.33 6.06C79.6633 5.8 80.0533 5.67 80.5 5.67C80.9467 5.67 81.3333 5.8 81.66 6.06C81.9933 6.31333 82.2467 6.68333 82.42 7.17C82.6 7.65667 82.69 8.24 82.69 8.92C82.69 9.60667 82.6 10.19 82.42 10.67C82.2467 11.1433 81.9933 11.5033 81.66 11.75C81.3333 11.9967 80.9467 12.12 80.5 12.12ZM80.5 11.17C80.74 11.17 80.9333 11.0833 81.08 10.91C81.2333 10.73 81.3467 10.4733 81.42 10.14C81.4933 9.80667 81.53 9.4 81.53 8.92C81.53 8.44 81.4933 8.03333 81.42 7.7C81.3467 7.36667 81.2333 7.11333 81.08 6.94C80.9333 6.76 80.74 6.67 80.5 6.67C80.2667 6.67 80.0733 6.76 79.92 6.94C79.7667 7.11333 79.6533 7.36667 79.58 7.7C79.5067 8.03333 79.47 8.44 79.47 8.92C79.47 9.4 79.5067 9.80667 79.58 10.14C79.6533 10.4733 79.7667 10.73 79.92 10.91C80.0733 11.0833 80.2667 11.17 80.5 11.17ZM84.14 12C84.34 11.4 84.54 10.8167 84.74 10.25C84.9467 9.68333 85.16 9.11667 85.38 8.55C85.6 7.98333 85.8267 7.41667 86.06 6.85H83.61V5.77H87.47V6.46C87.2767 6.91333 87.09 7.36333 86.91 7.81C86.73 8.25667 86.5533 8.71 86.38 9.17C86.2133 9.62333 86.05 10.0867 85.89 10.56C85.73 11.0267 85.5767 11.5067 85.43 12H84.14Z" fill="white"/>
<path d="M17.25 35.75V34.5H16V33.25H18.5V34.5H22.25V32H17.25V30.75H16V28.25H17.25V27H23.5V28.25H24.75V29.5H22.25V28.25H18.5V30.75H23.5V32H24.75V34.5H23.5V35.75H17.25ZM27.25 35.75V34.5H26V30.75H27.25V29.5H34.75V30.75H28.5V34.5H34.75V35.75H27.25ZM37.25 35.75V34.5H36V30.75H37.25V29.5H43.5V30.75H44.75V33.25H38.5V34.5H43.5V35.75H37.25ZM38.5 32H42.25V30.75H38.5V32ZM46 35.75V29.5H53.5V30.75H54.75V35.75H52.25V30.75H48.5V35.75H46ZM57.25 35.75V34.5H56V30.75H57.25V29.5H63.5V30.75H64.75V33.25H58.5V34.5H63.5V35.75H57.25ZM58.5 32H62.25V30.75H58.5V32ZM69.75 30.75H71V32H69.75V35.75H67.25V29.5H69.75V30.75ZM74.75 29.5V30.75H71V29.5H74.75ZM77.25 37V35.75H82.25V34.5H77.25V33.25H76V29.5H78.5V33.25H82.25V29.5H84.75V35.75H83.5V37H77.25Z" fill="white"/>
</svg>
