<svg width="102" height="102" viewBox="0 0 102 102" fill="none" xmlns="http://www.w3.org/2000/svg">
<rect x="1" y="1" width="100" height="100" rx="10" fill="black" stroke="black"/>
<path d="M13.52 11.07C13.9133 10.6967 14.26 10.3667 14.56 10.08C14.86 9.78667 15.12 9.52667 15.34 9.3C15.56 9.06667 15.74 8.85333 15.88 8.66C16.0267 8.46 16.1333 8.26667 16.2 8.08C16.2667 7.89333 16.3 7.69 16.3 7.47C16.3 7.35 16.2833 7.24333 16.25 7.15C16.2233 7.05667 16.1767 6.98 16.11 6.92C16.0433 6.85333 15.9567 6.80333 15.85 6.77C15.75 6.73667 15.6267 6.72 15.48 6.72C15.3467 6.72 15.2233 6.73333 15.11 6.76C14.9967 6.78667 14.89 6.83 14.79 6.89C14.69 6.95 14.5967 7.03 14.51 7.13C14.4433 7.21667 14.4 7.28333 14.38 7.33C14.3667 7.37667 14.3633 7.42667 14.37 7.48L14.31 7.57L14.23 7.52L13.37 6.85C13.5233 6.59 13.71 6.37333 13.93 6.2C14.1567 6.02667 14.4033 5.89667 14.67 5.81C14.9367 5.71667 15.2133 5.67 15.5 5.67C15.8667 5.67 16.2 5.74333 16.5 5.89C16.8067 6.03667 17.05 6.24667 17.23 6.52C17.41 6.78667 17.5 7.10333 17.5 7.47C17.5 7.72333 17.4633 7.96 17.39 8.18C17.3233 8.4 17.2267 8.61667 17.1 8.83C16.9733 9.03667 16.8167 9.25 16.63 9.47C16.4433 9.69 16.23 9.92333 15.99 10.17C15.75 10.4167 15.4833 10.6833 15.19 10.97H17.04C17.1533 10.97 17.2333 10.9633 17.28 10.95C17.3267 10.9367 17.37 10.9133 17.41 10.88H17.51V10.97V12H13.52V11.07ZM19.06 10.04L21.72 6.98L21.91 7.82L19.25 10.87L19.06 10.04ZM20.5 12.12C20.0533 12.12 19.6633 11.9967 19.33 11.75C19.0033 11.5033 18.75 11.1433 18.57 10.67C18.3967 10.19 18.31 9.60667 18.31 8.92C18.31 8.24 18.3967 7.65667 18.57 7.17C18.75 6.68333 19.0033 6.31333 19.33 6.06C19.6633 5.8 20.0533 5.67 20.5 5.67C20.9467 5.67 21.3333 5.8 21.66 6.06C21.9933 6.31333 22.2467 6.68333 22.42 7.17C22.6 7.65667 22.69 8.24 22.69 8.92C22.69 9.60667 22.6 10.19 22.42 10.67C22.2467 11.1433 21.9933 11.5033 21.66 11.75C21.3333 11.9967 20.9467 12.12 20.5 12.12ZM20.5 11.17C20.74 11.17 20.9333 11.0833 21.08 10.91C21.2333 10.73 21.3467 10.4733 21.42 10.14C21.4933 9.80667 21.53 9.4 21.53 8.92C21.53 8.44 21.4933 8.03333 21.42 7.7C21.3467 7.36667 21.2333 7.11333 21.08 6.94C20.9333 6.76 20.74 6.67 20.5 6.67C20.2667 6.67 20.0733 6.76 19.92 6.94C19.7667 7.11333 19.6533 7.36667 19.58 7.7C19.5067 8.03333 19.47 8.44 19.47 8.92C19.47 9.4 19.5067 9.80667 19.58 10.14C19.6533 10.4733 19.7667 10.73 19.92 10.91C20.0733 11.0833 20.2667 11.17 20.5 11.17ZM23.52 11.07C23.9133 10.6967 24.26 10.3667 24.56 10.08C24.86 9.78667 25.12 9.52667 25.34 9.3C25.56 9.06667 25.74 8.85333 25.88 8.66C26.0267 8.46 26.1333 8.26667 26.2 8.08C26.2667 7.89333 26.3 7.69 26.3 7.47C26.3 7.35 26.2833 7.24333 26.25 7.15C26.2233 7.05667 26.1767 6.98 26.11 6.92C26.0433 6.85333 25.9567 6.80333 25.85 6.77C25.75 6.73667 25.6267 6.72 25.48 6.72C25.3467 6.72 25.2233 6.73333 25.11 6.76C24.9967 6.78667 24.89 6.83 24.79 6.89C24.69 6.95 24.5967 7.03 24.51 7.13C24.4433 7.21667 24.4 7.28333 24.38 7.33C24.3667 7.37667 24.3633 7.42667 24.37 7.48L24.31 7.57L24.23 7.52L23.37 6.85C23.5233 6.59 23.71 6.37333 23.93 6.2C24.1567 6.02667 24.4033 5.89667 24.67 5.81C24.9367 5.71667 25.2133 5.67 25.5 5.67C25.8667 5.67 26.2 5.74333 26.5 5.89C26.8067 6.03667 27.05 6.24667 27.23 6.52C27.41 6.78667 27.5 7.10333 27.5 7.47C27.5 7.72333 27.4633 7.96 27.39 8.18C27.3233 8.4 27.2267 8.61667 27.1 8.83C26.9733 9.03667 26.8167 9.25 26.63 9.47C26.4433 9.69 26.23 9.92333 25.99 10.17C25.75 10.4167 25.4833 10.6833 25.19 10.97H27.04C27.1533 10.97 27.2333 10.9633 27.28 10.95C27.3267 10.9367 27.37 10.9133 27.41 10.88H27.51V10.97V12H23.52V11.07ZM30.34 12.12C29.96 12.12 29.5867 12.06 29.22 11.94C28.8533 11.8133 28.5633 11.62 28.35 11.36L28.97 10.43L29.02 10.35L29.11 10.41C29.1233 10.4567 29.1367 10.51 29.15 10.57C29.17 10.6233 29.22 10.69 29.3 10.77C29.4267 10.8767 29.5733 10.9633 29.74 11.03C29.9067 11.09 30.0833 11.12 30.27 11.12C30.47 11.12 30.6367 11.0833 30.77 11.01C30.91 10.93 31.0167 10.8233 31.09 10.69C31.1633 10.55 31.2 10.3933 31.2 10.22C31.2 10.02 31.1667 9.85333 31.1 9.72C31.0333 9.58667 30.9333 9.48333 30.8 9.41C30.6733 9.33 30.51 9.28 30.31 9.26C30.11 9.24 29.8733 9.24667 29.6 9.28V8.29C29.88 8.29667 30.1167 8.28 30.31 8.24C30.5033 8.2 30.6567 8.14333 30.77 8.07C30.8833 7.99 30.9633 7.89667 31.01 7.79C31.0567 7.68333 31.08 7.57333 31.08 7.46C31.08 7.34 31.06 7.23333 31.02 7.14C30.9867 7.04667 30.9333 6.96667 30.86 6.9C30.7933 6.83333 30.71 6.78333 30.61 6.75C30.5167 6.71667 30.4067 6.7 30.28 6.7C30.1467 6.7 30.0133 6.71667 29.88 6.75C29.7467 6.78333 29.6233 6.83667 29.51 6.91C29.3967 6.98333 29.2933 7.07667 29.2 7.19L28.47 6.45C28.7167 6.17 29.0067 5.97 29.34 5.85C29.6733 5.73 30.0067 5.67 30.34 5.67C30.7133 5.67 31.0467 5.74 31.34 5.88C31.64 6.02 31.8733 6.21333 32.04 6.46C32.2133 6.7 32.3 6.97667 32.3 7.29C32.3 7.52333 32.25 7.73333 32.15 7.92C32.0567 8.10667 31.9333 8.26333 31.78 8.39C31.6333 8.51667 31.4833 8.61333 31.33 8.68C31.5167 8.74667 31.6967 8.84667 31.87 8.98C32.0433 9.11333 32.1867 9.28667 32.3 9.5C32.4133 9.70667 32.47 9.96 32.47 10.26C32.47 10.6067 32.38 10.9233 32.2 11.21C32.0267 11.49 31.78 11.7133 31.46 11.88C31.1467 12.04 30.7733 12.12 30.34 12.12ZM35.4 12.13C35.1667 12.13 34.97 12.05 34.81 11.89C34.6567 11.73 34.58 11.5367 34.58 11.31C34.58 11.0833 34.6567 10.8933 34.81 10.74C34.97 10.58 35.1667 10.5 35.4 10.5C35.62 10.5 35.81 10.58 35.97 10.74C36.13 10.8933 36.21 11.0833 36.21 11.31C36.21 11.5367 36.13 11.73 35.97 11.89C35.81 12.05 35.62 12.13 35.4 12.13ZM39.06 10.04L41.72 6.98L41.91 7.82L39.25 10.87L39.06 10.04ZM40.5 12.12C40.0533 12.12 39.6633 11.9967 39.33 11.75C39.0033 11.5033 38.75 11.1433 38.57 10.67C38.3967 10.19 38.31 9.60667 38.31 8.92C38.31 8.24 38.3967 7.65667 38.57 7.17C38.75 6.68333 39.0033 6.31333 39.33 6.06C39.6633 5.8 40.0533 5.67 40.5 5.67C40.9467 5.67 41.3333 5.8 41.66 6.06C41.9933 6.31333 42.2467 6.68333 42.42 7.17C42.6 7.65667 42.69 8.24 42.69 8.92C42.69 9.60667 42.6 10.19 42.42 10.67C42.2467 11.1433 41.9933 11.5033 41.66 11.75C41.3333 11.9967 40.9467 12.12 40.5 12.12ZM40.5 11.17C40.74 11.17 40.9333 11.0833 41.08 10.91C41.2333 10.73 41.3467 10.4733 41.42 10.14C41.4933 9.80667 41.53 9.4 41.53 8.92C41.53 8.44 41.4933 8.03333 41.42 7.7C41.3467 7.36667 41.2333 7.11333 41.08 6.94C40.9333 6.76 40.74 6.67 40.5 6.67C40.2667 6.67 40.0733 6.76 39.92 6.94C39.7667 7.11333 39.6533 7.36667 39.58 7.7C39.5067 8.03333 39.47 8.44 39.47 8.92C39.47 9.4 39.5067 9.80667 39.58 10.14C39.6533 10.4733 39.7667 10.73 39.92 10.91C40.0733 11.0833 40.2667 11.17 40.5 11.17ZM45.22 12.12C44.9133 12.12 44.6033 12.08 44.29 12C43.9833 11.9133 43.7033 11.7667 43.45 11.56L44.07 10.61L44.12 10.53L44.21 10.59C44.2233 10.6367 44.2433 10.6833 44.27 10.73C44.3033 10.7767 44.3633 10.8333 44.45 10.9C44.5633 10.9667 44.68 11.0167 44.8 11.05C44.9267 11.0767 45.0567 11.09 45.19 11.09C45.3567 11.09 45.51 11.0433 45.65 10.95C45.79 10.8567 45.91 10.7167 46.01 10.53C46.1167 10.3433 46.1967 10.12 46.25 9.86C46.31 9.6 46.3433 9.30667 46.35 8.98C46.3633 8.39333 46.3367 7.93333 46.27 7.6C46.2033 7.26 46.1033 7.02 45.97 6.88C45.8367 6.73333 45.6633 6.66 45.45 6.66C45.3167 6.66 45.1967 6.69 45.09 6.75C44.9833 6.80333 44.89 6.88333 44.81 6.99C44.7367 7.09 44.68 7.21333 44.64 7.36C44.6 7.50667 44.58 7.67333 44.58 7.86C44.58 8.02667 44.6 8.17 44.64 8.29C44.6867 8.41 44.75 8.51 44.83 8.59C44.91 8.67 45.0033 8.73333 45.11 8.78C45.2167 8.82 45.33 8.84 45.45 8.84C45.5967 8.84 45.7367 8.82333 45.87 8.79C46.01 8.75 46.1333 8.68667 46.24 8.6C46.3533 8.51333 46.45 8.39333 46.53 8.24L46.67 9.29C46.5767 9.39667 46.46 9.49333 46.32 9.58C46.18 9.66 46.0267 9.72333 45.86 9.77C45.6933 9.81 45.5167 9.83 45.33 9.83C45.0567 9.83 44.8033 9.78333 44.57 9.69C44.3367 9.59667 44.13 9.46333 43.95 9.29C43.7767 9.11 43.64 8.89667 43.54 8.65C43.44 8.40333 43.39 8.12333 43.39 7.81C43.39 7.50333 43.4433 7.22 43.55 6.96C43.6633 6.7 43.8133 6.47333 44 6.28C44.1933 6.08667 44.42 5.93667 44.68 5.83C44.94 5.72333 45.2167 5.67 45.51 5.67C45.9633 5.67 46.3367 5.78 46.63 6C46.93 6.22 47.1533 6.55 47.3 6.99C47.4467 7.43 47.52 7.97667 47.52 8.63C47.52 9.37667 47.43 10.01 47.25 10.53C47.07 11.0433 46.81 11.4367 46.47 11.71C46.13 11.9767 45.7133 12.1133 45.22 12.12ZM49.03 9.32V8.3H51.99V9.32H49.03ZM53.52 11.07C53.9133 10.6967 54.26 10.3667 54.56 10.08C54.86 9.78667 55.12 9.52667 55.34 9.3C55.56 9.06667 55.74 8.85333 55.88 8.66C56.0267 8.46 56.1333 8.26667 56.2 8.08C56.2667 7.89333 56.3 7.69 56.3 7.47C56.3 7.35 56.2833 7.24333 56.25 7.15C56.2233 7.05667 56.1767 6.98 56.11 6.92C56.0433 6.85333 55.9567 6.80333 55.85 6.77C55.75 6.73667 55.6267 6.72 55.48 6.72C55.3467 6.72 55.2233 6.73333 55.11 6.76C54.9967 6.78667 54.89 6.83 54.79 6.89C54.69 6.95 54.5967 7.03 54.51 7.13C54.4433 7.21667 54.4 7.28333 54.38 7.33C54.3667 7.37667 54.3633 7.42667 54.37 7.48L54.31 7.57L54.23 7.52L53.37 6.85C53.5233 6.59 53.71 6.37333 53.93 6.2C54.1567 6.02667 54.4033 5.89667 54.67 5.81C54.9367 5.71667 55.2133 5.67 55.5 5.67C55.8667 5.67 56.2 5.74333 56.5 5.89C56.8067 6.03667 57.05 6.24667 57.23 6.52C57.41 6.78667 57.5 7.10333 57.5 7.47C57.5 7.72333 57.4633 7.96 57.39 8.18C57.3233 8.4 57.2267 8.61667 57.1 8.83C56.9733 9.03667 56.8167 9.25 56.63 9.47C56.4433 9.69 56.23 9.92333 55.99 10.17C55.75 10.4167 55.4833 10.6833 55.19 10.97H57.04C57.1533 10.97 57.2333 10.9633 57.28 10.95C57.3267 10.9367 57.37 10.9133 57.41 10.88H57.51V10.97V12H53.52V11.07ZM59.06 10.04L61.72 6.98L61.91 7.82L59.25 10.87L59.06 10.04ZM60.5 12.12C60.0533 12.12 59.6633 11.9967 59.33 11.75C59.0033 11.5033 58.75 11.1433 58.57 10.67C58.3967 10.19 58.31 9.60667 58.31 8.92C58.31 8.24 58.3967 7.65667 58.57 7.17C58.75 6.68333 59.0033 6.31333 59.33 6.06C59.6633 5.8 60.0533 5.67 60.5 5.67C60.9467 5.67 61.3333 5.8 61.66 6.06C61.9933 6.31333 62.2467 6.68333 62.42 7.17C62.6 7.65667 62.69 8.24 62.69 8.92C62.69 9.60667 62.6 10.19 62.42 10.67C62.2467 11.1433 61.9933 11.5033 61.66 11.75C61.3333 11.9967 60.9467 12.12 60.5 12.12ZM60.5 11.17C60.74 11.17 60.9333 11.0833 61.08 10.91C61.2333 10.73 61.3467 10.4733 61.42 10.14C61.4933 9.80667 61.53 9.4 61.53 8.92C61.53 8.44 61.4933 8.03333 61.42 7.7C61.3467 7.36667 61.2333 7.11333 61.08 6.94C60.9333 6.76 60.74 6.67 60.5 6.67C60.2667 6.67 60.0733 6.76 59.92 6.94C59.7667 7.11333 59.6533 7.36667 59.58 7.7C59.5067 8.03333 59.47 8.44 59.47 8.92C59.47 9.4 59.5067 9.80667 59.58 10.14C59.6533 10.4733 59.7667 10.73 59.92 10.91C60.0733 11.0833 60.2667 11.17 60.5 11.17ZM63.52 11.07C63.9133 10.6967 64.26 10.3667 64.56 10.08C64.86 9.78667 65.12 9.52667 65.34 9.3C65.56 9.06667 65.74 8.85333 65.88 8.66C66.0267 8.46 66.1333 8.26667 66.2 8.08C66.2667 7.89333 66.3 7.69 66.3 7.47C66.3 7.35 66.2833 7.24333 66.25 7.15C66.2233 7.05667 66.1767 6.98 66.11 6.92C66.0433 6.85333 65.9567 6.80333 65.85 6.77C65.75 6.73667 65.6267 6.72 65.48 6.72C65.3467 6.72 65.2233 6.73333 65.11 6.76C64.9967 6.78667 64.89 6.83 64.79 6.89C64.69 6.95 64.5967 7.03 64.51 7.13C64.4433 7.21667 64.4 7.28333 64.38 7.33C64.3667 7.37667 64.3633 7.42667 64.37 7.48L64.31 7.57L64.23 7.52L63.37 6.85C63.5233 6.59 63.71 6.37333 63.93 6.2C64.1567 6.02667 64.4033 5.89667 64.67 5.81C64.9367 5.71667 65.2133 5.67 65.5 5.67C65.8667 5.67 66.2 5.74333 66.5 5.89C66.8067 6.03667 67.05 6.24667 67.23 6.52C67.41 6.78667 67.5 7.10333 67.5 7.47C67.5 7.72333 67.4633 7.96 67.39 8.18C67.3233 8.4 67.2267 8.61667 67.1 8.83C66.9733 9.03667 66.8167 9.25 66.63 9.47C66.4433 9.69 66.23 9.92333 65.99 10.17C65.75 10.4167 65.4833 10.6833 65.19 10.97H67.04C67.1533 10.97 67.2333 10.9633 67.28 10.95C67.3267 10.9367 67.37 10.9133 67.41 10.88H67.51V10.97V12H63.52V11.07ZM70.34 12.12C69.96 12.12 69.5867 12.06 69.22 11.94C68.8533 11.8133 68.5633 11.62 68.35 11.36L68.97 10.43L69.02 10.35L69.11 10.41C69.1233 10.4567 69.1367 10.51 69.15 10.57C69.17 10.6233 69.22 10.69 69.3 10.77C69.4267 10.8767 69.5733 10.9633 69.74 11.03C69.9067 11.09 70.0833 11.12 70.27 11.12C70.47 11.12 70.6367 11.0833 70.77 11.01C70.91 10.93 71.0167 10.8233 71.09 10.69C71.1633 10.55 71.2 10.3933 71.2 10.22C71.2 10.02 71.1667 9.85333 71.1 9.72C71.0333 9.58667 70.9333 9.48333 70.8 9.41C70.6733 9.33 70.51 9.28 70.31 9.26C70.11 9.24 69.8733 9.24667 69.6 9.28V8.29C69.88 8.29667 70.1167 8.28 70.31 8.24C70.5033 8.2 70.6567 8.14333 70.77 8.07C70.8833 7.99 70.9633 7.89667 71.01 7.79C71.0567 7.68333 71.08 7.57333 71.08 7.46C71.08 7.34 71.06 7.23333 71.02 7.14C70.9867 7.04667 70.9333 6.96667 70.86 6.9C70.7933 6.83333 70.71 6.78333 70.61 6.75C70.5167 6.71667 70.4067 6.7 70.28 6.7C70.1467 6.7 70.0133 6.71667 69.88 6.75C69.7467 6.78333 69.6233 6.83667 69.51 6.91C69.3967 6.98333 69.2933 7.07667 69.2 7.19L68.47 6.45C68.7167 6.17 69.0067 5.97 69.34 5.85C69.6733 5.73 70.0067 5.67 70.34 5.67C70.7133 5.67 71.0467 5.74 71.34 5.88C71.64 6.02 71.8733 6.21333 72.04 6.46C72.2133 6.7 72.3 6.97667 72.3 7.29C72.3 7.52333 72.25 7.73333 72.15 7.92C72.0567 8.10667 71.9333 8.26333 71.78 8.39C71.6333 8.51667 71.4833 8.61333 71.33 8.68C71.5167 8.74667 71.6967 8.84667 71.87 8.98C72.0433 9.11333 72.1867 9.28667 72.3 9.5C72.4133 9.70667 72.47 9.96 72.47 10.26C72.47 10.6067 72.38 10.9233 72.2 11.21C72.0267 11.49 71.78 11.7133 71.46 11.88C71.1467 12.04 70.7733 12.12 70.34 12.12ZM75.4 12.13C75.1667 12.13 74.97 12.05 74.81 11.89C74.6567 11.73 74.58 11.5367 74.58 11.31C74.58 11.0833 74.6567 10.8933 74.81 10.74C74.97 10.58 75.1667 10.5 75.4 10.5C75.62 10.5 75.81 10.58 75.97 10.74C76.13 10.8933 76.21 11.0833 76.21 11.31C76.21 11.5367 76.13 11.73 75.97 11.89C75.81 12.05 75.62 12.13 75.4 12.13ZM80 12V7.12L78.92 7.53L78.65 6.67L80.33 5.77H81.28V12H80ZM85 12V7.12L83.92 7.53L83.65 6.67L85.33 5.77H86.28V12H85Z" fill="white"/>
<path d="M25.625 35.375V24H28.875V33.75H35.375V35.375H25.625ZM41.875 25.625V24H45.125V25.625H41.875ZM38.625 35.375V33.75H41.875V28.875H40.25V27.25H45.125V33.75H48.375V35.375H38.625ZM54.875 35.375V28.875H51.625V27.25H54.875V25.625H56.5V24H61.375V25.625H58.125V27.25H61.375V28.875H58.125V35.375H54.875ZM64.625 35.375V33.75H63V28.875H64.625V27.25H72.75V28.875H74.375V32.125H66.25V33.75H72.75V35.375H64.625ZM66.25 30.5H71.125V28.875H66.25V30.5ZM15.875 38.625V37H19.125V38.625H15.875ZM12.625 48.375V46.75H15.875V41.875H14.25V40.25H19.125V46.75H22.375V48.375H12.625ZM28.875 48.375V41.875H25.625V40.25H28.875V37H32.125V40.25H35.375V41.875H32.125V48.375H28.875ZM37 48.375V46.75H45.125V45.125H38.625V43.5H37V41.875H38.625V40.25H46.75V41.875H40.25V43.5H46.75V45.125H48.375V46.75H46.75V48.375H37ZM51.625 48.375V46.75H50V41.875H51.625V40.25H59.75V41.875H61.375V45.125H53.25V46.75H59.75V48.375H51.625ZM53.25 43.5H58.125V41.875H53.25V43.5ZM64.625 48.375V46.75H67.875V38.625H66.25V37H71.125V46.75H74.375V48.375H64.625ZM80.875 48.375V41.875H77.625V40.25H80.875V38.625H82.5V37H87.375V38.625H84.125V40.25H87.375V41.875H84.125V48.375H80.875Z" fill="white"/>
</svg>
