<svg width="102" height="102" viewBox="0 0 102 102" fill="none" xmlns="http://www.w3.org/2000/svg">
<rect x="1" y="1" width="100" height="100" rx="10" fill="black" stroke="black"/>
<path d="M13.52 11.07C13.9133 10.6967 14.26 10.3667 14.56 10.08C14.86 9.78667 15.12 9.52667 15.34 9.3C15.56 9.06667 15.74 8.85333 15.88 8.66C16.0267 8.46 16.1333 8.26667 16.2 8.08C16.2667 7.89333 16.3 7.69 16.3 7.47C16.3 7.35 16.2833 7.24333 16.25 7.15C16.2233 7.05667 16.1767 6.98 16.11 6.92C16.0433 6.85333 15.9567 6.80333 15.85 6.77C15.75 6.73667 15.6267 6.72 15.48 6.72C15.3467 6.72 15.2233 6.73333 15.11 6.76C14.9967 6.78667 14.89 6.83 14.79 6.89C14.69 6.95 14.5967 7.03 14.51 7.13C14.4433 7.21667 14.4 7.28333 14.38 7.33C14.3667 7.37667 14.3633 7.42667 14.37 7.48L14.31 7.57L14.23 7.52L13.37 6.85C13.5233 6.59 13.71 6.37333 13.93 6.2C14.1567 6.02667 14.4033 5.89667 14.67 5.81C14.9367 5.71667 15.2133 5.67 15.5 5.67C15.8667 5.67 16.2 5.74333 16.5 5.89C16.8067 6.03667 17.05 6.24667 17.23 6.52C17.41 6.78667 17.5 7.10333 17.5 7.47C17.5 7.72333 17.4633 7.96 17.39 8.18C17.3233 8.4 17.2267 8.61667 17.1 8.83C16.9733 9.03667 16.8167 9.25 16.63 9.47C16.4433 9.69 16.23 9.92333 15.99 10.17C15.75 10.4167 15.4833 10.6833 15.19 10.97H17.04C17.1533 10.97 17.2333 10.9633 17.28 10.95C17.3267 10.9367 17.37 10.9133 17.41 10.88H17.51V10.97V12H13.52V11.07ZM19.06 10.04L21.72 6.98L21.91 7.82L19.25 10.87L19.06 10.04ZM20.5 12.12C20.0533 12.12 19.6633 11.9967 19.33 11.75C19.0033 11.5033 18.75 11.1433 18.57 10.67C18.3967 10.19 18.31 9.60667 18.31 8.92C18.31 8.24 18.3967 7.65667 18.57 7.17C18.75 6.68333 19.0033 6.31333 19.33 6.06C19.6633 5.8 20.0533 5.67 20.5 5.67C20.9467 5.67 21.3333 5.8 21.66 6.06C21.9933 6.31333 22.2467 6.68333 22.42 7.17C22.6 7.65667 22.69 8.24 22.69 8.92C22.69 9.60667 22.6 10.19 22.42 10.67C22.2467 11.1433 21.9933 11.5033 21.66 11.75C21.3333 11.9967 20.9467 12.12 20.5 12.12ZM20.5 11.17C20.74 11.17 20.9333 11.0833 21.08 10.91C21.2333 10.73 21.3467 10.4733 21.42 10.14C21.4933 9.80667 21.53 9.4 21.53 8.92C21.53 8.44 21.4933 8.03333 21.42 7.7C21.3467 7.36667 21.2333 7.11333 21.08 6.94C20.9333 6.76 20.74 6.67 20.5 6.67C20.2667 6.67 20.0733 6.76 19.92 6.94C19.7667 7.11333 19.6533 7.36667 19.58 7.7C19.5067 8.03333 19.47 8.44 19.47 8.92C19.47 9.4 19.5067 9.80667 19.58 10.14C19.6533 10.4733 19.7667 10.73 19.92 10.91C20.0733 11.0833 20.2667 11.17 20.5 11.17ZM23.52 11.07C23.9133 10.6967 24.26 10.3667 24.56 10.08C24.86 9.78667 25.12 9.52667 25.34 9.3C25.56 9.06667 25.74 8.85333 25.88 8.66C26.0267 8.46 26.1333 8.26667 26.2 8.08C26.2667 7.89333 26.3 7.69 26.3 7.47C26.3 7.35 26.2833 7.24333 26.25 7.15C26.2233 7.05667 26.1767 6.98 26.11 6.92C26.0433 6.85333 25.9567 6.80333 25.85 6.77C25.75 6.73667 25.6267 6.72 25.48 6.72C25.3467 6.72 25.2233 6.73333 25.11 6.76C24.9967 6.78667 24.89 6.83 24.79 6.89C24.69 6.95 24.5967 7.03 24.51 7.13C24.4433 7.21667 24.4 7.28333 24.38 7.33C24.3667 7.37667 24.3633 7.42667 24.37 7.48L24.31 7.57L24.23 7.52L23.37 6.85C23.5233 6.59 23.71 6.37333 23.93 6.2C24.1567 6.02667 24.4033 5.89667 24.67 5.81C24.9367 5.71667 25.2133 5.67 25.5 5.67C25.8667 5.67 26.2 5.74333 26.5 5.89C26.8067 6.03667 27.05 6.24667 27.23 6.52C27.41 6.78667 27.5 7.10333 27.5 7.47C27.5 7.72333 27.4633 7.96 27.39 8.18C27.3233 8.4 27.2267 8.61667 27.1 8.83C26.9733 9.03667 26.8167 9.25 26.63 9.47C26.4433 9.69 26.23 9.92333 25.99 10.17C25.75 10.4167 25.4833 10.6833 25.19 10.97H27.04C27.1533 10.97 27.2333 10.9633 27.28 10.95C27.3267 10.9367 27.37 10.9133 27.41 10.88H27.51V10.97V12H23.52V11.07ZM30.34 12.12C29.96 12.12 29.5867 12.06 29.22 11.94C28.8533 11.8133 28.5633 11.62 28.35 11.36L28.97 10.43L29.02 10.35L29.11 10.41C29.1233 10.4567 29.1367 10.51 29.15 10.57C29.17 10.6233 29.22 10.69 29.3 10.77C29.4267 10.8767 29.5733 10.9633 29.74 11.03C29.9067 11.09 30.0833 11.12 30.27 11.12C30.47 11.12 30.6367 11.0833 30.77 11.01C30.91 10.93 31.0167 10.8233 31.09 10.69C31.1633 10.55 31.2 10.3933 31.2 10.22C31.2 10.02 31.1667 9.85333 31.1 9.72C31.0333 9.58667 30.9333 9.48333 30.8 9.41C30.6733 9.33 30.51 9.28 30.31 9.26C30.11 9.24 29.8733 9.24667 29.6 9.28V8.29C29.88 8.29667 30.1167 8.28 30.31 8.24C30.5033 8.2 30.6567 8.14333 30.77 8.07C30.8833 7.99 30.9633 7.89667 31.01 7.79C31.0567 7.68333 31.08 7.57333 31.08 7.46C31.08 7.34 31.06 7.23333 31.02 7.14C30.9867 7.04667 30.9333 6.96667 30.86 6.9C30.7933 6.83333 30.71 6.78333 30.61 6.75C30.5167 6.71667 30.4067 6.7 30.28 6.7C30.1467 6.7 30.0133 6.71667 29.88 6.75C29.7467 6.78333 29.6233 6.83667 29.51 6.91C29.3967 6.98333 29.2933 7.07667 29.2 7.19L28.47 6.45C28.7167 6.17 29.0067 5.97 29.34 5.85C29.6733 5.73 30.0067 5.67 30.34 5.67C30.7133 5.67 31.0467 5.74 31.34 5.88C31.64 6.02 31.8733 6.21333 32.04 6.46C32.2133 6.7 32.3 6.97667 32.3 7.29C32.3 7.52333 32.25 7.73333 32.15 7.92C32.0567 8.10667 31.9333 8.26333 31.78 8.39C31.6333 8.51667 31.4833 8.61333 31.33 8.68C31.5167 8.74667 31.6967 8.84667 31.87 8.98C32.0433 9.11333 32.1867 9.28667 32.3 9.5C32.4133 9.70667 32.47 9.96 32.47 10.26C32.47 10.6067 32.38 10.9233 32.2 11.21C32.0267 11.49 31.78 11.7133 31.46 11.88C31.1467 12.04 30.7733 12.12 30.34 12.12ZM35.4 12.13C35.1667 12.13 34.97 12.05 34.81 11.89C34.6567 11.73 34.58 11.5367 34.58 11.31C34.58 11.0833 34.6567 10.8933 34.81 10.74C34.97 10.58 35.1667 10.5 35.4 10.5C35.62 10.5 35.81 10.58 35.97 10.74C36.13 10.8933 36.21 11.0833 36.21 11.31C36.21 11.5367 36.13 11.73 35.97 11.89C35.81 12.05 35.62 12.13 35.4 12.13ZM40 12V7.12L38.92 7.53L38.65 6.67L40.33 5.77H41.28V12H40ZM45 12V7.12L43.92 7.53L43.65 6.67L45.33 5.77H46.28V12H45ZM49.03 9.32V8.3H51.99V9.32H49.03ZM53.52 11.07C53.9133 10.6967 54.26 10.3667 54.56 10.08C54.86 9.78667 55.12 9.52667 55.34 9.3C55.56 9.06667 55.74 8.85333 55.88 8.66C56.0267 8.46 56.1333 8.26667 56.2 8.08C56.2667 7.89333 56.3 7.69 56.3 7.47C56.3 7.35 56.2833 7.24333 56.25 7.15C56.2233 7.05667 56.1767 6.98 56.11 6.92C56.0433 6.85333 55.9567 6.80333 55.85 6.77C55.75 6.73667 55.6267 6.72 55.48 6.72C55.3467 6.72 55.2233 6.73333 55.11 6.76C54.9967 6.78667 54.89 6.83 54.79 6.89C54.69 6.95 54.5967 7.03 54.51 7.13C54.4433 7.21667 54.4 7.28333 54.38 7.33C54.3667 7.37667 54.3633 7.42667 54.37 7.48L54.31 7.57L54.23 7.52L53.37 6.85C53.5233 6.59 53.71 6.37333 53.93 6.2C54.1567 6.02667 54.4033 5.89667 54.67 5.81C54.9367 5.71667 55.2133 5.67 55.5 5.67C55.8667 5.67 56.2 5.74333 56.5 5.89C56.8067 6.03667 57.05 6.24667 57.23 6.52C57.41 6.78667 57.5 7.10333 57.5 7.47C57.5 7.72333 57.4633 7.96 57.39 8.18C57.3233 8.4 57.2267 8.61667 57.1 8.83C56.9733 9.03667 56.8167 9.25 56.63 9.47C56.4433 9.69 56.23 9.92333 55.99 10.17C55.75 10.4167 55.4833 10.6833 55.19 10.97H57.04C57.1533 10.97 57.2333 10.9633 57.28 10.95C57.3267 10.9367 57.37 10.9133 57.41 10.88H57.51V10.97V12H53.52V11.07ZM59.06 10.04L61.72 6.98L61.91 7.82L59.25 10.87L59.06 10.04ZM60.5 12.12C60.0533 12.12 59.6633 11.9967 59.33 11.75C59.0033 11.5033 58.75 11.1433 58.57 10.67C58.3967 10.19 58.31 9.60667 58.31 8.92C58.31 8.24 58.3967 7.65667 58.57 7.17C58.75 6.68333 59.0033 6.31333 59.33 6.06C59.6633 5.8 60.0533 5.67 60.5 5.67C60.9467 5.67 61.3333 5.8 61.66 6.06C61.9933 6.31333 62.2467 6.68333 62.42 7.17C62.6 7.65667 62.69 8.24 62.69 8.92C62.69 9.60667 62.6 10.19 62.42 10.67C62.2467 11.1433 61.9933 11.5033 61.66 11.75C61.3333 11.9967 60.9467 12.12 60.5 12.12ZM60.5 11.17C60.74 11.17 60.9333 11.0833 61.08 10.91C61.2333 10.73 61.3467 10.4733 61.42 10.14C61.4933 9.80667 61.53 9.4 61.53 8.92C61.53 8.44 61.4933 8.03333 61.42 7.7C61.3467 7.36667 61.2333 7.11333 61.08 6.94C60.9333 6.76 60.74 6.67 60.5 6.67C60.2667 6.67 60.0733 6.76 59.92 6.94C59.7667 7.11333 59.6533 7.36667 59.58 7.7C59.5067 8.03333 59.47 8.44 59.47 8.92C59.47 9.4 59.5067 9.80667 59.58 10.14C59.6533 10.4733 59.7667 10.73 59.92 10.91C60.0733 11.0833 60.2667 11.17 60.5 11.17ZM63.52 11.07C63.9133 10.6967 64.26 10.3667 64.56 10.08C64.86 9.78667 65.12 9.52667 65.34 9.3C65.56 9.06667 65.74 8.85333 65.88 8.66C66.0267 8.46 66.1333 8.26667 66.2 8.08C66.2667 7.89333 66.3 7.69 66.3 7.47C66.3 7.35 66.2833 7.24333 66.25 7.15C66.2233 7.05667 66.1767 6.98 66.11 6.92C66.0433 6.85333 65.9567 6.80333 65.85 6.77C65.75 6.73667 65.6267 6.72 65.48 6.72C65.3467 6.72 65.2233 6.73333 65.11 6.76C64.9967 6.78667 64.89 6.83 64.79 6.89C64.69 6.95 64.5967 7.03 64.51 7.13C64.4433 7.21667 64.4 7.28333 64.38 7.33C64.3667 7.37667 64.3633 7.42667 64.37 7.48L64.31 7.57L64.23 7.52L63.37 6.85C63.5233 6.59 63.71 6.37333 63.93 6.2C64.1567 6.02667 64.4033 5.89667 64.67 5.81C64.9367 5.71667 65.2133 5.67 65.5 5.67C65.8667 5.67 66.2 5.74333 66.5 5.89C66.8067 6.03667 67.05 6.24667 67.23 6.52C67.41 6.78667 67.5 7.10333 67.5 7.47C67.5 7.72333 67.4633 7.96 67.39 8.18C67.3233 8.4 67.2267 8.61667 67.1 8.83C66.9733 9.03667 66.8167 9.25 66.63 9.47C66.4433 9.69 66.23 9.92333 65.99 10.17C65.75 10.4167 65.4833 10.6833 65.19 10.97H67.04C67.1533 10.97 67.2333 10.9633 67.28 10.95C67.3267 10.9367 67.37 10.9133 67.41 10.88H67.51V10.97V12H63.52V11.07ZM70.73 12V10.54H68.37V9.72L71.02 5.77H71.94V9.52H72.77V10.55H71.94V12H70.73ZM69.62 9.54H70.76V7.72L69.62 9.54ZM75.4 12.13C75.1667 12.13 74.97 12.05 74.81 11.89C74.6567 11.73 74.58 11.5367 74.58 11.31C74.58 11.0833 74.6567 10.8933 74.81 10.74C74.97 10.58 75.1667 10.5 75.4 10.5C75.62 10.5 75.81 10.58 75.97 10.74C76.13 10.8933 76.21 11.0833 76.21 11.31C76.21 11.5367 76.13 11.73 75.97 11.89C75.81 12.05 75.62 12.13 75.4 12.13ZM79.06 10.04L81.72 6.98L81.91 7.82L79.25 10.87L79.06 10.04ZM80.5 12.12C80.0533 12.12 79.6633 11.9967 79.33 11.75C79.0033 11.5033 78.75 11.1433 78.57 10.67C78.3967 10.19 78.31 9.60667 78.31 8.92C78.31 8.24 78.3967 7.65667 78.57 7.17C78.75 6.68333 79.0033 6.31333 79.33 6.06C79.6633 5.8 80.0533 5.67 80.5 5.67C80.9467 5.67 81.3333 5.8 81.66 6.06C81.9933 6.31333 82.2467 6.68333 82.42 7.17C82.6 7.65667 82.69 8.24 82.69 8.92C82.69 9.60667 82.6 10.19 82.42 10.67C82.2467 11.1433 81.9933 11.5033 81.66 11.75C81.3333 11.9967 80.9467 12.12 80.5 12.12ZM80.5 11.17C80.74 11.17 80.9333 11.0833 81.08 10.91C81.2333 10.73 81.3467 10.4733 81.42 10.14C81.4933 9.80667 81.53 9.4 81.53 8.92C81.53 8.44 81.4933 8.03333 81.42 7.7C81.3467 7.36667 81.2333 7.11333 81.08 6.94C80.9333 6.76 80.74 6.67 80.5 6.67C80.2667 6.67 80.0733 6.76 79.92 6.94C79.7667 7.11333 79.6533 7.36667 79.58 7.7C79.5067 8.03333 79.47 8.44 79.47 8.92C79.47 9.4 79.5067 9.80667 79.58 10.14C79.6533 10.4733 79.7667 10.73 79.92 10.91C80.0733 11.0833 80.2667 11.17 80.5 11.17ZM85 12V7.12L83.92 7.53L83.65 6.67L85.33 5.77H86.28V12H85Z" fill="white"/>
<path d="M13.25 31.75V28H15.75V31.75H13.25ZM17 31.75V28H19.5V31.75H17ZM23.25 36.75V35.5H22V34.25H24.5V35.5H28.25V33H23.25V31.75H22V29.25H23.25V28H29.5V29.25H30.75V30.5H28.25V29.25H24.5V31.75H29.5V33H30.75V35.5H29.5V36.75H23.25ZM35.75 36.75V31.75H33.25V30.5H35.75V28H38.25V30.5H40.75V31.75H38.25V36.75H35.75ZM45.75 31.75H47V33H45.75V36.75H43.25V30.5H45.75V31.75ZM50.75 30.5V31.75H47V30.5H50.75ZM53.25 36.75V35.5H52V31.75H53.25V30.5H59.5V31.75H60.75V34.25H54.5V35.5H59.5V36.75H53.25ZM54.5 33H58.25V31.75H54.5V33ZM63.25 36.75V35.5H62V31.75H63.25V30.5H69.5V31.75H70.75V34.25H64.5V35.5H69.5V36.75H63.25ZM64.5 33H68.25V31.75H64.5V33ZM75.75 36.75V31.75H73.25V30.5H75.75V28H78.25V30.5H80.75V31.75H78.25V36.75H75.75ZM83.25 31.75V28H85.75V31.75H83.25ZM87 31.75V28H89.5V31.75H87Z" fill="white"/>
</svg>
