<svg width="102" height="102" viewBox="0 0 102 102" fill="none" xmlns="http://www.w3.org/2000/svg">
<rect x="1" y="1" width="100" height="100" rx="10" fill="black" stroke="black"/>
<path d="M13.52 11.07C13.9133 10.6967 14.26 10.3667 14.56 10.08C14.86 9.78667 15.12 9.52667 15.34 9.3C15.56 9.06667 15.74 8.85333 15.88 8.66C16.0267 8.46 16.1333 8.26667 16.2 8.08C16.2667 7.89333 16.3 7.69 16.3 7.47C16.3 7.35 16.2833 7.24333 16.25 7.15C16.2233 7.05667 16.1767 6.98 16.11 6.92C16.0433 6.85333 15.9567 6.80333 15.85 6.77C15.75 6.73667 15.6267 6.72 15.48 6.72C15.3467 6.72 15.2233 6.73333 15.11 6.76C14.9967 6.78667 14.89 6.83 14.79 6.89C14.69 6.95 14.5967 7.03 14.51 7.13C14.4433 7.21667 14.4 7.28333 14.38 7.33C14.3667 7.37667 14.3633 7.42667 14.37 7.48L14.31 7.57L14.23 7.52L13.37 6.85C13.5233 6.59 13.71 6.37333 13.93 6.2C14.1567 6.02667 14.4033 5.89667 14.67 5.81C14.9367 5.71667 15.2133 5.67 15.5 5.67C15.8667 5.67 16.2 5.74333 16.5 5.89C16.8067 6.03667 17.05 6.24667 17.23 6.52C17.41 6.78667 17.5 7.10333 17.5 7.47C17.5 7.72333 17.4633 7.96 17.39 8.18C17.3233 8.4 17.2267 8.61667 17.1 8.83C16.9733 9.03667 16.8167 9.25 16.63 9.47C16.4433 9.69 16.23 9.92333 15.99 10.17C15.75 10.4167 15.4833 10.6833 15.19 10.97H17.04C17.1533 10.97 17.2333 10.9633 17.28 10.95C17.3267 10.9367 17.37 10.9133 17.41 10.88H17.51V10.97V12H13.52V11.07ZM19.06 10.04L21.72 6.98L21.91 7.82L19.25 10.87L19.06 10.04ZM20.5 12.12C20.0533 12.12 19.6633 11.9967 19.33 11.75C19.0033 11.5033 18.75 11.1433 18.57 10.67C18.3967 10.19 18.31 9.60667 18.31 8.92C18.31 8.24 18.3967 7.65667 18.57 7.17C18.75 6.68333 19.0033 6.31333 19.33 6.06C19.6633 5.8 20.0533 5.67 20.5 5.67C20.9467 5.67 21.3333 5.8 21.66 6.06C21.9933 6.31333 22.2467 6.68333 22.42 7.17C22.6 7.65667 22.69 8.24 22.69 8.92C22.69 9.60667 22.6 10.19 22.42 10.67C22.2467 11.1433 21.9933 11.5033 21.66 11.75C21.3333 11.9967 20.9467 12.12 20.5 12.12ZM20.5 11.17C20.74 11.17 20.9333 11.0833 21.08 10.91C21.2333 10.73 21.3467 10.4733 21.42 10.14C21.4933 9.80667 21.53 9.4 21.53 8.92C21.53 8.44 21.4933 8.03333 21.42 7.7C21.3467 7.36667 21.2333 7.11333 21.08 6.94C20.9333 6.76 20.74 6.67 20.5 6.67C20.2667 6.67 20.0733 6.76 19.92 6.94C19.7667 7.11333 19.6533 7.36667 19.58 7.7C19.5067 8.03333 19.47 8.44 19.47 8.92C19.47 9.4 19.5067 9.80667 19.58 10.14C19.6533 10.4733 19.7667 10.73 19.92 10.91C20.0733 11.0833 20.2667 11.17 20.5 11.17ZM23.52 11.07C23.9133 10.6967 24.26 10.3667 24.56 10.08C24.86 9.78667 25.12 9.52667 25.34 9.3C25.56 9.06667 25.74 8.85333 25.88 8.66C26.0267 8.46 26.1333 8.26667 26.2 8.08C26.2667 7.89333 26.3 7.69 26.3 7.47C26.3 7.35 26.2833 7.24333 26.25 7.15C26.2233 7.05667 26.1767 6.98 26.11 6.92C26.0433 6.85333 25.9567 6.80333 25.85 6.77C25.75 6.73667 25.6267 6.72 25.48 6.72C25.3467 6.72 25.2233 6.73333 25.11 6.76C24.9967 6.78667 24.89 6.83 24.79 6.89C24.69 6.95 24.5967 7.03 24.51 7.13C24.4433 7.21667 24.4 7.28333 24.38 7.33C24.3667 7.37667 24.3633 7.42667 24.37 7.48L24.31 7.57L24.23 7.52L23.37 6.85C23.5233 6.59 23.71 6.37333 23.93 6.2C24.1567 6.02667 24.4033 5.89667 24.67 5.81C24.9367 5.71667 25.2133 5.67 25.5 5.67C25.8667 5.67 26.2 5.74333 26.5 5.89C26.8067 6.03667 27.05 6.24667 27.23 6.52C27.41 6.78667 27.5 7.10333 27.5 7.47C27.5 7.72333 27.4633 7.96 27.39 8.18C27.3233 8.4 27.2267 8.61667 27.1 8.83C26.9733 9.03667 26.8167 9.25 26.63 9.47C26.4433 9.69 26.23 9.92333 25.99 10.17C25.75 10.4167 25.4833 10.6833 25.19 10.97H27.04C27.1533 10.97 27.2333 10.9633 27.28 10.95C27.3267 10.9367 27.37 10.9133 27.41 10.88H27.51V10.97V12H23.52V11.07ZM30.73 12V10.54H28.37V9.72L31.02 5.77H31.94V9.52H32.77V10.55H31.94V12H30.73ZM29.62 9.54H30.76V7.72L29.62 9.54ZM35.4 12.13C35.1667 12.13 34.97 12.05 34.81 11.89C34.6567 11.73 34.58 11.5367 34.58 11.31C34.58 11.0833 34.6567 10.8933 34.81 10.74C34.97 10.58 35.1667 10.5 35.4 10.5C35.62 10.5 35.81 10.58 35.97 10.74C36.13 10.8933 36.21 11.0833 36.21 11.31C36.21 11.5367 36.13 11.73 35.97 11.89C35.81 12.05 35.62 12.13 35.4 12.13ZM39.06 10.04L41.72 6.98L41.91 7.82L39.25 10.87L39.06 10.04ZM40.5 12.12C40.0533 12.12 39.6633 11.9967 39.33 11.75C39.0033 11.5033 38.75 11.1433 38.57 10.67C38.3967 10.19 38.31 9.60667 38.31 8.92C38.31 8.24 38.3967 7.65667 38.57 7.17C38.75 6.68333 39.0033 6.31333 39.33 6.06C39.6633 5.8 40.0533 5.67 40.5 5.67C40.9467 5.67 41.3333 5.8 41.66 6.06C41.9933 6.31333 42.2467 6.68333 42.42 7.17C42.6 7.65667 42.69 8.24 42.69 8.92C42.69 9.60667 42.6 10.19 42.42 10.67C42.2467 11.1433 41.9933 11.5033 41.66 11.75C41.3333 11.9967 40.9467 12.12 40.5 12.12ZM40.5 11.17C40.74 11.17 40.9333 11.0833 41.08 10.91C41.2333 10.73 41.3467 10.4733 41.42 10.14C41.4933 9.80667 41.53 9.4 41.53 8.92C41.53 8.44 41.4933 8.03333 41.42 7.7C41.3467 7.36667 41.2333 7.11333 41.08 6.94C40.9333 6.76 40.74 6.67 40.5 6.67C40.2667 6.67 40.0733 6.76 39.92 6.94C39.7667 7.11333 39.6533 7.36667 39.58 7.7C39.5067 8.03333 39.47 8.44 39.47 8.92C39.47 9.4 39.5067 9.80667 39.58 10.14C39.6533 10.4733 39.7667 10.73 39.92 10.91C40.0733 11.0833 40.2667 11.17 40.5 11.17ZM43.52 11.07C43.9133 10.6967 44.26 10.3667 44.56 10.08C44.86 9.78667 45.12 9.52667 45.34 9.3C45.56 9.06667 45.74 8.85333 45.88 8.66C46.0267 8.46 46.1333 8.26667 46.2 8.08C46.2667 7.89333 46.3 7.69 46.3 7.47C46.3 7.35 46.2833 7.24333 46.25 7.15C46.2233 7.05667 46.1767 6.98 46.11 6.92C46.0433 6.85333 45.9567 6.80333 45.85 6.77C45.75 6.73667 45.6267 6.72 45.48 6.72C45.3467 6.72 45.2233 6.73333 45.11 6.76C44.9967 6.78667 44.89 6.83 44.79 6.89C44.69 6.95 44.5967 7.03 44.51 7.13C44.4433 7.21667 44.4 7.28333 44.38 7.33C44.3667 7.37667 44.3633 7.42667 44.37 7.48L44.31 7.57L44.23 7.52L43.37 6.85C43.5233 6.59 43.71 6.37333 43.93 6.2C44.1567 6.02667 44.4033 5.89667 44.67 5.81C44.9367 5.71667 45.2133 5.67 45.5 5.67C45.8667 5.67 46.2 5.74333 46.5 5.89C46.8067 6.03667 47.05 6.24667 47.23 6.52C47.41 6.78667 47.5 7.10333 47.5 7.47C47.5 7.72333 47.4633 7.96 47.39 8.18C47.3233 8.4 47.2267 8.61667 47.1 8.83C46.9733 9.03667 46.8167 9.25 46.63 9.47C46.4433 9.69 46.23 9.92333 45.99 10.17C45.75 10.4167 45.4833 10.6833 45.19 10.97H47.04C47.1533 10.97 47.2333 10.9633 47.28 10.95C47.3267 10.9367 47.37 10.9133 47.41 10.88H47.51V10.97V12H43.52V11.07ZM49.03 9.32V8.3H51.99V9.32H49.03ZM53.52 11.07C53.9133 10.6967 54.26 10.3667 54.56 10.08C54.86 9.78667 55.12 9.52667 55.34 9.3C55.56 9.06667 55.74 8.85333 55.88 8.66C56.0267 8.46 56.1333 8.26667 56.2 8.08C56.2667 7.89333 56.3 7.69 56.3 7.47C56.3 7.35 56.2833 7.24333 56.25 7.15C56.2233 7.05667 56.1767 6.98 56.11 6.92C56.0433 6.85333 55.9567 6.80333 55.85 6.77C55.75 6.73667 55.6267 6.72 55.48 6.72C55.3467 6.72 55.2233 6.73333 55.11 6.76C54.9967 6.78667 54.89 6.83 54.79 6.89C54.69 6.95 54.5967 7.03 54.51 7.13C54.4433 7.21667 54.4 7.28333 54.38 7.33C54.3667 7.37667 54.3633 7.42667 54.37 7.48L54.31 7.57L54.23 7.52L53.37 6.85C53.5233 6.59 53.71 6.37333 53.93 6.2C54.1567 6.02667 54.4033 5.89667 54.67 5.81C54.9367 5.71667 55.2133 5.67 55.5 5.67C55.8667 5.67 56.2 5.74333 56.5 5.89C56.8067 6.03667 57.05 6.24667 57.23 6.52C57.41 6.78667 57.5 7.10333 57.5 7.47C57.5 7.72333 57.4633 7.96 57.39 8.18C57.3233 8.4 57.2267 8.61667 57.1 8.83C56.9733 9.03667 56.8167 9.25 56.63 9.47C56.4433 9.69 56.23 9.92333 55.99 10.17C55.75 10.4167 55.4833 10.6833 55.19 10.97H57.04C57.1533 10.97 57.2333 10.9633 57.28 10.95C57.3267 10.9367 57.37 10.9133 57.41 10.88H57.51V10.97V12H53.52V11.07ZM59.06 10.04L61.72 6.98L61.91 7.82L59.25 10.87L59.06 10.04ZM60.5 12.12C60.0533 12.12 59.6633 11.9967 59.33 11.75C59.0033 11.5033 58.75 11.1433 58.57 10.67C58.3967 10.19 58.31 9.60667 58.31 8.92C58.31 8.24 58.3967 7.65667 58.57 7.17C58.75 6.68333 59.0033 6.31333 59.33 6.06C59.6633 5.8 60.0533 5.67 60.5 5.67C60.9467 5.67 61.3333 5.8 61.66 6.06C61.9933 6.31333 62.2467 6.68333 62.42 7.17C62.6 7.65667 62.69 8.24 62.69 8.92C62.69 9.60667 62.6 10.19 62.42 10.67C62.2467 11.1433 61.9933 11.5033 61.66 11.75C61.3333 11.9967 60.9467 12.12 60.5 12.12ZM60.5 11.17C60.74 11.17 60.9333 11.0833 61.08 10.91C61.2333 10.73 61.3467 10.4733 61.42 10.14C61.4933 9.80667 61.53 9.4 61.53 8.92C61.53 8.44 61.4933 8.03333 61.42 7.7C61.3467 7.36667 61.2333 7.11333 61.08 6.94C60.9333 6.76 60.74 6.67 60.5 6.67C60.2667 6.67 60.0733 6.76 59.92 6.94C59.7667 7.11333 59.6533 7.36667 59.58 7.7C59.5067 8.03333 59.47 8.44 59.47 8.92C59.47 9.4 59.5067 9.80667 59.58 10.14C59.6533 10.4733 59.7667 10.73 59.92 10.91C60.0733 11.0833 60.2667 11.17 60.5 11.17ZM63.52 11.07C63.9133 10.6967 64.26 10.3667 64.56 10.08C64.86 9.78667 65.12 9.52667 65.34 9.3C65.56 9.06667 65.74 8.85333 65.88 8.66C66.0267 8.46 66.1333 8.26667 66.2 8.08C66.2667 7.89333 66.3 7.69 66.3 7.47C66.3 7.35 66.2833 7.24333 66.25 7.15C66.2233 7.05667 66.1767 6.98 66.11 6.92C66.0433 6.85333 65.9567 6.80333 65.85 6.77C65.75 6.73667 65.6267 6.72 65.48 6.72C65.3467 6.72 65.2233 6.73333 65.11 6.76C64.9967 6.78667 64.89 6.83 64.79 6.89C64.69 6.95 64.5967 7.03 64.51 7.13C64.4433 7.21667 64.4 7.28333 64.38 7.33C64.3667 7.37667 64.3633 7.42667 64.37 7.48L64.31 7.57L64.23 7.52L63.37 6.85C63.5233 6.59 63.71 6.37333 63.93 6.2C64.1567 6.02667 64.4033 5.89667 64.67 5.81C64.9367 5.71667 65.2133 5.67 65.5 5.67C65.8667 5.67 66.2 5.74333 66.5 5.89C66.8067 6.03667 67.05 6.24667 67.23 6.52C67.41 6.78667 67.5 7.10333 67.5 7.47C67.5 7.72333 67.4633 7.96 67.39 8.18C67.3233 8.4 67.2267 8.61667 67.1 8.83C66.9733 9.03667 66.8167 9.25 66.63 9.47C66.4433 9.69 66.23 9.92333 65.99 10.17C65.75 10.4167 65.4833 10.6833 65.19 10.97H67.04C67.1533 10.97 67.2333 10.9633 67.28 10.95C67.3267 10.9367 67.37 10.9133 67.41 10.88H67.51V10.97V12H63.52V11.07ZM70.73 12V10.54H68.37V9.72L71.02 5.77H71.94V9.52H72.77V10.55H71.94V12H70.73ZM69.62 9.54H70.76V7.72L69.62 9.54ZM75.4 12.13C75.1667 12.13 74.97 12.05 74.81 11.89C74.6567 11.73 74.58 11.5367 74.58 11.31C74.58 11.0833 74.6567 10.8933 74.81 10.74C74.97 10.58 75.1667 10.5 75.4 10.5C75.62 10.5 75.81 10.58 75.97 10.74C76.13 10.8933 76.21 11.0833 76.21 11.31C76.21 11.5367 76.13 11.73 75.97 11.89C75.81 12.05 75.62 12.13 75.4 12.13ZM79.06 10.04L81.72 6.98L81.91 7.82L79.25 10.87L79.06 10.04ZM80.5 12.12C80.0533 12.12 79.6633 11.9967 79.33 11.75C79.0033 11.5033 78.75 11.1433 78.57 10.67C78.3967 10.19 78.31 9.60667 78.31 8.92C78.31 8.24 78.3967 7.65667 78.57 7.17C78.75 6.68333 79.0033 6.31333 79.33 6.06C79.6633 5.8 80.0533 5.67 80.5 5.67C80.9467 5.67 81.3333 5.8 81.66 6.06C81.9933 6.31333 82.2467 6.68333 82.42 7.17C82.6 7.65667 82.69 8.24 82.69 8.92C82.69 9.60667 82.6 10.19 82.42 10.67C82.2467 11.1433 81.9933 11.5033 81.66 11.75C81.3333 11.9967 80.9467 12.12 80.5 12.12ZM80.5 11.17C80.74 11.17 80.9333 11.0833 81.08 10.91C81.2333 10.73 81.3467 10.4733 81.42 10.14C81.4933 9.80667 81.53 9.4 81.53 8.92C81.53 8.44 81.4933 8.03333 81.42 7.7C81.3467 7.36667 81.2333 7.11333 81.08 6.94C80.9333 6.76 80.74 6.67 80.5 6.67C80.2667 6.67 80.0733 6.76 79.92 6.94C79.7667 7.11333 79.6533 7.36667 79.58 7.7C79.5067 8.03333 79.47 8.44 79.47 8.92C79.47 9.4 79.5067 9.80667 79.58 10.14C79.6533 10.4733 79.7667 10.73 79.92 10.91C80.0733 11.0833 80.2667 11.17 80.5 11.17ZM85.59 12.12C85.1367 12.12 84.75 11.9967 84.43 11.75C84.11 11.4967 83.8667 11.1467 83.7 10.7C83.54 10.2533 83.46 9.73333 83.46 9.14C83.46 8.40667 83.5633 7.78333 83.77 7.27C83.9767 6.75 84.2567 6.35333 84.61 6.08C84.97 5.8 85.38 5.66 85.84 5.66C86.12 5.66 86.41 5.71 86.71 5.81C87.01 5.90333 87.27 6.06333 87.49 6.29L86.82 7.04L86.75 7.11L86.67 7.05C86.6633 6.99667 86.64 6.95667 86.6 6.93C86.5667 6.89667 86.5033 6.85 86.41 6.79C86.37 6.77 86.3233 6.75667 86.27 6.75C86.2233 6.73667 86.1733 6.72667 86.12 6.72C86.0733 6.70667 86.0233 6.7 85.97 6.7C85.8767 6.7 85.7733 6.71333 85.66 6.74C85.5533 6.76667 85.4467 6.81333 85.34 6.88C85.24 6.94 85.1433 7.03333 85.05 7.16C84.9633 7.28 84.89 7.43667 84.83 7.63C84.77 7.82333 84.7267 8.06333 84.7 8.35C84.7933 8.25 84.9 8.16667 85.02 8.1C85.14 8.02667 85.2667 7.97333 85.4 7.94C85.5333 7.9 85.6667 7.88 85.8 7.88C86.0533 7.88 86.2867 7.92 86.5 8C86.72 8.08 86.91 8.20333 87.07 8.37C87.2367 8.53667 87.3633 8.74667 87.45 9C87.5433 9.25333 87.59 9.55667 87.59 9.91C87.59 10.3233 87.5033 10.6967 87.33 11.03C87.1633 11.3633 86.93 11.63 86.63 11.83C86.33 12.0233 85.9833 12.12 85.59 12.12ZM85.62 11.11C85.7333 11.11 85.84 11.08 85.94 11.02C86.04 10.96 86.1267 10.8767 86.2 10.77C86.2733 10.6633 86.3267 10.5367 86.36 10.39C86.4 10.2433 86.42 10.0833 86.42 9.91C86.42 9.73 86.3967 9.57667 86.35 9.45C86.31 9.31667 86.25 9.20667 86.17 9.12C86.0967 9.02667 86.01 8.96 85.91 8.92C85.81 8.87333 85.7067 8.85 85.6 8.85C85.5067 8.85 85.42 8.86667 85.34 8.9C85.26 8.92667 85.1833 8.97 85.11 9.03C85.0367 9.08333 84.9667 9.15 84.9 9.23C84.84 9.30333 84.7833 9.39 84.73 9.49C84.7233 9.74333 84.74 9.97333 84.78 10.18C84.82 10.38 84.88 10.55 84.96 10.69C85.04 10.83 85.1333 10.9367 85.24 11.01C85.3533 11.0767 85.48 11.11 85.62 11.11Z" fill="white"/>
<path d="M13 38.625V35.875H14.375V34.5H15.75V33.125H14.375V31.75H13V29H15.75V31.75H17.125V33.125H18.5V31.75H19.875V29H22.625V31.75H21.25V33.125H19.875V34.5H21.25V35.875H22.625V38.625H19.875V35.875H18.5V34.5H17.125V35.875H15.75V38.625H13ZM28.125 30.375V29H30.875V30.375H28.125ZM25.375 38.625V37.25H28.125V33.125H26.75V31.75H30.875V37.25H33.625V38.625H25.375ZM36.375 38.625V37.25H35V31.75H37.75V37.25H41.875V31.75H44.625V38.625H36.375ZM46 38.625V37.25H52.875V35.875H47.375V34.5H46V33.125H47.375V31.75H54.25V33.125H48.75V34.5H54.25V35.875H55.625V37.25H54.25V38.625H46ZM57 38.625V29H59.75V31.75H65.25V33.125H66.625V38.625H63.875V33.125H59.75V38.625H57ZM69.375 38.625V37.25H68V31.75H70.75V37.25H74.875V31.75H77.625V38.625H69.375ZM83.125 30.375V29H85.875V30.375H83.125ZM80.375 38.625V37.25H83.125V33.125H81.75V31.75H85.875V37.25H88.625V38.625H80.375Z" fill="white"/>
</svg>
