<svg width="176" height="20" viewBox="0 0 176 20" fill="none" xmlns="http://www.w3.org/2000/svg">
<rect x="0.5" y="0.5" width="175" height="19" stroke="black"/>
<path d="M8.284 10.816H5.572L5.74 10.168H8.092L8.284 10.816ZM6.988 7.312L5.02 13H4.192L6.952 5.392H7.048L9.808 13H8.944L6.988 7.312ZM11.428 7.516H12.328L12.292 9.112L12.184 8.932C12.232 8.684 12.316 8.464 12.436 8.272C12.556 8.08 12.7 7.92 12.868 7.792C13.036 7.656 13.22 7.556 13.42 7.492C13.62 7.42 13.828 7.384 14.044 7.384C14.332 7.384 14.596 7.436 14.836 7.54C15.084 7.636 15.304 7.784 15.496 7.984L15.112 8.656L15.064 8.764L14.98 8.716C14.964 8.652 14.94 8.592 14.908 8.536C14.876 8.48 14.808 8.412 14.704 8.332C14.576 8.252 14.456 8.2 14.344 8.176C14.24 8.144 14.12 8.128 13.984 8.128C13.784 8.128 13.584 8.168 13.384 8.248C13.184 8.32 13 8.436 12.832 8.596C12.672 8.756 12.544 8.96 12.448 9.208C12.352 9.456 12.304 9.752 12.304 10.096V13.012H11.428V7.516ZM19.42 13.132C19.02 13.132 18.652 13.06 18.316 12.916C17.98 12.772 17.688 12.572 17.44 12.316C17.2 12.06 17.012 11.76 16.876 11.416C16.74 11.064 16.672 10.68 16.672 10.264C16.672 9.856 16.74 9.48 16.876 9.136C17.012 8.784 17.2 8.48 17.44 8.224C17.688 7.968 17.98 7.768 18.316 7.624C18.652 7.48 19.016 7.408 19.408 7.408C19.856 7.408 20.256 7.5 20.608 7.684C20.968 7.86 21.26 8.108 21.484 8.428L20.944 8.956L20.86 9.04L20.8 8.98C20.8 8.916 20.784 8.856 20.752 8.8C20.728 8.744 20.668 8.668 20.572 8.572C20.396 8.412 20.208 8.3 20.008 8.236C19.808 8.172 19.576 8.14 19.312 8.14C19.08 8.14 18.86 8.188 18.652 8.284C18.444 8.38 18.256 8.52 18.088 8.704C17.928 8.88 17.8 9.096 17.704 9.352C17.608 9.608 17.56 9.892 17.56 10.204C17.56 10.516 17.608 10.804 17.704 11.068C17.8 11.324 17.932 11.548 18.1 11.74C18.268 11.932 18.468 12.084 18.7 12.196C18.94 12.3 19.196 12.352 19.468 12.352C19.652 12.352 19.828 12.328 19.996 12.28C20.164 12.224 20.324 12.148 20.476 12.052C20.628 11.948 20.768 11.824 20.896 11.68L21.4 12.268C21.128 12.556 20.824 12.772 20.488 12.916C20.16 13.06 19.804 13.132 19.42 13.132ZM22.876 5.02H23.704H23.824V5.104C23.776 5.152 23.744 5.204 23.728 5.26C23.72 5.316 23.716 5.412 23.716 5.548V8.488C23.86 8.264 24.028 8.072 24.22 7.912C24.42 7.744 24.628 7.616 24.844 7.528C25.068 7.432 25.292 7.384 25.516 7.384C25.844 7.384 26.132 7.46 26.38 7.612C26.636 7.764 26.832 8.008 26.968 8.344C27.112 8.68 27.184 9.124 27.184 9.676V13H26.344V9.7C26.344 9.316 26.3 9.012 26.212 8.788C26.124 8.556 26.004 8.392 25.852 8.296C25.7 8.192 25.528 8.14 25.336 8.14C25.192 8.14 25.044 8.164 24.892 8.212C24.74 8.26 24.592 8.332 24.448 8.428C24.312 8.524 24.188 8.644 24.076 8.788C23.964 8.924 23.876 9.08 23.812 9.256C23.748 9.432 23.716 9.628 23.716 9.844V13H22.876V5.02ZM29.2 13V12.304H30.604V8.212H29.272V7.516H31.468V12.304H32.752V13H29.2ZM30.988 6.364C30.82 6.364 30.676 6.304 30.556 6.184C30.436 6.064 30.376 5.92 30.376 5.752C30.376 5.576 30.432 5.428 30.544 5.308C30.664 5.188 30.812 5.128 30.988 5.128C31.156 5.128 31.3 5.192 31.42 5.32C31.548 5.44 31.612 5.584 31.612 5.752C31.612 5.92 31.548 6.064 31.42 6.184C31.3 6.304 31.156 6.364 30.988 6.364ZM37.588 13.084C37.236 13.084 36.948 13.024 36.724 12.904C36.5 12.784 36.328 12.6 36.208 12.352C36.088 12.096 36.008 11.776 35.968 11.392C35.936 11.008 35.928 10.552 35.944 10.024L36.088 6.112L36.988 6.004L37.108 5.992L37.12 6.076C37.08 6.132 37.044 6.188 37.012 6.244C36.988 6.3 36.968 6.396 36.952 6.532L36.844 7.888L36.88 8.104L36.796 10.084C36.772 10.692 36.788 11.164 36.844 11.5C36.9 11.828 37 12.056 37.144 12.184C37.288 12.304 37.48 12.364 37.72 12.364C37.984 12.364 38.216 12.312 38.416 12.208C38.624 12.104 38.84 11.972 39.064 11.812L39.328 12.496C39.056 12.696 38.776 12.844 38.488 12.94C38.2 13.036 37.9 13.084 37.588 13.084ZM34.84 7.516H38.788V8.224H34.84V7.516ZM43.264 13.12C42.864 13.12 42.5 13.06 42.172 12.94C41.844 12.812 41.56 12.628 41.32 12.388C41.088 12.148 40.908 11.852 40.78 11.5C40.652 11.14 40.588 10.732 40.588 10.276C40.588 9.812 40.652 9.4 40.78 9.04C40.916 8.68 41.096 8.38 41.32 8.14C41.552 7.892 41.82 7.704 42.124 7.576C42.436 7.448 42.764 7.384 43.108 7.384C43.42 7.384 43.712 7.436 43.984 7.54C44.256 7.644 44.492 7.804 44.692 8.02C44.892 8.228 45.048 8.496 45.16 8.824C45.28 9.152 45.34 9.54 45.34 9.988C45.34 10.052 45.336 10.12 45.328 10.192C45.328 10.256 45.324 10.32 45.316 10.384H41.416C41.432 10.736 41.492 11.044 41.596 11.308C41.7 11.564 41.836 11.776 42.004 11.944C42.172 12.104 42.364 12.224 42.58 12.304C42.804 12.384 43.04 12.424 43.288 12.424C43.48 12.424 43.66 12.404 43.828 12.364C43.996 12.316 44.152 12.248 44.296 12.16C44.448 12.064 44.584 11.948 44.704 11.812L45.184 12.28C45.032 12.464 44.856 12.62 44.656 12.748C44.464 12.876 44.252 12.968 44.02 13.024C43.788 13.088 43.536 13.12 43.264 13.12ZM41.452 9.712H44.464C44.464 9.456 44.428 9.228 44.356 9.028C44.292 8.82 44.196 8.644 44.068 8.5C43.948 8.348 43.8 8.236 43.624 8.164C43.456 8.084 43.264 8.044 43.048 8.044C42.856 8.044 42.672 8.076 42.496 8.14C42.328 8.204 42.172 8.308 42.028 8.452C41.884 8.588 41.76 8.76 41.656 8.968C41.56 9.176 41.492 9.424 41.452 9.712ZM49.42 13.132C49.02 13.132 48.652 13.06 48.316 12.916C47.98 12.772 47.688 12.572 47.44 12.316C47.2 12.06 47.012 11.76 46.876 11.416C46.74 11.064 46.672 10.68 46.672 10.264C46.672 9.856 46.74 9.48 46.876 9.136C47.012 8.784 47.2 8.48 47.44 8.224C47.688 7.968 47.98 7.768 48.316 7.624C48.652 7.48 49.016 7.408 49.408 7.408C49.856 7.408 50.256 7.5 50.608 7.684C50.968 7.86 51.26 8.108 51.484 8.428L50.944 8.956L50.86 9.04L50.8 8.98C50.8 8.916 50.784 8.856 50.752 8.8C50.728 8.744 50.668 8.668 50.572 8.572C50.396 8.412 50.208 8.3 50.008 8.236C49.808 8.172 49.576 8.14 49.312 8.14C49.08 8.14 48.86 8.188 48.652 8.284C48.444 8.38 48.256 8.52 48.088 8.704C47.928 8.88 47.8 9.096 47.704 9.352C47.608 9.608 47.56 9.892 47.56 10.204C47.56 10.516 47.608 10.804 47.704 11.068C47.8 11.324 47.932 11.548 48.1 11.74C48.268 11.932 48.468 12.084 48.7 12.196C48.94 12.3 49.196 12.352 49.468 12.352C49.652 12.352 49.828 12.328 49.996 12.28C50.164 12.224 50.324 12.148 50.476 12.052C50.628 11.948 50.768 11.824 50.896 11.68L51.4 12.268C51.128 12.556 50.824 12.772 50.488 12.916C50.16 13.06 49.804 13.132 49.42 13.132ZM55.588 13.084C55.236 13.084 54.948 13.024 54.724 12.904C54.5 12.784 54.328 12.6 54.208 12.352C54.088 12.096 54.008 11.776 53.968 11.392C53.936 11.008 53.928 10.552 53.944 10.024L54.088 6.112L54.988 6.004L55.108 5.992L55.12 6.076C55.08 6.132 55.044 6.188 55.012 6.244C54.988 6.3 54.968 6.396 54.952 6.532L54.844 7.888L54.88 8.104L54.796 10.084C54.772 10.692 54.788 11.164 54.844 11.5C54.9 11.828 55 12.056 55.144 12.184C55.288 12.304 55.48 12.364 55.72 12.364C55.984 12.364 56.216 12.312 56.416 12.208C56.624 12.104 56.84 11.972 57.064 11.812L57.328 12.496C57.056 12.696 56.776 12.844 56.488 12.94C56.2 13.036 55.9 13.084 55.588 13.084ZM52.84 7.516H56.788V8.224H52.84V7.516ZM60.652 13.132C60.436 13.132 60.232 13.1 60.04 13.036C59.848 12.972 59.672 12.876 59.512 12.748C59.36 12.612 59.228 12.444 59.116 12.244C59.004 12.044 58.916 11.804 58.852 11.524C58.796 11.244 58.768 10.928 58.768 10.576L58.78 7.516H59.62V10.576C59.62 10.92 59.652 11.212 59.716 11.452C59.78 11.692 59.868 11.884 59.98 12.028C60.1 12.172 60.236 12.276 60.388 12.34C60.54 12.404 60.7 12.436 60.868 12.436C61.06 12.436 61.244 12.4 61.42 12.328C61.596 12.248 61.752 12.132 61.888 11.98C62.032 11.828 62.144 11.632 62.224 11.392C62.304 11.152 62.344 10.868 62.344 10.54V7.516H63.184V12.148C63.184 12.292 63.188 12.436 63.196 12.58C63.212 12.716 63.248 12.856 63.304 13H62.476C62.436 12.904 62.408 12.812 62.392 12.724C62.376 12.628 62.364 12.532 62.356 12.436C62.356 12.34 62.356 12.248 62.356 12.16C62.268 12.312 62.164 12.448 62.044 12.568C61.924 12.688 61.788 12.792 61.636 12.88C61.492 12.96 61.336 13.02 61.168 13.06C61.008 13.108 60.836 13.132 60.652 13.132ZM65.428 7.516H66.328L66.292 9.112L66.184 8.932C66.232 8.684 66.316 8.464 66.436 8.272C66.556 8.08 66.7 7.92 66.868 7.792C67.036 7.656 67.22 7.556 67.42 7.492C67.62 7.42 67.828 7.384 68.044 7.384C68.332 7.384 68.596 7.436 68.836 7.54C69.084 7.636 69.304 7.784 69.496 7.984L69.112 8.656L69.064 8.764L68.98 8.716C68.964 8.652 68.94 8.592 68.908 8.536C68.876 8.48 68.808 8.412 68.704 8.332C68.576 8.252 68.456 8.2 68.344 8.176C68.24 8.144 68.12 8.128 67.984 8.128C67.784 8.128 67.584 8.168 67.384 8.248C67.184 8.32 67 8.436 66.832 8.596C66.672 8.756 66.544 8.96 66.448 9.208C66.352 9.456 66.304 9.752 66.304 10.096V13.012H65.428V7.516ZM72.532 13.132C71.908 13.132 71.428 12.992 71.092 12.712C70.756 12.424 70.588 12.06 70.588 11.62C70.588 11.324 70.66 11.06 70.804 10.828C70.948 10.588 71.144 10.388 71.392 10.228C71.648 10.06 71.944 9.932 72.28 9.844C72.616 9.756 72.972 9.712 73.348 9.712C73.484 9.712 73.62 9.716 73.756 9.724C73.9 9.724 74.048 9.732 74.2 9.748C74.36 9.756 74.524 9.772 74.692 9.796L74.716 10.456C74.572 10.432 74.424 10.416 74.272 10.408C74.128 10.392 73.984 10.38 73.84 10.372C73.696 10.364 73.556 10.36 73.42 10.36C73.132 10.36 72.868 10.384 72.628 10.432C72.388 10.48 72.18 10.552 72.004 10.648C71.828 10.744 71.692 10.868 71.596 11.02C71.5 11.172 71.452 11.356 71.452 11.572C71.452 11.74 71.48 11.884 71.536 12.004C71.6 12.116 71.684 12.208 71.788 12.28C71.892 12.344 72.012 12.392 72.148 12.424C72.292 12.456 72.448 12.472 72.616 12.472C72.928 12.472 73.204 12.424 73.444 12.328C73.692 12.224 73.9 12.076 74.068 11.884C74.244 11.692 74.376 11.456 74.464 11.176C74.552 10.896 74.596 10.576 74.596 10.216C74.596 9.672 74.532 9.248 74.404 8.944C74.276 8.64 74.084 8.424 73.828 8.296C73.58 8.168 73.26 8.104 72.868 8.104C72.604 8.104 72.344 8.156 72.088 8.26C71.832 8.356 71.6 8.508 71.392 8.716L70.972 8.164C71.228 7.908 71.524 7.716 71.86 7.588C72.196 7.46 72.552 7.396 72.928 7.396C73.288 7.396 73.616 7.44 73.912 7.528C74.208 7.616 74.46 7.764 74.668 7.972C74.884 8.172 75.048 8.444 75.16 8.788C75.28 9.132 75.34 9.564 75.34 10.084V13H74.404V12.16C74.3 12.36 74.172 12.524 74.02 12.652C73.876 12.78 73.72 12.88 73.552 12.952C73.384 13.016 73.212 13.06 73.036 13.084C72.86 13.116 72.692 13.132 72.532 13.132ZM76.948 13V12.304H78.568V5.716H77.02V5.02H79.444V12.304H81.052V13H76.948ZM88.648 13.012V5.524H90.388C90.82 5.524 91.184 5.564 91.48 5.644C91.776 5.724 92.028 5.84 92.236 5.992C92.444 6.136 92.628 6.32 92.788 6.544C92.956 6.768 93.092 7.02 93.196 7.3C93.308 7.58 93.388 7.888 93.436 8.224C93.492 8.552 93.52 8.912 93.52 9.304C93.496 9.88 93.42 10.396 93.292 10.852C93.164 11.308 92.972 11.696 92.716 12.016C92.46 12.336 92.128 12.584 91.72 12.76C91.32 12.928 90.828 13.012 90.244 13.012H88.648ZM89.44 12.352H90.208C90.784 12.352 91.252 12.236 91.612 12.004C91.98 11.772 92.252 11.432 92.428 10.984C92.604 10.536 92.688 9.992 92.68 9.352C92.68 8.696 92.6 8.136 92.44 7.672C92.28 7.208 92.028 6.852 91.684 6.604C91.348 6.356 90.9 6.232 90.34 6.232H89.44V12.352ZM97.264 13.12C96.864 13.12 96.5 13.06 96.172 12.94C95.844 12.812 95.56 12.628 95.32 12.388C95.088 12.148 94.908 11.852 94.78 11.5C94.652 11.14 94.588 10.732 94.588 10.276C94.588 9.812 94.652 9.4 94.78 9.04C94.916 8.68 95.096 8.38 95.32 8.14C95.552 7.892 95.82 7.704 96.124 7.576C96.436 7.448 96.764 7.384 97.108 7.384C97.42 7.384 97.712 7.436 97.984 7.54C98.256 7.644 98.492 7.804 98.692 8.02C98.892 8.228 99.048 8.496 99.16 8.824C99.28 9.152 99.34 9.54 99.34 9.988C99.34 10.052 99.336 10.12 99.328 10.192C99.328 10.256 99.324 10.32 99.316 10.384H95.416C95.432 10.736 95.492 11.044 95.596 11.308C95.7 11.564 95.836 11.776 96.004 11.944C96.172 12.104 96.364 12.224 96.58 12.304C96.804 12.384 97.04 12.424 97.288 12.424C97.48 12.424 97.66 12.404 97.828 12.364C97.996 12.316 98.152 12.248 98.296 12.16C98.448 12.064 98.584 11.948 98.704 11.812L99.184 12.28C99.032 12.464 98.856 12.62 98.656 12.748C98.464 12.876 98.252 12.968 98.02 13.024C97.788 13.088 97.536 13.12 97.264 13.12ZM95.452 9.712H98.464C98.464 9.456 98.428 9.228 98.356 9.028C98.292 8.82 98.196 8.644 98.068 8.5C97.948 8.348 97.8 8.236 97.624 8.164C97.456 8.084 97.264 8.044 97.048 8.044C96.856 8.044 96.672 8.076 96.496 8.14C96.328 8.204 96.172 8.308 96.028 8.452C95.884 8.588 95.76 8.76 95.656 8.968C95.56 9.176 95.492 9.424 95.452 9.712ZM103.012 13.12C102.708 13.12 102.416 13.088 102.136 13.024C101.864 12.96 101.604 12.864 101.356 12.736C101.116 12.608 100.892 12.448 100.684 12.256L101.164 11.44L101.236 11.332L101.308 11.38C101.324 11.444 101.34 11.512 101.356 11.584C101.38 11.648 101.436 11.728 101.524 11.824C101.692 11.992 101.892 12.132 102.124 12.244C102.364 12.348 102.668 12.4 103.036 12.4C103.332 12.4 103.58 12.364 103.78 12.292C103.988 12.22 104.148 12.12 104.26 11.992C104.372 11.856 104.428 11.7 104.428 11.524C104.428 11.404 104.404 11.3 104.356 11.212C104.308 11.116 104.228 11.028 104.116 10.948C104.012 10.868 103.872 10.788 103.696 10.708C103.52 10.628 103.304 10.548 103.048 10.468C102.632 10.348 102.268 10.208 101.956 10.048C101.644 9.888 101.404 9.704 101.236 9.496C101.068 9.28 100.984 9.036 100.984 8.764C100.984 8.484 101.06 8.244 101.212 8.044C101.364 7.836 101.588 7.676 101.884 7.564C102.188 7.444 102.56 7.384 103 7.384C103.256 7.384 103.488 7.404 103.696 7.444C103.904 7.476 104.096 7.528 104.272 7.6C104.448 7.672 104.608 7.764 104.752 7.876C104.904 7.98 105.048 8.104 105.184 8.248L104.692 8.848L104.608 8.944L104.548 8.884C104.54 8.82 104.52 8.76 104.488 8.704C104.464 8.64 104.408 8.564 104.32 8.476C104.136 8.332 103.928 8.224 103.696 8.152C103.464 8.072 103.24 8.032 103.024 8.032C102.704 8.032 102.428 8.088 102.196 8.2C101.964 8.312 101.848 8.484 101.848 8.716C101.848 8.836 101.888 8.956 101.968 9.076C102.056 9.188 102.212 9.304 102.436 9.424C102.66 9.536 102.98 9.652 103.396 9.772C103.852 9.916 104.216 10.064 104.488 10.216C104.768 10.36 104.968 10.528 105.088 10.72C105.216 10.912 105.28 11.14 105.28 11.404C105.28 11.708 105.196 11.992 105.028 12.256C104.868 12.52 104.62 12.732 104.284 12.892C103.948 13.044 103.524 13.12 103.012 13.12ZM107.2 13V12.304H108.604V8.212H107.272V7.516H109.468V12.304H110.752V13H107.2ZM108.988 6.364C108.82 6.364 108.676 6.304 108.556 6.184C108.436 6.064 108.376 5.92 108.376 5.752C108.376 5.576 108.432 5.428 108.544 5.308C108.664 5.188 108.812 5.128 108.988 5.128C109.156 5.128 109.3 5.192 109.42 5.32C109.548 5.44 109.612 5.584 109.612 5.752C109.612 5.92 109.548 6.064 109.42 6.184C109.3 6.304 109.156 6.364 108.988 6.364ZM114.964 15.064C114.58 15.064 114.232 15.032 113.92 14.968C113.616 14.912 113.352 14.824 113.128 14.704C112.912 14.592 112.744 14.448 112.624 14.272C112.512 14.096 112.456 13.888 112.456 13.648C112.456 13.424 112.504 13.224 112.6 13.048C112.696 12.872 112.82 12.728 112.972 12.616C113.132 12.496 113.304 12.408 113.488 12.352L113.848 12.568C113.704 12.656 113.588 12.744 113.5 12.832C113.412 12.92 113.348 13.02 113.308 13.132C113.268 13.252 113.248 13.392 113.248 13.552C113.248 13.688 113.288 13.808 113.368 13.912C113.448 14.024 113.56 14.116 113.704 14.188C113.856 14.26 114.036 14.316 114.244 14.356C114.46 14.396 114.704 14.416 114.976 14.416C115.344 14.416 115.64 14.376 115.864 14.296C116.096 14.224 116.268 14.12 116.38 13.984C116.492 13.856 116.548 13.708 116.548 13.54C116.548 13.364 116.516 13.22 116.452 13.108C116.388 12.996 116.256 12.912 116.056 12.856C115.856 12.8 115.552 12.772 115.144 12.772C114.864 12.772 114.608 12.76 114.376 12.736C114.144 12.712 113.936 12.672 113.752 12.616C113.568 12.56 113.412 12.492 113.284 12.412C113.164 12.324 113.072 12.22 113.008 12.1C112.944 11.98 112.912 11.84 112.912 11.68C112.912 11.472 112.968 11.272 113.08 11.08C113.2 10.888 113.36 10.704 113.56 10.528L113.968 10.852C113.888 10.94 113.824 11.02 113.776 11.092C113.728 11.156 113.692 11.22 113.668 11.284C113.652 11.34 113.644 11.404 113.644 11.476C113.644 11.604 113.692 11.708 113.788 11.788C113.892 11.868 114.068 11.928 114.316 11.968C114.564 12 114.9 12.016 115.324 12.016C115.748 12.016 116.092 12.052 116.356 12.124C116.62 12.188 116.82 12.284 116.956 12.412C117.1 12.54 117.2 12.688 117.256 12.856C117.312 13.024 117.34 13.208 117.34 13.408C117.34 13.624 117.296 13.828 117.208 14.02C117.128 14.22 116.996 14.396 116.812 14.548C116.628 14.708 116.384 14.832 116.08 14.92C115.776 15.016 115.404 15.064 114.964 15.064ZM114.712 11.14C114.32 11.14 113.98 11.056 113.692 10.888C113.404 10.712 113.18 10.48 113.02 10.192C112.868 9.896 112.792 9.572 112.792 9.22C112.792 8.868 112.868 8.548 113.02 8.26C113.18 7.972 113.404 7.744 113.692 7.576C113.98 7.4 114.32 7.312 114.712 7.312C115.112 7.312 115.452 7.4 115.732 7.576C116.02 7.744 116.24 7.972 116.392 8.26C116.552 8.548 116.632 8.868 116.632 9.22C116.632 9.572 116.552 9.896 116.392 10.192C116.24 10.48 116.02 10.712 115.732 10.888C115.452 11.056 115.112 11.14 114.712 11.14ZM114.712 10.42C114.944 10.42 115.148 10.368 115.324 10.264C115.508 10.152 115.652 10.004 115.756 9.82C115.86 9.636 115.912 9.436 115.912 9.22C115.912 8.996 115.86 8.796 115.756 8.62C115.652 8.436 115.508 8.292 115.324 8.188C115.148 8.076 114.944 8.02 114.712 8.02C114.48 8.02 114.272 8.076 114.088 8.188C113.912 8.292 113.772 8.436 113.668 8.62C113.564 8.796 113.512 8.996 113.512 9.22C113.512 9.436 113.564 9.636 113.668 9.82C113.772 10.004 113.912 10.152 114.088 10.264C114.272 10.368 114.48 10.42 114.712 10.42ZM116.308 8.404L115.972 8.008C116.204 7.776 116.444 7.608 116.692 7.504C116.948 7.392 117.248 7.348 117.592 7.372L117.7 8.08C117.436 8.056 117.188 8.064 116.956 8.104C116.724 8.144 116.508 8.244 116.308 8.404ZM118.864 13V7.516H119.704V8.488C119.848 8.264 120.016 8.072 120.208 7.912C120.4 7.744 120.612 7.616 120.844 7.528C121.076 7.432 121.316 7.384 121.564 7.384C121.868 7.384 122.14 7.46 122.38 7.612C122.62 7.764 122.812 8.008 122.956 8.344C123.1 8.68 123.172 9.124 123.172 9.676V13H122.332V9.7C122.332 9.316 122.288 9.012 122.2 8.788C122.112 8.556 121.992 8.392 121.84 8.296C121.688 8.192 121.516 8.14 121.324 8.14C121.14 8.14 120.952 8.18 120.76 8.26C120.576 8.34 120.404 8.456 120.244 8.608C120.084 8.752 119.952 8.928 119.848 9.136C119.752 9.344 119.704 9.58 119.704 9.844V13H118.864ZM130.708 13V5.524H133.108C133.668 5.524 134.12 5.62 134.464 5.812C134.808 6.004 135.06 6.26 135.22 6.58C135.388 6.892 135.472 7.244 135.472 7.636C135.472 7.924 135.428 8.192 135.34 8.44C135.252 8.688 135.112 8.908 134.92 9.1C134.736 9.292 134.5 9.44 134.212 9.544C133.924 9.648 133.576 9.7 133.168 9.7H131.572V13H130.708ZM131.572 8.956H133.072C133.44 8.956 133.736 8.904 133.96 8.8C134.184 8.688 134.348 8.536 134.452 8.344C134.556 8.144 134.608 7.916 134.608 7.66C134.608 7.412 134.556 7.188 134.452 6.988C134.348 6.788 134.184 6.628 133.96 6.508C133.736 6.38 133.444 6.316 133.084 6.316H131.572V8.956ZM137.428 7.516H138.328L138.292 9.112L138.184 8.932C138.232 8.684 138.316 8.464 138.436 8.272C138.556 8.08 138.7 7.92 138.868 7.792C139.036 7.656 139.22 7.556 139.42 7.492C139.62 7.42 139.828 7.384 140.044 7.384C140.332 7.384 140.596 7.436 140.836 7.54C141.084 7.636 141.304 7.784 141.496 7.984L141.112 8.656L141.064 8.764L140.98 8.716C140.964 8.652 140.94 8.592 140.908 8.536C140.876 8.48 140.808 8.412 140.704 8.332C140.576 8.252 140.456 8.2 140.344 8.176C140.24 8.144 140.12 8.128 139.984 8.128C139.784 8.128 139.584 8.168 139.384 8.248C139.184 8.32 139 8.436 138.832 8.596C138.672 8.756 138.544 8.96 138.448 9.208C138.352 9.456 138.304 9.752 138.304 10.096V13.012H137.428V7.516ZM145 13.096C144.504 13.096 144.064 12.976 143.68 12.736C143.304 12.488 143.008 12.152 142.792 11.728C142.576 11.296 142.468 10.804 142.468 10.252C142.468 9.692 142.576 9.2 142.792 8.776C143.008 8.344 143.304 8.008 143.68 7.768C144.064 7.52 144.504 7.396 145 7.396C145.496 7.396 145.932 7.52 146.308 7.768C146.692 8.008 146.992 8.344 147.208 8.776C147.424 9.2 147.532 9.692 147.532 10.252C147.532 10.804 147.424 11.296 147.208 11.728C146.992 12.152 146.692 12.488 146.308 12.736C145.932 12.976 145.496 13.096 145 13.096ZM145 12.376C145.32 12.376 145.6 12.284 145.84 12.1C146.08 11.916 146.268 11.664 146.404 11.344C146.548 11.024 146.62 10.656 146.62 10.24C146.62 9.824 146.548 9.456 146.404 9.136C146.268 8.816 146.08 8.568 145.84 8.392C145.6 8.208 145.32 8.116 145 8.116C144.688 8.116 144.408 8.208 144.16 8.392C143.92 8.568 143.728 8.816 143.584 9.136C143.448 9.456 143.38 9.824 143.38 10.24C143.38 10.656 143.448 11.024 143.584 11.344C143.728 11.664 143.92 11.916 144.16 12.1C144.408 12.284 144.688 12.376 145 12.376ZM150.328 15.088C149.984 15.088 149.656 15.024 149.344 14.896C149.04 14.768 148.784 14.576 148.576 14.32L149.056 13.672L149.128 13.576L149.2 13.624C149.216 13.688 149.236 13.748 149.26 13.804C149.284 13.868 149.34 13.948 149.428 14.044C149.54 14.132 149.668 14.204 149.812 14.26C149.964 14.316 150.132 14.344 150.316 14.344C150.556 14.344 150.768 14.288 150.952 14.176C151.144 14.072 151.292 13.904 151.396 13.672C151.5 13.448 151.552 13.152 151.552 12.784V8.224H149.512V7.516H152.428V12.736C152.428 13.288 152.332 13.736 152.14 14.08C151.948 14.432 151.692 14.688 151.372 14.848C151.06 15.008 150.712 15.088 150.328 15.088ZM151.924 6.364C151.756 6.364 151.612 6.304 151.492 6.184C151.372 6.064 151.312 5.92 151.312 5.752C151.312 5.576 151.368 5.428 151.48 5.308C151.6 5.188 151.748 5.128 151.924 5.128C152.092 5.128 152.236 5.192 152.356 5.32C152.484 5.44 152.548 5.584 152.548 5.752C152.548 5.92 152.484 6.064 152.356 6.184C152.236 6.304 152.092 6.364 151.924 6.364ZM157.264 13.12C156.864 13.12 156.5 13.06 156.172 12.94C155.844 12.812 155.56 12.628 155.32 12.388C155.088 12.148 154.908 11.852 154.78 11.5C154.652 11.14 154.588 10.732 154.588 10.276C154.588 9.812 154.652 9.4 154.78 9.04C154.916 8.68 155.096 8.38 155.32 8.14C155.552 7.892 155.82 7.704 156.124 7.576C156.436 7.448 156.764 7.384 157.108 7.384C157.42 7.384 157.712 7.436 157.984 7.54C158.256 7.644 158.492 7.804 158.692 8.02C158.892 8.228 159.048 8.496 159.16 8.824C159.28 9.152 159.34 9.54 159.34 9.988C159.34 10.052 159.336 10.12 159.328 10.192C159.328 10.256 159.324 10.32 159.316 10.384H155.416C155.432 10.736 155.492 11.044 155.596 11.308C155.7 11.564 155.836 11.776 156.004 11.944C156.172 12.104 156.364 12.224 156.58 12.304C156.804 12.384 157.04 12.424 157.288 12.424C157.48 12.424 157.66 12.404 157.828 12.364C157.996 12.316 158.152 12.248 158.296 12.16C158.448 12.064 158.584 11.948 158.704 11.812L159.184 12.28C159.032 12.464 158.856 12.62 158.656 12.748C158.464 12.876 158.252 12.968 158.02 13.024C157.788 13.088 157.536 13.12 157.264 13.12ZM155.452 9.712H158.464C158.464 9.456 158.428 9.228 158.356 9.028C158.292 8.82 158.196 8.644 158.068 8.5C157.948 8.348 157.8 8.236 157.624 8.164C157.456 8.084 157.264 8.044 157.048 8.044C156.856 8.044 156.672 8.076 156.496 8.14C156.328 8.204 156.172 8.308 156.028 8.452C155.884 8.588 155.76 8.76 155.656 8.968C155.56 9.176 155.492 9.424 155.452 9.712ZM163.42 13.132C163.02 13.132 162.652 13.06 162.316 12.916C161.98 12.772 161.688 12.572 161.44 12.316C161.2 12.06 161.012 11.76 160.876 11.416C160.74 11.064 160.672 10.68 160.672 10.264C160.672 9.856 160.74 9.48 160.876 9.136C161.012 8.784 161.2 8.48 161.44 8.224C161.688 7.968 161.98 7.768 162.316 7.624C162.652 7.48 163.016 7.408 163.408 7.408C163.856 7.408 164.256 7.5 164.608 7.684C164.968 7.86 165.26 8.108 165.484 8.428L164.944 8.956L164.86 9.04L164.8 8.98C164.8 8.916 164.784 8.856 164.752 8.8C164.728 8.744 164.668 8.668 164.572 8.572C164.396 8.412 164.208 8.3 164.008 8.236C163.808 8.172 163.576 8.14 163.312 8.14C163.08 8.14 162.86 8.188 162.652 8.284C162.444 8.38 162.256 8.52 162.088 8.704C161.928 8.88 161.8 9.096 161.704 9.352C161.608 9.608 161.56 9.892 161.56 10.204C161.56 10.516 161.608 10.804 161.704 11.068C161.8 11.324 161.932 11.548 162.1 11.74C162.268 11.932 162.468 12.084 162.7 12.196C162.94 12.3 163.196 12.352 163.468 12.352C163.652 12.352 163.828 12.328 163.996 12.28C164.164 12.224 164.324 12.148 164.476 12.052C164.628 11.948 164.768 11.824 164.896 11.68L165.4 12.268C165.128 12.556 164.824 12.772 164.488 12.916C164.16 13.06 163.804 13.132 163.42 13.132ZM169.588 13.084C169.236 13.084 168.948 13.024 168.724 12.904C168.5 12.784 168.328 12.6 168.208 12.352C168.088 12.096 168.008 11.776 167.968 11.392C167.936 11.008 167.928 10.552 167.944 10.024L168.088 6.112L168.988 6.004L169.108 5.992L169.12 6.076C169.08 6.132 169.044 6.188 169.012 6.244C168.988 6.3 168.968 6.396 168.952 6.532L168.844 7.888L168.88 8.104L168.796 10.084C168.772 10.692 168.788 11.164 168.844 11.5C168.9 11.828 169 12.056 169.144 12.184C169.288 12.304 169.48 12.364 169.72 12.364C169.984 12.364 170.216 12.312 170.416 12.208C170.624 12.104 170.84 11.972 171.064 11.812L171.328 12.496C171.056 12.696 170.776 12.844 170.488 12.94C170.2 13.036 169.9 13.084 169.588 13.084ZM166.84 7.516H170.788V8.224H166.84V7.516Z" fill="black"/>
</svg>
