<svg width="132" height="20" viewBox="0 0 132 20" fill="none" xmlns="http://www.w3.org/2000/svg">
<rect x="0.5" y="0.5" width="131" height="19" fill="black" stroke="black"/>
<path d="M10.476 11.548H7.416L7.62 10.372H10.236L10.476 11.548ZM9.012 8.428L7.8 13H6.12L8.496 5.524H9.516L11.892 13H10.188L9.012 8.428ZM12.828 7.348H14.568V8.896L14.376 8.848C14.4 8.608 14.46 8.392 14.556 8.2C14.66 8 14.792 7.828 14.952 7.684C15.112 7.532 15.288 7.416 15.48 7.336C15.68 7.256 15.884 7.216 16.092 7.216C16.42 7.216 16.712 7.268 16.968 7.372C17.224 7.476 17.464 7.644 17.688 7.876L16.992 9.328L16.956 9.424L16.836 9.376C16.804 9.312 16.78 9.244 16.764 9.172C16.748 9.092 16.696 9.004 16.608 8.908C16.504 8.82 16.384 8.748 16.248 8.692C16.12 8.628 15.976 8.596 15.816 8.596C15.632 8.596 15.46 8.624 15.3 8.68C15.148 8.736 15.016 8.824 14.904 8.944C14.792 9.064 14.704 9.216 14.64 9.4C14.576 9.584 14.544 9.804 14.544 10.06V13H12.828V7.348ZM21.288 13.144C20.872 13.144 20.484 13.076 20.124 12.94C19.764 12.796 19.448 12.596 19.176 12.34C18.912 12.076 18.704 11.768 18.552 11.416C18.408 11.064 18.336 10.676 18.336 10.252C18.336 9.836 18.408 9.444 18.552 9.076C18.704 8.708 18.912 8.388 19.176 8.116C19.448 7.836 19.764 7.616 20.124 7.456C20.484 7.296 20.876 7.216 21.3 7.216C21.86 7.216 22.34 7.316 22.74 7.516C23.14 7.708 23.456 7.98 23.688 8.332L22.788 9.352L22.716 9.436L22.608 9.352C22.6 9.288 22.592 9.22 22.584 9.148C22.576 9.076 22.532 8.988 22.452 8.884C22.316 8.748 22.16 8.656 21.984 8.608C21.808 8.56 21.608 8.536 21.384 8.536C21.208 8.536 21.04 8.576 20.88 8.656C20.72 8.728 20.576 8.836 20.448 8.98C20.32 9.124 20.22 9.304 20.148 9.52C20.076 9.736 20.04 9.988 20.04 10.276C20.04 10.524 20.076 10.748 20.148 10.948C20.228 11.14 20.328 11.3 20.448 11.428C20.576 11.556 20.716 11.656 20.868 11.728C21.028 11.792 21.188 11.824 21.348 11.824C21.508 11.824 21.664 11.804 21.816 11.764C21.976 11.724 22.132 11.656 22.284 11.56C22.444 11.456 22.596 11.312 22.74 11.128L23.652 12.172C23.34 12.524 22.968 12.776 22.536 12.928C22.104 13.072 21.688 13.144 21.288 13.144ZM24.516 4.9H26.22H26.328V5.032C26.288 5.08 26.26 5.132 26.244 5.188C26.236 5.244 26.232 5.34 26.232 5.476V7.924C26.36 7.748 26.508 7.612 26.676 7.516C26.844 7.412 27.02 7.336 27.204 7.288C27.396 7.24 27.58 7.216 27.756 7.216C28.14 7.216 28.468 7.3 28.74 7.468C29.02 7.628 29.236 7.884 29.388 8.236C29.54 8.588 29.616 9.044 29.616 9.604V13H27.912V9.616C27.912 9.328 27.888 9.1 27.84 8.932C27.792 8.756 27.72 8.632 27.624 8.56C27.536 8.488 27.42 8.452 27.276 8.452C27.14 8.452 27.016 8.472 26.904 8.512C26.8 8.552 26.704 8.608 26.616 8.68C26.536 8.752 26.464 8.844 26.4 8.956C26.344 9.06 26.3 9.18 26.268 9.316C26.244 9.452 26.232 9.6 26.232 9.76V13H24.516V4.9ZM30.888 13V11.68H32.232V8.668H30.948V7.348H33.936V11.68H35.16V13H30.888ZM33 6.58C32.72 6.58 32.48 6.488 32.28 6.304C32.088 6.112 31.992 5.888 31.992 5.632C31.992 5.352 32.084 5.124 32.268 4.948C32.46 4.772 32.704 4.684 33 4.684C33.264 4.684 33.496 4.78 33.696 4.972C33.904 5.156 34.008 5.376 34.008 5.632C34.008 5.888 33.904 6.112 33.696 6.304C33.496 6.488 33.264 6.58 33 6.58ZM39.588 13.144C39.292 13.144 39.02 13.096 38.772 13C38.524 12.912 38.312 12.76 38.136 12.544C37.96 12.32 37.828 12.016 37.74 11.632C37.652 11.248 37.62 10.76 37.644 10.168L37.812 6.088L39.54 5.86L39.648 5.848L39.66 5.98C39.628 6.036 39.596 6.092 39.564 6.148C39.532 6.204 39.512 6.3 39.504 6.436L39.36 8.284H39.432L39.336 10.084C39.312 10.54 39.328 10.896 39.384 11.152C39.448 11.4 39.536 11.572 39.648 11.668C39.768 11.764 39.892 11.812 40.02 11.812C40.268 11.812 40.492 11.76 40.692 11.656C40.9 11.552 41.08 11.436 41.232 11.308L41.52 12.496C41.248 12.696 40.952 12.856 40.632 12.976C40.32 13.088 39.972 13.144 39.588 13.144ZM36.612 7.348H41.148L41.124 8.668H36.588L36.612 7.348ZM45.24 13.144C44.84 13.144 44.464 13.08 44.112 12.952C43.768 12.816 43.464 12.624 43.2 12.376C42.944 12.128 42.744 11.824 42.6 11.464C42.456 11.096 42.384 10.684 42.384 10.228C42.384 9.764 42.452 9.348 42.588 8.98C42.732 8.604 42.924 8.288 43.164 8.032C43.412 7.768 43.7 7.568 44.028 7.432C44.356 7.288 44.712 7.216 45.096 7.216C45.424 7.216 45.736 7.276 46.032 7.396C46.336 7.516 46.604 7.696 46.836 7.936C47.068 8.168 47.252 8.46 47.388 8.812C47.524 9.156 47.592 9.552 47.592 10C47.592 10.096 47.592 10.216 47.592 10.36C47.592 10.504 47.588 10.62 47.58 10.708H44.016C44.032 10.908 44.08 11.08 44.16 11.224C44.24 11.36 44.34 11.476 44.46 11.572C44.588 11.66 44.724 11.728 44.868 11.776C45.02 11.816 45.172 11.836 45.324 11.836C45.484 11.836 45.636 11.824 45.78 11.8C45.924 11.776 46.064 11.732 46.2 11.668C46.336 11.596 46.468 11.496 46.596 11.368L47.436 12.184C47.244 12.408 47.032 12.592 46.8 12.736C46.568 12.88 46.32 12.984 46.056 13.048C45.792 13.112 45.52 13.144 45.24 13.144ZM44.028 9.46H45.984C45.984 9.3 45.964 9.164 45.924 9.052C45.884 8.932 45.824 8.836 45.744 8.764C45.664 8.684 45.564 8.628 45.444 8.596C45.324 8.556 45.188 8.536 45.036 8.536C44.9 8.536 44.772 8.556 44.652 8.596C44.54 8.628 44.44 8.684 44.352 8.764C44.264 8.836 44.192 8.932 44.136 9.052C44.08 9.164 44.044 9.3 44.028 9.46ZM51.288 13.144C50.872 13.144 50.484 13.076 50.124 12.94C49.764 12.796 49.448 12.596 49.176 12.34C48.912 12.076 48.704 11.768 48.552 11.416C48.408 11.064 48.336 10.676 48.336 10.252C48.336 9.836 48.408 9.444 48.552 9.076C48.704 8.708 48.912 8.388 49.176 8.116C49.448 7.836 49.764 7.616 50.124 7.456C50.484 7.296 50.876 7.216 51.3 7.216C51.86 7.216 52.34 7.316 52.74 7.516C53.14 7.708 53.456 7.98 53.688 8.332L52.788 9.352L52.716 9.436L52.608 9.352C52.6 9.288 52.592 9.22 52.584 9.148C52.576 9.076 52.532 8.988 52.452 8.884C52.316 8.748 52.16 8.656 51.984 8.608C51.808 8.56 51.608 8.536 51.384 8.536C51.208 8.536 51.04 8.576 50.88 8.656C50.72 8.728 50.576 8.836 50.448 8.98C50.32 9.124 50.22 9.304 50.148 9.52C50.076 9.736 50.04 9.988 50.04 10.276C50.04 10.524 50.076 10.748 50.148 10.948C50.228 11.14 50.328 11.3 50.448 11.428C50.576 11.556 50.716 11.656 50.868 11.728C51.028 11.792 51.188 11.824 51.348 11.824C51.508 11.824 51.664 11.804 51.816 11.764C51.976 11.724 52.132 11.656 52.284 11.56C52.444 11.456 52.596 11.312 52.74 11.128L53.652 12.172C53.34 12.524 52.968 12.776 52.536 12.928C52.104 13.072 51.688 13.144 51.288 13.144ZM57.588 13.144C57.292 13.144 57.02 13.096 56.772 13C56.524 12.912 56.312 12.76 56.136 12.544C55.96 12.32 55.828 12.016 55.74 11.632C55.652 11.248 55.62 10.76 55.644 10.168L55.812 6.088L57.54 5.86L57.648 5.848L57.66 5.98C57.628 6.036 57.596 6.092 57.564 6.148C57.532 6.204 57.512 6.3 57.504 6.436L57.36 8.284H57.432L57.336 10.084C57.312 10.54 57.328 10.896 57.384 11.152C57.448 11.4 57.536 11.572 57.648 11.668C57.768 11.764 57.892 11.812 58.02 11.812C58.268 11.812 58.492 11.76 58.692 11.656C58.9 11.552 59.08 11.436 59.232 11.308L59.52 12.496C59.248 12.696 58.952 12.856 58.632 12.976C58.32 13.088 57.972 13.144 57.588 13.144ZM54.612 7.348H59.148L59.124 8.668H54.588L54.612 7.348ZM62.472 13.144C62.24 13.144 62.02 13.116 61.812 13.06C61.612 13.004 61.428 12.916 61.26 12.796C61.1 12.676 60.96 12.524 60.84 12.34C60.72 12.156 60.628 11.936 60.564 11.68C60.5 11.416 60.468 11.116 60.468 10.78V7.348H62.172V10.78C62.172 10.964 62.184 11.12 62.208 11.248C62.24 11.376 62.284 11.484 62.34 11.572C62.396 11.652 62.46 11.712 62.532 11.752C62.612 11.784 62.696 11.8 62.784 11.8C62.936 11.8 63.068 11.776 63.18 11.728C63.3 11.68 63.396 11.608 63.468 11.512C63.548 11.408 63.604 11.284 63.636 11.14C63.676 10.996 63.696 10.828 63.696 10.636V7.348H65.412V12.088C65.412 12.28 65.416 12.448 65.424 12.592C65.44 12.728 65.476 12.864 65.532 13H64.008C63.968 12.928 63.94 12.856 63.924 12.784C63.908 12.712 63.896 12.64 63.888 12.568C63.888 12.496 63.888 12.424 63.888 12.352C63.808 12.488 63.712 12.608 63.6 12.712C63.496 12.808 63.38 12.888 63.252 12.952C63.132 13.016 63.004 13.064 62.868 13.096C62.74 13.128 62.608 13.144 62.472 13.144ZM66.828 7.348H68.568V8.896L68.376 8.848C68.4 8.608 68.46 8.392 68.556 8.2C68.66 8 68.792 7.828 68.952 7.684C69.112 7.532 69.288 7.416 69.48 7.336C69.68 7.256 69.884 7.216 70.092 7.216C70.42 7.216 70.712 7.268 70.968 7.372C71.224 7.476 71.464 7.644 71.688 7.876L70.992 9.328L70.956 9.424L70.836 9.376C70.804 9.312 70.78 9.244 70.764 9.172C70.748 9.092 70.696 9.004 70.608 8.908C70.504 8.82 70.384 8.748 70.248 8.692C70.12 8.628 69.976 8.596 69.816 8.596C69.632 8.596 69.46 8.624 69.3 8.68C69.148 8.736 69.016 8.824 68.904 8.944C68.792 9.064 68.704 9.216 68.64 9.4C68.576 9.584 68.544 9.804 68.544 10.06V13H66.828V7.348ZM74.268 13.144C73.66 13.144 73.184 13 72.84 12.712C72.496 12.416 72.324 12.028 72.324 11.548C72.324 11.244 72.388 10.964 72.516 10.708C72.644 10.444 72.844 10.216 73.116 10.024C73.388 9.824 73.736 9.668 74.16 9.556C74.584 9.444 75.092 9.388 75.684 9.388C75.708 9.388 75.752 9.388 75.816 9.388C75.88 9.388 75.952 9.388 76.032 9.388C76.112 9.388 76.18 9.388 76.236 9.388L76.284 10.516C76.236 10.516 76.168 10.516 76.08 10.516C75.992 10.516 75.9 10.52 75.804 10.528C75.716 10.528 75.648 10.528 75.6 10.528C75.256 10.528 74.98 10.552 74.772 10.6C74.564 10.64 74.404 10.7 74.292 10.78C74.188 10.852 74.116 10.936 74.076 11.032C74.036 11.12 74.016 11.208 74.016 11.296C74.016 11.392 74.032 11.476 74.064 11.548C74.096 11.62 74.14 11.676 74.196 11.716C74.252 11.756 74.32 11.788 74.4 11.812C74.48 11.828 74.564 11.836 74.652 11.836C74.844 11.836 75.008 11.804 75.144 11.74C75.28 11.676 75.392 11.572 75.48 11.428C75.576 11.276 75.644 11.084 75.684 10.852C75.732 10.62 75.756 10.336 75.756 10C75.756 9.592 75.716 9.28 75.636 9.064C75.564 8.848 75.456 8.704 75.312 8.632C75.176 8.552 75.008 8.512 74.808 8.512C74.56 8.512 74.332 8.548 74.124 8.62C73.916 8.684 73.696 8.836 73.464 9.076L72.504 8.092C72.864 7.764 73.248 7.536 73.656 7.408C74.072 7.28 74.476 7.216 74.868 7.216C75.212 7.216 75.536 7.256 75.84 7.336C76.152 7.408 76.428 7.532 76.668 7.708C76.916 7.884 77.108 8.128 77.244 8.44C77.388 8.744 77.46 9.128 77.46 9.592V13H75.744V12.556C75.64 12.652 75.536 12.74 75.432 12.82C75.336 12.892 75.228 12.952 75.108 13C74.996 13.048 74.872 13.084 74.736 13.108C74.6 13.132 74.444 13.144 74.268 13.144ZM78.624 13V11.68H80.16V6.22H78.696V4.9H81.864V11.68H83.388V13H78.624ZM92.148 13V6.928H90.216V5.524H95.808V6.928H93.756V13H92.148ZM96.516 4.9H98.22H98.328V5.032C98.288 5.08 98.26 5.132 98.244 5.188C98.236 5.244 98.232 5.34 98.232 5.476V7.924C98.36 7.748 98.508 7.612 98.676 7.516C98.844 7.412 99.02 7.336 99.204 7.288C99.396 7.24 99.58 7.216 99.756 7.216C100.14 7.216 100.468 7.3 100.74 7.468C101.02 7.628 101.236 7.884 101.388 8.236C101.54 8.588 101.616 9.044 101.616 9.604V13H99.912V9.616C99.912 9.328 99.888 9.1 99.84 8.932C99.792 8.756 99.72 8.632 99.624 8.56C99.536 8.488 99.42 8.452 99.276 8.452C99.14 8.452 99.016 8.472 98.904 8.512C98.8 8.552 98.704 8.608 98.616 8.68C98.536 8.752 98.464 8.844 98.4 8.956C98.344 9.06 98.3 9.18 98.268 9.316C98.244 9.452 98.232 9.6 98.232 9.76V13H96.516V4.9ZM105.24 13.144C104.84 13.144 104.464 13.08 104.112 12.952C103.768 12.816 103.464 12.624 103.2 12.376C102.944 12.128 102.744 11.824 102.6 11.464C102.456 11.096 102.384 10.684 102.384 10.228C102.384 9.764 102.452 9.348 102.588 8.98C102.732 8.604 102.924 8.288 103.164 8.032C103.412 7.768 103.7 7.568 104.028 7.432C104.356 7.288 104.712 7.216 105.096 7.216C105.424 7.216 105.736 7.276 106.032 7.396C106.336 7.516 106.604 7.696 106.836 7.936C107.068 8.168 107.252 8.46 107.388 8.812C107.524 9.156 107.592 9.552 107.592 10C107.592 10.096 107.592 10.216 107.592 10.36C107.592 10.504 107.588 10.62 107.58 10.708H104.016C104.032 10.908 104.08 11.08 104.16 11.224C104.24 11.36 104.34 11.476 104.46 11.572C104.588 11.66 104.724 11.728 104.868 11.776C105.02 11.816 105.172 11.836 105.324 11.836C105.484 11.836 105.636 11.824 105.78 11.8C105.924 11.776 106.064 11.732 106.2 11.668C106.336 11.596 106.468 11.496 106.596 11.368L107.436 12.184C107.244 12.408 107.032 12.592 106.8 12.736C106.568 12.88 106.32 12.984 106.056 13.048C105.792 13.112 105.52 13.144 105.24 13.144ZM104.028 9.46H105.984C105.984 9.3 105.964 9.164 105.924 9.052C105.884 8.932 105.824 8.836 105.744 8.764C105.664 8.684 105.564 8.628 105.444 8.596C105.324 8.556 105.188 8.536 105.036 8.536C104.9 8.536 104.772 8.556 104.652 8.596C104.54 8.628 104.44 8.684 104.352 8.764C104.264 8.836 104.192 8.932 104.136 9.052C104.08 9.164 104.044 9.3 104.028 9.46ZM110.988 13.144C110.484 13.144 110.024 13.024 109.608 12.784C109.192 12.536 108.86 12.188 108.612 11.74C108.364 11.292 108.24 10.772 108.24 10.18C108.24 9.628 108.364 9.128 108.612 8.68C108.86 8.232 109.192 7.876 109.608 7.612C110.024 7.348 110.484 7.216 110.988 7.216C111.492 7.216 111.952 7.348 112.368 7.612C112.792 7.876 113.128 8.232 113.376 8.68C113.632 9.128 113.76 9.628 113.76 10.18C113.76 10.764 113.632 11.28 113.376 11.728C113.128 12.176 112.792 12.524 112.368 12.772C111.952 13.02 111.492 13.144 110.988 13.144ZM110.988 11.812C111.204 11.812 111.392 11.744 111.552 11.608C111.72 11.472 111.852 11.284 111.948 11.044C112.044 10.796 112.092 10.508 112.092 10.18C112.092 9.828 112.044 9.532 111.948 9.292C111.852 9.052 111.72 8.868 111.552 8.74C111.392 8.612 111.204 8.548 110.988 8.548C110.788 8.548 110.604 8.612 110.436 8.74C110.276 8.868 110.148 9.052 110.052 9.292C109.956 9.532 109.908 9.828 109.908 10.18C109.908 10.508 109.952 10.796 110.04 11.044C110.136 11.284 110.264 11.472 110.424 11.608C110.592 11.744 110.78 11.812 110.988 11.812ZM114.828 7.348H116.568V8.896L116.376 8.848C116.4 8.608 116.46 8.392 116.556 8.2C116.66 8 116.792 7.828 116.952 7.684C117.112 7.532 117.288 7.416 117.48 7.336C117.68 7.256 117.884 7.216 118.092 7.216C118.42 7.216 118.712 7.268 118.968 7.372C119.224 7.476 119.464 7.644 119.688 7.876L118.992 9.328L118.956 9.424L118.836 9.376C118.804 9.312 118.78 9.244 118.764 9.172C118.748 9.092 118.696 9.004 118.608 8.908C118.504 8.82 118.384 8.748 118.248 8.692C118.12 8.628 117.976 8.596 117.816 8.596C117.632 8.596 117.46 8.624 117.3 8.68C117.148 8.736 117.016 8.824 116.904 8.944C116.792 9.064 116.704 9.216 116.64 9.4C116.576 9.584 116.544 9.804 116.544 10.06V13H114.828V7.348ZM121.5 15.124C121.228 15.124 120.988 15.076 120.78 14.98C120.572 14.884 120.352 14.748 120.12 14.572L120.66 13.408L120.696 13.312L120.816 13.36C120.848 13.416 120.88 13.476 120.912 13.54C120.944 13.604 121.012 13.676 121.116 13.756C121.164 13.788 121.216 13.812 121.272 13.828C121.336 13.844 121.4 13.852 121.464 13.852C121.592 13.852 121.704 13.812 121.8 13.732C121.896 13.66 121.988 13.544 122.076 13.384C122.164 13.224 122.256 13.012 122.352 12.748L123.672 9.196C123.792 8.868 123.884 8.56 123.948 8.272C124.012 7.976 124.044 7.668 124.044 7.348H125.568C125.56 7.708 125.48 8.096 125.328 8.512C125.184 8.92 125.044 9.304 124.908 9.664L123.516 13.396C123.276 14.036 122.992 14.484 122.664 14.74C122.336 14.996 121.948 15.124 121.5 15.124ZM120.252 7.348H121.92L123.468 11.404L122.544 13.108L120.252 7.348Z" fill="white"/>
</svg>
