<svg width="171" height="20" viewBox="0 0 171 20" fill="none" xmlns="http://www.w3.org/2000/svg">
<rect x="0.5" y="0.5" width="170" height="19" stroke="black"/>
<path d="M9.284 10.816H6.572L6.74 10.168H9.092L9.284 10.816ZM7.988 7.312L6.02 13H5.192L7.952 5.392H8.048L10.808 13H9.944L7.988 7.312ZM12.428 7.516H13.328L13.292 9.112L13.184 8.932C13.232 8.684 13.316 8.464 13.436 8.272C13.556 8.08 13.7 7.92 13.868 7.792C14.036 7.656 14.22 7.556 14.42 7.492C14.62 7.42 14.828 7.384 15.044 7.384C15.332 7.384 15.596 7.436 15.836 7.54C16.084 7.636 16.304 7.784 16.496 7.984L16.112 8.656L16.064 8.764L15.98 8.716C15.964 8.652 15.94 8.592 15.908 8.536C15.876 8.48 15.808 8.412 15.704 8.332C15.576 8.252 15.456 8.2 15.344 8.176C15.24 8.144 15.12 8.128 14.984 8.128C14.784 8.128 14.584 8.168 14.384 8.248C14.184 8.32 14 8.436 13.832 8.596C13.672 8.756 13.544 8.96 13.448 9.208C13.352 9.456 13.304 9.752 13.304 10.096V13.012H12.428V7.516ZM20.42 13.132C20.02 13.132 19.652 13.06 19.316 12.916C18.98 12.772 18.688 12.572 18.44 12.316C18.2 12.06 18.012 11.76 17.876 11.416C17.74 11.064 17.672 10.68 17.672 10.264C17.672 9.856 17.74 9.48 17.876 9.136C18.012 8.784 18.2 8.48 18.44 8.224C18.688 7.968 18.98 7.768 19.316 7.624C19.652 7.48 20.016 7.408 20.408 7.408C20.856 7.408 21.256 7.5 21.608 7.684C21.968 7.86 22.26 8.108 22.484 8.428L21.944 8.956L21.86 9.04L21.8 8.98C21.8 8.916 21.784 8.856 21.752 8.8C21.728 8.744 21.668 8.668 21.572 8.572C21.396 8.412 21.208 8.3 21.008 8.236C20.808 8.172 20.576 8.14 20.312 8.14C20.08 8.14 19.86 8.188 19.652 8.284C19.444 8.38 19.256 8.52 19.088 8.704C18.928 8.88 18.8 9.096 18.704 9.352C18.608 9.608 18.56 9.892 18.56 10.204C18.56 10.516 18.608 10.804 18.704 11.068C18.8 11.324 18.932 11.548 19.1 11.74C19.268 11.932 19.468 12.084 19.7 12.196C19.94 12.3 20.196 12.352 20.468 12.352C20.652 12.352 20.828 12.328 20.996 12.28C21.164 12.224 21.324 12.148 21.476 12.052C21.628 11.948 21.768 11.824 21.896 11.68L22.4 12.268C22.128 12.556 21.824 12.772 21.488 12.916C21.16 13.06 20.804 13.132 20.42 13.132ZM23.876 5.02H24.704H24.824V5.104C24.776 5.152 24.744 5.204 24.728 5.26C24.72 5.316 24.716 5.412 24.716 5.548V8.488C24.86 8.264 25.028 8.072 25.22 7.912C25.42 7.744 25.628 7.616 25.844 7.528C26.068 7.432 26.292 7.384 26.516 7.384C26.844 7.384 27.132 7.46 27.38 7.612C27.636 7.764 27.832 8.008 27.968 8.344C28.112 8.68 28.184 9.124 28.184 9.676V13H27.344V9.7C27.344 9.316 27.3 9.012 27.212 8.788C27.124 8.556 27.004 8.392 26.852 8.296C26.7 8.192 26.528 8.14 26.336 8.14C26.192 8.14 26.044 8.164 25.892 8.212C25.74 8.26 25.592 8.332 25.448 8.428C25.312 8.524 25.188 8.644 25.076 8.788C24.964 8.924 24.876 9.08 24.812 9.256C24.748 9.432 24.716 9.628 24.716 9.844V13H23.876V5.02ZM30.2 13V12.304H31.604V8.212H30.272V7.516H32.468V12.304H33.752V13H30.2ZM31.988 6.364C31.82 6.364 31.676 6.304 31.556 6.184C31.436 6.064 31.376 5.92 31.376 5.752C31.376 5.576 31.432 5.428 31.544 5.308C31.664 5.188 31.812 5.128 31.988 5.128C32.156 5.128 32.3 5.192 32.42 5.32C32.548 5.44 32.612 5.584 32.612 5.752C32.612 5.92 32.548 6.064 32.42 6.184C32.3 6.304 32.156 6.364 31.988 6.364ZM38.588 13.084C38.236 13.084 37.948 13.024 37.724 12.904C37.5 12.784 37.328 12.6 37.208 12.352C37.088 12.096 37.008 11.776 36.968 11.392C36.936 11.008 36.928 10.552 36.944 10.024L37.088 6.112L37.988 6.004L38.108 5.992L38.12 6.076C38.08 6.132 38.044 6.188 38.012 6.244C37.988 6.3 37.968 6.396 37.952 6.532L37.844 7.888L37.88 8.104L37.796 10.084C37.772 10.692 37.788 11.164 37.844 11.5C37.9 11.828 38 12.056 38.144 12.184C38.288 12.304 38.48 12.364 38.72 12.364C38.984 12.364 39.216 12.312 39.416 12.208C39.624 12.104 39.84 11.972 40.064 11.812L40.328 12.496C40.056 12.696 39.776 12.844 39.488 12.94C39.2 13.036 38.9 13.084 38.588 13.084ZM35.84 7.516H39.788V8.224H35.84V7.516ZM44.264 13.12C43.864 13.12 43.5 13.06 43.172 12.94C42.844 12.812 42.56 12.628 42.32 12.388C42.088 12.148 41.908 11.852 41.78 11.5C41.652 11.14 41.588 10.732 41.588 10.276C41.588 9.812 41.652 9.4 41.78 9.04C41.916 8.68 42.096 8.38 42.32 8.14C42.552 7.892 42.82 7.704 43.124 7.576C43.436 7.448 43.764 7.384 44.108 7.384C44.42 7.384 44.712 7.436 44.984 7.54C45.256 7.644 45.492 7.804 45.692 8.02C45.892 8.228 46.048 8.496 46.16 8.824C46.28 9.152 46.34 9.54 46.34 9.988C46.34 10.052 46.336 10.12 46.328 10.192C46.328 10.256 46.324 10.32 46.316 10.384H42.416C42.432 10.736 42.492 11.044 42.596 11.308C42.7 11.564 42.836 11.776 43.004 11.944C43.172 12.104 43.364 12.224 43.58 12.304C43.804 12.384 44.04 12.424 44.288 12.424C44.48 12.424 44.66 12.404 44.828 12.364C44.996 12.316 45.152 12.248 45.296 12.16C45.448 12.064 45.584 11.948 45.704 11.812L46.184 12.28C46.032 12.464 45.856 12.62 45.656 12.748C45.464 12.876 45.252 12.968 45.02 13.024C44.788 13.088 44.536 13.12 44.264 13.12ZM42.452 9.712H45.464C45.464 9.456 45.428 9.228 45.356 9.028C45.292 8.82 45.196 8.644 45.068 8.5C44.948 8.348 44.8 8.236 44.624 8.164C44.456 8.084 44.264 8.044 44.048 8.044C43.856 8.044 43.672 8.076 43.496 8.14C43.328 8.204 43.172 8.308 43.028 8.452C42.884 8.588 42.76 8.76 42.656 8.968C42.56 9.176 42.492 9.424 42.452 9.712ZM50.42 13.132C50.02 13.132 49.652 13.06 49.316 12.916C48.98 12.772 48.688 12.572 48.44 12.316C48.2 12.06 48.012 11.76 47.876 11.416C47.74 11.064 47.672 10.68 47.672 10.264C47.672 9.856 47.74 9.48 47.876 9.136C48.012 8.784 48.2 8.48 48.44 8.224C48.688 7.968 48.98 7.768 49.316 7.624C49.652 7.48 50.016 7.408 50.408 7.408C50.856 7.408 51.256 7.5 51.608 7.684C51.968 7.86 52.26 8.108 52.484 8.428L51.944 8.956L51.86 9.04L51.8 8.98C51.8 8.916 51.784 8.856 51.752 8.8C51.728 8.744 51.668 8.668 51.572 8.572C51.396 8.412 51.208 8.3 51.008 8.236C50.808 8.172 50.576 8.14 50.312 8.14C50.08 8.14 49.86 8.188 49.652 8.284C49.444 8.38 49.256 8.52 49.088 8.704C48.928 8.88 48.8 9.096 48.704 9.352C48.608 9.608 48.56 9.892 48.56 10.204C48.56 10.516 48.608 10.804 48.704 11.068C48.8 11.324 48.932 11.548 49.1 11.74C49.268 11.932 49.468 12.084 49.7 12.196C49.94 12.3 50.196 12.352 50.468 12.352C50.652 12.352 50.828 12.328 50.996 12.28C51.164 12.224 51.324 12.148 51.476 12.052C51.628 11.948 51.768 11.824 51.896 11.68L52.4 12.268C52.128 12.556 51.824 12.772 51.488 12.916C51.16 13.06 50.804 13.132 50.42 13.132ZM56.588 13.084C56.236 13.084 55.948 13.024 55.724 12.904C55.5 12.784 55.328 12.6 55.208 12.352C55.088 12.096 55.008 11.776 54.968 11.392C54.936 11.008 54.928 10.552 54.944 10.024L55.088 6.112L55.988 6.004L56.108 5.992L56.12 6.076C56.08 6.132 56.044 6.188 56.012 6.244C55.988 6.3 55.968 6.396 55.952 6.532L55.844 7.888L55.88 8.104L55.796 10.084C55.772 10.692 55.788 11.164 55.844 11.5C55.9 11.828 56 12.056 56.144 12.184C56.288 12.304 56.48 12.364 56.72 12.364C56.984 12.364 57.216 12.312 57.416 12.208C57.624 12.104 57.84 11.972 58.064 11.812L58.328 12.496C58.056 12.696 57.776 12.844 57.488 12.94C57.2 13.036 56.9 13.084 56.588 13.084ZM53.84 7.516H57.788V8.224H53.84V7.516ZM61.652 13.132C61.436 13.132 61.232 13.1 61.04 13.036C60.848 12.972 60.672 12.876 60.512 12.748C60.36 12.612 60.228 12.444 60.116 12.244C60.004 12.044 59.916 11.804 59.852 11.524C59.796 11.244 59.768 10.928 59.768 10.576L59.78 7.516H60.62V10.576C60.62 10.92 60.652 11.212 60.716 11.452C60.78 11.692 60.868 11.884 60.98 12.028C61.1 12.172 61.236 12.276 61.388 12.34C61.54 12.404 61.7 12.436 61.868 12.436C62.06 12.436 62.244 12.4 62.42 12.328C62.596 12.248 62.752 12.132 62.888 11.98C63.032 11.828 63.144 11.632 63.224 11.392C63.304 11.152 63.344 10.868 63.344 10.54V7.516H64.184V12.148C64.184 12.292 64.188 12.436 64.196 12.58C64.212 12.716 64.248 12.856 64.304 13H63.476C63.436 12.904 63.408 12.812 63.392 12.724C63.376 12.628 63.364 12.532 63.356 12.436C63.356 12.34 63.356 12.248 63.356 12.16C63.268 12.312 63.164 12.448 63.044 12.568C62.924 12.688 62.788 12.792 62.636 12.88C62.492 12.96 62.336 13.02 62.168 13.06C62.008 13.108 61.836 13.132 61.652 13.132ZM66.428 7.516H67.328L67.292 9.112L67.184 8.932C67.232 8.684 67.316 8.464 67.436 8.272C67.556 8.08 67.7 7.92 67.868 7.792C68.036 7.656 68.22 7.556 68.42 7.492C68.62 7.42 68.828 7.384 69.044 7.384C69.332 7.384 69.596 7.436 69.836 7.54C70.084 7.636 70.304 7.784 70.496 7.984L70.112 8.656L70.064 8.764L69.98 8.716C69.964 8.652 69.94 8.592 69.908 8.536C69.876 8.48 69.808 8.412 69.704 8.332C69.576 8.252 69.456 8.2 69.344 8.176C69.24 8.144 69.12 8.128 68.984 8.128C68.784 8.128 68.584 8.168 68.384 8.248C68.184 8.32 68 8.436 67.832 8.596C67.672 8.756 67.544 8.96 67.448 9.208C67.352 9.456 67.304 9.752 67.304 10.096V13.012H66.428V7.516ZM73.532 13.132C72.908 13.132 72.428 12.992 72.092 12.712C71.756 12.424 71.588 12.06 71.588 11.62C71.588 11.324 71.66 11.06 71.804 10.828C71.948 10.588 72.144 10.388 72.392 10.228C72.648 10.06 72.944 9.932 73.28 9.844C73.616 9.756 73.972 9.712 74.348 9.712C74.484 9.712 74.62 9.716 74.756 9.724C74.9 9.724 75.048 9.732 75.2 9.748C75.36 9.756 75.524 9.772 75.692 9.796L75.716 10.456C75.572 10.432 75.424 10.416 75.272 10.408C75.128 10.392 74.984 10.38 74.84 10.372C74.696 10.364 74.556 10.36 74.42 10.36C74.132 10.36 73.868 10.384 73.628 10.432C73.388 10.48 73.18 10.552 73.004 10.648C72.828 10.744 72.692 10.868 72.596 11.02C72.5 11.172 72.452 11.356 72.452 11.572C72.452 11.74 72.48 11.884 72.536 12.004C72.6 12.116 72.684 12.208 72.788 12.28C72.892 12.344 73.012 12.392 73.148 12.424C73.292 12.456 73.448 12.472 73.616 12.472C73.928 12.472 74.204 12.424 74.444 12.328C74.692 12.224 74.9 12.076 75.068 11.884C75.244 11.692 75.376 11.456 75.464 11.176C75.552 10.896 75.596 10.576 75.596 10.216C75.596 9.672 75.532 9.248 75.404 8.944C75.276 8.64 75.084 8.424 74.828 8.296C74.58 8.168 74.26 8.104 73.868 8.104C73.604 8.104 73.344 8.156 73.088 8.26C72.832 8.356 72.6 8.508 72.392 8.716L71.972 8.164C72.228 7.908 72.524 7.716 72.86 7.588C73.196 7.46 73.552 7.396 73.928 7.396C74.288 7.396 74.616 7.44 74.912 7.528C75.208 7.616 75.46 7.764 75.668 7.972C75.884 8.172 76.048 8.444 76.16 8.788C76.28 9.132 76.34 9.564 76.34 10.084V13H75.404V12.16C75.3 12.36 75.172 12.524 75.02 12.652C74.876 12.78 74.72 12.88 74.552 12.952C74.384 13.016 74.212 13.06 74.036 13.084C73.86 13.116 73.692 13.132 73.532 13.132ZM77.948 13V12.304H79.568V5.716H78.02V5.02H80.444V12.304H82.052V13H77.948ZM89.972 13V12.292H91.448V6.232H90.056V5.524H93.764V6.232H92.288V12.304H93.836V13H89.972ZM95.864 13V7.516H96.704V8.488C96.848 8.264 97.016 8.072 97.208 7.912C97.4 7.744 97.612 7.616 97.844 7.528C98.076 7.432 98.316 7.384 98.564 7.384C98.868 7.384 99.14 7.46 99.38 7.612C99.62 7.764 99.812 8.008 99.956 8.344C100.1 8.68 100.172 9.124 100.172 9.676V13H99.332V9.7C99.332 9.316 99.288 9.012 99.2 8.788C99.112 8.556 98.992 8.392 98.84 8.296C98.688 8.192 98.516 8.14 98.324 8.14C98.14 8.14 97.952 8.18 97.76 8.26C97.576 8.34 97.404 8.456 97.244 8.608C97.084 8.752 96.952 8.928 96.848 9.136C96.752 9.344 96.704 9.58 96.704 9.844V13H95.864ZM104.012 13.12C103.708 13.12 103.416 13.088 103.136 13.024C102.864 12.96 102.604 12.864 102.356 12.736C102.116 12.608 101.892 12.448 101.684 12.256L102.164 11.44L102.236 11.332L102.308 11.38C102.324 11.444 102.34 11.512 102.356 11.584C102.38 11.648 102.436 11.728 102.524 11.824C102.692 11.992 102.892 12.132 103.124 12.244C103.364 12.348 103.668 12.4 104.036 12.4C104.332 12.4 104.58 12.364 104.78 12.292C104.988 12.22 105.148 12.12 105.26 11.992C105.372 11.856 105.428 11.7 105.428 11.524C105.428 11.404 105.404 11.3 105.356 11.212C105.308 11.116 105.228 11.028 105.116 10.948C105.012 10.868 104.872 10.788 104.696 10.708C104.52 10.628 104.304 10.548 104.048 10.468C103.632 10.348 103.268 10.208 102.956 10.048C102.644 9.888 102.404 9.704 102.236 9.496C102.068 9.28 101.984 9.036 101.984 8.764C101.984 8.484 102.06 8.244 102.212 8.044C102.364 7.836 102.588 7.676 102.884 7.564C103.188 7.444 103.56 7.384 104 7.384C104.256 7.384 104.488 7.404 104.696 7.444C104.904 7.476 105.096 7.528 105.272 7.6C105.448 7.672 105.608 7.764 105.752 7.876C105.904 7.98 106.048 8.104 106.184 8.248L105.692 8.848L105.608 8.944L105.548 8.884C105.54 8.82 105.52 8.76 105.488 8.704C105.464 8.64 105.408 8.564 105.32 8.476C105.136 8.332 104.928 8.224 104.696 8.152C104.464 8.072 104.24 8.032 104.024 8.032C103.704 8.032 103.428 8.088 103.196 8.2C102.964 8.312 102.848 8.484 102.848 8.716C102.848 8.836 102.888 8.956 102.968 9.076C103.056 9.188 103.212 9.304 103.436 9.424C103.66 9.536 103.98 9.652 104.396 9.772C104.852 9.916 105.216 10.064 105.488 10.216C105.768 10.36 105.968 10.528 106.088 10.72C106.216 10.912 106.28 11.14 106.28 11.404C106.28 11.708 106.196 11.992 106.028 12.256C105.868 12.52 105.62 12.732 105.284 12.892C104.948 13.044 104.524 13.12 104.012 13.12ZM110.588 13.084C110.236 13.084 109.948 13.024 109.724 12.904C109.5 12.784 109.328 12.6 109.208 12.352C109.088 12.096 109.008 11.776 108.968 11.392C108.936 11.008 108.928 10.552 108.944 10.024L109.088 6.112L109.988 6.004L110.108 5.992L110.12 6.076C110.08 6.132 110.044 6.188 110.012 6.244C109.988 6.3 109.968 6.396 109.952 6.532L109.844 7.888L109.88 8.104L109.796 10.084C109.772 10.692 109.788 11.164 109.844 11.5C109.9 11.828 110 12.056 110.144 12.184C110.288 12.304 110.48 12.364 110.72 12.364C110.984 12.364 111.216 12.312 111.416 12.208C111.624 12.104 111.84 11.972 112.064 11.812L112.328 12.496C112.056 12.696 111.776 12.844 111.488 12.94C111.2 13.036 110.9 13.084 110.588 13.084ZM107.84 7.516H111.788V8.224H107.84V7.516ZM115.532 13.132C114.908 13.132 114.428 12.992 114.092 12.712C113.756 12.424 113.588 12.06 113.588 11.62C113.588 11.324 113.66 11.06 113.804 10.828C113.948 10.588 114.144 10.388 114.392 10.228C114.648 10.06 114.944 9.932 115.28 9.844C115.616 9.756 115.972 9.712 116.348 9.712C116.484 9.712 116.62 9.716 116.756 9.724C116.9 9.724 117.048 9.732 117.2 9.748C117.36 9.756 117.524 9.772 117.692 9.796L117.716 10.456C117.572 10.432 117.424 10.416 117.272 10.408C117.128 10.392 116.984 10.38 116.84 10.372C116.696 10.364 116.556 10.36 116.42 10.36C116.132 10.36 115.868 10.384 115.628 10.432C115.388 10.48 115.18 10.552 115.004 10.648C114.828 10.744 114.692 10.868 114.596 11.02C114.5 11.172 114.452 11.356 114.452 11.572C114.452 11.74 114.48 11.884 114.536 12.004C114.6 12.116 114.684 12.208 114.788 12.28C114.892 12.344 115.012 12.392 115.148 12.424C115.292 12.456 115.448 12.472 115.616 12.472C115.928 12.472 116.204 12.424 116.444 12.328C116.692 12.224 116.9 12.076 117.068 11.884C117.244 11.692 117.376 11.456 117.464 11.176C117.552 10.896 117.596 10.576 117.596 10.216C117.596 9.672 117.532 9.248 117.404 8.944C117.276 8.64 117.084 8.424 116.828 8.296C116.58 8.168 116.26 8.104 115.868 8.104C115.604 8.104 115.344 8.156 115.088 8.26C114.832 8.356 114.6 8.508 114.392 8.716L113.972 8.164C114.228 7.908 114.524 7.716 114.86 7.588C115.196 7.46 115.552 7.396 115.928 7.396C116.288 7.396 116.616 7.44 116.912 7.528C117.208 7.616 117.46 7.764 117.668 7.972C117.884 8.172 118.048 8.444 118.16 8.788C118.28 9.132 118.34 9.564 118.34 10.084V13H117.404V12.16C117.3 12.36 117.172 12.524 117.02 12.652C116.876 12.78 116.72 12.88 116.552 12.952C116.384 13.016 116.212 13.06 116.036 13.084C115.86 13.116 115.692 13.132 115.532 13.132ZM119.948 13V12.304H121.568V5.716H120.02V5.02H122.444V12.304H124.052V13H119.948ZM125.948 13V12.304H127.568V5.716H126.02V5.02H128.444V12.304H130.052V13H125.948ZM133.532 13.132C132.908 13.132 132.428 12.992 132.092 12.712C131.756 12.424 131.588 12.06 131.588 11.62C131.588 11.324 131.66 11.06 131.804 10.828C131.948 10.588 132.144 10.388 132.392 10.228C132.648 10.06 132.944 9.932 133.28 9.844C133.616 9.756 133.972 9.712 134.348 9.712C134.484 9.712 134.62 9.716 134.756 9.724C134.9 9.724 135.048 9.732 135.2 9.748C135.36 9.756 135.524 9.772 135.692 9.796L135.716 10.456C135.572 10.432 135.424 10.416 135.272 10.408C135.128 10.392 134.984 10.38 134.84 10.372C134.696 10.364 134.556 10.36 134.42 10.36C134.132 10.36 133.868 10.384 133.628 10.432C133.388 10.48 133.18 10.552 133.004 10.648C132.828 10.744 132.692 10.868 132.596 11.02C132.5 11.172 132.452 11.356 132.452 11.572C132.452 11.74 132.48 11.884 132.536 12.004C132.6 12.116 132.684 12.208 132.788 12.28C132.892 12.344 133.012 12.392 133.148 12.424C133.292 12.456 133.448 12.472 133.616 12.472C133.928 12.472 134.204 12.424 134.444 12.328C134.692 12.224 134.9 12.076 135.068 11.884C135.244 11.692 135.376 11.456 135.464 11.176C135.552 10.896 135.596 10.576 135.596 10.216C135.596 9.672 135.532 9.248 135.404 8.944C135.276 8.64 135.084 8.424 134.828 8.296C134.58 8.168 134.26 8.104 133.868 8.104C133.604 8.104 133.344 8.156 133.088 8.26C132.832 8.356 132.6 8.508 132.392 8.716L131.972 8.164C132.228 7.908 132.524 7.716 132.86 7.588C133.196 7.46 133.552 7.396 133.928 7.396C134.288 7.396 134.616 7.44 134.912 7.528C135.208 7.616 135.46 7.764 135.668 7.972C135.884 8.172 136.048 8.444 136.16 8.788C136.28 9.132 136.34 9.564 136.34 10.084V13H135.404V12.16C135.3 12.36 135.172 12.524 135.02 12.652C134.876 12.78 134.72 12.88 134.552 12.952C134.384 13.016 134.212 13.06 134.036 13.084C133.86 13.116 133.692 13.132 133.532 13.132ZM140.588 13.084C140.236 13.084 139.948 13.024 139.724 12.904C139.5 12.784 139.328 12.6 139.208 12.352C139.088 12.096 139.008 11.776 138.968 11.392C138.936 11.008 138.928 10.552 138.944 10.024L139.088 6.112L139.988 6.004L140.108 5.992L140.12 6.076C140.08 6.132 140.044 6.188 140.012 6.244C139.988 6.3 139.968 6.396 139.952 6.532L139.844 7.888L139.88 8.104L139.796 10.084C139.772 10.692 139.788 11.164 139.844 11.5C139.9 11.828 140 12.056 140.144 12.184C140.288 12.304 140.48 12.364 140.72 12.364C140.984 12.364 141.216 12.312 141.416 12.208C141.624 12.104 141.84 11.972 142.064 11.812L142.328 12.496C142.056 12.696 141.776 12.844 141.488 12.94C141.2 13.036 140.9 13.084 140.588 13.084ZM137.84 7.516H141.788V8.224H137.84V7.516ZM144.2 13V12.304H145.604V8.212H144.272V7.516H146.468V12.304H147.752V13H144.2ZM145.988 6.364C145.82 6.364 145.676 6.304 145.556 6.184C145.436 6.064 145.376 5.92 145.376 5.752C145.376 5.576 145.432 5.428 145.544 5.308C145.664 5.188 145.812 5.128 145.988 5.128C146.156 5.128 146.3 5.192 146.42 5.32C146.548 5.44 146.612 5.584 146.612 5.752C146.612 5.92 146.548 6.064 146.42 6.184C146.3 6.304 146.156 6.364 145.988 6.364ZM152 13.096C151.504 13.096 151.064 12.976 150.68 12.736C150.304 12.488 150.008 12.152 149.792 11.728C149.576 11.296 149.468 10.804 149.468 10.252C149.468 9.692 149.576 9.2 149.792 8.776C150.008 8.344 150.304 8.008 150.68 7.768C151.064 7.52 151.504 7.396 152 7.396C152.496 7.396 152.932 7.52 153.308 7.768C153.692 8.008 153.992 8.344 154.208 8.776C154.424 9.2 154.532 9.692 154.532 10.252C154.532 10.804 154.424 11.296 154.208 11.728C153.992 12.152 153.692 12.488 153.308 12.736C152.932 12.976 152.496 13.096 152 13.096ZM152 12.376C152.32 12.376 152.6 12.284 152.84 12.1C153.08 11.916 153.268 11.664 153.404 11.344C153.548 11.024 153.62 10.656 153.62 10.24C153.62 9.824 153.548 9.456 153.404 9.136C153.268 8.816 153.08 8.568 152.84 8.392C152.6 8.208 152.32 8.116 152 8.116C151.688 8.116 151.408 8.208 151.16 8.392C150.92 8.568 150.728 8.816 150.584 9.136C150.448 9.456 150.38 9.824 150.38 10.24C150.38 10.656 150.448 11.024 150.584 11.344C150.728 11.664 150.92 11.916 151.16 12.1C151.408 12.284 151.688 12.376 152 12.376ZM155.864 13V7.516H156.704V8.488C156.848 8.264 157.016 8.072 157.208 7.912C157.4 7.744 157.612 7.616 157.844 7.528C158.076 7.432 158.316 7.384 158.564 7.384C158.868 7.384 159.14 7.46 159.38 7.612C159.62 7.764 159.812 8.008 159.956 8.344C160.1 8.68 160.172 9.124 160.172 9.676V13H159.332V9.7C159.332 9.316 159.288 9.012 159.2 8.788C159.112 8.556 158.992 8.392 158.84 8.296C158.688 8.192 158.516 8.14 158.324 8.14C158.14 8.14 157.952 8.18 157.76 8.26C157.576 8.34 157.404 8.456 157.244 8.608C157.084 8.752 156.952 8.928 156.848 9.136C156.752 9.344 156.704 9.58 156.704 9.844V13H155.864ZM164.012 13.12C163.708 13.12 163.416 13.088 163.136 13.024C162.864 12.96 162.604 12.864 162.356 12.736C162.116 12.608 161.892 12.448 161.684 12.256L162.164 11.44L162.236 11.332L162.308 11.38C162.324 11.444 162.34 11.512 162.356 11.584C162.38 11.648 162.436 11.728 162.524 11.824C162.692 11.992 162.892 12.132 163.124 12.244C163.364 12.348 163.668 12.4 164.036 12.4C164.332 12.4 164.58 12.364 164.78 12.292C164.988 12.22 165.148 12.12 165.26 11.992C165.372 11.856 165.428 11.7 165.428 11.524C165.428 11.404 165.404 11.3 165.356 11.212C165.308 11.116 165.228 11.028 165.116 10.948C165.012 10.868 164.872 10.788 164.696 10.708C164.52 10.628 164.304 10.548 164.048 10.468C163.632 10.348 163.268 10.208 162.956 10.048C162.644 9.888 162.404 9.704 162.236 9.496C162.068 9.28 161.984 9.036 161.984 8.764C161.984 8.484 162.06 8.244 162.212 8.044C162.364 7.836 162.588 7.676 162.884 7.564C163.188 7.444 163.56 7.384 164 7.384C164.256 7.384 164.488 7.404 164.696 7.444C164.904 7.476 165.096 7.528 165.272 7.6C165.448 7.672 165.608 7.764 165.752 7.876C165.904 7.98 166.048 8.104 166.184 8.248L165.692 8.848L165.608 8.944L165.548 8.884C165.54 8.82 165.52 8.76 165.488 8.704C165.464 8.64 165.408 8.564 165.32 8.476C165.136 8.332 164.928 8.224 164.696 8.152C164.464 8.072 164.24 8.032 164.024 8.032C163.704 8.032 163.428 8.088 163.196 8.2C162.964 8.312 162.848 8.484 162.848 8.716C162.848 8.836 162.888 8.956 162.968 9.076C163.056 9.188 163.212 9.304 163.436 9.424C163.66 9.536 163.98 9.652 164.396 9.772C164.852 9.916 165.216 10.064 165.488 10.216C165.768 10.36 165.968 10.528 166.088 10.72C166.216 10.912 166.28 11.14 166.28 11.404C166.28 11.708 166.196 11.992 166.028 12.256C165.868 12.52 165.62 12.732 165.284 12.892C164.948 13.044 164.524 13.12 164.012 13.12Z" fill="black"/>
</svg>
