<svg width="146" height="28" viewBox="0 0 146 28" fill="none" xmlns="http://www.w3.org/2000/svg">
<path d="M144.507 27.5065H1.7793L19.1667 4.90289C21.0596 2.44204 23.9882 1 27.0929 1L119.193 1.00001C122.298 1.00001 125.226 2.44205 127.119 4.9029L144.507 27.5065Z" fill="black" stroke="black"/>
<path d="M31.1111 17.1421H27.0311L27.3031 15.5741H30.7911L31.1111 17.1421ZM29.1591 12.9821L27.5431 19.0781H25.3031L28.4711 9.11012H29.8311L32.9991 19.0781H30.7271L29.1591 12.9821ZM34.2471 11.5421H36.5671V13.6061L36.3111 13.5421C36.3431 13.2221 36.4231 12.9341 36.5511 12.6781C36.6897 12.4115 36.8657 12.1821 37.0791 11.9901C37.2924 11.7875 37.5271 11.6328 37.7831 11.5261C38.0497 11.4195 38.3217 11.3661 38.5991 11.3661C39.0364 11.3661 39.4257 11.4355 39.7671 11.5741C40.1084 11.7128 40.4284 11.9368 40.7271 12.2461L39.7991 14.1821L39.7511 14.3101L39.5911 14.2461C39.5484 14.1608 39.5164 14.0701 39.4951 13.9741C39.4737 13.8675 39.4044 13.7501 39.2871 13.6221C39.1484 13.5048 38.9884 13.4088 38.8071 13.3341C38.6364 13.2488 38.4444 13.2061 38.2311 13.2061C37.9857 13.2061 37.7564 13.2435 37.5431 13.3181C37.3404 13.3928 37.1644 13.5101 37.0151 13.6701C36.8657 13.8301 36.7484 14.0328 36.6631 14.2781C36.5777 14.5235 36.5351 14.8168 36.5351 15.1581V19.0781H34.2471V11.5421ZM45.5271 19.2701C44.9724 19.2701 44.4551 19.1795 43.9751 18.9981C43.4951 18.8061 43.0737 18.5395 42.7111 18.1981C42.3591 17.8461 42.0817 17.4355 41.8791 16.9661C41.6871 16.4968 41.5911 15.9795 41.5911 15.4141C41.5911 14.8595 41.6871 14.3368 41.8791 13.8461C42.0817 13.3555 42.3591 12.9288 42.7111 12.5661C43.0737 12.1928 43.4951 11.8995 43.9751 11.6861C44.4551 11.4728 44.9777 11.3661 45.5431 11.3661C46.2897 11.3661 46.9297 11.4995 47.4631 11.7661C47.9964 12.0221 48.4177 12.3848 48.7271 12.8541L47.5271 14.2141L47.4311 14.3261L47.2871 14.2141C47.2764 14.1288 47.2657 14.0381 47.2551 13.9421C47.2444 13.8461 47.1857 13.7288 47.0791 13.5901C46.8977 13.4088 46.6897 13.2861 46.4551 13.2221C46.2204 13.1581 45.9537 13.1261 45.6551 13.1261C45.4204 13.1261 45.1964 13.1795 44.9831 13.2861C44.7697 13.3821 44.5777 13.5261 44.4071 13.7181C44.2364 13.9101 44.1031 14.1501 44.0071 14.4381C43.9111 14.7261 43.8631 15.0621 43.8631 15.4461C43.8631 15.7768 43.9111 16.0755 44.0071 16.3421C44.1137 16.5981 44.2471 16.8115 44.4071 16.9821C44.5777 17.1528 44.7644 17.2861 44.9671 17.3821C45.1804 17.4675 45.3937 17.5101 45.6071 17.5101C45.8204 17.5101 46.0284 17.4835 46.2311 17.4301C46.4444 17.3768 46.6524 17.2861 46.8551 17.1581C47.0684 17.0195 47.2711 16.8275 47.4631 16.5821L48.6791 17.9741C48.2631 18.4435 47.7671 18.7795 47.1911 18.9821C46.6151 19.1741 46.0604 19.2701 45.5271 19.2701ZM49.8311 8.27812H52.1031H52.2471V8.45412C52.1937 8.51812 52.1564 8.58746 52.1351 8.66212C52.1244 8.73679 52.1191 8.86479 52.1191 9.04612V12.3101C52.2897 12.0755 52.4871 11.8941 52.7111 11.7661C52.9351 11.6275 53.1697 11.5261 53.4151 11.4621C53.6711 11.3981 53.9164 11.3661 54.1511 11.3661C54.6631 11.3661 55.1004 11.4781 55.4631 11.7021C55.8364 11.9155 56.1244 12.2568 56.3271 12.7261C56.5297 13.1955 56.6311 13.8035 56.6311 14.5501V19.0781H54.3591V14.5661C54.3591 14.1821 54.3271 13.8781 54.2631 13.6541C54.1991 13.4195 54.1031 13.2541 53.9751 13.1581C53.8577 13.0621 53.7031 13.0141 53.5111 13.0141C53.3297 13.0141 53.1644 13.0408 53.0151 13.0941C52.8764 13.1475 52.7484 13.2221 52.6311 13.3181C52.5244 13.4141 52.4284 13.5368 52.3431 13.6861C52.2684 13.8248 52.2097 13.9848 52.1671 14.1661C52.1351 14.3475 52.1191 14.5448 52.1191 14.7581V19.0781H49.8311V8.27812ZM58.3271 19.0781V17.3181H60.1191V13.3021H58.4071V11.5421H62.3911V17.3181H64.0231V19.0781H58.3271ZM61.1431 10.5181C60.7697 10.5181 60.4497 10.3955 60.1831 10.1501C59.9271 9.89412 59.7991 9.59546 59.7991 9.25412C59.7991 8.88079 59.9217 8.57679 60.1671 8.34212C60.4231 8.10746 60.7484 7.99012 61.1431 7.99012C61.4951 7.99012 61.8044 8.11812 62.0711 8.37412C62.3484 8.61946 62.4871 8.91279 62.4871 9.25412C62.4871 9.59546 62.3484 9.89412 62.0711 10.1501C61.8044 10.3955 61.4951 10.5181 61.1431 10.5181ZM69.9271 19.2701C69.5324 19.2701 69.1697 19.2061 68.8391 19.0781C68.5084 18.9608 68.2257 18.7581 67.9911 18.4701C67.7564 18.1715 67.5804 17.7661 67.4631 17.2541C67.3457 16.7421 67.3031 16.0915 67.3351 15.3021L67.5591 9.86212L69.8631 9.55812L70.0071 9.54212L70.0231 9.71812C69.9804 9.79279 69.9377 9.86746 69.8951 9.94212C69.8524 10.0168 69.8257 10.1448 69.8151 10.3261L69.6231 12.7901H69.7191L69.5911 15.1901C69.5591 15.7981 69.5804 16.2728 69.6551 16.6141C69.7404 16.9448 69.8577 17.1741 70.0071 17.3021C70.1671 17.4301 70.3324 17.4941 70.5031 17.4941C70.8337 17.4941 71.1324 17.4248 71.3991 17.2861C71.6764 17.1475 71.9164 16.9928 72.1191 16.8221L72.5031 18.4061C72.1404 18.6728 71.7457 18.8861 71.3191 19.0461C70.9031 19.1955 70.4391 19.2701 69.9271 19.2701ZM65.9591 11.5421H72.0071L71.9751 13.3021H65.9271L65.9591 11.5421ZM77.4631 19.2701C76.9297 19.2701 76.4284 19.1848 75.9591 19.0141C75.5004 18.8328 75.0951 18.5768 74.7431 18.2461C74.4017 17.9155 74.1351 17.5101 73.9431 17.0301C73.7511 16.5395 73.6551 15.9901 73.6551 15.3821C73.6551 14.7635 73.7457 14.2088 73.9271 13.7181C74.1191 13.2168 74.3751 12.7955 74.6951 12.4541C75.0257 12.1021 75.4097 11.8355 75.8471 11.6541C76.2844 11.4621 76.7591 11.3661 77.2711 11.3661C77.7084 11.3661 78.1244 11.4461 78.5191 11.6061C78.9244 11.7661 79.2817 12.0061 79.5911 12.3261C79.9004 12.6355 80.1457 13.0248 80.3271 13.4941C80.5084 13.9528 80.5991 14.4808 80.5991 15.0781C80.5991 15.2061 80.5991 15.3661 80.5991 15.5581C80.5991 15.7501 80.5937 15.9048 80.5831 16.0221H75.8311C75.8524 16.2888 75.9164 16.5181 76.0231 16.7101C76.1297 16.8915 76.2631 17.0461 76.4231 17.1741C76.5937 17.2915 76.7751 17.3821 76.9671 17.4461C77.1697 17.4995 77.3724 17.5261 77.5751 17.5261C77.7884 17.5261 77.9911 17.5101 78.1831 17.4781C78.3751 17.4461 78.5617 17.3875 78.7431 17.3021C78.9244 17.2061 79.1004 17.0728 79.2711 16.9021L80.3911 17.9901C80.1351 18.2888 79.8524 18.5341 79.5431 18.7261C79.2337 18.9181 78.9031 19.0568 78.5511 19.1421C78.1991 19.2275 77.8364 19.2701 77.4631 19.2701ZM75.8471 14.3581H78.4551C78.4551 14.1448 78.4284 13.9635 78.3751 13.8141C78.3217 13.6541 78.2417 13.5261 78.1351 13.4301C78.0284 13.3235 77.8951 13.2488 77.7351 13.2061C77.5751 13.1528 77.3937 13.1261 77.1911 13.1261C77.0097 13.1261 76.8391 13.1528 76.6791 13.2061C76.5297 13.2488 76.3964 13.3235 76.2791 13.4301C76.1617 13.5261 76.0657 13.6541 75.9911 13.8141C75.9164 13.9635 75.8684 14.1448 75.8471 14.3581ZM85.5271 19.2701C84.9724 19.2701 84.4551 19.1795 83.9751 18.9981C83.4951 18.8061 83.0737 18.5395 82.7111 18.1981C82.3591 17.8461 82.0817 17.4355 81.8791 16.9661C81.6871 16.4968 81.5911 15.9795 81.5911 15.4141C81.5911 14.8595 81.6871 14.3368 81.8791 13.8461C82.0817 13.3555 82.3591 12.9288 82.7111 12.5661C83.0737 12.1928 83.4951 11.8995 83.9751 11.6861C84.4551 11.4728 84.9777 11.3661 85.5431 11.3661C86.2897 11.3661 86.9297 11.4995 87.4631 11.7661C87.9964 12.0221 88.4177 12.3848 88.7271 12.8541L87.5271 14.2141L87.4311 14.3261L87.2871 14.2141C87.2764 14.1288 87.2657 14.0381 87.2551 13.9421C87.2444 13.8461 87.1857 13.7288 87.0791 13.5901C86.8977 13.4088 86.6897 13.2861 86.4551 13.2221C86.2204 13.1581 85.9537 13.1261 85.6551 13.1261C85.4204 13.1261 85.1964 13.1795 84.9831 13.2861C84.7697 13.3821 84.5777 13.5261 84.4071 13.7181C84.2364 13.9101 84.1031 14.1501 84.0071 14.4381C83.9111 14.7261 83.8631 15.0621 83.8631 15.4461C83.8631 15.7768 83.9111 16.0755 84.0071 16.3421C84.1137 16.5981 84.2471 16.8115 84.4071 16.9821C84.5777 17.1528 84.7644 17.2861 84.9671 17.3821C85.1804 17.4675 85.3937 17.5101 85.6071 17.5101C85.8204 17.5101 86.0284 17.4835 86.2311 17.4301C86.4444 17.3768 86.6524 17.2861 86.8551 17.1581C87.0684 17.0195 87.2711 16.8275 87.4631 16.5821L88.6791 17.9741C88.2631 18.4435 87.7671 18.7795 87.1911 18.9821C86.6151 19.1741 86.0604 19.2701 85.5271 19.2701ZM93.9271 19.2701C93.5324 19.2701 93.1697 19.2061 92.8391 19.0781C92.5084 18.9608 92.2257 18.7581 91.9911 18.4701C91.7564 18.1715 91.5804 17.7661 91.4631 17.2541C91.3457 16.7421 91.3031 16.0915 91.3351 15.3021L91.5591 9.86212L93.8631 9.55812L94.0071 9.54212L94.0231 9.71812C93.9804 9.79279 93.9377 9.86746 93.8951 9.94212C93.8524 10.0168 93.8257 10.1448 93.8151 10.3261L93.6231 12.7901H93.7191L93.5911 15.1901C93.5591 15.7981 93.5804 16.2728 93.6551 16.6141C93.7404 16.9448 93.8577 17.1741 94.0071 17.3021C94.1671 17.4301 94.3324 17.4941 94.5031 17.4941C94.8337 17.4941 95.1324 17.4248 95.3991 17.2861C95.6764 17.1475 95.9164 16.9928 96.1191 16.8221L96.5031 18.4061C96.1404 18.6728 95.7457 18.8861 95.3191 19.0461C94.9031 19.1955 94.4391 19.2701 93.9271 19.2701ZM89.9591 11.5421H96.0071L95.9751 13.3021H89.9271L89.9591 11.5421ZM100.439 19.2701C100.13 19.2701 99.8364 19.2328 99.5591 19.1581C99.2924 19.0835 99.0471 18.9661 98.8231 18.8061C98.6097 18.6461 98.4231 18.4435 98.2631 18.1981C98.1031 17.9528 97.9804 17.6595 97.8951 17.3181C97.8097 16.9661 97.7671 16.5661 97.7671 16.1181V11.5421H100.039V16.1181C100.039 16.3635 100.055 16.5715 100.087 16.7421C100.13 16.9128 100.188 17.0568 100.263 17.1741C100.338 17.2808 100.423 17.3608 100.519 17.4141C100.626 17.4568 100.738 17.4781 100.855 17.4781C101.058 17.4781 101.234 17.4461 101.383 17.3821C101.543 17.3181 101.671 17.2221 101.767 17.0941C101.874 16.9555 101.948 16.7901 101.991 16.5981C102.044 16.4061 102.071 16.1821 102.071 15.9261V11.5421H104.359V17.8621C104.359 18.1181 104.364 18.3421 104.375 18.5341C104.396 18.7155 104.444 18.8968 104.519 19.0781H102.487C102.434 18.9821 102.396 18.8861 102.375 18.7901C102.354 18.6941 102.338 18.5981 102.327 18.5021C102.327 18.4061 102.327 18.3101 102.327 18.2141C102.22 18.3955 102.092 18.5555 101.943 18.6941C101.804 18.8221 101.65 18.9288 101.479 19.0141C101.319 19.0995 101.148 19.1635 100.967 19.2061C100.796 19.2488 100.62 19.2701 100.439 19.2701ZM106.247 11.5421H108.567V13.6061L108.311 13.5421C108.343 13.2221 108.423 12.9341 108.551 12.6781C108.69 12.4115 108.866 12.1821 109.079 11.9901C109.292 11.7875 109.527 11.6328 109.783 11.5261C110.05 11.4195 110.322 11.3661 110.599 11.3661C111.036 11.3661 111.426 11.4355 111.767 11.5741C112.108 11.7128 112.428 11.9368 112.727 12.2461L111.799 14.1821L111.751 14.3101L111.591 14.2461C111.548 14.1608 111.516 14.0701 111.495 13.9741C111.474 13.8675 111.404 13.7501 111.287 13.6221C111.148 13.5048 110.988 13.4088 110.807 13.3341C110.636 13.2488 110.444 13.2061 110.231 13.2061C109.986 13.2061 109.756 13.2435 109.543 13.3181C109.34 13.3928 109.164 13.5101 109.015 13.6701C108.866 13.8301 108.748 14.0328 108.663 14.2781C108.578 14.5235 108.535 14.8168 108.535 15.1581V19.0781H106.247V11.5421ZM117.463 19.2701C116.93 19.2701 116.428 19.1848 115.959 19.0141C115.5 18.8328 115.095 18.5768 114.743 18.2461C114.402 17.9155 114.135 17.5101 113.943 17.0301C113.751 16.5395 113.655 15.9901 113.655 15.3821C113.655 14.7635 113.746 14.2088 113.927 13.7181C114.119 13.2168 114.375 12.7955 114.695 12.4541C115.026 12.1021 115.41 11.8355 115.847 11.6541C116.284 11.4621 116.759 11.3661 117.271 11.3661C117.708 11.3661 118.124 11.4461 118.519 11.6061C118.924 11.7661 119.282 12.0061 119.591 12.3261C119.9 12.6355 120.146 13.0248 120.327 13.4941C120.508 13.9528 120.599 14.4808 120.599 15.0781C120.599 15.2061 120.599 15.3661 120.599 15.5581C120.599 15.7501 120.594 15.9048 120.583 16.0221H115.831C115.852 16.2888 115.916 16.5181 116.023 16.7101C116.13 16.8915 116.263 17.0461 116.423 17.1741C116.594 17.2915 116.775 17.3821 116.967 17.4461C117.17 17.4995 117.372 17.5261 117.575 17.5261C117.788 17.5261 117.991 17.5101 118.183 17.4781C118.375 17.4461 118.562 17.3875 118.743 17.3021C118.924 17.2061 119.1 17.0728 119.271 16.9021L120.391 17.9901C120.135 18.2888 119.852 18.5341 119.543 18.7261C119.234 18.9181 118.903 19.0568 118.551 19.1421C118.199 19.2275 117.836 19.2701 117.463 19.2701ZM115.847 14.3581H118.455C118.455 14.1448 118.428 13.9635 118.375 13.8141C118.322 13.6541 118.242 13.5261 118.135 13.4301C118.028 13.3235 117.895 13.2488 117.735 13.2061C117.575 13.1528 117.394 13.1261 117.191 13.1261C117.01 13.1261 116.839 13.1528 116.679 13.2061C116.53 13.2488 116.396 13.3235 116.279 13.4301C116.162 13.5261 116.066 13.6541 115.991 13.8141C115.916 13.9635 115.868 14.1448 115.847 14.3581Z" fill="white"/>
</svg>
