<svg width="176" height="20" viewBox="0 0 176 20" fill="none" xmlns="http://www.w3.org/2000/svg">
<rect x="0.5" y="0.5" width="175" height="19" fill="black" stroke="black"/>
<path d="M8.476 11.548H5.416L5.62 10.372H8.236L8.476 11.548ZM7.012 8.428L5.8 13H4.12L6.496 5.524H7.516L9.892 13H8.188L7.012 8.428ZM10.828 7.348H12.568V8.896L12.376 8.848C12.4 8.608 12.46 8.392 12.556 8.2C12.66 8 12.792 7.828 12.952 7.684C13.112 7.532 13.288 7.416 13.48 7.336C13.68 7.256 13.884 7.216 14.092 7.216C14.42 7.216 14.712 7.268 14.968 7.372C15.224 7.476 15.464 7.644 15.688 7.876L14.992 9.328L14.956 9.424L14.836 9.376C14.804 9.312 14.78 9.244 14.764 9.172C14.748 9.092 14.696 9.004 14.608 8.908C14.504 8.82 14.384 8.748 14.248 8.692C14.12 8.628 13.976 8.596 13.816 8.596C13.632 8.596 13.46 8.624 13.3 8.68C13.148 8.736 13.016 8.824 12.904 8.944C12.792 9.064 12.704 9.216 12.64 9.4C12.576 9.584 12.544 9.804 12.544 10.06V13H10.828V7.348ZM19.288 13.144C18.872 13.144 18.484 13.076 18.124 12.94C17.764 12.796 17.448 12.596 17.176 12.34C16.912 12.076 16.704 11.768 16.552 11.416C16.408 11.064 16.336 10.676 16.336 10.252C16.336 9.836 16.408 9.444 16.552 9.076C16.704 8.708 16.912 8.388 17.176 8.116C17.448 7.836 17.764 7.616 18.124 7.456C18.484 7.296 18.876 7.216 19.3 7.216C19.86 7.216 20.34 7.316 20.74 7.516C21.14 7.708 21.456 7.98 21.688 8.332L20.788 9.352L20.716 9.436L20.608 9.352C20.6 9.288 20.592 9.22 20.584 9.148C20.576 9.076 20.532 8.988 20.452 8.884C20.316 8.748 20.16 8.656 19.984 8.608C19.808 8.56 19.608 8.536 19.384 8.536C19.208 8.536 19.04 8.576 18.88 8.656C18.72 8.728 18.576 8.836 18.448 8.98C18.32 9.124 18.22 9.304 18.148 9.52C18.076 9.736 18.04 9.988 18.04 10.276C18.04 10.524 18.076 10.748 18.148 10.948C18.228 11.14 18.328 11.3 18.448 11.428C18.576 11.556 18.716 11.656 18.868 11.728C19.028 11.792 19.188 11.824 19.348 11.824C19.508 11.824 19.664 11.804 19.816 11.764C19.976 11.724 20.132 11.656 20.284 11.56C20.444 11.456 20.596 11.312 20.74 11.128L21.652 12.172C21.34 12.524 20.968 12.776 20.536 12.928C20.104 13.072 19.688 13.144 19.288 13.144ZM22.516 4.9H24.22H24.328V5.032C24.288 5.08 24.26 5.132 24.244 5.188C24.236 5.244 24.232 5.34 24.232 5.476V7.924C24.36 7.748 24.508 7.612 24.676 7.516C24.844 7.412 25.02 7.336 25.204 7.288C25.396 7.24 25.58 7.216 25.756 7.216C26.14 7.216 26.468 7.3 26.74 7.468C27.02 7.628 27.236 7.884 27.388 8.236C27.54 8.588 27.616 9.044 27.616 9.604V13H25.912V9.616C25.912 9.328 25.888 9.1 25.84 8.932C25.792 8.756 25.72 8.632 25.624 8.56C25.536 8.488 25.42 8.452 25.276 8.452C25.14 8.452 25.016 8.472 24.904 8.512C24.8 8.552 24.704 8.608 24.616 8.68C24.536 8.752 24.464 8.844 24.4 8.956C24.344 9.06 24.3 9.18 24.268 9.316C24.244 9.452 24.232 9.6 24.232 9.76V13H22.516V4.9ZM28.888 13V11.68H30.232V8.668H28.948V7.348H31.936V11.68H33.16V13H28.888ZM31 6.58C30.72 6.58 30.48 6.488 30.28 6.304C30.088 6.112 29.992 5.888 29.992 5.632C29.992 5.352 30.084 5.124 30.268 4.948C30.46 4.772 30.704 4.684 31 4.684C31.264 4.684 31.496 4.78 31.696 4.972C31.904 5.156 32.008 5.376 32.008 5.632C32.008 5.888 31.904 6.112 31.696 6.304C31.496 6.488 31.264 6.58 31 6.58ZM37.588 13.144C37.292 13.144 37.02 13.096 36.772 13C36.524 12.912 36.312 12.76 36.136 12.544C35.96 12.32 35.828 12.016 35.74 11.632C35.652 11.248 35.62 10.76 35.644 10.168L35.812 6.088L37.54 5.86L37.648 5.848L37.66 5.98C37.628 6.036 37.596 6.092 37.564 6.148C37.532 6.204 37.512 6.3 37.504 6.436L37.36 8.284H37.432L37.336 10.084C37.312 10.54 37.328 10.896 37.384 11.152C37.448 11.4 37.536 11.572 37.648 11.668C37.768 11.764 37.892 11.812 38.02 11.812C38.268 11.812 38.492 11.76 38.692 11.656C38.9 11.552 39.08 11.436 39.232 11.308L39.52 12.496C39.248 12.696 38.952 12.856 38.632 12.976C38.32 13.088 37.972 13.144 37.588 13.144ZM34.612 7.348H39.148L39.124 8.668H34.588L34.612 7.348ZM43.24 13.144C42.84 13.144 42.464 13.08 42.112 12.952C41.768 12.816 41.464 12.624 41.2 12.376C40.944 12.128 40.744 11.824 40.6 11.464C40.456 11.096 40.384 10.684 40.384 10.228C40.384 9.764 40.452 9.348 40.588 8.98C40.732 8.604 40.924 8.288 41.164 8.032C41.412 7.768 41.7 7.568 42.028 7.432C42.356 7.288 42.712 7.216 43.096 7.216C43.424 7.216 43.736 7.276 44.032 7.396C44.336 7.516 44.604 7.696 44.836 7.936C45.068 8.168 45.252 8.46 45.388 8.812C45.524 9.156 45.592 9.552 45.592 10C45.592 10.096 45.592 10.216 45.592 10.36C45.592 10.504 45.588 10.62 45.58 10.708H42.016C42.032 10.908 42.08 11.08 42.16 11.224C42.24 11.36 42.34 11.476 42.46 11.572C42.588 11.66 42.724 11.728 42.868 11.776C43.02 11.816 43.172 11.836 43.324 11.836C43.484 11.836 43.636 11.824 43.78 11.8C43.924 11.776 44.064 11.732 44.2 11.668C44.336 11.596 44.468 11.496 44.596 11.368L45.436 12.184C45.244 12.408 45.032 12.592 44.8 12.736C44.568 12.88 44.32 12.984 44.056 13.048C43.792 13.112 43.52 13.144 43.24 13.144ZM42.028 9.46H43.984C43.984 9.3 43.964 9.164 43.924 9.052C43.884 8.932 43.824 8.836 43.744 8.764C43.664 8.684 43.564 8.628 43.444 8.596C43.324 8.556 43.188 8.536 43.036 8.536C42.9 8.536 42.772 8.556 42.652 8.596C42.54 8.628 42.44 8.684 42.352 8.764C42.264 8.836 42.192 8.932 42.136 9.052C42.08 9.164 42.044 9.3 42.028 9.46ZM49.288 13.144C48.872 13.144 48.484 13.076 48.124 12.94C47.764 12.796 47.448 12.596 47.176 12.34C46.912 12.076 46.704 11.768 46.552 11.416C46.408 11.064 46.336 10.676 46.336 10.252C46.336 9.836 46.408 9.444 46.552 9.076C46.704 8.708 46.912 8.388 47.176 8.116C47.448 7.836 47.764 7.616 48.124 7.456C48.484 7.296 48.876 7.216 49.3 7.216C49.86 7.216 50.34 7.316 50.74 7.516C51.14 7.708 51.456 7.98 51.688 8.332L50.788 9.352L50.716 9.436L50.608 9.352C50.6 9.288 50.592 9.22 50.584 9.148C50.576 9.076 50.532 8.988 50.452 8.884C50.316 8.748 50.16 8.656 49.984 8.608C49.808 8.56 49.608 8.536 49.384 8.536C49.208 8.536 49.04 8.576 48.88 8.656C48.72 8.728 48.576 8.836 48.448 8.98C48.32 9.124 48.22 9.304 48.148 9.52C48.076 9.736 48.04 9.988 48.04 10.276C48.04 10.524 48.076 10.748 48.148 10.948C48.228 11.14 48.328 11.3 48.448 11.428C48.576 11.556 48.716 11.656 48.868 11.728C49.028 11.792 49.188 11.824 49.348 11.824C49.508 11.824 49.664 11.804 49.816 11.764C49.976 11.724 50.132 11.656 50.284 11.56C50.444 11.456 50.596 11.312 50.74 11.128L51.652 12.172C51.34 12.524 50.968 12.776 50.536 12.928C50.104 13.072 49.688 13.144 49.288 13.144ZM55.588 13.144C55.292 13.144 55.02 13.096 54.772 13C54.524 12.912 54.312 12.76 54.136 12.544C53.96 12.32 53.828 12.016 53.74 11.632C53.652 11.248 53.62 10.76 53.644 10.168L53.812 6.088L55.54 5.86L55.648 5.848L55.66 5.98C55.628 6.036 55.596 6.092 55.564 6.148C55.532 6.204 55.512 6.3 55.504 6.436L55.36 8.284H55.432L55.336 10.084C55.312 10.54 55.328 10.896 55.384 11.152C55.448 11.4 55.536 11.572 55.648 11.668C55.768 11.764 55.892 11.812 56.02 11.812C56.268 11.812 56.492 11.76 56.692 11.656C56.9 11.552 57.08 11.436 57.232 11.308L57.52 12.496C57.248 12.696 56.952 12.856 56.632 12.976C56.32 13.088 55.972 13.144 55.588 13.144ZM52.612 7.348H57.148L57.124 8.668H52.588L52.612 7.348ZM60.472 13.144C60.24 13.144 60.02 13.116 59.812 13.06C59.612 13.004 59.428 12.916 59.26 12.796C59.1 12.676 58.96 12.524 58.84 12.34C58.72 12.156 58.628 11.936 58.564 11.68C58.5 11.416 58.468 11.116 58.468 10.78V7.348H60.172V10.78C60.172 10.964 60.184 11.12 60.208 11.248C60.24 11.376 60.284 11.484 60.34 11.572C60.396 11.652 60.46 11.712 60.532 11.752C60.612 11.784 60.696 11.8 60.784 11.8C60.936 11.8 61.068 11.776 61.18 11.728C61.3 11.68 61.396 11.608 61.468 11.512C61.548 11.408 61.604 11.284 61.636 11.14C61.676 10.996 61.696 10.828 61.696 10.636V7.348H63.412V12.088C63.412 12.28 63.416 12.448 63.424 12.592C63.44 12.728 63.476 12.864 63.532 13H62.008C61.968 12.928 61.94 12.856 61.924 12.784C61.908 12.712 61.896 12.64 61.888 12.568C61.888 12.496 61.888 12.424 61.888 12.352C61.808 12.488 61.712 12.608 61.6 12.712C61.496 12.808 61.38 12.888 61.252 12.952C61.132 13.016 61.004 13.064 60.868 13.096C60.74 13.128 60.608 13.144 60.472 13.144ZM64.828 7.348H66.568V8.896L66.376 8.848C66.4 8.608 66.46 8.392 66.556 8.2C66.66 8 66.792 7.828 66.952 7.684C67.112 7.532 67.288 7.416 67.48 7.336C67.68 7.256 67.884 7.216 68.092 7.216C68.42 7.216 68.712 7.268 68.968 7.372C69.224 7.476 69.464 7.644 69.688 7.876L68.992 9.328L68.956 9.424L68.836 9.376C68.804 9.312 68.78 9.244 68.764 9.172C68.748 9.092 68.696 9.004 68.608 8.908C68.504 8.82 68.384 8.748 68.248 8.692C68.12 8.628 67.976 8.596 67.816 8.596C67.632 8.596 67.46 8.624 67.3 8.68C67.148 8.736 67.016 8.824 66.904 8.944C66.792 9.064 66.704 9.216 66.64 9.4C66.576 9.584 66.544 9.804 66.544 10.06V13H64.828V7.348ZM72.268 13.144C71.66 13.144 71.184 13 70.84 12.712C70.496 12.416 70.324 12.028 70.324 11.548C70.324 11.244 70.388 10.964 70.516 10.708C70.644 10.444 70.844 10.216 71.116 10.024C71.388 9.824 71.736 9.668 72.16 9.556C72.584 9.444 73.092 9.388 73.684 9.388C73.708 9.388 73.752 9.388 73.816 9.388C73.88 9.388 73.952 9.388 74.032 9.388C74.112 9.388 74.18 9.388 74.236 9.388L74.284 10.516C74.236 10.516 74.168 10.516 74.08 10.516C73.992 10.516 73.9 10.52 73.804 10.528C73.716 10.528 73.648 10.528 73.6 10.528C73.256 10.528 72.98 10.552 72.772 10.6C72.564 10.64 72.404 10.7 72.292 10.78C72.188 10.852 72.116 10.936 72.076 11.032C72.036 11.12 72.016 11.208 72.016 11.296C72.016 11.392 72.032 11.476 72.064 11.548C72.096 11.62 72.14 11.676 72.196 11.716C72.252 11.756 72.32 11.788 72.4 11.812C72.48 11.828 72.564 11.836 72.652 11.836C72.844 11.836 73.008 11.804 73.144 11.74C73.28 11.676 73.392 11.572 73.48 11.428C73.576 11.276 73.644 11.084 73.684 10.852C73.732 10.62 73.756 10.336 73.756 10C73.756 9.592 73.716 9.28 73.636 9.064C73.564 8.848 73.456 8.704 73.312 8.632C73.176 8.552 73.008 8.512 72.808 8.512C72.56 8.512 72.332 8.548 72.124 8.62C71.916 8.684 71.696 8.836 71.464 9.076L70.504 8.092C70.864 7.764 71.248 7.536 71.656 7.408C72.072 7.28 72.476 7.216 72.868 7.216C73.212 7.216 73.536 7.256 73.84 7.336C74.152 7.408 74.428 7.532 74.668 7.708C74.916 7.884 75.108 8.128 75.244 8.44C75.388 8.744 75.46 9.128 75.46 9.592V13H73.744V12.556C73.64 12.652 73.536 12.74 73.432 12.82C73.336 12.892 73.228 12.952 73.108 13C72.996 13.048 72.872 13.084 72.736 13.108C72.6 13.132 72.444 13.144 72.268 13.144ZM76.624 13V11.68H78.16V6.22H76.696V4.9H79.864V11.68H81.388V13H76.624ZM88.408 13V5.524H90.46C90.908 5.524 91.284 5.564 91.588 5.644C91.892 5.724 92.152 5.844 92.368 6.004C92.584 6.156 92.776 6.344 92.944 6.568C93.112 6.792 93.256 7.048 93.376 7.336C93.504 7.616 93.6 7.92 93.664 8.248C93.736 8.576 93.772 8.932 93.772 9.316C93.772 9.884 93.704 10.396 93.568 10.852C93.432 11.3 93.224 11.684 92.944 12.004C92.664 12.324 92.304 12.572 91.864 12.748C91.432 12.916 90.916 13 90.316 13H88.408ZM90.076 11.668H90.292C90.764 11.668 91.132 11.564 91.396 11.356C91.668 11.148 91.856 10.868 91.96 10.516C92.072 10.156 92.128 9.756 92.128 9.316C92.128 8.828 92.08 8.4 91.984 8.032C91.896 7.664 91.728 7.376 91.48 7.168C91.232 6.952 90.876 6.844 90.412 6.844H90.076V11.668ZM97.24 13.144C96.84 13.144 96.464 13.08 96.112 12.952C95.768 12.816 95.464 12.624 95.2 12.376C94.944 12.128 94.744 11.824 94.6 11.464C94.456 11.096 94.384 10.684 94.384 10.228C94.384 9.764 94.452 9.348 94.588 8.98C94.732 8.604 94.924 8.288 95.164 8.032C95.412 7.768 95.7 7.568 96.028 7.432C96.356 7.288 96.712 7.216 97.096 7.216C97.424 7.216 97.736 7.276 98.032 7.396C98.336 7.516 98.604 7.696 98.836 7.936C99.068 8.168 99.252 8.46 99.388 8.812C99.524 9.156 99.592 9.552 99.592 10C99.592 10.096 99.592 10.216 99.592 10.36C99.592 10.504 99.588 10.62 99.58 10.708H96.016C96.032 10.908 96.08 11.08 96.16 11.224C96.24 11.36 96.34 11.476 96.46 11.572C96.588 11.66 96.724 11.728 96.868 11.776C97.02 11.816 97.172 11.836 97.324 11.836C97.484 11.836 97.636 11.824 97.78 11.8C97.924 11.776 98.064 11.732 98.2 11.668C98.336 11.596 98.468 11.496 98.596 11.368L99.436 12.184C99.244 12.408 99.032 12.592 98.8 12.736C98.568 12.88 98.32 12.984 98.056 13.048C97.792 13.112 97.52 13.144 97.24 13.144ZM96.028 9.46H97.984C97.984 9.3 97.964 9.164 97.924 9.052C97.884 8.932 97.824 8.836 97.744 8.764C97.664 8.684 97.564 8.628 97.444 8.596C97.324 8.556 97.188 8.536 97.036 8.536C96.9 8.536 96.772 8.556 96.652 8.596C96.54 8.628 96.44 8.684 96.352 8.764C96.264 8.836 96.192 8.932 96.136 9.052C96.08 9.164 96.044 9.3 96.028 9.46ZM103.18 13.144C102.812 13.144 102.46 13.112 102.124 13.048C101.796 12.992 101.492 12.9 101.212 12.772C100.932 12.636 100.676 12.46 100.444 12.244L101.116 10.948L101.164 10.852L101.272 10.912C101.296 10.968 101.32 11.032 101.344 11.104C101.376 11.168 101.44 11.244 101.536 11.332C101.76 11.5 102.004 11.628 102.268 11.716C102.54 11.804 102.848 11.848 103.192 11.848C103.368 11.848 103.516 11.828 103.636 11.788C103.764 11.748 103.86 11.696 103.924 11.632C103.996 11.56 104.032 11.484 104.032 11.404C104.032 11.324 104.004 11.256 103.948 11.2C103.9 11.144 103.824 11.096 103.72 11.056C103.624 11.008 103.496 10.96 103.336 10.912C103.176 10.864 102.988 10.812 102.772 10.756C102.372 10.652 102.024 10.524 101.728 10.372C101.44 10.22 101.216 10.032 101.056 9.808C100.896 9.576 100.816 9.3 100.816 8.98C100.816 8.652 100.916 8.356 101.116 8.092C101.316 7.828 101.588 7.616 101.932 7.456C102.284 7.296 102.684 7.216 103.132 7.216C103.348 7.216 103.56 7.236 103.768 7.276C103.984 7.308 104.188 7.36 104.38 7.432C104.572 7.496 104.756 7.584 104.932 7.696C105.108 7.8 105.272 7.924 105.424 8.068L104.644 9.208L104.572 9.304L104.464 9.22C104.456 9.156 104.436 9.096 104.404 9.04C104.38 8.984 104.32 8.912 104.224 8.824C104.072 8.72 103.904 8.648 103.72 8.608C103.544 8.56 103.356 8.536 103.156 8.536C102.924 8.536 102.72 8.572 102.544 8.644C102.368 8.716 102.28 8.824 102.28 8.968C102.28 9.064 102.328 9.144 102.424 9.208C102.52 9.272 102.66 9.332 102.844 9.388C103.036 9.436 103.272 9.492 103.552 9.556C104 9.652 104.368 9.784 104.656 9.952C104.944 10.112 105.156 10.308 105.292 10.54C105.436 10.772 105.508 11.04 105.508 11.344C105.508 11.664 105.416 11.964 105.232 12.244C105.048 12.516 104.78 12.736 104.428 12.904C104.084 13.064 103.668 13.144 103.18 13.144ZM106.888 13V11.68H108.232V8.668H106.948V7.348H109.936V11.68H111.16V13H106.888ZM109 6.58C108.72 6.58 108.48 6.488 108.28 6.304C108.088 6.112 107.992 5.888 107.992 5.632C107.992 5.352 108.084 5.124 108.268 4.948C108.46 4.772 108.704 4.684 109 4.684C109.264 4.684 109.496 4.78 109.696 4.972C109.904 5.156 110.008 5.376 110.008 5.632C110.008 5.888 109.904 6.112 109.696 6.304C109.496 6.488 109.264 6.58 109 6.58ZM114.796 15.196C114.396 15.196 114.036 15.156 113.716 15.076C113.404 15.004 113.14 14.9 112.924 14.764C112.708 14.628 112.544 14.468 112.432 14.284C112.32 14.1 112.264 13.904 112.264 13.696C112.264 13.52 112.312 13.352 112.408 13.192C112.504 13.032 112.636 12.888 112.804 12.76C112.972 12.624 113.156 12.516 113.356 12.436L114.136 12.712C114.048 12.784 113.948 12.856 113.836 12.928C113.732 12.992 113.644 13.06 113.572 13.132C113.5 13.212 113.464 13.304 113.464 13.408C113.464 13.496 113.504 13.568 113.584 13.624C113.664 13.688 113.772 13.736 113.908 13.768C114.052 13.808 114.212 13.836 114.388 13.852C114.572 13.868 114.768 13.876 114.976 13.876C115.24 13.876 115.468 13.856 115.66 13.816C115.86 13.776 116.012 13.716 116.116 13.636C116.228 13.556 116.284 13.464 116.284 13.36C116.284 13.272 116.252 13.204 116.188 13.156C116.124 13.108 116.02 13.072 115.876 13.048C115.732 13.032 115.544 13.024 115.312 13.024C115.064 13.024 114.808 13.016 114.544 13C114.288 12.976 114.04 12.936 113.8 12.88C113.56 12.824 113.34 12.748 113.14 12.652C112.948 12.556 112.796 12.436 112.684 12.292C112.572 12.14 112.516 11.956 112.516 11.74C112.516 11.444 112.608 11.2 112.792 11.008C112.976 10.808 113.188 10.636 113.428 10.492L114.184 10.864C114.112 10.928 114.04 10.98 113.968 11.02C113.904 11.052 113.848 11.088 113.8 11.128C113.76 11.16 113.74 11.216 113.74 11.296C113.74 11.368 113.812 11.432 113.956 11.488C114.1 11.544 114.324 11.588 114.628 11.62C114.932 11.644 115.324 11.656 115.804 11.656C116.116 11.656 116.384 11.7 116.608 11.788C116.84 11.868 117.028 11.984 117.172 12.136C117.324 12.28 117.436 12.444 117.508 12.628C117.58 12.812 117.616 13.008 117.616 13.216C117.616 13.464 117.556 13.704 117.436 13.936C117.324 14.176 117.148 14.388 116.908 14.572C116.676 14.764 116.384 14.916 116.032 15.028C115.68 15.14 115.268 15.196 114.796 15.196ZM114.784 11.104C114.392 11.104 114.028 11.02 113.692 10.852C113.364 10.684 113.1 10.456 112.9 10.168C112.708 9.88 112.612 9.552 112.612 9.184C112.612 8.816 112.708 8.484 112.9 8.188C113.1 7.892 113.364 7.656 113.692 7.48C114.028 7.304 114.392 7.216 114.784 7.216C115.184 7.216 115.548 7.304 115.876 7.48C116.204 7.656 116.464 7.892 116.656 8.188C116.856 8.484 116.956 8.816 116.956 9.184C116.956 9.552 116.856 9.88 116.656 10.168C116.464 10.456 116.204 10.684 115.876 10.852C115.548 11.02 115.184 11.104 114.784 11.104ZM114.772 9.94C114.916 9.94 115.044 9.912 115.156 9.856C115.268 9.792 115.356 9.704 115.42 9.592C115.492 9.472 115.528 9.336 115.528 9.184C115.528 9.032 115.492 8.904 115.42 8.8C115.356 8.696 115.264 8.616 115.144 8.56C115.032 8.496 114.908 8.464 114.772 8.464C114.66 8.464 114.548 8.496 114.436 8.56C114.324 8.624 114.228 8.712 114.148 8.824C114.076 8.928 114.04 9.048 114.04 9.184C114.04 9.32 114.072 9.448 114.136 9.568C114.208 9.68 114.3 9.772 114.412 9.844C114.524 9.908 114.644 9.94 114.772 9.94ZM116.608 8.464L115.972 7.66C116.196 7.516 116.464 7.4 116.776 7.312C117.088 7.224 117.408 7.192 117.736 7.216L117.88 8.296C117.656 8.24 117.428 8.232 117.196 8.272C116.964 8.304 116.768 8.368 116.608 8.464ZM118.516 13V7.348H120.232V7.996C120.36 7.844 120.492 7.712 120.628 7.6C120.764 7.48 120.916 7.388 121.084 7.324C121.26 7.252 121.456 7.216 121.672 7.216C122.008 7.216 122.324 7.3 122.62 7.468C122.916 7.628 123.156 7.884 123.34 8.236C123.524 8.58 123.616 9.036 123.616 9.604V13H121.912V9.616C121.912 9.36 121.888 9.148 121.84 8.98C121.792 8.804 121.716 8.672 121.612 8.584C121.508 8.496 121.376 8.452 121.216 8.452C121.088 8.452 120.964 8.48 120.844 8.536C120.724 8.584 120.616 8.656 120.52 8.752C120.432 8.848 120.36 8.964 120.304 9.1C120.256 9.236 120.232 9.388 120.232 9.556V13H118.516ZM130.48 13V5.524H133.132C133.724 5.524 134.216 5.628 134.608 5.836C135 6.036 135.292 6.308 135.484 6.652C135.676 6.988 135.772 7.36 135.772 7.768C135.772 8.072 135.716 8.36 135.604 8.632C135.5 8.896 135.34 9.128 135.124 9.328C134.916 9.528 134.648 9.688 134.32 9.808C134 9.92 133.624 9.976 133.192 9.976H132.208V13H130.48ZM132.208 8.596H133.096C133.28 8.596 133.44 8.56 133.576 8.488C133.72 8.416 133.832 8.316 133.912 8.188C133.992 8.06 134.032 7.916 134.032 7.756C134.032 7.588 133.992 7.444 133.912 7.324C133.832 7.204 133.724 7.112 133.588 7.048C133.452 6.984 133.292 6.952 133.108 6.952H132.208V8.596ZM136.828 7.348H138.568V8.896L138.376 8.848C138.4 8.608 138.46 8.392 138.556 8.2C138.66 8 138.792 7.828 138.952 7.684C139.112 7.532 139.288 7.416 139.48 7.336C139.68 7.256 139.884 7.216 140.092 7.216C140.42 7.216 140.712 7.268 140.968 7.372C141.224 7.476 141.464 7.644 141.688 7.876L140.992 9.328L140.956 9.424L140.836 9.376C140.804 9.312 140.78 9.244 140.764 9.172C140.748 9.092 140.696 9.004 140.608 8.908C140.504 8.82 140.384 8.748 140.248 8.692C140.12 8.628 139.976 8.596 139.816 8.596C139.632 8.596 139.46 8.624 139.3 8.68C139.148 8.736 139.016 8.824 138.904 8.944C138.792 9.064 138.704 9.216 138.64 9.4C138.576 9.584 138.544 9.804 138.544 10.06V13H136.828V7.348ZM144.988 13.144C144.484 13.144 144.024 13.024 143.608 12.784C143.192 12.536 142.86 12.188 142.612 11.74C142.364 11.292 142.24 10.772 142.24 10.18C142.24 9.628 142.364 9.128 142.612 8.68C142.86 8.232 143.192 7.876 143.608 7.612C144.024 7.348 144.484 7.216 144.988 7.216C145.492 7.216 145.952 7.348 146.368 7.612C146.792 7.876 147.128 8.232 147.376 8.68C147.632 9.128 147.76 9.628 147.76 10.18C147.76 10.764 147.632 11.28 147.376 11.728C147.128 12.176 146.792 12.524 146.368 12.772C145.952 13.02 145.492 13.144 144.988 13.144ZM144.988 11.812C145.204 11.812 145.392 11.744 145.552 11.608C145.72 11.472 145.852 11.284 145.948 11.044C146.044 10.796 146.092 10.508 146.092 10.18C146.092 9.828 146.044 9.532 145.948 9.292C145.852 9.052 145.72 8.868 145.552 8.74C145.392 8.612 145.204 8.548 144.988 8.548C144.788 8.548 144.604 8.612 144.436 8.74C144.276 8.868 144.148 9.052 144.052 9.292C143.956 9.532 143.908 9.828 143.908 10.18C143.908 10.508 143.952 10.796 144.04 11.044C144.136 11.284 144.264 11.472 144.424 11.608C144.592 11.744 144.78 11.812 144.988 11.812ZM150.268 15.124C149.868 15.124 149.508 15.044 149.188 14.884C148.876 14.732 148.584 14.508 148.312 14.212L149.224 13.012L149.296 12.928L149.404 13C149.42 13.064 149.432 13.128 149.44 13.192C149.456 13.264 149.504 13.352 149.584 13.456C149.672 13.544 149.768 13.612 149.872 13.66C149.984 13.716 150.116 13.744 150.268 13.744C150.452 13.744 150.592 13.708 150.688 13.636C150.792 13.564 150.86 13.452 150.892 13.3C150.932 13.156 150.952 12.98 150.952 12.772V8.668H149.068V7.348H152.668V12.604C152.668 13.204 152.552 13.688 152.32 14.056C152.088 14.432 151.788 14.704 151.42 14.872C151.06 15.04 150.676 15.124 150.268 15.124ZM151.696 6.58C151.416 6.58 151.176 6.488 150.976 6.304C150.784 6.112 150.688 5.888 150.688 5.632C150.688 5.352 150.78 5.124 150.964 4.948C151.156 4.772 151.4 4.684 151.696 4.684C151.96 4.684 152.192 4.78 152.392 4.972C152.6 5.156 152.704 5.376 152.704 5.632C152.704 5.888 152.6 6.112 152.392 6.304C152.192 6.488 151.96 6.58 151.696 6.58ZM157.24 13.144C156.84 13.144 156.464 13.08 156.112 12.952C155.768 12.816 155.464 12.624 155.2 12.376C154.944 12.128 154.744 11.824 154.6 11.464C154.456 11.096 154.384 10.684 154.384 10.228C154.384 9.764 154.452 9.348 154.588 8.98C154.732 8.604 154.924 8.288 155.164 8.032C155.412 7.768 155.7 7.568 156.028 7.432C156.356 7.288 156.712 7.216 157.096 7.216C157.424 7.216 157.736 7.276 158.032 7.396C158.336 7.516 158.604 7.696 158.836 7.936C159.068 8.168 159.252 8.46 159.388 8.812C159.524 9.156 159.592 9.552 159.592 10C159.592 10.096 159.592 10.216 159.592 10.36C159.592 10.504 159.588 10.62 159.58 10.708H156.016C156.032 10.908 156.08 11.08 156.16 11.224C156.24 11.36 156.34 11.476 156.46 11.572C156.588 11.66 156.724 11.728 156.868 11.776C157.02 11.816 157.172 11.836 157.324 11.836C157.484 11.836 157.636 11.824 157.78 11.8C157.924 11.776 158.064 11.732 158.2 11.668C158.336 11.596 158.468 11.496 158.596 11.368L159.436 12.184C159.244 12.408 159.032 12.592 158.8 12.736C158.568 12.88 158.32 12.984 158.056 13.048C157.792 13.112 157.52 13.144 157.24 13.144ZM156.028 9.46H157.984C157.984 9.3 157.964 9.164 157.924 9.052C157.884 8.932 157.824 8.836 157.744 8.764C157.664 8.684 157.564 8.628 157.444 8.596C157.324 8.556 157.188 8.536 157.036 8.536C156.9 8.536 156.772 8.556 156.652 8.596C156.54 8.628 156.44 8.684 156.352 8.764C156.264 8.836 156.192 8.932 156.136 9.052C156.08 9.164 156.044 9.3 156.028 9.46ZM163.288 13.144C162.872 13.144 162.484 13.076 162.124 12.94C161.764 12.796 161.448 12.596 161.176 12.34C160.912 12.076 160.704 11.768 160.552 11.416C160.408 11.064 160.336 10.676 160.336 10.252C160.336 9.836 160.408 9.444 160.552 9.076C160.704 8.708 160.912 8.388 161.176 8.116C161.448 7.836 161.764 7.616 162.124 7.456C162.484 7.296 162.876 7.216 163.3 7.216C163.86 7.216 164.34 7.316 164.74 7.516C165.14 7.708 165.456 7.98 165.688 8.332L164.788 9.352L164.716 9.436L164.608 9.352C164.6 9.288 164.592 9.22 164.584 9.148C164.576 9.076 164.532 8.988 164.452 8.884C164.316 8.748 164.16 8.656 163.984 8.608C163.808 8.56 163.608 8.536 163.384 8.536C163.208 8.536 163.04 8.576 162.88 8.656C162.72 8.728 162.576 8.836 162.448 8.98C162.32 9.124 162.22 9.304 162.148 9.52C162.076 9.736 162.04 9.988 162.04 10.276C162.04 10.524 162.076 10.748 162.148 10.948C162.228 11.14 162.328 11.3 162.448 11.428C162.576 11.556 162.716 11.656 162.868 11.728C163.028 11.792 163.188 11.824 163.348 11.824C163.508 11.824 163.664 11.804 163.816 11.764C163.976 11.724 164.132 11.656 164.284 11.56C164.444 11.456 164.596 11.312 164.74 11.128L165.652 12.172C165.34 12.524 164.968 12.776 164.536 12.928C164.104 13.072 163.688 13.144 163.288 13.144ZM169.588 13.144C169.292 13.144 169.02 13.096 168.772 13C168.524 12.912 168.312 12.76 168.136 12.544C167.96 12.32 167.828 12.016 167.74 11.632C167.652 11.248 167.62 10.76 167.644 10.168L167.812 6.088L169.54 5.86L169.648 5.848L169.66 5.98C169.628 6.036 169.596 6.092 169.564 6.148C169.532 6.204 169.512 6.3 169.504 6.436L169.36 8.284H169.432L169.336 10.084C169.312 10.54 169.328 10.896 169.384 11.152C169.448 11.4 169.536 11.572 169.648 11.668C169.768 11.764 169.892 11.812 170.02 11.812C170.268 11.812 170.492 11.76 170.692 11.656C170.9 11.552 171.08 11.436 171.232 11.308L171.52 12.496C171.248 12.696 170.952 12.856 170.632 12.976C170.32 13.088 169.972 13.144 169.588 13.144ZM166.612 7.348H171.148L171.124 8.668H166.588L166.612 7.348Z" fill="white"/>
</svg>
