<svg width="171" height="20" viewBox="0 0 171 20" fill="none" xmlns="http://www.w3.org/2000/svg">
<rect x="0.5" y="0.5" width="170" height="19" fill="black" stroke="black"/>
<path d="M9.476 11.548H6.416L6.62 10.372H9.236L9.476 11.548ZM8.012 8.428L6.8 13H5.12L7.496 5.524H8.516L10.892 13H9.188L8.012 8.428ZM11.828 7.348H13.568V8.896L13.376 8.848C13.4 8.608 13.46 8.392 13.556 8.2C13.66 8 13.792 7.828 13.952 7.684C14.112 7.532 14.288 7.416 14.48 7.336C14.68 7.256 14.884 7.216 15.092 7.216C15.42 7.216 15.712 7.268 15.968 7.372C16.224 7.476 16.464 7.644 16.688 7.876L15.992 9.328L15.956 9.424L15.836 9.376C15.804 9.312 15.78 9.244 15.764 9.172C15.748 9.092 15.696 9.004 15.608 8.908C15.504 8.82 15.384 8.748 15.248 8.692C15.12 8.628 14.976 8.596 14.816 8.596C14.632 8.596 14.46 8.624 14.3 8.68C14.148 8.736 14.016 8.824 13.904 8.944C13.792 9.064 13.704 9.216 13.64 9.4C13.576 9.584 13.544 9.804 13.544 10.06V13H11.828V7.348ZM20.288 13.144C19.872 13.144 19.484 13.076 19.124 12.94C18.764 12.796 18.448 12.596 18.176 12.34C17.912 12.076 17.704 11.768 17.552 11.416C17.408 11.064 17.336 10.676 17.336 10.252C17.336 9.836 17.408 9.444 17.552 9.076C17.704 8.708 17.912 8.388 18.176 8.116C18.448 7.836 18.764 7.616 19.124 7.456C19.484 7.296 19.876 7.216 20.3 7.216C20.86 7.216 21.34 7.316 21.74 7.516C22.14 7.708 22.456 7.98 22.688 8.332L21.788 9.352L21.716 9.436L21.608 9.352C21.6 9.288 21.592 9.22 21.584 9.148C21.576 9.076 21.532 8.988 21.452 8.884C21.316 8.748 21.16 8.656 20.984 8.608C20.808 8.56 20.608 8.536 20.384 8.536C20.208 8.536 20.04 8.576 19.88 8.656C19.72 8.728 19.576 8.836 19.448 8.98C19.32 9.124 19.22 9.304 19.148 9.52C19.076 9.736 19.04 9.988 19.04 10.276C19.04 10.524 19.076 10.748 19.148 10.948C19.228 11.14 19.328 11.3 19.448 11.428C19.576 11.556 19.716 11.656 19.868 11.728C20.028 11.792 20.188 11.824 20.348 11.824C20.508 11.824 20.664 11.804 20.816 11.764C20.976 11.724 21.132 11.656 21.284 11.56C21.444 11.456 21.596 11.312 21.74 11.128L22.652 12.172C22.34 12.524 21.968 12.776 21.536 12.928C21.104 13.072 20.688 13.144 20.288 13.144ZM23.516 4.9H25.22H25.328V5.032C25.288 5.08 25.26 5.132 25.244 5.188C25.236 5.244 25.232 5.34 25.232 5.476V7.924C25.36 7.748 25.508 7.612 25.676 7.516C25.844 7.412 26.02 7.336 26.204 7.288C26.396 7.24 26.58 7.216 26.756 7.216C27.14 7.216 27.468 7.3 27.74 7.468C28.02 7.628 28.236 7.884 28.388 8.236C28.54 8.588 28.616 9.044 28.616 9.604V13H26.912V9.616C26.912 9.328 26.888 9.1 26.84 8.932C26.792 8.756 26.72 8.632 26.624 8.56C26.536 8.488 26.42 8.452 26.276 8.452C26.14 8.452 26.016 8.472 25.904 8.512C25.8 8.552 25.704 8.608 25.616 8.68C25.536 8.752 25.464 8.844 25.4 8.956C25.344 9.06 25.3 9.18 25.268 9.316C25.244 9.452 25.232 9.6 25.232 9.76V13H23.516V4.9ZM29.888 13V11.68H31.232V8.668H29.948V7.348H32.936V11.68H34.16V13H29.888ZM32 6.58C31.72 6.58 31.48 6.488 31.28 6.304C31.088 6.112 30.992 5.888 30.992 5.632C30.992 5.352 31.084 5.124 31.268 4.948C31.46 4.772 31.704 4.684 32 4.684C32.264 4.684 32.496 4.78 32.696 4.972C32.904 5.156 33.008 5.376 33.008 5.632C33.008 5.888 32.904 6.112 32.696 6.304C32.496 6.488 32.264 6.58 32 6.58ZM38.588 13.144C38.292 13.144 38.02 13.096 37.772 13C37.524 12.912 37.312 12.76 37.136 12.544C36.96 12.32 36.828 12.016 36.74 11.632C36.652 11.248 36.62 10.76 36.644 10.168L36.812 6.088L38.54 5.86L38.648 5.848L38.66 5.98C38.628 6.036 38.596 6.092 38.564 6.148C38.532 6.204 38.512 6.3 38.504 6.436L38.36 8.284H38.432L38.336 10.084C38.312 10.54 38.328 10.896 38.384 11.152C38.448 11.4 38.536 11.572 38.648 11.668C38.768 11.764 38.892 11.812 39.02 11.812C39.268 11.812 39.492 11.76 39.692 11.656C39.9 11.552 40.08 11.436 40.232 11.308L40.52 12.496C40.248 12.696 39.952 12.856 39.632 12.976C39.32 13.088 38.972 13.144 38.588 13.144ZM35.612 7.348H40.148L40.124 8.668H35.588L35.612 7.348ZM44.24 13.144C43.84 13.144 43.464 13.08 43.112 12.952C42.768 12.816 42.464 12.624 42.2 12.376C41.944 12.128 41.744 11.824 41.6 11.464C41.456 11.096 41.384 10.684 41.384 10.228C41.384 9.764 41.452 9.348 41.588 8.98C41.732 8.604 41.924 8.288 42.164 8.032C42.412 7.768 42.7 7.568 43.028 7.432C43.356 7.288 43.712 7.216 44.096 7.216C44.424 7.216 44.736 7.276 45.032 7.396C45.336 7.516 45.604 7.696 45.836 7.936C46.068 8.168 46.252 8.46 46.388 8.812C46.524 9.156 46.592 9.552 46.592 10C46.592 10.096 46.592 10.216 46.592 10.36C46.592 10.504 46.588 10.62 46.58 10.708H43.016C43.032 10.908 43.08 11.08 43.16 11.224C43.24 11.36 43.34 11.476 43.46 11.572C43.588 11.66 43.724 11.728 43.868 11.776C44.02 11.816 44.172 11.836 44.324 11.836C44.484 11.836 44.636 11.824 44.78 11.8C44.924 11.776 45.064 11.732 45.2 11.668C45.336 11.596 45.468 11.496 45.596 11.368L46.436 12.184C46.244 12.408 46.032 12.592 45.8 12.736C45.568 12.88 45.32 12.984 45.056 13.048C44.792 13.112 44.52 13.144 44.24 13.144ZM43.028 9.46H44.984C44.984 9.3 44.964 9.164 44.924 9.052C44.884 8.932 44.824 8.836 44.744 8.764C44.664 8.684 44.564 8.628 44.444 8.596C44.324 8.556 44.188 8.536 44.036 8.536C43.9 8.536 43.772 8.556 43.652 8.596C43.54 8.628 43.44 8.684 43.352 8.764C43.264 8.836 43.192 8.932 43.136 9.052C43.08 9.164 43.044 9.3 43.028 9.46ZM50.288 13.144C49.872 13.144 49.484 13.076 49.124 12.94C48.764 12.796 48.448 12.596 48.176 12.34C47.912 12.076 47.704 11.768 47.552 11.416C47.408 11.064 47.336 10.676 47.336 10.252C47.336 9.836 47.408 9.444 47.552 9.076C47.704 8.708 47.912 8.388 48.176 8.116C48.448 7.836 48.764 7.616 49.124 7.456C49.484 7.296 49.876 7.216 50.3 7.216C50.86 7.216 51.34 7.316 51.74 7.516C52.14 7.708 52.456 7.98 52.688 8.332L51.788 9.352L51.716 9.436L51.608 9.352C51.6 9.288 51.592 9.22 51.584 9.148C51.576 9.076 51.532 8.988 51.452 8.884C51.316 8.748 51.16 8.656 50.984 8.608C50.808 8.56 50.608 8.536 50.384 8.536C50.208 8.536 50.04 8.576 49.88 8.656C49.72 8.728 49.576 8.836 49.448 8.98C49.32 9.124 49.22 9.304 49.148 9.52C49.076 9.736 49.04 9.988 49.04 10.276C49.04 10.524 49.076 10.748 49.148 10.948C49.228 11.14 49.328 11.3 49.448 11.428C49.576 11.556 49.716 11.656 49.868 11.728C50.028 11.792 50.188 11.824 50.348 11.824C50.508 11.824 50.664 11.804 50.816 11.764C50.976 11.724 51.132 11.656 51.284 11.56C51.444 11.456 51.596 11.312 51.74 11.128L52.652 12.172C52.34 12.524 51.968 12.776 51.536 12.928C51.104 13.072 50.688 13.144 50.288 13.144ZM56.588 13.144C56.292 13.144 56.02 13.096 55.772 13C55.524 12.912 55.312 12.76 55.136 12.544C54.96 12.32 54.828 12.016 54.74 11.632C54.652 11.248 54.62 10.76 54.644 10.168L54.812 6.088L56.54 5.86L56.648 5.848L56.66 5.98C56.628 6.036 56.596 6.092 56.564 6.148C56.532 6.204 56.512 6.3 56.504 6.436L56.36 8.284H56.432L56.336 10.084C56.312 10.54 56.328 10.896 56.384 11.152C56.448 11.4 56.536 11.572 56.648 11.668C56.768 11.764 56.892 11.812 57.02 11.812C57.268 11.812 57.492 11.76 57.692 11.656C57.9 11.552 58.08 11.436 58.232 11.308L58.52 12.496C58.248 12.696 57.952 12.856 57.632 12.976C57.32 13.088 56.972 13.144 56.588 13.144ZM53.612 7.348H58.148L58.124 8.668H53.588L53.612 7.348ZM61.472 13.144C61.24 13.144 61.02 13.116 60.812 13.06C60.612 13.004 60.428 12.916 60.26 12.796C60.1 12.676 59.96 12.524 59.84 12.34C59.72 12.156 59.628 11.936 59.564 11.68C59.5 11.416 59.468 11.116 59.468 10.78V7.348H61.172V10.78C61.172 10.964 61.184 11.12 61.208 11.248C61.24 11.376 61.284 11.484 61.34 11.572C61.396 11.652 61.46 11.712 61.532 11.752C61.612 11.784 61.696 11.8 61.784 11.8C61.936 11.8 62.068 11.776 62.18 11.728C62.3 11.68 62.396 11.608 62.468 11.512C62.548 11.408 62.604 11.284 62.636 11.14C62.676 10.996 62.696 10.828 62.696 10.636V7.348H64.412V12.088C64.412 12.28 64.416 12.448 64.424 12.592C64.44 12.728 64.476 12.864 64.532 13H63.008C62.968 12.928 62.94 12.856 62.924 12.784C62.908 12.712 62.896 12.64 62.888 12.568C62.888 12.496 62.888 12.424 62.888 12.352C62.808 12.488 62.712 12.608 62.6 12.712C62.496 12.808 62.38 12.888 62.252 12.952C62.132 13.016 62.004 13.064 61.868 13.096C61.74 13.128 61.608 13.144 61.472 13.144ZM65.828 7.348H67.568V8.896L67.376 8.848C67.4 8.608 67.46 8.392 67.556 8.2C67.66 8 67.792 7.828 67.952 7.684C68.112 7.532 68.288 7.416 68.48 7.336C68.68 7.256 68.884 7.216 69.092 7.216C69.42 7.216 69.712 7.268 69.968 7.372C70.224 7.476 70.464 7.644 70.688 7.876L69.992 9.328L69.956 9.424L69.836 9.376C69.804 9.312 69.78 9.244 69.764 9.172C69.748 9.092 69.696 9.004 69.608 8.908C69.504 8.82 69.384 8.748 69.248 8.692C69.12 8.628 68.976 8.596 68.816 8.596C68.632 8.596 68.46 8.624 68.3 8.68C68.148 8.736 68.016 8.824 67.904 8.944C67.792 9.064 67.704 9.216 67.64 9.4C67.576 9.584 67.544 9.804 67.544 10.06V13H65.828V7.348ZM73.268 13.144C72.66 13.144 72.184 13 71.84 12.712C71.496 12.416 71.324 12.028 71.324 11.548C71.324 11.244 71.388 10.964 71.516 10.708C71.644 10.444 71.844 10.216 72.116 10.024C72.388 9.824 72.736 9.668 73.16 9.556C73.584 9.444 74.092 9.388 74.684 9.388C74.708 9.388 74.752 9.388 74.816 9.388C74.88 9.388 74.952 9.388 75.032 9.388C75.112 9.388 75.18 9.388 75.236 9.388L75.284 10.516C75.236 10.516 75.168 10.516 75.08 10.516C74.992 10.516 74.9 10.52 74.804 10.528C74.716 10.528 74.648 10.528 74.6 10.528C74.256 10.528 73.98 10.552 73.772 10.6C73.564 10.64 73.404 10.7 73.292 10.78C73.188 10.852 73.116 10.936 73.076 11.032C73.036 11.12 73.016 11.208 73.016 11.296C73.016 11.392 73.032 11.476 73.064 11.548C73.096 11.62 73.14 11.676 73.196 11.716C73.252 11.756 73.32 11.788 73.4 11.812C73.48 11.828 73.564 11.836 73.652 11.836C73.844 11.836 74.008 11.804 74.144 11.74C74.28 11.676 74.392 11.572 74.48 11.428C74.576 11.276 74.644 11.084 74.684 10.852C74.732 10.62 74.756 10.336 74.756 10C74.756 9.592 74.716 9.28 74.636 9.064C74.564 8.848 74.456 8.704 74.312 8.632C74.176 8.552 74.008 8.512 73.808 8.512C73.56 8.512 73.332 8.548 73.124 8.62C72.916 8.684 72.696 8.836 72.464 9.076L71.504 8.092C71.864 7.764 72.248 7.536 72.656 7.408C73.072 7.28 73.476 7.216 73.868 7.216C74.212 7.216 74.536 7.256 74.84 7.336C75.152 7.408 75.428 7.532 75.668 7.708C75.916 7.884 76.108 8.128 76.244 8.44C76.388 8.744 76.46 9.128 76.46 9.592V13H74.744V12.556C74.64 12.652 74.536 12.74 74.432 12.82C74.336 12.892 74.228 12.952 74.108 13C73.996 13.048 73.872 13.084 73.736 13.108C73.6 13.132 73.444 13.144 73.268 13.144ZM77.624 13V11.68H79.16V6.22H77.696V4.9H80.864V11.68H82.388V13H77.624ZM89.756 13V11.644H91.208V6.88H89.828V5.524H94.244V6.88H92.792V11.644H94.304V13H89.756ZM95.516 13V7.348H97.232V7.996C97.36 7.844 97.492 7.712 97.628 7.6C97.764 7.48 97.916 7.388 98.084 7.324C98.26 7.252 98.456 7.216 98.672 7.216C99.008 7.216 99.324 7.3 99.62 7.468C99.916 7.628 100.156 7.884 100.34 8.236C100.524 8.58 100.616 9.036 100.616 9.604V13H98.912V9.616C98.912 9.36 98.888 9.148 98.84 8.98C98.792 8.804 98.716 8.672 98.612 8.584C98.508 8.496 98.376 8.452 98.216 8.452C98.088 8.452 97.964 8.48 97.844 8.536C97.724 8.584 97.616 8.656 97.52 8.752C97.432 8.848 97.36 8.964 97.304 9.1C97.256 9.236 97.232 9.388 97.232 9.556V13H95.516ZM104.18 13.144C103.812 13.144 103.46 13.112 103.124 13.048C102.796 12.992 102.492 12.9 102.212 12.772C101.932 12.636 101.676 12.46 101.444 12.244L102.116 10.948L102.164 10.852L102.272 10.912C102.296 10.968 102.32 11.032 102.344 11.104C102.376 11.168 102.44 11.244 102.536 11.332C102.76 11.5 103.004 11.628 103.268 11.716C103.54 11.804 103.848 11.848 104.192 11.848C104.368 11.848 104.516 11.828 104.636 11.788C104.764 11.748 104.86 11.696 104.924 11.632C104.996 11.56 105.032 11.484 105.032 11.404C105.032 11.324 105.004 11.256 104.948 11.2C104.9 11.144 104.824 11.096 104.72 11.056C104.624 11.008 104.496 10.96 104.336 10.912C104.176 10.864 103.988 10.812 103.772 10.756C103.372 10.652 103.024 10.524 102.728 10.372C102.44 10.22 102.216 10.032 102.056 9.808C101.896 9.576 101.816 9.3 101.816 8.98C101.816 8.652 101.916 8.356 102.116 8.092C102.316 7.828 102.588 7.616 102.932 7.456C103.284 7.296 103.684 7.216 104.132 7.216C104.348 7.216 104.56 7.236 104.768 7.276C104.984 7.308 105.188 7.36 105.38 7.432C105.572 7.496 105.756 7.584 105.932 7.696C106.108 7.8 106.272 7.924 106.424 8.068L105.644 9.208L105.572 9.304L105.464 9.22C105.456 9.156 105.436 9.096 105.404 9.04C105.38 8.984 105.32 8.912 105.224 8.824C105.072 8.72 104.904 8.648 104.72 8.608C104.544 8.56 104.356 8.536 104.156 8.536C103.924 8.536 103.72 8.572 103.544 8.644C103.368 8.716 103.28 8.824 103.28 8.968C103.28 9.064 103.328 9.144 103.424 9.208C103.52 9.272 103.66 9.332 103.844 9.388C104.036 9.436 104.272 9.492 104.552 9.556C105 9.652 105.368 9.784 105.656 9.952C105.944 10.112 106.156 10.308 106.292 10.54C106.436 10.772 106.508 11.04 106.508 11.344C106.508 11.664 106.416 11.964 106.232 12.244C106.048 12.516 105.78 12.736 105.428 12.904C105.084 13.064 104.668 13.144 104.18 13.144ZM110.588 13.144C110.292 13.144 110.02 13.096 109.772 13C109.524 12.912 109.312 12.76 109.136 12.544C108.96 12.32 108.828 12.016 108.74 11.632C108.652 11.248 108.62 10.76 108.644 10.168L108.812 6.088L110.54 5.86L110.648 5.848L110.66 5.98C110.628 6.036 110.596 6.092 110.564 6.148C110.532 6.204 110.512 6.3 110.504 6.436L110.36 8.284H110.432L110.336 10.084C110.312 10.54 110.328 10.896 110.384 11.152C110.448 11.4 110.536 11.572 110.648 11.668C110.768 11.764 110.892 11.812 111.02 11.812C111.268 11.812 111.492 11.76 111.692 11.656C111.9 11.552 112.08 11.436 112.232 11.308L112.52 12.496C112.248 12.696 111.952 12.856 111.632 12.976C111.32 13.088 110.972 13.144 110.588 13.144ZM107.612 7.348H112.148L112.124 8.668H107.588L107.612 7.348ZM115.268 13.144C114.66 13.144 114.184 13 113.84 12.712C113.496 12.416 113.324 12.028 113.324 11.548C113.324 11.244 113.388 10.964 113.516 10.708C113.644 10.444 113.844 10.216 114.116 10.024C114.388 9.824 114.736 9.668 115.16 9.556C115.584 9.444 116.092 9.388 116.684 9.388C116.708 9.388 116.752 9.388 116.816 9.388C116.88 9.388 116.952 9.388 117.032 9.388C117.112 9.388 117.18 9.388 117.236 9.388L117.284 10.516C117.236 10.516 117.168 10.516 117.08 10.516C116.992 10.516 116.9 10.52 116.804 10.528C116.716 10.528 116.648 10.528 116.6 10.528C116.256 10.528 115.98 10.552 115.772 10.6C115.564 10.64 115.404 10.7 115.292 10.78C115.188 10.852 115.116 10.936 115.076 11.032C115.036 11.12 115.016 11.208 115.016 11.296C115.016 11.392 115.032 11.476 115.064 11.548C115.096 11.62 115.14 11.676 115.196 11.716C115.252 11.756 115.32 11.788 115.4 11.812C115.48 11.828 115.564 11.836 115.652 11.836C115.844 11.836 116.008 11.804 116.144 11.74C116.28 11.676 116.392 11.572 116.48 11.428C116.576 11.276 116.644 11.084 116.684 10.852C116.732 10.62 116.756 10.336 116.756 10C116.756 9.592 116.716 9.28 116.636 9.064C116.564 8.848 116.456 8.704 116.312 8.632C116.176 8.552 116.008 8.512 115.808 8.512C115.56 8.512 115.332 8.548 115.124 8.62C114.916 8.684 114.696 8.836 114.464 9.076L113.504 8.092C113.864 7.764 114.248 7.536 114.656 7.408C115.072 7.28 115.476 7.216 115.868 7.216C116.212 7.216 116.536 7.256 116.84 7.336C117.152 7.408 117.428 7.532 117.668 7.708C117.916 7.884 118.108 8.128 118.244 8.44C118.388 8.744 118.46 9.128 118.46 9.592V13H116.744V12.556C116.64 12.652 116.536 12.74 116.432 12.82C116.336 12.892 116.228 12.952 116.108 13C115.996 13.048 115.872 13.084 115.736 13.108C115.6 13.132 115.444 13.144 115.268 13.144ZM119.624 13V11.68H121.16V6.22H119.696V4.9H122.864V11.68H124.388V13H119.624ZM125.624 13V11.68H127.16V6.22H125.696V4.9H128.864V11.68H130.388V13H125.624ZM133.268 13.144C132.66 13.144 132.184 13 131.84 12.712C131.496 12.416 131.324 12.028 131.324 11.548C131.324 11.244 131.388 10.964 131.516 10.708C131.644 10.444 131.844 10.216 132.116 10.024C132.388 9.824 132.736 9.668 133.16 9.556C133.584 9.444 134.092 9.388 134.684 9.388C134.708 9.388 134.752 9.388 134.816 9.388C134.88 9.388 134.952 9.388 135.032 9.388C135.112 9.388 135.18 9.388 135.236 9.388L135.284 10.516C135.236 10.516 135.168 10.516 135.08 10.516C134.992 10.516 134.9 10.52 134.804 10.528C134.716 10.528 134.648 10.528 134.6 10.528C134.256 10.528 133.98 10.552 133.772 10.6C133.564 10.64 133.404 10.7 133.292 10.78C133.188 10.852 133.116 10.936 133.076 11.032C133.036 11.12 133.016 11.208 133.016 11.296C133.016 11.392 133.032 11.476 133.064 11.548C133.096 11.62 133.14 11.676 133.196 11.716C133.252 11.756 133.32 11.788 133.4 11.812C133.48 11.828 133.564 11.836 133.652 11.836C133.844 11.836 134.008 11.804 134.144 11.74C134.28 11.676 134.392 11.572 134.48 11.428C134.576 11.276 134.644 11.084 134.684 10.852C134.732 10.62 134.756 10.336 134.756 10C134.756 9.592 134.716 9.28 134.636 9.064C134.564 8.848 134.456 8.704 134.312 8.632C134.176 8.552 134.008 8.512 133.808 8.512C133.56 8.512 133.332 8.548 133.124 8.62C132.916 8.684 132.696 8.836 132.464 9.076L131.504 8.092C131.864 7.764 132.248 7.536 132.656 7.408C133.072 7.28 133.476 7.216 133.868 7.216C134.212 7.216 134.536 7.256 134.84 7.336C135.152 7.408 135.428 7.532 135.668 7.708C135.916 7.884 136.108 8.128 136.244 8.44C136.388 8.744 136.46 9.128 136.46 9.592V13H134.744V12.556C134.64 12.652 134.536 12.74 134.432 12.82C134.336 12.892 134.228 12.952 134.108 13C133.996 13.048 133.872 13.084 133.736 13.108C133.6 13.132 133.444 13.144 133.268 13.144ZM140.588 13.144C140.292 13.144 140.02 13.096 139.772 13C139.524 12.912 139.312 12.76 139.136 12.544C138.96 12.32 138.828 12.016 138.74 11.632C138.652 11.248 138.62 10.76 138.644 10.168L138.812 6.088L140.54 5.86L140.648 5.848L140.66 5.98C140.628 6.036 140.596 6.092 140.564 6.148C140.532 6.204 140.512 6.3 140.504 6.436L140.36 8.284H140.432L140.336 10.084C140.312 10.54 140.328 10.896 140.384 11.152C140.448 11.4 140.536 11.572 140.648 11.668C140.768 11.764 140.892 11.812 141.02 11.812C141.268 11.812 141.492 11.76 141.692 11.656C141.9 11.552 142.08 11.436 142.232 11.308L142.52 12.496C142.248 12.696 141.952 12.856 141.632 12.976C141.32 13.088 140.972 13.144 140.588 13.144ZM137.612 7.348H142.148L142.124 8.668H137.588L137.612 7.348ZM143.888 13V11.68H145.232V8.668H143.948V7.348H146.936V11.68H148.16V13H143.888ZM146 6.58C145.72 6.58 145.48 6.488 145.28 6.304C145.088 6.112 144.992 5.888 144.992 5.632C144.992 5.352 145.084 5.124 145.268 4.948C145.46 4.772 145.704 4.684 146 4.684C146.264 4.684 146.496 4.78 146.696 4.972C146.904 5.156 147.008 5.376 147.008 5.632C147.008 5.888 146.904 6.112 146.696 6.304C146.496 6.488 146.264 6.58 146 6.58ZM151.988 13.144C151.484 13.144 151.024 13.024 150.608 12.784C150.192 12.536 149.86 12.188 149.612 11.74C149.364 11.292 149.24 10.772 149.24 10.18C149.24 9.628 149.364 9.128 149.612 8.68C149.86 8.232 150.192 7.876 150.608 7.612C151.024 7.348 151.484 7.216 151.988 7.216C152.492 7.216 152.952 7.348 153.368 7.612C153.792 7.876 154.128 8.232 154.376 8.68C154.632 9.128 154.76 9.628 154.76 10.18C154.76 10.764 154.632 11.28 154.376 11.728C154.128 12.176 153.792 12.524 153.368 12.772C152.952 13.02 152.492 13.144 151.988 13.144ZM151.988 11.812C152.204 11.812 152.392 11.744 152.552 11.608C152.72 11.472 152.852 11.284 152.948 11.044C153.044 10.796 153.092 10.508 153.092 10.18C153.092 9.828 153.044 9.532 152.948 9.292C152.852 9.052 152.72 8.868 152.552 8.74C152.392 8.612 152.204 8.548 151.988 8.548C151.788 8.548 151.604 8.612 151.436 8.74C151.276 8.868 151.148 9.052 151.052 9.292C150.956 9.532 150.908 9.828 150.908 10.18C150.908 10.508 150.952 10.796 151.04 11.044C151.136 11.284 151.264 11.472 151.424 11.608C151.592 11.744 151.78 11.812 151.988 11.812ZM155.516 13V7.348H157.232V7.996C157.36 7.844 157.492 7.712 157.628 7.6C157.764 7.48 157.916 7.388 158.084 7.324C158.26 7.252 158.456 7.216 158.672 7.216C159.008 7.216 159.324 7.3 159.62 7.468C159.916 7.628 160.156 7.884 160.34 8.236C160.524 8.58 160.616 9.036 160.616 9.604V13H158.912V9.616C158.912 9.36 158.888 9.148 158.84 8.98C158.792 8.804 158.716 8.672 158.612 8.584C158.508 8.496 158.376 8.452 158.216 8.452C158.088 8.452 157.964 8.48 157.844 8.536C157.724 8.584 157.616 8.656 157.52 8.752C157.432 8.848 157.36 8.964 157.304 9.1C157.256 9.236 157.232 9.388 157.232 9.556V13H155.516ZM164.18 13.144C163.812 13.144 163.46 13.112 163.124 13.048C162.796 12.992 162.492 12.9 162.212 12.772C161.932 12.636 161.676 12.46 161.444 12.244L162.116 10.948L162.164 10.852L162.272 10.912C162.296 10.968 162.32 11.032 162.344 11.104C162.376 11.168 162.44 11.244 162.536 11.332C162.76 11.5 163.004 11.628 163.268 11.716C163.54 11.804 163.848 11.848 164.192 11.848C164.368 11.848 164.516 11.828 164.636 11.788C164.764 11.748 164.86 11.696 164.924 11.632C164.996 11.56 165.032 11.484 165.032 11.404C165.032 11.324 165.004 11.256 164.948 11.2C164.9 11.144 164.824 11.096 164.72 11.056C164.624 11.008 164.496 10.96 164.336 10.912C164.176 10.864 163.988 10.812 163.772 10.756C163.372 10.652 163.024 10.524 162.728 10.372C162.44 10.22 162.216 10.032 162.056 9.808C161.896 9.576 161.816 9.3 161.816 8.98C161.816 8.652 161.916 8.356 162.116 8.092C162.316 7.828 162.588 7.616 162.932 7.456C163.284 7.296 163.684 7.216 164.132 7.216C164.348 7.216 164.56 7.236 164.768 7.276C164.984 7.308 165.188 7.36 165.38 7.432C165.572 7.496 165.756 7.584 165.932 7.696C166.108 7.8 166.272 7.924 166.424 8.068L165.644 9.208L165.572 9.304L165.464 9.22C165.456 9.156 165.436 9.096 165.404 9.04C165.38 8.984 165.32 8.912 165.224 8.824C165.072 8.72 164.904 8.648 164.72 8.608C164.544 8.56 164.356 8.536 164.156 8.536C163.924 8.536 163.72 8.572 163.544 8.644C163.368 8.716 163.28 8.824 163.28 8.968C163.28 9.064 163.328 9.144 163.424 9.208C163.52 9.272 163.66 9.332 163.844 9.388C164.036 9.436 164.272 9.492 164.552 9.556C165 9.652 165.368 9.784 165.656 9.952C165.944 10.112 166.156 10.308 166.292 10.54C166.436 10.772 166.508 11.04 166.508 11.344C166.508 11.664 166.416 11.964 166.232 12.244C166.048 12.516 165.78 12.736 165.428 12.904C165.084 13.064 164.668 13.144 164.18 13.144Z" fill="white"/>
</svg>
