<svg width="132" height="20" viewBox="0 0 132 20" fill="none" xmlns="http://www.w3.org/2000/svg">
<rect x="0.5" y="0.5" width="131" height="19" stroke="black"/>
<path d="M10.284 10.816H7.572L7.74 10.168H10.092L10.284 10.816ZM8.988 7.312L7.02 13H6.192L8.952 5.392H9.048L11.808 13H10.944L8.988 7.312ZM13.428 7.516H14.328L14.292 9.112L14.184 8.932C14.232 8.684 14.316 8.464 14.436 8.272C14.556 8.08 14.7 7.92 14.868 7.792C15.036 7.656 15.22 7.556 15.42 7.492C15.62 7.42 15.828 7.384 16.044 7.384C16.332 7.384 16.596 7.436 16.836 7.54C17.084 7.636 17.304 7.784 17.496 7.984L17.112 8.656L17.064 8.764L16.98 8.716C16.964 8.652 16.94 8.592 16.908 8.536C16.876 8.48 16.808 8.412 16.704 8.332C16.576 8.252 16.456 8.2 16.344 8.176C16.24 8.144 16.12 8.128 15.984 8.128C15.784 8.128 15.584 8.168 15.384 8.248C15.184 8.32 15 8.436 14.832 8.596C14.672 8.756 14.544 8.96 14.448 9.208C14.352 9.456 14.304 9.752 14.304 10.096V13.012H13.428V7.516ZM21.42 13.132C21.02 13.132 20.652 13.06 20.316 12.916C19.98 12.772 19.688 12.572 19.44 12.316C19.2 12.06 19.012 11.76 18.876 11.416C18.74 11.064 18.672 10.68 18.672 10.264C18.672 9.856 18.74 9.48 18.876 9.136C19.012 8.784 19.2 8.48 19.44 8.224C19.688 7.968 19.98 7.768 20.316 7.624C20.652 7.48 21.016 7.408 21.408 7.408C21.856 7.408 22.256 7.5 22.608 7.684C22.968 7.86 23.26 8.108 23.484 8.428L22.944 8.956L22.86 9.04L22.8 8.98C22.8 8.916 22.784 8.856 22.752 8.8C22.728 8.744 22.668 8.668 22.572 8.572C22.396 8.412 22.208 8.3 22.008 8.236C21.808 8.172 21.576 8.14 21.312 8.14C21.08 8.14 20.86 8.188 20.652 8.284C20.444 8.38 20.256 8.52 20.088 8.704C19.928 8.88 19.8 9.096 19.704 9.352C19.608 9.608 19.56 9.892 19.56 10.204C19.56 10.516 19.608 10.804 19.704 11.068C19.8 11.324 19.932 11.548 20.1 11.74C20.268 11.932 20.468 12.084 20.7 12.196C20.94 12.3 21.196 12.352 21.468 12.352C21.652 12.352 21.828 12.328 21.996 12.28C22.164 12.224 22.324 12.148 22.476 12.052C22.628 11.948 22.768 11.824 22.896 11.68L23.4 12.268C23.128 12.556 22.824 12.772 22.488 12.916C22.16 13.06 21.804 13.132 21.42 13.132ZM24.876 5.02H25.704H25.824V5.104C25.776 5.152 25.744 5.204 25.728 5.26C25.72 5.316 25.716 5.412 25.716 5.548V8.488C25.86 8.264 26.028 8.072 26.22 7.912C26.42 7.744 26.628 7.616 26.844 7.528C27.068 7.432 27.292 7.384 27.516 7.384C27.844 7.384 28.132 7.46 28.38 7.612C28.636 7.764 28.832 8.008 28.968 8.344C29.112 8.68 29.184 9.124 29.184 9.676V13H28.344V9.7C28.344 9.316 28.3 9.012 28.212 8.788C28.124 8.556 28.004 8.392 27.852 8.296C27.7 8.192 27.528 8.14 27.336 8.14C27.192 8.14 27.044 8.164 26.892 8.212C26.74 8.26 26.592 8.332 26.448 8.428C26.312 8.524 26.188 8.644 26.076 8.788C25.964 8.924 25.876 9.08 25.812 9.256C25.748 9.432 25.716 9.628 25.716 9.844V13H24.876V5.02ZM31.2 13V12.304H32.604V8.212H31.272V7.516H33.468V12.304H34.752V13H31.2ZM32.988 6.364C32.82 6.364 32.676 6.304 32.556 6.184C32.436 6.064 32.376 5.92 32.376 5.752C32.376 5.576 32.432 5.428 32.544 5.308C32.664 5.188 32.812 5.128 32.988 5.128C33.156 5.128 33.3 5.192 33.42 5.32C33.548 5.44 33.612 5.584 33.612 5.752C33.612 5.92 33.548 6.064 33.42 6.184C33.3 6.304 33.156 6.364 32.988 6.364ZM39.588 13.084C39.236 13.084 38.948 13.024 38.724 12.904C38.5 12.784 38.328 12.6 38.208 12.352C38.088 12.096 38.008 11.776 37.968 11.392C37.936 11.008 37.928 10.552 37.944 10.024L38.088 6.112L38.988 6.004L39.108 5.992L39.12 6.076C39.08 6.132 39.044 6.188 39.012 6.244C38.988 6.3 38.968 6.396 38.952 6.532L38.844 7.888L38.88 8.104L38.796 10.084C38.772 10.692 38.788 11.164 38.844 11.5C38.9 11.828 39 12.056 39.144 12.184C39.288 12.304 39.48 12.364 39.72 12.364C39.984 12.364 40.216 12.312 40.416 12.208C40.624 12.104 40.84 11.972 41.064 11.812L41.328 12.496C41.056 12.696 40.776 12.844 40.488 12.94C40.2 13.036 39.9 13.084 39.588 13.084ZM36.84 7.516H40.788V8.224H36.84V7.516ZM45.264 13.12C44.864 13.12 44.5 13.06 44.172 12.94C43.844 12.812 43.56 12.628 43.32 12.388C43.088 12.148 42.908 11.852 42.78 11.5C42.652 11.14 42.588 10.732 42.588 10.276C42.588 9.812 42.652 9.4 42.78 9.04C42.916 8.68 43.096 8.38 43.32 8.14C43.552 7.892 43.82 7.704 44.124 7.576C44.436 7.448 44.764 7.384 45.108 7.384C45.42 7.384 45.712 7.436 45.984 7.54C46.256 7.644 46.492 7.804 46.692 8.02C46.892 8.228 47.048 8.496 47.16 8.824C47.28 9.152 47.34 9.54 47.34 9.988C47.34 10.052 47.336 10.12 47.328 10.192C47.328 10.256 47.324 10.32 47.316 10.384H43.416C43.432 10.736 43.492 11.044 43.596 11.308C43.7 11.564 43.836 11.776 44.004 11.944C44.172 12.104 44.364 12.224 44.58 12.304C44.804 12.384 45.04 12.424 45.288 12.424C45.48 12.424 45.66 12.404 45.828 12.364C45.996 12.316 46.152 12.248 46.296 12.16C46.448 12.064 46.584 11.948 46.704 11.812L47.184 12.28C47.032 12.464 46.856 12.62 46.656 12.748C46.464 12.876 46.252 12.968 46.02 13.024C45.788 13.088 45.536 13.12 45.264 13.12ZM43.452 9.712H46.464C46.464 9.456 46.428 9.228 46.356 9.028C46.292 8.82 46.196 8.644 46.068 8.5C45.948 8.348 45.8 8.236 45.624 8.164C45.456 8.084 45.264 8.044 45.048 8.044C44.856 8.044 44.672 8.076 44.496 8.14C44.328 8.204 44.172 8.308 44.028 8.452C43.884 8.588 43.76 8.76 43.656 8.968C43.56 9.176 43.492 9.424 43.452 9.712ZM51.42 13.132C51.02 13.132 50.652 13.06 50.316 12.916C49.98 12.772 49.688 12.572 49.44 12.316C49.2 12.06 49.012 11.76 48.876 11.416C48.74 11.064 48.672 10.68 48.672 10.264C48.672 9.856 48.74 9.48 48.876 9.136C49.012 8.784 49.2 8.48 49.44 8.224C49.688 7.968 49.98 7.768 50.316 7.624C50.652 7.48 51.016 7.408 51.408 7.408C51.856 7.408 52.256 7.5 52.608 7.684C52.968 7.86 53.26 8.108 53.484 8.428L52.944 8.956L52.86 9.04L52.8 8.98C52.8 8.916 52.784 8.856 52.752 8.8C52.728 8.744 52.668 8.668 52.572 8.572C52.396 8.412 52.208 8.3 52.008 8.236C51.808 8.172 51.576 8.14 51.312 8.14C51.08 8.14 50.86 8.188 50.652 8.284C50.444 8.38 50.256 8.52 50.088 8.704C49.928 8.88 49.8 9.096 49.704 9.352C49.608 9.608 49.56 9.892 49.56 10.204C49.56 10.516 49.608 10.804 49.704 11.068C49.8 11.324 49.932 11.548 50.1 11.74C50.268 11.932 50.468 12.084 50.7 12.196C50.94 12.3 51.196 12.352 51.468 12.352C51.652 12.352 51.828 12.328 51.996 12.28C52.164 12.224 52.324 12.148 52.476 12.052C52.628 11.948 52.768 11.824 52.896 11.68L53.4 12.268C53.128 12.556 52.824 12.772 52.488 12.916C52.16 13.06 51.804 13.132 51.42 13.132ZM57.588 13.084C57.236 13.084 56.948 13.024 56.724 12.904C56.5 12.784 56.328 12.6 56.208 12.352C56.088 12.096 56.008 11.776 55.968 11.392C55.936 11.008 55.928 10.552 55.944 10.024L56.088 6.112L56.988 6.004L57.108 5.992L57.12 6.076C57.08 6.132 57.044 6.188 57.012 6.244C56.988 6.3 56.968 6.396 56.952 6.532L56.844 7.888L56.88 8.104L56.796 10.084C56.772 10.692 56.788 11.164 56.844 11.5C56.9 11.828 57 12.056 57.144 12.184C57.288 12.304 57.48 12.364 57.72 12.364C57.984 12.364 58.216 12.312 58.416 12.208C58.624 12.104 58.84 11.972 59.064 11.812L59.328 12.496C59.056 12.696 58.776 12.844 58.488 12.94C58.2 13.036 57.9 13.084 57.588 13.084ZM54.84 7.516H58.788V8.224H54.84V7.516ZM62.652 13.132C62.436 13.132 62.232 13.1 62.04 13.036C61.848 12.972 61.672 12.876 61.512 12.748C61.36 12.612 61.228 12.444 61.116 12.244C61.004 12.044 60.916 11.804 60.852 11.524C60.796 11.244 60.768 10.928 60.768 10.576L60.78 7.516H61.62V10.576C61.62 10.92 61.652 11.212 61.716 11.452C61.78 11.692 61.868 11.884 61.98 12.028C62.1 12.172 62.236 12.276 62.388 12.34C62.54 12.404 62.7 12.436 62.868 12.436C63.06 12.436 63.244 12.4 63.42 12.328C63.596 12.248 63.752 12.132 63.888 11.98C64.032 11.828 64.144 11.632 64.224 11.392C64.304 11.152 64.344 10.868 64.344 10.54V7.516H65.184V12.148C65.184 12.292 65.188 12.436 65.196 12.58C65.212 12.716 65.248 12.856 65.304 13H64.476C64.436 12.904 64.408 12.812 64.392 12.724C64.376 12.628 64.364 12.532 64.356 12.436C64.356 12.34 64.356 12.248 64.356 12.16C64.268 12.312 64.164 12.448 64.044 12.568C63.924 12.688 63.788 12.792 63.636 12.88C63.492 12.96 63.336 13.02 63.168 13.06C63.008 13.108 62.836 13.132 62.652 13.132ZM67.428 7.516H68.328L68.292 9.112L68.184 8.932C68.232 8.684 68.316 8.464 68.436 8.272C68.556 8.08 68.7 7.92 68.868 7.792C69.036 7.656 69.22 7.556 69.42 7.492C69.62 7.42 69.828 7.384 70.044 7.384C70.332 7.384 70.596 7.436 70.836 7.54C71.084 7.636 71.304 7.784 71.496 7.984L71.112 8.656L71.064 8.764L70.98 8.716C70.964 8.652 70.94 8.592 70.908 8.536C70.876 8.48 70.808 8.412 70.704 8.332C70.576 8.252 70.456 8.2 70.344 8.176C70.24 8.144 70.12 8.128 69.984 8.128C69.784 8.128 69.584 8.168 69.384 8.248C69.184 8.32 69 8.436 68.832 8.596C68.672 8.756 68.544 8.96 68.448 9.208C68.352 9.456 68.304 9.752 68.304 10.096V13.012H67.428V7.516ZM74.532 13.132C73.908 13.132 73.428 12.992 73.092 12.712C72.756 12.424 72.588 12.06 72.588 11.62C72.588 11.324 72.66 11.06 72.804 10.828C72.948 10.588 73.144 10.388 73.392 10.228C73.648 10.06 73.944 9.932 74.28 9.844C74.616 9.756 74.972 9.712 75.348 9.712C75.484 9.712 75.62 9.716 75.756 9.724C75.9 9.724 76.048 9.732 76.2 9.748C76.36 9.756 76.524 9.772 76.692 9.796L76.716 10.456C76.572 10.432 76.424 10.416 76.272 10.408C76.128 10.392 75.984 10.38 75.84 10.372C75.696 10.364 75.556 10.36 75.42 10.36C75.132 10.36 74.868 10.384 74.628 10.432C74.388 10.48 74.18 10.552 74.004 10.648C73.828 10.744 73.692 10.868 73.596 11.02C73.5 11.172 73.452 11.356 73.452 11.572C73.452 11.74 73.48 11.884 73.536 12.004C73.6 12.116 73.684 12.208 73.788 12.28C73.892 12.344 74.012 12.392 74.148 12.424C74.292 12.456 74.448 12.472 74.616 12.472C74.928 12.472 75.204 12.424 75.444 12.328C75.692 12.224 75.9 12.076 76.068 11.884C76.244 11.692 76.376 11.456 76.464 11.176C76.552 10.896 76.596 10.576 76.596 10.216C76.596 9.672 76.532 9.248 76.404 8.944C76.276 8.64 76.084 8.424 75.828 8.296C75.58 8.168 75.26 8.104 74.868 8.104C74.604 8.104 74.344 8.156 74.088 8.26C73.832 8.356 73.6 8.508 73.392 8.716L72.972 8.164C73.228 7.908 73.524 7.716 73.86 7.588C74.196 7.46 74.552 7.396 74.928 7.396C75.288 7.396 75.616 7.44 75.912 7.528C76.208 7.616 76.46 7.764 76.668 7.972C76.884 8.172 77.048 8.444 77.16 8.788C77.28 9.132 77.34 9.564 77.34 10.084V13H76.404V12.16C76.3 12.36 76.172 12.524 76.02 12.652C75.876 12.78 75.72 12.88 75.552 12.952C75.384 13.016 75.212 13.06 75.036 13.084C74.86 13.116 74.692 13.132 74.532 13.132ZM78.948 13V12.304H80.568V5.716H79.02V5.02H81.444V12.304H83.052V13H78.948ZM92.496 13V6.268H90.372V5.512H95.556V6.268H93.348V13H92.496ZM96.876 5.02H97.704H97.824V5.104C97.776 5.152 97.744 5.204 97.728 5.26C97.72 5.316 97.716 5.412 97.716 5.548V8.488C97.86 8.264 98.028 8.072 98.22 7.912C98.42 7.744 98.628 7.616 98.844 7.528C99.068 7.432 99.292 7.384 99.516 7.384C99.844 7.384 100.132 7.46 100.38 7.612C100.636 7.764 100.832 8.008 100.968 8.344C101.112 8.68 101.184 9.124 101.184 9.676V13H100.344V9.7C100.344 9.316 100.3 9.012 100.212 8.788C100.124 8.556 100.004 8.392 99.852 8.296C99.7 8.192 99.528 8.14 99.336 8.14C99.192 8.14 99.044 8.164 98.892 8.212C98.74 8.26 98.592 8.332 98.448 8.428C98.312 8.524 98.188 8.644 98.076 8.788C97.964 8.924 97.876 9.08 97.812 9.256C97.748 9.432 97.716 9.628 97.716 9.844V13H96.876V5.02ZM105.264 13.12C104.864 13.12 104.5 13.06 104.172 12.94C103.844 12.812 103.56 12.628 103.32 12.388C103.088 12.148 102.908 11.852 102.78 11.5C102.652 11.14 102.588 10.732 102.588 10.276C102.588 9.812 102.652 9.4 102.78 9.04C102.916 8.68 103.096 8.38 103.32 8.14C103.552 7.892 103.82 7.704 104.124 7.576C104.436 7.448 104.764 7.384 105.108 7.384C105.42 7.384 105.712 7.436 105.984 7.54C106.256 7.644 106.492 7.804 106.692 8.02C106.892 8.228 107.048 8.496 107.16 8.824C107.28 9.152 107.34 9.54 107.34 9.988C107.34 10.052 107.336 10.12 107.328 10.192C107.328 10.256 107.324 10.32 107.316 10.384H103.416C103.432 10.736 103.492 11.044 103.596 11.308C103.7 11.564 103.836 11.776 104.004 11.944C104.172 12.104 104.364 12.224 104.58 12.304C104.804 12.384 105.04 12.424 105.288 12.424C105.48 12.424 105.66 12.404 105.828 12.364C105.996 12.316 106.152 12.248 106.296 12.16C106.448 12.064 106.584 11.948 106.704 11.812L107.184 12.28C107.032 12.464 106.856 12.62 106.656 12.748C106.464 12.876 106.252 12.968 106.02 13.024C105.788 13.088 105.536 13.12 105.264 13.12ZM103.452 9.712H106.464C106.464 9.456 106.428 9.228 106.356 9.028C106.292 8.82 106.196 8.644 106.068 8.5C105.948 8.348 105.8 8.236 105.624 8.164C105.456 8.084 105.264 8.044 105.048 8.044C104.856 8.044 104.672 8.076 104.496 8.14C104.328 8.204 104.172 8.308 104.028 8.452C103.884 8.588 103.76 8.76 103.656 8.968C103.56 9.176 103.492 9.424 103.452 9.712ZM111 13.096C110.504 13.096 110.064 12.976 109.68 12.736C109.304 12.488 109.008 12.152 108.792 11.728C108.576 11.296 108.468 10.804 108.468 10.252C108.468 9.692 108.576 9.2 108.792 8.776C109.008 8.344 109.304 8.008 109.68 7.768C110.064 7.52 110.504 7.396 111 7.396C111.496 7.396 111.932 7.52 112.308 7.768C112.692 8.008 112.992 8.344 113.208 8.776C113.424 9.2 113.532 9.692 113.532 10.252C113.532 10.804 113.424 11.296 113.208 11.728C112.992 12.152 112.692 12.488 112.308 12.736C111.932 12.976 111.496 13.096 111 13.096ZM111 12.376C111.32 12.376 111.6 12.284 111.84 12.1C112.08 11.916 112.268 11.664 112.404 11.344C112.548 11.024 112.62 10.656 112.62 10.24C112.62 9.824 112.548 9.456 112.404 9.136C112.268 8.816 112.08 8.568 111.84 8.392C111.6 8.208 111.32 8.116 111 8.116C110.688 8.116 110.408 8.208 110.16 8.392C109.92 8.568 109.728 8.816 109.584 9.136C109.448 9.456 109.38 9.824 109.38 10.24C109.38 10.656 109.448 11.024 109.584 11.344C109.728 11.664 109.92 11.916 110.16 12.1C110.408 12.284 110.688 12.376 111 12.376ZM115.428 7.516H116.328L116.292 9.112L116.184 8.932C116.232 8.684 116.316 8.464 116.436 8.272C116.556 8.08 116.7 7.92 116.868 7.792C117.036 7.656 117.22 7.556 117.42 7.492C117.62 7.42 117.828 7.384 118.044 7.384C118.332 7.384 118.596 7.436 118.836 7.54C119.084 7.636 119.304 7.784 119.496 7.984L119.112 8.656L119.064 8.764L118.98 8.716C118.964 8.652 118.94 8.592 118.908 8.536C118.876 8.48 118.808 8.412 118.704 8.332C118.576 8.252 118.456 8.2 118.344 8.176C118.24 8.144 118.12 8.128 117.984 8.128C117.784 8.128 117.584 8.168 117.384 8.248C117.184 8.32 117 8.436 116.832 8.596C116.672 8.756 116.544 8.96 116.448 9.208C116.352 9.456 116.304 9.752 116.304 10.096V13.012H115.428V7.516ZM121.524 15.088C121.268 15.088 121.032 15.048 120.816 14.968C120.608 14.888 120.424 14.772 120.264 14.62L120.636 14.032L120.708 13.924L120.78 13.972C120.796 14.036 120.824 14.088 120.864 14.128C120.904 14.176 120.98 14.236 121.092 14.308C121.164 14.332 121.24 14.348 121.32 14.356C121.4 14.372 121.484 14.38 121.572 14.38C121.788 14.38 121.968 14.328 122.112 14.224C122.264 14.12 122.396 13.96 122.508 13.744C122.62 13.528 122.728 13.256 122.832 12.928L123.876 9.7C123.996 9.332 124.112 8.968 124.224 8.608C124.336 8.248 124.412 7.884 124.452 7.516H125.316C125.26 7.884 125.172 8.256 125.052 8.632C124.932 9.008 124.804 9.384 124.668 9.76L123.3 13.624C123.108 14.16 122.86 14.536 122.556 14.752C122.26 14.976 121.916 15.088 121.524 15.088ZM120.552 7.516H121.452L123.228 12.088L122.844 13.156L120.552 7.516Z" fill="black"/>
</svg>
