<svg width="91" height="64" viewBox="0 0 91 64" fill="none" xmlns="http://www.w3.org/2000/svg">
<rect x="0.5" y="8.71387" width="89.4122" height="54.7863" fill="#D9D9D9" stroke="black"/>
<path d="M83.1985 36.1069H79.3511V39.7138H83.1985C83.6794 39.7138 84.6412 39.3772 84.6412 38.0306C84.6412 36.684 83.6794 36.1871 83.1985 36.1069Z" fill="black" stroke="black" stroke-linejoin="round"/>
<path d="M0.480896 20.2368C1.29129 20.2368 39.9876 20.2368 48.0916 20.2368" stroke="black" stroke-linejoin="round"/>
<path d="M89.9313 20.2368H56.2672" stroke="black" stroke-linejoin="round"/>
<rect x="0.480896" y="20.2368" width="20.1985" height="39.916" fill="black"/>
<circle cx="58.9122" cy="37.309" r="19.9389" fill="#D9D9D9" stroke="black"/>
<circle cx="58.9122" cy="37.3093" r="16.5725" fill="#424242" stroke="black"/>
<circle cx="58.9122" cy="37.3093" r="10.8015" fill="black" stroke="black"/>
<circle cx="50.2558" cy="28.6529" r="2.64504" fill="white"/>
<circle cx="54.103" cy="33.4621" r="1.20229" fill="white"/>
<line y1="59.6528" x2="90.4122" y2="59.6528" stroke="black"/>
<circle cx="11.542" cy="14.4657" r="0.942748" fill="black" stroke="black"/>
<rect x="14.9275" y="6.79004" width="9.58015" height="1.40458" fill="#D9D9D9" stroke="black"/>
<rect x="5.16983" y="7.61264" width="6.97328" height="0.721374" fill="#D9D9D9" stroke="black" stroke-width="0.721374"/>
<path d="M43.2988 6.43877C43.4912 7.78533 44.8217 8.28228 45.4629 8.36243H55.0812C56.2835 8.36243 57.7263 6.19832 57.0049 4.99603C56.4278 4.0342 55.1614 3.95405 54.6003 4.0342C54.3599 3.23268 54.3599 1.95026 53.1576 1.14869C52.5805 0.763938 50.8331 1.22885 50.0316 1.38916C49.5507 1.22885 48.2522 0.763957 46.9057 1.14869C45.5591 1.53342 45.3828 3.39296 45.4629 4.27464C44.6614 4.43495 43.1064 5.0922 43.2988 6.43877Z" fill="white" stroke="black"/>
<circle cx="48.5888" cy="4.03392" r="0.240458" fill="black"/>
<circle cx="51.4743" cy="4.03392" r="0.240458" fill="black"/>
<path d="M50.0316 5.50858C49.8713 5.50858 49.5026 5.46049 49.3102 5.26812C49.3102 5.50856 49.5507 6.22996 50.0316 6.22996C50.5125 6.22996 50.9934 5.02767 50.753 5.26812C50.5606 5.46049 50.1919 5.50858 50.0316 5.50858Z" stroke="black" stroke-linejoin="round"/>
<circle cx="82.4771" cy="38.0304" r="1.20229" fill="#D9D9D9"/>
</svg>
