<svg width="1057" height="710" viewBox="0 0 1057 710" fill="none" xmlns="http://www.w3.org/2000/svg">
<path d="M818.088 629.219L817.014 631.377L816.157 633.657L815.81 635.806L815.826 638.02L815.583 640.023L815.163 642L813.482 641.428L812.569 640.014L812.359 637.694L811.139 634.883L810.686 634.073L808.932 632.504L807.341 631.72L806.104 630.559L806.266 630.657L805.353 629.089L804.658 627.421L803.227 622.69L802.735 621.546L802.072 620.5L801.886 619.462L802.112 618.31L802.726 616.594L803.106 614.861L802.799 612.508L802.912 610.171L803.381 609.133L811.527 594.865L813.733 591.825L815.09 590.329L816.23 588.646L817.313 586.513L818.638 584.56L819.583 583.955L824.254 582.198L825.709 580.523L826.873 580L828.198 580.033L829.054 580.833L829.814 581.781L830.614 582.296L832.683 583.22L833.588 584.11L834 585.655L832.74 587.118L832.117 588.433L832.004 589.888L832.23 591.857L832.255 593.827L830.679 598.452L828.99 601.329L828.537 602.759L828.02 606.314L827.026 609.876L826.178 614.387L824.796 619.037L824.012 620.982L823.034 622.837L820.707 626.343L818.088 629.219ZM773.077 594.056L773.837 595.29L773.521 596.058L771.137 595.649L771 594.897L771.897 595.036L773.077 594.056Z" fill="white" stroke="#808080" stroke-linecap="round" stroke-linejoin="round"/>
<path d="M770.051 595.429L769.47 596.535L768.455 596.35L768.423 595.567L768.213 595.333L768.496 594.606L768.681 594.404L769.833 595.026L770.051 595.429ZM833.538 464.567L832.12 465.107L827.624 463.468L824.457 461.668L822.563 459.481L822.29 458.576L824.497 458.73L826.657 459.513L827.132 460.716L828.003 461.095L828.591 461.797L832.588 463.428L833.2 463.921L833.538 464.567ZM841.016 493.621L840.766 493.992L838.631 492.903L836.319 492.677L835.521 491.724L835.376 490.222L837.809 490.287L840.807 491.643L841.459 492.338L841.016 493.621ZM838.881 498.998L838.816 499.353L837.342 498.126L836.633 497.924L836.971 497.23L837.962 497.052L838.744 498.594L838.881 498.998ZM842.877 494.969L842.708 495.841L842.249 495.72L841.629 494.162L841.959 493.783L842.829 493.879L842.877 494.969ZM798.309 577.758L797.028 578.613L796.23 578.21L796.215 577.063L796.625 576.03L796.158 575.287L796.617 574.399L797.576 574.133L797.915 574.682L798.454 574.973L798.624 575.271L798.632 575.852L798.124 576.805L798.527 577.322L798.309 577.758ZM635.508 657.373L636.153 657.995L637.861 657.551L638.168 658.35L638.159 658.722L637.555 659.634L636.137 658.923L634.727 659.085L633.712 659.02L633.429 658.584L634.211 657.688L635.508 657.373ZM822.991 528.932L821.484 529.376H820.92L820.96 528.02L822.193 526.728L822.692 527.156L822.975 527.834L822.991 528.932ZM690.205 626.349L690.35 627.188L689.005 625.905L688.618 625.832L687.973 625.356L687.603 624.549L688.65 624.516L689.609 625.469L690.205 626.349ZM677.007 648.17L676.676 648.533L676.176 647.88L676.031 646.943L675.677 646.434L676.499 645.797L676.869 645.086L677.852 645.224L678.255 645.442L677.393 646.176L677.192 646.491L677.007 648.17ZM674.476 647.492L672.784 647.871L672.43 647.791L673.018 646.854L674.549 646.208L674.476 647.492ZM593.89 649.873L592.778 648.921L590.94 647.387L590.199 647.209L588.161 647.952L585.235 648.235L584.583 647.435L583.165 648.041L581.803 646.2L580.191 646.087L578.177 644.691L577.451 643.956L577.218 642.899L576.605 642.342L575.816 642.414L574.946 641.849L573.56 641.292L572.448 640.961L571.9 641.219L571.312 641.348L571.207 640.638L571.247 638.491L571.15 636.585L570.844 635.73L570.095 635.076L569.41 634.761L569.112 633.784L569.353 631.863L569.909 630.555L570.788 630.321L571.972 629.376L572.569 628.044L573.326 626.809L570.626 625.073L569.209 624.452L567.637 624.718L565.695 625.275L564.672 625.388L564.164 625.17L563.036 623.612L562.424 623.338L561.046 623.241L559.885 623.257L559.216 623.935L558.185 624.161L557.154 624.201L556.106 623.354L554.535 622.248L552.069 621.473L551.771 620.577L551.143 619.503L550.2 618.51L548.653 617.194L547.355 616.508L546.727 616.928L545.873 617.679L542.537 619.261L541.062 619.874L540.281 620.318L539.62 620.98L539.418 622.611L539.088 624.428L538.129 625.348L537.219 626.042L536.26 626.115L535.325 626.082L534.447 626.373L531.772 628.189L530.506 628.044L529.467 627.019L529.024 626.276L527.823 626.446L526.284 627.318L525.575 628.884L525.196 630.345L524.858 630.991L524.342 631.177L523.883 631.209L519.088 626.995L518.79 626.777L517.936 627.641L517.155 629.877L516.598 630.305L516.22 630.135L514.238 627.277L513.73 627.003L513.279 627.1L512.69 628.028L511.433 629.392L510.475 630.224L510.45 631.144L509.403 631.96L508.186 632.767L507.783 632.856L506.978 632.533L505.93 631.459L505.173 630.337L503.287 629.223L501.176 628.278L499.774 627.536L498.976 627.358L498.235 627.689L497.864 628.141L497.332 629.255L496.059 631.088L494.931 632.541L493.876 633.477L493.038 634.123L492.417 633.526L491.257 633.033H489.895L488.106 633.962L486.696 632.113L486.333 632.024L485.793 632.186L485.173 632.63L484.738 633.663L484.287 635.076L483.392 636.004L482.643 636.416L482.861 637.215L483.28 638.079L483.255 638.83L483.521 640.017L483.988 641.203L485.656 643.149L486.293 644.166L486.422 645.046L486.478 648.162L486.414 649.462L486.083 651.973L486.059 653.417L486.752 654.072L487.421 654.846L487.397 655.266L487.099 655.42L486.14 656.283L485.737 656.397L485.109 656.041L484.302 655.775L483.65 655.428L482.933 654.871L481.225 654.935L478.428 655.775L477.848 655.541L477.446 655.064L477.228 654.079L477.365 652.917L477.115 652.174L476.591 651.738L476.962 649.664L475.963 648.84L476.108 648.582L475.777 646.346L475.826 645.797L475.649 645.603L474.939 645.425L473.9 645.781L470.725 647.25L468.002 649.971L466.753 650.568L465.488 650.818L464.013 650.35L462.369 650.043L460.024 650.729L458.864 650.414L458.332 649.857L457.857 649.01L458.139 647.936L457.961 647.145L457.027 646.741L455.939 646.402L455.294 645.369L455.037 644.247L455.294 642.785L455.423 641.211L454.899 640.493L453.304 640.097L449.291 639.379L445.77 638.983L444.295 639.169L443.095 638.999L442.394 638.717L442.055 638.224L442.039 637.514L442.612 635.875L443.264 634.285L444.9 631.968L444.996 630.361L444.916 628.504L445.722 626.018L447.132 624.161L447.825 623.58L447.656 622.757L447.091 621.997L446.294 621.578L444.964 621.093L442.885 620.956L440.033 620.456L436.729 619.349L437.108 617.226L437.059 615.894L436.648 614.805L435.972 614.029L435.593 613.335L436.189 611.438L435.424 609.363L434.513 608.54L433.578 607.466L433.506 606.312L433.933 605.23L436.221 602.913L436.238 602.356L435.674 602.404L435.021 602.453L431.902 603.301L431.572 602.768L430.452 602.461L428.171 602.396L425.504 602.55L422.128 603.381L419.034 604.826L417.616 605.819L416.415 606.441L415.44 606.643L414.32 606.207L414.384 604.786L416.496 602.178L416.802 600.386L416.157 598.844L416.085 597.609L415.343 596.818L414.304 596.439L413.756 595.559L413.724 592.999L414.65 590.36L416.157 589.528L417.076 589.124L417.318 588.608L416.85 586.759L416.923 585.58L417.825 583.304L418.728 581.576L420.428 581.867L421.186 581.439L422.023 580.825L422.942 579.784L423.554 578.557L424.304 575.691L424.811 575.255L426.955 575.731L427.599 575.4L428.768 573.713L429.872 571.663L431.475 571.025L432.628 570.96L433.159 570.282L433.135 569.281L432.04 567.691L431.572 566.423L431.709 565.648L433.28 565.18L433.667 564.26L433.433 562.241L434.078 559.811L434.465 556.962L434.593 554.83L434.578 553.2L434.424 551.496L434.199 548.38L433.482 545.668L433.611 544.65L433.514 541.365L433.071 538.555L432.185 538.063L430.54 537.151L429.646 536.973L428.897 537.304L428.615 538.281L427.89 539.193L426.995 538.967L426.568 538.055L425.996 536.86L424.086 531.176L423.877 529.538L423.539 527.907L422.894 527.092L422.217 526.615L420.694 524.702L419.896 523.903L419.51 523.774L418.672 523.911H417.85L417.181 522.958L416.568 521.796L415.948 521.222L414.917 520.9L413.861 521.029L413.24 522.038L412.821 522.611L412.024 523.959L410.726 525.824L410.138 526.51L409.566 526.155L407.076 524.218L405.876 523.685L404.248 524.266L401.694 523.806L400.702 523.717L398.583 522.167L397.721 521.973L394.707 522.983L394.039 523.693L393.652 523.701L392.846 523.338L392.185 522.861L392.145 522.563L392.959 521.804L393.023 521.271L392.983 520.738L394.16 519.212L397.358 516.266L396.827 515.031L395.57 512.592L395.4 511.406L394.86 510.873L393.329 511.309L390.146 513.521L389.712 513.279L389.784 512.512L389.453 510.284L390.461 509.614L392.008 508.79L393.201 507.878L393.482 507.135L393.16 506.909L391.396 507.192L390.703 506.691L389.558 504.641L388.712 503.833L387.947 503.398L385.352 504.455L382.338 505.908L378.986 507.934L379.002 508.976L378.6 509.242L377.955 509.896L377.326 510.8L376.795 511.115L376.174 511.148L374.893 510.889L372.572 509.864L370.058 509.016L369.518 509.113L366.102 508.516L365.989 508.039L365.482 507.095L364.506 506.239L363.572 505.948L360.896 507.757L357.883 509.105L356.159 510.695L354.748 512.278L353.129 512.585L353.048 513.561L352.363 514.441L351.13 515.523L348.689 516.904L347.037 517.646L341.784 518.324L339.914 518.785L339.132 519.511L338.294 521.352L337.625 523.047L336.175 524.444L333.532 526.308L330.43 527.826L329.576 528.835L329.423 529.433L329.801 529.651L330.18 530.103L330.188 530.789L329.785 531.54L327.755 532.84L326.618 533.461L325.482 533.857L324.209 533.929L322.984 533.752L322.646 533.542L322.163 533.817L321.051 534.091L320.075 534.18L317.94 535.625L316.764 535.641L315.305 535.326L313.371 535.076H311.977L311.937 534.309L312.155 532.024L311.526 531.491L309.592 530.926L307.424 530.184L306.377 529.393L305.797 529.126L304.983 529.263L303.669 530.095L302.421 531.072L301.438 531.152L300.43 530.692L299.463 530.095L296.168 529.247L294.693 529.118L292.058 529.263L289.907 529.086L289.568 528.827L289.577 528.359L289.891 527.439L290.076 526.535L289.818 526.018L287.618 525.388L285.612 524.936L283.484 524.767L282.05 525.089L280.657 525.8L279.496 527.075L277.82 527.632L275.822 528.585L274.855 529.473L273.396 531.378L271.269 533.712L269.335 535.988L268.336 538.2L267.006 539.597L265.661 540.598L264.694 543.351L263.678 542.479L262.51 541.228L262.236 539.516L263.63 534.931L263.961 533.041L263.614 532.323L263.187 530.458L262.365 529.845L260.036 528.868L259.295 528.835L258.497 529.505L257.715 529.933L256.676 530.361L254.074 531.16L251.761 531.532L251.205 531.831L251.028 532.363L251.213 533.001L249.722 532.759L248.167 532.622L246.91 532.71L243.84 533.921L242.801 534.034L241.64 533.913L240.069 533.873L237.08 533.905L234.501 533.599L232.406 531.911L230.915 531.169L229.336 530.595L227.748 530.167L227.217 529.263L226.717 528.811L225.403 528.658L224.372 528.989L223.719 531.265L223.172 531.717L221.858 531.919L220.48 531.346L218.571 530.175L217.813 528.876L217.168 528.456L216.161 529.029L216.105 530.692L215.911 531.814L214.711 532.266L214.01 531.936L213.454 530.789L212.052 528.069L210.658 526.47L209.256 525.404L204.639 525.429L201.214 525.114L199.667 524.678L199.079 523.62L199.643 521.521L200.312 519.882L200.295 519.503L199.731 519.309L198.748 519.18L195.058 520.23L194.05 520.108L193.406 519.753L192.624 519.446L191.98 518.962L191.528 518.252L188.33 516.5L187.387 515.539L185.687 514.336L184.244 513.513L183.325 511.172L182.504 508.911L182.044 507.717L180.674 507.079L179.192 506.594L176.678 507.571L174.623 508.322L173.108 508.395L170.916 506.086L169.168 503.583L167.097 501.403L165.719 500.306L163.278 500.201L160.521 498.965L156.839 496.172L154.18 494.089L149.595 491.772L148.532 490.804L148.121 489.972L147.492 488.341L146.533 486.791L143.278 486.113L139.604 485.637L135.728 486.581L132.932 491.207L131.586 492.216L130.434 492.273L129.491 491.094L128.709 489.851L128.282 488.478L126.348 487.461L124.165 486.138L123.053 485.104L121.788 484.458L120.619 484.184L118.355 483.312L115.793 482.327L114.592 482.19L114.503 481.487L114.866 479.994L114.648 478.557L113.875 477.976L112.698 478.129L109.991 476.095L109.886 476.07L109.854 475.99L109.08 475.408L107.751 474.577L105.503 474.633L103.794 474.94L102.546 474.093L100.741 472.752L100.418 472.454L99.8863 471.961L98.0573 469.37L95.8894 466.302L94.7936 465.85L94.2295 466.084L93.5852 467.715L93.1018 467.553L92.2957 467.667L91.345 468.231L90.4342 468.385L89.8543 468.215L89.6045 467.812L89.8622 465.656L89.3143 464.986L89.8062 463.485L90.628 462.185L89.7816 461.224L88.7424 459.844L88.6292 458.6L89.1934 457.026L89.4673 455.678L89.2981 455.186L88.4763 454.435L85.342 450.737L85.1728 450.342L84.6406 449.115L84.3992 447.25L83.988 445.918L83.5046 444.893L83.537 444.416L83.8916 444.166L85.8574 443.916L87.6707 443.762L88.8633 443.415L89.4835 444.158L89.7737 445.296L90.0801 445.894L91.2319 446.975L92.6341 448.009L93.988 447.871L95.1807 447.427L96.2199 445.74L96.9532 445.328L97.8075 445.256L97.7991 445.135L97.7593 444.045L98.0573 441.365L97.9525 440.291L97.5655 439.322L97.6383 438.249L97.5094 436.682L96.5263 435.617L95.8894 435.205L95.793 434.632L96.1151 433.558L96.3487 432.323L95.9538 431.273L95.1561 430.805L94.2295 430.014L93.1259 428.948L92.578 428.173L91.6834 427.318L90.5955 425.986L90.386 423.063L90.2812 419.988L89.9025 418.454L89.2981 416.007L89.3871 415.184L89.7496 414.563L92.8357 412.593L93.5046 411.826L93.6172 411.244L93.4962 410.381L92.9164 409.42L91.6834 408.669L89.9266 407.45L88.3312 406.175L85.6562 405.4L82.4009 404.455L81.6273 403.527L80.8375 401.258L79.4997 397.803L78.0735 394.114L76.9777 391.837L76.9211 390.739L77.5821 387.946L77.5015 387.348L76.9295 387.146L75.8337 387.51L74.9554 387.954L74.2058 387.72L73.505 387.251L73.3599 387.09L73.3034 387.026L72.006 387.324L69.3954 387.494L68.4846 387.461L67.2196 387.421L64.6007 386.783L61.0715 385.92L57.4296 384.717L55.4953 383.764L54.8186 383.433L53.1666 382.432L51.9902 381.576L51.7807 379.332L50.9347 379.51L48.9281 380.317L46.6156 380.834L45.3428 380.842L44.8269 380.478L44.0617 378.113L43.5054 377.443L42.4662 377.176L41.338 376.757L40.7739 376.135L40.645 375.352L41.1447 374.456L41.7408 373.77L41.8377 369.547L41.4506 368.046L41.1285 366.787L40.2983 365.22L39.5247 364.252L38.3483 363.355L36.5354 362.419L34.9238 362.072L32.9659 362.75L32.3452 362.492L31.5312 359.602L31.0075 359.012L27.5348 357.826L25.9634 357.551L24.1585 357.922L23.1272 358.237L22.297 357.705L21.0001 357.034L19.7268 356.574L18.1475 356.558L17.1241 356.849L16.8664 356.679L16.3746 356.154L14.2716 354.564L14.1988 354.16L17.4221 352.586L19.3156 351.989L20.315 351.513L20.5245 351.618L21.0158 352.344L22.2729 352.82L23.1512 352.691L23.6106 352.328L25.1657 351.464L26.3825 350.455L27.0676 349.623L26.6967 348.315L24.7792 346.733L23.5624 345.886L23.1916 345.313L23.5058 343.593L23.9568 341.889L23.6672 341.236L23.3042 340.679L23.1434 338.814L22.3132 336.561L21.4029 335.245L21.153 333.477L21.1048 331.815L22.2084 329.215L21.7978 328.085L20.6371 327.084L16.6485 325.275L12.563 324.072L11.0079 324.121L10.041 324.048L8.90491 325.106L8.2203 326.486L7.26127 326.607L5.52074 326.018L4.3522 325.13L3.53038 323.273L2.88561 320.884L2.53101 320.133L2.71643 319.487L3.11922 318.914L4.23121 318.373L4.41662 317.824L4.24744 317.146L3.35332 316.29L2.43462 315.079L1 312.56L1.27394 311.172L1.49968 309.17L1.41902 308.112L2.86987 307.838L4.72302 307.297L5.58517 306.401L6.18125 305.48L6.3101 304.915L5.75435 302.719L5.02106 301.734L4.9404 300.976L5.30287 300.395L5.79468 299.393L6.72913 297.335L7.63996 296.027L8.13965 295.696L9.25164 295.389L11.9669 295.026L14.8839 294.105L18.3571 291.353L19.5089 290.57L21.0242 290.174L22.1037 290.206L22.297 289.867L21.5961 288.156L21.7653 287.534L22.1843 287.05L22.7081 286.824L25.1013 287.728L26.9466 287.631L29.1868 287.098L34.0134 284.079L34.6095 284.127L35.093 284.531L35.6812 286.347L36.35 290.182L36.7125 290.658L40.0726 290.707L42.3531 289.31L43.3525 288.979L44.9799 289.205L45.8341 288.551L46.7366 288.091L47.7763 289.698L49.1219 288.931L50.5639 287.712L51.2652 286.452L52.2484 285.088L53.0136 283.36L53.32 281.722L53.6904 280.955L54.5043 280.164L56.5026 276.789L57.945 275.925L59.3069 275.619L62.6753 276.2L64.4316 276.127L69.5725 276.571L71.9499 275.925L73.6014 275.279L76.0349 275.384L78.9199 274.868L82.7634 270.629L82.8037 269.725L83.0373 268.765L84.4233 267.82L86.1559 266.956L89.5966 264.881L96.5986 261.588L99.1049 260.272L100.152 260.304L102.73 259.481L107.251 257.866L108.532 255.856L109.725 255.46L115.011 255.097L115.341 254.871L115.535 254.532L115.245 253.079L114.898 251.827L115.309 251.456L115.76 250.883L115.688 250.076L114.834 247.468L114.374 244.99L114.076 242.753L114.133 241.922L114.777 240.485L115.607 239.169L118.605 237.942L120.587 237.57L120.667 236.771L119.064 236.271L117.904 235.472L117.694 235.011L117.75 234.495L118.024 234.018L120.039 233.122L121.933 232.234L124.245 232.775L124.705 232.428L124.841 231.532L124.35 230.636L123.882 229.167L122.811 228.416L122.77 227.512L123.431 225.954L122.513 223.063L121.522 220.512L119.838 216.145L118.726 214.885L118.105 212.867L117.404 211.81L117.469 210.244L117.581 209.137L117.404 206.95L117.082 204.576L117.404 202.162L118.024 200.572L117.855 199.959L118.186 199.498L119.129 199.345L119.58 198.691L119.129 198.021L117.493 197.504L115.672 196.697L113.48 196.786L111.224 196.923L110.104 196.326L109.121 195.567L109.064 195.074L110.418 193.791L112.295 192.459L115.212 191.869L118.436 190.989L120.063 190.352L122.231 189.891L124.737 189.698L126.002 189.835L129.225 188.979L134.309 187.332L138.919 185.944L140.474 185.12L141.626 185.944L142.158 187.76L143.503 188.705L144.841 189.157L145.607 189.133L147.911 188.43L150.393 187.914L151.376 188.196L152.641 189.125L154.06 189.956L154.801 189.916L155.445 189.278L156.098 187.978L156.517 186.323L156.597 184.58L156.356 183.514L155.856 183.118L153.6 182.489L151.441 181.455L151.191 180.511L151.239 179.841L151.803 178.194L153.213 175.174L154.632 170.993L155.381 167.691L157.75 162.758L159.611 157.6L162.625 150.164L163.132 148.695L163.406 146.338L163.568 145.369L164.615 144.86L166.388 145.361L170.707 147.064L173.995 148.493L175.372 148.978L177.419 149.486L180.586 150.084L182.415 149.906L184.018 149.551L186.154 149.519L189.49 149.963L190.521 149.979L191.802 150.035L192.713 150.754L193.172 152.393L193.865 153.127L195.106 152.853L197.765 151.416L199.465 150.286L201.584 148.647L203.688 148.421L205.92 148.057L206.693 147.242L207.515 145.329L208.885 143.884L209.111 142.051L208.627 140.759L207.676 138.652L207.708 137.231L207.249 133.098L206.637 129.377L207.265 126.373L208.369 123.015L208.804 121.99L209.506 120.633L210.497 119.011L211.882 118.502L215.783 118.155L219.4 117.469L221.246 116.766L223.155 116.339L224.3 115.822L226.274 113.448L227.208 112.076L227.893 108.435L227.394 106.683L227.821 105.133L228.772 104.221L230.11 103.309L231.012 103.155L232.922 102.881L236.056 102.97L237.66 103.414L239.279 103.616L240.302 103.285L240.987 102.59L242.035 102.372L243.623 102.041L245.242 101.63L246.136 101.71L246.322 102.736L246.169 103.543L246.483 104.625L247.128 105.335L246.918 106.11L246 106.554L245.097 107.152L244.895 107.975L246.031 109L246.426 109.985L248.328 110.574L249.811 111.236L250.367 111.866L250.198 112.577L249.513 113.344L248.852 114.167L248.771 114.659L248.981 115.233L250.415 115.612L252.067 116.25L254.686 117.073L256.483 118.591L258.263 119.011L259.118 120.496L259.279 122.644L261.108 123.741L263.808 125.259L265.177 125.542L266.096 126.406L267.417 127.455L268.594 127.786L269.988 127.939L272.292 126.971L274.871 126.882L276.281 127.439L277.619 129.53L278.561 130.192L279.117 130.781L280.02 131.346L280.938 131.427L282.3 130.967L283.13 130.038L284.323 130.232L284.774 130.83L284.991 131.863L285.62 133.138L287.135 134.091L289.246 134.664L289.544 135.124L289.834 136.4L290.406 137.288L291.172 138.442L291.905 140.549L292.058 142.285L292.397 143.238L293.38 144.796L294.943 147.282L296.192 149.389L297.634 149.801L298.859 150.471L299.56 152.021L300.857 154.944L301.067 156.857L301.18 158.278L301.607 158.924L301.695 159.731L300.616 162.791L299.697 164.171L299.584 165.334L300.205 167.352L301.051 168.918L301.14 170.411L300.414 171.509L299.157 172.882L298.561 173.665L297.586 174.351L296.095 176.991L295.426 179.905L295.273 181.407L295.837 182.497L296.788 183.691L297.022 184.725L298.577 187.034L298.988 188.463L299.624 188.511L300.309 188.043L301.969 188.01L303.484 188.511L304.935 189.569L306.49 190.134L308.714 189.988L309.906 190.553L311.188 191.022L313.83 191.183L315.813 191.175L318.866 191.191L321.332 191.902L325.668 192.467L328.343 192.426L331.945 191.894L334.153 192.225L340.679 193.016L344.507 193.839L346.924 194.768L348.632 196.237L350.583 198.53L352.13 199.579L356.295 200.217L359.148 202.889L361.388 203.89L365.143 206.473L367.802 207.482L370.977 208.411L376.158 208.015L376.44 208.371L376.037 209.775L375.723 211.697V213.085L376.255 213.796L378.237 214.215L379.172 214.893L379.889 216.201L380.3 217.017L381.96 221.021L384.627 226.922L384.933 229.183L385.844 230.644L388.736 232.961L390.26 234.672L392.524 236.473L393.265 238.136L393.434 240.283L394.006 240.832L398.148 240.34L401.734 240L408.164 239.387L417.02 240.509L426.149 241.591L434.223 242.543L438.204 243.012L447.188 244.013L452.184 242.737L456.092 241.736L457.865 241.873L465.334 242.996L469.71 243.601L475.222 244.36L479.049 244.642L482.183 244.626L483.626 244.941L485.02 245.434L485.947 246.144L488.807 249.761L490.41 251.351L493.577 252.554L500.797 253.926L504.794 254.758L509.387 255.71L512.409 257.147L515.89 258.819L520.402 260.982L525.341 260.038L530.651 259.02L533.98 258.383V262.904L538.733 263.267L540.232 263.21L542.335 264.211L543.52 263.791L544.64 262.815L546.05 261.265L548.072 260.587L551.57 258.851L552.424 258.431L557.621 255.969L565.381 252.925L568.862 251.448L569.902 251.117L571.867 250.366L573.197 249.841L575.542 249.422L578.725 249.155L582.206 248.574L590.078 247.5L591.061 247.395L595.485 246.951L597.362 246.532L600.175 246.749L603.841 246.903L606.275 247.177L609.506 246.959L613.946 246.669L617.54 246.717L619.32 246.354L621.947 245.216L623.72 244.311L626.491 243.214L629.932 242.083L632.325 241.05L633.913 240.364L635.839 239.718L636.339 238.886L636.894 238.249L637.918 237.183L639.755 235.189L641.157 233.445L641.85 232.67L643.421 230.926L644.694 229.61L646.314 227.835L647.684 227.261L649.416 226.769L653.977 225.025L654.879 224.646L655.637 224.573L657.248 223.16L658.61 221.941L659.497 221.021L661.342 220.69L662.293 220.028L662.462 219.164L662.268 217.84L661.382 216.492L660.633 215.313L657.99 213.061L656.588 211.664L655.153 209.872L654.574 208.185L653.598 207.111L653.123 206.158L653.276 205.053L654.63 203.091L655.065 201.848L655.629 199.652L656.902 196.366L657.941 194.832L659.142 193.331L661.68 191.312L664.001 190.933L665.387 191.337H668.481L670.536 191.441L672.051 192.451L673.735 194.445L675.629 195.179L681.543 196.737L684.073 197.068L685.886 197.133L688.553 197.65L689.456 197.755L690.818 198.11L691.954 197.73L693.67 196.398L695.83 194.897L696.756 194.55L698.473 193.904L699.335 193.29L700.833 191.611L702.792 190.303L705.177 188.341L706.353 186.864L706.611 185.912L706.869 184.878L707.61 184.337L709.06 183.837L710.688 183.699L713.799 184.588L717.997 184.329L718.94 184.2L722.767 183.691L724.492 183.272L726.933 182.868L728.802 181.221L731.3 179.259L733.121 178.17L734.338 177.96L735.853 176.829L736.594 175.61L736.393 174.537L736.111 173.649L736.997 172.01L738.601 169.128L740.108 167.78L741.348 166.69L742.138 164.946L743.121 164.445L744.322 164.252L746.014 163.065L747.255 162.823L749.318 163.388L752.371 163.533L754.322 163.598L755.433 163.388L755.836 162.75L755.828 161.765L756.449 159.578L756.683 158.851L757.247 158.52L759.124 158.471L760.397 159.263L761.267 159.917L762.476 160.005L763.725 159.578L765.401 157.801L768.173 156.776L769.648 156.518L772.266 155.678L773.918 155.977L776.956 156.219L778.133 156.009L779.414 156.219L780.574 155.016L781.501 154.734L783.451 155.283L784.684 156.211L786.988 157.374L789.913 157.914L792.371 157.632L794.893 158.124L796.384 158.076L797.085 157.616L799.147 156.639L799.639 155.323L799.437 154.048L799.671 152.602L799.067 151.537L797.786 149.963L797.294 148.913L797.246 147.541L796.448 146.233L794.539 144.651L793.273 143.916L790.679 141.179L789.8 140.533L789.502 140.081L789.196 139.161L788.237 138.725L786.98 138.006L786.303 137.28L785.86 136.012L785.594 135.181L784.482 134.495L783.37 134.107L782.113 133.623L780.034 132.904L778.833 131.483L776.714 128.819L775.522 127.923L771.058 127.584L769.462 126.938L767.649 127.156L766.57 127.584L764.176 127.576L762.936 127.843L761.356 129.594L759.261 131.879L757.529 133.276L756.304 134.721L755.732 135.237L754.612 134.923L753.081 133.3L750.881 131.847L748.842 131.185L747.972 130.821L745.547 130.45L743.669 130.563L741.276 131.112L738.939 131.015L737.884 130.668L736.401 130.7L733.702 132.21L732.307 133.93L730.655 134.471L729.165 133.34L727.44 132.008L725.797 130.337L724.781 128.787L724.218 124.686L726.192 123.459L728.714 122.087L728.907 119.915L728.826 117.493L729.326 114.797L731.622 112.31L732.855 110.243L733.009 108.96L734.112 106.821L735.176 104.56L736.619 101.589L739.358 96.3096L742.597 90.053L744.209 86.9287L747.754 88.8663L750.043 89.8754L753.902 91.4093L757.899 91.7564L761.719 93.4114L763.685 93.9119H764.732L770.139 89.8834L774.708 86.4686L779.962 83.8045L783.821 83.4413L786.722 82.6662L788.664 81.4714L789.808 79.4693L790.155 76.6599L789.381 74.9646L787.488 74.3753L787.004 73.7779L787.923 73.1804L788.6 72.0099L789.027 70.2661L790.123 68.6112L791.879 67.045L792.846 65.3094L793.032 63.3961L794.087 61.4908L796.013 59.5856L797.068 57.8096L797.254 56.1707L798.229 54.1686L800.88 50.6165L802.604 46.5154L805.537 43.698L810.259 40.8078L813.208 37.9338L814.385 35.076L814.296 32.5492L812.934 30.3614L812.677 28.1333L813.522 25.8648L812.781 24.1614L810.453 23.0312L807.673 22.7486L804.442 23.3218L802.628 22.6114L802.226 20.6254L803.088 19.0188L805.223 17.7918L808.728 14.7967L813.612 10.0256L818.462 7.3776L825.706 6.61878L831.548 5.05263L837.503 3.45419L841.798 2.66298L842.531 3.19588L844.876 3.32497L848.824 3.05052L852.499 2.36438L855.891 1.25832L858.574 1L860.548 1.58931L861.676 1.62159L862.458 1.69426L862.885 1.68626L863.715 1.21804L866.012 2.05753L870.387 4.53599L873.143 5.64194L874.271 5.37561L875.504 6.06175L876.841 7.70859L878.509 8.67743L881.507 9.12139L884.48 10.9217L885.689 11.0185L886.108 10.0094L887.22 9.42824L889.017 9.28288L891.619 10.1709L895.02 12.0923L897.155 12.94L898.017 12.7058L898.936 13.0611L899.669 13.9652L899.734 15.0712L899.484 15.6686L900.298 16.6051H901.241L902.78 17.0571L903.98 18.7121L905.06 19.4791L905.818 20.141L905.954 20.69L906.027 21.247L905.801 21.6749L905.39 22.3853L905.261 23.1523L905.777 24.008L907.687 24.6296L908.34 25.2673L908.485 26.0908L909.081 26.995L910.378 28.0445L910.878 28.9244L910.58 29.6268L910.958 30.2161L911.603 30.6762L911.74 32.3473L911.797 33.308L912.844 34.3898L913.061 36.5937L913.795 39.0318L916.269 42.366L917.083 44.1662L916.873 46.3137L917.228 47.3147L918.355 47.8071L918.887 48.7113L918.823 50.0353L919.266 50.8587L919.621 51.7306L919.379 53.0868L919.733 54.314L920.305 55.0324L920.717 56.3564L920.942 58.0033L922.594 60.6109L925.664 64.1791L927.541 66.9482L928.227 68.9179L928.234 70.5326L927.566 71.8L927.525 72.7203L928.122 73.3015L928.299 74.0846L928.057 75.0696L929.056 76.2402L932.416 78.2664L931.071 81.3665L930.716 83.5462L930.901 85.8389L931.74 87.4535L933.222 88.3899L934.141 89.3668L934.504 90.384L936.284 91.4981L939.483 92.7009L943.585 92.9108L948.581 92.1277L951.643 91.9986L952.763 92.5234L953.141 93.3145L952.787 94.372L953.633 95.0664L955.687 95.3973L957.106 96.0592L957.879 97.0604L958.83 97.3429L959.95 96.907L961.038 96.9715L962.102 97.5286L962.795 97.3348L963.391 96.7294H964.358L965.349 96.7455L965.961 98.2067L966.961 99.0302L968.338 99.2158L970.433 101L974.656 106.062L977.396 107.862L980.143 108.427L983.56 108.54L984.664 110.502L983.777 112.569L983.544 114.296L984.325 114.918L985.397 116.944L986.912 118.123L987.202 119.051L987.903 120.093L987.605 122.014L986.308 124.823L986.662 127.213L988.66 129.191L989.813 131.096L990.111 132.929L990.611 134.043L991.311 134.438L993.366 134.301L996.774 133.639L999.272 133.752L1000.87 134.648L1004.81 134.68L1011.1 133.857L1015.07 133.607L1016.73 133.93L1018.21 132.751L1019.51 130.071L1020.72 128.811L1021.86 128.973L1023.66 128.109L1026.12 126.228L1028.26 125.316L1030.96 125.405L1033.85 125.501L1035.66 124.71L1037.36 123.063L1040.3 121.602L1046.58 119.697L1048.09 119.398L1048.8 119.503L1050.89 119.802L1052.74 120.545L1054.5 122.046L1054.77 123.007L1054.57 124.266L1054.19 125.001L1053.46 125.824L1052.79 127.156L1053.22 128.198L1054.24 130.426L1055.07 132.032L1056 133.922L1055.58 134.6L1055.02 135.907L1053.31 138.128L1052.37 138.975L1051.37 139.807L1049.63 140.009L1048.88 140.202L1048.05 140.549L1047.51 141.333L1046.91 141.882L1045.92 142.987L1045.84 143.94L1046.29 145.353L1046.52 146.798L1045.39 148.09L1044.52 150.076L1044.26 150.673L1043.82 152.175L1043.7 152.691L1043.42 155.848L1042.3 157.995L1040.73 160.498L1041.08 161.983L1041.35 163.364L1040.96 164.034L1040.87 164.615L1040.63 165.947L1040.14 166.456L1038.72 167.287L1037.86 168.288L1038.04 169.806L1037.6 171.114L1036.95 172.276L1036.27 173.027L1035.28 173.511L1034.62 173.923L1034.13 175.392L1033.98 176.531L1033.52 177.661L1033.8 178.824L1033.29 179.825L1031.9 180.519L1031.11 180.93L1030.38 181.1L1028.98 182.182L1027.73 185.904L1027.45 188.067L1027.74 189.988L1025.98 191.191L1024.68 192.144L1023.86 191.797L1023 191.474L1021.01 191.054L1020.02 190.771L1018.01 190.15L1014.8 189.351L1011.67 188.422L1009.7 187.938L1008.15 187.55L1006.98 186.913L1005.98 185.774L1005 186.234L1004.09 187.575L1002.57 188.374L1001.88 189.843L1001.27 190.973L999.7 192.483L998.998 193.105L995.912 194.13L995.219 194.469L992.705 194.687L991.851 195.139L990.965 196.092L990.723 197.036L991.344 198.029L992.319 200.023L992.77 201.387L993.438 204.076L995.671 212.512L994.945 213.965L994.269 220.262L994.43 221.4L994.366 223.168L994.405 224.46L994.865 224.775L995.461 225.227L995.767 225.986L995.687 227.14L995.381 227.988L994.905 229.667L994.276 232.089L993.584 233.025L993.124 233.76L992.73 234.269L992.681 235.98L992.423 237.11L991.335 237.514L990.256 238.168L988.975 237.926L987.847 238.063L986.452 238.499L983.946 239.007L982.496 239.686L981.803 240.178L981.32 240.767L981.231 241.333L981.57 241.631L982.972 241.865L983.939 242.931L984.075 244.102L983.084 244.764L982.593 244.029L981.763 243.795L980.216 242.769L979.088 241.639L978.241 240.388L978.282 237.716L978.137 237.312L976.598 236.763L976.138 235.964L975.413 235.585L974.374 235.827L973.592 235.568L972.972 235.132L972.23 235.084L971.586 235.778L971.247 237.264L970.176 239.726L970.079 241.211L969.612 243.335L969.152 246.023L968.774 246.58L967.565 246.661L967.154 246.838L966.525 247.751L965.768 247.904L965.099 247.371L964.044 246.838L963.044 246.766L962.142 247.298L961.087 248.461L960.49 249.397L960.28 250.277L960.111 251.359L959.048 252.401L958.073 252.942L956.058 254.467L955.413 255.105L953.971 255.113L952.408 255.057L950.297 255.468L946.856 255.678L944.793 255.371L942.247 255.662L940.265 256.163L939.983 256.905L940.055 258.011L940.458 258.73L940.942 259.206L941.764 260.683L942.626 262.112L943.939 263.033L944.479 264.026L944.511 264.946L943.891 266.108L942.948 267.626L942.07 268.563L941.409 268.53L940.402 267.99L939.717 267.303L938.089 267.045L934.109 267.481L932.118 267.174L931.168 266.617L929.499 266.577L926.921 265.834L925.35 265.6L924.608 265.124L924.463 264.034L923.722 263.283L923.311 262.379L922.376 261.249L921.474 260.683L920.588 260.441L919.621 261.127L918.589 261.741L917.816 261.604L917.445 261.773L917.018 262.282L915.366 263.339L914.971 264.3L914.311 266.343L913.851 268.442L913.448 269.184L912.78 269.313L912.095 269.943L910.66 271.913L909.363 273.721L907.477 274.948L906.591 276.071L906.14 277.088L904.802 278.517L902.828 278.775L901.256 279.187L900.298 279.3L899.605 279.873L899.105 280.753L898.863 281.1H897.977L897.091 281.843L894.923 283.538L893.159 283.853L890.943 284.983L888.993 285.839L888.179 286.323L887.961 286.856L887.679 287.534L886.736 287.671L885.826 287.639L883.804 289.197L882.772 290.513L878.783 293.323L877.156 294.905L876.737 296.947L876.527 296.794L875.101 298.578L872.313 300.273L866.35 300.653L864.464 299.45L863.779 300.281L863.256 301.395L861.693 301.767L859.243 301.864L857.873 302.598L857.14 303.414L853.788 303.68L852.555 304.77L850.468 305.158L841.75 309.921L839.856 311.923L838.059 314.264L836.794 315.442L835.666 316.266L834.635 316.605L833.627 317.412L832.604 317.517L831.564 317.146L830.396 317.275L829.63 318.26L830.275 319.535L829.921 320.076L827.632 320.771L824.232 321.223L822.789 322.054L822.29 322.53L821.532 322.773L820.807 321.126L820.549 318.954L821.96 318.429L823.256 318.155L830.444 315.152L829.542 312.891L830.178 311.907L831.79 310.308L832.837 309.517L832.265 309.226L827.559 309.751L824.852 309.711L823.466 309.549L823.885 308.185L823.651 306.821L823.329 306.304L825.73 304.746L826.818 304.358L827.648 304.382L827.592 303.438L826.899 302.025L827.64 300.192L832.531 298.037L833.7 296.083L835.666 294.259L839.26 289.714L839.477 288.939L840.524 286.808L840.718 285.952L839.058 284.701L838.397 282.949L833.538 279.792L833.128 277.08L832.676 277.201L831.935 279.106L831.306 279.72L829.058 279.776L827.995 279.058L821.742 278.589L820.211 279.816L818.777 281.713L817.382 283.07L815.988 283.764L814.772 284.999L809.743 292.329L807.842 292.886L798.898 297.302L794.425 299.03L790.977 302.082L789.793 303.93L788.737 305.973L788.1 309.073L784.917 312.835L783.829 313.642L782.717 313.965L781.235 313.852L779.954 314.086L777.778 313.755L775.111 314.942L772.105 315.975L769.519 313.384L767.674 312.746L764.652 313.465L763.25 314.611L760.349 320.302L759.261 323.556L759.334 324.888L761.026 328.932L762.936 331.193L767.222 333.768L776.336 335.544L778.471 334.915L780.768 334.906L783.185 336.586L784.692 339.363L784.829 341.26L784.877 341.914L785.425 342.471L785.747 343.423L784.788 344.214L784.055 344.61L783.435 347.549L783.395 350.802L784.184 351.876L786.142 353.385L789.172 354.637L791.976 354.903L797.334 354.298L799.526 352.344L799.397 351.496L799.446 350.399L804.151 347.524L806.835 344.973L806.416 344.295L805.9 343.843L806.375 343.585L807.85 343.407L814.401 340.751L819.558 342.923L822.499 345.425L825.408 345.845L827.43 347.121L829.759 348.211L832.797 348.283L835.359 348.509L836.141 347.5L836.947 346.838L837.857 346.967L838.889 348.291L841.798 349.309L844.481 349.252L846.358 348.881L847.479 349.349L845.859 351.044L846.101 353.773L844.86 354.637L843.675 356.025L844.376 356.938L844.997 357.325L844.932 358.431L843.853 359.061L841.846 360.708L840.694 360.675L840.146 360.36L839.759 359.771L839.477 358.827L838.776 358.205L836.826 357.963L834.812 358.189L830.275 360.635L825.851 362.58L821.21 364.122L819.655 365.099L818.551 365.366L816.625 364.631L815.457 364.679L815.215 365.188L816.698 366.544L817.084 367.61L816.923 368.425L816.085 368.781L814.86 368.183L813.748 369.031L813.241 370.468L813.217 373.875L812.475 374.633L810.428 375.053L808.253 376.135L807.479 375.634L807.173 375.021L807.399 373.455L807.125 372.688L806.133 372.728L804.635 373.196L803.49 374.23L803.096 374.851L804.602 376.853L806.037 377.055L806.383 377.508L805.247 378.484L802.411 379.938L801.944 381.157L801.106 382.319L799.945 383.247L799.164 384.224L798.204 384.733L796.642 385.306L794.724 387.639L793.313 389.827L791.646 390.949L790.324 394.63L787.963 396.632L787.093 399.821L787.705 401.783L790.3 401.767L791.597 402.453L794.289 405.028L797.512 406.707L800.856 407.652L804.957 410.034L806.085 411.043L807.052 413.085L808.833 418.97L810.114 421.876L810.203 423.394L812.112 426.252L814.167 431.161L816.528 435.415L816.979 438.757L816.214 440.283V442.261L818.575 444.077L823.813 446.184L824.651 446.806L825.674 447.823L825.722 451.004L826.528 452.021L827.213 452.643L830.38 453.983L831.701 455.097L833.104 456.881L833.514 458.48L833.683 460.643L831.911 460.724L830.485 460.482L824.812 457.672L823.337 457.6L821.258 457.987L818.285 457.47L815.15 454.362L812.886 453.418L810.461 452.941L804.659 455.622L803.185 455.436L802.757 455.734L802.105 456.195L804.788 456.768L807.479 455.888L810.066 454.588L813.837 455.282L814.474 456.445L815.086 458.423L817.672 459.755L819.703 460.344L822.282 462.088L824.804 464.817L830.146 467.981L832.306 470.976L833.144 472.906L833.893 475.659L832.024 476.547L830.396 476.676L827.849 477.112L825.972 478.089L824.095 479.8L818.704 482.489L817.681 484.168L816.979 485.629L815.666 486.347L812.362 485.661L809.252 485.718L805.723 487.696L804.844 488.495L805.433 488.341L805.981 488.083L807.568 488.382L810.017 487.324L812.411 490.545L817.084 490.029L821.484 487.357L823.184 487.308L824.61 487.72L826.197 488.777L830.428 493.468L832.749 493.976L835.029 495.074L836.286 495.195L837.422 495.526L834.368 497.238L830.412 500.935L828.656 501.815L827.479 502.808L830.654 502.308L832.918 500.54L834.062 500.104L834.981 500.516L835.448 502.687L834.578 509.388L833.466 509.501L832.386 507.676L831.121 507.095L830.057 507.474L827.946 507.466L827.14 508.29L826.464 509.452L827.729 509.694L830.219 511.721L830.468 512.802L829.8 513.505L828.059 513.206L830.17 514.716L829.614 516.282L828.93 516.904L827.704 517.299L826.947 518.655L828.035 520.916L829.139 523.814L829.276 525.211L827.551 524.605L824.868 526.373L823.45 526.518L822.491 524.193L821.266 524.557L820.453 525.235L819.365 527.729L818.035 529.982L816.891 530.603L815.521 530.426L814.393 530.49L814.667 531.096L815.867 531.838V532.702L813.313 535.447L812.902 536.505L812.967 537.409L811.629 538.507L812.346 540.348L811.976 541.647L810.807 543.399L809.583 544.553L808.132 546.426L806.303 547.516L803.885 551.44L803.176 553.402L802.991 555.428L802.233 556.13L800.937 557.01L799.462 556.566L799.413 555.218L798.777 555.105L798.414 554.225L798.309 553.095L798.463 552.19L797.85 552.465L797.472 553.523L796.496 554.378L795.481 554.031L794.385 553.329L794.418 554.338L794.998 555.355L795.248 556.372L796.762 556.59L797.778 557.753L798.575 559.537L798.737 560.207L799.357 561.006L799.437 561.684L797.995 562.314L796.19 563.493L794.023 565.511L792.226 566.859L790.614 566.867L789.639 566.706L788.245 565.931L786.65 565.608L788.793 568.328L789.97 568.813L791.452 568.708L792.887 567.691L794.917 567.796L795.425 569.362L794.885 571.13L793.781 573.422L793.548 575.408L794.925 578.242L794.982 579.098L794.474 579.526L792.862 578.775L791.525 577.838L790.179 578.089L788.785 577.685L787.351 578.024L786.771 578.678L787.165 579.76L788.446 580.656L789.172 582.036L788.31 582.521L784.667 582.198L783.854 582.456L782.766 583.974L783.475 586.218L782.669 587.615L781.171 587.938L779.196 589.068L777.98 589.326L778.036 589.81L778.922 590.303L779.398 590.965L778.326 593.258L776.658 594.009L774.096 593.637L772.081 594.154L770.341 593.177L768.487 593.153L767.222 594.388L767.085 595.817L765.86 595.962L765.2 595.857L764.265 595.962L764.362 596.729L764.894 597.399L767.399 597.698L767.851 598.659L767.948 600.144L765.329 602.703L764.217 604.431L762.533 604.382L761.26 605.763L760.574 607.636L759.728 607.264L757.778 607.563L757.206 608.459L757.666 608.831L757.714 609.476L756.933 611.583L756.078 612.173L755.716 611.309L755.442 609.977L754.749 609.872L753.612 611.099L752.283 611.979L751.147 612.342L750.293 611.527L748.19 611.099L747.327 614.635L745.579 615.919L744.757 616.322L743.33 616.443L744.241 616.928L744.523 617.832L744.016 618.736L742.589 618.914L741.76 619.616L741.445 622.773L740.599 623.878L738.439 623.967L736.82 623.233L736.304 623.814L736.03 624.379L735.184 624.944L733.548 625.097L729.914 626.51L728.254 626.099L726.264 625.566L724.894 626.091L724.435 627.172L723.806 628.012H721.808L720.213 626.97L718.585 626.22L716.788 626.865L715.418 628.189L713.734 628.634L713.42 629.457L712.687 629.869L710.906 629.699L710.229 627.657L709.206 627.358L708.19 628.391L707.836 629.199L707.36 629.804L707.529 631.475L706.531 631.507L705.217 630.482L703.847 630.305L702.558 631.257L701.905 631.023L701.212 630.821H700.084L699.649 631.072L698.827 631.225L698.271 631.742L698.223 631.79L696.773 631.443L695 630.054L693.727 627.754L692.115 626.518L691.398 625.429L691.116 623.475L690.818 622.547L690.922 621.505L691.414 620.585L689.673 621.045L688.392 621.901L688.65 622.982L688.336 623.983L686.426 624.5L686.539 624.92L686.66 625.364L688.167 626.736L688.473 627.891L689.077 628.504L690.254 630.297L690.229 633.752L690.874 634.729L690.665 635.697L690.189 637.005L690.149 637.021L689.81 636.626L689.246 636.707L689.021 637.142L688.98 637.538L688.884 637.554L687.893 637.845L687.055 638.087L686.37 638.442L685.314 639.467L683.291 639.718L682.252 637.304L680.858 638.91L680.439 642.196L679.924 642.753L679.061 643.221L677.417 642.075L675.983 642.842L674.871 643.617L674.412 644.335L673.59 645.119L672.011 644.368L670.745 643.238L671.06 642.39L670.883 641.833L670.311 641.413L669.682 641.478L669.988 642.576L670.197 644.682L669.625 645.296L668.739 645.764L666.813 645.377L665.5 644.594L663.913 643.932L662.51 643.811L662.212 645.143L661.294 646.216L660.448 646.354L659.61 646.184L658.506 647.347L657.982 648.194L656.62 649.091L652.994 649.526L651.729 650.414L650.029 650.277L648.716 650.487L647.966 650.439L647.281 649.962L646.516 649.946L646.169 651.424L644.122 652.045L642.277 652.215L640.222 654.16L638.756 655.339L637.668 655.46L636.87 655.04L636.467 653.296L636.056 653.095L635.823 654.725L635.428 656.09L634.679 656.832L632.301 658.528L631.617 660.207L632.068 661.757L635.259 662.136L635.653 662.984L635.339 663.678L634.574 664.26L634.348 665.132L637.773 667.9L637.877 668.95L637.346 669.547L636.701 670.831L634.896 671.921L631.077 672.478L627.894 671.913L626.927 670.67L626.983 669.79L627.773 670.048L628.676 669.967L628.41 669.16L628.031 668.684L626.556 667.965L625.364 666.028L625.597 664.413L624.945 663.162L624.236 662.112L623.518 661.483L623.14 660.699L623.865 658.245L623.462 656.816L624.824 655.073L625.162 653.103L627.603 652.4L627.773 650.519L626.024 650.463L624.816 649.082L624.542 649.664L623.567 649.728L621.971 647.064L621.488 646.725L620.714 646.677L621.101 649.494L619.231 650.552L617.7 651.012L615.525 651.206L614.284 651.529L613.124 651.262L613.414 650.406L614.026 649.389L613.478 648.542L612.254 647.887L610.376 647.928L609.079 647.75L607.789 647.823L607.314 647.444L606.113 646.111L605.098 645.28L604.639 644.457L605.098 643.496L604.719 642.915L602.753 642.85L602.769 644.223L602.971 645.845L603.543 647.08L603.14 647.767L602.141 648.243L601.077 646.943L600.594 646.62L600.078 646.685L599.683 647.985L598.716 649.131L596.976 649.01L595.622 649.72L593.89 649.873ZM644.203 677.217L645.057 678.016L645.613 679.17L646.08 681.302L646.354 683.263L644.614 684.507L643.051 685.015L639.924 689.803L639.271 691.312L638.74 691.942L638.57 692.604L638.635 693.258L637.829 695.558L637.112 698.384L636.661 699.538L635.766 700.427L634.63 700.879L633.889 700.943L633.212 701.193L631.56 702.727L629.699 703.882L630.005 704.406L630.021 704.907L629.207 705.464L628.296 705.359L625.67 705.811L624.703 706.675L623.72 708.265L623.349 708.483L621.77 708.855L620.561 709L618.506 707.878L617.483 707.547L614.759 707.087L612.116 706.328L610.263 705.464L606.46 703.333L606.017 699.49L605.364 697.415L605.324 696.672L605.574 690.271L605.839 689.568L606.323 688.955L608.007 687.526L609.933 686.396L612.697 684.022L614.703 682.932L616.387 681.366L615.404 681.431L614.679 681.237L615.396 679.897L616.161 679.178L617.048 678.791L618.829 679.073L620.473 678.799L621.689 677.612L622.85 677.362L627.249 677.749L630.295 677.209L631.826 676.119L632.543 676.078L634.799 676.385L635.637 677.524L635.565 676.757L635.661 676.014L636.072 676.095L639.014 677.507L639.022 675.78L639.183 675.328L640.101 674.609L640.561 674.617L641.697 676.014L642.809 676.821L644.203 677.217Z" stroke="#808080" stroke-linecap="round" stroke-linejoin="round"/>
<path d="M697.835 630.152L697.88 630.095L698.399 629.48L699.165 629.298L699.572 629H700.624L701.27 629.24L701.88 629.519L701.94 629.605L702.285 630.412L702.18 631.314L702.834 631.756L703 632.649L702.278 633.139L702.233 634.186L701.91 634.829L699.835 633.687L698.121 633.091L696.586 633.322L696.022 632.649L695.925 631.958L697.699 630.748L697.835 630.152ZM701.323 636.664L700.925 637L699.819 635.415L699.752 634.897L700.601 634.801L701.556 635.511L701.504 636.164L701.323 636.664ZM697.557 636.664H695.617L695.203 636.453L695 635.992L695.684 635.156L698.301 634.004L697.646 635.214L697.557 636.664Z" fill="white" stroke="#808080" stroke-linecap="round" stroke-linejoin="round"/>
</svg>
