<svg width="240" height="160" viewBox="0 0 240 160" fill="none" xmlns="http://www.w3.org/2000/svg">
<path d="M185.369 141.915L185.127 142.395L184.934 142.903L184.856 143.381L184.86 143.873L184.805 144.319L184.711 144.759L184.333 144.632L184.127 144.317L184.08 143.801L183.805 143.175L183.704 142.995L183.309 142.646L182.951 142.472L182.673 142.213L182.709 142.235L182.503 141.886L182.347 141.515L182.025 140.463L181.914 140.208L181.765 139.975L181.723 139.744L181.774 139.488L181.913 139.106L181.998 138.721L181.929 138.197L181.954 137.677L182.06 137.446L183.893 134.272L184.389 133.595L184.694 133.262L184.951 132.888L185.194 132.413L185.493 131.979L185.705 131.844L186.756 131.453L187.083 131.081L187.345 130.964L187.644 130.972L187.836 131.15L188.007 131.361L188.187 131.475L188.653 131.681L188.856 131.879L188.949 132.223L188.665 132.548L188.525 132.841L188.5 133.164L188.551 133.603L188.556 134.041L188.202 135.07L187.822 135.71L187.72 136.028L187.603 136.819L187.38 137.612L187.189 138.615L186.878 139.65L186.702 140.083L186.482 140.495L185.958 141.275L185.369 141.915ZM175.242 134.092L175.413 134.366L175.342 134.537L174.805 134.446L174.774 134.279L174.976 134.31L175.242 134.092Z" fill="#808080" stroke="#808080" stroke-width="0.25" stroke-linecap="round" stroke-linejoin="round"/>
<path d="M174.367 134.198L174.236 134.447L174.007 134.406L173.999 134.229L173.952 134.177L174.016 134.013L174.058 133.967L174.318 134.107L174.367 134.198ZM188.692 104.726L188.372 104.847L187.358 104.478L186.643 104.073L186.216 103.58L186.154 103.376L186.652 103.411L187.139 103.587L187.247 103.858L187.443 103.944L187.576 104.102L188.478 104.469L188.616 104.58L188.692 104.726ZM190.38 111.269L190.323 111.353L189.841 111.107L189.32 111.056L189.14 110.842L189.107 110.504L189.656 110.518L190.332 110.824L190.48 110.98L190.38 111.269ZM189.898 112.48L189.883 112.56L189.55 112.284L189.39 112.238L189.467 112.082L189.69 112.042L189.867 112.389L189.898 112.48ZM190.799 111.573L190.761 111.769L190.658 111.742L190.518 111.391L190.592 111.306L190.789 111.327L190.799 111.573ZM180.743 130.218L180.454 130.411L180.274 130.32L180.27 130.062L180.363 129.829L180.258 129.662L180.361 129.462L180.578 129.402L180.654 129.526L180.776 129.591L180.814 129.658L180.816 129.789L180.701 130.004L180.792 130.12L180.743 130.218ZM144.009 148.149L144.154 148.289L144.539 148.189L144.609 148.369L144.607 148.453L144.47 148.658L144.15 148.498L143.832 148.535L143.603 148.52L143.539 148.422L143.716 148.22L144.009 148.149ZM186.312 119.222L185.972 119.322H185.845L185.854 119.016L186.132 118.726L186.245 118.822L186.309 118.975L186.312 119.222ZM156.35 141.162L156.383 141.351L156.08 141.062L155.992 141.046L155.847 140.938L155.763 140.757L156 140.749L156.216 140.964L156.35 141.162ZM153.372 146.077L153.298 146.158L153.185 146.011L153.152 145.8L153.072 145.686L153.258 145.542L153.341 145.382L153.563 145.413L153.654 145.462L153.459 145.627L153.414 145.698L153.372 146.077ZM152.801 145.924L152.42 146.009L152.34 145.991L152.472 145.78L152.818 145.635L152.801 145.924ZM134.618 146.46L134.367 146.246L133.952 145.9L133.785 145.86L133.325 146.027L132.665 146.091L132.518 145.911L132.198 146.047L131.89 145.633L131.527 145.607L131.072 145.293L130.908 145.127L130.856 144.889L130.718 144.764L130.539 144.78L130.343 144.653L130.03 144.527L129.779 144.453L129.656 144.511L129.523 144.54L129.499 144.38L129.509 143.896L129.487 143.467L129.418 143.275L129.249 143.127L129.094 143.057L129.027 142.837L129.081 142.404L129.207 142.109L129.405 142.057L129.672 141.844L129.807 141.544L129.978 141.266L129.369 140.875L129.049 140.735L128.694 140.795L128.256 140.92L128.025 140.946L127.91 140.897L127.656 140.546L127.518 140.484L127.207 140.462L126.945 140.466L126.794 140.618L126.561 140.669L126.329 140.678L126.092 140.487L125.738 140.238L125.181 140.064L125.114 139.862L124.972 139.62L124.759 139.397L124.41 139.1L124.118 138.946L123.976 139.04L123.783 139.209L123.03 139.566L122.698 139.704L122.521 139.804L122.372 139.953L122.327 140.32L122.252 140.729L122.036 140.937L121.83 141.093L121.614 141.109L121.403 141.102L121.205 141.167L120.601 141.576L120.316 141.544L120.081 141.313L119.981 141.146L119.71 141.184L119.363 141.38L119.203 141.733L119.118 142.062L119.041 142.207L118.925 142.249L118.821 142.257L117.739 141.307L117.672 141.258L117.479 141.453L117.303 141.957L117.178 142.053L117.092 142.015L116.645 141.371L116.53 141.309L116.428 141.331L116.296 141.54L116.012 141.847L115.796 142.035L115.79 142.242L115.554 142.426L115.279 142.607L115.188 142.627L115.007 142.555L114.77 142.313L114.599 142.06L114.174 141.809L113.698 141.597L113.381 141.429L113.201 141.389L113.034 141.464L112.95 141.566L112.83 141.817L112.543 142.229L112.289 142.556L112.05 142.767L111.861 142.913L111.721 142.778L111.459 142.667H111.152L110.749 142.877L110.43 142.46L110.348 142.44L110.227 142.477L110.087 142.577L109.988 142.809L109.887 143.127L109.685 143.337L109.516 143.429L109.565 143.609L109.659 143.804L109.654 143.973L109.714 144.24L109.819 144.507L110.196 144.946L110.339 145.175L110.368 145.373L110.381 146.075L110.367 146.367L110.292 146.933L110.287 147.258L110.443 147.406L110.594 147.58L110.589 147.675L110.521 147.709L110.305 147.904L110.214 147.929L110.072 147.849L109.89 147.789L109.743 147.711L109.581 147.586L109.196 147.6L108.565 147.789L108.434 147.736L108.343 147.629L108.294 147.407L108.325 147.146L108.269 146.978L108.15 146.88L108.234 146.413L108.009 146.227L108.041 146.169L107.967 145.666L107.978 145.542L107.938 145.498L107.778 145.458L107.543 145.538L106.827 145.869L106.212 146.482L105.93 146.617L105.645 146.673L105.312 146.567L104.941 146.498L104.412 146.653L104.15 146.582L104.03 146.457L103.923 146.266L103.987 146.024L103.947 145.846L103.736 145.755L103.49 145.678L103.345 145.446L103.287 145.193L103.345 144.864L103.374 144.509L103.256 144.347L102.896 144.258L101.99 144.097L101.196 144.007L100.863 144.049L100.592 144.011L100.434 143.947L100.358 143.837L100.354 143.676L100.483 143.307L100.63 142.949L100.999 142.427L101.021 142.066L101.003 141.647L101.185 141.087L101.503 140.669L101.659 140.538L101.621 140.353L101.494 140.182L101.314 140.087L101.014 139.978L100.545 139.947L99.9012 139.835L99.1557 139.586L99.2412 139.107L99.2303 138.807L99.1375 138.562L98.9848 138.387L98.8994 138.231L99.034 137.804L98.8612 137.336L98.6558 137.151L98.4448 136.909L98.4285 136.649L98.5248 136.406L99.0412 135.884L99.0449 135.758L98.9176 135.769L98.7703 135.78L98.0666 135.971L97.9921 135.851L97.7394 135.782L97.2248 135.767L96.623 135.802L95.8612 135.989L95.163 136.315L94.843 136.538L94.5721 136.678L94.3521 136.724L94.0994 136.626L94.1139 136.306L94.5903 135.718L94.6594 135.315L94.5139 134.967L94.4975 134.689L94.3303 134.511L94.0958 134.426L93.9721 134.227L93.9649 133.651L94.1739 133.057L94.5139 132.869L94.7212 132.778L94.7757 132.662L94.6703 132.246L94.6866 131.98L94.8903 131.467L95.0939 131.078L95.4775 131.144L95.6485 131.047L95.8375 130.909L96.0448 130.675L96.183 130.398L96.3521 129.753L96.4666 129.655L96.9503 129.762L97.0957 129.687L97.3594 129.307L97.6084 128.846L97.9703 128.702L98.2303 128.687L98.3503 128.535L98.3449 128.309L98.0976 127.951L97.9921 127.666L98.023 127.491L98.3776 127.386L98.4648 127.178L98.4121 126.724L98.5576 126.176L98.6448 125.535L98.6739 125.055L98.6703 124.687L98.6357 124.304L98.5849 123.602L98.423 122.991L98.4522 122.762L98.4303 122.022L98.3303 121.389L98.1303 121.278L97.7594 121.073L97.5576 121.033L97.3885 121.107L97.3249 121.327L97.1612 121.533L96.9594 121.482L96.863 121.277L96.734 121.007L96.3031 119.727L96.2558 119.358L96.1794 118.991L96.0339 118.807L95.8812 118.7L95.5376 118.269L95.3576 118.089L95.2703 118.06L95.0812 118.091H94.8958L94.7449 117.877L94.6066 117.615L94.4667 117.486L94.234 117.413L93.9957 117.442L93.8558 117.669L93.7612 117.798L93.5812 118.102L93.2885 118.522L93.1557 118.676L93.0267 118.596L92.4648 118.16L92.1939 118.04L91.8266 118.171L91.2503 118.067L91.0266 118.047L90.5484 117.698L90.3539 117.655L89.674 117.882L89.523 118.042L89.4357 118.044L89.2539 117.962L89.1048 117.855L89.0958 117.787L89.2793 117.616L89.2939 117.496L89.2849 117.376L89.5503 117.033L90.2721 116.369L90.1521 116.091L89.8685 115.542L89.8303 115.275L89.7085 115.155L89.363 115.253L88.6448 115.751L88.5467 115.696L88.563 115.524L88.4884 115.022L88.7157 114.871L89.0648 114.686L89.3339 114.48L89.3975 114.313L89.3248 114.262L88.9267 114.326L88.7703 114.213L88.5121 113.751L88.3212 113.569L88.1485 113.471L87.563 113.709L86.883 114.037L86.1266 114.493L86.1303 114.727L86.0394 114.787L85.8939 114.935L85.7521 115.138L85.6321 115.209L85.4921 115.216L85.203 115.158L84.6794 114.927L84.1121 114.736L83.9903 114.758L83.2193 114.624L83.1939 114.516L83.0794 114.304L82.8593 114.111L82.6485 114.046L82.0448 114.453L81.3648 114.756L80.9758 115.115L80.6575 115.471L80.2921 115.54L80.2739 115.76L80.1194 115.958L79.8412 116.202L79.2903 116.513L78.9176 116.68L77.7321 116.833L77.3102 116.937L77.1339 117.1L76.9448 117.515L76.7939 117.896L76.4666 118.211L75.8702 118.631L75.1703 118.973L74.9776 119.2L74.9431 119.335L75.0285 119.384L75.114 119.486L75.1157 119.64L75.0248 119.809L74.5666 120.102L74.3103 120.242L74.0539 120.331L73.7666 120.347L73.4903 120.307L73.414 120.26L73.3049 120.322L73.054 120.384L72.8339 120.404L72.3521 120.729L72.0866 120.733L71.7576 120.662L71.3212 120.606H71.0066L70.9975 120.433L71.0467 119.918L70.9049 119.798L70.4684 119.671L69.9793 119.504L69.743 119.326L69.6121 119.266L69.4285 119.296L69.1321 119.484L68.8503 119.704L68.6285 119.722L68.4012 119.618L68.183 119.484L67.4394 119.293L67.1066 119.264L66.5121 119.296L66.0266 119.256L65.9502 119.198L65.9521 119.093L66.023 118.886L66.0648 118.682L66.0066 118.566L65.5102 118.424L65.0576 118.322L64.5775 118.284L64.2539 118.356L63.9394 118.516L63.6775 118.804L63.2993 118.929L62.8484 119.144L62.6303 119.344L62.3012 119.773L61.8211 120.298L61.3848 120.811L61.1593 121.309L60.8593 121.624L60.5557 121.849L60.3375 122.469L60.1084 122.273L59.8448 121.991L59.783 121.606L60.0975 120.573L60.1721 120.147L60.0938 119.986L59.9975 119.566L59.8121 119.427L59.2866 119.207L59.1194 119.2L58.9394 119.351L58.7629 119.447L58.5285 119.544L57.9412 119.724L57.4194 119.807L57.2939 119.875L57.2539 119.995L57.2957 120.138L56.9593 120.084L56.6084 120.053L56.3248 120.073L55.6321 120.346L55.3976 120.371L55.1357 120.344L54.7811 120.335L54.1066 120.342L53.5248 120.273L53.052 119.893L52.7157 119.726L52.3594 119.596L52.0011 119.5L51.8812 119.296L51.7684 119.195L51.472 119.16L51.2393 119.235L51.092 119.747L50.9684 119.849L50.672 119.895L50.3612 119.766L49.9303 119.502L49.7594 119.209L49.6139 119.115L49.3866 119.244L49.3738 119.618L49.3302 119.871L49.0593 119.973L48.9011 119.898L48.7757 119.64L48.4593 119.027L48.1448 118.667L47.8284 118.427L46.7866 118.433L46.0139 118.362L45.6648 118.264L45.5321 118.026L45.6593 117.553L45.8103 117.184L45.8066 117.098L45.6793 117.055L45.4575 117.026L44.6247 117.262L44.3975 117.235L44.2521 117.155L44.0756 117.086L43.9303 116.976L43.8284 116.816L43.1066 116.422L42.8939 116.206L42.5103 115.935L42.1848 115.749L41.9775 115.222L41.792 114.713L41.6884 114.444L41.3793 114.3L41.0448 114.191L40.4775 114.411L40.0138 114.58L39.672 114.596L39.1775 114.076L38.783 113.513L38.3157 113.022L38.0048 112.775L37.4539 112.751L36.832 112.473L36.0011 111.844L35.4011 111.375L34.3666 110.853L34.1266 110.635L34.0339 110.447L33.8921 110.08L33.6757 109.731L32.9412 109.578L32.1121 109.471L31.2375 109.684L30.6066 110.726L30.303 110.953L30.043 110.966L29.8302 110.7L29.6538 110.42L29.5575 110.111L29.1211 109.882L28.6284 109.584L28.3775 109.351L28.0921 109.206L27.8284 109.144L27.3175 108.947L26.7393 108.726L26.4684 108.695L26.4483 108.536L26.5302 108.2L26.4811 107.876L26.3066 107.746L26.0411 107.78L25.4302 107.322L25.4065 107.316L25.3993 107.298L25.2248 107.167L24.9248 106.98L24.4175 106.993L24.032 107.062L23.7503 106.871L23.343 106.569L23.2702 106.502L23.1502 106.391L22.7375 105.807L22.2483 105.116L22.0011 105.015L21.8738 105.067L21.7284 105.435L21.6193 105.398L21.4375 105.424L21.2229 105.551L21.0174 105.586L20.8866 105.547L20.8302 105.456L20.8884 104.971L20.7647 104.82L20.8757 104.482L21.0611 104.189L20.8702 103.973L20.6357 103.662L20.6102 103.382L20.7374 103.027L20.7993 102.724L20.7611 102.613L20.5756 102.444L19.8684 101.611L19.8302 101.522L19.7102 101.246L19.6557 100.826L19.5629 100.526L19.4538 100.295L19.4611 100.187L19.5412 100.131L19.9847 100.075L20.3939 100.04L20.663 99.9619L20.8029 100.129L20.8684 100.386L20.9375 100.52L21.1974 100.764L21.5138 100.996L21.8193 100.966L22.0884 100.866L22.3229 100.486L22.4884 100.393L22.6811 100.376L22.6792 100.349L22.6703 100.104L22.7375 99.5001L22.7139 99.2583L22.6265 99.0401L22.643 98.7983L22.6139 98.4455L22.3921 98.2056L22.2483 98.1128L22.2266 97.9837L22.2993 97.7419L22.352 97.4637L22.2629 97.2273L22.0829 97.1219L21.8738 96.9437L21.6248 96.7037L21.5012 96.5292L21.2993 96.3364L21.0538 96.0364L21.0066 95.3783L20.9829 94.6856L20.8975 94.3401L20.7611 93.7892L20.7812 93.6037L20.863 93.4637L21.5593 93.0201L21.7102 92.8473L21.7356 92.7164L21.7083 92.5219L21.5775 92.3055L21.2993 92.1364L20.9029 91.8619L20.5429 91.5746L19.9393 91.4001L19.2048 91.1873L19.0302 90.9783L18.852 90.4674L18.5502 89.6892L18.2283 88.8582L17.9811 88.3455L17.9683 88.0982L18.1175 87.4692L18.0993 87.3346L17.9702 87.2891L17.723 87.371L17.5248 87.471L17.3556 87.4183L17.1975 87.3128L17.1648 87.2764L17.152 87.2619L16.8593 87.3291L16.2702 87.3674L16.0647 87.3601L15.7793 87.351L15.1883 87.2074L14.392 87.0128L13.5702 86.7419L13.1338 86.5274L12.9811 86.4528L12.6083 86.2273L12.3429 86.0346L12.2956 85.5292L12.1047 85.5692L11.652 85.751L11.1302 85.8674L10.843 85.8692L10.7266 85.7873L10.5539 85.2546L10.4284 85.1037L10.1939 85.0437L9.93931 84.9492L9.81202 84.8092L9.78295 84.6328L9.8957 84.431L10.0302 84.2764L10.0521 83.3255L9.96472 82.9873L9.89203 82.7037L9.70471 82.351L9.53015 82.1328L9.2647 81.931L8.85566 81.7201L8.492 81.6419L8.05021 81.7946L7.91017 81.7364L7.7265 81.0855L7.60832 80.9528L6.82474 80.6855L6.47018 80.6237L6.06291 80.7073L5.8302 80.7782L5.64287 80.6583L5.35024 80.5073L5.06293 80.4037L4.70659 80.4001L4.47566 80.4655L4.41751 80.4273L4.30653 80.3092L3.83201 79.951L3.81559 79.86L4.54291 79.5055L4.97015 79.371L5.19565 79.2637L5.24293 79.2874L5.35379 79.451L5.63744 79.5583L5.83563 79.5292L5.93928 79.4473L6.29018 79.2528L6.56473 79.0255L6.71931 78.8383L6.63564 78.5437L6.20295 78.1873L5.92841 77.9964L5.84473 77.8674L5.91564 77.4801L6.01741 77.0964L5.95204 76.9492L5.87015 76.8237L5.83386 76.4037L5.64653 75.8964L5.44112 75.6001L5.38475 75.2019L5.37387 74.8274L5.6229 74.2419L5.53024 73.9873L5.26834 73.7619L4.36835 73.3546L3.44649 73.0837L3.0956 73.0946L2.87742 73.0783L2.62107 73.3164L2.4666 73.6273L2.2502 73.6546L1.85747 73.5219L1.5938 73.3219L1.40836 72.9037L1.26287 72.3655L1.18286 72.1964L1.2247 72.051L1.31559 71.9219L1.5665 71.8001L1.60833 71.6764L1.57016 71.5237L1.36841 71.331L1.16111 71.0583L0.837402 70.491L0.899214 70.1782L0.950151 69.7273L0.931951 69.4892L1.25932 69.4273L1.67747 69.3055L1.87201 69.1037L2.0065 68.8964L2.03558 68.7692L1.91018 68.2746L1.74472 68.0528L1.72652 67.8819L1.80831 67.751L1.91928 67.5255L2.13013 67.0618L2.33565 66.7673L2.4484 66.6928L2.69931 66.6237L3.31199 66.5419L3.97017 66.3346L4.75387 65.7146L5.01377 65.5382L5.35567 65.4491L5.59926 65.4564L5.64287 65.38L5.48474 64.9946L5.52291 64.8546L5.61746 64.7455L5.73565 64.6946L6.27564 64.8983L6.69201 64.8764L7.1975 64.7564L8.28659 64.0764L8.42109 64.0873L8.53017 64.1782L8.6629 64.5873L8.81382 65.451L8.89561 65.5582L9.65378 65.5691L10.1684 65.2546L10.3939 65.1801L10.7611 65.2309L10.9538 65.0837L11.1575 64.98L11.3921 65.3419L11.6957 65.1691L12.0211 64.8946L12.1793 64.6109L12.4011 64.3037L12.5738 63.9146L12.6429 63.5455L12.7265 63.3728L12.9102 63.1946L13.3611 62.4346L13.6865 62.2401L13.9938 62.171L14.7539 62.3019L15.1502 62.2855L16.3102 62.3855L16.8466 62.2401L17.2193 62.0946L17.7684 62.1182L18.4193 62.0019L19.2866 61.0473L19.2957 60.8437L19.3484 60.6273L19.6611 60.4146L20.0521 60.2201L20.8284 59.7528L22.4084 59.011L22.9739 58.7146L23.2103 58.7218L23.792 58.5364L24.812 58.1728L25.1011 57.72L25.3702 57.631L26.563 57.5491L26.6374 57.4982L26.6812 57.4219L26.6157 57.0946L26.5375 56.8128L26.6302 56.7291L26.732 56.6L26.7157 56.4182L26.5229 55.8309L26.4193 55.2728L26.352 54.7691L26.3648 54.5819L26.5103 54.2582L26.6975 53.9618L27.3739 53.6855L27.8211 53.6019L27.8393 53.4219L27.4775 53.3091L27.2157 53.1291L27.1684 53.0255L27.1811 52.9091L27.2429 52.8018L27.6975 52.6L28.1248 52.4L28.6466 52.5219L28.7503 52.4437L28.7811 52.2418L28.6702 52.04L28.5647 51.7091L28.3229 51.54L28.3138 51.3364L28.4629 50.9855L28.2557 50.3346L28.032 49.76L27.6521 48.7764L27.4012 48.4928L27.2611 48.0382L27.103 47.8L27.1175 47.4473L27.1429 47.1982L27.103 46.7055L27.0302 46.1709L27.103 45.6273L27.2429 45.2691L27.2047 45.1309L27.2793 45.0273L27.492 44.9927L27.5938 44.8455L27.492 44.6946L27.1229 44.5782L26.712 44.3964L26.2175 44.4164L25.7084 44.4473L25.4557 44.3128L25.2339 44.1418L25.2211 44.0309L25.5266 43.7418L25.9502 43.4418L26.6084 43.3091L27.3357 43.1109L27.7029 42.9673L28.1921 42.8636L28.7575 42.82L29.0429 42.8509L29.7702 42.6582L30.9175 42.2873L31.9575 41.9746L32.3084 41.7891L32.5684 41.9746L32.6884 42.3837L32.992 42.5964L33.2938 42.6982L33.4666 42.6927L33.9866 42.5346L34.5466 42.4182L34.7684 42.4818L35.0539 42.6909L35.3739 42.8782L35.5411 42.8691L35.6866 42.7255L35.8339 42.4327L35.9284 42.06L35.9465 41.6673L35.892 41.4273L35.7793 41.3382L35.2703 41.1964L34.783 40.9636L34.7266 40.7509L34.7375 40.6L34.8648 40.2291L35.1829 39.5491L35.503 38.6073L35.672 37.8636L36.2065 36.7527L36.6266 35.5909L37.3066 33.9164L37.4211 33.5855L37.483 33.0546L37.5194 32.8364L37.7557 32.7218L38.1557 32.8346L39.1302 33.2182L39.8721 33.54L40.1829 33.6491L40.6448 33.7637L41.3594 33.8982L41.7721 33.8582L42.1338 33.7782L42.6157 33.7709L43.3684 33.8709L43.6011 33.8745L43.8902 33.8873L44.0957 34.0491L44.1993 34.4182L44.3556 34.5836L44.6357 34.5218L45.2357 34.1982L45.6193 33.9436L46.0975 33.5746L46.5721 33.5236L47.0757 33.4418L47.2503 33.2582L47.4357 32.8273L47.7448 32.5018L47.7957 32.0891L47.6866 31.7982L47.4721 31.3236L47.4793 31.0036L47.3757 30.0727L47.2375 29.2346L47.3793 28.5582L47.6285 27.8018L47.7266 27.5709L47.8848 27.2655L48.1084 26.9L48.4211 26.7855L49.3012 26.7073L50.1175 26.5527L50.5338 26.3945L50.9648 26.2982L51.223 26.1818L51.6684 25.6473L51.8793 25.3382L52.0339 24.5182L51.9211 24.1236L52.0176 23.7745L52.2321 23.5691L52.5339 23.3636L52.7375 23.3291L53.1685 23.2673L53.8757 23.2873L54.2376 23.3873L54.603 23.4327L54.8338 23.3582L54.9884 23.2018L55.2248 23.1527L55.583 23.0782L55.9484 22.9854L56.1502 23.0036L56.192 23.2345L56.1575 23.4163L56.2284 23.66L56.3739 23.82L56.3266 23.9945L56.1193 24.0945L55.9157 24.2291L55.8702 24.4145L56.1266 24.6455L56.2157 24.8673L56.6448 25L56.9794 25.1491L57.1048 25.2909L57.0666 25.4509L56.912 25.6236L56.763 25.8091L56.7448 25.92L56.7921 26.0491L57.1157 26.1346L57.4884 26.2782L58.0794 26.4636L58.4848 26.8054L58.8866 26.9L59.0793 27.2345L59.1157 27.7182L59.5284 27.9654L60.1376 28.3073L60.4466 28.3709L60.6539 28.5654L60.9521 28.8018L61.2176 28.8764L61.5321 28.9109L62.0521 28.6927L62.6339 28.6727L62.9521 28.7982L63.2539 29.2691L63.4667 29.4182L63.5921 29.5509L63.7957 29.6782L64.003 29.6964L64.3103 29.5927L64.4975 29.3836L64.7666 29.4273L64.8685 29.5618L64.9175 29.7946L65.0593 30.0818L65.4011 30.2964L65.8775 30.4255L65.9448 30.5291L66.0103 30.8164L66.1393 31.0164L66.3121 31.2764L66.4776 31.7509L66.5121 32.1418L66.5884 32.3564L66.8103 32.7073L67.1629 33.2673L67.4448 33.7418L67.7703 33.8346L68.0466 33.9855L68.2048 34.3346L68.4975 34.9927L68.5448 35.4236L68.5703 35.7436L68.6666 35.8891L68.6866 36.0709L68.443 36.76L68.2357 37.0709L68.2103 37.3327L68.3503 37.7873L68.5411 38.14L68.5612 38.4764L68.3975 38.7237L68.1139 39.0327L67.9794 39.2091L67.7593 39.3637L67.423 39.9582L67.272 40.6146L67.2375 40.9527L67.3648 41.1982L67.5793 41.4673L67.632 41.7L67.983 42.22L68.0757 42.5418L68.2193 42.5528L68.3739 42.4473L68.7484 42.44L69.0902 42.5528L69.4176 42.7909L69.7685 42.9182L70.2703 42.8855L70.5393 43.0127L70.8285 43.1182L71.4248 43.1546L71.8721 43.1528L72.5611 43.1564L73.1175 43.3164L74.0958 43.4436L74.6994 43.4346L75.5121 43.3146L76.0103 43.3891L77.483 43.5673L78.3466 43.7527L78.8921 43.9618L79.2776 44.2928L79.7176 44.8091L80.0667 45.0455L81.0066 45.1891L81.6503 45.7909L82.1558 46.0164L83.003 46.5982L83.6031 46.8255L84.3194 47.0346L85.4885 46.9455L85.5521 47.0255L85.4612 47.3419L85.3903 47.7746V48.0873L85.5103 48.2473L85.9576 48.3418L86.1684 48.4946L86.3303 48.7891L86.423 48.9727L86.7975 49.8746L87.3993 51.2037L87.4685 51.7128L87.6739 52.0418L88.3266 52.5637L88.6703 52.9491L89.1812 53.3546L89.3485 53.7291L89.3867 54.2128L89.5157 54.3364L90.4503 54.2255L91.2594 54.1491L92.7103 54.011L94.7085 54.2637L96.7685 54.5073L98.5903 54.7218L99.4885 54.8273L101.516 55.0528L102.643 54.7655L103.525 54.54L103.925 54.571L105.61 54.8237L106.598 54.96L107.841 55.1309L108.705 55.1946L109.412 55.1909L109.738 55.2618L110.052 55.3728L110.261 55.5328L110.907 56.3473L111.268 56.7055L111.983 56.9764L113.612 57.2855L114.514 57.4728L115.55 57.6873L116.232 58.011L117.018 58.3873L118.036 58.8746L119.15 58.6619L120.348 58.4328L121.099 58.2891V59.3073L122.172 59.3892L122.51 59.3764L122.985 59.6018L123.252 59.5073L123.505 59.2873L123.823 58.9382L124.279 58.7855L125.069 58.3946L125.261 58.3L126.434 57.7455L128.185 57.06L128.97 56.7273L129.205 56.6528L129.648 56.4837L129.949 56.3655L130.478 56.2709L131.196 56.2109L131.981 56.08L133.758 55.8382L133.979 55.8146L134.978 55.7146L135.401 55.62L136.036 55.6691L136.863 55.7037L137.412 55.7655L138.141 55.7164L139.143 55.6509L139.954 55.6618L140.356 55.58L140.949 55.3237L141.349 55.12L141.974 54.8728L142.75 54.6182L143.29 54.3855L143.649 54.2309L144.083 54.0855L144.196 53.8982L144.321 53.7546L144.552 53.5146L144.967 53.0655L145.283 52.6728L145.439 52.4982L145.794 52.1055L146.081 51.8091L146.447 51.4091L146.756 51.28L147.147 51.1691L148.176 50.7764L148.379 50.6909L148.55 50.6746L148.914 50.3564L149.221 50.0818L149.421 49.8746L149.838 49.8L150.052 49.6509L150.09 49.4564L150.047 49.1582L149.847 48.8546L149.678 48.5891L149.081 48.0819L148.765 47.7673L148.441 47.3637L148.31 46.9837L148.09 46.7419L147.983 46.5273L148.018 46.2782L148.323 45.8364L148.421 45.5564L148.549 45.0618L148.836 44.3218L149.07 43.9764L149.341 43.6382L149.914 43.1837L150.438 43.0982L150.75 43.1891H151.449L151.912 43.2127L152.254 43.44L152.634 43.8891L153.061 44.0546L154.396 44.4055L154.967 44.48L155.376 44.4946L155.978 44.6109L156.181 44.6346L156.489 44.7146L156.745 44.6291L157.132 44.3291L157.619 43.9909L157.829 43.9128L158.216 43.7673L158.41 43.6291L158.749 43.2509L159.19 42.9564L159.729 42.5145L159.994 42.1818L160.052 41.9673L160.11 41.7346L160.278 41.6128L160.605 41.5L160.972 41.4691L161.674 41.6691L162.621 41.6109L162.834 41.5818L163.698 41.4673L164.087 41.3727L164.638 41.2818L165.059 40.9109L165.623 40.4691L166.034 40.2236L166.309 40.1764L166.65 39.9218L166.818 39.6473L166.772 39.4055L166.709 39.2055L166.909 38.8364L167.27 38.1873L167.61 37.8836L167.89 37.6382L168.069 37.2455L168.29 37.1327L168.561 37.0891L168.943 36.8218L169.223 36.7673L169.689 36.8946L170.378 36.9273L170.818 36.9418L171.069 36.8946L171.159 36.7509L171.158 36.5291L171.298 36.0364L171.35 35.8727L171.478 35.7982L171.901 35.7873L172.189 35.9655L172.385 36.1127L172.658 36.1327L172.939 36.0364L173.318 35.6364L173.943 35.4055L174.276 35.3473L174.867 35.1582L175.239 35.2255L175.925 35.28L176.19 35.2327L176.479 35.28L176.741 35.0091L176.95 34.9455L177.39 35.0691L177.669 35.2782L178.189 35.54L178.849 35.6618L179.403 35.5982L179.972 35.7091L180.309 35.6982L180.467 35.5945L180.932 35.3746L181.043 35.0782L180.998 34.7909L181.05 34.4655L180.914 34.2255L180.625 33.8709L180.514 33.6346L180.503 33.3255L180.323 33.0309L179.892 32.6746L179.607 32.5091L179.021 31.8927L178.823 31.7473L178.756 31.6454L178.687 31.4382L178.47 31.34L178.187 31.1782L178.034 31.0145L177.934 30.7291L177.874 30.5418L177.623 30.3873L177.372 30.3L177.089 30.1909L176.62 30.0291L176.349 29.7091L175.87 29.1091L175.601 28.9073L174.594 28.8309L174.234 28.6855L173.825 28.7345L173.581 28.8309L173.041 28.8291L172.761 28.8891L172.405 29.2836L171.932 29.7982L171.541 30.1127L171.265 30.4382L171.136 30.5546L170.883 30.4836L170.538 30.1182L170.041 29.7909L169.581 29.6418L169.385 29.56L168.838 29.4764L168.414 29.5018L167.874 29.6255L167.347 29.6036L167.109 29.5254L166.774 29.5327L166.165 29.8727L165.85 30.26L165.478 30.3818L165.141 30.1273L164.752 29.8273L164.381 29.4509L164.152 29.1018L164.025 28.1782L164.47 27.9018L165.039 27.5927L165.083 27.1036L165.065 26.5582L165.178 25.9509L165.696 25.3909L165.974 24.9254L166.009 24.6364L166.258 24.1545L166.498 23.6455L166.823 22.9764L167.441 21.7873L168.172 20.3782L168.536 19.6745L169.336 20.1109L169.852 20.3382L170.723 20.6836L171.625 20.7618L172.487 21.1345L172.93 21.2473H173.167L174.387 20.34L175.418 19.5709L176.603 18.9709L177.474 18.8891L178.129 18.7145L178.567 18.4454L178.825 17.9945L178.903 17.3618L178.729 16.98L178.301 16.8473L178.192 16.7127L178.399 16.5782L178.552 16.3145L178.649 15.9218L178.896 15.5491L179.292 15.1963L179.51 14.8054L179.552 14.3745L179.79 13.9454L180.225 13.5163L180.463 13.1163L180.505 12.7472L180.725 12.2963L181.323 11.4963L181.712 10.5727L182.374 9.93816L183.44 9.28724L184.105 8.63996L184.37 7.99632L184.35 7.42725L184.043 6.9345L183.985 6.43271L184.176 5.92179L184.009 5.53815L183.483 5.28361L182.856 5.21997L182.127 5.34906L181.718 5.18906L181.627 4.74178L181.821 4.37995L182.303 4.1036L183.094 3.42905L184.196 2.3545L185.29 1.75813L186.925 1.58723L188.243 1.2345L189.587 0.874507L190.556 0.696312L190.721 0.816329L191.25 0.845404L192.141 0.783592L192.97 0.629062L193.736 0.379955L194.341 0.321777L194.787 0.454501L195.041 0.46177L195.218 0.478139L195.314 0.476335L195.501 0.370883L196.02 0.559953L197.007 1.11815L197.629 1.36723L197.883 1.30725L198.161 1.46178L198.463 1.83268L198.839 2.05088L199.516 2.15086L200.187 2.55633L200.46 2.57814L200.554 2.35087L200.805 2.21997L201.21 2.18724L201.798 2.38724L202.565 2.81998L203.047 3.01088L203.241 2.95814L203.449 3.03815L203.614 3.24179L203.629 3.49087L203.572 3.62542L203.756 3.83633H203.969L204.316 3.93814L204.587 4.31087L204.83 4.4836L205.001 4.6327L205.032 4.75632L205.049 4.88178L204.998 4.97816L204.905 5.13815L204.876 5.31088L204.992 5.50361L205.423 5.64361L205.57 5.78723L205.603 5.9727L205.738 6.17633L206.03 6.41271L206.143 6.61088L206.076 6.76907L206.161 6.90179L206.307 7.00541L206.338 7.38178L206.35 7.59815L206.587 7.84179L206.636 8.33815L206.801 8.88724L207.36 9.63817L207.543 10.0436L207.496 10.5273L207.576 10.7527L207.83 10.8636L207.95 11.0673L207.936 11.3654L208.036 11.5509L208.116 11.7472L208.061 12.0527L208.141 12.3291L208.27 12.4909L208.363 12.7891L208.414 13.16L208.787 13.7473L209.48 14.5509L209.903 15.1745L210.058 15.6182L210.06 15.9818L209.909 16.2673L209.9 16.4745L210.034 16.6054L210.074 16.7818L210.02 17.0036L210.245 17.2673L211.003 17.7236L210.7 18.4218L210.619 18.9127L210.661 19.4291L210.85 19.7927L211.185 20.0036L211.392 20.2236L211.474 20.4527L211.876 20.7036L212.598 20.9745L213.523 21.0218L214.65 20.8454L215.341 20.8164L215.594 20.9345L215.68 21.1127L215.6 21.3509L215.79 21.5073L216.254 21.5818L216.574 21.7309L216.749 21.9564L216.963 22.02L217.216 21.9218L217.461 21.9364L217.701 22.0618L217.858 22.0182L217.992 21.8818H218.211L218.434 21.8854L218.572 22.2145L218.798 22.4L219.109 22.4418L219.581 22.8436L220.534 23.9836L221.152 24.3891L221.772 24.5164L222.543 24.5418L222.792 24.9836L222.592 25.4491L222.54 25.8382L222.716 25.9782L222.958 26.4345L223.3 26.7L223.365 26.9091L223.523 27.1436L223.456 27.5764L223.163 28.2091L223.243 28.7473L223.694 29.1927L223.954 29.6218L224.021 30.0345L224.134 30.2854L224.292 30.3746L224.756 30.3436L225.525 30.1946L226.089 30.22L226.449 30.4218L227.338 30.4291L228.758 30.2436L229.654 30.1873L230.029 30.26L230.361 29.9946L230.654 29.3909L230.929 29.1073L231.185 29.1436L231.59 28.9491L232.147 28.5254L232.629 28.32L233.24 28.34L233.89 28.3618L234.3 28.1836L234.683 27.8127L235.347 27.4836L236.763 27.0545L237.103 26.9873L237.265 27.0109L237.736 27.0782L238.154 27.2454L238.55 27.5836L238.61 27.8L238.565 28.0836L238.48 28.2491L238.316 28.4346L238.163 28.7345L238.261 28.9691L238.491 29.4709L238.68 29.8327L238.889 30.2582L238.794 30.4109L238.669 30.7055L238.281 31.2055L238.07 31.3964L237.843 31.5836L237.45 31.6291L237.283 31.6727L237.094 31.7509L236.974 31.9273L236.838 32.0509L236.614 32.3L236.596 32.5145L236.698 32.8327L236.749 33.1582L236.494 33.4491L236.298 33.8964L236.24 34.0309L236.141 34.3691L236.112 34.4854L236.05 35.1964L235.798 35.68L235.443 36.2437L235.521 36.5782L235.583 36.8891L235.496 37.04L235.474 37.1709L235.421 37.4709L235.31 37.5855L234.989 37.7727L234.796 37.9982L234.836 38.34L234.738 38.6346L234.59 38.8964L234.436 39.0655L234.214 39.1746L234.065 39.2673L233.954 39.5982L233.92 39.8546L233.816 40.1091L233.88 40.3709L233.765 40.5964L233.45 40.7527L233.272 40.8455L233.107 40.8837L232.792 41.1273L232.511 41.9655L232.447 42.4527L232.512 42.8855L232.116 43.1564L231.821 43.3709L231.638 43.2927L231.443 43.22L230.994 43.1255L230.77 43.0618L230.316 42.9218L229.592 42.7418L228.885 42.5327L228.441 42.4237L228.092 42.3364L227.827 42.1928L227.603 41.9364L227.381 42.04L227.176 42.3418L226.832 42.5218L226.676 42.8527L226.54 43.1073L226.185 43.4473L226.027 43.5873L225.33 43.8182L225.174 43.8946L224.607 43.9437L224.414 44.0455L224.214 44.26L224.16 44.4728L224.3 44.6964L224.52 45.1455L224.621 45.4528L224.772 46.0582L225.276 47.9582L225.112 48.2855L224.96 49.7037L224.996 49.96L224.981 50.3582L224.99 50.6491L225.094 50.72L225.229 50.8218L225.298 50.9928L225.28 51.2527L225.21 51.4437L225.103 51.8218L224.961 52.3673L224.805 52.5782L224.701 52.7437L224.612 52.8582L224.601 53.2437L224.543 53.4982L224.298 53.5891L224.054 53.7364L223.765 53.6819L223.51 53.7128L223.196 53.811L222.63 53.9255L222.303 54.0782L222.147 54.1891L222.038 54.3218L222.018 54.4491L222.094 54.5164L222.411 54.5691L222.629 54.8091L222.66 55.0728L222.436 55.2219L222.325 55.0564L222.138 55.0037L221.789 54.7728L221.534 54.5182L221.343 54.2364L221.352 53.6346L221.32 53.5437L220.972 53.42L220.869 53.24L220.705 53.1546L220.47 53.2091L220.294 53.1509L220.154 53.0528L219.987 53.0419L219.841 53.1982L219.765 53.5328L219.523 54.0873L219.501 54.4219L219.396 54.9L219.292 55.5055L219.207 55.6309L218.934 55.6491L218.841 55.6891L218.7 55.8946L218.529 55.9291L218.378 55.8091L218.14 55.6891L217.914 55.6727L217.71 55.7928L217.472 56.0546L217.338 56.2655L217.29 56.4637L217.252 56.7073L217.012 56.9419L216.792 57.0637L216.338 57.4073L216.192 57.5509L215.867 57.5528L215.514 57.54L215.038 57.6328L214.261 57.68L213.796 57.6109L213.221 57.6764L212.774 57.7891L212.71 57.9564L212.727 58.2055L212.818 58.3673L212.927 58.4746L213.112 58.8073L213.307 59.1291L213.603 59.3364L213.725 59.5601L213.732 59.7673L213.592 60.0291L213.38 60.3709L213.181 60.5818L213.032 60.5746L212.805 60.4528L212.65 60.2982L212.283 60.24L211.385 60.3382L210.936 60.2691L210.721 60.1437L210.345 60.1346L209.763 59.9673L209.409 59.9146L209.241 59.8073L209.209 59.5618L209.041 59.3928L208.949 59.1891L208.738 58.9346L208.534 58.8073L208.334 58.7528L208.116 58.9073L207.883 59.0455L207.709 59.0146L207.625 59.0528L207.529 59.1673L207.156 59.4055L207.067 59.6219L206.918 60.0819L206.814 60.5546L206.723 60.7218L206.572 60.751L206.418 60.8928L206.094 61.3364L205.801 61.7437L205.376 62.0201L205.176 62.2728L205.074 62.5018L204.772 62.8237L204.327 62.8819L203.972 62.9746L203.756 63.0001L203.6 63.1291L203.487 63.3273L203.432 63.4055H203.232L203.032 63.5728L202.543 63.9546L202.145 64.0255L201.645 64.28L201.205 64.4728L201.021 64.5819L200.972 64.7019L200.909 64.8546L200.696 64.8855L200.49 64.8782L200.034 65.2291L199.801 65.5255L198.901 66.1582L198.534 66.5146L198.44 66.9746L198.392 66.94L198.07 67.3419L197.441 67.7237L196.096 67.8091L195.67 67.5382L195.516 67.7255L195.398 67.9764L195.045 68.06L194.492 68.0819L194.183 68.2473L194.018 68.431L193.261 68.491L192.983 68.7364L192.512 68.8237L190.545 69.8964L190.118 70.3473L189.712 70.8746L189.427 71.14L189.172 71.3255L188.94 71.4019L188.712 71.5837L188.481 71.6073L188.247 71.5237L187.983 71.5528L187.81 71.7746L187.956 72.0618L187.876 72.1837L187.36 72.3401L186.592 72.4419L186.267 72.6291L186.154 72.7364L185.983 72.7909L185.82 72.4201L185.761 71.931L186.08 71.8128L186.372 71.751L187.994 71.0746L187.79 70.5655L187.934 70.3437L188.298 69.9837L188.534 69.8055L188.405 69.7401L187.343 69.8583L186.732 69.8492L186.419 69.8128L186.514 69.5055L186.461 69.1982L186.389 69.0819L186.93 68.731L187.176 68.6437L187.363 68.6491L187.35 68.4364L187.194 68.1182L187.361 67.7055L188.465 67.22L188.729 66.78L189.172 66.3691L189.983 65.3455L190.032 65.171L190.269 64.691L190.312 64.4982L189.938 64.2164L189.789 63.8219L188.692 63.111L188.6 62.5001L188.498 62.5273L188.33 62.9564L188.189 63.0946L187.681 63.1073L187.441 62.9455L186.03 62.84L185.685 63.1164L185.361 63.5437L185.047 63.8491L184.732 64.0055L184.458 64.2837L183.323 65.9346L182.894 66.06L180.876 67.0546L179.867 67.4437L179.089 68.131L178.821 68.5473L178.583 69.0073L178.44 69.7055L177.721 70.5528L177.476 70.7346L177.225 70.8074L176.89 70.7819L176.601 70.8346L176.11 70.7601L175.509 71.0274L174.83 71.2601L174.247 70.6764L173.83 70.5328L173.149 70.6946L172.832 70.9528L172.178 72.2346L171.932 72.9673L171.949 73.2673L172.33 74.1782L172.761 74.6873L173.729 75.2673L175.785 75.6673L176.267 75.5255L176.785 75.5237L177.33 75.9019L177.67 76.5274L177.701 76.9546L177.712 77.1019L177.836 77.2273L177.909 77.4419L177.692 77.62L177.527 77.7092L177.387 78.3709L177.378 79.1037L177.556 79.3455L177.998 79.6855L178.681 79.9674L179.314 80.0273L180.523 79.891L181.018 79.451L180.989 79.2601L181 79.0128L182.061 78.3655L182.667 77.7909L182.572 77.6382L182.456 77.5364L182.563 77.4782L182.896 77.4382L184.374 76.8401L185.538 77.3291L186.201 77.8928L186.858 77.9873L187.314 78.2746L187.839 78.52L188.525 78.5364L189.103 78.5873L189.279 78.3601L189.461 78.211L189.667 78.2401L189.899 78.5382L190.556 78.7673L191.161 78.7546L191.585 78.671L191.838 78.7764L191.472 79.1582L191.527 79.7728L191.247 79.9674L190.979 80.2801L191.138 80.4855L191.278 80.5728L191.263 80.8219L191.02 80.9637L190.567 81.3346L190.307 81.3273L190.183 81.2564L190.096 81.1237L190.032 80.911L189.874 80.771L189.434 80.7164L188.98 80.7674L187.956 81.3182L186.958 81.7564L185.91 82.1037L185.56 82.3237L185.31 82.3837L184.876 82.2183L184.612 82.2292L184.558 82.3437L184.892 82.6492L184.979 82.8892L184.943 83.0728L184.754 83.1528L184.478 83.0182L184.227 83.2092L184.112 83.5328L184.107 84.3001L183.94 84.471L183.478 84.5655L182.987 84.8092L182.812 84.6964L182.743 84.5583L182.794 84.2055L182.732 84.0328L182.509 84.0419L182.17 84.1473L181.912 84.3801L181.823 84.5201L182.163 84.971L182.487 85.0164L182.565 85.1183L182.309 85.3382L181.669 85.6655L181.563 85.9401L181.374 86.2019L181.112 86.411L180.936 86.631L180.719 86.7455L180.367 86.8746L179.934 87.4001L179.616 87.8928L179.24 88.1455L178.941 88.9746L178.409 89.4255L178.212 90.1437L178.35 90.5855L178.936 90.5819L179.229 90.7365L179.836 91.3165L180.563 91.6946L181.318 91.9073L182.243 92.4437L182.498 92.671L182.716 93.131L183.118 94.4565L183.407 95.111L183.427 95.4528L183.858 96.0965L184.321 97.2019L184.854 98.1601L184.956 98.9128L184.783 99.2564V99.7019L185.316 100.111L186.498 100.586L186.687 100.726L186.918 100.955L186.929 101.671L187.11 101.9L187.265 102.04L187.98 102.342L188.278 102.593L188.594 102.995L188.687 103.355L188.725 103.842L188.325 103.86L188.003 103.806L186.723 103.173L186.39 103.156L185.921 103.244L185.25 103.127L184.543 102.427L184.032 102.215L183.485 102.107L182.176 102.711L181.843 102.669L181.747 102.736L181.599 102.84L182.205 102.969L182.812 102.771L183.396 102.478L184.247 102.635L184.39 102.896L184.529 103.342L185.112 103.642L185.57 103.775L186.152 104.167L186.721 104.782L187.927 105.495L188.414 106.169L188.603 106.604L188.772 107.224L188.35 107.424L187.983 107.453L187.409 107.551L186.985 107.771L186.561 108.156L185.345 108.762L185.114 109.14L184.956 109.469L184.66 109.631L183.914 109.476L183.212 109.489L182.416 109.935L182.218 110.115L182.35 110.08L182.474 110.022L182.832 110.089L183.385 109.851L183.925 110.576L184.979 110.46L185.972 109.858L186.356 109.847L186.678 109.94L187.036 110.178L187.99 111.235L188.514 111.349L189.029 111.596L189.312 111.624L189.569 111.698L188.88 112.084L187.987 112.916L187.59 113.115L187.325 113.338L188.041 113.226L188.552 112.827L188.81 112.729L189.018 112.822L189.123 113.311L188.927 114.82L188.676 114.846L188.432 114.435L188.147 114.304L187.907 114.389L187.43 114.387L187.249 114.573L187.096 114.835L187.381 114.889L187.943 115.346L188 115.589L187.849 115.747L187.456 115.68L187.932 116.02L187.807 116.373L187.652 116.513L187.376 116.602L187.205 116.907L187.45 117.416L187.7 118.069L187.73 118.384L187.341 118.247L186.736 118.646L186.416 118.678L186.2 118.155L185.923 118.237L185.74 118.389L185.494 118.951L185.194 119.458L184.936 119.598L184.627 119.558L184.372 119.573L184.434 119.709L184.705 119.876V120.071L184.129 120.689L184.036 120.927L184.05 121.131L183.749 121.378L183.91 121.793L183.827 122.086L183.563 122.48L183.287 122.74L182.96 123.162L182.547 123.407L182.001 124.291L181.841 124.733L181.8 125.189L181.629 125.347L181.336 125.546L181.003 125.446L180.992 125.142L180.849 125.117L180.767 124.918L180.743 124.664L180.778 124.46L180.64 124.522L180.554 124.76L180.334 124.953L180.105 124.875L179.858 124.717L179.865 124.944L179.996 125.173L180.052 125.402L180.394 125.451L180.623 125.713L180.803 126.115L180.84 126.266L180.979 126.446L180.998 126.598L180.672 126.74L180.265 127.006L179.776 127.46L179.37 127.764L179.007 127.766L178.787 127.729L178.472 127.555L178.112 127.482L178.596 128.095L178.861 128.204L179.196 128.18L179.519 127.951L179.978 127.975L180.092 128.327L179.97 128.726L179.721 129.242L179.669 129.689L179.979 130.327L179.992 130.52L179.878 130.617L179.514 130.447L179.212 130.236L178.909 130.293L178.594 130.202L178.27 130.278L178.14 130.426L178.229 130.669L178.518 130.871L178.681 131.182L178.487 131.291L177.665 131.218L177.481 131.277L177.236 131.618L177.396 132.124L177.214 132.438L176.876 132.511L176.43 132.766L176.156 132.824L176.169 132.933L176.369 133.044L176.476 133.193L176.234 133.709L175.858 133.878L175.28 133.795L174.825 133.911L174.432 133.691L174.014 133.686L173.729 133.964L173.698 134.286L173.421 134.318L173.272 134.295L173.061 134.318L173.083 134.491L173.203 134.642L173.769 134.709L173.87 134.926L173.892 135.26L173.301 135.837L173.05 136.226L172.67 136.215L172.383 136.526L172.229 136.947L172.038 136.864L171.598 136.931L171.469 137.133L171.572 137.217L171.583 137.362L171.407 137.837L171.214 137.969L171.132 137.775L171.07 137.475L170.914 137.451L170.658 137.727L170.358 137.926L170.101 138.007L169.909 137.824L169.434 137.727L169.239 138.524L168.845 138.813L168.659 138.904L168.338 138.931L168.543 139.04L168.607 139.244L168.492 139.447L168.17 139.487L167.983 139.646L167.912 140.357L167.721 140.606L167.234 140.626L166.869 140.46L166.752 140.591L166.69 140.718L166.499 140.846L166.13 140.88L165.31 141.198L164.936 141.106L164.487 140.986L164.178 141.104L164.074 141.347L163.932 141.537H163.481L163.121 141.302L162.754 141.133L162.349 141.278L162.039 141.576L161.659 141.677L161.589 141.862L161.423 141.955L161.021 141.917L160.869 141.457L160.638 141.389L160.409 141.622L160.329 141.804L160.221 141.94L160.259 142.317L160.034 142.324L159.738 142.093L159.429 142.053L159.138 142.267L158.99 142.215L158.834 142.169H158.58L158.481 142.226L158.296 142.26L158.17 142.376L158.159 142.387L157.832 142.309L157.432 141.997L157.145 141.478L156.781 141.2L156.62 140.955L156.556 140.515L156.489 140.306L156.512 140.071L156.623 139.864L156.23 139.967L155.941 140.16L156 140.404L155.929 140.629L155.498 140.746L155.523 140.84L155.55 140.94L155.89 141.249L155.959 141.509L156.096 141.647L156.361 142.051L156.356 142.829L156.501 143.049L156.454 143.267L156.347 143.562L156.338 143.566L156.261 143.477L156.134 143.495L156.083 143.593L156.074 143.682L156.052 143.686L155.829 143.751L155.64 143.806L155.485 143.886L155.247 144.116L154.79 144.173L154.556 143.629L154.241 143.991L154.147 144.731L154.03 144.857L153.836 144.962L153.465 144.704L153.141 144.876L152.89 145.051L152.787 145.213L152.601 145.389L152.245 145.22L151.959 144.966L152.03 144.775L151.99 144.649L151.861 144.555L151.719 144.569L151.789 144.817L151.836 145.291L151.707 145.429L151.507 145.535L151.072 145.447L150.776 145.271L150.418 145.122L150.101 145.095L150.034 145.395L149.827 145.636L149.636 145.667L149.447 145.629L149.198 145.891L149.079 146.082L148.772 146.284L147.954 146.382L147.669 146.582L147.285 146.551L146.989 146.598L146.819 146.587L146.665 146.48L146.492 146.477L146.414 146.809L145.952 146.949L145.536 146.987L145.072 147.426L144.741 147.691L144.496 147.718L144.316 147.624L144.225 147.231L144.132 147.186L144.079 147.553L143.99 147.86L143.821 148.027L143.285 148.409L143.13 148.787L143.232 149.137L143.952 149.222L144.041 149.413L143.97 149.569L143.798 149.7L143.747 149.897L144.519 150.52L144.543 150.757L144.423 150.891L144.278 151.18L143.87 151.426L143.009 151.551L142.29 151.424L142.072 151.144L142.085 150.946L142.263 151.004L142.467 150.986L142.407 150.804L142.321 150.697L141.989 150.535L141.719 150.098L141.772 149.735L141.625 149.453L141.465 149.217L141.303 149.075L141.218 148.898L141.381 148.346L141.29 148.024L141.598 147.631L141.674 147.187L142.225 147.029L142.263 146.606L141.869 146.593L141.596 146.282L141.534 146.413L141.314 146.427L140.954 145.827L140.845 145.751L140.67 145.74L140.758 146.375L140.336 146.613L139.99 146.717L139.499 146.76L139.219 146.833L138.958 146.773L139.023 146.58L139.161 146.351L139.038 146.16L138.761 146.013L138.338 146.022L138.045 145.982L137.754 145.998L137.647 145.913L137.376 145.613L137.147 145.426L137.043 145.24L137.147 145.024L137.061 144.893L136.618 144.878L136.621 145.187L136.667 145.553L136.796 145.831L136.705 145.986L136.479 146.093L136.239 145.8L136.13 145.727L136.014 145.742L135.925 146.035L135.707 146.293L135.314 146.266L135.008 146.426L134.618 146.46ZM145.97 152.618L146.163 152.798L146.289 153.058L146.394 153.538L146.456 153.98L146.063 154.26L145.71 154.375L145.005 155.453L144.858 155.793L144.738 155.935L144.699 156.084L144.714 156.231L144.532 156.749L144.37 157.386L144.269 157.646L144.067 157.846L143.81 157.947L143.643 157.962L143.49 158.018L143.118 158.364L142.698 158.624L142.767 158.742L142.77 158.855L142.587 158.98L142.381 158.957L141.789 159.058L141.57 159.253L141.349 159.611L141.265 159.66L140.908 159.744L140.636 159.777L140.172 159.524L139.941 159.449L139.327 159.346L138.73 159.175L138.312 158.98L137.454 158.5L137.354 157.635L137.207 157.167L137.198 157L137.254 155.558L137.314 155.4L137.423 155.262L137.803 154.94L138.238 154.686L138.861 154.151L139.314 153.906L139.694 153.553L139.472 153.567L139.308 153.524L139.47 153.222L139.643 153.06L139.843 152.973L140.245 153.037L140.616 152.975L140.89 152.707L141.152 152.651L142.145 152.738L142.832 152.617L143.178 152.371L143.339 152.362L143.849 152.431L144.038 152.687L144.021 152.515L144.043 152.347L144.136 152.366L144.799 152.684L144.801 152.295L144.838 152.193L145.045 152.031L145.149 152.033L145.405 152.347L145.656 152.529L145.97 152.618Z" fill="#808080" stroke="#808080" stroke-width="0.25" stroke-linecap="round" stroke-linejoin="round"/>
<path d="M158.142 142.361L158.152 142.35L158.278 142.234L158.463 142.199L158.562 142.143H158.816L158.972 142.188L159.12 142.241L159.134 142.257L159.218 142.41L159.192 142.581L159.351 142.664L159.391 142.833L159.216 142.926L159.205 143.124L159.127 143.246L158.625 143.03L158.211 142.917L157.84 142.961L157.703 142.833L157.68 142.703L158.109 142.474L158.142 142.361ZM158.985 143.593L158.889 143.657L158.621 143.357L158.605 143.259L158.811 143.241L159.042 143.375L159.029 143.499L158.985 143.593ZM158.074 143.593H157.605L157.505 143.553L157.456 143.466L157.622 143.308L158.254 143.09L158.096 143.319L158.074 143.593Z" fill="#808080" stroke="#808080" stroke-width="0.25" stroke-linecap="round" stroke-linejoin="round"/>
</svg>
