<svg width="130" height="20" viewBox="0 0 130 20" fill="none" xmlns="http://www.w3.org/2000/svg">
<rect x="0.5" y="0.5" width="129" height="19" stroke="black"/>
<path d="M8.42 13.12C8.012 13.12 7.632 13.048 7.28 12.904C6.928 12.752 6.616 12.52 6.344 12.208C6.08 11.896 5.872 11.5 5.72 11.02C5.568 10.54 5.492 9.968 5.492 9.304C5.492 8.72 5.548 8.212 5.66 7.78C5.772 7.34 5.924 6.972 6.116 6.676C6.308 6.38 6.528 6.144 6.776 5.968C7.024 5.792 7.284 5.664 7.556 5.584C7.828 5.504 8.1 5.464 8.372 5.464C8.916 5.464 9.38 5.6 9.764 5.872C10.148 6.136 10.436 6.492 10.628 6.94L9.908 7.276L9.8 7.324L9.764 7.24C9.788 7.176 9.788 7.12 9.764 7.072C9.74 7.016 9.696 6.932 9.632 6.82C9.432 6.548 9.224 6.368 9.008 6.28C8.8 6.184 8.58 6.136 8.348 6.136C8.036 6.136 7.752 6.208 7.496 6.352C7.248 6.488 7.032 6.692 6.848 6.964C6.672 7.228 6.536 7.552 6.44 7.936C6.352 8.32 6.308 8.756 6.308 9.244C6.308 9.716 6.36 10.144 6.464 10.528C6.576 10.912 6.724 11.244 6.908 11.524C7.1 11.804 7.32 12.02 7.568 12.172C7.824 12.324 8.096 12.4 8.384 12.4C8.584 12.4 8.776 12.364 8.96 12.292C9.152 12.22 9.328 12.116 9.488 11.98C9.648 11.836 9.784 11.672 9.896 11.488L10.52 11.896C10.28 12.296 9.992 12.6 9.656 12.808C9.32 13.016 8.908 13.12 8.42 13.12ZM14 13.096C13.504 13.096 13.064 12.976 12.68 12.736C12.304 12.488 12.008 12.152 11.792 11.728C11.576 11.296 11.468 10.804 11.468 10.252C11.468 9.692 11.576 9.2 11.792 8.776C12.008 8.344 12.304 8.008 12.68 7.768C13.064 7.52 13.504 7.396 14 7.396C14.496 7.396 14.932 7.52 15.308 7.768C15.692 8.008 15.992 8.344 16.208 8.776C16.424 9.2 16.532 9.692 16.532 10.252C16.532 10.804 16.424 11.296 16.208 11.728C15.992 12.152 15.692 12.488 15.308 12.736C14.932 12.976 14.496 13.096 14 13.096ZM14 12.376C14.32 12.376 14.6 12.284 14.84 12.1C15.08 11.916 15.268 11.664 15.404 11.344C15.548 11.024 15.62 10.656 15.62 10.24C15.62 9.824 15.548 9.456 15.404 9.136C15.268 8.816 15.08 8.568 14.84 8.392C14.6 8.208 14.32 8.116 14 8.116C13.688 8.116 13.408 8.208 13.16 8.392C12.92 8.568 12.728 8.816 12.584 9.136C12.448 9.456 12.38 9.824 12.38 10.24C12.38 10.656 12.448 11.024 12.584 11.344C12.728 11.664 12.92 11.916 13.16 12.1C13.408 12.284 13.688 12.376 14 12.376ZM17.864 13V7.516H18.704V8.488C18.848 8.264 19.016 8.072 19.208 7.912C19.4 7.744 19.612 7.616 19.844 7.528C20.076 7.432 20.316 7.384 20.564 7.384C20.868 7.384 21.14 7.46 21.38 7.612C21.62 7.764 21.812 8.008 21.956 8.344C22.1 8.68 22.172 9.124 22.172 9.676V13H21.332V9.7C21.332 9.316 21.288 9.012 21.2 8.788C21.112 8.556 20.992 8.392 20.84 8.296C20.688 8.192 20.516 8.14 20.324 8.14C20.14 8.14 19.952 8.18 19.76 8.26C19.576 8.34 19.404 8.456 19.244 8.608C19.084 8.752 18.952 8.928 18.848 9.136C18.752 9.344 18.704 9.58 18.704 9.844V13H17.864ZM26.012 13.12C25.708 13.12 25.416 13.088 25.136 13.024C24.864 12.96 24.604 12.864 24.356 12.736C24.116 12.608 23.892 12.448 23.684 12.256L24.164 11.44L24.236 11.332L24.308 11.38C24.324 11.444 24.34 11.512 24.356 11.584C24.38 11.648 24.436 11.728 24.524 11.824C24.692 11.992 24.892 12.132 25.124 12.244C25.364 12.348 25.668 12.4 26.036 12.4C26.332 12.4 26.58 12.364 26.78 12.292C26.988 12.22 27.148 12.12 27.26 11.992C27.372 11.856 27.428 11.7 27.428 11.524C27.428 11.404 27.404 11.3 27.356 11.212C27.308 11.116 27.228 11.028 27.116 10.948C27.012 10.868 26.872 10.788 26.696 10.708C26.52 10.628 26.304 10.548 26.048 10.468C25.632 10.348 25.268 10.208 24.956 10.048C24.644 9.888 24.404 9.704 24.236 9.496C24.068 9.28 23.984 9.036 23.984 8.764C23.984 8.484 24.06 8.244 24.212 8.044C24.364 7.836 24.588 7.676 24.884 7.564C25.188 7.444 25.56 7.384 26 7.384C26.256 7.384 26.488 7.404 26.696 7.444C26.904 7.476 27.096 7.528 27.272 7.6C27.448 7.672 27.608 7.764 27.752 7.876C27.904 7.98 28.048 8.104 28.184 8.248L27.692 8.848L27.608 8.944L27.548 8.884C27.54 8.82 27.52 8.76 27.488 8.704C27.464 8.64 27.408 8.564 27.32 8.476C27.136 8.332 26.928 8.224 26.696 8.152C26.464 8.072 26.24 8.032 26.024 8.032C25.704 8.032 25.428 8.088 25.196 8.2C24.964 8.312 24.848 8.484 24.848 8.716C24.848 8.836 24.888 8.956 24.968 9.076C25.056 9.188 25.212 9.304 25.436 9.424C25.66 9.536 25.98 9.652 26.396 9.772C26.852 9.916 27.216 10.064 27.488 10.216C27.768 10.36 27.968 10.528 28.088 10.72C28.216 10.912 28.28 11.14 28.28 11.404C28.28 11.708 28.196 11.992 28.028 12.256C27.868 12.52 27.62 12.732 27.284 12.892C26.948 13.044 26.524 13.12 26.012 13.12ZM32.588 13.084C32.236 13.084 31.948 13.024 31.724 12.904C31.5 12.784 31.328 12.6 31.208 12.352C31.088 12.096 31.008 11.776 30.968 11.392C30.936 11.008 30.928 10.552 30.944 10.024L31.088 6.112L31.988 6.004L32.108 5.992L32.12 6.076C32.08 6.132 32.044 6.188 32.012 6.244C31.988 6.3 31.968 6.396 31.952 6.532L31.844 7.888L31.88 8.104L31.796 10.084C31.772 10.692 31.788 11.164 31.844 11.5C31.9 11.828 32 12.056 32.144 12.184C32.288 12.304 32.48 12.364 32.72 12.364C32.984 12.364 33.216 12.312 33.416 12.208C33.624 12.104 33.84 11.972 34.064 11.812L34.328 12.496C34.056 12.696 33.776 12.844 33.488 12.94C33.2 13.036 32.9 13.084 32.588 13.084ZM29.84 7.516H33.788V8.224H29.84V7.516ZM36.428 7.516H37.328L37.292 9.112L37.184 8.932C37.232 8.684 37.316 8.464 37.436 8.272C37.556 8.08 37.7 7.92 37.868 7.792C38.036 7.656 38.22 7.556 38.42 7.492C38.62 7.42 38.828 7.384 39.044 7.384C39.332 7.384 39.596 7.436 39.836 7.54C40.084 7.636 40.304 7.784 40.496 7.984L40.112 8.656L40.064 8.764L39.98 8.716C39.964 8.652 39.94 8.592 39.908 8.536C39.876 8.48 39.808 8.412 39.704 8.332C39.576 8.252 39.456 8.2 39.344 8.176C39.24 8.144 39.12 8.128 38.984 8.128C38.784 8.128 38.584 8.168 38.384 8.248C38.184 8.32 38 8.436 37.832 8.596C37.672 8.756 37.544 8.96 37.448 9.208C37.352 9.456 37.304 9.752 37.304 10.096V13.012H36.428V7.516ZM43.652 13.132C43.436 13.132 43.232 13.1 43.04 13.036C42.848 12.972 42.672 12.876 42.512 12.748C42.36 12.612 42.228 12.444 42.116 12.244C42.004 12.044 41.916 11.804 41.852 11.524C41.796 11.244 41.768 10.928 41.768 10.576L41.78 7.516H42.62V10.576C42.62 10.92 42.652 11.212 42.716 11.452C42.78 11.692 42.868 11.884 42.98 12.028C43.1 12.172 43.236 12.276 43.388 12.34C43.54 12.404 43.7 12.436 43.868 12.436C44.06 12.436 44.244 12.4 44.42 12.328C44.596 12.248 44.752 12.132 44.888 11.98C45.032 11.828 45.144 11.632 45.224 11.392C45.304 11.152 45.344 10.868 45.344 10.54V7.516H46.184V12.148C46.184 12.292 46.188 12.436 46.196 12.58C46.212 12.716 46.248 12.856 46.304 13H45.476C45.436 12.904 45.408 12.812 45.392 12.724C45.376 12.628 45.364 12.532 45.356 12.436C45.356 12.34 45.356 12.248 45.356 12.16C45.268 12.312 45.164 12.448 45.044 12.568C44.924 12.688 44.788 12.792 44.636 12.88C44.492 12.96 44.336 13.02 44.168 13.06C44.008 13.108 43.836 13.132 43.652 13.132ZM50.42 13.132C50.02 13.132 49.652 13.06 49.316 12.916C48.98 12.772 48.688 12.572 48.44 12.316C48.2 12.06 48.012 11.76 47.876 11.416C47.74 11.064 47.672 10.68 47.672 10.264C47.672 9.856 47.74 9.48 47.876 9.136C48.012 8.784 48.2 8.48 48.44 8.224C48.688 7.968 48.98 7.768 49.316 7.624C49.652 7.48 50.016 7.408 50.408 7.408C50.856 7.408 51.256 7.5 51.608 7.684C51.968 7.86 52.26 8.108 52.484 8.428L51.944 8.956L51.86 9.04L51.8 8.98C51.8 8.916 51.784 8.856 51.752 8.8C51.728 8.744 51.668 8.668 51.572 8.572C51.396 8.412 51.208 8.3 51.008 8.236C50.808 8.172 50.576 8.14 50.312 8.14C50.08 8.14 49.86 8.188 49.652 8.284C49.444 8.38 49.256 8.52 49.088 8.704C48.928 8.88 48.8 9.096 48.704 9.352C48.608 9.608 48.56 9.892 48.56 10.204C48.56 10.516 48.608 10.804 48.704 11.068C48.8 11.324 48.932 11.548 49.1 11.74C49.268 11.932 49.468 12.084 49.7 12.196C49.94 12.3 50.196 12.352 50.468 12.352C50.652 12.352 50.828 12.328 50.996 12.28C51.164 12.224 51.324 12.148 51.476 12.052C51.628 11.948 51.768 11.824 51.896 11.68L52.4 12.268C52.128 12.556 51.824 12.772 51.488 12.916C51.16 13.06 50.804 13.132 50.42 13.132ZM56.588 13.084C56.236 13.084 55.948 13.024 55.724 12.904C55.5 12.784 55.328 12.6 55.208 12.352C55.088 12.096 55.008 11.776 54.968 11.392C54.936 11.008 54.928 10.552 54.944 10.024L55.088 6.112L55.988 6.004L56.108 5.992L56.12 6.076C56.08 6.132 56.044 6.188 56.012 6.244C55.988 6.3 55.968 6.396 55.952 6.532L55.844 7.888L55.88 8.104L55.796 10.084C55.772 10.692 55.788 11.164 55.844 11.5C55.9 11.828 56 12.056 56.144 12.184C56.288 12.304 56.48 12.364 56.72 12.364C56.984 12.364 57.216 12.312 57.416 12.208C57.624 12.104 57.84 11.972 58.064 11.812L58.328 12.496C58.056 12.696 57.776 12.844 57.488 12.94C57.2 13.036 56.9 13.084 56.588 13.084ZM53.84 7.516H57.788V8.224H53.84V7.516ZM60.2 13V12.304H61.604V8.212H60.272V7.516H62.468V12.304H63.752V13H60.2ZM61.988 6.364C61.82 6.364 61.676 6.304 61.556 6.184C61.436 6.064 61.376 5.92 61.376 5.752C61.376 5.576 61.432 5.428 61.544 5.308C61.664 5.188 61.812 5.128 61.988 5.128C62.156 5.128 62.3 5.192 62.42 5.32C62.548 5.44 62.612 5.584 62.612 5.752C62.612 5.92 62.548 6.064 62.42 6.184C62.3 6.304 62.156 6.364 61.988 6.364ZM68 13.096C67.504 13.096 67.064 12.976 66.68 12.736C66.304 12.488 66.008 12.152 65.792 11.728C65.576 11.296 65.468 10.804 65.468 10.252C65.468 9.692 65.576 9.2 65.792 8.776C66.008 8.344 66.304 8.008 66.68 7.768C67.064 7.52 67.504 7.396 68 7.396C68.496 7.396 68.932 7.52 69.308 7.768C69.692 8.008 69.992 8.344 70.208 8.776C70.424 9.2 70.532 9.692 70.532 10.252C70.532 10.804 70.424 11.296 70.208 11.728C69.992 12.152 69.692 12.488 69.308 12.736C68.932 12.976 68.496 13.096 68 13.096ZM68 12.376C68.32 12.376 68.6 12.284 68.84 12.1C69.08 11.916 69.268 11.664 69.404 11.344C69.548 11.024 69.62 10.656 69.62 10.24C69.62 9.824 69.548 9.456 69.404 9.136C69.268 8.816 69.08 8.568 68.84 8.392C68.6 8.208 68.32 8.116 68 8.116C67.688 8.116 67.408 8.208 67.16 8.392C66.92 8.568 66.728 8.816 66.584 9.136C66.448 9.456 66.38 9.824 66.38 10.24C66.38 10.656 66.448 11.024 66.584 11.344C66.728 11.664 66.92 11.916 67.16 12.1C67.408 12.284 67.688 12.376 68 12.376ZM71.864 13V7.516H72.704V8.488C72.848 8.264 73.016 8.072 73.208 7.912C73.4 7.744 73.612 7.616 73.844 7.528C74.076 7.432 74.316 7.384 74.564 7.384C74.868 7.384 75.14 7.46 75.38 7.612C75.62 7.764 75.812 8.008 75.956 8.344C76.1 8.68 76.172 9.124 76.172 9.676V13H75.332V9.7C75.332 9.316 75.288 9.012 75.2 8.788C75.112 8.556 74.992 8.392 74.84 8.296C74.688 8.192 74.516 8.14 74.324 8.14C74.14 8.14 73.952 8.18 73.76 8.26C73.576 8.34 73.404 8.456 73.244 8.608C73.084 8.752 72.952 8.928 72.848 9.136C72.752 9.344 72.704 9.58 72.704 9.844V13H71.864ZM83.708 13V5.524H86.108C86.668 5.524 87.12 5.62 87.464 5.812C87.808 6.004 88.06 6.26 88.22 6.58C88.388 6.892 88.472 7.244 88.472 7.636C88.472 7.924 88.428 8.192 88.34 8.44C88.252 8.688 88.112 8.908 87.92 9.1C87.736 9.292 87.5 9.44 87.212 9.544C86.924 9.648 86.576 9.7 86.168 9.7H84.572V13H83.708ZM84.572 8.956H86.072C86.44 8.956 86.736 8.904 86.96 8.8C87.184 8.688 87.348 8.536 87.452 8.344C87.556 8.144 87.608 7.916 87.608 7.66C87.608 7.412 87.556 7.188 87.452 6.988C87.348 6.788 87.184 6.628 86.96 6.508C86.736 6.38 86.444 6.316 86.084 6.316H84.572V8.956ZM90.428 7.516H91.328L91.292 9.112L91.184 8.932C91.232 8.684 91.316 8.464 91.436 8.272C91.556 8.08 91.7 7.92 91.868 7.792C92.036 7.656 92.22 7.556 92.42 7.492C92.62 7.42 92.828 7.384 93.044 7.384C93.332 7.384 93.596 7.436 93.836 7.54C94.084 7.636 94.304 7.784 94.496 7.984L94.112 8.656L94.064 8.764L93.98 8.716C93.964 8.652 93.94 8.592 93.908 8.536C93.876 8.48 93.808 8.412 93.704 8.332C93.576 8.252 93.456 8.2 93.344 8.176C93.24 8.144 93.12 8.128 92.984 8.128C92.784 8.128 92.584 8.168 92.384 8.248C92.184 8.32 92 8.436 91.832 8.596C91.672 8.756 91.544 8.96 91.448 9.208C91.352 9.456 91.304 9.752 91.304 10.096V13.012H90.428V7.516ZM98 13.096C97.504 13.096 97.064 12.976 96.68 12.736C96.304 12.488 96.008 12.152 95.792 11.728C95.576 11.296 95.468 10.804 95.468 10.252C95.468 9.692 95.576 9.2 95.792 8.776C96.008 8.344 96.304 8.008 96.68 7.768C97.064 7.52 97.504 7.396 98 7.396C98.496 7.396 98.932 7.52 99.308 7.768C99.692 8.008 99.992 8.344 100.208 8.776C100.424 9.2 100.532 9.692 100.532 10.252C100.532 10.804 100.424 11.296 100.208 11.728C99.992 12.152 99.692 12.488 99.308 12.736C98.932 12.976 98.496 13.096 98 13.096ZM98 12.376C98.32 12.376 98.6 12.284 98.84 12.1C99.08 11.916 99.268 11.664 99.404 11.344C99.548 11.024 99.62 10.656 99.62 10.24C99.62 9.824 99.548 9.456 99.404 9.136C99.268 8.816 99.08 8.568 98.84 8.392C98.6 8.208 98.32 8.116 98 8.116C97.688 8.116 97.408 8.208 97.16 8.392C96.92 8.568 96.728 8.816 96.584 9.136C96.448 9.456 96.38 9.824 96.38 10.24C96.38 10.656 96.448 11.024 96.584 11.344C96.728 11.664 96.92 11.916 97.16 12.1C97.408 12.284 97.688 12.376 98 12.376ZM103.328 15.088C102.984 15.088 102.656 15.024 102.344 14.896C102.04 14.768 101.784 14.576 101.576 14.32L102.056 13.672L102.128 13.576L102.2 13.624C102.216 13.688 102.236 13.748 102.26 13.804C102.284 13.868 102.34 13.948 102.428 14.044C102.54 14.132 102.668 14.204 102.812 14.26C102.964 14.316 103.132 14.344 103.316 14.344C103.556 14.344 103.768 14.288 103.952 14.176C104.144 14.072 104.292 13.904 104.396 13.672C104.5 13.448 104.552 13.152 104.552 12.784V8.224H102.512V7.516H105.428V12.736C105.428 13.288 105.332 13.736 105.14 14.08C104.948 14.432 104.692 14.688 104.372 14.848C104.06 15.008 103.712 15.088 103.328 15.088ZM104.924 6.364C104.756 6.364 104.612 6.304 104.492 6.184C104.372 6.064 104.312 5.92 104.312 5.752C104.312 5.576 104.368 5.428 104.48 5.308C104.6 5.188 104.748 5.128 104.924 5.128C105.092 5.128 105.236 5.192 105.356 5.32C105.484 5.44 105.548 5.584 105.548 5.752C105.548 5.92 105.484 6.064 105.356 6.184C105.236 6.304 105.092 6.364 104.924 6.364ZM110.264 13.12C109.864 13.12 109.5 13.06 109.172 12.94C108.844 12.812 108.56 12.628 108.32 12.388C108.088 12.148 107.908 11.852 107.78 11.5C107.652 11.14 107.588 10.732 107.588 10.276C107.588 9.812 107.652 9.4 107.78 9.04C107.916 8.68 108.096 8.38 108.32 8.14C108.552 7.892 108.82 7.704 109.124 7.576C109.436 7.448 109.764 7.384 110.108 7.384C110.42 7.384 110.712 7.436 110.984 7.54C111.256 7.644 111.492 7.804 111.692 8.02C111.892 8.228 112.048 8.496 112.16 8.824C112.28 9.152 112.34 9.54 112.34 9.988C112.34 10.052 112.336 10.12 112.328 10.192C112.328 10.256 112.324 10.32 112.316 10.384H108.416C108.432 10.736 108.492 11.044 108.596 11.308C108.7 11.564 108.836 11.776 109.004 11.944C109.172 12.104 109.364 12.224 109.58 12.304C109.804 12.384 110.04 12.424 110.288 12.424C110.48 12.424 110.66 12.404 110.828 12.364C110.996 12.316 111.152 12.248 111.296 12.16C111.448 12.064 111.584 11.948 111.704 11.812L112.184 12.28C112.032 12.464 111.856 12.62 111.656 12.748C111.464 12.876 111.252 12.968 111.02 13.024C110.788 13.088 110.536 13.12 110.264 13.12ZM108.452 9.712H111.464C111.464 9.456 111.428 9.228 111.356 9.028C111.292 8.82 111.196 8.644 111.068 8.5C110.948 8.348 110.8 8.236 110.624 8.164C110.456 8.084 110.264 8.044 110.048 8.044C109.856 8.044 109.672 8.076 109.496 8.14C109.328 8.204 109.172 8.308 109.028 8.452C108.884 8.588 108.76 8.76 108.656 8.968C108.56 9.176 108.492 9.424 108.452 9.712ZM116.42 13.132C116.02 13.132 115.652 13.06 115.316 12.916C114.98 12.772 114.688 12.572 114.44 12.316C114.2 12.06 114.012 11.76 113.876 11.416C113.74 11.064 113.672 10.68 113.672 10.264C113.672 9.856 113.74 9.48 113.876 9.136C114.012 8.784 114.2 8.48 114.44 8.224C114.688 7.968 114.98 7.768 115.316 7.624C115.652 7.48 116.016 7.408 116.408 7.408C116.856 7.408 117.256 7.5 117.608 7.684C117.968 7.86 118.26 8.108 118.484 8.428L117.944 8.956L117.86 9.04L117.8 8.98C117.8 8.916 117.784 8.856 117.752 8.8C117.728 8.744 117.668 8.668 117.572 8.572C117.396 8.412 117.208 8.3 117.008 8.236C116.808 8.172 116.576 8.14 116.312 8.14C116.08 8.14 115.86 8.188 115.652 8.284C115.444 8.38 115.256 8.52 115.088 8.704C114.928 8.88 114.8 9.096 114.704 9.352C114.608 9.608 114.56 9.892 114.56 10.204C114.56 10.516 114.608 10.804 114.704 11.068C114.8 11.324 114.932 11.548 115.1 11.74C115.268 11.932 115.468 12.084 115.7 12.196C115.94 12.3 116.196 12.352 116.468 12.352C116.652 12.352 116.828 12.328 116.996 12.28C117.164 12.224 117.324 12.148 117.476 12.052C117.628 11.948 117.768 11.824 117.896 11.68L118.4 12.268C118.128 12.556 117.824 12.772 117.488 12.916C117.16 13.06 116.804 13.132 116.42 13.132ZM122.588 13.084C122.236 13.084 121.948 13.024 121.724 12.904C121.5 12.784 121.328 12.6 121.208 12.352C121.088 12.096 121.008 11.776 120.968 11.392C120.936 11.008 120.928 10.552 120.944 10.024L121.088 6.112L121.988 6.004L122.108 5.992L122.12 6.076C122.08 6.132 122.044 6.188 122.012 6.244C121.988 6.3 121.968 6.396 121.952 6.532L121.844 7.888L121.88 8.104L121.796 10.084C121.772 10.692 121.788 11.164 121.844 11.5C121.9 11.828 122 12.056 122.144 12.184C122.288 12.304 122.48 12.364 122.72 12.364C122.984 12.364 123.216 12.312 123.416 12.208C123.624 12.104 123.84 11.972 124.064 11.812L124.328 12.496C124.056 12.696 123.776 12.844 123.488 12.94C123.2 13.036 122.9 13.084 122.588 13.084ZM119.84 7.516H123.788V8.224H119.84V7.516Z" fill="black"/>
</svg>
