<svg width="130" height="20" viewBox="0 0 130 20" fill="none" xmlns="http://www.w3.org/2000/svg">
<rect x="0.5" y="0.5" width="129" height="19" fill="black" stroke="black"/>
<path d="M8.3 13.144C7.892 13.144 7.504 13.068 7.136 12.916C6.776 12.764 6.456 12.532 6.176 12.22C5.896 11.908 5.676 11.512 5.516 11.032C5.364 10.544 5.288 9.968 5.288 9.304C5.288 8.72 5.348 8.208 5.468 7.768C5.596 7.328 5.764 6.956 5.972 6.652C6.188 6.348 6.428 6.104 6.692 5.92C6.964 5.728 7.244 5.592 7.532 5.512C7.828 5.424 8.12 5.38 8.408 5.38C8.992 5.38 9.488 5.504 9.896 5.752C10.304 6 10.62 6.36 10.844 6.832L9.908 7.672L9.824 7.744L9.74 7.648C9.74 7.584 9.732 7.52 9.716 7.456C9.7 7.392 9.656 7.308 9.584 7.204C9.432 7.028 9.268 6.912 9.092 6.856C8.916 6.792 8.736 6.76 8.552 6.76C8.376 6.76 8.196 6.812 8.012 6.916C7.828 7.012 7.656 7.164 7.496 7.372C7.344 7.572 7.22 7.828 7.124 8.14C7.028 8.452 6.98 8.82 6.98 9.244C6.98 9.652 7.012 10.012 7.076 10.324C7.148 10.636 7.244 10.9 7.364 11.116C7.492 11.324 7.64 11.484 7.808 11.596C7.984 11.7 8.176 11.752 8.384 11.752C8.576 11.752 8.744 11.732 8.888 11.692C9.032 11.652 9.164 11.576 9.284 11.464C9.404 11.352 9.52 11.196 9.632 10.996L10.784 11.872C10.48 12.36 10.124 12.696 9.716 12.88C9.308 13.056 8.836 13.144 8.3 13.144ZM13.988 13.144C13.484 13.144 13.024 13.024 12.608 12.784C12.192 12.536 11.86 12.188 11.612 11.74C11.364 11.292 11.24 10.772 11.24 10.18C11.24 9.628 11.364 9.128 11.612 8.68C11.86 8.232 12.192 7.876 12.608 7.612C13.024 7.348 13.484 7.216 13.988 7.216C14.492 7.216 14.952 7.348 15.368 7.612C15.792 7.876 16.128 8.232 16.376 8.68C16.632 9.128 16.76 9.628 16.76 10.18C16.76 10.764 16.632 11.28 16.376 11.728C16.128 12.176 15.792 12.524 15.368 12.772C14.952 13.02 14.492 13.144 13.988 13.144ZM13.988 11.812C14.204 11.812 14.392 11.744 14.552 11.608C14.72 11.472 14.852 11.284 14.948 11.044C15.044 10.796 15.092 10.508 15.092 10.18C15.092 9.828 15.044 9.532 14.948 9.292C14.852 9.052 14.72 8.868 14.552 8.74C14.392 8.612 14.204 8.548 13.988 8.548C13.788 8.548 13.604 8.612 13.436 8.74C13.276 8.868 13.148 9.052 13.052 9.292C12.956 9.532 12.908 9.828 12.908 10.18C12.908 10.508 12.952 10.796 13.04 11.044C13.136 11.284 13.264 11.472 13.424 11.608C13.592 11.744 13.78 11.812 13.988 11.812ZM17.516 13V7.348H19.232V7.996C19.36 7.844 19.492 7.712 19.628 7.6C19.764 7.48 19.916 7.388 20.084 7.324C20.26 7.252 20.456 7.216 20.672 7.216C21.008 7.216 21.324 7.3 21.62 7.468C21.916 7.628 22.156 7.884 22.34 8.236C22.524 8.58 22.616 9.036 22.616 9.604V13H20.912V9.616C20.912 9.36 20.888 9.148 20.84 8.98C20.792 8.804 20.716 8.672 20.612 8.584C20.508 8.496 20.376 8.452 20.216 8.452C20.088 8.452 19.964 8.48 19.844 8.536C19.724 8.584 19.616 8.656 19.52 8.752C19.432 8.848 19.36 8.964 19.304 9.1C19.256 9.236 19.232 9.388 19.232 9.556V13H17.516ZM26.18 13.144C25.812 13.144 25.46 13.112 25.124 13.048C24.796 12.992 24.492 12.9 24.212 12.772C23.932 12.636 23.676 12.46 23.444 12.244L24.116 10.948L24.164 10.852L24.272 10.912C24.296 10.968 24.32 11.032 24.344 11.104C24.376 11.168 24.44 11.244 24.536 11.332C24.76 11.5 25.004 11.628 25.268 11.716C25.54 11.804 25.848 11.848 26.192 11.848C26.368 11.848 26.516 11.828 26.636 11.788C26.764 11.748 26.86 11.696 26.924 11.632C26.996 11.56 27.032 11.484 27.032 11.404C27.032 11.324 27.004 11.256 26.948 11.2C26.9 11.144 26.824 11.096 26.72 11.056C26.624 11.008 26.496 10.96 26.336 10.912C26.176 10.864 25.988 10.812 25.772 10.756C25.372 10.652 25.024 10.524 24.728 10.372C24.44 10.22 24.216 10.032 24.056 9.808C23.896 9.576 23.816 9.3 23.816 8.98C23.816 8.652 23.916 8.356 24.116 8.092C24.316 7.828 24.588 7.616 24.932 7.456C25.284 7.296 25.684 7.216 26.132 7.216C26.348 7.216 26.56 7.236 26.768 7.276C26.984 7.308 27.188 7.36 27.38 7.432C27.572 7.496 27.756 7.584 27.932 7.696C28.108 7.8 28.272 7.924 28.424 8.068L27.644 9.208L27.572 9.304L27.464 9.22C27.456 9.156 27.436 9.096 27.404 9.04C27.38 8.984 27.32 8.912 27.224 8.824C27.072 8.72 26.904 8.648 26.72 8.608C26.544 8.56 26.356 8.536 26.156 8.536C25.924 8.536 25.72 8.572 25.544 8.644C25.368 8.716 25.28 8.824 25.28 8.968C25.28 9.064 25.328 9.144 25.424 9.208C25.52 9.272 25.66 9.332 25.844 9.388C26.036 9.436 26.272 9.492 26.552 9.556C27 9.652 27.368 9.784 27.656 9.952C27.944 10.112 28.156 10.308 28.292 10.54C28.436 10.772 28.508 11.04 28.508 11.344C28.508 11.664 28.416 11.964 28.232 12.244C28.048 12.516 27.78 12.736 27.428 12.904C27.084 13.064 26.668 13.144 26.18 13.144ZM32.588 13.144C32.292 13.144 32.02 13.096 31.772 13C31.524 12.912 31.312 12.76 31.136 12.544C30.96 12.32 30.828 12.016 30.74 11.632C30.652 11.248 30.62 10.76 30.644 10.168L30.812 6.088L32.54 5.86L32.648 5.848L32.66 5.98C32.628 6.036 32.596 6.092 32.564 6.148C32.532 6.204 32.512 6.3 32.504 6.436L32.36 8.284H32.432L32.336 10.084C32.312 10.54 32.328 10.896 32.384 11.152C32.448 11.4 32.536 11.572 32.648 11.668C32.768 11.764 32.892 11.812 33.02 11.812C33.268 11.812 33.492 11.76 33.692 11.656C33.9 11.552 34.08 11.436 34.232 11.308L34.52 12.496C34.248 12.696 33.952 12.856 33.632 12.976C33.32 13.088 32.972 13.144 32.588 13.144ZM29.612 7.348H34.148L34.124 8.668H29.588L29.612 7.348ZM35.828 7.348H37.568V8.896L37.376 8.848C37.4 8.608 37.46 8.392 37.556 8.2C37.66 8 37.792 7.828 37.952 7.684C38.112 7.532 38.288 7.416 38.48 7.336C38.68 7.256 38.884 7.216 39.092 7.216C39.42 7.216 39.712 7.268 39.968 7.372C40.224 7.476 40.464 7.644 40.688 7.876L39.992 9.328L39.956 9.424L39.836 9.376C39.804 9.312 39.78 9.244 39.764 9.172C39.748 9.092 39.696 9.004 39.608 8.908C39.504 8.82 39.384 8.748 39.248 8.692C39.12 8.628 38.976 8.596 38.816 8.596C38.632 8.596 38.46 8.624 38.3 8.68C38.148 8.736 38.016 8.824 37.904 8.944C37.792 9.064 37.704 9.216 37.64 9.4C37.576 9.584 37.544 9.804 37.544 10.06V13H35.828V7.348ZM43.472 13.144C43.24 13.144 43.02 13.116 42.812 13.06C42.612 13.004 42.428 12.916 42.26 12.796C42.1 12.676 41.96 12.524 41.84 12.34C41.72 12.156 41.628 11.936 41.564 11.68C41.5 11.416 41.468 11.116 41.468 10.78V7.348H43.172V10.78C43.172 10.964 43.184 11.12 43.208 11.248C43.24 11.376 43.284 11.484 43.34 11.572C43.396 11.652 43.46 11.712 43.532 11.752C43.612 11.784 43.696 11.8 43.784 11.8C43.936 11.8 44.068 11.776 44.18 11.728C44.3 11.68 44.396 11.608 44.468 11.512C44.548 11.408 44.604 11.284 44.636 11.14C44.676 10.996 44.696 10.828 44.696 10.636V7.348H46.412V12.088C46.412 12.28 46.416 12.448 46.424 12.592C46.44 12.728 46.476 12.864 46.532 13H45.008C44.968 12.928 44.94 12.856 44.924 12.784C44.908 12.712 44.896 12.64 44.888 12.568C44.888 12.496 44.888 12.424 44.888 12.352C44.808 12.488 44.712 12.608 44.6 12.712C44.496 12.808 44.38 12.888 44.252 12.952C44.132 13.016 44.004 13.064 43.868 13.096C43.74 13.128 43.608 13.144 43.472 13.144ZM50.288 13.144C49.872 13.144 49.484 13.076 49.124 12.94C48.764 12.796 48.448 12.596 48.176 12.34C47.912 12.076 47.704 11.768 47.552 11.416C47.408 11.064 47.336 10.676 47.336 10.252C47.336 9.836 47.408 9.444 47.552 9.076C47.704 8.708 47.912 8.388 48.176 8.116C48.448 7.836 48.764 7.616 49.124 7.456C49.484 7.296 49.876 7.216 50.3 7.216C50.86 7.216 51.34 7.316 51.74 7.516C52.14 7.708 52.456 7.98 52.688 8.332L51.788 9.352L51.716 9.436L51.608 9.352C51.6 9.288 51.592 9.22 51.584 9.148C51.576 9.076 51.532 8.988 51.452 8.884C51.316 8.748 51.16 8.656 50.984 8.608C50.808 8.56 50.608 8.536 50.384 8.536C50.208 8.536 50.04 8.576 49.88 8.656C49.72 8.728 49.576 8.836 49.448 8.98C49.32 9.124 49.22 9.304 49.148 9.52C49.076 9.736 49.04 9.988 49.04 10.276C49.04 10.524 49.076 10.748 49.148 10.948C49.228 11.14 49.328 11.3 49.448 11.428C49.576 11.556 49.716 11.656 49.868 11.728C50.028 11.792 50.188 11.824 50.348 11.824C50.508 11.824 50.664 11.804 50.816 11.764C50.976 11.724 51.132 11.656 51.284 11.56C51.444 11.456 51.596 11.312 51.74 11.128L52.652 12.172C52.34 12.524 51.968 12.776 51.536 12.928C51.104 13.072 50.688 13.144 50.288 13.144ZM56.588 13.144C56.292 13.144 56.02 13.096 55.772 13C55.524 12.912 55.312 12.76 55.136 12.544C54.96 12.32 54.828 12.016 54.74 11.632C54.652 11.248 54.62 10.76 54.644 10.168L54.812 6.088L56.54 5.86L56.648 5.848L56.66 5.98C56.628 6.036 56.596 6.092 56.564 6.148C56.532 6.204 56.512 6.3 56.504 6.436L56.36 8.284H56.432L56.336 10.084C56.312 10.54 56.328 10.896 56.384 11.152C56.448 11.4 56.536 11.572 56.648 11.668C56.768 11.764 56.892 11.812 57.02 11.812C57.268 11.812 57.492 11.76 57.692 11.656C57.9 11.552 58.08 11.436 58.232 11.308L58.52 12.496C58.248 12.696 57.952 12.856 57.632 12.976C57.32 13.088 56.972 13.144 56.588 13.144ZM53.612 7.348H58.148L58.124 8.668H53.588L53.612 7.348ZM59.888 13V11.68H61.232V8.668H59.948V7.348H62.936V11.68H64.16V13H59.888ZM62 6.58C61.72 6.58 61.48 6.488 61.28 6.304C61.088 6.112 60.992 5.888 60.992 5.632C60.992 5.352 61.084 5.124 61.268 4.948C61.46 4.772 61.704 4.684 62 4.684C62.264 4.684 62.496 4.78 62.696 4.972C62.904 5.156 63.008 5.376 63.008 5.632C63.008 5.888 62.904 6.112 62.696 6.304C62.496 6.488 62.264 6.58 62 6.58ZM67.988 13.144C67.484 13.144 67.024 13.024 66.608 12.784C66.192 12.536 65.86 12.188 65.612 11.74C65.364 11.292 65.24 10.772 65.24 10.18C65.24 9.628 65.364 9.128 65.612 8.68C65.86 8.232 66.192 7.876 66.608 7.612C67.024 7.348 67.484 7.216 67.988 7.216C68.492 7.216 68.952 7.348 69.368 7.612C69.792 7.876 70.128 8.232 70.376 8.68C70.632 9.128 70.76 9.628 70.76 10.18C70.76 10.764 70.632 11.28 70.376 11.728C70.128 12.176 69.792 12.524 69.368 12.772C68.952 13.02 68.492 13.144 67.988 13.144ZM67.988 11.812C68.204 11.812 68.392 11.744 68.552 11.608C68.72 11.472 68.852 11.284 68.948 11.044C69.044 10.796 69.092 10.508 69.092 10.18C69.092 9.828 69.044 9.532 68.948 9.292C68.852 9.052 68.72 8.868 68.552 8.74C68.392 8.612 68.204 8.548 67.988 8.548C67.788 8.548 67.604 8.612 67.436 8.74C67.276 8.868 67.148 9.052 67.052 9.292C66.956 9.532 66.908 9.828 66.908 10.18C66.908 10.508 66.952 10.796 67.04 11.044C67.136 11.284 67.264 11.472 67.424 11.608C67.592 11.744 67.78 11.812 67.988 11.812ZM71.516 13V7.348H73.232V7.996C73.36 7.844 73.492 7.712 73.628 7.6C73.764 7.48 73.916 7.388 74.084 7.324C74.26 7.252 74.456 7.216 74.672 7.216C75.008 7.216 75.324 7.3 75.62 7.468C75.916 7.628 76.156 7.884 76.34 8.236C76.524 8.58 76.616 9.036 76.616 9.604V13H74.912V9.616C74.912 9.36 74.888 9.148 74.84 8.98C74.792 8.804 74.716 8.672 74.612 8.584C74.508 8.496 74.376 8.452 74.216 8.452C74.088 8.452 73.964 8.48 73.844 8.536C73.724 8.584 73.616 8.656 73.52 8.752C73.432 8.848 73.36 8.964 73.304 9.1C73.256 9.236 73.232 9.388 73.232 9.556V13H71.516ZM83.48 13V5.524H86.132C86.724 5.524 87.216 5.628 87.608 5.836C88 6.036 88.292 6.308 88.484 6.652C88.676 6.988 88.772 7.36 88.772 7.768C88.772 8.072 88.716 8.36 88.604 8.632C88.5 8.896 88.34 9.128 88.124 9.328C87.916 9.528 87.648 9.688 87.32 9.808C87 9.92 86.624 9.976 86.192 9.976H85.208V13H83.48ZM85.208 8.596H86.096C86.28 8.596 86.44 8.56 86.576 8.488C86.72 8.416 86.832 8.316 86.912 8.188C86.992 8.06 87.032 7.916 87.032 7.756C87.032 7.588 86.992 7.444 86.912 7.324C86.832 7.204 86.724 7.112 86.588 7.048C86.452 6.984 86.292 6.952 86.108 6.952H85.208V8.596ZM89.828 7.348H91.568V8.896L91.376 8.848C91.4 8.608 91.46 8.392 91.556 8.2C91.66 8 91.792 7.828 91.952 7.684C92.112 7.532 92.288 7.416 92.48 7.336C92.68 7.256 92.884 7.216 93.092 7.216C93.42 7.216 93.712 7.268 93.968 7.372C94.224 7.476 94.464 7.644 94.688 7.876L93.992 9.328L93.956 9.424L93.836 9.376C93.804 9.312 93.78 9.244 93.764 9.172C93.748 9.092 93.696 9.004 93.608 8.908C93.504 8.82 93.384 8.748 93.248 8.692C93.12 8.628 92.976 8.596 92.816 8.596C92.632 8.596 92.46 8.624 92.3 8.68C92.148 8.736 92.016 8.824 91.904 8.944C91.792 9.064 91.704 9.216 91.64 9.4C91.576 9.584 91.544 9.804 91.544 10.06V13H89.828V7.348ZM97.988 13.144C97.484 13.144 97.024 13.024 96.608 12.784C96.192 12.536 95.86 12.188 95.612 11.74C95.364 11.292 95.24 10.772 95.24 10.18C95.24 9.628 95.364 9.128 95.612 8.68C95.86 8.232 96.192 7.876 96.608 7.612C97.024 7.348 97.484 7.216 97.988 7.216C98.492 7.216 98.952 7.348 99.368 7.612C99.792 7.876 100.128 8.232 100.376 8.68C100.632 9.128 100.76 9.628 100.76 10.18C100.76 10.764 100.632 11.28 100.376 11.728C100.128 12.176 99.792 12.524 99.368 12.772C98.952 13.02 98.492 13.144 97.988 13.144ZM97.988 11.812C98.204 11.812 98.392 11.744 98.552 11.608C98.72 11.472 98.852 11.284 98.948 11.044C99.044 10.796 99.092 10.508 99.092 10.18C99.092 9.828 99.044 9.532 98.948 9.292C98.852 9.052 98.72 8.868 98.552 8.74C98.392 8.612 98.204 8.548 97.988 8.548C97.788 8.548 97.604 8.612 97.436 8.74C97.276 8.868 97.148 9.052 97.052 9.292C96.956 9.532 96.908 9.828 96.908 10.18C96.908 10.508 96.952 10.796 97.04 11.044C97.136 11.284 97.264 11.472 97.424 11.608C97.592 11.744 97.78 11.812 97.988 11.812ZM103.268 15.124C102.868 15.124 102.508 15.044 102.188 14.884C101.876 14.732 101.584 14.508 101.312 14.212L102.224 13.012L102.296 12.928L102.404 13C102.42 13.064 102.432 13.128 102.44 13.192C102.456 13.264 102.504 13.352 102.584 13.456C102.672 13.544 102.768 13.612 102.872 13.66C102.984 13.716 103.116 13.744 103.268 13.744C103.452 13.744 103.592 13.708 103.688 13.636C103.792 13.564 103.86 13.452 103.892 13.3C103.932 13.156 103.952 12.98 103.952 12.772V8.668H102.068V7.348H105.668V12.604C105.668 13.204 105.552 13.688 105.32 14.056C105.088 14.432 104.788 14.704 104.42 14.872C104.06 15.04 103.676 15.124 103.268 15.124ZM104.696 6.58C104.416 6.58 104.176 6.488 103.976 6.304C103.784 6.112 103.688 5.888 103.688 5.632C103.688 5.352 103.78 5.124 103.964 4.948C104.156 4.772 104.4 4.684 104.696 4.684C104.96 4.684 105.192 4.78 105.392 4.972C105.6 5.156 105.704 5.376 105.704 5.632C105.704 5.888 105.6 6.112 105.392 6.304C105.192 6.488 104.96 6.58 104.696 6.58ZM110.24 13.144C109.84 13.144 109.464 13.08 109.112 12.952C108.768 12.816 108.464 12.624 108.2 12.376C107.944 12.128 107.744 11.824 107.6 11.464C107.456 11.096 107.384 10.684 107.384 10.228C107.384 9.764 107.452 9.348 107.588 8.98C107.732 8.604 107.924 8.288 108.164 8.032C108.412 7.768 108.7 7.568 109.028 7.432C109.356 7.288 109.712 7.216 110.096 7.216C110.424 7.216 110.736 7.276 111.032 7.396C111.336 7.516 111.604 7.696 111.836 7.936C112.068 8.168 112.252 8.46 112.388 8.812C112.524 9.156 112.592 9.552 112.592 10C112.592 10.096 112.592 10.216 112.592 10.36C112.592 10.504 112.588 10.62 112.58 10.708H109.016C109.032 10.908 109.08 11.08 109.16 11.224C109.24 11.36 109.34 11.476 109.46 11.572C109.588 11.66 109.724 11.728 109.868 11.776C110.02 11.816 110.172 11.836 110.324 11.836C110.484 11.836 110.636 11.824 110.78 11.8C110.924 11.776 111.064 11.732 111.2 11.668C111.336 11.596 111.468 11.496 111.596 11.368L112.436 12.184C112.244 12.408 112.032 12.592 111.8 12.736C111.568 12.88 111.32 12.984 111.056 13.048C110.792 13.112 110.52 13.144 110.24 13.144ZM109.028 9.46H110.984C110.984 9.3 110.964 9.164 110.924 9.052C110.884 8.932 110.824 8.836 110.744 8.764C110.664 8.684 110.564 8.628 110.444 8.596C110.324 8.556 110.188 8.536 110.036 8.536C109.9 8.536 109.772 8.556 109.652 8.596C109.54 8.628 109.44 8.684 109.352 8.764C109.264 8.836 109.192 8.932 109.136 9.052C109.08 9.164 109.044 9.3 109.028 9.46ZM116.288 13.144C115.872 13.144 115.484 13.076 115.124 12.94C114.764 12.796 114.448 12.596 114.176 12.34C113.912 12.076 113.704 11.768 113.552 11.416C113.408 11.064 113.336 10.676 113.336 10.252C113.336 9.836 113.408 9.444 113.552 9.076C113.704 8.708 113.912 8.388 114.176 8.116C114.448 7.836 114.764 7.616 115.124 7.456C115.484 7.296 115.876 7.216 116.3 7.216C116.86 7.216 117.34 7.316 117.74 7.516C118.14 7.708 118.456 7.98 118.688 8.332L117.788 9.352L117.716 9.436L117.608 9.352C117.6 9.288 117.592 9.22 117.584 9.148C117.576 9.076 117.532 8.988 117.452 8.884C117.316 8.748 117.16 8.656 116.984 8.608C116.808 8.56 116.608 8.536 116.384 8.536C116.208 8.536 116.04 8.576 115.88 8.656C115.72 8.728 115.576 8.836 115.448 8.98C115.32 9.124 115.22 9.304 115.148 9.52C115.076 9.736 115.04 9.988 115.04 10.276C115.04 10.524 115.076 10.748 115.148 10.948C115.228 11.14 115.328 11.3 115.448 11.428C115.576 11.556 115.716 11.656 115.868 11.728C116.028 11.792 116.188 11.824 116.348 11.824C116.508 11.824 116.664 11.804 116.816 11.764C116.976 11.724 117.132 11.656 117.284 11.56C117.444 11.456 117.596 11.312 117.74 11.128L118.652 12.172C118.34 12.524 117.968 12.776 117.536 12.928C117.104 13.072 116.688 13.144 116.288 13.144ZM122.588 13.144C122.292 13.144 122.02 13.096 121.772 13C121.524 12.912 121.312 12.76 121.136 12.544C120.96 12.32 120.828 12.016 120.74 11.632C120.652 11.248 120.62 10.76 120.644 10.168L120.812 6.088L122.54 5.86L122.648 5.848L122.66 5.98C122.628 6.036 122.596 6.092 122.564 6.148C122.532 6.204 122.512 6.3 122.504 6.436L122.36 8.284H122.432L122.336 10.084C122.312 10.54 122.328 10.896 122.384 11.152C122.448 11.4 122.536 11.572 122.648 11.668C122.768 11.764 122.892 11.812 123.02 11.812C123.268 11.812 123.492 11.76 123.692 11.656C123.9 11.552 124.08 11.436 124.232 11.308L124.52 12.496C124.248 12.696 123.952 12.856 123.632 12.976C123.32 13.088 122.972 13.144 122.588 13.144ZM119.612 7.348H124.148L124.124 8.668H119.588L119.612 7.348Z" fill="white"/>
</svg>
