<svg width="87" height="67" viewBox="0 0 87 67" fill="none" xmlns="http://www.w3.org/2000/svg">
<path d="M85.373 15.6741L9.51099 15.0471L21.4232 56.4264H74.0878L85.373 15.6741Z" fill="white" stroke="black"/>
<path d="M47.7551 0.5C58.2696 0.5 67.7663 2.1773 74.6155 4.87207C78.0413 6.21994 80.7798 7.81282 82.6536 9.55566C84.5266 11.298 85.5002 13.1543 85.5002 15.0469C85.5002 16.9395 84.5267 18.7957 82.6536 20.5381C80.7798 22.281 78.0414 23.8738 74.6155 25.2217C67.7663 27.9165 58.2696 29.5938 47.7551 29.5938C37.2409 29.5937 27.7449 27.9164 20.8958 25.2217C17.4696 23.8737 14.7305 22.2811 12.8567 20.5381C10.9836 18.7957 10.011 16.9395 10.011 15.0469C10.011 13.1543 10.9836 11.298 12.8567 9.55566C14.7305 7.81268 17.4697 6.22003 20.8958 4.87207C27.7449 2.17739 37.2409 0.500037 47.7551 0.5Z" fill="white" stroke="black"/>
<path d="M47.7552 46.895C55.1559 46.895 61.8342 48.0117 66.6439 49.8013C69.0507 50.6968 70.9639 51.7515 72.266 52.897C73.5689 54.0431 74.2152 55.2372 74.2152 56.4263C74.2152 57.6154 73.5688 58.8094 72.266 59.9556C70.9639 61.101 69.0507 62.1557 66.6439 63.0513C61.8342 64.8409 55.156 65.9575 47.7552 65.9575C40.3545 65.9575 33.6763 64.8409 28.8666 63.0513C26.46 62.1558 24.5475 61.101 23.2455 59.9556C21.9426 58.8094 21.2963 57.6154 21.2963 56.4263C21.2963 55.2372 21.9426 54.0431 23.2455 52.897C24.5475 51.7516 26.46 50.6967 28.8666 49.8013C33.6763 48.0116 40.3545 46.895 47.7552 46.895Z" fill="white" stroke="black"/>
<path d="M9.51099 15.0471L21.2785 56.4264M74.2324 56.4264L86 15.0471" stroke="black"/>
<path d="M1.36056 30.0942C3.36683 24.5769 10.138 26.1234 13.2728 27.5863L14.5267 31.975C13.6907 31.7661 13.2728 31.3481 10.7649 30.7211C9.40487 30.3811 6.37622 30.0942 5.74926 31.3481C5.1223 32.602 5.74926 35.1098 8.88405 37.6177C11.3919 39.6239 15.3626 41.3794 17.0345 42.0064L18.2884 45.7681C17.6615 45.7681 15.7806 45.5174 13.2728 44.5142C10.138 43.2603 -1.14727 36.9907 1.36056 30.0942Z" fill="white" stroke="black"/>
<path d="M22.0502 57.6803L15.7806 35.1098C19.3334 34.6918 27.6929 34.1067 32.7085 35.1098C38.9781 36.3637 45.2477 38.8715 49.6364 38.8715C54.0251 38.8715 59.0408 36.9907 65.3104 36.3637C70.3261 35.8621 76.5957 37.8266 79.1035 38.8715L74.0878 56.4264C73.2519 57.8893 70.953 61.0659 68.4452 62.069C65.3104 63.3229 54.0251 67.0847 40.232 65.2038C29.1976 63.6991 23.5131 59.5612 22.0502 57.6803Z" fill="#424242" fill-opacity="0.1"/>
<path d="M25.8504 47.6767C25.3488 51.6893 29.8481 55.1321 33.3739 56.4542C39.0165 58.5701 45.9131 60.216 47.7939 55.8272C49.2986 52.3163 43.4052 48.7216 39.6435 47.0497C36.5087 45.1686 26.352 43.6642 25.8504 47.6767Z" fill="white"/>
<path d="M37.0971 51.4107L28.9467 52.0377M37.0971 51.4107L35.2163 55.1725M37.0971 51.4107L40.8589 55.1725M37.0971 51.4107H42.1128M37.0971 51.4107V47.6489M37.0971 51.4107L29.5736 47.6489M33.3739 56.4542C29.8481 55.1321 25.3488 51.6893 25.8504 47.6767C26.352 43.6642 36.5087 45.1686 39.6435 47.0497C43.4052 48.7216 49.2986 52.3163 47.7939 55.8272C45.9131 60.216 39.0165 58.5701 33.3739 56.4542Z" stroke="black"/>
<path d="M43.4033 47.0043C46.8737 51.4662 54.7238 50.4219 59.5156 48.2438C67.1844 44.7579 75.6279 39.568 73.1491 33.371C71.166 28.4133 61.7877 30.6855 56.417 32.7511C51.4592 33.9904 39.933 42.5425 43.4033 47.0043Z" fill="white"/>
<path d="M58.2107 39.5785L50.7742 48.2543M58.2107 39.5785L60.0698 45.1558M58.2107 39.5785H65.6471M58.2107 39.5785L63.1683 34.6209M58.2107 39.5785L54.4925 35.8603M58.2107 39.5785L47.056 43.2967M59.5156 48.2438C54.7238 50.4219 46.8737 51.4662 43.4033 47.0043C39.933 42.5425 51.4592 33.9904 56.417 32.7511C61.7877 30.6855 71.166 28.4133 73.1491 33.371C75.6279 39.568 67.1844 44.7579 59.5156 48.2438Z" stroke="black"/>
</svg>
