<svg width="100" height="20" viewBox="0 0 100 20" fill="none" xmlns="http://www.w3.org/2000/svg">
<rect x="0.5" y="0.5" width="99" height="19" fill="black" stroke="black"/>
<path d="M5.408 13V5.524H7.46C7.908 5.524 8.284 5.564 8.588 5.644C8.892 5.724 9.152 5.844 9.368 6.004C9.584 6.156 9.776 6.344 9.944 6.568C10.112 6.792 10.256 7.048 10.376 7.336C10.504 7.616 10.6 7.92 10.664 8.248C10.736 8.576 10.772 8.932 10.772 9.316C10.772 9.884 10.704 10.396 10.568 10.852C10.432 11.3 10.224 11.684 9.944 12.004C9.664 12.324 9.304 12.572 8.864 12.748C8.432 12.916 7.916 13 7.316 13H5.408ZM7.076 11.668H7.292C7.764 11.668 8.132 11.564 8.396 11.356C8.668 11.148 8.856 10.868 8.96 10.516C9.072 10.156 9.128 9.756 9.128 9.316C9.128 8.828 9.08 8.4 8.984 8.032C8.896 7.664 8.728 7.376 8.48 7.168C8.232 6.952 7.876 6.844 7.412 6.844H7.076V11.668ZM13.268 13.144C12.66 13.144 12.184 13 11.84 12.712C11.496 12.416 11.324 12.028 11.324 11.548C11.324 11.244 11.388 10.964 11.516 10.708C11.644 10.444 11.844 10.216 12.116 10.024C12.388 9.824 12.736 9.668 13.16 9.556C13.584 9.444 14.092 9.388 14.684 9.388C14.708 9.388 14.752 9.388 14.816 9.388C14.88 9.388 14.952 9.388 15.032 9.388C15.112 9.388 15.18 9.388 15.236 9.388L15.284 10.516C15.236 10.516 15.168 10.516 15.08 10.516C14.992 10.516 14.9 10.52 14.804 10.528C14.716 10.528 14.648 10.528 14.6 10.528C14.256 10.528 13.98 10.552 13.772 10.6C13.564 10.64 13.404 10.7 13.292 10.78C13.188 10.852 13.116 10.936 13.076 11.032C13.036 11.12 13.016 11.208 13.016 11.296C13.016 11.392 13.032 11.476 13.064 11.548C13.096 11.62 13.14 11.676 13.196 11.716C13.252 11.756 13.32 11.788 13.4 11.812C13.48 11.828 13.564 11.836 13.652 11.836C13.844 11.836 14.008 11.804 14.144 11.74C14.28 11.676 14.392 11.572 14.48 11.428C14.576 11.276 14.644 11.084 14.684 10.852C14.732 10.62 14.756 10.336 14.756 10C14.756 9.592 14.716 9.28 14.636 9.064C14.564 8.848 14.456 8.704 14.312 8.632C14.176 8.552 14.008 8.512 13.808 8.512C13.56 8.512 13.332 8.548 13.124 8.62C12.916 8.684 12.696 8.836 12.464 9.076L11.504 8.092C11.864 7.764 12.248 7.536 12.656 7.408C13.072 7.28 13.476 7.216 13.868 7.216C14.212 7.216 14.536 7.256 14.84 7.336C15.152 7.408 15.428 7.532 15.668 7.708C15.916 7.884 16.108 8.128 16.244 8.44C16.388 8.744 16.46 9.128 16.46 9.592V13H14.744V12.556C14.64 12.652 14.536 12.74 14.432 12.82C14.336 12.892 14.228 12.952 14.108 13C13.996 13.048 13.872 13.084 13.736 13.108C13.6 13.132 13.444 13.144 13.268 13.144ZM20.588 13.144C20.292 13.144 20.02 13.096 19.772 13C19.524 12.912 19.312 12.76 19.136 12.544C18.96 12.32 18.828 12.016 18.74 11.632C18.652 11.248 18.62 10.76 18.644 10.168L18.812 6.088L20.54 5.86L20.648 5.848L20.66 5.98C20.628 6.036 20.596 6.092 20.564 6.148C20.532 6.204 20.512 6.3 20.504 6.436L20.36 8.284H20.432L20.336 10.084C20.312 10.54 20.328 10.896 20.384 11.152C20.448 11.4 20.536 11.572 20.648 11.668C20.768 11.764 20.892 11.812 21.02 11.812C21.268 11.812 21.492 11.76 21.692 11.656C21.9 11.552 22.08 11.436 22.232 11.308L22.52 12.496C22.248 12.696 21.952 12.856 21.632 12.976C21.32 13.088 20.972 13.144 20.588 13.144ZM17.612 7.348H22.148L22.124 8.668H17.588L17.612 7.348ZM25.268 13.144C24.66 13.144 24.184 13 23.84 12.712C23.496 12.416 23.324 12.028 23.324 11.548C23.324 11.244 23.388 10.964 23.516 10.708C23.644 10.444 23.844 10.216 24.116 10.024C24.388 9.824 24.736 9.668 25.16 9.556C25.584 9.444 26.092 9.388 26.684 9.388C26.708 9.388 26.752 9.388 26.816 9.388C26.88 9.388 26.952 9.388 27.032 9.388C27.112 9.388 27.18 9.388 27.236 9.388L27.284 10.516C27.236 10.516 27.168 10.516 27.08 10.516C26.992 10.516 26.9 10.52 26.804 10.528C26.716 10.528 26.648 10.528 26.6 10.528C26.256 10.528 25.98 10.552 25.772 10.6C25.564 10.64 25.404 10.7 25.292 10.78C25.188 10.852 25.116 10.936 25.076 11.032C25.036 11.12 25.016 11.208 25.016 11.296C25.016 11.392 25.032 11.476 25.064 11.548C25.096 11.62 25.14 11.676 25.196 11.716C25.252 11.756 25.32 11.788 25.4 11.812C25.48 11.828 25.564 11.836 25.652 11.836C25.844 11.836 26.008 11.804 26.144 11.74C26.28 11.676 26.392 11.572 26.48 11.428C26.576 11.276 26.644 11.084 26.684 10.852C26.732 10.62 26.756 10.336 26.756 10C26.756 9.592 26.716 9.28 26.636 9.064C26.564 8.848 26.456 8.704 26.312 8.632C26.176 8.552 26.008 8.512 25.808 8.512C25.56 8.512 25.332 8.548 25.124 8.62C24.916 8.684 24.696 8.836 24.464 9.076L23.504 8.092C23.864 7.764 24.248 7.536 24.656 7.408C25.072 7.28 25.476 7.216 25.868 7.216C26.212 7.216 26.536 7.256 26.84 7.336C27.152 7.408 27.428 7.532 27.668 7.708C27.916 7.884 28.108 8.128 28.244 8.44C28.388 8.744 28.46 9.128 28.46 9.592V13H26.744V12.556C26.64 12.652 26.536 12.74 26.432 12.82C26.336 12.892 26.228 12.952 26.108 13C25.996 13.048 25.872 13.084 25.736 13.108C25.6 13.132 25.444 13.144 25.268 13.144ZM35.48 13V5.524H38.132C38.724 5.524 39.216 5.628 39.608 5.836C40 6.036 40.292 6.308 40.484 6.652C40.676 6.988 40.772 7.36 40.772 7.768C40.772 8.072 40.716 8.36 40.604 8.632C40.5 8.896 40.34 9.128 40.124 9.328C39.916 9.528 39.648 9.688 39.32 9.808C39 9.92 38.624 9.976 38.192 9.976H37.208V13H35.48ZM37.208 8.596H38.096C38.28 8.596 38.44 8.56 38.576 8.488C38.72 8.416 38.832 8.316 38.912 8.188C38.992 8.06 39.032 7.916 39.032 7.756C39.032 7.588 38.992 7.444 38.912 7.324C38.832 7.204 38.724 7.112 38.588 7.048C38.452 6.984 38.292 6.952 38.108 6.952H37.208V8.596ZM41.828 7.348H43.568V8.896L43.376 8.848C43.4 8.608 43.46 8.392 43.556 8.2C43.66 8 43.792 7.828 43.952 7.684C44.112 7.532 44.288 7.416 44.48 7.336C44.68 7.256 44.884 7.216 45.092 7.216C45.42 7.216 45.712 7.268 45.968 7.372C46.224 7.476 46.464 7.644 46.688 7.876L45.992 9.328L45.956 9.424L45.836 9.376C45.804 9.312 45.78 9.244 45.764 9.172C45.748 9.092 45.696 9.004 45.608 8.908C45.504 8.82 45.384 8.748 45.248 8.692C45.12 8.628 44.976 8.596 44.816 8.596C44.632 8.596 44.46 8.624 44.3 8.68C44.148 8.736 44.016 8.824 43.904 8.944C43.792 9.064 43.704 9.216 43.64 9.4C43.576 9.584 43.544 9.804 43.544 10.06V13H41.828V7.348ZM49.988 13.144C49.484 13.144 49.024 13.024 48.608 12.784C48.192 12.536 47.86 12.188 47.612 11.74C47.364 11.292 47.24 10.772 47.24 10.18C47.24 9.628 47.364 9.128 47.612 8.68C47.86 8.232 48.192 7.876 48.608 7.612C49.024 7.348 49.484 7.216 49.988 7.216C50.492 7.216 50.952 7.348 51.368 7.612C51.792 7.876 52.128 8.232 52.376 8.68C52.632 9.128 52.76 9.628 52.76 10.18C52.76 10.764 52.632 11.28 52.376 11.728C52.128 12.176 51.792 12.524 51.368 12.772C50.952 13.02 50.492 13.144 49.988 13.144ZM49.988 11.812C50.204 11.812 50.392 11.744 50.552 11.608C50.72 11.472 50.852 11.284 50.948 11.044C51.044 10.796 51.092 10.508 51.092 10.18C51.092 9.828 51.044 9.532 50.948 9.292C50.852 9.052 50.72 8.868 50.552 8.74C50.392 8.612 50.204 8.548 49.988 8.548C49.788 8.548 49.604 8.612 49.436 8.74C49.276 8.868 49.148 9.052 49.052 9.292C48.956 9.532 48.908 9.828 48.908 10.18C48.908 10.508 48.952 10.796 49.04 11.044C49.136 11.284 49.264 11.472 49.424 11.608C49.592 11.744 49.78 11.812 49.988 11.812ZM56.288 13.144C55.872 13.144 55.484 13.076 55.124 12.94C54.764 12.796 54.448 12.596 54.176 12.34C53.912 12.076 53.704 11.768 53.552 11.416C53.408 11.064 53.336 10.676 53.336 10.252C53.336 9.836 53.408 9.444 53.552 9.076C53.704 8.708 53.912 8.388 54.176 8.116C54.448 7.836 54.764 7.616 55.124 7.456C55.484 7.296 55.876 7.216 56.3 7.216C56.86 7.216 57.34 7.316 57.74 7.516C58.14 7.708 58.456 7.98 58.688 8.332L57.788 9.352L57.716 9.436L57.608 9.352C57.6 9.288 57.592 9.22 57.584 9.148C57.576 9.076 57.532 8.988 57.452 8.884C57.316 8.748 57.16 8.656 56.984 8.608C56.808 8.56 56.608 8.536 56.384 8.536C56.208 8.536 56.04 8.576 55.88 8.656C55.72 8.728 55.576 8.836 55.448 8.98C55.32 9.124 55.22 9.304 55.148 9.52C55.076 9.736 55.04 9.988 55.04 10.276C55.04 10.524 55.076 10.748 55.148 10.948C55.228 11.14 55.328 11.3 55.448 11.428C55.576 11.556 55.716 11.656 55.868 11.728C56.028 11.792 56.188 11.824 56.348 11.824C56.508 11.824 56.664 11.804 56.816 11.764C56.976 11.724 57.132 11.656 57.284 11.56C57.444 11.456 57.596 11.312 57.74 11.128L58.652 12.172C58.34 12.524 57.968 12.776 57.536 12.928C57.104 13.072 56.688 13.144 56.288 13.144ZM62.24 13.144C61.84 13.144 61.464 13.08 61.112 12.952C60.768 12.816 60.464 12.624 60.2 12.376C59.944 12.128 59.744 11.824 59.6 11.464C59.456 11.096 59.384 10.684 59.384 10.228C59.384 9.764 59.452 9.348 59.588 8.98C59.732 8.604 59.924 8.288 60.164 8.032C60.412 7.768 60.7 7.568 61.028 7.432C61.356 7.288 61.712 7.216 62.096 7.216C62.424 7.216 62.736 7.276 63.032 7.396C63.336 7.516 63.604 7.696 63.836 7.936C64.068 8.168 64.252 8.46 64.388 8.812C64.524 9.156 64.592 9.552 64.592 10C64.592 10.096 64.592 10.216 64.592 10.36C64.592 10.504 64.588 10.62 64.58 10.708H61.016C61.032 10.908 61.08 11.08 61.16 11.224C61.24 11.36 61.34 11.476 61.46 11.572C61.588 11.66 61.724 11.728 61.868 11.776C62.02 11.816 62.172 11.836 62.324 11.836C62.484 11.836 62.636 11.824 62.78 11.8C62.924 11.776 63.064 11.732 63.2 11.668C63.336 11.596 63.468 11.496 63.596 11.368L64.436 12.184C64.244 12.408 64.032 12.592 63.8 12.736C63.568 12.88 63.32 12.984 63.056 13.048C62.792 13.112 62.52 13.144 62.24 13.144ZM61.028 9.46H62.984C62.984 9.3 62.964 9.164 62.924 9.052C62.884 8.932 62.824 8.836 62.744 8.764C62.664 8.684 62.564 8.628 62.444 8.596C62.324 8.556 62.188 8.536 62.036 8.536C61.9 8.536 61.772 8.556 61.652 8.596C61.54 8.628 61.44 8.684 61.352 8.764C61.264 8.836 61.192 8.932 61.136 9.052C61.08 9.164 61.044 9.3 61.028 9.46ZM68.18 13.144C67.812 13.144 67.46 13.112 67.124 13.048C66.796 12.992 66.492 12.9 66.212 12.772C65.932 12.636 65.676 12.46 65.444 12.244L66.116 10.948L66.164 10.852L66.272 10.912C66.296 10.968 66.32 11.032 66.344 11.104C66.376 11.168 66.44 11.244 66.536 11.332C66.76 11.5 67.004 11.628 67.268 11.716C67.54 11.804 67.848 11.848 68.192 11.848C68.368 11.848 68.516 11.828 68.636 11.788C68.764 11.748 68.86 11.696 68.924 11.632C68.996 11.56 69.032 11.484 69.032 11.404C69.032 11.324 69.004 11.256 68.948 11.2C68.9 11.144 68.824 11.096 68.72 11.056C68.624 11.008 68.496 10.96 68.336 10.912C68.176 10.864 67.988 10.812 67.772 10.756C67.372 10.652 67.024 10.524 66.728 10.372C66.44 10.22 66.216 10.032 66.056 9.808C65.896 9.576 65.816 9.3 65.816 8.98C65.816 8.652 65.916 8.356 66.116 8.092C66.316 7.828 66.588 7.616 66.932 7.456C67.284 7.296 67.684 7.216 68.132 7.216C68.348 7.216 68.56 7.236 68.768 7.276C68.984 7.308 69.188 7.36 69.38 7.432C69.572 7.496 69.756 7.584 69.932 7.696C70.108 7.8 70.272 7.924 70.424 8.068L69.644 9.208L69.572 9.304L69.464 9.22C69.456 9.156 69.436 9.096 69.404 9.04C69.38 8.984 69.32 8.912 69.224 8.824C69.072 8.72 68.904 8.648 68.72 8.608C68.544 8.56 68.356 8.536 68.156 8.536C67.924 8.536 67.72 8.572 67.544 8.644C67.368 8.716 67.28 8.824 67.28 8.968C67.28 9.064 67.328 9.144 67.424 9.208C67.52 9.272 67.66 9.332 67.844 9.388C68.036 9.436 68.272 9.492 68.552 9.556C69 9.652 69.368 9.784 69.656 9.952C69.944 10.112 70.156 10.308 70.292 10.54C70.436 10.772 70.508 11.04 70.508 11.344C70.508 11.664 70.416 11.964 70.232 12.244C70.048 12.516 69.78 12.736 69.428 12.904C69.084 13.064 68.668 13.144 68.18 13.144ZM74.18 13.144C73.812 13.144 73.46 13.112 73.124 13.048C72.796 12.992 72.492 12.9 72.212 12.772C71.932 12.636 71.676 12.46 71.444 12.244L72.116 10.948L72.164 10.852L72.272 10.912C72.296 10.968 72.32 11.032 72.344 11.104C72.376 11.168 72.44 11.244 72.536 11.332C72.76 11.5 73.004 11.628 73.268 11.716C73.54 11.804 73.848 11.848 74.192 11.848C74.368 11.848 74.516 11.828 74.636 11.788C74.764 11.748 74.86 11.696 74.924 11.632C74.996 11.56 75.032 11.484 75.032 11.404C75.032 11.324 75.004 11.256 74.948 11.2C74.9 11.144 74.824 11.096 74.72 11.056C74.624 11.008 74.496 10.96 74.336 10.912C74.176 10.864 73.988 10.812 73.772 10.756C73.372 10.652 73.024 10.524 72.728 10.372C72.44 10.22 72.216 10.032 72.056 9.808C71.896 9.576 71.816 9.3 71.816 8.98C71.816 8.652 71.916 8.356 72.116 8.092C72.316 7.828 72.588 7.616 72.932 7.456C73.284 7.296 73.684 7.216 74.132 7.216C74.348 7.216 74.56 7.236 74.768 7.276C74.984 7.308 75.188 7.36 75.38 7.432C75.572 7.496 75.756 7.584 75.932 7.696C76.108 7.8 76.272 7.924 76.424 8.068L75.644 9.208L75.572 9.304L75.464 9.22C75.456 9.156 75.436 9.096 75.404 9.04C75.38 8.984 75.32 8.912 75.224 8.824C75.072 8.72 74.904 8.648 74.72 8.608C74.544 8.56 74.356 8.536 74.156 8.536C73.924 8.536 73.72 8.572 73.544 8.644C73.368 8.716 73.28 8.824 73.28 8.968C73.28 9.064 73.328 9.144 73.424 9.208C73.52 9.272 73.66 9.332 73.844 9.388C74.036 9.436 74.272 9.492 74.552 9.556C75 9.652 75.368 9.784 75.656 9.952C75.944 10.112 76.156 10.308 76.292 10.54C76.436 10.772 76.508 11.04 76.508 11.344C76.508 11.664 76.416 11.964 76.232 12.244C76.048 12.516 75.78 12.736 75.428 12.904C75.084 13.064 74.668 13.144 74.18 13.144ZM77.888 13V11.68H79.232V8.668H77.948V7.348H80.936V11.68H82.16V13H77.888ZM80 6.58C79.72 6.58 79.48 6.488 79.28 6.304C79.088 6.112 78.992 5.888 78.992 5.632C78.992 5.352 79.084 5.124 79.268 4.948C79.46 4.772 79.704 4.684 80 4.684C80.264 4.684 80.496 4.78 80.696 4.972C80.904 5.156 81.008 5.376 81.008 5.632C81.008 5.888 80.904 6.112 80.696 6.304C80.496 6.488 80.264 6.58 80 6.58ZM83.516 13V7.348H85.232V7.996C85.36 7.844 85.492 7.712 85.628 7.6C85.764 7.48 85.916 7.388 86.084 7.324C86.26 7.252 86.456 7.216 86.672 7.216C87.008 7.216 87.324 7.3 87.62 7.468C87.916 7.628 88.156 7.884 88.34 8.236C88.524 8.58 88.616 9.036 88.616 9.604V13H86.912V9.616C86.912 9.36 86.888 9.148 86.84 8.98C86.792 8.804 86.716 8.672 86.612 8.584C86.508 8.496 86.376 8.452 86.216 8.452C86.088 8.452 85.964 8.48 85.844 8.536C85.724 8.584 85.616 8.656 85.52 8.752C85.432 8.848 85.36 8.964 85.304 9.1C85.256 9.236 85.232 9.388 85.232 9.556V13H83.516ZM91.796 15.196C91.396 15.196 91.036 15.156 90.716 15.076C90.404 15.004 90.14 14.9 89.924 14.764C89.708 14.628 89.544 14.468 89.432 14.284C89.32 14.1 89.264 13.904 89.264 13.696C89.264 13.52 89.312 13.352 89.408 13.192C89.504 13.032 89.636 12.888 89.804 12.76C89.972 12.624 90.156 12.516 90.356 12.436L91.136 12.712C91.048 12.784 90.948 12.856 90.836 12.928C90.732 12.992 90.644 13.06 90.572 13.132C90.5 13.212 90.464 13.304 90.464 13.408C90.464 13.496 90.504 13.568 90.584 13.624C90.664 13.688 90.772 13.736 90.908 13.768C91.052 13.808 91.212 13.836 91.388 13.852C91.572 13.868 91.768 13.876 91.976 13.876C92.24 13.876 92.468 13.856 92.66 13.816C92.86 13.776 93.012 13.716 93.116 13.636C93.228 13.556 93.284 13.464 93.284 13.36C93.284 13.272 93.252 13.204 93.188 13.156C93.124 13.108 93.02 13.072 92.876 13.048C92.732 13.032 92.544 13.024 92.312 13.024C92.064 13.024 91.808 13.016 91.544 13C91.288 12.976 91.04 12.936 90.8 12.88C90.56 12.824 90.34 12.748 90.14 12.652C89.948 12.556 89.796 12.436 89.684 12.292C89.572 12.14 89.516 11.956 89.516 11.74C89.516 11.444 89.608 11.2 89.792 11.008C89.976 10.808 90.188 10.636 90.428 10.492L91.184 10.864C91.112 10.928 91.04 10.98 90.968 11.02C90.904 11.052 90.848 11.088 90.8 11.128C90.76 11.16 90.74 11.216 90.74 11.296C90.74 11.368 90.812 11.432 90.956 11.488C91.1 11.544 91.324 11.588 91.628 11.62C91.932 11.644 92.324 11.656 92.804 11.656C93.116 11.656 93.384 11.7 93.608 11.788C93.84 11.868 94.028 11.984 94.172 12.136C94.324 12.28 94.436 12.444 94.508 12.628C94.58 12.812 94.616 13.008 94.616 13.216C94.616 13.464 94.556 13.704 94.436 13.936C94.324 14.176 94.148 14.388 93.908 14.572C93.676 14.764 93.384 14.916 93.032 15.028C92.68 15.14 92.268 15.196 91.796 15.196ZM91.784 11.104C91.392 11.104 91.028 11.02 90.692 10.852C90.364 10.684 90.1 10.456 89.9 10.168C89.708 9.88 89.612 9.552 89.612 9.184C89.612 8.816 89.708 8.484 89.9 8.188C90.1 7.892 90.364 7.656 90.692 7.48C91.028 7.304 91.392 7.216 91.784 7.216C92.184 7.216 92.548 7.304 92.876 7.48C93.204 7.656 93.464 7.892 93.656 8.188C93.856 8.484 93.956 8.816 93.956 9.184C93.956 9.552 93.856 9.88 93.656 10.168C93.464 10.456 93.204 10.684 92.876 10.852C92.548 11.02 92.184 11.104 91.784 11.104ZM91.772 9.94C91.916 9.94 92.044 9.912 92.156 9.856C92.268 9.792 92.356 9.704 92.42 9.592C92.492 9.472 92.528 9.336 92.528 9.184C92.528 9.032 92.492 8.904 92.42 8.8C92.356 8.696 92.264 8.616 92.144 8.56C92.032 8.496 91.908 8.464 91.772 8.464C91.66 8.464 91.548 8.496 91.436 8.56C91.324 8.624 91.228 8.712 91.148 8.824C91.076 8.928 91.04 9.048 91.04 9.184C91.04 9.32 91.072 9.448 91.136 9.568C91.208 9.68 91.3 9.772 91.412 9.844C91.524 9.908 91.644 9.94 91.772 9.94ZM93.608 8.464L92.972 7.66C93.196 7.516 93.464 7.4 93.776 7.312C94.088 7.224 94.408 7.192 94.736 7.216L94.88 8.296C94.656 8.24 94.428 8.232 94.196 8.272C93.964 8.304 93.768 8.368 93.608 8.464Z" fill="white"/>
</svg>
