<svg width="100" height="20" viewBox="0 0 100 20" fill="none" xmlns="http://www.w3.org/2000/svg">
<rect x="0.5" y="0.5" width="99" height="19" stroke="black"/>
<path d="M5.648 13.012V5.524H7.388C7.82 5.524 8.184 5.564 8.48 5.644C8.776 5.724 9.028 5.84 9.236 5.992C9.444 6.136 9.628 6.32 9.788 6.544C9.956 6.768 10.092 7.02 10.196 7.3C10.308 7.58 10.388 7.888 10.436 8.224C10.492 8.552 10.52 8.912 10.52 9.304C10.496 9.88 10.42 10.396 10.292 10.852C10.164 11.308 9.972 11.696 9.716 12.016C9.46 12.336 9.128 12.584 8.72 12.76C8.32 12.928 7.828 13.012 7.244 13.012H5.648ZM6.44 12.352H7.208C7.784 12.352 8.252 12.236 8.612 12.004C8.98 11.772 9.252 11.432 9.428 10.984C9.604 10.536 9.688 9.992 9.68 9.352C9.68 8.696 9.6 8.136 9.44 7.672C9.28 7.208 9.028 6.852 8.684 6.604C8.348 6.356 7.9 6.232 7.34 6.232H6.44V12.352ZM13.532 13.132C12.908 13.132 12.428 12.992 12.092 12.712C11.756 12.424 11.588 12.06 11.588 11.62C11.588 11.324 11.66 11.06 11.804 10.828C11.948 10.588 12.144 10.388 12.392 10.228C12.648 10.06 12.944 9.932 13.28 9.844C13.616 9.756 13.972 9.712 14.348 9.712C14.484 9.712 14.62 9.716 14.756 9.724C14.9 9.724 15.048 9.732 15.2 9.748C15.36 9.756 15.524 9.772 15.692 9.796L15.716 10.456C15.572 10.432 15.424 10.416 15.272 10.408C15.128 10.392 14.984 10.38 14.84 10.372C14.696 10.364 14.556 10.36 14.42 10.36C14.132 10.36 13.868 10.384 13.628 10.432C13.388 10.48 13.18 10.552 13.004 10.648C12.828 10.744 12.692 10.868 12.596 11.02C12.5 11.172 12.452 11.356 12.452 11.572C12.452 11.74 12.48 11.884 12.536 12.004C12.6 12.116 12.684 12.208 12.788 12.28C12.892 12.344 13.012 12.392 13.148 12.424C13.292 12.456 13.448 12.472 13.616 12.472C13.928 12.472 14.204 12.424 14.444 12.328C14.692 12.224 14.9 12.076 15.068 11.884C15.244 11.692 15.376 11.456 15.464 11.176C15.552 10.896 15.596 10.576 15.596 10.216C15.596 9.672 15.532 9.248 15.404 8.944C15.276 8.64 15.084 8.424 14.828 8.296C14.58 8.168 14.26 8.104 13.868 8.104C13.604 8.104 13.344 8.156 13.088 8.26C12.832 8.356 12.6 8.508 12.392 8.716L11.972 8.164C12.228 7.908 12.524 7.716 12.86 7.588C13.196 7.46 13.552 7.396 13.928 7.396C14.288 7.396 14.616 7.44 14.912 7.528C15.208 7.616 15.46 7.764 15.668 7.972C15.884 8.172 16.048 8.444 16.16 8.788C16.28 9.132 16.34 9.564 16.34 10.084V13H15.404V12.16C15.3 12.36 15.172 12.524 15.02 12.652C14.876 12.78 14.72 12.88 14.552 12.952C14.384 13.016 14.212 13.06 14.036 13.084C13.86 13.116 13.692 13.132 13.532 13.132ZM20.588 13.084C20.236 13.084 19.948 13.024 19.724 12.904C19.5 12.784 19.328 12.6 19.208 12.352C19.088 12.096 19.008 11.776 18.968 11.392C18.936 11.008 18.928 10.552 18.944 10.024L19.088 6.112L19.988 6.004L20.108 5.992L20.12 6.076C20.08 6.132 20.044 6.188 20.012 6.244C19.988 6.3 19.968 6.396 19.952 6.532L19.844 7.888L19.88 8.104L19.796 10.084C19.772 10.692 19.788 11.164 19.844 11.5C19.9 11.828 20 12.056 20.144 12.184C20.288 12.304 20.48 12.364 20.72 12.364C20.984 12.364 21.216 12.312 21.416 12.208C21.624 12.104 21.84 11.972 22.064 11.812L22.328 12.496C22.056 12.696 21.776 12.844 21.488 12.94C21.2 13.036 20.9 13.084 20.588 13.084ZM17.84 7.516H21.788V8.224H17.84V7.516ZM25.532 13.132C24.908 13.132 24.428 12.992 24.092 12.712C23.756 12.424 23.588 12.06 23.588 11.62C23.588 11.324 23.66 11.06 23.804 10.828C23.948 10.588 24.144 10.388 24.392 10.228C24.648 10.06 24.944 9.932 25.28 9.844C25.616 9.756 25.972 9.712 26.348 9.712C26.484 9.712 26.62 9.716 26.756 9.724C26.9 9.724 27.048 9.732 27.2 9.748C27.36 9.756 27.524 9.772 27.692 9.796L27.716 10.456C27.572 10.432 27.424 10.416 27.272 10.408C27.128 10.392 26.984 10.38 26.84 10.372C26.696 10.364 26.556 10.36 26.42 10.36C26.132 10.36 25.868 10.384 25.628 10.432C25.388 10.48 25.18 10.552 25.004 10.648C24.828 10.744 24.692 10.868 24.596 11.02C24.5 11.172 24.452 11.356 24.452 11.572C24.452 11.74 24.48 11.884 24.536 12.004C24.6 12.116 24.684 12.208 24.788 12.28C24.892 12.344 25.012 12.392 25.148 12.424C25.292 12.456 25.448 12.472 25.616 12.472C25.928 12.472 26.204 12.424 26.444 12.328C26.692 12.224 26.9 12.076 27.068 11.884C27.244 11.692 27.376 11.456 27.464 11.176C27.552 10.896 27.596 10.576 27.596 10.216C27.596 9.672 27.532 9.248 27.404 8.944C27.276 8.64 27.084 8.424 26.828 8.296C26.58 8.168 26.26 8.104 25.868 8.104C25.604 8.104 25.344 8.156 25.088 8.26C24.832 8.356 24.6 8.508 24.392 8.716L23.972 8.164C24.228 7.908 24.524 7.716 24.86 7.588C25.196 7.46 25.552 7.396 25.928 7.396C26.288 7.396 26.616 7.44 26.912 7.528C27.208 7.616 27.46 7.764 27.668 7.972C27.884 8.172 28.048 8.444 28.16 8.788C28.28 9.132 28.34 9.564 28.34 10.084V13H27.404V12.16C27.3 12.36 27.172 12.524 27.02 12.652C26.876 12.78 26.72 12.88 26.552 12.952C26.384 13.016 26.212 13.06 26.036 13.084C25.86 13.116 25.692 13.132 25.532 13.132ZM35.708 13V5.524H38.108C38.668 5.524 39.12 5.62 39.464 5.812C39.808 6.004 40.06 6.26 40.22 6.58C40.388 6.892 40.472 7.244 40.472 7.636C40.472 7.924 40.428 8.192 40.34 8.44C40.252 8.688 40.112 8.908 39.92 9.1C39.736 9.292 39.5 9.44 39.212 9.544C38.924 9.648 38.576 9.7 38.168 9.7H36.572V13H35.708ZM36.572 8.956H38.072C38.44 8.956 38.736 8.904 38.96 8.8C39.184 8.688 39.348 8.536 39.452 8.344C39.556 8.144 39.608 7.916 39.608 7.66C39.608 7.412 39.556 7.188 39.452 6.988C39.348 6.788 39.184 6.628 38.96 6.508C38.736 6.38 38.444 6.316 38.084 6.316H36.572V8.956ZM42.428 7.516H43.328L43.292 9.112L43.184 8.932C43.232 8.684 43.316 8.464 43.436 8.272C43.556 8.08 43.7 7.92 43.868 7.792C44.036 7.656 44.22 7.556 44.42 7.492C44.62 7.42 44.828 7.384 45.044 7.384C45.332 7.384 45.596 7.436 45.836 7.54C46.084 7.636 46.304 7.784 46.496 7.984L46.112 8.656L46.064 8.764L45.98 8.716C45.964 8.652 45.94 8.592 45.908 8.536C45.876 8.48 45.808 8.412 45.704 8.332C45.576 8.252 45.456 8.2 45.344 8.176C45.24 8.144 45.12 8.128 44.984 8.128C44.784 8.128 44.584 8.168 44.384 8.248C44.184 8.32 44 8.436 43.832 8.596C43.672 8.756 43.544 8.96 43.448 9.208C43.352 9.456 43.304 9.752 43.304 10.096V13.012H42.428V7.516ZM50 13.096C49.504 13.096 49.064 12.976 48.68 12.736C48.304 12.488 48.008 12.152 47.792 11.728C47.576 11.296 47.468 10.804 47.468 10.252C47.468 9.692 47.576 9.2 47.792 8.776C48.008 8.344 48.304 8.008 48.68 7.768C49.064 7.52 49.504 7.396 50 7.396C50.496 7.396 50.932 7.52 51.308 7.768C51.692 8.008 51.992 8.344 52.208 8.776C52.424 9.2 52.532 9.692 52.532 10.252C52.532 10.804 52.424 11.296 52.208 11.728C51.992 12.152 51.692 12.488 51.308 12.736C50.932 12.976 50.496 13.096 50 13.096ZM50 12.376C50.32 12.376 50.6 12.284 50.84 12.1C51.08 11.916 51.268 11.664 51.404 11.344C51.548 11.024 51.62 10.656 51.62 10.24C51.62 9.824 51.548 9.456 51.404 9.136C51.268 8.816 51.08 8.568 50.84 8.392C50.6 8.208 50.32 8.116 50 8.116C49.688 8.116 49.408 8.208 49.16 8.392C48.92 8.568 48.728 8.816 48.584 9.136C48.448 9.456 48.38 9.824 48.38 10.24C48.38 10.656 48.448 11.024 48.584 11.344C48.728 11.664 48.92 11.916 49.16 12.1C49.408 12.284 49.688 12.376 50 12.376ZM56.42 13.132C56.02 13.132 55.652 13.06 55.316 12.916C54.98 12.772 54.688 12.572 54.44 12.316C54.2 12.06 54.012 11.76 53.876 11.416C53.74 11.064 53.672 10.68 53.672 10.264C53.672 9.856 53.74 9.48 53.876 9.136C54.012 8.784 54.2 8.48 54.44 8.224C54.688 7.968 54.98 7.768 55.316 7.624C55.652 7.48 56.016 7.408 56.408 7.408C56.856 7.408 57.256 7.5 57.608 7.684C57.968 7.86 58.26 8.108 58.484 8.428L57.944 8.956L57.86 9.04L57.8 8.98C57.8 8.916 57.784 8.856 57.752 8.8C57.728 8.744 57.668 8.668 57.572 8.572C57.396 8.412 57.208 8.3 57.008 8.236C56.808 8.172 56.576 8.14 56.312 8.14C56.08 8.14 55.86 8.188 55.652 8.284C55.444 8.38 55.256 8.52 55.088 8.704C54.928 8.88 54.8 9.096 54.704 9.352C54.608 9.608 54.56 9.892 54.56 10.204C54.56 10.516 54.608 10.804 54.704 11.068C54.8 11.324 54.932 11.548 55.1 11.74C55.268 11.932 55.468 12.084 55.7 12.196C55.94 12.3 56.196 12.352 56.468 12.352C56.652 12.352 56.828 12.328 56.996 12.28C57.164 12.224 57.324 12.148 57.476 12.052C57.628 11.948 57.768 11.824 57.896 11.68L58.4 12.268C58.128 12.556 57.824 12.772 57.488 12.916C57.16 13.06 56.804 13.132 56.42 13.132ZM62.264 13.12C61.864 13.12 61.5 13.06 61.172 12.94C60.844 12.812 60.56 12.628 60.32 12.388C60.088 12.148 59.908 11.852 59.78 11.5C59.652 11.14 59.588 10.732 59.588 10.276C59.588 9.812 59.652 9.4 59.78 9.04C59.916 8.68 60.096 8.38 60.32 8.14C60.552 7.892 60.82 7.704 61.124 7.576C61.436 7.448 61.764 7.384 62.108 7.384C62.42 7.384 62.712 7.436 62.984 7.54C63.256 7.644 63.492 7.804 63.692 8.02C63.892 8.228 64.048 8.496 64.16 8.824C64.28 9.152 64.34 9.54 64.34 9.988C64.34 10.052 64.336 10.12 64.328 10.192C64.328 10.256 64.324 10.32 64.316 10.384H60.416C60.432 10.736 60.492 11.044 60.596 11.308C60.7 11.564 60.836 11.776 61.004 11.944C61.172 12.104 61.364 12.224 61.58 12.304C61.804 12.384 62.04 12.424 62.288 12.424C62.48 12.424 62.66 12.404 62.828 12.364C62.996 12.316 63.152 12.248 63.296 12.16C63.448 12.064 63.584 11.948 63.704 11.812L64.184 12.28C64.032 12.464 63.856 12.62 63.656 12.748C63.464 12.876 63.252 12.968 63.02 13.024C62.788 13.088 62.536 13.12 62.264 13.12ZM60.452 9.712H63.464C63.464 9.456 63.428 9.228 63.356 9.028C63.292 8.82 63.196 8.644 63.068 8.5C62.948 8.348 62.8 8.236 62.624 8.164C62.456 8.084 62.264 8.044 62.048 8.044C61.856 8.044 61.672 8.076 61.496 8.14C61.328 8.204 61.172 8.308 61.028 8.452C60.884 8.588 60.76 8.76 60.656 8.968C60.56 9.176 60.492 9.424 60.452 9.712ZM68.012 13.12C67.708 13.12 67.416 13.088 67.136 13.024C66.864 12.96 66.604 12.864 66.356 12.736C66.116 12.608 65.892 12.448 65.684 12.256L66.164 11.44L66.236 11.332L66.308 11.38C66.324 11.444 66.34 11.512 66.356 11.584C66.38 11.648 66.436 11.728 66.524 11.824C66.692 11.992 66.892 12.132 67.124 12.244C67.364 12.348 67.668 12.4 68.036 12.4C68.332 12.4 68.58 12.364 68.78 12.292C68.988 12.22 69.148 12.12 69.26 11.992C69.372 11.856 69.428 11.7 69.428 11.524C69.428 11.404 69.404 11.3 69.356 11.212C69.308 11.116 69.228 11.028 69.116 10.948C69.012 10.868 68.872 10.788 68.696 10.708C68.52 10.628 68.304 10.548 68.048 10.468C67.632 10.348 67.268 10.208 66.956 10.048C66.644 9.888 66.404 9.704 66.236 9.496C66.068 9.28 65.984 9.036 65.984 8.764C65.984 8.484 66.06 8.244 66.212 8.044C66.364 7.836 66.588 7.676 66.884 7.564C67.188 7.444 67.56 7.384 68 7.384C68.256 7.384 68.488 7.404 68.696 7.444C68.904 7.476 69.096 7.528 69.272 7.6C69.448 7.672 69.608 7.764 69.752 7.876C69.904 7.98 70.048 8.104 70.184 8.248L69.692 8.848L69.608 8.944L69.548 8.884C69.54 8.82 69.52 8.76 69.488 8.704C69.464 8.64 69.408 8.564 69.32 8.476C69.136 8.332 68.928 8.224 68.696 8.152C68.464 8.072 68.24 8.032 68.024 8.032C67.704 8.032 67.428 8.088 67.196 8.2C66.964 8.312 66.848 8.484 66.848 8.716C66.848 8.836 66.888 8.956 66.968 9.076C67.056 9.188 67.212 9.304 67.436 9.424C67.66 9.536 67.98 9.652 68.396 9.772C68.852 9.916 69.216 10.064 69.488 10.216C69.768 10.36 69.968 10.528 70.088 10.72C70.216 10.912 70.28 11.14 70.28 11.404C70.28 11.708 70.196 11.992 70.028 12.256C69.868 12.52 69.62 12.732 69.284 12.892C68.948 13.044 68.524 13.12 68.012 13.12ZM74.012 13.12C73.708 13.12 73.416 13.088 73.136 13.024C72.864 12.96 72.604 12.864 72.356 12.736C72.116 12.608 71.892 12.448 71.684 12.256L72.164 11.44L72.236 11.332L72.308 11.38C72.324 11.444 72.34 11.512 72.356 11.584C72.38 11.648 72.436 11.728 72.524 11.824C72.692 11.992 72.892 12.132 73.124 12.244C73.364 12.348 73.668 12.4 74.036 12.4C74.332 12.4 74.58 12.364 74.78 12.292C74.988 12.22 75.148 12.12 75.26 11.992C75.372 11.856 75.428 11.7 75.428 11.524C75.428 11.404 75.404 11.3 75.356 11.212C75.308 11.116 75.228 11.028 75.116 10.948C75.012 10.868 74.872 10.788 74.696 10.708C74.52 10.628 74.304 10.548 74.048 10.468C73.632 10.348 73.268 10.208 72.956 10.048C72.644 9.888 72.404 9.704 72.236 9.496C72.068 9.28 71.984 9.036 71.984 8.764C71.984 8.484 72.06 8.244 72.212 8.044C72.364 7.836 72.588 7.676 72.884 7.564C73.188 7.444 73.56 7.384 74 7.384C74.256 7.384 74.488 7.404 74.696 7.444C74.904 7.476 75.096 7.528 75.272 7.6C75.448 7.672 75.608 7.764 75.752 7.876C75.904 7.98 76.048 8.104 76.184 8.248L75.692 8.848L75.608 8.944L75.548 8.884C75.54 8.82 75.52 8.76 75.488 8.704C75.464 8.64 75.408 8.564 75.32 8.476C75.136 8.332 74.928 8.224 74.696 8.152C74.464 8.072 74.24 8.032 74.024 8.032C73.704 8.032 73.428 8.088 73.196 8.2C72.964 8.312 72.848 8.484 72.848 8.716C72.848 8.836 72.888 8.956 72.968 9.076C73.056 9.188 73.212 9.304 73.436 9.424C73.66 9.536 73.98 9.652 74.396 9.772C74.852 9.916 75.216 10.064 75.488 10.216C75.768 10.36 75.968 10.528 76.088 10.72C76.216 10.912 76.28 11.14 76.28 11.404C76.28 11.708 76.196 11.992 76.028 12.256C75.868 12.52 75.62 12.732 75.284 12.892C74.948 13.044 74.524 13.12 74.012 13.12ZM78.2 13V12.304H79.604V8.212H78.272V7.516H80.468V12.304H81.752V13H78.2ZM79.988 6.364C79.82 6.364 79.676 6.304 79.556 6.184C79.436 6.064 79.376 5.92 79.376 5.752C79.376 5.576 79.432 5.428 79.544 5.308C79.664 5.188 79.812 5.128 79.988 5.128C80.156 5.128 80.3 5.192 80.42 5.32C80.548 5.44 80.612 5.584 80.612 5.752C80.612 5.92 80.548 6.064 80.42 6.184C80.3 6.304 80.156 6.364 79.988 6.364ZM83.864 13V7.516H84.704V8.488C84.848 8.264 85.016 8.072 85.208 7.912C85.4 7.744 85.612 7.616 85.844 7.528C86.076 7.432 86.316 7.384 86.564 7.384C86.868 7.384 87.14 7.46 87.38 7.612C87.62 7.764 87.812 8.008 87.956 8.344C88.1 8.68 88.172 9.124 88.172 9.676V13H87.332V9.7C87.332 9.316 87.288 9.012 87.2 8.788C87.112 8.556 86.992 8.392 86.84 8.296C86.688 8.192 86.516 8.14 86.324 8.14C86.14 8.14 85.952 8.18 85.76 8.26C85.576 8.34 85.404 8.456 85.244 8.608C85.084 8.752 84.952 8.928 84.848 9.136C84.752 9.344 84.704 9.58 84.704 9.844V13H83.864ZM91.964 15.064C91.58 15.064 91.232 15.032 90.92 14.968C90.616 14.912 90.352 14.824 90.128 14.704C89.912 14.592 89.744 14.448 89.624 14.272C89.512 14.096 89.456 13.888 89.456 13.648C89.456 13.424 89.504 13.224 89.6 13.048C89.696 12.872 89.82 12.728 89.972 12.616C90.132 12.496 90.304 12.408 90.488 12.352L90.848 12.568C90.704 12.656 90.588 12.744 90.5 12.832C90.412 12.92 90.348 13.02 90.308 13.132C90.268 13.252 90.248 13.392 90.248 13.552C90.248 13.688 90.288 13.808 90.368 13.912C90.448 14.024 90.56 14.116 90.704 14.188C90.856 14.26 91.036 14.316 91.244 14.356C91.46 14.396 91.704 14.416 91.976 14.416C92.344 14.416 92.64 14.376 92.864 14.296C93.096 14.224 93.268 14.12 93.38 13.984C93.492 13.856 93.548 13.708 93.548 13.54C93.548 13.364 93.516 13.22 93.452 13.108C93.388 12.996 93.256 12.912 93.056 12.856C92.856 12.8 92.552 12.772 92.144 12.772C91.864 12.772 91.608 12.76 91.376 12.736C91.144 12.712 90.936 12.672 90.752 12.616C90.568 12.56 90.412 12.492 90.284 12.412C90.164 12.324 90.072 12.22 90.008 12.1C89.944 11.98 89.912 11.84 89.912 11.68C89.912 11.472 89.968 11.272 90.08 11.08C90.2 10.888 90.36 10.704 90.56 10.528L90.968 10.852C90.888 10.94 90.824 11.02 90.776 11.092C90.728 11.156 90.692 11.22 90.668 11.284C90.652 11.34 90.644 11.404 90.644 11.476C90.644 11.604 90.692 11.708 90.788 11.788C90.892 11.868 91.068 11.928 91.316 11.968C91.564 12 91.9 12.016 92.324 12.016C92.748 12.016 93.092 12.052 93.356 12.124C93.62 12.188 93.82 12.284 93.956 12.412C94.1 12.54 94.2 12.688 94.256 12.856C94.312 13.024 94.34 13.208 94.34 13.408C94.34 13.624 94.296 13.828 94.208 14.02C94.128 14.22 93.996 14.396 93.812 14.548C93.628 14.708 93.384 14.832 93.08 14.92C92.776 15.016 92.404 15.064 91.964 15.064ZM91.712 11.14C91.32 11.14 90.98 11.056 90.692 10.888C90.404 10.712 90.18 10.48 90.02 10.192C89.868 9.896 89.792 9.572 89.792 9.22C89.792 8.868 89.868 8.548 90.02 8.26C90.18 7.972 90.404 7.744 90.692 7.576C90.98 7.4 91.32 7.312 91.712 7.312C92.112 7.312 92.452 7.4 92.732 7.576C93.02 7.744 93.24 7.972 93.392 8.26C93.552 8.548 93.632 8.868 93.632 9.22C93.632 9.572 93.552 9.896 93.392 10.192C93.24 10.48 93.02 10.712 92.732 10.888C92.452 11.056 92.112 11.14 91.712 11.14ZM91.712 10.42C91.944 10.42 92.148 10.368 92.324 10.264C92.508 10.152 92.652 10.004 92.756 9.82C92.86 9.636 92.912 9.436 92.912 9.22C92.912 8.996 92.86 8.796 92.756 8.62C92.652 8.436 92.508 8.292 92.324 8.188C92.148 8.076 91.944 8.02 91.712 8.02C91.48 8.02 91.272 8.076 91.088 8.188C90.912 8.292 90.772 8.436 90.668 8.62C90.564 8.796 90.512 8.996 90.512 9.22C90.512 9.436 90.564 9.636 90.668 9.82C90.772 10.004 90.912 10.152 91.088 10.264C91.272 10.368 91.48 10.42 91.712 10.42ZM93.308 8.404L92.972 8.008C93.204 7.776 93.444 7.608 93.692 7.504C93.948 7.392 94.248 7.348 94.592 7.372L94.7 8.08C94.436 8.056 94.188 8.064 93.956 8.104C93.724 8.144 93.508 8.244 93.308 8.404Z" fill="black"/>
</svg>
