<svg width="171" height="397" viewBox="0 0 171 397" fill="none" xmlns="http://www.w3.org/2000/svg">
<path d="M95.4998 111.942C95.0998 106.342 89.3332 103.609 86.4998 102.942C83.4997 102.942 82.5 102.942 78.5 106.442C75.3 109.242 74.8333 116.275 75 119.442C71.8333 125.442 63.7 141.242 56.5 156.442C47.5 175.442 31 216.442 20.5 248.442C10 280.442 10.5 307.442 11.5 321.442C12.5 335.442 44.5 415.942 103 387.442C161.5 358.942 170 288.442 170 272.442C170 259.642 165 246.775 162.5 241.942L95.4998 121.442C95.6665 120.609 95.8998 117.542 95.4998 111.942Z" fill="#ECBF65" stroke="black"/>
<path d="M84.5 108.442C92.1 108.042 91.3333 114.275 90 117.442C89.2737 119.942 86.4999 119.442 83.5 119.442C80.5002 119.442 75 108.942 84.5 108.442Z" fill="#ECBF65" stroke="black"/>
<path d="M86.4996 122.442C80.0995 122.042 74.833 128.275 72.9998 131.442C65.5244 138.942 32.9998 222.942 26.4998 241.942C19.9998 260.942 11.3142 296.942 17.4998 327.942C23.6853 358.942 58.9998 382.442 64.9998 384.442C70.9998 386.442 100.5 395.442 131 358.442C161.5 321.442 165.5 274.442 166 266.442C166.4 260.042 161.833 250.108 159.5 245.942L100.5 134.442C98.4998 130.608 92.8997 122.842 86.4996 122.442Z" fill="#ECBF65" stroke="black"/>
<path d="M76.0002 137.942C79.2002 132.342 84.3335 131.275 86.5001 131.442C90.9 131.442 94.3334 135.775 95.5001 137.942C101.5 148.608 116 174.642 126 193.442C138.5 216.942 146 233.442 149 252.942C152 272.442 137 303.442 116.5 327.942C96.0002 352.442 72.0002 353.442 45.5002 335.442C19.0002 317.442 23.0002 280.442 25.0002 268.442C26.6002 258.842 34.3336 234.108 38.0002 222.942L58.5002 173.442C63.0002 163.942 72.8002 143.542 76.0002 137.942Z" fill="#ECBF65" stroke="black"/>
<path d="M80.0003 147.442C81.6003 145.042 85.0002 144.442 86.5002 144.442C90.9001 144.442 96.3336 150.775 98.5003 153.942C108.667 172.609 129.7 211.542 132.5 217.942C136 225.942 139 235.442 138 252.942C137 270.442 110.5 324.442 70.5003 310.942C30.5003 297.442 40.0003 256.942 41.5003 241.942C42.7003 229.942 50.3337 210.609 54.0003 202.442C62.0003 185.109 78.4003 149.842 80.0003 147.442Z" fill="#ECBF65" stroke="black"/>
<path d="M79.9999 159.442C81.9999 155.842 85.1664 154.275 86.4997 153.942C91.6996 153.142 96.6664 161.275 98.4999 165.442C108.667 184.608 129.4 224.542 131 230.942C133 238.942 131 250.942 116.5 270.442C102 289.942 88.4999 291.442 82.4999 291.442C76.4999 291.442 63.4999 288.942 51.4999 268.442C41.8999 252.042 49.1665 224.608 53.9999 212.942C61.8332 196.608 77.9999 163.042 79.9999 159.442Z" fill="#ECBF65" stroke="black"/>
<path d="M87.5003 167.442C91.5003 167.442 93.8336 171.442 94.5003 173.442C100.5 184.109 112.8 206.942 114 212.942C115.5 220.442 112 226.942 106.5 234.942C101 242.942 93.5003 249.942 86.5003 251.442C79.5003 252.942 75.0003 252.942 66.5003 241.942C59.7003 233.142 61.6669 218.942 63.5003 212.942L78.0003 176.442C79.5003 173.442 83.5003 167.442 87.5003 167.442Z" fill="#ECBF65" stroke="black"/>
<circle cx="9.5" cy="9.5" r="9" transform="matrix(-1 0 0 1 103 299.942)" fill="#838564" stroke="black"/>
<circle cx="9.5" cy="9.5" r="9" transform="matrix(-1 0 0 1 125 282.942)" fill="#838564" stroke="black"/>
<circle cx="9.5" cy="9.5" r="9" transform="matrix(-1 0 0 1 139 260.942)" fill="#838564" stroke="black"/>
<circle cx="8.5" cy="8.5" r="8" transform="matrix(-1 0 0 1 160 263.942)" fill="#FFF6F1" stroke="black"/>
<circle cx="8.5" cy="8.5" r="8" transform="matrix(-1 0 0 1 152 277.942)" fill="#FFF6F1" stroke="black"/>
<circle cx="8.5" cy="8.5" r="8" transform="matrix(-1 0 0 1 144 291.942)" fill="#FFF6F1" stroke="black"/>
<circle cx="8.5" cy="8.5" r="8" transform="matrix(-1 0 0 1 135 305.942)" fill="#FFF6F1" stroke="black"/>
<circle cx="8.5" cy="8.5" r="8" transform="matrix(-1 0 0 1 110 327.942)" fill="#FFF6F1" stroke="black"/>
<circle cx="8.5" cy="8.5" r="8" transform="matrix(-1 0 0 1 95 335.942)" fill="#FFF6F1" stroke="black"/>
<circle cx="8.5" cy="8.5" r="8" transform="matrix(-1 0 0 1 79 339.942)" fill="#FFF6F1" stroke="black"/>
<circle cx="8.5" cy="8.5" r="8" transform="matrix(-1 0 0 1 64 334.942)" fill="#FFF6F1" stroke="black"/>
<circle cx="8.5" cy="8.5" r="8" transform="matrix(-1 0 0 1 51 324.942)" fill="#FFF6F1" stroke="black"/>
<circle cx="8.5" cy="8.5" r="8" transform="matrix(-1 0 0 1 39 312.942)" fill="#FFF6F1" stroke="black"/>
<circle cx="8.5" cy="8.5" r="8" transform="matrix(-1 0 0 1 35 296.942)" fill="#FFF6F1" stroke="black"/>
<circle cx="8.5" cy="8.5" r="8" transform="matrix(-1 0 0 1 31 280.942)" fill="#FFF6F1" stroke="black"/>
<circle cx="8.5" cy="8.5" r="8" transform="matrix(-1 0 0 1 32 264.942)" fill="#FFF6F1" stroke="black"/>
<circle cx="8.5" cy="8.5" r="8" transform="matrix(-1 0 0 1 124 318.942)" fill="#FFF6F1" stroke="black"/>
<circle cx="9.5" cy="9.5" r="9" transform="matrix(-1 0 0 1 170 296.942)" fill="#838564" stroke="black"/>
<circle cx="9.5" cy="9.5" r="9" transform="matrix(-1 0 0 1 162 313.942)" fill="#838564" stroke="black"/>
<circle cx="9.5" cy="9.5" r="9" transform="matrix(-1 0 0 1 154 329.942)" fill="#838564" stroke="black"/>
<circle cx="9.5" cy="9.5" r="9" transform="matrix(-1 0 0 1 142 351.942)" fill="#838564" stroke="black"/>
<circle cx="9.5" cy="9.5" r="9" transform="matrix(-1 0 0 1 126 365.942)" fill="#838564" stroke="black"/>
<circle cx="9.5" cy="9.5" r="9" transform="matrix(-1 0 0 1 106 375.942)" fill="#838564" stroke="black"/>
<circle cx="9.5" cy="9.5" r="9" transform="matrix(-1 0 0 1 84 377.942)" fill="#838564" stroke="black"/>
<circle cx="9.5" cy="9.5" r="9" transform="matrix(-1 0 0 1 64 374.942)" fill="#838564" stroke="black"/>
<circle cx="9.5" cy="9.5" r="9" transform="matrix(-1 0 0 1 43 360.942)" fill="#838564" stroke="black"/>
<circle cx="9.5" cy="9.5" r="9" transform="matrix(-1 0 0 1 30 342.942)" fill="#838564" stroke="black"/>
<circle cx="9.5" cy="9.5" r="9" transform="matrix(-1 0 0 1 24 323.942)" fill="#838564" stroke="black"/>
<circle cx="9.5" cy="9.5" r="9" transform="matrix(-1 0 0 1 19 301.942)" fill="#838564" stroke="black"/>
<circle cx="9.5" cy="9.5" r="9" transform="matrix(-1 0 0 1 82 304.942)" fill="#838564" stroke="black"/>
<circle cx="9.5" cy="9.5" r="9" transform="matrix(-1 0 0 1 65 289.942)" fill="#838564" stroke="black"/>
<circle cx="9.5" cy="9.5" r="9" transform="matrix(-1 0 0 1 53 272.942)" fill="#838564" stroke="black"/>
<circle cx="2" cy="2" r="1.5" transform="matrix(-1 0 0 1 95 311.942)" fill="#ECBF65" stroke="black"/>
<circle cx="2" cy="2" r="1.5" transform="matrix(-1 0 0 1 117 294.942)" fill="#ECBF65" stroke="black"/>
<circle cx="2" cy="2" r="1.5" transform="matrix(-1 0 0 1 131 272.942)" fill="#ECBF65" stroke="black"/>
<path d="M152 276.442C151.546 276.442 151.153 276.58 150.886 276.781C150.619 276.981 150.5 277.22 150.5 277.442C150.5 277.663 150.619 277.903 150.886 278.103C151.153 278.303 151.546 278.442 152 278.442C152.454 278.442 152.847 278.303 153.114 278.103C153.381 277.903 153.5 277.663 153.5 277.442C153.5 277.22 153.381 276.981 153.114 276.781C152.847 276.58 152.454 276.442 152 276.442Z" fill="#ECBF65" stroke="black"/>
<path d="M145 290.442C144.546 290.442 144.153 290.58 143.886 290.781C143.619 290.981 143.5 291.22 143.5 291.442C143.5 291.663 143.619 291.903 143.886 292.103C144.153 292.303 144.546 292.442 145 292.442C145.454 292.442 145.847 292.303 146.114 292.103C146.381 291.903 146.5 291.663 146.5 291.442C146.5 291.22 146.381 290.981 146.114 290.781C145.847 290.58 145.454 290.442 145 290.442Z" fill="#ECBF65" stroke="black"/>
<path d="M138 303.442C137.546 303.442 137.153 303.58 136.886 303.781C136.619 303.981 136.5 304.22 136.5 304.442C136.5 304.663 136.619 304.903 136.886 305.103C137.153 305.303 137.546 305.442 138 305.442C138.454 305.442 138.847 305.303 139.114 305.103C139.381 304.903 139.5 304.663 139.5 304.442C139.5 304.22 139.381 303.981 139.114 303.781C138.847 303.58 138.454 303.442 138 303.442Z" fill="#ECBF65" stroke="black"/>
<path d="M128 317.442C127.546 317.442 127.153 317.58 126.886 317.781C126.619 317.981 126.5 318.22 126.5 318.442C126.5 318.663 126.619 318.903 126.886 319.103C127.153 319.303 127.546 319.442 128 319.442C128.454 319.442 128.847 319.303 129.114 319.103C129.381 318.903 129.5 318.663 129.5 318.442C129.5 318.22 129.381 317.981 129.114 317.781C128.847 317.58 128.454 317.442 128 317.442Z" fill="#ECBF65" stroke="black"/>
<path d="M104 340.442C103.546 340.442 103.153 340.58 102.886 340.781C102.619 340.981 102.5 341.22 102.5 341.442C102.5 341.663 102.619 341.903 102.886 342.103C103.153 342.303 103.546 342.442 104 342.442C104.454 342.442 104.847 342.303 105.114 342.103C105.381 341.903 105.5 341.663 105.5 341.442C105.5 341.22 105.381 340.981 105.114 340.781C104.847 340.58 104.454 340.442 104 340.442Z" fill="#ECBF65" stroke="black"/>
<path d="M87 347.442C86.5456 347.442 86.1531 347.58 85.8857 347.781C85.6185 347.981 85.5 348.22 85.5 348.442C85.5 348.663 85.6185 348.903 85.8857 349.103C86.1531 349.303 86.5456 349.442 87 349.442C87.4544 349.442 87.8469 349.303 88.1143 349.103C88.3815 348.903 88.5 348.663 88.5 348.442C88.5 348.22 88.3815 347.981 88.1143 347.781C87.8469 347.58 87.4544 347.442 87 347.442Z" fill="#ECBF65" stroke="black"/>
<path d="M70 353.442C69.5456 353.442 69.1531 353.58 68.8857 353.781C68.6185 353.981 68.5 354.22 68.5 354.442C68.5 354.663 68.6185 354.903 68.8857 355.103C69.1531 355.303 69.5456 355.442 70 355.442C70.4544 355.442 70.8469 355.303 71.1143 355.103C71.3815 354.903 71.5 354.663 71.5 354.442C71.5 354.22 71.3815 353.981 71.1143 353.781C70.8469 353.58 70.4544 353.442 70 353.442Z" fill="#ECBF65" stroke="black"/>
<path d="M52 347.442C51.5456 347.442 51.1531 347.58 50.8857 347.781C50.6185 347.981 50.5 348.22 50.5 348.442C50.5 348.663 50.6185 348.903 50.8857 349.103C51.1531 349.303 51.5456 349.442 52 349.442C52.4544 349.442 52.8469 349.303 53.1143 349.103C53.3815 348.903 53.5 348.663 53.5 348.442C53.5 348.22 53.3815 347.981 53.1143 347.781C52.8469 347.58 52.4544 347.442 52 347.442Z" fill="#ECBF65" stroke="black"/>
<path d="M39 336.442C38.5456 336.442 38.1531 336.58 37.8857 336.781C37.6185 336.981 37.5 337.22 37.5 337.442C37.5 337.663 37.6185 337.903 37.8857 338.103C38.1531 338.303 38.5456 338.442 39 338.442C39.4544 338.442 39.8469 338.303 40.1143 338.103C40.3815 337.903 40.5 337.663 40.5 337.442C40.5 337.22 40.3815 336.981 40.1143 336.781C39.8469 336.58 39.4544 336.442 39 336.442Z" fill="#ECBF65" stroke="black"/>
<path d="M26 323.442C25.5456 323.442 25.1531 323.58 24.8857 323.781C24.6185 323.981 24.5 324.22 24.5 324.442C24.5 324.663 24.6185 324.903 24.8857 325.103C25.1531 325.303 25.5456 325.442 26 325.442C26.4544 325.442 26.8469 325.303 27.1143 325.103C27.3815 324.903 27.5 324.663 27.5 324.442C27.5 324.22 27.3815 323.981 27.1143 323.781C26.8469 323.58 26.4544 323.442 26 323.442Z" fill="#ECBF65" stroke="black"/>
<path d="M21 307.442C20.5456 307.442 20.1531 307.58 19.8857 307.781C19.6185 307.981 19.5 308.22 19.5 308.442C19.5 308.663 19.6185 308.903 19.8857 309.103C20.1531 309.303 20.5456 309.442 21 309.442C21.4544 309.442 21.8469 309.303 22.1143 309.103C22.3815 308.903 22.5 308.663 22.5 308.442C22.5 308.22 22.3815 307.981 22.1143 307.781C21.8469 307.58 21.4544 307.442 21 307.442Z" fill="#ECBF65" stroke="black"/>
<path d="M19 290.442C18.5456 290.442 18.1531 290.58 17.8857 290.781C17.6185 290.981 17.5 291.22 17.5 291.442C17.5 291.663 17.6185 291.903 17.8857 292.103C18.1531 292.303 18.5456 292.442 19 292.442C19.4544 292.442 19.8469 292.303 20.1143 292.103C20.3815 291.903 20.5 291.663 20.5 291.442C20.5 291.22 20.3815 290.981 20.1143 290.781C19.8469 290.58 19.4544 290.442 19 290.442Z" fill="#ECBF65" stroke="black"/>
<path d="M19 273.442C18.5456 273.442 18.1531 273.58 17.8857 273.781C17.6185 273.981 17.5 274.22 17.5 274.442C17.5 274.663 17.6185 274.903 17.8857 275.103C18.1531 275.303 18.5456 275.442 19 275.442C19.4544 275.442 19.8469 275.303 20.1143 275.103C20.3815 274.903 20.5 274.663 20.5 274.442C20.5 274.22 20.3815 273.981 20.1143 273.781C19.8469 273.58 19.4544 273.442 19 273.442Z" fill="#ECBF65" stroke="black"/>
<path d="M117 331.442C116.546 331.442 116.153 331.58 115.886 331.781C115.619 331.981 115.5 332.22 115.5 332.442C115.5 332.663 115.619 332.903 115.886 333.103C116.153 333.303 116.546 333.442 117 333.442C117.454 333.442 117.847 333.303 118.114 333.103C118.381 332.903 118.5 332.663 118.5 332.442C118.5 332.22 118.381 331.981 118.114 331.781C117.847 331.58 117.454 331.442 117 331.442Z" fill="#ECBF65" stroke="black"/>
<circle cx="2" cy="2" r="1.5" transform="matrix(-1 0 0 1 162 308.942)" fill="#ECBF65" stroke="black"/>
<circle cx="2" cy="2" r="1.5" transform="matrix(-1 0 0 1 154 325.942)" fill="#ECBF65" stroke="black"/>
<circle cx="2" cy="2" r="1.5" transform="matrix(-1 0 0 1 146 341.942)" fill="#ECBF65" stroke="black"/>
<circle cx="2" cy="2" r="1.5" transform="matrix(-1 0 0 1 134 363.942)" fill="#ECBF65" stroke="black"/>
<circle cx="2" cy="2" r="1.5" transform="matrix(-1 0 0 1 118 377.942)" fill="#ECBF65" stroke="black"/>
<circle cx="2" cy="2" r="1.5" transform="matrix(-1 0 0 1 98 387.942)" fill="#ECBF65" stroke="black"/>
<circle cx="2" cy="2" r="1.5" transform="matrix(-1 0 0 1 76 389.942)" fill="#ECBF65" stroke="black"/>
<circle cx="2" cy="2" r="1.5" transform="matrix(-1 0 0 1 56 386.942)" fill="#ECBF65" stroke="black"/>
<circle cx="2" cy="2" r="1.5" transform="matrix(-1 0 0 1 35 372.942)" fill="#ECBF65" stroke="black"/>
<circle cx="2" cy="2" r="1.5" transform="matrix(-1 0 0 1 22 354.942)" fill="#ECBF65" stroke="black"/>
<circle cx="2" cy="2" r="1.5" transform="matrix(-1 0 0 1 16 335.942)" fill="#ECBF65" stroke="black"/>
<circle cx="2" cy="2" r="1.5" transform="matrix(-1 0 0 1 11 313.942)" fill="#ECBF65" stroke="black"/>
<circle cx="2" cy="2" r="1.5" transform="matrix(-1 0 0 1 74 316.942)" fill="#ECBF65" stroke="black"/>
<circle cx="2" cy="2" r="1.5" transform="matrix(-1 0 0 1 57 301.942)" fill="#ECBF65" stroke="black"/>
<circle cx="2" cy="2" r="1.5" transform="matrix(-1 0 0 1 45 284.942)" fill="#ECBF65" stroke="black"/>
<path d="M85.1455 107.942C86.4788 107.109 89.0456 106.742 88.6456 103.942C88.3289 101.725 87.3644 100.197 86.6455 99.409L85.6455 102.942H82.6456V100.942C82.6456 100.142 83.3122 97.8464 83.6455 96.7986L82.6456 95.9415V93.4415V83.4415C78.3123 82.6082 68.2456 79.1415 62.6456 71.9416C55.6456 62.9416 50.6456 53.9415 54.1456 36.4415C57.6456 18.9415 73.1455 13.4415 77.6455 12.4415C81.2455 11.6415 84.1455 12.1082 85.1455 12.4415V8.94172H89.1455V6.94172C88.4788 5.44172 87.9455 2.24172 91.1455 1.44172C94.3455 0.641721 95.8122 1.10839 96.1455 1.44172C96.8122 1.94184 98.1455 3.34203 98.1455 4.94189C98.1455 6.54176 97.4788 7.6085 97.1455 7.94189V8.94172H101.146V13.4419H96.1455H89.1455L85.1455 14.4419C79.6456 14.6086 67.4457 18.4419 62.6456 32.4419C56.6455 49.9419 61.6455 64.9419 80.1455 76.4419H96.1455L97.1455 80.4419C97.4788 81.1086 97.8455 82.4419 96.6455 82.4419C95.4455 82.4419 93.8122 84.7752 93.1455 85.9419V95.9415L91.6455 96.9419V100.942C91.6455 101.942 92.6455 103.942 91.6455 106.942C90.6455 109.942 89.7207 111.635 88.6456 111.942C85.1455 112.942 83.4789 108.942 82.6456 108.942L85.1455 107.942Z" fill="#ECBF65"/>
<path d="M82.6456 83.4415C82.6456 86.4415 82.6456 92.6415 82.6456 93.4415C82.6456 94.2415 82.6456 95.4415 82.6456 95.9415L83.6455 96.7986M82.6456 83.4415C78.3123 82.6082 68.2456 79.1416 62.6456 71.9416C55.6456 62.9416 50.6456 53.9415 54.1456 36.4415C57.6456 18.9415 73.1455 13.4415 77.6455 12.4415C81.2455 11.6415 84.1455 12.1082 85.1455 12.4415M82.6456 83.4415H93.1455M85.1455 12.4415V8.94172H89.1455V6.94172C88.4788 5.44172 87.9455 2.24172 91.1455 1.44172C94.3455 0.641721 95.8122 1.10839 96.1455 1.44172C96.8122 1.94184 98.1455 3.34203 98.1455 4.94189C98.1455 6.54176 97.4788 7.6085 97.1455 7.94189V8.94172H101.146V13.4419H96.1455H89.1455M85.1455 12.4415L89.1455 13.4419M89.1455 13.4419L85.1455 14.4419C79.6456 14.6086 67.4457 18.4419 62.6456 32.4419C56.6455 49.9419 61.6455 64.9419 80.1455 76.4419H96.1455L97.1455 80.4419C97.4788 81.1086 97.8455 82.4419 96.6455 82.4419C95.4455 82.4419 93.8122 84.7752 93.1455 85.9419V95.9415L91.6455 96.9419C91.6455 97.9419 91.6455 100.142 91.6455 100.942C91.6455 101.942 92.6455 103.942 91.6455 106.942C90.6455 109.942 89.7207 111.635 88.6456 111.942C85.1455 112.942 83.4789 108.942 82.6456 108.942L85.1455 107.942C86.4788 107.109 89.0456 106.742 88.6456 103.942C88.3289 101.725 87.3644 100.197 86.6455 99.409M83.6455 87.4419C84.8455 87.4419 89.4788 88.1086 91.6455 88.4419M83.6455 90.9419L91.6455 92.4419M86.1456 96.9419H90.1455M89.6455 8.94189L96.1455 8.94172M83.6455 96.7986L86.1456 98.9415C86.2844 99.0457 86.4565 99.2018 86.6455 99.409M83.6455 96.7986C83.3122 97.8464 82.6456 100.142 82.6456 100.942C82.6456 101.742 82.6456 102.609 82.6456 102.942H85.6455L86.6455 99.409" stroke="black"/>
<path d="M118.646 35.9419C115.046 21.1419 105.312 15.1086 101.146 14.4419H85.1455C78.3122 14.9419 63.8455 20.7419 60.6455 39.9419C57.4455 59.1419 71.9788 72.2752 79.6455 76.4419H96.6455C113.645 74.4419 123.146 54.4419 118.646 35.9419Z" fill="#FFF5F5" stroke="black"/>
</svg>
