<svg width="171" height="396" viewBox="0 0 171 396" fill="none" xmlns="http://www.w3.org/2000/svg">
<path d="M75.5002 110.942C75.9002 105.342 81.6668 102.609 84.5002 101.942C87.5003 101.942 88.5 101.942 92.5 105.442C95.7 108.242 96.1667 115.275 96 118.442C99.1667 124.442 107.3 140.242 114.5 155.442C123.5 174.442 140 215.442 150.5 247.442C161 279.442 160.5 306.442 159.5 320.442C158.5 334.442 126.5 414.942 68 386.442C9.5 357.942 1 287.442 1 271.442C1 258.642 6 245.775 8.5 240.942L75.5002 120.442C75.3335 119.609 75.1002 116.542 75.5002 110.942Z" fill="#ECBF65" stroke="black"/>
<path d="M86.5 107.442C78.9 107.042 79.6667 113.275 81 116.442C81.7263 118.942 84.5001 118.442 87.5 118.442C90.4998 118.442 96 107.942 86.5 107.442Z" fill="#ECBF65" stroke="black"/>
<path d="M84.5004 121.442C90.9005 121.042 96.167 127.275 98.0002 130.442C105.476 137.942 138 221.942 144.5 240.942C151 259.942 159.686 295.942 153.5 326.942C147.315 357.942 112 381.442 106 383.442C100 385.442 70.5002 394.442 40.0002 357.442C9.50024 320.442 5.50024 273.442 5.00024 265.442C4.60024 259.042 9.16691 249.108 11.5002 244.942L70.5002 133.442C72.5002 129.608 78.1003 121.842 84.5004 121.442Z" fill="#ECBF65" stroke="black"/>
<path d="M94.9998 136.942C91.7998 131.342 86.6665 130.275 84.4999 130.442C80.1 130.442 76.6666 134.775 75.4999 136.942C69.4999 147.608 54.9998 173.642 44.9998 192.442C32.4998 215.942 24.9998 232.442 21.9998 251.942C18.9998 271.442 33.9998 302.442 54.4998 326.942C74.9998 351.442 98.9998 352.442 125.5 334.442C152 316.442 148 279.442 146 267.442C144.4 257.842 136.666 233.108 133 221.942L112.5 172.442C108 162.942 98.1998 142.542 94.9998 136.942Z" fill="#ECBF65" stroke="black"/>
<path d="M90.9997 146.442C89.3997 144.042 85.9998 143.442 84.4998 143.442C80.0999 143.442 74.6664 149.775 72.4997 152.942C62.333 171.609 41.2997 210.542 38.4997 216.942C34.9997 224.942 31.9997 234.442 32.9997 251.942C33.9997 269.442 60.4997 323.442 100.5 309.942C140.5 296.442 131 255.942 129.5 240.942C128.3 228.942 120.666 209.609 117 201.442C109 184.109 92.5997 148.842 90.9997 146.442Z" fill="#ECBF65" stroke="black"/>
<path d="M91.0001 158.442C89.0001 154.842 85.8336 153.275 84.5003 152.942C79.3004 152.142 74.3336 160.275 72.5001 164.442C62.3335 183.608 41.6001 223.542 40.0001 229.942C38.0001 237.942 40.0001 249.942 54.5001 269.442C69.0001 288.942 82.5001 290.442 88.5001 290.442C94.5001 290.442 107.5 287.942 119.5 267.442C129.1 251.042 121.833 223.608 117 211.942C109.167 195.608 93.0001 162.042 91.0001 158.442Z" fill="#ECBF65" stroke="black"/>
<path d="M83.4997 166.442C79.4997 166.442 77.1664 170.442 76.4997 172.442C70.4997 183.109 58.1997 205.942 56.9997 211.942C55.4997 219.442 58.9997 225.942 64.4997 233.942C69.9997 241.942 77.4997 248.942 84.4997 250.442C91.4997 251.942 95.9997 251.942 104.5 240.942C111.3 232.142 109.333 217.942 107.5 211.942L92.9997 175.442C91.4997 172.442 87.4997 166.442 83.4997 166.442Z" fill="#ECBF65" stroke="black"/>
<circle cx="77.5" cy="308.442" r="9" fill="#838564" stroke="black"/>
<circle cx="55.5" cy="291.442" r="9" fill="#838564" stroke="black"/>
<circle cx="41.5" cy="269.442" r="9" fill="#838564" stroke="black"/>
<circle cx="19.5" cy="271.442" r="8" fill="#FFF6F1" stroke="black"/>
<circle cx="27.5" cy="285.442" r="8" fill="#FFF6F1" stroke="black"/>
<circle cx="35.5" cy="299.442" r="8" fill="#FFF6F1" stroke="black"/>
<circle cx="44.5" cy="313.442" r="8" fill="#FFF6F1" stroke="black"/>
<circle cx="69.5" cy="335.442" r="8" fill="#FFF6F1" stroke="black"/>
<circle cx="84.5" cy="343.442" r="8" fill="#FFF6F1" stroke="black"/>
<circle cx="100.5" cy="347.442" r="8" fill="#FFF6F1" stroke="black"/>
<circle cx="115.5" cy="342.442" r="8" fill="#FFF6F1" stroke="black"/>
<circle cx="128.5" cy="332.442" r="8" fill="#FFF6F1" stroke="black"/>
<circle cx="140.5" cy="320.442" r="8" fill="#FFF6F1" stroke="black"/>
<circle cx="144.5" cy="304.442" r="8" fill="#FFF6F1" stroke="black"/>
<circle cx="148.5" cy="288.442" r="8" fill="#FFF6F1" stroke="black"/>
<circle cx="147.5" cy="272.442" r="8" fill="#FFF6F1" stroke="black"/>
<circle cx="55.5" cy="326.442" r="8" fill="#FFF6F1" stroke="black"/>
<circle cx="10.5" cy="305.442" r="9" fill="#838564" stroke="black"/>
<circle cx="18.5" cy="322.442" r="9" fill="#838564" stroke="black"/>
<circle cx="26.5" cy="338.442" r="9" fill="#838564" stroke="black"/>
<circle cx="38.5" cy="360.442" r="9" fill="#838564" stroke="black"/>
<circle cx="54.5" cy="374.442" r="9" fill="#838564" stroke="black"/>
<circle cx="74.5" cy="384.442" r="9" fill="#838564" stroke="black"/>
<circle cx="96.5" cy="386.442" r="9" fill="#838564" stroke="black"/>
<circle cx="116.5" cy="383.442" r="9" fill="#838564" stroke="black"/>
<circle cx="137.5" cy="369.442" r="9" fill="#838564" stroke="black"/>
<circle cx="150.5" cy="351.442" r="9" fill="#838564" stroke="black"/>
<circle cx="156.5" cy="332.442" r="9" fill="#838564" stroke="black"/>
<circle cx="161.5" cy="310.442" r="9" fill="#838564" stroke="black"/>
<circle cx="98.5" cy="313.442" r="9" fill="#838564" stroke="black"/>
<circle cx="115.5" cy="298.442" r="9" fill="#838564" stroke="black"/>
<circle cx="127.5" cy="281.442" r="9" fill="#838564" stroke="black"/>
<circle cx="78" cy="312.942" r="1.5" fill="#ECBF65" stroke="black"/>
<circle cx="56" cy="295.942" r="1.5" fill="#ECBF65" stroke="black"/>
<circle cx="42" cy="273.942" r="1.5" fill="#ECBF65" stroke="black"/>
<path d="M19 275.442C19.4544 275.442 19.8469 275.58 20.1143 275.781C20.3815 275.981 20.5 276.22 20.5 276.442C20.5 276.663 20.3815 276.903 20.1143 277.103C19.8469 277.303 19.4544 277.442 19 277.442C18.5456 277.442 18.1531 277.303 17.8857 277.103C17.6185 276.903 17.5 276.663 17.5 276.442C17.5 276.22 17.6185 275.981 17.8857 275.781C18.1531 275.58 18.5456 275.442 19 275.442Z" fill="#ECBF65" stroke="black"/>
<path d="M26 289.442C26.4544 289.442 26.8469 289.58 27.1143 289.781C27.3815 289.981 27.5 290.22 27.5 290.442C27.5 290.663 27.3815 290.903 27.1143 291.103C26.8469 291.303 26.4544 291.442 26 291.442C25.5456 291.442 25.1531 291.303 24.8857 291.103C24.6185 290.903 24.5 290.663 24.5 290.442C24.5 290.22 24.6185 289.981 24.8857 289.781C25.1531 289.58 25.5456 289.442 26 289.442Z" fill="#ECBF65" stroke="black"/>
<path d="M33 302.442C33.4544 302.442 33.8469 302.58 34.1143 302.781C34.3815 302.981 34.5 303.22 34.5 303.442C34.5 303.663 34.3815 303.903 34.1143 304.103C33.8469 304.303 33.4544 304.442 33 304.442C32.5456 304.442 32.1531 304.303 31.8857 304.103C31.6185 303.903 31.5 303.663 31.5 303.442C31.5 303.22 31.6185 302.981 31.8857 302.781C32.1531 302.58 32.5456 302.442 33 302.442Z" fill="#ECBF65" stroke="black"/>
<path d="M43 316.442C43.4544 316.442 43.8469 316.58 44.1143 316.781C44.3815 316.981 44.5 317.22 44.5 317.442C44.5 317.663 44.3815 317.903 44.1143 318.103C43.8469 318.303 43.4544 318.442 43 318.442C42.5456 318.442 42.1531 318.303 41.8857 318.103C41.6185 317.903 41.5 317.663 41.5 317.442C41.5 317.22 41.6185 316.981 41.8857 316.781C42.1531 316.58 42.5456 316.442 43 316.442Z" fill="#ECBF65" stroke="black"/>
<path d="M67 339.442C67.4544 339.442 67.8469 339.58 68.1143 339.781C68.3815 339.981 68.5 340.22 68.5 340.442C68.5 340.663 68.3815 340.903 68.1143 341.103C67.8469 341.303 67.4544 341.442 67 341.442C66.5456 341.442 66.1531 341.303 65.8857 341.103C65.6185 340.903 65.5 340.663 65.5 340.442C65.5 340.22 65.6185 339.981 65.8857 339.781C66.1531 339.58 66.5456 339.442 67 339.442Z" fill="#ECBF65" stroke="black"/>
<path d="M84 346.442C84.4544 346.442 84.8469 346.58 85.1143 346.781C85.3815 346.981 85.5 347.22 85.5 347.442C85.5 347.663 85.3815 347.903 85.1143 348.103C84.8469 348.303 84.4544 348.442 84 348.442C83.5456 348.442 83.1531 348.303 82.8857 348.103C82.6185 347.903 82.5 347.663 82.5 347.442C82.5 347.22 82.6185 346.981 82.8857 346.781C83.1531 346.58 83.5456 346.442 84 346.442Z" fill="#ECBF65" stroke="black"/>
<path d="M101 352.442C101.454 352.442 101.847 352.58 102.114 352.781C102.381 352.981 102.5 353.22 102.5 353.442C102.5 353.663 102.381 353.903 102.114 354.103C101.847 354.303 101.454 354.442 101 354.442C100.546 354.442 100.153 354.303 99.8857 354.103C99.6185 353.903 99.5 353.663 99.5 353.442C99.5 353.22 99.6185 352.981 99.8857 352.781C100.153 352.58 100.546 352.442 101 352.442Z" fill="#ECBF65" stroke="black"/>
<path d="M119 346.442C119.454 346.442 119.847 346.58 120.114 346.781C120.381 346.981 120.5 347.22 120.5 347.442C120.5 347.663 120.381 347.903 120.114 348.103C119.847 348.303 119.454 348.442 119 348.442C118.546 348.442 118.153 348.303 117.886 348.103C117.619 347.903 117.5 347.663 117.5 347.442C117.5 347.22 117.619 346.981 117.886 346.781C118.153 346.58 118.546 346.442 119 346.442Z" fill="#ECBF65" stroke="black"/>
<path d="M132 335.442C132.454 335.442 132.847 335.58 133.114 335.781C133.381 335.981 133.5 336.22 133.5 336.442C133.5 336.663 133.381 336.903 133.114 337.103C132.847 337.303 132.454 337.442 132 337.442C131.546 337.442 131.153 337.303 130.886 337.103C130.619 336.903 130.5 336.663 130.5 336.442C130.5 336.22 130.619 335.981 130.886 335.781C131.153 335.58 131.546 335.442 132 335.442Z" fill="#ECBF65" stroke="black"/>
<path d="M145 322.442C145.454 322.442 145.847 322.58 146.114 322.781C146.381 322.981 146.5 323.22 146.5 323.442C146.5 323.663 146.381 323.903 146.114 324.103C145.847 324.303 145.454 324.442 145 324.442C144.546 324.442 144.153 324.303 143.886 324.103C143.619 323.903 143.5 323.663 143.5 323.442C143.5 323.22 143.619 322.981 143.886 322.781C144.153 322.58 144.546 322.442 145 322.442Z" fill="#ECBF65" stroke="black"/>
<path d="M150 306.442C150.454 306.442 150.847 306.58 151.114 306.781C151.381 306.981 151.5 307.22 151.5 307.442C151.5 307.663 151.381 307.903 151.114 308.103C150.847 308.303 150.454 308.442 150 308.442C149.546 308.442 149.153 308.303 148.886 308.103C148.619 307.903 148.5 307.663 148.5 307.442C148.5 307.22 148.619 306.981 148.886 306.781C149.153 306.58 149.546 306.442 150 306.442Z" fill="#ECBF65" stroke="black"/>
<path d="M152 289.442C152.454 289.442 152.847 289.58 153.114 289.781C153.381 289.981 153.5 290.22 153.5 290.442C153.5 290.663 153.381 290.903 153.114 291.103C152.847 291.303 152.454 291.442 152 291.442C151.546 291.442 151.153 291.303 150.886 291.103C150.619 290.903 150.5 290.663 150.5 290.442C150.5 290.22 150.619 289.981 150.886 289.781C151.153 289.58 151.546 289.442 152 289.442Z" fill="#ECBF65" stroke="black"/>
<path d="M152 272.442C152.454 272.442 152.847 272.58 153.114 272.781C153.381 272.981 153.5 273.22 153.5 273.442C153.5 273.663 153.381 273.903 153.114 274.103C152.847 274.303 152.454 274.442 152 274.442C151.546 274.442 151.153 274.303 150.886 274.103C150.619 273.903 150.5 273.663 150.5 273.442C150.5 273.22 150.619 272.981 150.886 272.781C151.153 272.58 151.546 272.442 152 272.442Z" fill="#ECBF65" stroke="black"/>
<path d="M54 330.442C54.4544 330.442 54.8469 330.58 55.1143 330.781C55.3815 330.981 55.5 331.22 55.5 331.442C55.5 331.663 55.3815 331.903 55.1143 332.103C54.8469 332.303 54.4544 332.442 54 332.442C53.5456 332.442 53.1531 332.303 52.8857 332.103C52.6185 331.903 52.5 331.663 52.5 331.442C52.5 331.22 52.6185 330.981 52.8857 330.781C53.1531 330.58 53.5456 330.442 54 330.442Z" fill="#ECBF65" stroke="black"/>
<circle cx="11" cy="309.942" r="1.5" fill="#ECBF65" stroke="black"/>
<circle cx="19" cy="326.942" r="1.5" fill="#ECBF65" stroke="black"/>
<circle cx="27" cy="342.942" r="1.5" fill="#ECBF65" stroke="black"/>
<circle cx="39" cy="364.942" r="1.5" fill="#ECBF65" stroke="black"/>
<circle cx="55" cy="378.942" r="1.5" fill="#ECBF65" stroke="black"/>
<circle cx="75" cy="388.942" r="1.5" fill="#ECBF65" stroke="black"/>
<circle cx="97" cy="390.942" r="1.5" fill="#ECBF65" stroke="black"/>
<circle cx="117" cy="387.942" r="1.5" fill="#ECBF65" stroke="black"/>
<circle cx="138" cy="373.942" r="1.5" fill="#ECBF65" stroke="black"/>
<circle cx="151" cy="355.942" r="1.5" fill="#ECBF65" stroke="black"/>
<circle cx="157" cy="336.942" r="1.5" fill="#ECBF65" stroke="black"/>
<circle cx="162" cy="314.942" r="1.5" fill="#ECBF65" stroke="black"/>
<circle cx="99" cy="317.942" r="1.5" fill="#ECBF65" stroke="black"/>
<circle cx="116" cy="302.942" r="1.5" fill="#ECBF65" stroke="black"/>
<circle cx="128" cy="285.942" r="1.5" fill="#ECBF65" stroke="black"/>
<path d="M84 107.942C85.3333 107.109 87.9001 106.742 87.5001 103.942C87.1834 101.725 86.2189 100.197 85.5 99.409L84.5 102.942H81.5001V100.942C81.5001 100.142 82.1667 97.8464 82.5 96.7986L81.5001 95.9415V93.4415V83.4415C77.1668 82.6082 67.1001 79.1415 61.5001 71.9416C54.5001 62.9416 49.5001 53.9415 53.0001 36.4415C56.5001 18.9415 72 13.4415 76.5 12.4415C80.1 11.6415 83 12.1082 84 12.4415V8.94172H88V6.94172C87.3333 5.44172 86.8 2.24172 90 1.44172C93.2 0.641721 94.6667 1.10839 95 1.44172C95.6667 1.94184 97 3.34203 97 4.94189C97 6.54176 96.3333 7.6085 96 7.94189V8.94172H100V13.4419H95H88L84 14.4419C78.5001 14.6086 66.3002 18.4419 61.5001 32.4419C55.5 49.9419 60.5 64.9419 79 76.4419H95L96 80.4419C96.3333 81.1086 96.7 82.4419 95.5 82.4419C94.3 82.4419 92.6667 84.7752 92 85.9419V95.9415L90.5 96.9419V100.942C90.5 101.942 91.5 103.942 90.5 106.942C89.5 109.942 88.5752 111.635 87.5001 111.942C84 112.942 81.8333 110.442 81 110.442L84 107.942Z" fill="#ECBF65"/>
<path d="M81.5001 83.4415C81.5001 86.4415 81.5001 92.6415 81.5001 93.4415C81.5001 94.2415 81.5001 95.4415 81.5001 95.9415L82.5 96.7986M81.5001 83.4415C77.1668 82.6082 67.1001 79.1416 61.5001 71.9416C54.5001 62.9416 49.5001 53.9415 53.0001 36.4415C56.5001 18.9415 72 13.4415 76.5 12.4415C80.1 11.6415 83 12.1082 84 12.4415M81.5001 83.4415H92M84 12.4415V8.94172H88V6.94172C87.3333 5.44172 86.8 2.24172 90 1.44172C93.2 0.641721 94.6667 1.10839 95 1.44172C95.6667 1.94184 97 3.34203 97 4.94189C97 6.54176 96.3333 7.6085 96 7.94189V8.94172H100V13.4419H95H88M84 12.4415L88 13.4419M88 13.4419L84 14.4419C78.5001 14.6086 66.3002 18.4419 61.5001 32.4419C55.5 49.9419 60.5 64.9419 79 76.4419H95L96 80.4419C96.3333 81.1086 96.7 82.4419 95.5 82.4419C94.3 82.4419 92.6667 84.7752 92 85.9419V95.9415L90.5 96.9419C90.5 97.9419 90.5 100.142 90.5 100.942C90.5 101.942 91.5 103.942 90.5 106.942C89.5 109.942 88.5752 111.635 87.5001 111.942C84 112.942 81.8333 110.442 81 110.442L84 107.942C85.3333 107.109 87.9001 106.742 87.5001 103.942C87.1834 101.725 86.2189 100.197 85.5 99.409M82.5 87.4419C83.7 87.4419 88.3333 88.1086 90.5 88.4419M82.5 90.9419L90.5 92.4419M85.0001 96.9419H89M88.5 8.94189L95 8.94172M82.5 96.7986L85.0001 98.9415C85.1389 99.0457 85.311 99.2018 85.5 99.409M82.5 96.7986C82.1667 97.8464 81.5001 100.142 81.5001 100.942C81.5001 101.742 81.5001 102.609 81.5001 102.942H84.5L85.5 99.409" stroke="black"/>
<path d="M117.5 35.9419C113.9 21.1419 104.167 15.1086 100 14.4419H84C77.1667 14.9419 62.7 20.7419 59.5 39.9419C56.3 59.1419 70.8333 72.2752 78.5 76.4419H95.5C112.5 74.4419 122 54.4419 117.5 35.9419Z" fill="#FFF5F5" stroke="black"/>
</svg>
