<svg width="13" height="16" viewBox="0 0 13 16" fill="none" xmlns="http://www.w3.org/2000/svg">
<path d="M0.647949 14.4203L0.693447 14.3857L0.835272 14.3603L0.962502 14.3567L1.15887 14.073L1.48435 13.8967L2.04982 12.9149L2.28797 12.5094L2.31704 12.2876L2.38435 11.8239L2.25889 11.2603L2.31704 11.1021L2.80249 10.4221L3.01162 10.0512L3.02616 9.7312L3.08614 9.50032L3.02616 9.38029L2.91524 9.34573L2.7298 9.04755L2.60979 8.80029L2.2807 8.54756L2.05525 8.28755L1.68433 7.69118L1.71706 7.35664L1.61158 7.23663L1.49706 7.11301L1.50616 6.96031L1.42981 6.58572L1.33343 6.23299L1.29886 6.01122L1.3898 5.62941L1.33526 5.20393L1.21524 4.98027L1.18251 4.6403L1.20797 4.33485L1.31162 4.16212L1.29159 3.94939L1.76068 3.27116L2.11707 2.87849L2.44433 2.60211L2.71887 2.39665L3.09163 1.36577L3.36252 1.00211L3.64617 0.951172L5.17526 1.80571L5.8916 1.8839L7.33525 2.34576L7.85887 2.93665L9.06981 3.9203L9.70619 4.22937L9.71346 4.48755L9.57524 4.89848L9.98251 4.54025L10.6134 5.10756L10.7916 5.38576L10.988 5.89847L10.9207 6.22755L10.8335 6.39845L10.828 6.53117L11.0153 6.3494L11.1207 6.20392L11.1516 5.86029L11.3044 5.43304L11.5098 5.42572L11.6735 5.68028L12.0116 6.78758L12.1389 7.01302L12.188 7.36392L12.1698 7.52028L12.1916 7.66576L12.0716 7.74937L11.7462 7.93304L11.5971 8.17847L11.5098 8.41299L11.308 8.57303L11.1153 8.77483L11.0552 8.93846L10.8752 9.06758L10.8407 9.28209L10.3862 10.0403L10.2062 10.3821L9.94617 10.7439L9.78437 10.8785L9.56436 11.0948L9.45162 11.3439V11.6021L9.29709 11.9112L9.21163 12.1767L9.06615 12.3312L8.68069 13.1749L8.66254 13.4658L8.5716 13.6385L8.29888 14.0403L8.11344 14.2821L7.79162 14.4639L7.45343 14.6603L7.32437 14.8749L7.08617 14.9839L6.91161 14.9912L6.62979 14.913L6.24982 14.8749L6.05706 14.9003L5.96978 14.793L5.84072 14.5476L5.64979 14.3749L5.52616 14.4348L5.26982 14.6094L4.9698 14.7112L4.75523 14.6767L4.28981 14.5566L4.09161 14.4967L4.03163 14.393L3.96249 14.3148L3.8589 14.3494L3.72068 14.4785L3.53708 14.613L3.26614 14.7912L2.708 15.1112L2.55164 15.2258L2.40615 15.1639L2.16978 15.1003L1.91704 15.0966L1.3716 14.8894L1.05344 14.7421L0.915228 14.5566L0.753428 14.4767L0.647949 14.4203Z" fill="black" stroke="#808080" stroke-width="0.25" stroke-linecap="round" stroke-linejoin="round"/>
</svg>
