<svg width="685" height="587" viewBox="0 0 685 587" fill="none" xmlns="http://www.w3.org/2000/svg">
<path d="M656.305 241.719L649.926 244.764L648.467 247.438L645.97 250.979L641.89 252.464L637.785 252.959L634.472 252.489L632.593 251.078L632.692 249.765L630.936 248.651L626.56 248.676L622.06 251.102L618.45 255.064L619.562 257.292L622.875 257.886L623.741 258.752V259.891L622.579 261.253L621.169 263.605L614.221 270.587L607.198 277.618L606.086 279.747L603.86 281.233L594.934 284.971L593.995 286.481L593.475 292.745L592.486 297.87L585.859 302.697L579.282 307.5L577.65 310.447L576.439 313.838L574.361 317.676L573.941 319.706L577.279 322.999L576.884 325.722L575.821 329.584L572.655 332.332L569.144 333.892L569.219 338.101L571.073 338.695L575.301 338.373L581.285 335.328L585.167 331.392L582.867 327.653L582.595 326.935L583.139 326.069L587.764 322.008L593.426 319.557L601.338 319.112L610.858 320.548L611.798 321.167L611.328 323.642L612.218 327.306L613.949 329.881L611.575 337.185L613.355 339.462L616.125 342.186L618.202 344.686L621.194 346.989L623.84 350.851L624.754 353.03L620.501 356.818L613.281 360.383L612.465 362.66L612.565 365.26L613.38 367.29L617.361 369.915L621.639 375.832L624.359 381.105L630.318 386.156L631.777 387.666L631.406 388.928L629.848 391.082L627.821 398.262L625.397 399.401L622.678 399.871L615.309 405.12L612.02 404.476L607.347 404.55L603.935 406.284L604.305 409.552L607.297 412.548L609.053 415.791L609.77 419.182L613.108 421.683L617.781 423.168L620.452 423.268L622.207 424.159L623.247 425.322L625.249 432.552L624.037 434.359L621.515 435.126L620.007 438.097L617.015 442.48L615.309 445.995L617.188 449.09L618.004 451.367L616.99 453.719L618.326 457.383L621.886 460.998L631.53 466.098L640.481 470.233L643.25 470.926L655.341 468.277L657.344 468.5L658.828 471.669L659.471 473.798L658.11 477.016L654.847 481.448L651.311 484.964L649.159 487.959L649.605 490.683L649.753 494.297L646.86 495.387L646.761 494.669L645.574 494.05L644.536 494.421L643.744 495.213L643.621 496.6L637.464 498.902L633.211 501.304L616.446 515.564L608.608 519.748L607.075 522.273L605.468 526.978L600.869 531.013L596.838 532.919L586.849 534.875L576.809 539.133L572.285 537.301L560.589 537.5L553.294 532.35L539.25 529.082L534.675 521.58L528.296 521.085L524.117 521.308L521.619 520.169L520.977 517.619L520.928 515.143L516.501 516.282H513.114L511.086 517.273L509.479 518.411L507.6 517.693L506.512 517.941L506.61 519.402L502.531 519.773L498.105 518.882L486.508 514.995L484.727 514.401L476.691 512.89L473.427 511.331L470.806 507.493L468.804 506.28L467.617 505.562L460.099 507.493L457.504 510.513L453.423 514.054L425.581 531.36L420.513 538.589L414.627 549.235L414.157 554.186L416.704 570.006L422.366 578.3L423.084 580.206H419.944L414.677 579.167L410.301 577.879L406.146 578.597L402.14 580.305L398.629 581.345L396.107 581.642L394.426 582.633L393.61 584.614L393.437 586L389.01 585.653L378.773 582.806L369.551 580.85L364.136 583.078L360.674 585.158L358.226 584.836L356.372 582.657L355.135 580.504L351.525 578.548L343.39 575.602L343.81 574.166L345.194 572.185L345.146 570.947L343.588 569.115L336.096 567.159L332.56 566.664L330.309 568.001L328.702 569.66L324.523 563.594L321.556 562.356L317.056 562.158L311.913 560.301L306.572 557.925L293.566 554.137L289.98 553.691L288.546 554.285L287.582 556.538L287.063 562.926L286.519 563.644L280.486 563.867L273.042 562.975L269.63 563.421L266.589 563.445L263.721 561.762L250.887 563.693L248.761 562.752L245.67 559.856L242.209 557.528L239.538 556.266L237.238 554.904L235.161 554.682L231.997 556.018L227.62 556.588L223.985 556.414L222.056 556.613L213.921 549.507L212.734 547.551L208.679 547.007L203.659 546.932L190.876 542.327L185.04 539.852L184.175 538.391L184.249 537.202L183.26 537.45L181.455 539.554L180.516 541.263L179.279 541.584L177.449 541.312L175.743 540.346L174.705 539.109L175.818 536.93L177.77 534.083L178.587 530.988L178.413 528.216L175.175 526.433L170.427 525.69L166.941 525.492L162.391 523.907L160.24 522.769L158.162 519.674L158.088 517.421L166.693 515.44L174.457 507.32L181.801 477.759L187.118 442.653L191.073 435.993L196.044 434.161L192.014 429.308L189.491 431.759L188.428 434.359L187.118 435.671L190.085 403.288L192.211 391.379L195.821 378.902L203.19 383.853L209.298 388.879L212.462 393.236L216.468 407.745L219.485 410.789L224.009 413.835L222.229 410.517L219.113 407.967L214.243 388.631L211.176 383.135L206.429 378.506L191.123 368.776L189.738 366.894L188.997 363.181L194.065 363.329L198.442 365.136L197.923 363.057L196.637 360.878L194.609 352.955L192.928 334.437L193.151 331.268L192.384 327.381L187.488 326.514L183.582 326.366L179.353 324.831L158.484 313.863L151.338 302.549L144.044 294.181L142.288 290.517L142.412 286.803L146.195 278.98L142.857 274.028L139.593 273.038L136.749 270.587L139.321 266.502L141.447 263.877L145.725 263.159L151.338 264.026L156.654 266.403L160.833 267.022L148.494 260.659L128.491 262.813L124.188 261.996L120.553 260.585L119.119 255.905L121.963 253.801L124.534 249.914L121.616 247.166L117.834 246.126L111.899 246.176L106.385 247.017L104.975 245.433L108.339 241.1L105.47 239.491L101.662 240.234L96.123 241.125L90.8318 239.763L85.8122 234.812L82.4987 234.836L80.2243 235.456L76.8362 233.549L73.2761 233.079L70.7293 233.722L67.3412 230.875L46.5217 225.181L37.521 224.488L29.3367 227.112L24.7871 226.221L21.4489 222.532L18.6545 216.343L5.37668 211.564L7.99738 208.42L14.179 207.677L21.3001 205.499L23.8718 202.701L18.3081 199.458L14.2039 198.665L12.4977 197.502L10.7667 194.581L13.2396 193.244L14.9705 193.961L19.9902 194.382L28.5699 193.664L25.3802 190.718L22.0668 190.05L20.5341 189.307L13.561 188.985L10.3962 190L3.27498 189.629L1.74166 186.435L1 183.712L3.20027 177.621L13.2396 172.174L38.2378 166.208L48.9947 167.075L56.4615 166.01L65.3883 162.247L69.3446 159.028L82.0536 157.122L94.1452 160.539L105.273 173.462L110.589 177.844L123.619 170.244L143.029 170.467L147.036 174.749L148.643 171.135L152.203 166.901L155.047 168.832L156.481 171.432L176.98 170.689L180.218 169.922L174.705 166.852L170.204 159.499L169.265 132.339L163.577 124.739L157.074 112.583L154.083 105.354L153.81 102.853L154.825 99.2383L162.835 99.4366L169.017 100.353L180.787 97.6294L186.45 99.4861L186.104 105.131L187.834 112.236L189.812 115.677L192.804 119.589L202.299 119.218L212.536 121.52L225.493 121.867L244.409 125.828L252.469 123.526L260.259 118.624L275.12 115.405L276.307 113.697L267.751 114.39L259.913 111.295L258.85 107.929L259.764 104.883L262.954 97.9014L285.703 86.8594L301.998 83.5917L319.009 77.5012L327.565 71.2623L333.227 63.1912L335.057 61.4085L337.406 59.9231L335.23 57.0267L336.714 26.0297L338.296 20.4345L341.609 15.8544L346.654 12.3143L354.319 8.4765L382.557 3.15368L386.76 1L387.354 4.34216L389.406 8.60041L390.815 10.9279L389.653 13.9727L390.593 16.4736L394.426 20.9793L399.198 25.213L403.451 27.9363L404.662 27.639L407.828 26.8718L413.169 24.0989L417.619 23.2323L420.166 25.3614L421.601 26.5745L424.394 31.3775L425.186 36.3788L426.422 40.5381L428.697 42.2214L437.203 42.7662L443.483 44.3011L445.14 45.6875L447.292 54.8972L448.454 56.2096L450.011 55.1201L451.545 53.6101L453.695 53.3623L457.38 53.9566L462.226 54.13L467.221 55.145L474.12 60.3439L473.848 62.0522L472.488 65.048L472.018 67.4495L473.204 68.4151L475.035 70.891L474.589 73.7379L472.809 75.7435L472.092 77.4023V78.4668L472.735 79.358L474.145 80.1502L484.357 81.2148L493.678 80.1502L499.563 77.2289L500.577 74.1587L502.234 70.6926L505.745 67.7713L508.168 66.8057L510.393 67.9942L506.66 80.1997L509.38 83.3193L509.775 87.9739L510.74 92.0587L514.078 91.9843L518.108 92.727L520.977 94.2373L524.315 96.6638L529.137 98.8919L532.524 99.6841L533.76 101.541L536.48 103.695L540.783 108.201L544.64 111.196H546.495L550.08 110.008L555.396 109.241L559.6 109.315L561.38 111.593L565.509 112.657L566.969 113.499L568.576 115.083L571.32 115.702L574.634 115.083L577.057 112.979L580.296 112.038L583.535 112.36L585.39 113.524L588.95 115.232L590.954 114.861L594.959 115.9L598.989 119.218L600.695 122.536L601.141 124.367L602.872 126.348L609.646 135.286L611.798 135.732L614.147 134.37L615.68 132.438L617.881 132.067L621.442 132.958L623.716 133.973L624.804 137.836L625.571 138.578L627.103 137.737L629.848 137.563L634.225 138.529L640.233 137.439L645.03 135.831L647.478 135.88L651.434 140.386L655.96 142.069L665.924 143.431L676.631 145.56L680.834 147.268L683.702 148.11L684 154.077L683.134 154.968L672.477 166.901L667.977 171.16L665.701 177.225L664.119 186.534L660.979 195.348L656.256 203.716L654.55 209.98L655.836 214.164L655.019 220.725L652.127 229.638L651.632 236.371L653.536 240.902L656.305 241.719Z" fill="white" stroke="black" stroke-linecap="round" stroke-linejoin="round"/>
</svg>
