<svg width="5" height="9" viewBox="0 0 5 9" fill="none" xmlns="http://www.w3.org/2000/svg">
<path d="M4.18124 1.92387L4.07944 2.61479L4.15399 2.8166L4.29401 2.95659L4.35941 3.11115L4.4776 4.9475L4.45578 5.09296L3.97943 5.82932L3.87213 6.04569L3.84848 6.95662L3.76852 7.20023L3.59943 7.44024L3.29761 8.21844L3.03577 8.5675L2.32306 8.14203L1.90308 7.95843L1.6976 7.76023L1.56305 7.62207L1.65033 7.43841L1.84128 7.24751L1.87216 7.09841L1.42123 6.92932L1.21399 6.8166L1.21576 6.61843L1.37213 6.30934L1.30127 6.05296L1.04126 6.0657L0.839386 6.02752L0.813995 5.89477L0.963074 5.72387L1.15396 5.50206L1.14853 5.25659L0.917572 5.15114L0.708496 4.95114L0.624878 4.68023L0.786682 4.49479L1.05035 4.37477L0.857605 4.09659L0.726715 4.09115L0.623047 4.03114L0.708496 3.90205L0.91214 3.70932L1.1958 3.13115L1.59213 2.85841L2.29398 2.68204L2.48309 2.60569L2.65759 2.40206L2.85034 2.27114L3.0849 2.28934L3.30124 2.36752L3.43396 2.45113L3.534 2.36388L3.63214 2.11114L3.57217 1.88933L3.60309 1.27843L3.72852 0.931137L3.93033 0.911133L4.11761 1.10206L4.10849 1.27113L4.17758 1.67113L4.18124 1.92387Z" fill="#808080" stroke="#808080" stroke-width="0.25" stroke-linecap="round" stroke-linejoin="round"/>
</svg>
