<svg width="52" height="45" viewBox="0 0 52 45" fill="none" xmlns="http://www.w3.org/2000/svg">
<path d="M49.1855 18.6782L48.7164 18.9018L48.6091 19.0982L48.4255 19.3582L48.1255 19.4673L47.8237 19.5036L47.58 19.4691L47.4419 19.3655L47.4491 19.2691L47.32 19.1873L46.9982 19.1891L46.6673 19.3673L46.4019 19.6582L46.4837 19.8218L46.7273 19.8655L46.791 19.9291V20.0128L46.7055 20.1127L46.6019 20.2855L46.0909 20.7982L45.5746 21.3146L45.4928 21.4709L45.3291 21.58L44.6727 21.8546L44.6037 21.9655L44.5655 22.4255L44.4928 22.8018L44.0055 23.1564L43.5219 23.5091L43.4018 23.7255L43.3128 23.9746L43.16 24.2564L43.1291 24.4055L43.3746 24.6473L43.3455 24.8473L43.2673 25.1309L43.0346 25.3328L42.7764 25.4473L42.7819 25.7564L42.9182 25.8L43.2291 25.7764L43.6691 25.5528L43.9546 25.2637L43.7855 24.9891L43.7655 24.9364L43.8055 24.8727L44.1455 24.5746L44.5618 24.3946L45.1437 24.3618L45.8437 24.4673L45.9128 24.5127L45.8782 24.6946L45.9437 24.9637L46.071 25.1528L45.8964 25.6891L46.0273 25.8564L46.2309 26.0564L46.3837 26.24L46.6037 26.4091L46.7982 26.6928L46.8655 26.8527L46.5527 27.1309L46.0219 27.3927L45.9619 27.56L45.9692 27.7509L46.0291 27.9L46.3219 28.0928L46.6364 28.5273L46.8364 28.9146L47.2746 29.2855L47.3819 29.3964L47.3546 29.4891L47.2401 29.6473L47.091 30.1746L46.9128 30.2582L46.7128 30.2928L46.1709 30.6782L45.9292 30.6309L45.5855 30.6364L45.3346 30.7637L45.3618 31.0037L45.5819 31.2237L45.711 31.4619L45.7637 31.7109L46.0091 31.8946L46.3528 32.0037L46.5491 32.0109L46.6782 32.0764L46.7546 32.1618L46.9019 32.6928L46.8128 32.8255L46.6273 32.8818L46.5164 33.1L46.2964 33.4219L46.1709 33.68L46.3091 33.9073L46.3692 34.0746L46.2946 34.2473L46.3928 34.5164L46.6546 34.7818L47.3637 35.1564L48.0219 35.46L48.2255 35.5109L49.1146 35.3164L49.2619 35.3328L49.371 35.5655L49.4183 35.7219L49.3182 35.9582L49.0782 36.2837L48.8182 36.5418L48.66 36.7618L48.6928 36.9618L48.7037 37.2273L48.491 37.3073L48.4837 37.2546L48.3964 37.2091L48.3201 37.2364L48.2619 37.2946L48.2528 37.3964L47.8 37.5655L47.4873 37.7419L46.2546 38.7891L45.6782 39.0964L45.5655 39.2819L45.4473 39.6273L45.1091 39.9237L44.8128 40.0637L44.0782 40.2073L43.34 40.52L43.0073 40.3855L42.1473 40.4L41.6109 40.0219L40.5782 39.7818L40.2419 39.2309L39.7728 39.1946L39.4655 39.2109L39.2818 39.1273L39.2346 38.94L39.231 38.7582L38.9055 38.8418H38.6564L38.5073 38.9146L38.3891 38.9982L38.251 38.9455L38.1709 38.9637L38.1782 39.0709L37.8782 39.0982L37.5528 39.0328L36.7001 38.7473L36.5691 38.7037L35.9782 38.5928L35.7382 38.4782L35.5455 38.1964L35.3982 38.1073L35.311 38.0546L34.7582 38.1964L34.5673 38.4182L34.2673 38.6782L32.22 39.9491L31.8473 40.48L31.4146 41.2619L31.38 41.6255L31.5673 42.7873L31.9836 43.3964L32.0364 43.5364H31.8055L31.4182 43.46L31.0964 43.3655L30.791 43.4182L30.4964 43.5437L30.2382 43.62L30.0528 43.6418L29.9291 43.7146L29.8691 43.8601L29.8564 43.9619L29.5309 43.9364L28.7782 43.7273L28.1 43.5837L27.7019 43.7473L27.4473 43.9001L27.2673 43.8764L27.131 43.7164L27.04 43.5582L26.7746 43.4146L26.1764 43.1982L26.2073 43.0928L26.3091 42.9473L26.3055 42.8564L26.191 42.7219L25.64 42.5782L25.38 42.5419L25.2146 42.64L25.0964 42.7619L24.7891 42.3164L24.5709 42.2255L24.24 42.211L23.8618 42.0746L23.4691 41.9L22.5128 41.6219L22.2491 41.5891L22.1437 41.6328L22.0727 41.7982L22.0346 42.2673L21.9946 42.32L21.5509 42.3364L21.0036 42.2709L20.7527 42.3037L20.5291 42.3055L20.3182 42.1819L19.3745 42.3237L19.2182 42.2546L18.9909 42.0419L18.7364 41.8709L18.54 41.7782L18.3709 41.6782L18.2182 41.6619L17.9855 41.7601L17.6637 41.8019L17.3964 41.7891L17.2546 41.8037L16.6564 41.2819L16.5691 41.1382L16.2709 41.0982L15.9018 41.0928L14.9618 40.7546L14.5327 40.5728L14.4691 40.4655L14.4746 40.3782L14.4018 40.3964L14.2691 40.5509L14.2 40.6764L14.1091 40.7L13.9745 40.68L13.8491 40.6091L13.7727 40.5182L13.8546 40.3582L13.9982 40.1491L14.0582 39.9219L14.0454 39.7182L13.8073 39.5873L13.4582 39.5328L13.2018 39.5182L12.8673 39.4018L12.7091 39.3182L12.5564 39.091L12.5509 38.9255L13.1836 38.78L13.7545 38.1837L14.2945 36.0128L14.6855 33.4346L14.9763 32.9455L15.3418 32.8109L15.0455 32.4546L14.86 32.6346L14.7818 32.8255L14.6855 32.9218L14.9037 30.5437L15.06 29.6691L15.3255 28.7527L15.8673 29.1164L16.3164 29.4855L16.5491 29.8055L16.8436 30.8709L17.0655 31.0946L17.3982 31.3182L17.2673 31.0746L17.0382 30.8873L16.68 29.4673L16.4546 29.0637L16.1054 28.7237L14.98 28.0091L14.8782 27.8709L14.8236 27.5982L15.1964 27.6091L15.5182 27.7418L15.48 27.5891L15.3855 27.4291L15.2364 26.8473L15.1127 25.4873L15.1291 25.2546L15.0727 24.9691L14.7127 24.9055L14.4255 24.8946L14.1145 24.7818L12.58 23.9764L12.0545 23.1455L11.5182 22.5309L11.3891 22.2618L11.3982 21.9891L11.6764 21.4146L11.4309 21.0509L11.1909 20.9782L10.9818 20.7982L11.1709 20.4982L11.3273 20.3055L11.6418 20.2527L12.0545 20.3164L12.4454 20.4909L12.7527 20.5364L11.8455 20.0691L10.3746 20.2273L10.0582 20.1673L9.79089 20.0637L9.68547 19.72L9.89455 19.5655L10.0836 19.28L9.86908 19.0782L9.59093 19.0018L9.15453 19.0055L8.74908 19.0673L8.64543 18.9509L8.89275 18.6327L8.68184 18.5146L8.40179 18.5691L7.99452 18.6346L7.60545 18.5346L7.23636 18.1709L6.99271 18.1727L6.82547 18.2182L6.57634 18.0782L6.31456 18.0436L6.12729 18.0909L5.87816 17.8818L4.34727 17.4636L3.68544 17.4127L3.08363 17.6055L2.7491 17.54L2.50363 17.2691L2.29816 16.8146L1.32182 16.4636L1.51453 16.2327L1.96907 16.1782L2.49269 16.0182L2.68179 15.8127L2.27269 15.5745L1.9709 15.5164L1.84544 15.4309L1.71815 15.2164L1.89999 15.1182L2.02727 15.1709L2.39638 15.2018L3.02725 15.1491L2.79271 14.9327L2.54907 14.8836L2.43637 14.8291L1.92363 14.8054L1.69092 14.88L1.16728 14.8527L1.05453 14.6182L1 14.4182L1.16179 13.9709L1.89999 13.5709L3.73814 13.1327L4.52911 13.1964L5.07816 13.1182L5.73456 12.8418L6.02547 12.6055L6.95998 12.4655L7.84909 12.7164L8.6673 13.6654L9.0582 13.9873L10.0163 13.4291L11.4436 13.4455L11.7382 13.76L11.8564 13.4946L12.1182 13.1836L12.3273 13.3255L12.4327 13.5164L13.94 13.4618L14.1782 13.4055L13.7727 13.18L13.4418 12.64L13.3727 10.6455L12.9545 10.0873L12.4763 9.19454L12.2564 8.66364L12.2364 8.48001L12.3109 8.21453L12.9 8.2291L13.3545 8.29637L14.22 8.09637L14.6364 8.23273L14.6109 8.64727L14.7382 9.16909L14.8836 9.42181L15.1036 9.70909L15.8018 9.68182L16.5546 9.85091L17.5073 9.87635L18.8982 10.1673L19.4909 9.99817L20.0636 9.63818L21.1564 9.4018L21.2437 9.27635L20.6146 9.32726L20.0382 9.09999L19.96 8.85274L20.0273 8.6291L20.2618 8.11635L21.9346 7.30544L23.1328 7.06546L24.3837 6.61818L25.0128 6.16L25.4291 5.56727L25.5637 5.43635L25.7364 5.32726L25.5764 5.11455L25.6855 2.83816L25.8018 2.42725L26.0455 2.09089L26.4164 1.83091L26.98 1.54907L29.0564 1.15816L29.3654 1L29.4091 1.24544L29.56 1.55817L29.6636 1.72909L29.5782 1.9527L29.6473 2.13637L29.9291 2.46726L30.28 2.77818L30.5928 2.97818L30.6818 2.95635L30.9146 2.9L31.3073 2.69636L31.6346 2.63272L31.8219 2.78908L31.9273 2.87817L32.1327 3.23089L32.1909 3.59819L32.2818 3.90364L32.4491 4.02726L33.0746 4.06727L33.5364 4.17999L33.6582 4.28181L33.8164 4.95816L33.9019 5.05454L34.0164 4.97453L34.1292 4.86364L34.2873 4.84544L34.5582 4.88908L34.9146 4.90182L35.2819 4.97636L35.7891 5.35817L35.7691 5.48362L35.6691 5.70362L35.6346 5.87999L35.7218 5.9509L35.8564 6.13273L35.8237 6.3418L35.6928 6.48909L35.64 6.61091V6.68909L35.6873 6.75454L35.791 6.81272L36.5419 6.8909L37.2273 6.81272L37.66 6.59818L37.7346 6.37271L37.8564 6.11817L38.1146 5.90363L38.2927 5.83271L38.4564 5.91999L38.1818 6.81635L38.3819 7.04546L38.4109 7.38728L38.4819 7.68727L38.7273 7.6818L39.0237 7.73635L39.2346 7.84727L39.4801 8.02546L39.8346 8.18909L40.0837 8.24727L40.1746 8.38363L40.3746 8.54182L40.6909 8.87271L40.9746 9.09272H41.111L41.3746 9.00546L41.7655 8.94909L42.0746 8.95456L42.2055 9.12182L42.5091 9.2L42.6164 9.26181L42.7346 9.37817L42.9364 9.42364L43.1801 9.37817L43.3582 9.22364L43.5964 9.15456L43.8346 9.17819L43.971 9.26364L44.2327 9.3891L44.3801 9.36183L44.6746 9.43818L44.9709 9.68182L45.0964 9.92546L45.1291 10.06L45.2564 10.2054L45.7546 10.8618L45.9128 10.8946L46.0855 10.7945L46.1983 10.6527L46.3601 10.6255L46.6219 10.6909L46.7891 10.7654L46.8691 11.0491L46.9255 11.1036L47.0382 11.0418L47.2401 11.0291L47.5619 11.1L48.0037 11.02L48.3564 10.9018L48.5364 10.9055L48.8273 11.2364L49.1601 11.36L49.8928 11.46L50.6801 11.6164L50.9891 11.7418L51.2 11.8037L51.2219 12.2418L51.1582 12.3073L50.3746 13.1836L50.0437 13.4964L49.8764 13.9418L49.7601 14.6255L49.5292 15.2727L49.1819 15.8873L49.0564 16.3473L49.151 16.6546L49.0909 17.1364L48.8783 17.7909L48.8418 18.2855L48.9819 18.6182L49.1855 18.6782Z" fill="#808080" stroke="white" stroke-width="0.25" stroke-linecap="round" stroke-linejoin="round"/>
</svg>
