<svg width="177" height="271" viewBox="0 0 177 271" fill="none" xmlns="http://www.w3.org/2000/svg">
<rect x="82" width="2" height="4" fill="#D9D9D9"/>
<rect x="98" width="2" height="4" fill="#D9D9D9"/>
<rect x="71" y="6" width="7" height="3" fill="#D9D9D9"/>
<rect x="104" y="6" width="7" height="3" fill="#D9D9D9"/>
<rect x="82" y="7" width="1" height="1" fill="#D9D9D9"/>
<rect x="99" y="7" width="1" height="1" fill="#D9D9D9"/>
<rect x="83" y="8" width="1" height="1" fill="#D9D9D9"/>
<rect x="98" y="8" width="1" height="1" fill="#D9D9D9"/>
<rect x="84" y="9" width="1" height="1" fill="#D9D9D9"/>
<rect x="97" y="9" width="1" height="1" fill="#D9D9D9"/>
<rect x="85" y="10" width="1" height="1" fill="#D9D9D9"/>
<rect x="86" y="10" width="1" height="1" fill="#D9D9D9"/>
<rect x="87" y="10" width="1" height="1" fill="#D9D9D9"/>
<rect x="88" y="10" width="1" height="1" fill="#D9D9D9"/>
<rect x="89" y="10" width="1" height="1" fill="#D9D9D9"/>
<rect x="90" y="10" width="1" height="1" fill="#D9D9D9"/>
<rect x="91" y="10" width="1" height="1" fill="#D9D9D9"/>
<rect x="92" y="10" width="1" height="1" fill="#D9D9D9"/>
<rect x="93" y="10" width="1" height="1" fill="#D9D9D9"/>
<rect x="94" y="10" width="1" height="1" fill="#D9D9D9"/>
<rect x="95" y="10" width="1" height="1" fill="#D9D9D9"/>
<rect x="96" y="10" width="1" height="1" fill="#D9D9D9"/>
<rect y="226" width="177" height="45" rx="10" fill="#D9D9D9"/>
<path d="M28.52 255.24C27.44 255.24 26.5133 254.973 25.74 254.44C24.9667 253.893 24.3733 253.133 23.96 252.16C23.56 251.187 23.36 250.053 23.36 248.76C23.36 247.707 23.4733 246.813 23.7 246.08C23.94 245.333 24.2533 244.713 24.64 244.22C25.0267 243.727 25.4467 243.34 25.9 243.06C26.3667 242.78 26.8267 242.587 27.28 242.48C27.7333 242.36 28.1467 242.3 28.52 242.3C29.0933 242.3 29.64 242.387 30.16 242.56C30.68 242.72 31.1467 242.967 31.56 243.3C31.9867 243.62 32.3333 244.027 32.6 244.52L31.06 246.18L30.94 246.32L30.76 246.16C30.7467 246.053 30.7267 245.947 30.7 245.84C30.6867 245.733 30.6133 245.593 30.48 245.42C30.36 245.273 30.22 245.14 30.06 245.02C29.9 244.9 29.7 244.8 29.46 244.72C29.2333 244.64 28.9533 244.6 28.62 244.6C28.3667 244.6 28.12 244.647 27.88 244.74C27.64 244.833 27.4133 244.987 27.2 245.2C27 245.4 26.82 245.66 26.66 245.98C26.5 246.287 26.3733 246.66 26.28 247.1C26.2 247.54 26.16 248.047 26.16 248.62C26.16 249.38 26.22 250.033 26.34 250.58C26.46 251.127 26.62 251.58 26.82 251.94C27.0333 252.3 27.2867 252.567 27.58 252.74C27.8733 252.913 28.1867 253 28.52 253C28.6667 253 28.8067 252.993 28.94 252.98C29.0733 252.953 29.2067 252.927 29.34 252.9C29.4733 252.86 29.6 252.807 29.72 252.74C29.84 252.66 29.9667 252.573 30.1 252.48V250.6H28.18V248.3H32.62V253.94C32.02 254.433 31.3667 254.773 30.66 254.96C29.9667 255.147 29.2533 255.24 28.52 255.24ZM37.98 255.24C37.14 255.24 36.3733 255.04 35.68 254.64C34.9867 254.227 34.4333 253.647 34.02 252.9C33.6067 252.153 33.4 251.287 33.4 250.3C33.4 249.38 33.6067 248.547 34.02 247.8C34.4333 247.053 34.9867 246.46 35.68 246.02C36.3733 245.58 37.14 245.36 37.98 245.36C38.82 245.36 39.5867 245.58 40.28 246.02C40.9867 246.46 41.5467 247.053 41.96 247.8C42.3867 248.547 42.6 249.38 42.6 250.3C42.6 251.273 42.3867 252.133 41.96 252.88C41.5467 253.627 40.9867 254.207 40.28 254.62C39.5867 255.033 38.82 255.24 37.98 255.24ZM37.98 253.02C38.34 253.02 38.6533 252.907 38.92 252.68C39.2 252.453 39.42 252.14 39.58 251.74C39.74 251.327 39.82 250.847 39.82 250.3C39.82 249.713 39.74 249.22 39.58 248.82C39.42 248.42 39.2 248.113 38.92 247.9C38.6533 247.687 38.34 247.58 37.98 247.58C37.6467 247.58 37.34 247.687 37.06 247.9C36.7933 248.113 36.58 248.42 36.42 248.82C36.26 249.22 36.18 249.713 36.18 250.3C36.18 250.847 36.2533 251.327 36.4 251.74C36.56 252.14 36.7733 252.453 37.04 252.68C37.32 252.907 37.6333 253.02 37.98 253.02ZM58.98 255.24C58.4867 255.24 58.0333 255.16 57.62 255C57.2067 254.853 56.8533 254.6 56.56 254.24C56.2667 253.867 56.0467 253.36 55.9 252.72C55.7533 252.08 55.7 251.267 55.74 250.28L56.02 243.48L58.9 243.1L59.08 243.08L59.1 243.3C59.0467 243.393 58.9933 243.487 58.94 243.58C58.8867 243.673 58.8533 243.833 58.84 244.06L58.6 247.14H58.72L58.56 250.14C58.52 250.9 58.5467 251.493 58.64 251.92C58.7467 252.333 58.8933 252.62 59.08 252.78C59.28 252.94 59.4867 253.02 59.7 253.02C60.1133 253.02 60.4867 252.933 60.82 252.76C61.1667 252.587 61.4667 252.393 61.72 252.18L62.2 254.16C61.7467 254.493 61.2533 254.76 60.72 254.96C60.2 255.147 59.62 255.24 58.98 255.24ZM54.02 245.58H61.58L61.54 247.78H53.98L54.02 245.58ZM67.98 255.24C67.14 255.24 66.3733 255.04 65.68 254.64C64.9867 254.227 64.4333 253.647 64.02 252.9C63.6067 252.153 63.4 251.287 63.4 250.3C63.4 249.38 63.6067 248.547 64.02 247.8C64.4333 247.053 64.9867 246.46 65.68 246.02C66.3733 245.58 67.14 245.36 67.98 245.36C68.82 245.36 69.5867 245.58 70.28 246.02C70.9867 246.46 71.5467 247.053 71.96 247.8C72.3867 248.547 72.6 249.38 72.6 250.3C72.6 251.273 72.3867 252.133 71.96 252.88C71.5467 253.627 70.9867 254.207 70.28 254.62C69.5867 255.033 68.82 255.24 67.98 255.24ZM67.98 253.02C68.34 253.02 68.6533 252.907 68.92 252.68C69.2 252.453 69.42 252.14 69.58 251.74C69.74 251.327 69.82 250.847 69.82 250.3C69.82 249.713 69.74 249.22 69.58 248.82C69.42 248.42 69.2 248.113 68.92 247.9C68.6533 247.687 68.34 247.58 67.98 247.58C67.6467 247.58 67.34 247.687 67.06 247.9C66.7933 248.113 66.58 248.42 66.42 248.82C66.26 249.22 66.18 249.713 66.18 250.3C66.18 250.847 66.2533 251.327 66.4 251.74C66.56 252.14 66.7733 252.453 67.04 252.68C67.32 252.907 67.6333 253.02 67.98 253.02ZM83.5 255V245.58H85.78V246.12C85.94 245.92 86.1 245.767 86.26 245.66C86.42 245.553 86.58 245.48 86.74 245.44C86.9133 245.387 87.08 245.36 87.24 245.36C87.44 245.36 87.6333 245.387 87.82 245.44C88.0067 245.493 88.1867 245.593 88.36 245.74C88.5333 245.873 88.68 246.08 88.8 246.36C88.96 246.107 89.1267 245.913 89.3 245.78C89.4733 245.633 89.6733 245.527 89.9 245.46C90.14 245.393 90.4067 245.36 90.7 245.36C91.06 245.36 91.36 245.427 91.6 245.56C91.8533 245.68 92.06 245.86 92.22 246.1C92.38 246.34 92.4933 246.64 92.56 247C92.64 247.36 92.68 247.773 92.68 248.24V255H90.3V248.7C90.3 248.393 90.2867 248.147 90.26 247.96C90.2467 247.76 90.2133 247.613 90.16 247.52C90.12 247.427 90.0467 247.38 89.94 247.38C89.82 247.38 89.7 247.44 89.58 247.56C89.46 247.667 89.36 247.847 89.28 248.1C89.2133 248.34 89.18 248.667 89.18 249.08V255H87V248.72C87 248.147 86.9667 247.767 86.9 247.58C86.8333 247.393 86.7267 247.3 86.58 247.3C86.4733 247.3 86.3733 247.333 86.28 247.4C86.2 247.467 86.1267 247.573 86.06 247.72C86.0067 247.853 85.96 248.027 85.92 248.24C85.8933 248.44 85.88 248.673 85.88 248.94V255H83.5ZM95.5 258.54C95.0467 258.54 94.6467 258.46 94.3 258.3C93.9533 258.14 93.5867 257.913 93.2 257.62L94.1 255.68L94.16 255.52L94.36 255.6C94.4133 255.693 94.4667 255.793 94.52 255.9C94.5733 256.007 94.6867 256.127 94.86 256.26C94.94 256.313 95.0267 256.353 95.12 256.38C95.2267 256.407 95.3333 256.42 95.44 256.42C95.6533 256.42 95.84 256.353 96 256.22C96.16 256.1 96.3133 255.907 96.46 255.64C96.6067 255.373 96.76 255.02 96.92 254.58L99.12 248.66C99.32 248.113 99.4733 247.6 99.58 247.12C99.6867 246.627 99.74 246.113 99.74 245.58H102.28C102.267 246.18 102.133 246.827 101.88 247.52C101.64 248.2 101.407 248.84 101.18 249.44L98.86 255.66C98.46 256.727 97.9867 257.473 97.44 257.9C96.8933 258.327 96.2467 258.54 95.5 258.54ZM93.42 245.58H96.2L98.78 252.34L97.24 255.18L93.42 245.58ZM117.4 255.24C116.853 255.24 116.34 255.14 115.86 254.94C115.393 254.727 114.98 254.413 114.62 254C114.273 253.587 114 253.073 113.8 252.46C113.6 251.833 113.5 251.107 113.5 250.28C113.5 249.493 113.587 248.793 113.76 248.18C113.947 247.567 114.207 247.053 114.54 246.64C114.887 246.213 115.3 245.893 115.78 245.68C116.26 245.467 116.793 245.36 117.38 245.36C117.62 245.36 117.86 245.38 118.1 245.42C118.353 245.46 118.587 245.533 118.8 245.64C119.013 245.747 119.193 245.913 119.34 246.14V241.5H122.18H122.36V241.72C122.293 241.8 122.247 241.887 122.22 241.98C122.193 242.073 122.187 242.233 122.2 242.46L122.16 253.88C122.16 254.067 122.173 254.253 122.2 254.44C122.227 254.627 122.287 254.813 122.38 255H119.62C119.553 254.867 119.507 254.773 119.48 254.72C119.453 254.667 119.44 254.607 119.44 254.54C119.44 254.473 119.44 254.38 119.44 254.26C119.28 254.5 119.093 254.693 118.88 254.84C118.667 254.987 118.433 255.087 118.18 255.14C117.927 255.207 117.667 255.24 117.4 255.24ZM117.9 253.04C118.127 253.04 118.327 252.993 118.5 252.9C118.687 252.807 118.84 252.66 118.96 252.46C119.093 252.247 119.193 251.96 119.26 251.6C119.327 251.24 119.36 250.8 119.36 250.28C119.36 249.587 119.307 249.04 119.2 248.64C119.093 248.227 118.927 247.933 118.7 247.76C118.487 247.587 118.213 247.5 117.88 247.5C117.627 247.5 117.393 247.567 117.18 247.7C116.98 247.833 116.813 248.027 116.68 248.28C116.547 248.52 116.44 248.82 116.36 249.18C116.293 249.527 116.26 249.92 116.26 250.36C116.26 250.933 116.347 251.42 116.52 251.82C116.693 252.22 116.907 252.527 117.16 252.74C117.413 252.94 117.66 253.04 117.9 253.04ZM128.4 255.24C127.733 255.24 127.107 255.133 126.52 254.92C125.947 254.693 125.44 254.373 125 253.96C124.573 253.547 124.24 253.04 124 252.44C123.76 251.827 123.64 251.14 123.64 250.38C123.64 249.607 123.753 248.913 123.98 248.3C124.22 247.673 124.54 247.147 124.94 246.72C125.353 246.28 125.833 245.947 126.38 245.72C126.927 245.48 127.52 245.36 128.16 245.36C128.707 245.36 129.227 245.46 129.72 245.66C130.227 245.86 130.673 246.16 131.06 246.56C131.447 246.947 131.753 247.433 131.98 248.02C132.207 248.593 132.32 249.253 132.32 250C132.32 250.16 132.32 250.36 132.32 250.6C132.32 250.84 132.313 251.033 132.3 251.18H126.36C126.387 251.513 126.467 251.8 126.6 252.04C126.733 252.267 126.9 252.46 127.1 252.62C127.313 252.767 127.54 252.88 127.78 252.96C128.033 253.027 128.287 253.06 128.54 253.06C128.807 253.06 129.06 253.04 129.3 253C129.54 252.96 129.773 252.887 130 252.78C130.227 252.66 130.447 252.493 130.66 252.28L132.06 253.64C131.74 254.013 131.387 254.32 131 254.56C130.613 254.8 130.2 254.973 129.76 255.08C129.32 255.187 128.867 255.24 128.4 255.24ZM126.38 249.1H129.64C129.64 248.833 129.607 248.607 129.54 248.42C129.473 248.22 129.373 248.06 129.24 247.94C129.107 247.807 128.94 247.713 128.74 247.66C128.54 247.593 128.313 247.56 128.06 247.56C127.833 247.56 127.62 247.593 127.42 247.66C127.233 247.713 127.067 247.807 126.92 247.94C126.773 248.06 126.653 248.22 126.56 248.42C126.467 248.607 126.407 248.833 126.38 249.1ZM138.3 255.24C137.687 255.24 137.1 255.187 136.54 255.08C135.993 254.987 135.487 254.833 135.02 254.62C134.553 254.393 134.127 254.1 133.74 253.74L134.86 251.58L134.94 251.42L135.12 251.52C135.16 251.613 135.2 251.72 135.24 251.84C135.293 251.947 135.4 252.073 135.56 252.22C135.933 252.5 136.34 252.713 136.78 252.86C137.233 253.007 137.747 253.08 138.32 253.08C138.613 253.08 138.86 253.047 139.06 252.98C139.273 252.913 139.433 252.827 139.54 252.72C139.66 252.6 139.72 252.473 139.72 252.34C139.72 252.207 139.673 252.093 139.58 252C139.5 251.907 139.373 251.827 139.2 251.76C139.04 251.68 138.827 251.6 138.56 251.52C138.293 251.44 137.98 251.353 137.62 251.26C136.953 251.087 136.373 250.873 135.88 250.62C135.4 250.367 135.027 250.053 134.76 249.68C134.493 249.293 134.36 248.833 134.36 248.3C134.36 247.753 134.527 247.26 134.86 246.82C135.193 246.38 135.647 246.027 136.22 245.76C136.807 245.493 137.473 245.36 138.22 245.36C138.58 245.36 138.933 245.393 139.28 245.46C139.64 245.513 139.98 245.6 140.3 245.72C140.62 245.827 140.927 245.973 141.22 246.16C141.513 246.333 141.787 246.54 142.04 246.78L140.74 248.68L140.62 248.84L140.44 248.7C140.427 248.593 140.393 248.493 140.34 248.4C140.3 248.307 140.2 248.187 140.04 248.04C139.787 247.867 139.507 247.747 139.2 247.68C138.907 247.6 138.593 247.56 138.26 247.56C137.873 247.56 137.533 247.62 137.24 247.74C136.947 247.86 136.8 248.04 136.8 248.28C136.8 248.44 136.88 248.573 137.04 248.68C137.2 248.787 137.433 248.887 137.74 248.98C138.06 249.06 138.453 249.153 138.92 249.26C139.667 249.42 140.28 249.64 140.76 249.92C141.24 250.187 141.593 250.513 141.82 250.9C142.06 251.287 142.18 251.733 142.18 252.24C142.18 252.773 142.027 253.273 141.72 253.74C141.413 254.193 140.967 254.56 140.38 254.84C139.807 255.107 139.113 255.24 138.3 255.24ZM147.16 251.02L146.7 251.5V255H143.86V241.5H146.68H146.86V241.72C146.793 241.8 146.747 241.887 146.72 241.98C146.707 242.073 146.7 242.233 146.7 242.46V248.4L149.6 245.48C149.72 245.507 149.853 245.533 150 245.56C150.147 245.573 150.293 245.587 150.44 245.6C150.587 245.613 150.72 245.627 150.84 245.64C150.973 245.64 151.073 245.64 151.14 245.64H152.6L149 249.28L153 254.98L149.96 255.08L147.16 251.02Z" fill="white"/>
</svg>
