<svg width="866" height="677" viewBox="0 0 866 677" fill="none" xmlns="http://www.w3.org/2000/svg">
<path d="M297.842 436.572C297.842 421.733 293 396.333 293 388C301.459 400.097 321.989 420.443 341.675 436.572C366.284 456.734 416.269 471.25 461.64 447.056C497.937 427.701 522.335 395.522 529 384.5C528.744 392.833 527.006 418.185 530.082 431.733C533.158 445.282 542.642 466.949 547 476.089C521.879 496.788 461.487 538.348 420.883 538.993C380.28 539.638 312.71 497.325 284 476.089C288.614 469.099 297.842 451.411 297.842 436.572Z" fill="#F8DDD3" stroke="black"/>
<path d="M516.542 84.7659C498.691 64.4442 437.803 58.3374 409.59 57.8242C308.793 57.8242 285.71 94.7728 277.246 121.714C270.475 143.268 271.347 206.132 272.629 234.869C271.347 231.79 268.013 225.324 264.935 224.093C261.088 222.553 241.869 217.836 247.001 243.5C251.5 266 255 296.5 272.629 300.299C272.373 313.898 274.076 346.294 279 366C285.156 390.632 324.182 429.619 340.34 439.626C356.498 449.633 391.123 472.726 443.445 458.1C495.767 443.475 533.719 391.659 539.5 372C544.203 356.005 547.833 317.491 548.089 306.457C551.68 302.095 560.111 302.5 563.4 290.983C564.939 285.595 574.942 271.739 576.481 263.272C578.02 254.804 582.501 236.671 568.095 234.869C563.17 234.254 554.758 244.876 551.167 250.265C552.706 238.462 555.476 209.159 554.245 186.374C552.706 157.893 538.856 110.168 516.542 84.7659Z" fill="#F8DDD3" stroke="black"/>
<path d="M339.086 207.021C327.419 205.794 285.609 210.6 266.162 213.157V229.265H273.838C274.862 240.769 279.058 266.233 287.656 276.051C298.402 288.322 312.987 289.089 339.086 289.089C365.186 289.089 379.003 287.555 386.679 278.352C392.82 270.989 398.961 244.604 401.264 232.332H395.123C394.355 237.701 392.359 249.82 390.517 255.342C388.214 262.245 384.376 276.051 375.165 280.653C363.65 286.405 306.846 290.623 295.332 278.352C283.817 266.08 280.747 243.837 279.979 237.701C279.212 231.565 278.444 220.828 286.12 216.226C293.797 211.624 329.107 209.323 336.784 210.09C344.46 210.857 372.862 214.692 382.073 218.527C389.443 221.595 393.844 228.498 395.123 231.565H421.99H428.898C429.41 230.543 430.741 228.037 431.969 226.197C433.504 223.896 471.885 216.993 491.076 216.993C506.428 216.993 531.248 226.197 541.739 230.798C541.995 233.355 541.739 242.61 538.669 259.177C534.831 279.886 524.084 289.089 516.408 290.623C508.731 292.157 466.512 294.458 454.23 287.555C441.948 280.653 438.11 273.75 434.272 263.779C431.201 255.802 429.41 239.491 428.898 232.332H421.99C422.246 239.235 424.293 256.876 430.434 272.216C438.11 291.39 460.371 295.992 487.238 296.759C514.105 297.526 527.922 291.39 532.528 284.487C536.212 278.965 543.274 255.598 546.345 244.604L556.324 241.536L560.162 225.43H550.183H546.345C533.807 221.083 504.893 212.544 489.541 213.158C470.35 213.925 438.11 220.828 431.969 221.595C425.828 222.362 394.355 220.061 390.517 218.527C386.679 216.993 353.671 208.555 339.086 207.021Z" fill="black" stroke="black"/>
<path d="M310.162 389.824C315.789 396.837 328.425 412.889 333.95 420.993C339.475 429.097 347.506 436.318 350.831 438.915M498.162 409.305C493.558 415.019 482.662 427.694 475.909 432.681C469.156 437.668 457.237 446.188 452.121 449.824" stroke="black"/>
<path d="M396.86 249.824C396.859 270.788 391.336 313.182 393.791 321.257C396.86 331.351 398.395 336.786 408.367 340.668C416.345 343.774 422.943 339.892 425.244 337.563L432.148 329.798C433.682 328.245 437.135 327.469 440.587 329.798C442.888 331.351 445.113 332.127 449.025 332.127C453.628 332.127 455.162 327.469 455.162 321.257C455.162 313.891 449.025 307.281 442.888 305.728C436.751 304.175 432.148 295.635 432.148 291.752" stroke="black"/>
<path d="M388.072 296.824C382.38 298.099 370.841 303.401 370.22 314.412C369.599 325.424 374.101 328.177 376.43 328.177C379.017 327.158 384.968 325.73 388.072 328.177C391.953 331.236 395.057 334.295 398.162 335.824" stroke="black"/>
<path d="M346.381 227C364.5 225.5 374.319 232.546 380.983 235.65C380.214 237.46 375.6 240.615 372.525 241.857C368.68 243.409 360.991 245.737 346.381 246.513C334.694 247.133 322.032 244.185 317.162 242.633C318.444 239.271 330.251 228.335 346.381 227Z" fill="white"/>
<path d="M464.796 235.65C459.874 236.891 453.005 241.34 450.955 243.409C452.236 244.961 457.106 248.84 459.413 250.392C466.333 255.048 478.636 255.824 488.632 255.824C496.629 255.824 504.78 252.203 510.162 251.168C505.036 247.806 497.552 241.857 490.17 238.753C480.943 234.874 470.947 234.097 464.796 235.65Z" fill="white"/>
<path d="M346.381 227C364.5 225.5 374.319 232.546 380.983 235.65C380.214 237.46 375.6 240.615 372.525 241.857C368.68 243.409 360.991 245.737 346.381 246.513C334.694 247.133 322.032 244.185 317.162 242.633C318.444 239.271 330.251 228.335 346.381 227Z" stroke="black"/>
<path d="M464.796 235.65C459.874 236.891 453.005 241.34 450.955 243.409C452.236 244.961 457.106 248.84 459.413 250.392C466.333 255.048 478.636 255.824 488.632 255.824C496.629 255.824 504.78 252.203 510.162 251.168C505.036 247.806 497.552 241.857 490.17 238.753C480.943 234.874 470.947 234.097 464.796 235.65Z" stroke="black"/>
<path d="M486.575 199.314C478.039 202.345 449.481 213.715 436.27 219.021C433.221 223.568 437.032 224.326 440.843 223.568C444.654 222.81 488.1 214.473 493.435 214.473C498.77 214.473 517.063 219.02 517.825 218.262C518.435 217.656 518.079 215.483 517.825 214.473C515.031 210.178 509.136 201.436 507.917 200.83C506.392 200.072 497.246 195.524 486.575 199.314Z" fill="#424242" stroke="black"/>
<path d="M338.235 192.129C348.147 193.362 374.888 204.463 387.02 209.859C390.892 211.557 391.667 213.713 390.892 214.484C390.273 215.1 388.053 214.741 387.02 214.484C370.758 212.171 337.305 207.546 333.588 207.546C328.942 207.546 308.808 212.942 306.485 212.942C304.627 212.942 304.162 210.886 304.162 209.859C305.711 207.546 309.738 202.15 313.455 199.066C318.101 195.212 325.845 190.587 338.235 192.129Z" fill="#424242" stroke="black"/>
<path d="M338.501 237.5C339.092 241.101 341.739 243.579 343.711 244.829C345.189 245.579 348.887 246.179 351.845 245.579C355.542 244.829 358.001 240.091 358 237C358 233.674 357.5 227.5 347.5 227.5C340.845 227.5 337.461 231.173 338.501 237.5Z" fill="black" stroke="black"/>
<path d="M470.958 238.083C468.245 240.008 467.567 245.3 468.244 247.706C468.922 250.111 470.551 254.281 477.063 254.923C485.202 255.725 488.594 250.111 487.916 246.102C487.237 242.093 485.202 237.281 480.454 236.48C475.706 235.678 474.35 235.677 470.958 238.083Z" fill="black" stroke="black"/>
<path d="M372.5 227C362.07 223.786 356.88 220.632 340.5 223.5C325 226.214 314.5 237.5 307.5 243.931M456 234C463.606 230.853 471.27 228.075 485 231.5C492.411 233.348 512.383 249.918 516.5 253M377.922 243.931C369.43 247.782 356.306 253.945 348.586 253.945C338.55 253.945 320.022 251.634 318.478 250.864M451.262 250.864C456.666 254.201 469.945 261.34 479.826 263.188C489.708 265.037 503.501 262.418 509.162 260.877" stroke="black"/>
<path d="M357.208 316.824C353.344 321.483 344.689 332.354 340.98 338.565C337.271 344.777 332.223 358.754 330.162 364.965M464.617 325.365C467.192 329.507 473.426 339.808 477.753 347.883C482.08 355.958 483.162 374.542 483.162 382.824" stroke="black"/>
<path d="M383.035 367.916C376.243 367.916 359.219 367.916 352.162 364.824C356.278 366.628 365.9 374.255 371.457 377.965C378.404 382.603 383.806 391.106 407.733 392.652C431.659 394.198 436.29 384.922 444.008 381.83C450.182 379.356 462.531 373.327 467.162 371.781C455.585 374.873 440.766 371.781 433.974 371.781C425.484 371.781 418.538 375.646 410.048 374.873C401.558 374.1 391.525 367.916 383.035 367.916Z" fill="#E4C0C0" stroke="black"/>
<path d="M357.162 366.824C363.568 368.609 377.608 372.483 382.528 373.707C388.677 375.236 402.513 379.824 409.431 379.824C416.349 379.824 429.416 377.53 434.028 376.765C437.717 376.154 452.988 373.961 460.162 372.942" stroke="black"/>
<path d="M270.103 250.015C268.574 245.594 264.903 237.22 262.456 239.093C259.397 241.433 259.397 250.795 262.456 254.696C265.515 258.596 268.574 266.398 268.574 269.519C268.574 272.639 267.044 276.54 270.103 278.1C272.55 279.349 273.162 272.899 273.162 269.519V296.824" stroke="black"/>
<path d="M553.843 258.588C555.575 254.19 560.079 245.705 564.236 246.947C569.433 248.499 568.69 254.708 566.463 258.588C564.236 262.468 556.07 268.677 556.07 272.557C556.07 276.438 556.07 282.646 551.616 283.422C548.053 284.043 547.162 282.129 547.162 281.094L547.904 302.824" stroke="black"/>
<path d="M192.316 487.281C183.687 487.281 131.772 499.5 121.5 499.5C79.898 499.5 65.9689 510.396 37.4638 547.38C14.6597 576.967 -1.32462 646.004 1.50021 676.824H864.5C862.189 649.086 833.757 585.905 807.872 555.085C775.514 516.56 727.482 511.854 714.5 507.5C693.822 500.565 680.754 494.216 672.28 491.904C663.805 489.593 659.183 487.281 649.168 482.658C639.152 478.035 629.137 481.117 619.892 478.806C610.647 476.494 613.729 474.183 599.861 464.166C585.994 454.15 559.8 455.691 553.637 453.379C547.474 451.068 548.244 448.756 545.163 432.576C542.081 416.395 535.918 399.444 533.606 400.985C531.295 402.526 513.576 437.199 508.953 444.904C504.331 452.609 483 469 471.203 471.101C461.343 472.857 438.076 477.265 424.209 477.265C410.341 477.265 383.377 474.953 368.739 471.101C354.101 467.248 323.285 444.133 318.663 437.969C314.04 431.806 298.632 406.378 295.55 402.526C293.085 399.444 290.414 401.242 289.387 402.526C288.617 413.57 286.46 437.353 283.994 444.133C280.913 452.608 242.392 461.084 235.459 465.707C228.525 470.33 203.101 487.281 192.316 487.281Z" fill="black" stroke="black"/>
<path d="M421.962 611.959C421.322 605.782 418.495 519.295 417.162 476.824H430.762C431.829 489.179 433.962 515.743 433.962 523.156C433.962 532.423 437.162 591.11 437.162 605.782C437.162 617.519 435.029 658.034 433.962 676.824H419.562C420.362 668.845 421.962 651.342 421.962 645.164C421.962 637.442 422.762 619.681 421.962 611.959Z" fill="#424242" stroke="#808080"/>
<path d="M423.162 477.824C424.718 495.801 427.829 535.606 427.829 551.015C427.829 570.276 430.162 601.863 430.162 611.879C430.162 619.891 427.57 657.848 426.273 675.824" stroke="#808080"/>
<path d="M431.315 482.202C429.424 479.707 423.176 481.162 420.288 482.202C419.028 484.073 419.763 490.261 420.288 493.121C418.713 493.121 415.562 493.745 415.562 496.241C415.562 499.36 412.412 528.216 415.562 534.455C418.713 540.694 433.677 536.795 435.253 534.455C436.828 532.115 436.04 510.279 435.253 503.26C434.623 497.644 432.365 494.161 431.315 493.121C432.102 490.521 433.205 484.698 431.315 482.202Z" fill="#808080" stroke="black"/>
<path d="M421.485 521.688C419.089 522.286 420.487 526.921 421.485 529.164C421.984 529.662 424.03 530.36 428.222 529.164C433.461 527.669 431.964 523.183 431.964 521.688C431.964 520.192 424.479 520.94 421.485 521.688Z" stroke="black"/>
<path d="M428.547 502.154C427.89 501.557 423.897 501.905 421.983 502.154C421.162 502.252 421.162 507.382 421.162 511.116C421.162 514.85 427.726 515.597 428.547 514.103C429.367 512.609 429.367 502.901 428.547 502.154Z" stroke="black"/>
<path d="M420.162 493.074C421.734 492.824 425.191 492.324 426.448 492.324C427.705 492.324 430.114 493.324 431.162 493.824M424.876 491.574L425.662 481.824H428.019L427.234 492.324" stroke="black"/>
<path d="M549.166 456.13C542.493 468.427 525.449 495.636 510.665 506.088C495.88 516.541 454.196 532.477 435.202 539.138M278.116 453.824C283.506 459.973 302.757 488.411 329.708 506.088C351.269 520.231 397.727 534.014 418.261 539.138M201.113 494.56C207.529 505.064 221.441 530.222 225.754 546.824C231.144 567.576 233.454 588.328 241.924 593.708C250.395 599.088 257.325 586.022 256.555 576.799C255.785 567.576 252.705 523.766 241.924 513.006C233.3 504.398 227.55 485.849 225.754 477.651M562.257 477.651C559.947 490.717 554.095 522.844 549.166 546.824C543.006 576.799 522.215 646.741 526.065 656.733C529.916 666.724 539.926 653.658 544.546 641.361C549.166 629.063 563.027 507.626 575.347 513.006C587.668 518.386 584.588 581.411 599.218 584.485C613.849 587.559 616.159 526.84 607.689 513.006C600.912 501.938 595.112 476.113 593.058 464.585M620.009 485.337C619.753 498.915 620.625 527.763 626.169 534.526C633.1 542.981 637.72 530.683 637.72 518.386C637.72 506.088 636.95 486.874 640.03 486.105C643.11 485.337 661.591 489.948 666.981 518.386C672.371 546.824 663.131 625.989 651.58 641.361C642.34 653.658 640.03 666.468 640.03 671.336C650.297 674.666 672.371 674.564 678.532 647.509C684.692 620.455 690.852 600.369 693.162 593.708M177.242 641.361C176.985 600.113 172.929 515.312 158.761 506.088C141.05 494.56 137.97 511.469 139.51 518.386C141.05 525.303 158.761 625.989 158.761 641.361C158.761 653.658 152.6 666.468 149.52 671.336" stroke="#D9D9D9"/>
<path d="M297.776 109.862C274.991 138.762 272.631 198.765 274.683 228.229C275.031 234.377 273.144 238.221 273.144 235.146C273.144 232.072 260.519 153.585 261.289 145.13C262.058 136.675 264.427 93.9997 288.999 67.4997C308.243 46.7468 348.612 22.0744 354 18.9999C359.388 15.9255 379.612 4.30607 385 2.00023C390.388 -0.305621 398.5 5.50046 423 8.49992C450.548 11.8725 510.994 25.3137 544.093 80.654C577.192 135.994 564.876 202.095 561.028 225.154C557.949 243.601 552.047 251.287 549.481 252.824C549.225 230.534 547.788 187.799 544.093 170.582C539.475 149.061 521.771 81.4226 483.284 80.654C444.797 79.8854 444.797 102.944 417.086 102.944C389.375 102.944 353.967 78.3486 347.039 78.3486C340.112 78.3486 326.256 73.7369 297.776 109.862Z" fill="#424242" stroke="black"/>
</svg>
