<svg width="204" height="20" viewBox="0 0 204 20" fill="none" xmlns="http://www.w3.org/2000/svg">
<rect x="0.5" y="0.5" width="203" height="19" stroke="black"/>
<path d="M5.6 5.524H6.464H6.584V5.608C6.536 5.656 6.504 5.708 6.488 5.764C6.48 5.82 6.476 5.916 6.476 6.052V8.716H9.404V5.524H10.268H10.388V5.608C10.34 5.656 10.308 5.708 10.292 5.764C10.284 5.82 10.28 5.916 10.28 6.052V13H9.392V9.436H6.476V13H5.6V5.524ZM13.652 13.132C13.436 13.132 13.232 13.1 13.04 13.036C12.848 12.972 12.672 12.876 12.512 12.748C12.36 12.612 12.228 12.444 12.116 12.244C12.004 12.044 11.916 11.804 11.852 11.524C11.796 11.244 11.768 10.928 11.768 10.576L11.78 7.516H12.62V10.576C12.62 10.92 12.652 11.212 12.716 11.452C12.78 11.692 12.868 11.884 12.98 12.028C13.1 12.172 13.236 12.276 13.388 12.34C13.54 12.404 13.7 12.436 13.868 12.436C14.06 12.436 14.244 12.4 14.42 12.328C14.596 12.248 14.752 12.132 14.888 11.98C15.032 11.828 15.144 11.632 15.224 11.392C15.304 11.152 15.344 10.868 15.344 10.54V7.516H16.184V12.148C16.184 12.292 16.188 12.436 16.196 12.58C16.212 12.716 16.248 12.856 16.304 13H15.476C15.436 12.904 15.408 12.812 15.392 12.724C15.376 12.628 15.364 12.532 15.356 12.436C15.356 12.34 15.356 12.248 15.356 12.16C15.268 12.312 15.164 12.448 15.044 12.568C14.924 12.688 14.788 12.792 14.636 12.88C14.492 12.96 14.336 13.02 14.168 13.06C14.008 13.108 13.836 13.132 13.652 13.132ZM17.456 13V7.516H18.248V8.056C18.336 7.92 18.436 7.804 18.548 7.708C18.668 7.604 18.796 7.524 18.932 7.468C19.076 7.412 19.22 7.384 19.364 7.384C19.524 7.384 19.672 7.42 19.808 7.492C19.944 7.556 20.056 7.648 20.144 7.768C20.24 7.888 20.304 8.028 20.336 8.188C20.408 8.028 20.504 7.888 20.624 7.768C20.752 7.648 20.896 7.556 21.056 7.492C21.224 7.42 21.396 7.384 21.572 7.384C21.756 7.384 21.916 7.42 22.052 7.492C22.188 7.564 22.3 7.664 22.388 7.792C22.476 7.912 22.54 8.06 22.58 8.236C22.62 8.404 22.636 8.588 22.628 8.788V13H21.836V9.112C21.836 8.776 21.812 8.532 21.764 8.38C21.724 8.228 21.664 8.132 21.584 8.092C21.504 8.044 21.416 8.02 21.32 8.02C21.168 8.02 21.024 8.092 20.888 8.236C20.76 8.372 20.652 8.544 20.564 8.752C20.484 8.96 20.444 9.168 20.444 9.376V13H19.64V9.184C19.64 8.728 19.596 8.424 19.508 8.272C19.428 8.12 19.272 8.044 19.04 8.044C18.952 8.044 18.86 8.076 18.764 8.14C18.676 8.196 18.592 8.28 18.512 8.392C18.432 8.496 18.368 8.628 18.32 8.788C18.272 8.948 18.248 9.132 18.248 9.34V13H17.456ZM25.532 13.132C24.908 13.132 24.428 12.992 24.092 12.712C23.756 12.424 23.588 12.06 23.588 11.62C23.588 11.324 23.66 11.06 23.804 10.828C23.948 10.588 24.144 10.388 24.392 10.228C24.648 10.06 24.944 9.932 25.28 9.844C25.616 9.756 25.972 9.712 26.348 9.712C26.484 9.712 26.62 9.716 26.756 9.724C26.9 9.724 27.048 9.732 27.2 9.748C27.36 9.756 27.524 9.772 27.692 9.796L27.716 10.456C27.572 10.432 27.424 10.416 27.272 10.408C27.128 10.392 26.984 10.38 26.84 10.372C26.696 10.364 26.556 10.36 26.42 10.36C26.132 10.36 25.868 10.384 25.628 10.432C25.388 10.48 25.18 10.552 25.004 10.648C24.828 10.744 24.692 10.868 24.596 11.02C24.5 11.172 24.452 11.356 24.452 11.572C24.452 11.74 24.48 11.884 24.536 12.004C24.6 12.116 24.684 12.208 24.788 12.28C24.892 12.344 25.012 12.392 25.148 12.424C25.292 12.456 25.448 12.472 25.616 12.472C25.928 12.472 26.204 12.424 26.444 12.328C26.692 12.224 26.9 12.076 27.068 11.884C27.244 11.692 27.376 11.456 27.464 11.176C27.552 10.896 27.596 10.576 27.596 10.216C27.596 9.672 27.532 9.248 27.404 8.944C27.276 8.64 27.084 8.424 26.828 8.296C26.58 8.168 26.26 8.104 25.868 8.104C25.604 8.104 25.344 8.156 25.088 8.26C24.832 8.356 24.6 8.508 24.392 8.716L23.972 8.164C24.228 7.908 24.524 7.716 24.86 7.588C25.196 7.46 25.552 7.396 25.928 7.396C26.288 7.396 26.616 7.44 26.912 7.528C27.208 7.616 27.46 7.764 27.668 7.972C27.884 8.172 28.048 8.444 28.16 8.788C28.28 9.132 28.34 9.564 28.34 10.084V13H27.404V12.16C27.3 12.36 27.172 12.524 27.02 12.652C26.876 12.78 26.72 12.88 26.552 12.952C26.384 13.016 26.212 13.06 26.036 13.084C25.86 13.116 25.692 13.132 25.532 13.132ZM29.864 13V7.516H30.704V8.488C30.848 8.264 31.016 8.072 31.208 7.912C31.4 7.744 31.612 7.616 31.844 7.528C32.076 7.432 32.316 7.384 32.564 7.384C32.868 7.384 33.14 7.46 33.38 7.612C33.62 7.764 33.812 8.008 33.956 8.344C34.1 8.68 34.172 9.124 34.172 9.676V13H33.332V9.7C33.332 9.316 33.288 9.012 33.2 8.788C33.112 8.556 32.992 8.392 32.84 8.296C32.688 8.192 32.516 8.14 32.324 8.14C32.14 8.14 31.952 8.18 31.76 8.26C31.576 8.34 31.404 8.456 31.244 8.608C31.084 8.752 30.952 8.928 30.848 9.136C30.752 9.344 30.704 9.58 30.704 9.844V13H29.864ZM36.332 9.628V8.824H39.692V9.628H36.332ZM44.42 13.12C44.012 13.12 43.632 13.048 43.28 12.904C42.928 12.752 42.616 12.52 42.344 12.208C42.08 11.896 41.872 11.5 41.72 11.02C41.568 10.54 41.492 9.968 41.492 9.304C41.492 8.72 41.548 8.212 41.66 7.78C41.772 7.34 41.924 6.972 42.116 6.676C42.308 6.38 42.528 6.144 42.776 5.968C43.024 5.792 43.284 5.664 43.556 5.584C43.828 5.504 44.1 5.464 44.372 5.464C44.916 5.464 45.38 5.6 45.764 5.872C46.148 6.136 46.436 6.492 46.628 6.94L45.908 7.276L45.8 7.324L45.764 7.24C45.788 7.176 45.788 7.12 45.764 7.072C45.74 7.016 45.696 6.932 45.632 6.82C45.432 6.548 45.224 6.368 45.008 6.28C44.8 6.184 44.58 6.136 44.348 6.136C44.036 6.136 43.752 6.208 43.496 6.352C43.248 6.488 43.032 6.692 42.848 6.964C42.672 7.228 42.536 7.552 42.44 7.936C42.352 8.32 42.308 8.756 42.308 9.244C42.308 9.716 42.36 10.144 42.464 10.528C42.576 10.912 42.724 11.244 42.908 11.524C43.1 11.804 43.32 12.02 43.568 12.172C43.824 12.324 44.096 12.4 44.384 12.4C44.584 12.4 44.776 12.364 44.96 12.292C45.152 12.22 45.328 12.116 45.488 11.98C45.648 11.836 45.784 11.672 45.896 11.488L46.52 11.896C46.28 12.296 45.992 12.6 45.656 12.808C45.32 13.016 44.908 13.12 44.42 13.12ZM50 13.096C49.504 13.096 49.064 12.976 48.68 12.736C48.304 12.488 48.008 12.152 47.792 11.728C47.576 11.296 47.468 10.804 47.468 10.252C47.468 9.692 47.576 9.2 47.792 8.776C48.008 8.344 48.304 8.008 48.68 7.768C49.064 7.52 49.504 7.396 50 7.396C50.496 7.396 50.932 7.52 51.308 7.768C51.692 8.008 51.992 8.344 52.208 8.776C52.424 9.2 52.532 9.692 52.532 10.252C52.532 10.804 52.424 11.296 52.208 11.728C51.992 12.152 51.692 12.488 51.308 12.736C50.932 12.976 50.496 13.096 50 13.096ZM50 12.376C50.32 12.376 50.6 12.284 50.84 12.1C51.08 11.916 51.268 11.664 51.404 11.344C51.548 11.024 51.62 10.656 51.62 10.24C51.62 9.824 51.548 9.456 51.404 9.136C51.268 8.816 51.08 8.568 50.84 8.392C50.6 8.208 50.32 8.116 50 8.116C49.688 8.116 49.408 8.208 49.16 8.392C48.92 8.568 48.728 8.816 48.584 9.136C48.448 9.456 48.38 9.824 48.38 10.24C48.38 10.656 48.448 11.024 48.584 11.344C48.728 11.664 48.92 11.916 49.16 12.1C49.408 12.284 49.688 12.376 50 12.376ZM53.456 13V7.516H54.248V8.056C54.336 7.92 54.436 7.804 54.548 7.708C54.668 7.604 54.796 7.524 54.932 7.468C55.076 7.412 55.22 7.384 55.364 7.384C55.524 7.384 55.672 7.42 55.808 7.492C55.944 7.556 56.056 7.648 56.144 7.768C56.24 7.888 56.304 8.028 56.336 8.188C56.408 8.028 56.504 7.888 56.624 7.768C56.752 7.648 56.896 7.556 57.056 7.492C57.224 7.42 57.396 7.384 57.572 7.384C57.756 7.384 57.916 7.42 58.052 7.492C58.188 7.564 58.3 7.664 58.388 7.792C58.476 7.912 58.54 8.06 58.58 8.236C58.62 8.404 58.636 8.588 58.628 8.788V13H57.836V9.112C57.836 8.776 57.812 8.532 57.764 8.38C57.724 8.228 57.664 8.132 57.584 8.092C57.504 8.044 57.416 8.02 57.32 8.02C57.168 8.02 57.024 8.092 56.888 8.236C56.76 8.372 56.652 8.544 56.564 8.752C56.484 8.96 56.444 9.168 56.444 9.376V13H55.64V9.184C55.64 8.728 55.596 8.424 55.508 8.272C55.428 8.12 55.272 8.044 55.04 8.044C54.952 8.044 54.86 8.076 54.764 8.14C54.676 8.196 54.592 8.28 54.512 8.392C54.432 8.496 54.368 8.628 54.32 8.788C54.272 8.948 54.248 9.132 54.248 9.34V13H53.456ZM59.72 15.004V7.516H60.596V8.596C60.684 8.316 60.808 8.088 60.968 7.912C61.136 7.736 61.328 7.608 61.544 7.528C61.768 7.44 62.008 7.396 62.264 7.396C62.568 7.396 62.856 7.456 63.128 7.576C63.408 7.688 63.652 7.86 63.86 8.092C64.076 8.324 64.244 8.616 64.364 8.968C64.492 9.32 64.556 9.736 64.556 10.216C64.556 10.696 64.488 11.12 64.352 11.488C64.224 11.856 64.048 12.164 63.824 12.412C63.608 12.652 63.36 12.836 63.08 12.964C62.808 13.084 62.528 13.144 62.24 13.144C62.024 13.144 61.812 13.108 61.604 13.036C61.404 12.972 61.22 12.876 61.052 12.748C60.884 12.612 60.736 12.456 60.608 12.28V15.004H59.72ZM62.096 12.376C62.288 12.376 62.476 12.344 62.66 12.28C62.844 12.208 63.012 12.092 63.164 11.932C63.316 11.772 63.436 11.556 63.524 11.284C63.612 11.004 63.656 10.66 63.656 10.252C63.656 9.812 63.6 9.44 63.488 9.136C63.376 8.824 63.212 8.584 62.996 8.416C62.788 8.248 62.532 8.156 62.228 8.14C62.004 8.124 61.792 8.156 61.592 8.236C61.4 8.316 61.228 8.448 61.076 8.632C60.924 8.816 60.804 9.06 60.716 9.364C60.636 9.66 60.596 10.02 60.596 10.444C60.604 10.7 60.632 10.932 60.68 11.14C60.728 11.348 60.796 11.532 60.884 11.692C60.972 11.844 61.076 11.972 61.196 12.076C61.316 12.172 61.452 12.248 61.604 12.304C61.756 12.352 61.92 12.376 62.096 12.376ZM67.652 13.132C67.436 13.132 67.232 13.1 67.04 13.036C66.848 12.972 66.672 12.876 66.512 12.748C66.36 12.612 66.228 12.444 66.116 12.244C66.004 12.044 65.916 11.804 65.852 11.524C65.796 11.244 65.768 10.928 65.768 10.576L65.78 7.516H66.62V10.576C66.62 10.92 66.652 11.212 66.716 11.452C66.78 11.692 66.868 11.884 66.98 12.028C67.1 12.172 67.236 12.276 67.388 12.34C67.54 12.404 67.7 12.436 67.868 12.436C68.06 12.436 68.244 12.4 68.42 12.328C68.596 12.248 68.752 12.132 68.888 11.98C69.032 11.828 69.144 11.632 69.224 11.392C69.304 11.152 69.344 10.868 69.344 10.54V7.516H70.184V12.148C70.184 12.292 70.188 12.436 70.196 12.58C70.212 12.716 70.248 12.856 70.304 13H69.476C69.436 12.904 69.408 12.812 69.392 12.724C69.376 12.628 69.364 12.532 69.356 12.436C69.356 12.34 69.356 12.248 69.356 12.16C69.268 12.312 69.164 12.448 69.044 12.568C68.924 12.688 68.788 12.792 68.636 12.88C68.492 12.96 68.336 13.02 68.168 13.06C68.008 13.108 67.836 13.132 67.652 13.132ZM74.588 13.084C74.236 13.084 73.948 13.024 73.724 12.904C73.5 12.784 73.328 12.6 73.208 12.352C73.088 12.096 73.008 11.776 72.968 11.392C72.936 11.008 72.928 10.552 72.944 10.024L73.088 6.112L73.988 6.004L74.108 5.992L74.12 6.076C74.08 6.132 74.044 6.188 74.012 6.244C73.988 6.3 73.968 6.396 73.952 6.532L73.844 7.888L73.88 8.104L73.796 10.084C73.772 10.692 73.788 11.164 73.844 11.5C73.9 11.828 74 12.056 74.144 12.184C74.288 12.304 74.48 12.364 74.72 12.364C74.984 12.364 75.216 12.312 75.416 12.208C75.624 12.104 75.84 11.972 76.064 11.812L76.328 12.496C76.056 12.696 75.776 12.844 75.488 12.94C75.2 13.036 74.9 13.084 74.588 13.084ZM71.84 7.516H75.788V8.224H71.84V7.516ZM80.264 13.12C79.864 13.12 79.5 13.06 79.172 12.94C78.844 12.812 78.56 12.628 78.32 12.388C78.088 12.148 77.908 11.852 77.78 11.5C77.652 11.14 77.588 10.732 77.588 10.276C77.588 9.812 77.652 9.4 77.78 9.04C77.916 8.68 78.096 8.38 78.32 8.14C78.552 7.892 78.82 7.704 79.124 7.576C79.436 7.448 79.764 7.384 80.108 7.384C80.42 7.384 80.712 7.436 80.984 7.54C81.256 7.644 81.492 7.804 81.692 8.02C81.892 8.228 82.048 8.496 82.16 8.824C82.28 9.152 82.34 9.54 82.34 9.988C82.34 10.052 82.336 10.12 82.328 10.192C82.328 10.256 82.324 10.32 82.316 10.384H78.416C78.432 10.736 78.492 11.044 78.596 11.308C78.7 11.564 78.836 11.776 79.004 11.944C79.172 12.104 79.364 12.224 79.58 12.304C79.804 12.384 80.04 12.424 80.288 12.424C80.48 12.424 80.66 12.404 80.828 12.364C80.996 12.316 81.152 12.248 81.296 12.16C81.448 12.064 81.584 11.948 81.704 11.812L82.184 12.28C82.032 12.464 81.856 12.62 81.656 12.748C81.464 12.876 81.252 12.968 81.02 13.024C80.788 13.088 80.536 13.12 80.264 13.12ZM78.452 9.712H81.464C81.464 9.456 81.428 9.228 81.356 9.028C81.292 8.82 81.196 8.644 81.068 8.5C80.948 8.348 80.8 8.236 80.624 8.164C80.456 8.084 80.264 8.044 80.048 8.044C79.856 8.044 79.672 8.076 79.496 8.14C79.328 8.204 79.172 8.308 79.028 8.452C78.884 8.588 78.76 8.76 78.656 8.968C78.56 9.176 78.492 9.424 78.452 9.712ZM84.428 7.516H85.328L85.292 9.112L85.184 8.932C85.232 8.684 85.316 8.464 85.436 8.272C85.556 8.08 85.7 7.92 85.868 7.792C86.036 7.656 86.22 7.556 86.42 7.492C86.62 7.42 86.828 7.384 87.044 7.384C87.332 7.384 87.596 7.436 87.836 7.54C88.084 7.636 88.304 7.784 88.496 7.984L88.112 8.656L88.064 8.764L87.98 8.716C87.964 8.652 87.94 8.592 87.908 8.536C87.876 8.48 87.808 8.412 87.704 8.332C87.576 8.252 87.456 8.2 87.344 8.176C87.24 8.144 87.12 8.128 86.984 8.128C86.784 8.128 86.584 8.168 86.384 8.248C86.184 8.32 86 8.436 85.832 8.596C85.672 8.756 85.544 8.96 85.448 9.208C85.352 9.456 85.304 9.752 85.304 10.096V13.012H84.428V7.516ZM95.972 13V12.292H97.448V6.232H96.056V5.524H99.764V6.232H98.288V12.304H99.836V13H95.972ZM101.864 13V7.516H102.704V8.488C102.848 8.264 103.016 8.072 103.208 7.912C103.4 7.744 103.612 7.616 103.844 7.528C104.076 7.432 104.316 7.384 104.564 7.384C104.868 7.384 105.14 7.46 105.38 7.612C105.62 7.764 105.812 8.008 105.956 8.344C106.1 8.68 106.172 9.124 106.172 9.676V13H105.332V9.7C105.332 9.316 105.288 9.012 105.2 8.788C105.112 8.556 104.992 8.392 104.84 8.296C104.688 8.192 104.516 8.14 104.324 8.14C104.14 8.14 103.952 8.18 103.76 8.26C103.576 8.34 103.404 8.456 103.244 8.608C103.084 8.752 102.952 8.928 102.848 9.136C102.752 9.344 102.704 9.58 102.704 9.844V13H101.864ZM110.588 13.084C110.236 13.084 109.948 13.024 109.724 12.904C109.5 12.784 109.328 12.6 109.208 12.352C109.088 12.096 109.008 11.776 108.968 11.392C108.936 11.008 108.928 10.552 108.944 10.024L109.088 6.112L109.988 6.004L110.108 5.992L110.12 6.076C110.08 6.132 110.044 6.188 110.012 6.244C109.988 6.3 109.968 6.396 109.952 6.532L109.844 7.888L109.88 8.104L109.796 10.084C109.772 10.692 109.788 11.164 109.844 11.5C109.9 11.828 110 12.056 110.144 12.184C110.288 12.304 110.48 12.364 110.72 12.364C110.984 12.364 111.216 12.312 111.416 12.208C111.624 12.104 111.84 11.972 112.064 11.812L112.328 12.496C112.056 12.696 111.776 12.844 111.488 12.94C111.2 13.036 110.9 13.084 110.588 13.084ZM107.84 7.516H111.788V8.224H107.84V7.516ZM116.264 13.12C115.864 13.12 115.5 13.06 115.172 12.94C114.844 12.812 114.56 12.628 114.32 12.388C114.088 12.148 113.908 11.852 113.78 11.5C113.652 11.14 113.588 10.732 113.588 10.276C113.588 9.812 113.652 9.4 113.78 9.04C113.916 8.68 114.096 8.38 114.32 8.14C114.552 7.892 114.82 7.704 115.124 7.576C115.436 7.448 115.764 7.384 116.108 7.384C116.42 7.384 116.712 7.436 116.984 7.54C117.256 7.644 117.492 7.804 117.692 8.02C117.892 8.228 118.048 8.496 118.16 8.824C118.28 9.152 118.34 9.54 118.34 9.988C118.34 10.052 118.336 10.12 118.328 10.192C118.328 10.256 118.324 10.32 118.316 10.384H114.416C114.432 10.736 114.492 11.044 114.596 11.308C114.7 11.564 114.836 11.776 115.004 11.944C115.172 12.104 115.364 12.224 115.58 12.304C115.804 12.384 116.04 12.424 116.288 12.424C116.48 12.424 116.66 12.404 116.828 12.364C116.996 12.316 117.152 12.248 117.296 12.16C117.448 12.064 117.584 11.948 117.704 11.812L118.184 12.28C118.032 12.464 117.856 12.62 117.656 12.748C117.464 12.876 117.252 12.968 117.02 13.024C116.788 13.088 116.536 13.12 116.264 13.12ZM114.452 9.712H117.464C117.464 9.456 117.428 9.228 117.356 9.028C117.292 8.82 117.196 8.644 117.068 8.5C116.948 8.348 116.8 8.236 116.624 8.164C116.456 8.084 116.264 8.044 116.048 8.044C115.856 8.044 115.672 8.076 115.496 8.14C115.328 8.204 115.172 8.308 115.028 8.452C114.884 8.588 114.76 8.76 114.656 8.968C114.56 9.176 114.492 9.424 114.452 9.712ZM120.428 7.516H121.328L121.292 9.112L121.184 8.932C121.232 8.684 121.316 8.464 121.436 8.272C121.556 8.08 121.7 7.92 121.868 7.792C122.036 7.656 122.22 7.556 122.42 7.492C122.62 7.42 122.828 7.384 123.044 7.384C123.332 7.384 123.596 7.436 123.836 7.54C124.084 7.636 124.304 7.784 124.496 7.984L124.112 8.656L124.064 8.764L123.98 8.716C123.964 8.652 123.94 8.592 123.908 8.536C123.876 8.48 123.808 8.412 123.704 8.332C123.576 8.252 123.456 8.2 123.344 8.176C123.24 8.144 123.12 8.128 122.984 8.128C122.784 8.128 122.584 8.168 122.384 8.248C122.184 8.32 122 8.436 121.832 8.596C121.672 8.756 121.544 8.96 121.448 9.208C121.352 9.456 121.304 9.752 121.304 10.096V13.012H120.428V7.516ZM127.532 13.132C126.908 13.132 126.428 12.992 126.092 12.712C125.756 12.424 125.588 12.06 125.588 11.62C125.588 11.324 125.66 11.06 125.804 10.828C125.948 10.588 126.144 10.388 126.392 10.228C126.648 10.06 126.944 9.932 127.28 9.844C127.616 9.756 127.972 9.712 128.348 9.712C128.484 9.712 128.62 9.716 128.756 9.724C128.9 9.724 129.048 9.732 129.2 9.748C129.36 9.756 129.524 9.772 129.692 9.796L129.716 10.456C129.572 10.432 129.424 10.416 129.272 10.408C129.128 10.392 128.984 10.38 128.84 10.372C128.696 10.364 128.556 10.36 128.42 10.36C128.132 10.36 127.868 10.384 127.628 10.432C127.388 10.48 127.18 10.552 127.004 10.648C126.828 10.744 126.692 10.868 126.596 11.02C126.5 11.172 126.452 11.356 126.452 11.572C126.452 11.74 126.48 11.884 126.536 12.004C126.6 12.116 126.684 12.208 126.788 12.28C126.892 12.344 127.012 12.392 127.148 12.424C127.292 12.456 127.448 12.472 127.616 12.472C127.928 12.472 128.204 12.424 128.444 12.328C128.692 12.224 128.9 12.076 129.068 11.884C129.244 11.692 129.376 11.456 129.464 11.176C129.552 10.896 129.596 10.576 129.596 10.216C129.596 9.672 129.532 9.248 129.404 8.944C129.276 8.64 129.084 8.424 128.828 8.296C128.58 8.168 128.26 8.104 127.868 8.104C127.604 8.104 127.344 8.156 127.088 8.26C126.832 8.356 126.6 8.508 126.392 8.716L125.972 8.164C126.228 7.908 126.524 7.716 126.86 7.588C127.196 7.46 127.552 7.396 127.928 7.396C128.288 7.396 128.616 7.44 128.912 7.528C129.208 7.616 129.46 7.764 129.668 7.972C129.884 8.172 130.048 8.444 130.16 8.788C130.28 9.132 130.34 9.564 130.34 10.084V13H129.404V12.16C129.3 12.36 129.172 12.524 129.02 12.652C128.876 12.78 128.72 12.88 128.552 12.952C128.384 13.016 128.212 13.06 128.036 13.084C127.86 13.116 127.692 13.132 127.532 13.132ZM134.42 13.132C134.02 13.132 133.652 13.06 133.316 12.916C132.98 12.772 132.688 12.572 132.44 12.316C132.2 12.06 132.012 11.76 131.876 11.416C131.74 11.064 131.672 10.68 131.672 10.264C131.672 9.856 131.74 9.48 131.876 9.136C132.012 8.784 132.2 8.48 132.44 8.224C132.688 7.968 132.98 7.768 133.316 7.624C133.652 7.48 134.016 7.408 134.408 7.408C134.856 7.408 135.256 7.5 135.608 7.684C135.968 7.86 136.26 8.108 136.484 8.428L135.944 8.956L135.86 9.04L135.8 8.98C135.8 8.916 135.784 8.856 135.752 8.8C135.728 8.744 135.668 8.668 135.572 8.572C135.396 8.412 135.208 8.3 135.008 8.236C134.808 8.172 134.576 8.14 134.312 8.14C134.08 8.14 133.86 8.188 133.652 8.284C133.444 8.38 133.256 8.52 133.088 8.704C132.928 8.88 132.8 9.096 132.704 9.352C132.608 9.608 132.56 9.892 132.56 10.204C132.56 10.516 132.608 10.804 132.704 11.068C132.8 11.324 132.932 11.548 133.1 11.74C133.268 11.932 133.468 12.084 133.7 12.196C133.94 12.3 134.196 12.352 134.468 12.352C134.652 12.352 134.828 12.328 134.996 12.28C135.164 12.224 135.324 12.148 135.476 12.052C135.628 11.948 135.768 11.824 135.896 11.68L136.4 12.268C136.128 12.556 135.824 12.772 135.488 12.916C135.16 13.06 134.804 13.132 134.42 13.132ZM140.588 13.084C140.236 13.084 139.948 13.024 139.724 12.904C139.5 12.784 139.328 12.6 139.208 12.352C139.088 12.096 139.008 11.776 138.968 11.392C138.936 11.008 138.928 10.552 138.944 10.024L139.088 6.112L139.988 6.004L140.108 5.992L140.12 6.076C140.08 6.132 140.044 6.188 140.012 6.244C139.988 6.3 139.968 6.396 139.952 6.532L139.844 7.888L139.88 8.104L139.796 10.084C139.772 10.692 139.788 11.164 139.844 11.5C139.9 11.828 140 12.056 140.144 12.184C140.288 12.304 140.48 12.364 140.72 12.364C140.984 12.364 141.216 12.312 141.416 12.208C141.624 12.104 141.84 11.972 142.064 11.812L142.328 12.496C142.056 12.696 141.776 12.844 141.488 12.94C141.2 13.036 140.9 13.084 140.588 13.084ZM137.84 7.516H141.788V8.224H137.84V7.516ZM144.2 13V12.304H145.604V8.212H144.272V7.516H146.468V12.304H147.752V13H144.2ZM145.988 6.364C145.82 6.364 145.676 6.304 145.556 6.184C145.436 6.064 145.376 5.92 145.376 5.752C145.376 5.576 145.432 5.428 145.544 5.308C145.664 5.188 145.812 5.128 145.988 5.128C146.156 5.128 146.3 5.192 146.42 5.32C146.548 5.44 146.612 5.584 146.612 5.752C146.612 5.92 146.548 6.064 146.42 6.184C146.3 6.304 146.156 6.364 145.988 6.364ZM152 13.096C151.504 13.096 151.064 12.976 150.68 12.736C150.304 12.488 150.008 12.152 149.792 11.728C149.576 11.296 149.468 10.804 149.468 10.252C149.468 9.692 149.576 9.2 149.792 8.776C150.008 8.344 150.304 8.008 150.68 7.768C151.064 7.52 151.504 7.396 152 7.396C152.496 7.396 152.932 7.52 153.308 7.768C153.692 8.008 153.992 8.344 154.208 8.776C154.424 9.2 154.532 9.692 154.532 10.252C154.532 10.804 154.424 11.296 154.208 11.728C153.992 12.152 153.692 12.488 153.308 12.736C152.932 12.976 152.496 13.096 152 13.096ZM152 12.376C152.32 12.376 152.6 12.284 152.84 12.1C153.08 11.916 153.268 11.664 153.404 11.344C153.548 11.024 153.62 10.656 153.62 10.24C153.62 9.824 153.548 9.456 153.404 9.136C153.268 8.816 153.08 8.568 152.84 8.392C152.6 8.208 152.32 8.116 152 8.116C151.688 8.116 151.408 8.208 151.16 8.392C150.92 8.568 150.728 8.816 150.584 9.136C150.448 9.456 150.38 9.824 150.38 10.24C150.38 10.656 150.448 11.024 150.584 11.344C150.728 11.664 150.92 11.916 151.16 12.1C151.408 12.284 151.688 12.376 152 12.376ZM155.864 13V7.516H156.704V8.488C156.848 8.264 157.016 8.072 157.208 7.912C157.4 7.744 157.612 7.616 157.844 7.528C158.076 7.432 158.316 7.384 158.564 7.384C158.868 7.384 159.14 7.46 159.38 7.612C159.62 7.764 159.812 8.008 159.956 8.344C160.1 8.68 160.172 9.124 160.172 9.676V13H159.332V9.7C159.332 9.316 159.288 9.012 159.2 8.788C159.112 8.556 158.992 8.392 158.84 8.296C158.688 8.192 158.516 8.14 158.324 8.14C158.14 8.14 157.952 8.18 157.76 8.26C157.576 8.34 157.404 8.456 157.244 8.608C157.084 8.752 156.952 8.928 156.848 9.136C156.752 9.344 156.704 9.58 156.704 9.844V13H155.864ZM171.74 14.248C171.076 13.936 170.496 13.52 170 13C169.512 12.472 169.132 11.88 168.86 11.224C168.596 10.56 168.464 9.872 168.464 9.16C168.464 8.448 168.596 7.772 168.86 7.132C169.124 6.484 169.496 5.908 169.976 5.404C170.456 4.892 171.02 4.484 171.668 4.18L171.896 4.924C171.512 5.132 171.16 5.388 170.84 5.692C170.528 5.996 170.256 6.332 170.024 6.7C169.8 7.068 169.624 7.464 169.496 7.888C169.376 8.312 169.316 8.748 169.316 9.196C169.316 9.644 169.376 10.08 169.496 10.504C169.624 10.928 169.804 11.332 170.036 11.716C170.268 12.092 170.544 12.436 170.864 12.748C171.192 13.052 171.56 13.312 171.968 13.528L171.74 14.248ZM173.6 5.524H174.464H174.584V5.608C174.536 5.656 174.504 5.708 174.488 5.764C174.48 5.82 174.476 5.916 174.476 6.052V8.716H177.404V5.524H178.268H178.388V5.608C178.34 5.656 178.308 5.708 178.292 5.764C178.284 5.82 178.28 5.916 178.28 6.052V13H177.392V9.436H174.476V13H173.6V5.524ZM182.42 13.12C182.012 13.12 181.632 13.048 181.28 12.904C180.928 12.752 180.616 12.52 180.344 12.208C180.08 11.896 179.872 11.5 179.72 11.02C179.568 10.54 179.492 9.968 179.492 9.304C179.492 8.72 179.548 8.212 179.66 7.78C179.772 7.34 179.924 6.972 180.116 6.676C180.308 6.38 180.528 6.144 180.776 5.968C181.024 5.792 181.284 5.664 181.556 5.584C181.828 5.504 182.1 5.464 182.372 5.464C182.916 5.464 183.38 5.6 183.764 5.872C184.148 6.136 184.436 6.492 184.628 6.94L183.908 7.276L183.8 7.324L183.764 7.24C183.788 7.176 183.788 7.12 183.764 7.072C183.74 7.016 183.696 6.932 183.632 6.82C183.432 6.548 183.224 6.368 183.008 6.28C182.8 6.184 182.58 6.136 182.348 6.136C182.036 6.136 181.752 6.208 181.496 6.352C181.248 6.488 181.032 6.692 180.848 6.964C180.672 7.228 180.536 7.552 180.44 7.936C180.352 8.32 180.308 8.756 180.308 9.244C180.308 9.716 180.36 10.144 180.464 10.528C180.576 10.912 180.724 11.244 180.908 11.524C181.1 11.804 181.32 12.02 181.568 12.172C181.824 12.324 182.096 12.4 182.384 12.4C182.584 12.4 182.776 12.364 182.96 12.292C183.152 12.22 183.328 12.116 183.488 11.98C183.648 11.836 183.784 11.672 183.896 11.488L184.52 11.896C184.28 12.296 183.992 12.6 183.656 12.808C183.32 13.016 182.908 13.12 182.42 13.12ZM185.972 13V12.292H187.448V6.232H186.056V5.524H189.764V6.232H188.288V12.304H189.836V13H185.972ZM192.596 14.248L192.368 13.528C192.776 13.312 193.14 13.052 193.46 12.748C193.788 12.436 194.068 12.092 194.3 11.716C194.532 11.332 194.708 10.928 194.828 10.504C194.956 10.08 195.02 9.644 195.02 9.196C195.02 8.748 194.956 8.312 194.828 7.888C194.708 7.464 194.532 7.068 194.3 6.7C194.076 6.332 193.804 5.996 193.484 5.692C193.172 5.388 192.824 5.132 192.44 4.924L192.668 4.18C193.316 4.484 193.88 4.892 194.36 5.404C194.84 5.908 195.212 6.484 195.476 7.132C195.74 7.772 195.872 8.448 195.872 9.16C195.872 9.872 195.736 10.56 195.464 11.224C195.2 11.88 194.82 12.472 194.324 13C193.836 13.52 193.26 13.936 192.596 14.248Z" fill="black"/>
</svg>
