<svg width="204" height="20" viewBox="0 0 204 20" fill="none" xmlns="http://www.w3.org/2000/svg">
<rect x="0.5" y="0.5" width="203" height="19" fill="black" stroke="black"/>
<path d="M5.36 5.524H7.052H7.16V5.656C7.12 5.704 7.092 5.756 7.076 5.812C7.068 5.868 7.064 5.964 7.064 6.1V8.452H8.948V5.524H10.64H10.748V5.656C10.708 5.704 10.68 5.756 10.664 5.812C10.656 5.868 10.652 5.964 10.652 6.1V13H8.948V9.772H7.064V13H5.36V5.524ZM13.472 13.144C13.24 13.144 13.02 13.116 12.812 13.06C12.612 13.004 12.428 12.916 12.26 12.796C12.1 12.676 11.96 12.524 11.84 12.34C11.72 12.156 11.628 11.936 11.564 11.68C11.5 11.416 11.468 11.116 11.468 10.78V7.348H13.172V10.78C13.172 10.964 13.184 11.12 13.208 11.248C13.24 11.376 13.284 11.484 13.34 11.572C13.396 11.652 13.46 11.712 13.532 11.752C13.612 11.784 13.696 11.8 13.784 11.8C13.936 11.8 14.068 11.776 14.18 11.728C14.3 11.68 14.396 11.608 14.468 11.512C14.548 11.408 14.604 11.284 14.636 11.14C14.676 10.996 14.696 10.828 14.696 10.636V7.348H16.412V12.088C16.412 12.28 16.416 12.448 16.424 12.592C16.44 12.728 16.476 12.864 16.532 13H15.008C14.968 12.928 14.94 12.856 14.924 12.784C14.908 12.712 14.896 12.64 14.888 12.568C14.888 12.496 14.888 12.424 14.888 12.352C14.808 12.488 14.712 12.608 14.6 12.712C14.496 12.808 14.38 12.888 14.252 12.952C14.132 13.016 14.004 13.064 13.868 13.096C13.74 13.128 13.608 13.144 13.472 13.144ZM17.3 13V7.348H18.668V7.672C18.764 7.552 18.86 7.46 18.956 7.396C19.052 7.332 19.148 7.288 19.244 7.264C19.348 7.232 19.448 7.216 19.544 7.216C19.664 7.216 19.78 7.232 19.892 7.264C20.004 7.296 20.112 7.356 20.216 7.444C20.32 7.524 20.408 7.648 20.48 7.816C20.576 7.664 20.676 7.548 20.78 7.468C20.884 7.38 21.004 7.316 21.14 7.276C21.284 7.236 21.444 7.216 21.62 7.216C21.836 7.216 22.016 7.256 22.16 7.336C22.312 7.408 22.436 7.516 22.532 7.66C22.628 7.804 22.696 7.984 22.736 8.2C22.784 8.416 22.808 8.664 22.808 8.944V13H21.38V9.22C21.38 9.036 21.372 8.888 21.356 8.776C21.348 8.656 21.328 8.568 21.296 8.512C21.272 8.456 21.228 8.428 21.164 8.428C21.092 8.428 21.02 8.464 20.948 8.536C20.876 8.6 20.816 8.708 20.768 8.86C20.728 9.004 20.708 9.2 20.708 9.448V13H19.4V9.232C19.4 8.888 19.38 8.66 19.34 8.548C19.3 8.436 19.236 8.38 19.148 8.38C19.084 8.38 19.024 8.4 18.968 8.44C18.92 8.48 18.876 8.544 18.836 8.632C18.804 8.712 18.776 8.816 18.752 8.944C18.736 9.064 18.728 9.204 18.728 9.364V13H17.3ZM25.268 13.144C24.66 13.144 24.184 13 23.84 12.712C23.496 12.416 23.324 12.028 23.324 11.548C23.324 11.244 23.388 10.964 23.516 10.708C23.644 10.444 23.844 10.216 24.116 10.024C24.388 9.824 24.736 9.668 25.16 9.556C25.584 9.444 26.092 9.388 26.684 9.388C26.708 9.388 26.752 9.388 26.816 9.388C26.88 9.388 26.952 9.388 27.032 9.388C27.112 9.388 27.18 9.388 27.236 9.388L27.284 10.516C27.236 10.516 27.168 10.516 27.08 10.516C26.992 10.516 26.9 10.52 26.804 10.528C26.716 10.528 26.648 10.528 26.6 10.528C26.256 10.528 25.98 10.552 25.772 10.6C25.564 10.64 25.404 10.7 25.292 10.78C25.188 10.852 25.116 10.936 25.076 11.032C25.036 11.12 25.016 11.208 25.016 11.296C25.016 11.392 25.032 11.476 25.064 11.548C25.096 11.62 25.14 11.676 25.196 11.716C25.252 11.756 25.32 11.788 25.4 11.812C25.48 11.828 25.564 11.836 25.652 11.836C25.844 11.836 26.008 11.804 26.144 11.74C26.28 11.676 26.392 11.572 26.48 11.428C26.576 11.276 26.644 11.084 26.684 10.852C26.732 10.62 26.756 10.336 26.756 10C26.756 9.592 26.716 9.28 26.636 9.064C26.564 8.848 26.456 8.704 26.312 8.632C26.176 8.552 26.008 8.512 25.808 8.512C25.56 8.512 25.332 8.548 25.124 8.62C24.916 8.684 24.696 8.836 24.464 9.076L23.504 8.092C23.864 7.764 24.248 7.536 24.656 7.408C25.072 7.28 25.476 7.216 25.868 7.216C26.212 7.216 26.536 7.256 26.84 7.336C27.152 7.408 27.428 7.532 27.668 7.708C27.916 7.884 28.108 8.128 28.244 8.44C28.388 8.744 28.46 9.128 28.46 9.592V13H26.744V12.556C26.64 12.652 26.536 12.74 26.432 12.82C26.336 12.892 26.228 12.952 26.108 13C25.996 13.048 25.872 13.084 25.736 13.108C25.6 13.132 25.444 13.144 25.268 13.144ZM29.516 13V7.348H31.232V7.996C31.36 7.844 31.492 7.712 31.628 7.6C31.764 7.48 31.916 7.388 32.084 7.324C32.26 7.252 32.456 7.216 32.672 7.216C33.008 7.216 33.324 7.3 33.62 7.468C33.916 7.628 34.156 7.884 34.34 8.236C34.524 8.58 34.616 9.036 34.616 9.604V13H32.912V9.616C32.912 9.36 32.888 9.148 32.84 8.98C32.792 8.804 32.716 8.672 32.612 8.584C32.508 8.496 32.376 8.452 32.216 8.452C32.088 8.452 31.964 8.48 31.844 8.536C31.724 8.584 31.616 8.656 31.52 8.752C31.432 8.848 31.36 8.964 31.304 9.1C31.256 9.236 31.232 9.388 31.232 9.556V13H29.516ZM36.212 9.82V8.488H39.812V9.82H36.212ZM44.3 13.144C43.892 13.144 43.504 13.068 43.136 12.916C42.776 12.764 42.456 12.532 42.176 12.22C41.896 11.908 41.676 11.512 41.516 11.032C41.364 10.544 41.288 9.968 41.288 9.304C41.288 8.72 41.348 8.208 41.468 7.768C41.596 7.328 41.764 6.956 41.972 6.652C42.188 6.348 42.428 6.104 42.692 5.92C42.964 5.728 43.244 5.592 43.532 5.512C43.828 5.424 44.12 5.38 44.408 5.38C44.992 5.38 45.488 5.504 45.896 5.752C46.304 6 46.62 6.36 46.844 6.832L45.908 7.672L45.824 7.744L45.74 7.648C45.74 7.584 45.732 7.52 45.716 7.456C45.7 7.392 45.656 7.308 45.584 7.204C45.432 7.028 45.268 6.912 45.092 6.856C44.916 6.792 44.736 6.76 44.552 6.76C44.376 6.76 44.196 6.812 44.012 6.916C43.828 7.012 43.656 7.164 43.496 7.372C43.344 7.572 43.22 7.828 43.124 8.14C43.028 8.452 42.98 8.82 42.98 9.244C42.98 9.652 43.012 10.012 43.076 10.324C43.148 10.636 43.244 10.9 43.364 11.116C43.492 11.324 43.64 11.484 43.808 11.596C43.984 11.7 44.176 11.752 44.384 11.752C44.576 11.752 44.744 11.732 44.888 11.692C45.032 11.652 45.164 11.576 45.284 11.464C45.404 11.352 45.52 11.196 45.632 10.996L46.784 11.872C46.48 12.36 46.124 12.696 45.716 12.88C45.308 13.056 44.836 13.144 44.3 13.144ZM49.988 13.144C49.484 13.144 49.024 13.024 48.608 12.784C48.192 12.536 47.86 12.188 47.612 11.74C47.364 11.292 47.24 10.772 47.24 10.18C47.24 9.628 47.364 9.128 47.612 8.68C47.86 8.232 48.192 7.876 48.608 7.612C49.024 7.348 49.484 7.216 49.988 7.216C50.492 7.216 50.952 7.348 51.368 7.612C51.792 7.876 52.128 8.232 52.376 8.68C52.632 9.128 52.76 9.628 52.76 10.18C52.76 10.764 52.632 11.28 52.376 11.728C52.128 12.176 51.792 12.524 51.368 12.772C50.952 13.02 50.492 13.144 49.988 13.144ZM49.988 11.812C50.204 11.812 50.392 11.744 50.552 11.608C50.72 11.472 50.852 11.284 50.948 11.044C51.044 10.796 51.092 10.508 51.092 10.18C51.092 9.828 51.044 9.532 50.948 9.292C50.852 9.052 50.72 8.868 50.552 8.74C50.392 8.612 50.204 8.548 49.988 8.548C49.788 8.548 49.604 8.612 49.436 8.74C49.276 8.868 49.148 9.052 49.052 9.292C48.956 9.532 48.908 9.828 48.908 10.18C48.908 10.508 48.952 10.796 49.04 11.044C49.136 11.284 49.264 11.472 49.424 11.608C49.592 11.744 49.78 11.812 49.988 11.812ZM53.3 13V7.348H54.668V7.672C54.764 7.552 54.86 7.46 54.956 7.396C55.052 7.332 55.148 7.288 55.244 7.264C55.348 7.232 55.448 7.216 55.544 7.216C55.664 7.216 55.78 7.232 55.892 7.264C56.004 7.296 56.112 7.356 56.216 7.444C56.32 7.524 56.408 7.648 56.48 7.816C56.576 7.664 56.676 7.548 56.78 7.468C56.884 7.38 57.004 7.316 57.14 7.276C57.284 7.236 57.444 7.216 57.62 7.216C57.836 7.216 58.016 7.256 58.16 7.336C58.312 7.408 58.436 7.516 58.532 7.66C58.628 7.804 58.696 7.984 58.736 8.2C58.784 8.416 58.808 8.664 58.808 8.944V13H57.38V9.22C57.38 9.036 57.372 8.888 57.356 8.776C57.348 8.656 57.328 8.568 57.296 8.512C57.272 8.456 57.228 8.428 57.164 8.428C57.092 8.428 57.02 8.464 56.948 8.536C56.876 8.6 56.816 8.708 56.768 8.86C56.728 9.004 56.708 9.2 56.708 9.448V13H55.4V9.232C55.4 8.888 55.38 8.66 55.34 8.548C55.3 8.436 55.236 8.38 55.148 8.38C55.084 8.38 55.024 8.4 54.968 8.44C54.92 8.48 54.876 8.544 54.836 8.632C54.804 8.712 54.776 8.816 54.752 8.944C54.736 9.064 54.728 9.204 54.728 9.364V13H53.3ZM59.48 15.004L59.468 7.336H61.124V7.924C61.268 7.756 61.416 7.62 61.568 7.516C61.728 7.412 61.896 7.336 62.072 7.288C62.248 7.24 62.432 7.216 62.624 7.216C62.928 7.216 63.208 7.284 63.464 7.42C63.728 7.548 63.956 7.74 64.148 7.996C64.348 8.252 64.504 8.568 64.616 8.944C64.728 9.312 64.784 9.74 64.784 10.228C64.784 10.724 64.724 11.156 64.604 11.524C64.492 11.892 64.332 12.196 64.124 12.436C63.924 12.676 63.692 12.856 63.428 12.976C63.164 13.088 62.888 13.144 62.6 13.144C62.416 13.144 62.232 13.128 62.048 13.096C61.872 13.064 61.708 13.016 61.556 12.952C61.404 12.88 61.28 12.792 61.184 12.688V15.004H59.48ZM62.072 11.896C62.24 11.896 62.388 11.864 62.516 11.8C62.644 11.736 62.752 11.636 62.84 11.5C62.936 11.364 63.008 11.18 63.056 10.948C63.104 10.716 63.128 10.432 63.128 10.096C63.128 9.768 63.084 9.484 62.996 9.244C62.916 9.004 62.8 8.82 62.648 8.692C62.496 8.564 62.316 8.5 62.108 8.5C61.94 8.5 61.796 8.536 61.676 8.608C61.556 8.672 61.46 8.776 61.388 8.92C61.316 9.056 61.264 9.232 61.232 9.448C61.2 9.664 61.184 9.92 61.184 10.216C61.184 10.448 61.192 10.656 61.208 10.84C61.232 11.016 61.264 11.172 61.304 11.308C61.352 11.436 61.408 11.544 61.472 11.632C61.544 11.72 61.628 11.788 61.724 11.836C61.828 11.876 61.944 11.896 62.072 11.896ZM67.472 13.144C67.24 13.144 67.02 13.116 66.812 13.06C66.612 13.004 66.428 12.916 66.26 12.796C66.1 12.676 65.96 12.524 65.84 12.34C65.72 12.156 65.628 11.936 65.564 11.68C65.5 11.416 65.468 11.116 65.468 10.78V7.348H67.172V10.78C67.172 10.964 67.184 11.12 67.208 11.248C67.24 11.376 67.284 11.484 67.34 11.572C67.396 11.652 67.46 11.712 67.532 11.752C67.612 11.784 67.696 11.8 67.784 11.8C67.936 11.8 68.068 11.776 68.18 11.728C68.3 11.68 68.396 11.608 68.468 11.512C68.548 11.408 68.604 11.284 68.636 11.14C68.676 10.996 68.696 10.828 68.696 10.636V7.348H70.412V12.088C70.412 12.28 70.416 12.448 70.424 12.592C70.44 12.728 70.476 12.864 70.532 13H69.008C68.968 12.928 68.94 12.856 68.924 12.784C68.908 12.712 68.896 12.64 68.888 12.568C68.888 12.496 68.888 12.424 68.888 12.352C68.808 12.488 68.712 12.608 68.6 12.712C68.496 12.808 68.38 12.888 68.252 12.952C68.132 13.016 68.004 13.064 67.868 13.096C67.74 13.128 67.608 13.144 67.472 13.144ZM74.588 13.144C74.292 13.144 74.02 13.096 73.772 13C73.524 12.912 73.312 12.76 73.136 12.544C72.96 12.32 72.828 12.016 72.74 11.632C72.652 11.248 72.62 10.76 72.644 10.168L72.812 6.088L74.54 5.86L74.648 5.848L74.66 5.98C74.628 6.036 74.596 6.092 74.564 6.148C74.532 6.204 74.512 6.3 74.504 6.436L74.36 8.284H74.432L74.336 10.084C74.312 10.54 74.328 10.896 74.384 11.152C74.448 11.4 74.536 11.572 74.648 11.668C74.768 11.764 74.892 11.812 75.02 11.812C75.268 11.812 75.492 11.76 75.692 11.656C75.9 11.552 76.08 11.436 76.232 11.308L76.52 12.496C76.248 12.696 75.952 12.856 75.632 12.976C75.32 13.088 74.972 13.144 74.588 13.144ZM71.612 7.348H76.148L76.124 8.668H71.588L71.612 7.348ZM80.24 13.144C79.84 13.144 79.464 13.08 79.112 12.952C78.768 12.816 78.464 12.624 78.2 12.376C77.944 12.128 77.744 11.824 77.6 11.464C77.456 11.096 77.384 10.684 77.384 10.228C77.384 9.764 77.452 9.348 77.588 8.98C77.732 8.604 77.924 8.288 78.164 8.032C78.412 7.768 78.7 7.568 79.028 7.432C79.356 7.288 79.712 7.216 80.096 7.216C80.424 7.216 80.736 7.276 81.032 7.396C81.336 7.516 81.604 7.696 81.836 7.936C82.068 8.168 82.252 8.46 82.388 8.812C82.524 9.156 82.592 9.552 82.592 10C82.592 10.096 82.592 10.216 82.592 10.36C82.592 10.504 82.588 10.62 82.58 10.708H79.016C79.032 10.908 79.08 11.08 79.16 11.224C79.24 11.36 79.34 11.476 79.46 11.572C79.588 11.66 79.724 11.728 79.868 11.776C80.02 11.816 80.172 11.836 80.324 11.836C80.484 11.836 80.636 11.824 80.78 11.8C80.924 11.776 81.064 11.732 81.2 11.668C81.336 11.596 81.468 11.496 81.596 11.368L82.436 12.184C82.244 12.408 82.032 12.592 81.8 12.736C81.568 12.88 81.32 12.984 81.056 13.048C80.792 13.112 80.52 13.144 80.24 13.144ZM79.028 9.46H80.984C80.984 9.3 80.964 9.164 80.924 9.052C80.884 8.932 80.824 8.836 80.744 8.764C80.664 8.684 80.564 8.628 80.444 8.596C80.324 8.556 80.188 8.536 80.036 8.536C79.9 8.536 79.772 8.556 79.652 8.596C79.54 8.628 79.44 8.684 79.352 8.764C79.264 8.836 79.192 8.932 79.136 9.052C79.08 9.164 79.044 9.3 79.028 9.46ZM83.828 7.348H85.568V8.896L85.376 8.848C85.4 8.608 85.46 8.392 85.556 8.2C85.66 8 85.792 7.828 85.952 7.684C86.112 7.532 86.288 7.416 86.48 7.336C86.68 7.256 86.884 7.216 87.092 7.216C87.42 7.216 87.712 7.268 87.968 7.372C88.224 7.476 88.464 7.644 88.688 7.876L87.992 9.328L87.956 9.424L87.836 9.376C87.804 9.312 87.78 9.244 87.764 9.172C87.748 9.092 87.696 9.004 87.608 8.908C87.504 8.82 87.384 8.748 87.248 8.692C87.12 8.628 86.976 8.596 86.816 8.596C86.632 8.596 86.46 8.624 86.3 8.68C86.148 8.736 86.016 8.824 85.904 8.944C85.792 9.064 85.704 9.216 85.64 9.4C85.576 9.584 85.544 9.804 85.544 10.06V13H83.828V7.348ZM95.756 13V11.644H97.208V6.88H95.828V5.524H100.244V6.88H98.792V11.644H100.304V13H95.756ZM101.516 13V7.348H103.232V7.996C103.36 7.844 103.492 7.712 103.628 7.6C103.764 7.48 103.916 7.388 104.084 7.324C104.26 7.252 104.456 7.216 104.672 7.216C105.008 7.216 105.324 7.3 105.62 7.468C105.916 7.628 106.156 7.884 106.34 8.236C106.524 8.58 106.616 9.036 106.616 9.604V13H104.912V9.616C104.912 9.36 104.888 9.148 104.84 8.98C104.792 8.804 104.716 8.672 104.612 8.584C104.508 8.496 104.376 8.452 104.216 8.452C104.088 8.452 103.964 8.48 103.844 8.536C103.724 8.584 103.616 8.656 103.52 8.752C103.432 8.848 103.36 8.964 103.304 9.1C103.256 9.236 103.232 9.388 103.232 9.556V13H101.516ZM110.588 13.144C110.292 13.144 110.02 13.096 109.772 13C109.524 12.912 109.312 12.76 109.136 12.544C108.96 12.32 108.828 12.016 108.74 11.632C108.652 11.248 108.62 10.76 108.644 10.168L108.812 6.088L110.54 5.86L110.648 5.848L110.66 5.98C110.628 6.036 110.596 6.092 110.564 6.148C110.532 6.204 110.512 6.3 110.504 6.436L110.36 8.284H110.432L110.336 10.084C110.312 10.54 110.328 10.896 110.384 11.152C110.448 11.4 110.536 11.572 110.648 11.668C110.768 11.764 110.892 11.812 111.02 11.812C111.268 11.812 111.492 11.76 111.692 11.656C111.9 11.552 112.08 11.436 112.232 11.308L112.52 12.496C112.248 12.696 111.952 12.856 111.632 12.976C111.32 13.088 110.972 13.144 110.588 13.144ZM107.612 7.348H112.148L112.124 8.668H107.588L107.612 7.348ZM116.24 13.144C115.84 13.144 115.464 13.08 115.112 12.952C114.768 12.816 114.464 12.624 114.2 12.376C113.944 12.128 113.744 11.824 113.6 11.464C113.456 11.096 113.384 10.684 113.384 10.228C113.384 9.764 113.452 9.348 113.588 8.98C113.732 8.604 113.924 8.288 114.164 8.032C114.412 7.768 114.7 7.568 115.028 7.432C115.356 7.288 115.712 7.216 116.096 7.216C116.424 7.216 116.736 7.276 117.032 7.396C117.336 7.516 117.604 7.696 117.836 7.936C118.068 8.168 118.252 8.46 118.388 8.812C118.524 9.156 118.592 9.552 118.592 10C118.592 10.096 118.592 10.216 118.592 10.36C118.592 10.504 118.588 10.62 118.58 10.708H115.016C115.032 10.908 115.08 11.08 115.16 11.224C115.24 11.36 115.34 11.476 115.46 11.572C115.588 11.66 115.724 11.728 115.868 11.776C116.02 11.816 116.172 11.836 116.324 11.836C116.484 11.836 116.636 11.824 116.78 11.8C116.924 11.776 117.064 11.732 117.2 11.668C117.336 11.596 117.468 11.496 117.596 11.368L118.436 12.184C118.244 12.408 118.032 12.592 117.8 12.736C117.568 12.88 117.32 12.984 117.056 13.048C116.792 13.112 116.52 13.144 116.24 13.144ZM115.028 9.46H116.984C116.984 9.3 116.964 9.164 116.924 9.052C116.884 8.932 116.824 8.836 116.744 8.764C116.664 8.684 116.564 8.628 116.444 8.596C116.324 8.556 116.188 8.536 116.036 8.536C115.9 8.536 115.772 8.556 115.652 8.596C115.54 8.628 115.44 8.684 115.352 8.764C115.264 8.836 115.192 8.932 115.136 9.052C115.08 9.164 115.044 9.3 115.028 9.46ZM119.828 7.348H121.568V8.896L121.376 8.848C121.4 8.608 121.46 8.392 121.556 8.2C121.66 8 121.792 7.828 121.952 7.684C122.112 7.532 122.288 7.416 122.48 7.336C122.68 7.256 122.884 7.216 123.092 7.216C123.42 7.216 123.712 7.268 123.968 7.372C124.224 7.476 124.464 7.644 124.688 7.876L123.992 9.328L123.956 9.424L123.836 9.376C123.804 9.312 123.78 9.244 123.764 9.172C123.748 9.092 123.696 9.004 123.608 8.908C123.504 8.82 123.384 8.748 123.248 8.692C123.12 8.628 122.976 8.596 122.816 8.596C122.632 8.596 122.46 8.624 122.3 8.68C122.148 8.736 122.016 8.824 121.904 8.944C121.792 9.064 121.704 9.216 121.64 9.4C121.576 9.584 121.544 9.804 121.544 10.06V13H119.828V7.348ZM127.268 13.144C126.66 13.144 126.184 13 125.84 12.712C125.496 12.416 125.324 12.028 125.324 11.548C125.324 11.244 125.388 10.964 125.516 10.708C125.644 10.444 125.844 10.216 126.116 10.024C126.388 9.824 126.736 9.668 127.16 9.556C127.584 9.444 128.092 9.388 128.684 9.388C128.708 9.388 128.752 9.388 128.816 9.388C128.88 9.388 128.952 9.388 129.032 9.388C129.112 9.388 129.18 9.388 129.236 9.388L129.284 10.516C129.236 10.516 129.168 10.516 129.08 10.516C128.992 10.516 128.9 10.52 128.804 10.528C128.716 10.528 128.648 10.528 128.6 10.528C128.256 10.528 127.98 10.552 127.772 10.6C127.564 10.64 127.404 10.7 127.292 10.78C127.188 10.852 127.116 10.936 127.076 11.032C127.036 11.12 127.016 11.208 127.016 11.296C127.016 11.392 127.032 11.476 127.064 11.548C127.096 11.62 127.14 11.676 127.196 11.716C127.252 11.756 127.32 11.788 127.4 11.812C127.48 11.828 127.564 11.836 127.652 11.836C127.844 11.836 128.008 11.804 128.144 11.74C128.28 11.676 128.392 11.572 128.48 11.428C128.576 11.276 128.644 11.084 128.684 10.852C128.732 10.62 128.756 10.336 128.756 10C128.756 9.592 128.716 9.28 128.636 9.064C128.564 8.848 128.456 8.704 128.312 8.632C128.176 8.552 128.008 8.512 127.808 8.512C127.56 8.512 127.332 8.548 127.124 8.62C126.916 8.684 126.696 8.836 126.464 9.076L125.504 8.092C125.864 7.764 126.248 7.536 126.656 7.408C127.072 7.28 127.476 7.216 127.868 7.216C128.212 7.216 128.536 7.256 128.84 7.336C129.152 7.408 129.428 7.532 129.668 7.708C129.916 7.884 130.108 8.128 130.244 8.44C130.388 8.744 130.46 9.128 130.46 9.592V13H128.744V12.556C128.64 12.652 128.536 12.74 128.432 12.82C128.336 12.892 128.228 12.952 128.108 13C127.996 13.048 127.872 13.084 127.736 13.108C127.6 13.132 127.444 13.144 127.268 13.144ZM134.288 13.144C133.872 13.144 133.484 13.076 133.124 12.94C132.764 12.796 132.448 12.596 132.176 12.34C131.912 12.076 131.704 11.768 131.552 11.416C131.408 11.064 131.336 10.676 131.336 10.252C131.336 9.836 131.408 9.444 131.552 9.076C131.704 8.708 131.912 8.388 132.176 8.116C132.448 7.836 132.764 7.616 133.124 7.456C133.484 7.296 133.876 7.216 134.3 7.216C134.86 7.216 135.34 7.316 135.74 7.516C136.14 7.708 136.456 7.98 136.688 8.332L135.788 9.352L135.716 9.436L135.608 9.352C135.6 9.288 135.592 9.22 135.584 9.148C135.576 9.076 135.532 8.988 135.452 8.884C135.316 8.748 135.16 8.656 134.984 8.608C134.808 8.56 134.608 8.536 134.384 8.536C134.208 8.536 134.04 8.576 133.88 8.656C133.72 8.728 133.576 8.836 133.448 8.98C133.32 9.124 133.22 9.304 133.148 9.52C133.076 9.736 133.04 9.988 133.04 10.276C133.04 10.524 133.076 10.748 133.148 10.948C133.228 11.14 133.328 11.3 133.448 11.428C133.576 11.556 133.716 11.656 133.868 11.728C134.028 11.792 134.188 11.824 134.348 11.824C134.508 11.824 134.664 11.804 134.816 11.764C134.976 11.724 135.132 11.656 135.284 11.56C135.444 11.456 135.596 11.312 135.74 11.128L136.652 12.172C136.34 12.524 135.968 12.776 135.536 12.928C135.104 13.072 134.688 13.144 134.288 13.144ZM140.588 13.144C140.292 13.144 140.02 13.096 139.772 13C139.524 12.912 139.312 12.76 139.136 12.544C138.96 12.32 138.828 12.016 138.74 11.632C138.652 11.248 138.62 10.76 138.644 10.168L138.812 6.088L140.54 5.86L140.648 5.848L140.66 5.98C140.628 6.036 140.596 6.092 140.564 6.148C140.532 6.204 140.512 6.3 140.504 6.436L140.36 8.284H140.432L140.336 10.084C140.312 10.54 140.328 10.896 140.384 11.152C140.448 11.4 140.536 11.572 140.648 11.668C140.768 11.764 140.892 11.812 141.02 11.812C141.268 11.812 141.492 11.76 141.692 11.656C141.9 11.552 142.08 11.436 142.232 11.308L142.52 12.496C142.248 12.696 141.952 12.856 141.632 12.976C141.32 13.088 140.972 13.144 140.588 13.144ZM137.612 7.348H142.148L142.124 8.668H137.588L137.612 7.348ZM143.888 13V11.68H145.232V8.668H143.948V7.348H146.936V11.68H148.16V13H143.888ZM146 6.58C145.72 6.58 145.48 6.488 145.28 6.304C145.088 6.112 144.992 5.888 144.992 5.632C144.992 5.352 145.084 5.124 145.268 4.948C145.46 4.772 145.704 4.684 146 4.684C146.264 4.684 146.496 4.78 146.696 4.972C146.904 5.156 147.008 5.376 147.008 5.632C147.008 5.888 146.904 6.112 146.696 6.304C146.496 6.488 146.264 6.58 146 6.58ZM151.988 13.144C151.484 13.144 151.024 13.024 150.608 12.784C150.192 12.536 149.86 12.188 149.612 11.74C149.364 11.292 149.24 10.772 149.24 10.18C149.24 9.628 149.364 9.128 149.612 8.68C149.86 8.232 150.192 7.876 150.608 7.612C151.024 7.348 151.484 7.216 151.988 7.216C152.492 7.216 152.952 7.348 153.368 7.612C153.792 7.876 154.128 8.232 154.376 8.68C154.632 9.128 154.76 9.628 154.76 10.18C154.76 10.764 154.632 11.28 154.376 11.728C154.128 12.176 153.792 12.524 153.368 12.772C152.952 13.02 152.492 13.144 151.988 13.144ZM151.988 11.812C152.204 11.812 152.392 11.744 152.552 11.608C152.72 11.472 152.852 11.284 152.948 11.044C153.044 10.796 153.092 10.508 153.092 10.18C153.092 9.828 153.044 9.532 152.948 9.292C152.852 9.052 152.72 8.868 152.552 8.74C152.392 8.612 152.204 8.548 151.988 8.548C151.788 8.548 151.604 8.612 151.436 8.74C151.276 8.868 151.148 9.052 151.052 9.292C150.956 9.532 150.908 9.828 150.908 10.18C150.908 10.508 150.952 10.796 151.04 11.044C151.136 11.284 151.264 11.472 151.424 11.608C151.592 11.744 151.78 11.812 151.988 11.812ZM155.516 13V7.348H157.232V7.996C157.36 7.844 157.492 7.712 157.628 7.6C157.764 7.48 157.916 7.388 158.084 7.324C158.26 7.252 158.456 7.216 158.672 7.216C159.008 7.216 159.324 7.3 159.62 7.468C159.916 7.628 160.156 7.884 160.34 8.236C160.524 8.58 160.616 9.036 160.616 9.604V13H158.912V9.616C158.912 9.36 158.888 9.148 158.84 8.98C158.792 8.804 158.716 8.672 158.612 8.584C158.508 8.496 158.376 8.452 158.216 8.452C158.088 8.452 157.964 8.48 157.844 8.536C157.724 8.584 157.616 8.656 157.52 8.752C157.432 8.848 157.36 8.964 157.304 9.1C157.256 9.236 157.232 9.388 157.232 9.556V13H155.516ZM171.764 14.332C170.932 13.98 170.24 13.54 169.688 13.012C169.144 12.484 168.74 11.892 168.476 11.236C168.212 10.572 168.08 9.88 168.08 9.16C168.08 8.44 168.212 7.76 168.476 7.12C168.74 6.48 169.14 5.904 169.676 5.392C170.212 4.872 170.884 4.44 171.692 4.096L172.1 5.476C171.7 5.676 171.348 5.9 171.044 6.148C170.748 6.396 170.496 6.672 170.288 6.976C170.088 7.272 169.936 7.604 169.832 7.972C169.736 8.34 169.688 8.748 169.688 9.196C169.688 9.636 169.744 10.048 169.856 10.432C169.968 10.808 170.128 11.156 170.336 11.476C170.552 11.796 170.816 12.084 171.128 12.34C171.44 12.588 171.8 12.808 172.208 13L171.764 14.332ZM173.36 5.524H175.052H175.16V5.656C175.12 5.704 175.092 5.756 175.076 5.812C175.068 5.868 175.064 5.964 175.064 6.1V8.452H176.948V5.524H178.64H178.748V5.656C178.708 5.704 178.68 5.756 178.664 5.812C178.656 5.868 178.652 5.964 178.652 6.1V13H176.948V9.772H175.064V13H173.36V5.524ZM182.3 13.144C181.892 13.144 181.504 13.068 181.136 12.916C180.776 12.764 180.456 12.532 180.176 12.22C179.896 11.908 179.676 11.512 179.516 11.032C179.364 10.544 179.288 9.968 179.288 9.304C179.288 8.72 179.348 8.208 179.468 7.768C179.596 7.328 179.764 6.956 179.972 6.652C180.188 6.348 180.428 6.104 180.692 5.92C180.964 5.728 181.244 5.592 181.532 5.512C181.828 5.424 182.12 5.38 182.408 5.38C182.992 5.38 183.488 5.504 183.896 5.752C184.304 6 184.62 6.36 184.844 6.832L183.908 7.672L183.824 7.744L183.74 7.648C183.74 7.584 183.732 7.52 183.716 7.456C183.7 7.392 183.656 7.308 183.584 7.204C183.432 7.028 183.268 6.912 183.092 6.856C182.916 6.792 182.736 6.76 182.552 6.76C182.376 6.76 182.196 6.812 182.012 6.916C181.828 7.012 181.656 7.164 181.496 7.372C181.344 7.572 181.22 7.828 181.124 8.14C181.028 8.452 180.98 8.82 180.98 9.244C180.98 9.652 181.012 10.012 181.076 10.324C181.148 10.636 181.244 10.9 181.364 11.116C181.492 11.324 181.64 11.484 181.808 11.596C181.984 11.7 182.176 11.752 182.384 11.752C182.576 11.752 182.744 11.732 182.888 11.692C183.032 11.652 183.164 11.576 183.284 11.464C183.404 11.352 183.52 11.196 183.632 10.996L184.784 11.872C184.48 12.36 184.124 12.696 183.716 12.88C183.308 13.056 182.836 13.144 182.3 13.144ZM185.756 13V11.644H187.208V6.88H185.828V5.524H190.244V6.88H188.792V11.644H190.304V13H185.756ZM192.572 14.332L192.128 13C192.536 12.808 192.896 12.588 193.208 12.34C193.52 12.084 193.78 11.796 193.988 11.476C194.204 11.156 194.368 10.808 194.48 10.432C194.592 10.048 194.648 9.636 194.648 9.196C194.648 8.748 194.596 8.34 194.492 7.972C194.396 7.604 194.244 7.272 194.036 6.976C193.836 6.672 193.584 6.396 193.28 6.148C192.984 5.9 192.636 5.676 192.236 5.476L192.644 4.096C193.46 4.44 194.132 4.872 194.66 5.392C195.196 5.904 195.596 6.48 195.86 7.12C196.124 7.76 196.256 8.44 196.256 9.16C196.256 9.88 196.124 10.572 195.86 11.236C195.596 11.892 195.192 12.484 194.648 13.012C194.104 13.54 193.412 13.98 192.572 14.332Z" fill="white"/>
</svg>
