<svg width="48" height="50" viewBox="0 0 48 50" fill="none" xmlns="http://www.w3.org/2000/svg">
<path d="M2.60611 6.00199L2.74067 6.10928L3.02609 6.222L3.80063 6.06744L4.28247 5.91108L4.62067 5.74745L4.83157 5.77652L5.59157 6.022L5.84248 5.89654L6.39157 5.56382L6.47336 5.38926L6.9061 4.85836L6.91337 4.72927L6.7352 4.39655L6.78975 4.3238L7.32064 3.98198L7.58065 3.67835L7.86247 3.47472L8.06427 3.46925L8.12065 3.53836L8.14429 3.68016L8.12609 4.26562L8.20427 4.44562L8.62064 4.86563L8.91699 5.10381L9.60613 5.26744L9.63882 5.34562L9.44972 5.66017L9.86609 6.03653L9.94066 6.31291L10.1334 6.46744L10.4061 6.39109L10.4952 6.24564L10.3879 5.99109L10.3098 5.72381L10.3261 5.56925L10.4006 5.39109L10.5897 5.14381L11.1043 4.57471L11.2898 4.24562L11.3243 3.73653L11.3261 3.32743L11.4988 3.22744L11.8679 3.30016L11.9789 3.29289L12.0297 3.5438L12.1879 3.9438L12.3734 4.15107L12.5716 4.20018L12.8043 4.20198L13.3825 3.95654L13.7589 3.85108L13.9716 3.88016L14.0971 4.04745L14.3661 4.4838L14.5206 4.5329L14.7061 4.4838L14.7715 4.40925L14.7116 4.24199L14.6334 3.87653L14.5261 3.59291L14.3843 3.46018L14.3552 3.28745L14.4443 2.97653L14.5443 2.71652L14.7406 2.64561L14.9661 2.6129L15.2643 2.88745L15.6171 2.9747L15.8807 2.96016L15.9261 2.80017L15.9097 2.6238L15.7534 2.39836L15.7843 2.05654L15.9661 1.41836L16.0698 1.46744L16.4607 1.47471L16.8861 1.51108L17.1607 1.77109L17.4297 1.86017L17.8134 1.88925L18.0698 1.8529L18.1934 1.75472L18.3425 1.44926L18.617 1.07107L19.048 0.876532L19.7825 0.840161L20.1497 0.769249L20.5316 0.772883L20.8189 0.831089L21.1152 0.823792L21.8698 0.560175L22.6479 0.351074L22.7552 0.385615L22.7716 0.454723L22.6316 0.614719L22.4971 0.827427L22.5879 1.07107L23.0316 1.55835L23.2734 1.93108L23.5007 2.21107L23.8552 2.35836L24.3207 2.44927L24.7152 2.48198L25.1279 2.58743L26.5425 2.84744L27.2552 2.92016L27.7952 2.93109L28.6134 3.10382L28.5334 3.3838L28.368 3.45472L28.0807 3.61835L27.7497 3.84198L27.4425 4.09473L27.3588 4.36744L27.4425 4.54564L27.5261 4.60745L27.6389 4.55291L27.8025 4.58745L28.0079 4.68563L28.3498 4.78018L28.3589 4.87473L28.288 4.99472L28.0207 5.20926L27.7807 5.45107L27.757 5.59836L27.7861 5.70564L27.8698 5.77109L28.2262 5.74198L28.2789 5.82926L28.1061 6.44927L28.1588 6.55472L28.4716 6.65291L28.6988 6.802L29.1243 7.19473L29.2934 7.51289L29.177 7.61835L28.9097 7.67109L28.6916 7.64381L28.9389 7.45108L28.3352 6.75472L28.0625 6.75653L27.7007 7.05108L26.6934 6.75289L26.5007 6.87291L26.3589 7.10926L26.0097 7.402L25.5152 7.53109L24.9625 7.85292L24.3807 8.08019L23.937 8.25289L23.6825 8.22198L24.088 7.84925L23.9152 7.84198L23.3788 8.10383L23.0698 8.32563L22.9697 8.69836L22.8789 9.31291L23.1152 9.47654L23.5279 10.2856L24.037 10.6311L23.937 10.9602L23.8025 11.2202L23.4952 11.4456L23.2407 11.2784L23.0843 11.282L22.9643 11.8093L23.1843 13.2129L23.5389 14.1947L23.8916 14.622L24.6861 15.2875L25.5261 15.6384L27.037 16.7565L27.8662 17.1093L28.0843 17.3002L28.5861 18.1602L29.0207 19.1511L29.488 20.702L29.8207 21.4657L30.4916 22.3256L31.8862 23.5547L33.1534 24.4529L34.3316 25.0075L35.2516 25.1038L37.4279 24.982L37.808 25.0348L38.2098 25.1838L38.3043 25.5675L38.157 25.8257L37.6989 26.0947L37.2316 26.4675L37.1807 26.9748L37.617 27.3311L39.717 28.2766L41.8643 29.0638L42.5334 29.4657L43.308 30.0893L45.1789 30.9457L45.4952 31.362L46.6316 32.2566L47.148 32.9457L47.2462 33.4802L47.0007 34.0221L46.888 34.4039L46.6952 34.7802L46.2116 34.6366L45.6607 34.2493L44.8316 32.673L43.3171 32.5129L43.0043 32.3966L42.4662 32.1257L42.4334 31.9475L42.3007 31.7239L42.1625 31.6475L41.5843 31.5984L41.1825 31.8547L40.7098 32.4602L40.1752 33.3311L39.6316 34.6057L39.6007 35.1202L39.8953 35.6184L40.7771 35.8948L41.4589 36.3366L41.908 36.7984L41.9407 37.9111L42.1425 38.542L41.8462 38.9002L41.2734 38.8075L40.5098 39.0348L39.9698 39.442L39.7443 39.8293L39.8043 40.833L39.6934 41.2148L38.6679 41.9366L38.1298 42.6748L37.9952 42.9802L37.7898 43.3275L36.4952 43.3402L36.188 42.9111L36.177 42.273L36.3989 41.8802L36.8752 41.6966L37.1952 40.8784L37.0952 40.2875L37.2825 40.0257L37.4589 39.8402L37.8225 39.733L38.3334 39.6293L38.3843 38.8021L37.9843 38.4257L37.8443 37.8984L37.6589 36.9221L37.0007 35.6748L36.648 34.5584L36.3716 34.0075L35.9534 33.7202L35.197 33.7239L34.8225 33.642L33.4843 32.8657L33.3916 32.7475L33.4007 32.5402L33.6225 32.2275L33.4734 31.8039L33.3152 31.4039L33.0534 31.062L32.7661 30.8838L32.1643 30.9929L31.9534 31.0784L31.5734 31.0493L31.2753 31.2002L31.108 31.2057L31.577 30.6057L31.4516 30.4639L30.9879 30.2166L30.3588 30.1802L30.1843 30.1511L30.0807 30.3038L29.9571 30.2184L29.9698 29.9493L29.2388 28.7475L28.7461 28.2566L28.4989 28.1693L28.0516 28.2729L27.3007 28.0584L26.8534 28.0111L26.6061 28.0638L26.237 28.2202L26.0516 28.1166L25.9861 27.9548L25.3043 27.4548L24.4534 27.1711L22.7988 25.5729L22.2916 24.9747L21.2479 24.3147L20.5879 23.3529L20.0479 23.0002L19.2607 22.7165L19.0789 22.7529L18.8425 22.8584L18.657 22.8729L18.5097 22.7475L18.6607 22.6184L18.8279 22.5602L18.7625 22.1911L17.8679 21.2348L17.3443 20.9256L17.197 20.7347L17.0879 20.4747L16.977 20.3038L16.7279 20.2056L16.5152 20.222L16.2225 20.1566L16.2316 19.6966L16.2898 19.342L16.2443 19.042L15.9588 18.2493L15.4643 17.5765L15.1734 15.9656L14.9479 15.5111L14.4007 15.1656L13.1679 14.7784L11.4497 13.7365L11.0861 13.7184L10.0516 13.3129L9.41154 13.2438L8.57886 13.6075L7.56795 14.6093L6.74791 15.6456L6.44973 15.8456L5.39154 16.1984L4.45704 16.3675L4.4461 16.102L4.41337 15.902L4.57156 15.682L4.83157 15.4238L5.07155 15.0984L5.17154 14.862L5.12426 14.7056L5.01518 14.4729L4.86791 14.4565L3.97885 14.6511L3.77522 14.6002L3.11703 14.2965L2.40792 13.922L2.14608 13.6565L2.04792 13.3875L2.12244 13.2147L2.06246 13.0475L1.9243 12.8202L2.04975 12.562L2.26975 12.2402L2.38067 12.022L2.56611 11.9656L2.65516 11.8329L2.5079 11.302L2.43155 11.2165L2.30244 11.1511L2.10612 11.1438L1.76244 11.0347L1.51702 10.8511L1.46426 10.602L1.33519 10.3638L1.11519 10.1438L1.08789 9.90381L1.3388 9.77655L1.68248 9.77109L1.9243 9.81836L2.46612 9.4329L2.6661 9.39836L2.84426 9.31471L2.99336 8.78745L3.10793 8.62926L3.13518 8.53654L3.02792 8.42562L2.58975 8.05472L2.38972 7.66745L2.07516 7.23291L1.78247 7.04018L1.72244 6.89108L1.71517 6.70018L1.7752 6.53289L2.3061 6.27108L2.60611 6.00199Z" fill="#808080" stroke="white" stroke-width="0.25" stroke-linecap="round" stroke-linejoin="round"/>
<path d="M15.7423 20.6763L15.8714 20.8599L15.8859 20.9672L15.7986 21.0872L15.835 21.3599L15.5095 21.1345L15.0168 21.249L14.715 21.2254L14.6313 21.0235L14.7004 20.9053L15.1696 20.8799L15.315 20.8217L15.6005 20.849L15.7423 20.6763Z" fill="#808080" stroke="#808080" stroke-width="0.25" stroke-linecap="round" stroke-linejoin="round"/>
<path d="M29.535 30.7165L29.3605 30.7565L29.2586 30.702L29.2041 30.631L29.2732 30.4565L29.6277 30.5601L29.6222 30.6583L29.535 30.7165Z" fill="#808080" stroke="#808080" stroke-width="0.25" stroke-linecap="round" stroke-linejoin="round"/>
<path d="M22.1895 48.6511L22.0022 48.7002L21.7586 48.5456L21.7422 48.3293L21.7876 48.2656L22.084 48.3638L22.1767 48.5638L22.1895 48.6511Z" fill="#808080" stroke="#808080" stroke-width="0.25" stroke-linecap="round" stroke-linejoin="round"/>
<path d="M35.9133 42.0745L35.6496 42.589L35.5205 42.7854L34.5824 44.0399L34.4751 44.329L34.4096 44.6435L34.3114 44.9181L34.1805 45.1781L34.0569 45.5072L34.0806 45.8799L34.1242 46.0636L34.2369 46.1836L34.4224 46.2963L34.5642 46.469L34.346 46.6272L34.5878 46.9436L34.7933 47.1308L34.8205 47.3181L34.8151 47.5054L34.3896 47.8563L34.2223 48.049L34.1187 48.2836L34.0733 48.5254L34.1205 48.7436L34.106 48.9617L33.6769 48.9345L33.2369 48.8018L32.7951 48.8599L32.166 48.609L31.9369 48.5636L31.7278 48.4654L31.2042 47.6854L30.7823 47.3563L30.3296 47.0999L29.8678 47.0836L29.4041 47.1126L28.995 46.9545L28.1642 46.4236L27.2842 45.9981L26.9096 45.7218L26.7387 45.5363L26.5387 45.4126L26.0332 45.2909L25.5805 45.0035L25.375 44.9817L24.9314 45.0163L24.7042 44.9963L24.4751 44.8945L24.0333 44.5563L23.7515 44.0872L23.6787 43.8799L23.8787 43.3436L24.1151 42.8272L24.326 42.6818L24.5696 42.5781L24.7169 42.4254L24.8423 42.2381L25.2951 42.7781L25.4969 42.909L25.7024 42.8799L26.066 42.6872L26.0969 42.4763L26.4987 42.2072L27.0096 42.2017L27.246 42.2509L27.3696 42.4944L27.5642 42.569L27.7896 42.6017L28.5296 43.0636L28.7369 43.1381L28.9478 43.1508L29.5223 42.9563L29.9642 42.8817L30.8896 42.989L31.3896 42.8726L31.7387 42.8599L32.2478 42.6818L32.6387 42.3854L32.8424 42.3127L33.0605 42.2908L33.5896 42.309L34.1223 42.3763L34.346 42.3072L34.5333 42.1126L34.7496 42.0254L34.9878 42.0836L35.6023 41.7508L35.8733 41.729L36.1315 41.8563L35.9133 42.0745Z" fill="#808080" stroke="#808080" stroke-width="0.25" stroke-linecap="round" stroke-linejoin="round"/>
<path d="M12.7712 29.9019L12.9657 30.1983L13.4021 31.4074L13.4439 31.6692L13.3567 31.9365L13.2457 32.1256L12.813 32.7329L12.8766 33.2347L13.0385 33.5456L13.0621 33.8893L12.9821 34.3147L12.713 36.9238L12.5821 37.3838L12.5003 37.7838L12.2039 37.9038L11.8221 37.7765L11.3403 37.551L11.1167 37.5638L10.893 37.6402L10.7076 37.5747L10.5312 37.4474L10.4003 38.3402L10.1821 38.7019L9.84935 38.9329L9.53662 38.9474L9.2148 38.8692H8.94209L8.73484 38.6983L8.57121 38.3983L8.30937 38.0329L8.04392 37.5983L8.01485 37.2056L7.96935 36.3383L8.04576 36.1492L8.15662 35.9674L8.21116 35.5783L8.17299 35.2401L8.25117 35.1183L8.40575 35.2401L8.52211 35.1947L8.51484 35.0201L8.54935 34.702L8.34755 34.4347L8.00392 34.3438L7.97118 34.0638L8.00752 33.791L8.18935 33.6074L8.25117 33.3638L8.253 32.6183L8.01119 32.3438L7.91847 31.9274L7.79301 31.6601L7.56757 31.3929L7.313 31.1747L7.15664 30.9638L7.12207 30.4129L7.21118 29.9529L7.29119 29.7565L7.37298 29.7856L7.62572 30.0147L7.83302 30.0656L8.24212 30.1201L8.6439 30.0474L9.13845 29.8383L9.61481 29.5856L10.3039 28.842L10.7294 28.6911L10.9475 28.4947L11.0221 28.2292L11.2021 28.1602L11.4148 28.4165L11.6785 28.4437L12.0839 28.6565L12.2585 28.8601L12.4094 29.1038L12.553 29.211L12.7076 29.2729L12.7312 29.331L12.6094 29.3892L12.4694 29.6692L12.5494 29.7492L12.7712 29.9019Z" fill="#808080" stroke="#808080" stroke-width="0.25" stroke-linecap="round" stroke-linejoin="round"/>
<path d="M8.28207 38.2293L8.05846 38.6802L7.82209 38.362L7.81299 38.0875L7.84573 38.0093L8.13298 38.1238L8.28207 38.2293Z" fill="#808080" stroke="#808080" stroke-width="0.25" stroke-linecap="round" stroke-linejoin="round"/>
<path d="M7.53147 29.171L7.40241 29.3819L7.21875 29.3674L7.28966 29.211L7.45879 28.8965L7.6642 28.791L7.75514 28.8856L7.65876 29.0656L7.53147 29.171Z" fill="#808080" stroke="#808080" stroke-width="0.25" stroke-linecap="round" stroke-linejoin="round"/>
</svg>
