<svg width="633" height="667" viewBox="0 0 633 667" fill="none" xmlns="http://www.w3.org/2000/svg">
<path d="M21.7547 78.2925L23.5941 79.7599L27.4959 81.3017L38.0841 79.1877L44.6711 77.049L49.2943 74.8109L52.1774 75.2086L62.5669 78.5661L65.9969 76.8501L73.5032 72.2992L74.6213 69.9116L80.537 62.65L80.6364 60.8844L78.2008 56.3334L78.9464 55.3384L86.2039 50.663L89.7583 46.5101L93.6109 43.7248L96.3696 43.65L97.1403 44.5953L97.4634 46.5348L97.2146 54.5427L98.2834 57.0047L103.975 62.7495L108.027 66.0072L117.447 68.2453L117.894 69.3147L115.309 73.6171L121.001 78.7649L122.021 82.5452L124.655 84.6589L128.383 83.6146L129.601 81.625L128.135 78.1434L127.066 74.4876L127.29 72.3735L128.309 69.9366L130.894 66.5544L137.927 58.7703L140.463 54.2691L140.935 47.3058L140.96 41.7102L143.321 40.3426L148.367 41.3372L149.883 41.2377L150.579 44.6697L152.741 50.1408L155.276 52.9759L157.986 53.6475L161.167 53.6722L169.072 50.315L174.217 48.8727L177.125 49.2703L178.84 51.5585L182.518 57.5268L184.63 58.1985L187.166 57.5268L188.06 56.5072L187.24 54.2194L186.172 49.2206L184.705 45.3413L182.767 43.5259L182.369 41.1634L183.587 36.9107L184.953 33.3543L187.638 32.3844L190.721 31.937L194.797 35.6922L199.619 36.8856L203.222 36.6868L203.844 34.4984L203.62 32.0861L201.482 29.0025L201.905 24.3271L204.391 15.5982L205.808 16.2694L211.151 16.3689L216.968 16.8664L220.721 20.4227L224.399 21.6412L229.643 22.0389L233.148 21.5418L234.838 20.1989L236.877 16.0209L240.63 10.848L246.52 8.18714L256.562 7.68966L261.582 6.71974L266.802 6.76945L270.729 7.56557L274.781 7.46577L285.096 3.86006L295.733 1L297.2 1.47244L297.424 2.4177L295.509 4.60609L293.671 7.51548L294.913 10.848L300.978 17.513L304.284 22.6111L307.391 26.4407L312.237 28.4553L318.6 29.6989L323.994 30.1462L329.636 31.5886L348.973 35.145L358.717 36.1396L366.099 36.2891L377.283 38.6517L376.19 42.4813L373.928 43.4512L370.001 45.6893L365.477 48.7482L361.277 52.2052L360.133 55.9353L361.277 58.3727L362.42 59.2181L363.961 58.4721L366.198 58.9445L369.006 60.2875L373.68 61.5807L373.804 62.8739L372.835 64.5151L369.181 67.4496L365.899 70.757L365.576 72.7716L365.975 74.239L367.118 75.1342L371.99 74.7361L372.71 75.9299L370.349 84.4103L371.07 85.8527L375.345 87.1956L378.451 89.2349L384.268 94.6066L386.579 98.9584L384.988 100.401L381.335 101.122L378.352 100.749L381.733 98.1129L373.481 88.5883L369.753 88.6129L364.806 92.6417L351.036 88.5632L348.402 90.2048L346.463 93.4375L341.69 97.4416L334.931 99.2073L327.374 103.609L319.42 106.718L313.356 109.08L309.876 108.657L315.419 103.559L313.058 103.46L305.725 107.041L301.5 110.075L300.133 115.173L298.89 123.579L302.121 125.817L307.763 136.884L314.723 141.609L313.356 146.11L311.517 149.666L307.316 152.75L303.836 150.462L301.699 150.512L300.058 157.724L303.066 176.923L307.913 190.352L312.735 196.196L323.596 205.298L335.079 210.098L355.734 225.392L367.068 230.216L370.051 232.828L376.911 244.591L382.851 258.144L389.239 279.357L393.787 289.802L402.959 301.565L422.023 318.376L439.347 330.662L455.453 338.247L468.03 339.565L497.781 337.899L502.976 338.62L508.47 340.659L509.762 345.907L507.748 349.438L501.485 353.118L495.098 358.217L494.401 365.155L500.366 370.029L529.074 382.961L558.428 393.729L567.575 399.225L578.163 407.755L603.739 419.468L608.064 425.164L623.599 437.399L630.657 446.824L632 454.136L628.644 461.547L627.103 466.769L624.469 471.917L617.857 469.952L610.326 464.656L598.992 443.094L578.288 440.905L574.013 439.314L566.656 435.609L566.208 433.171L564.394 430.113L562.504 429.068L554.6 428.397L549.107 431.903L542.645 440.184L535.338 452.097L527.906 469.53L527.483 476.567L531.51 483.382L543.565 487.162L552.885 493.205L559.025 499.521L559.472 514.741L562.231 523.371L558.18 528.27L550.351 527.002L539.911 530.11L532.529 535.681L529.447 540.978L530.267 554.706L528.751 559.928L514.733 569.801L507.376 579.898L505.536 584.076L502.728 588.825L485.03 589L480.831 583.13L480.681 574.402L483.714 569.03L490.226 566.518L494.6 555.327L493.233 547.245L495.793 543.664L498.204 541.127L503.175 539.66L510.159 538.242L510.855 526.927L505.387 521.779L503.473 514.567L500.938 501.213L491.941 484.153L487.119 468.883L483.34 461.347L477.624 457.418L467.284 457.468L462.164 456.349L443.871 445.73L442.603 444.113L442.727 441.279L445.76 437.001L443.721 431.207L441.559 425.736L437.98 421.06L434.053 418.623L425.826 420.115L422.943 421.284L417.748 420.886L413.672 422.95L411.385 423.025L417.797 414.818L416.082 412.879L409.744 409.496L401.144 408.999L398.759 408.601L397.342 410.69L395.652 409.521L395.825 405.84L385.833 389.402L379.098 382.687L375.718 381.493L369.603 382.911L359.338 379.977L353.224 379.331L349.843 380.052L344.797 382.19L342.262 380.772L341.367 378.559L332.047 371.721L320.415 367.841L297.796 345.981L290.862 337.799L276.595 328.772L267.572 315.616L260.19 310.792L249.429 306.912L246.943 307.409L243.712 308.852L241.177 309.051L239.163 307.335L241.226 305.569L243.513 304.773L242.618 299.725L230.389 286.644L223.231 282.416L221.218 279.805L219.726 276.249L218.21 273.911L214.805 272.568L211.897 272.792L207.895 271.897L208.019 265.605L208.815 260.756L208.194 256.652L204.291 245.809L197.531 236.608L193.554 214.574L190.472 208.357L182.99 203.631L166.138 198.334L142.65 184.085L137.679 183.836L123.537 178.29L114.787 177.345L103.404 182.319L89.5846 196.022L78.3745 210.197L74.2982 212.933L59.8324 217.757L47.0574 220.07L46.908 216.439L46.4604 213.703L48.623 210.695L52.1774 207.163L55.458 202.712L56.8249 199.479L56.1786 197.34L54.6874 194.157L52.6742 193.933L40.5205 196.594L37.7367 195.898L28.7391 191.744L19.0452 186.621L15.4658 182.99L14.1239 179.31L15.1426 176.947L14.3227 174.659L12.4339 171.551L14.149 168.019L17.1565 163.618L18.6728 160.633L21.2078 159.862L22.4252 158.047L20.4121 150.785L19.3683 149.616L17.6033 148.721L14.9196 148.622L10.2213 147.13L6.8664 144.618L6.14505 141.211L4.38073 137.953L1.37319 134.944L1 131.661L4.43003 129.92L9.12831 129.846L12.4339 130.492L19.8409 125.22L22.5746 124.747L25.0102 123.603L27.0484 116.392L28.6147 114.228L28.9872 112.96L27.5209 111.443L21.5309 106.369L18.7964 101.072L14.4964 95.1288L10.4952 92.4926L9.67445 90.4533L9.57508 87.8422L10.3958 85.554L17.6533 81.973L21.7547 78.2925Z" stroke="#808080" stroke-linecap="round" stroke-linejoin="round"/>
<path d="M313.25 212.468L315 208.688L314.361 206L310.639 206.532L308 210.032L309.75 213L313.25 212.468Z" fill="white" stroke="#808080" stroke-linecap="round" stroke-linejoin="round"/>
<path d="M202.054 279L203.803 281.418L204 282.83L202.817 284.41L203.311 288L198.9 285.032L192.223 286.54L188.134 286.229L187 283.572L187.936 282.016L194.293 281.681L196.264 280.915L200.132 281.274L202.054 279Z" fill="white" stroke="#808080" stroke-linecap="round" stroke-linejoin="round"/>
<path d="M390.468 415.6L387.584 416L385.901 415.454L385 414.745L386.141 413L392 414.036L391.909 415.018L390.468 415.6Z" fill="white" stroke="#808080" stroke-linecap="round" stroke-linejoin="round"/>
<path d="M290 661.435L287.069 662L283.256 660.221L283 657.732L283.711 657L288.349 658.13L289.8 660.431L290 661.435Z" fill="white" stroke="#808080" stroke-linecap="round" stroke-linejoin="round"/>
<path d="M477.004 571.729L473.383 578.771L471.611 581.459L458.728 598.631L457.255 602.588L456.356 606.894L455.008 610.652L453.21 614.211L451.513 618.715L451.837 623.817L452.436 626.33L453.984 627.973L456.531 629.516L458.478 631.88L455.482 634.045L458.803 638.376L461.624 640.939L461.998 643.502L461.924 646.066L456.081 650.869L453.784 653.507L452.361 656.718L451.737 660.027L452.386 663.014L452.186 666L446.294 665.627L440.252 663.81L434.185 664.606L425.547 661.172L422.401 660.55L419.53 659.206L412.339 648.529L406.546 644.025L400.33 640.516L393.988 640.292L387.621 640.69L382.003 638.525L370.594 631.258L358.51 625.434L353.367 621.652L351.019 619.113L348.273 617.421L341.332 615.754L335.115 611.821L332.294 611.523L326.202 611.996L323.081 611.722L319.935 610.328L313.869 605.699L309.999 599.278L309 596.442L311.746 589.1L314.992 582.032L317.888 580.041L321.234 578.622L323.256 576.532L324.979 573.968L331.196 581.36L333.967 583.152L336.789 582.753L341.782 580.116L342.206 577.229L347.724 573.545L354.74 573.471L357.986 574.143L359.683 577.477L362.355 578.498L365.45 578.946L375.612 585.267L378.458 586.287L381.355 586.462L389.244 583.799L395.311 582.778L408.02 584.246L414.886 582.654L419.679 582.48L426.67 580.041L432.038 575.984L434.835 574.989L437.831 574.69L445.096 574.939L452.411 575.86L455.482 574.914L458.054 572.251L461.025 571.056L464.296 571.853L472.734 567.298L476.455 567L480 568.742L477.004 571.729Z" fill="white" stroke="#808080" stroke-linecap="round" stroke-linejoin="round"/>
<path d="M160.742 404.897L163.419 408.963L169.424 425.552L170 429.144L168.799 432.811L167.272 435.406L161.317 443.737L162.193 450.622L164.42 454.887L164.746 459.603L163.645 465.439L159.941 501.236L158.14 507.547L157.014 513.035L152.935 514.681L147.681 512.936L141.05 509.842L137.973 510.017L134.895 511.064L132.343 510.166L129.915 508.421L128.114 520.669L125.111 525.632L120.532 528.801L116.229 529L111.8 527.927H108.047L105.195 525.583L102.943 521.466L99.3394 516.453L95.6863 510.491L95.2862 505.102L94.6601 493.204L95.7115 490.609L97.2372 488.114L97.9878 482.776L97.4625 478.137L98.5384 476.466L100.666 478.137L102.267 477.513L102.167 475.118L102.642 470.753L99.8647 467.086L95.1358 465.839L94.6853 461.997L95.1854 458.255L97.6877 455.735L98.5384 452.393L98.5636 442.166L95.2358 438.399L93.9599 432.686L92.2334 429.019L89.1309 425.352L85.6275 422.359L83.4757 419.465L83 411.907L84.2263 405.596L85.3274 402.902L86.453 403.301L89.9311 406.444L92.7839 407.142L98.4139 407.89L103.943 406.893L110.749 404.024L117.304 400.557L126.787 390.354L132.643 388.284L135.645 385.59L136.671 381.948L139.149 381L142.076 384.517L145.704 384.891L151.284 387.81L153.686 390.603L155.763 393.946L157.739 395.418L159.866 396.267L160.192 397.064L158.515 397.863L156.588 401.704L157.689 402.802L160.742 404.897Z" fill="white" stroke="#808080" stroke-linecap="round" stroke-linejoin="round"/>
<path d="M99 518.951L95.6631 525L92.1358 520.732L92 517.049L92.4885 516L96.7751 517.536L99 518.951Z" fill="white" stroke="#808080" stroke-linecap="round" stroke-linejoin="round"/>
<path d="M89.0811 395.145L87.3968 398L85 397.803L85.9254 395.686L88.1325 391.428L90.8132 390L92 391.28L90.7422 393.717L89.0811 395.145Z" fill="white" stroke="#808080" stroke-linecap="round" stroke-linejoin="round"/>
</svg>
