<svg width="176" height="20" viewBox="0 0 176 20" fill="none" xmlns="http://www.w3.org/2000/svg">
<rect x="0.5" y="0.5" width="175" height="19" fill="black" stroke="black"/>
<path d="M5.612 5.524H7.304H7.412V5.656C7.372 5.704 7.344 5.756 7.328 5.812C7.32 5.868 7.316 5.964 7.316 6.1V11.632H10.628V13H5.612V5.524ZM13.268 13.144C12.66 13.144 12.184 13 11.84 12.712C11.496 12.416 11.324 12.028 11.324 11.548C11.324 11.244 11.388 10.964 11.516 10.708C11.644 10.444 11.844 10.216 12.116 10.024C12.388 9.824 12.736 9.668 13.16 9.556C13.584 9.444 14.092 9.388 14.684 9.388C14.708 9.388 14.752 9.388 14.816 9.388C14.88 9.388 14.952 9.388 15.032 9.388C15.112 9.388 15.18 9.388 15.236 9.388L15.284 10.516C15.236 10.516 15.168 10.516 15.08 10.516C14.992 10.516 14.9 10.52 14.804 10.528C14.716 10.528 14.648 10.528 14.6 10.528C14.256 10.528 13.98 10.552 13.772 10.6C13.564 10.64 13.404 10.7 13.292 10.78C13.188 10.852 13.116 10.936 13.076 11.032C13.036 11.12 13.016 11.208 13.016 11.296C13.016 11.392 13.032 11.476 13.064 11.548C13.096 11.62 13.14 11.676 13.196 11.716C13.252 11.756 13.32 11.788 13.4 11.812C13.48 11.828 13.564 11.836 13.652 11.836C13.844 11.836 14.008 11.804 14.144 11.74C14.28 11.676 14.392 11.572 14.48 11.428C14.576 11.276 14.644 11.084 14.684 10.852C14.732 10.62 14.756 10.336 14.756 10C14.756 9.592 14.716 9.28 14.636 9.064C14.564 8.848 14.456 8.704 14.312 8.632C14.176 8.552 14.008 8.512 13.808 8.512C13.56 8.512 13.332 8.548 13.124 8.62C12.916 8.684 12.696 8.836 12.464 9.076L11.504 8.092C11.864 7.764 12.248 7.536 12.656 7.408C13.072 7.28 13.476 7.216 13.868 7.216C14.212 7.216 14.536 7.256 14.84 7.336C15.152 7.408 15.428 7.532 15.668 7.708C15.916 7.884 16.108 8.128 16.244 8.44C16.388 8.744 16.46 9.128 16.46 9.592V13H14.744V12.556C14.64 12.652 14.536 12.74 14.432 12.82C14.336 12.892 14.228 12.952 14.108 13C13.996 13.048 13.872 13.084 13.736 13.108C13.6 13.132 13.444 13.144 13.268 13.144ZM17.516 13V7.348H19.232V7.996C19.36 7.844 19.492 7.712 19.628 7.6C19.764 7.48 19.916 7.388 20.084 7.324C20.26 7.252 20.456 7.216 20.672 7.216C21.008 7.216 21.324 7.3 21.62 7.468C21.916 7.628 22.156 7.884 22.34 8.236C22.524 8.58 22.616 9.036 22.616 9.604V13H20.912V9.616C20.912 9.36 20.888 9.148 20.84 8.98C20.792 8.804 20.716 8.672 20.612 8.584C20.508 8.496 20.376 8.452 20.216 8.452C20.088 8.452 19.964 8.48 19.844 8.536C19.724 8.584 19.616 8.656 19.52 8.752C19.432 8.848 19.36 8.964 19.304 9.1C19.256 9.236 19.232 9.388 19.232 9.556V13H17.516ZM25.64 13.144C25.312 13.144 25.004 13.084 24.716 12.964C24.436 12.836 24.188 12.648 23.972 12.4C23.764 12.152 23.6 11.844 23.48 11.476C23.36 11.1 23.3 10.664 23.3 10.168C23.3 9.696 23.352 9.276 23.456 8.908C23.568 8.54 23.724 8.232 23.924 7.984C24.132 7.728 24.38 7.536 24.668 7.408C24.956 7.28 25.276 7.216 25.628 7.216C25.772 7.216 25.916 7.228 26.06 7.252C26.212 7.276 26.352 7.32 26.48 7.384C26.608 7.448 26.716 7.548 26.804 7.684V4.9H28.508H28.616V5.032C28.576 5.08 28.548 5.132 28.532 5.188C28.516 5.244 28.512 5.34 28.52 5.476L28.496 12.328C28.496 12.44 28.504 12.552 28.52 12.664C28.536 12.776 28.572 12.888 28.628 13H26.972C26.932 12.92 26.904 12.864 26.888 12.832C26.872 12.8 26.864 12.764 26.864 12.724C26.864 12.684 26.864 12.628 26.864 12.556C26.768 12.7 26.656 12.816 26.528 12.904C26.4 12.992 26.26 13.052 26.108 13.084C25.956 13.124 25.8 13.144 25.64 13.144ZM25.94 11.824C26.076 11.824 26.196 11.796 26.3 11.74C26.412 11.684 26.504 11.596 26.576 11.476C26.656 11.348 26.716 11.176 26.756 10.96C26.796 10.744 26.816 10.48 26.816 10.168C26.816 9.752 26.784 9.424 26.72 9.184C26.656 8.936 26.556 8.76 26.42 8.656C26.292 8.552 26.128 8.5 25.928 8.5C25.776 8.5 25.636 8.54 25.508 8.62C25.388 8.7 25.288 8.816 25.208 8.968C25.128 9.112 25.064 9.292 25.016 9.508C24.976 9.716 24.956 9.952 24.956 10.216C24.956 10.56 25.008 10.852 25.112 11.092C25.216 11.332 25.344 11.516 25.496 11.644C25.648 11.764 25.796 11.824 25.94 11.824ZM32.18 13.144C31.812 13.144 31.46 13.112 31.124 13.048C30.796 12.992 30.492 12.9 30.212 12.772C29.932 12.636 29.676 12.46 29.444 12.244L30.116 10.948L30.164 10.852L30.272 10.912C30.296 10.968 30.32 11.032 30.344 11.104C30.376 11.168 30.44 11.244 30.536 11.332C30.76 11.5 31.004 11.628 31.268 11.716C31.54 11.804 31.848 11.848 32.192 11.848C32.368 11.848 32.516 11.828 32.636 11.788C32.764 11.748 32.86 11.696 32.924 11.632C32.996 11.56 33.032 11.484 33.032 11.404C33.032 11.324 33.004 11.256 32.948 11.2C32.9 11.144 32.824 11.096 32.72 11.056C32.624 11.008 32.496 10.96 32.336 10.912C32.176 10.864 31.988 10.812 31.772 10.756C31.372 10.652 31.024 10.524 30.728 10.372C30.44 10.22 30.216 10.032 30.056 9.808C29.896 9.576 29.816 9.3 29.816 8.98C29.816 8.652 29.916 8.356 30.116 8.092C30.316 7.828 30.588 7.616 30.932 7.456C31.284 7.296 31.684 7.216 32.132 7.216C32.348 7.216 32.56 7.236 32.768 7.276C32.984 7.308 33.188 7.36 33.38 7.432C33.572 7.496 33.756 7.584 33.932 7.696C34.108 7.8 34.272 7.924 34.424 8.068L33.644 9.208L33.572 9.304L33.464 9.22C33.456 9.156 33.436 9.096 33.404 9.04C33.38 8.984 33.32 8.912 33.224 8.824C33.072 8.72 32.904 8.648 32.72 8.608C32.544 8.56 32.356 8.536 32.156 8.536C31.924 8.536 31.72 8.572 31.544 8.644C31.368 8.716 31.28 8.824 31.28 8.968C31.28 9.064 31.328 9.144 31.424 9.208C31.52 9.272 31.66 9.332 31.844 9.388C32.036 9.436 32.272 9.492 32.552 9.556C33 9.652 33.368 9.784 33.656 9.952C33.944 10.112 34.156 10.308 34.292 10.54C34.436 10.772 34.508 11.04 34.508 11.344C34.508 11.664 34.416 11.964 34.232 12.244C34.048 12.516 33.78 12.736 33.428 12.904C33.084 13.064 32.668 13.144 32.18 13.144ZM38.288 13.144C37.872 13.144 37.484 13.076 37.124 12.94C36.764 12.796 36.448 12.596 36.176 12.34C35.912 12.076 35.704 11.768 35.552 11.416C35.408 11.064 35.336 10.676 35.336 10.252C35.336 9.836 35.408 9.444 35.552 9.076C35.704 8.708 35.912 8.388 36.176 8.116C36.448 7.836 36.764 7.616 37.124 7.456C37.484 7.296 37.876 7.216 38.3 7.216C38.86 7.216 39.34 7.316 39.74 7.516C40.14 7.708 40.456 7.98 40.688 8.332L39.788 9.352L39.716 9.436L39.608 9.352C39.6 9.288 39.592 9.22 39.584 9.148C39.576 9.076 39.532 8.988 39.452 8.884C39.316 8.748 39.16 8.656 38.984 8.608C38.808 8.56 38.608 8.536 38.384 8.536C38.208 8.536 38.04 8.576 37.88 8.656C37.72 8.728 37.576 8.836 37.448 8.98C37.32 9.124 37.22 9.304 37.148 9.52C37.076 9.736 37.04 9.988 37.04 10.276C37.04 10.524 37.076 10.748 37.148 10.948C37.228 11.14 37.328 11.3 37.448 11.428C37.576 11.556 37.716 11.656 37.868 11.728C38.028 11.792 38.188 11.824 38.348 11.824C38.508 11.824 38.664 11.804 38.816 11.764C38.976 11.724 39.132 11.656 39.284 11.56C39.444 11.456 39.596 11.312 39.74 11.128L40.652 12.172C40.34 12.524 39.968 12.776 39.536 12.928C39.104 13.072 38.688 13.144 38.288 13.144ZM43.268 13.144C42.66 13.144 42.184 13 41.84 12.712C41.496 12.416 41.324 12.028 41.324 11.548C41.324 11.244 41.388 10.964 41.516 10.708C41.644 10.444 41.844 10.216 42.116 10.024C42.388 9.824 42.736 9.668 43.16 9.556C43.584 9.444 44.092 9.388 44.684 9.388C44.708 9.388 44.752 9.388 44.816 9.388C44.88 9.388 44.952 9.388 45.032 9.388C45.112 9.388 45.18 9.388 45.236 9.388L45.284 10.516C45.236 10.516 45.168 10.516 45.08 10.516C44.992 10.516 44.9 10.52 44.804 10.528C44.716 10.528 44.648 10.528 44.6 10.528C44.256 10.528 43.98 10.552 43.772 10.6C43.564 10.64 43.404 10.7 43.292 10.78C43.188 10.852 43.116 10.936 43.076 11.032C43.036 11.12 43.016 11.208 43.016 11.296C43.016 11.392 43.032 11.476 43.064 11.548C43.096 11.62 43.14 11.676 43.196 11.716C43.252 11.756 43.32 11.788 43.4 11.812C43.48 11.828 43.564 11.836 43.652 11.836C43.844 11.836 44.008 11.804 44.144 11.74C44.28 11.676 44.392 11.572 44.48 11.428C44.576 11.276 44.644 11.084 44.684 10.852C44.732 10.62 44.756 10.336 44.756 10C44.756 9.592 44.716 9.28 44.636 9.064C44.564 8.848 44.456 8.704 44.312 8.632C44.176 8.552 44.008 8.512 43.808 8.512C43.56 8.512 43.332 8.548 43.124 8.62C42.916 8.684 42.696 8.836 42.464 9.076L41.504 8.092C41.864 7.764 42.248 7.536 42.656 7.408C43.072 7.28 43.476 7.216 43.868 7.216C44.212 7.216 44.536 7.256 44.84 7.336C45.152 7.408 45.428 7.532 45.668 7.708C45.916 7.884 46.108 8.128 46.244 8.44C46.388 8.744 46.46 9.128 46.46 9.592V13H44.744V12.556C44.64 12.652 44.536 12.74 44.432 12.82C44.336 12.892 44.228 12.952 44.108 13C43.996 13.048 43.872 13.084 43.736 13.108C43.6 13.132 43.444 13.144 43.268 13.144ZM47.48 15.004L47.468 7.336H49.124V7.924C49.268 7.756 49.416 7.62 49.568 7.516C49.728 7.412 49.896 7.336 50.072 7.288C50.248 7.24 50.432 7.216 50.624 7.216C50.928 7.216 51.208 7.284 51.464 7.42C51.728 7.548 51.956 7.74 52.148 7.996C52.348 8.252 52.504 8.568 52.616 8.944C52.728 9.312 52.784 9.74 52.784 10.228C52.784 10.724 52.724 11.156 52.604 11.524C52.492 11.892 52.332 12.196 52.124 12.436C51.924 12.676 51.692 12.856 51.428 12.976C51.164 13.088 50.888 13.144 50.6 13.144C50.416 13.144 50.232 13.128 50.048 13.096C49.872 13.064 49.708 13.016 49.556 12.952C49.404 12.88 49.28 12.792 49.184 12.688V15.004H47.48ZM50.072 11.896C50.24 11.896 50.388 11.864 50.516 11.8C50.644 11.736 50.752 11.636 50.84 11.5C50.936 11.364 51.008 11.18 51.056 10.948C51.104 10.716 51.128 10.432 51.128 10.096C51.128 9.768 51.084 9.484 50.996 9.244C50.916 9.004 50.8 8.82 50.648 8.692C50.496 8.564 50.316 8.5 50.108 8.5C49.94 8.5 49.796 8.536 49.676 8.608C49.556 8.672 49.46 8.776 49.388 8.92C49.316 9.056 49.264 9.232 49.232 9.448C49.2 9.664 49.184 9.92 49.184 10.216C49.184 10.448 49.192 10.656 49.208 10.84C49.232 11.016 49.264 11.172 49.304 11.308C49.352 11.436 49.408 11.544 49.472 11.632C49.544 11.72 49.628 11.788 49.724 11.836C49.828 11.876 49.944 11.896 50.072 11.896ZM56.24 13.144C55.84 13.144 55.464 13.08 55.112 12.952C54.768 12.816 54.464 12.624 54.2 12.376C53.944 12.128 53.744 11.824 53.6 11.464C53.456 11.096 53.384 10.684 53.384 10.228C53.384 9.764 53.452 9.348 53.588 8.98C53.732 8.604 53.924 8.288 54.164 8.032C54.412 7.768 54.7 7.568 55.028 7.432C55.356 7.288 55.712 7.216 56.096 7.216C56.424 7.216 56.736 7.276 57.032 7.396C57.336 7.516 57.604 7.696 57.836 7.936C58.068 8.168 58.252 8.46 58.388 8.812C58.524 9.156 58.592 9.552 58.592 10C58.592 10.096 58.592 10.216 58.592 10.36C58.592 10.504 58.588 10.62 58.58 10.708H55.016C55.032 10.908 55.08 11.08 55.16 11.224C55.24 11.36 55.34 11.476 55.46 11.572C55.588 11.66 55.724 11.728 55.868 11.776C56.02 11.816 56.172 11.836 56.324 11.836C56.484 11.836 56.636 11.824 56.78 11.8C56.924 11.776 57.064 11.732 57.2 11.668C57.336 11.596 57.468 11.496 57.596 11.368L58.436 12.184C58.244 12.408 58.032 12.592 57.8 12.736C57.568 12.88 57.32 12.984 57.056 13.048C56.792 13.112 56.52 13.144 56.24 13.144ZM55.028 9.46H56.984C56.984 9.3 56.964 9.164 56.924 9.052C56.884 8.932 56.824 8.836 56.744 8.764C56.664 8.684 56.564 8.628 56.444 8.596C56.324 8.556 56.188 8.536 56.036 8.536C55.9 8.536 55.772 8.556 55.652 8.596C55.54 8.628 55.44 8.684 55.352 8.764C55.264 8.836 55.192 8.932 55.136 9.052C55.08 9.164 55.044 9.3 55.028 9.46ZM67.016 13.528L65.408 12.856L69.056 4.984L70.616 5.776L67.016 13.528ZM77.48 13V5.524H80.132C80.724 5.524 81.216 5.628 81.608 5.836C82 6.036 82.292 6.308 82.484 6.652C82.676 6.988 82.772 7.36 82.772 7.768C82.772 8.072 82.716 8.36 82.604 8.632C82.5 8.896 82.34 9.128 82.124 9.328C81.916 9.528 81.648 9.688 81.32 9.808C81 9.92 80.624 9.976 80.192 9.976H79.208V13H77.48ZM79.208 8.596H80.096C80.28 8.596 80.44 8.56 80.576 8.488C80.72 8.416 80.832 8.316 80.912 8.188C80.992 8.06 81.032 7.916 81.032 7.756C81.032 7.588 80.992 7.444 80.912 7.324C80.832 7.204 80.724 7.112 80.588 7.048C80.452 6.984 80.292 6.952 80.108 6.952H79.208V8.596ZM83.624 13V11.68H85.16V6.22H83.696V4.9H86.864V11.68H88.388V13H83.624ZM91.268 13.144C90.66 13.144 90.184 13 89.84 12.712C89.496 12.416 89.324 12.028 89.324 11.548C89.324 11.244 89.388 10.964 89.516 10.708C89.644 10.444 89.844 10.216 90.116 10.024C90.388 9.824 90.736 9.668 91.16 9.556C91.584 9.444 92.092 9.388 92.684 9.388C92.708 9.388 92.752 9.388 92.816 9.388C92.88 9.388 92.952 9.388 93.032 9.388C93.112 9.388 93.18 9.388 93.236 9.388L93.284 10.516C93.236 10.516 93.168 10.516 93.08 10.516C92.992 10.516 92.9 10.52 92.804 10.528C92.716 10.528 92.648 10.528 92.6 10.528C92.256 10.528 91.98 10.552 91.772 10.6C91.564 10.64 91.404 10.7 91.292 10.78C91.188 10.852 91.116 10.936 91.076 11.032C91.036 11.12 91.016 11.208 91.016 11.296C91.016 11.392 91.032 11.476 91.064 11.548C91.096 11.62 91.14 11.676 91.196 11.716C91.252 11.756 91.32 11.788 91.4 11.812C91.48 11.828 91.564 11.836 91.652 11.836C91.844 11.836 92.008 11.804 92.144 11.74C92.28 11.676 92.392 11.572 92.48 11.428C92.576 11.276 92.644 11.084 92.684 10.852C92.732 10.62 92.756 10.336 92.756 10C92.756 9.592 92.716 9.28 92.636 9.064C92.564 8.848 92.456 8.704 92.312 8.632C92.176 8.552 92.008 8.512 91.808 8.512C91.56 8.512 91.332 8.548 91.124 8.62C90.916 8.684 90.696 8.836 90.464 9.076L89.504 8.092C89.864 7.764 90.248 7.536 90.656 7.408C91.072 7.28 91.476 7.216 91.868 7.216C92.212 7.216 92.536 7.256 92.84 7.336C93.152 7.408 93.428 7.532 93.668 7.708C93.916 7.884 94.108 8.128 94.244 8.44C94.388 8.744 94.46 9.128 94.46 9.592V13H92.744V12.556C92.64 12.652 92.536 12.74 92.432 12.82C92.336 12.892 92.228 12.952 92.108 13C91.996 13.048 91.872 13.084 91.736 13.108C91.6 13.132 91.444 13.144 91.268 13.144ZM95.516 13V7.348H97.232V7.996C97.36 7.844 97.492 7.712 97.628 7.6C97.764 7.48 97.916 7.388 98.084 7.324C98.26 7.252 98.456 7.216 98.672 7.216C99.008 7.216 99.324 7.3 99.62 7.468C99.916 7.628 100.156 7.884 100.34 8.236C100.524 8.58 100.616 9.036 100.616 9.604V13H98.912V9.616C98.912 9.36 98.888 9.148 98.84 8.98C98.792 8.804 98.716 8.672 98.612 8.584C98.508 8.496 98.376 8.452 98.216 8.452C98.088 8.452 97.964 8.48 97.844 8.536C97.724 8.584 97.616 8.656 97.52 8.752C97.432 8.848 97.36 8.964 97.304 9.1C97.256 9.236 97.232 9.388 97.232 9.556V13H95.516ZM101.516 13V7.348H103.232V7.996C103.36 7.844 103.492 7.712 103.628 7.6C103.764 7.48 103.916 7.388 104.084 7.324C104.26 7.252 104.456 7.216 104.672 7.216C105.008 7.216 105.324 7.3 105.62 7.468C105.916 7.628 106.156 7.884 106.34 8.236C106.524 8.58 106.616 9.036 106.616 9.604V13H104.912V9.616C104.912 9.36 104.888 9.148 104.84 8.98C104.792 8.804 104.716 8.672 104.612 8.584C104.508 8.496 104.376 8.452 104.216 8.452C104.088 8.452 103.964 8.48 103.844 8.536C103.724 8.584 103.616 8.656 103.52 8.752C103.432 8.848 103.36 8.964 103.304 9.1C103.256 9.236 103.232 9.388 103.232 9.556V13H101.516ZM107.888 13V11.68H109.232V8.668H107.948V7.348H110.936V11.68H112.16V13H107.888ZM110 6.58C109.72 6.58 109.48 6.488 109.28 6.304C109.088 6.112 108.992 5.888 108.992 5.632C108.992 5.352 109.084 5.124 109.268 4.948C109.46 4.772 109.704 4.684 110 4.684C110.264 4.684 110.496 4.78 110.696 4.972C110.904 5.156 111.008 5.376 111.008 5.632C111.008 5.888 110.904 6.112 110.696 6.304C110.496 6.488 110.264 6.58 110 6.58ZM113.516 13V7.348H115.232V7.996C115.36 7.844 115.492 7.712 115.628 7.6C115.764 7.48 115.916 7.388 116.084 7.324C116.26 7.252 116.456 7.216 116.672 7.216C117.008 7.216 117.324 7.3 117.62 7.468C117.916 7.628 118.156 7.884 118.34 8.236C118.524 8.58 118.616 9.036 118.616 9.604V13H116.912V9.616C116.912 9.36 116.888 9.148 116.84 8.98C116.792 8.804 116.716 8.672 116.612 8.584C116.508 8.496 116.376 8.452 116.216 8.452C116.088 8.452 115.964 8.48 115.844 8.536C115.724 8.584 115.616 8.656 115.52 8.752C115.432 8.848 115.36 8.964 115.304 9.1C115.256 9.236 115.232 9.388 115.232 9.556V13H113.516ZM121.796 15.196C121.396 15.196 121.036 15.156 120.716 15.076C120.404 15.004 120.14 14.9 119.924 14.764C119.708 14.628 119.544 14.468 119.432 14.284C119.32 14.1 119.264 13.904 119.264 13.696C119.264 13.52 119.312 13.352 119.408 13.192C119.504 13.032 119.636 12.888 119.804 12.76C119.972 12.624 120.156 12.516 120.356 12.436L121.136 12.712C121.048 12.784 120.948 12.856 120.836 12.928C120.732 12.992 120.644 13.06 120.572 13.132C120.5 13.212 120.464 13.304 120.464 13.408C120.464 13.496 120.504 13.568 120.584 13.624C120.664 13.688 120.772 13.736 120.908 13.768C121.052 13.808 121.212 13.836 121.388 13.852C121.572 13.868 121.768 13.876 121.976 13.876C122.24 13.876 122.468 13.856 122.66 13.816C122.86 13.776 123.012 13.716 123.116 13.636C123.228 13.556 123.284 13.464 123.284 13.36C123.284 13.272 123.252 13.204 123.188 13.156C123.124 13.108 123.02 13.072 122.876 13.048C122.732 13.032 122.544 13.024 122.312 13.024C122.064 13.024 121.808 13.016 121.544 13C121.288 12.976 121.04 12.936 120.8 12.88C120.56 12.824 120.34 12.748 120.14 12.652C119.948 12.556 119.796 12.436 119.684 12.292C119.572 12.14 119.516 11.956 119.516 11.74C119.516 11.444 119.608 11.2 119.792 11.008C119.976 10.808 120.188 10.636 120.428 10.492L121.184 10.864C121.112 10.928 121.04 10.98 120.968 11.02C120.904 11.052 120.848 11.088 120.8 11.128C120.76 11.16 120.74 11.216 120.74 11.296C120.74 11.368 120.812 11.432 120.956 11.488C121.1 11.544 121.324 11.588 121.628 11.62C121.932 11.644 122.324 11.656 122.804 11.656C123.116 11.656 123.384 11.7 123.608 11.788C123.84 11.868 124.028 11.984 124.172 12.136C124.324 12.28 124.436 12.444 124.508 12.628C124.58 12.812 124.616 13.008 124.616 13.216C124.616 13.464 124.556 13.704 124.436 13.936C124.324 14.176 124.148 14.388 123.908 14.572C123.676 14.764 123.384 14.916 123.032 15.028C122.68 15.14 122.268 15.196 121.796 15.196ZM121.784 11.104C121.392 11.104 121.028 11.02 120.692 10.852C120.364 10.684 120.1 10.456 119.9 10.168C119.708 9.88 119.612 9.552 119.612 9.184C119.612 8.816 119.708 8.484 119.9 8.188C120.1 7.892 120.364 7.656 120.692 7.48C121.028 7.304 121.392 7.216 121.784 7.216C122.184 7.216 122.548 7.304 122.876 7.48C123.204 7.656 123.464 7.892 123.656 8.188C123.856 8.484 123.956 8.816 123.956 9.184C123.956 9.552 123.856 9.88 123.656 10.168C123.464 10.456 123.204 10.684 122.876 10.852C122.548 11.02 122.184 11.104 121.784 11.104ZM121.772 9.94C121.916 9.94 122.044 9.912 122.156 9.856C122.268 9.792 122.356 9.704 122.42 9.592C122.492 9.472 122.528 9.336 122.528 9.184C122.528 9.032 122.492 8.904 122.42 8.8C122.356 8.696 122.264 8.616 122.144 8.56C122.032 8.496 121.908 8.464 121.772 8.464C121.66 8.464 121.548 8.496 121.436 8.56C121.324 8.624 121.228 8.712 121.148 8.824C121.076 8.928 121.04 9.048 121.04 9.184C121.04 9.32 121.072 9.448 121.136 9.568C121.208 9.68 121.3 9.772 121.412 9.844C121.524 9.908 121.644 9.94 121.772 9.94ZM123.608 8.464L122.972 7.66C123.196 7.516 123.464 7.4 123.776 7.312C124.088 7.224 124.408 7.192 124.736 7.216L124.88 8.296C124.656 8.24 124.428 8.232 124.196 8.272C123.964 8.304 123.768 8.368 123.608 8.464ZM131.48 13V5.524H134.132C134.724 5.524 135.216 5.628 135.608 5.836C136 6.036 136.292 6.308 136.484 6.652C136.676 6.988 136.772 7.36 136.772 7.768C136.772 8.072 136.716 8.36 136.604 8.632C136.5 8.896 136.34 9.128 136.124 9.328C135.916 9.528 135.648 9.688 135.32 9.808C135 9.92 134.624 9.976 134.192 9.976H133.208V13H131.48ZM133.208 8.596H134.096C134.28 8.596 134.44 8.56 134.576 8.488C134.72 8.416 134.832 8.316 134.912 8.188C134.992 8.06 135.032 7.916 135.032 7.756C135.032 7.588 134.992 7.444 134.912 7.324C134.832 7.204 134.724 7.112 134.588 7.048C134.452 6.984 134.292 6.952 134.108 6.952H133.208V8.596ZM137.828 7.348H139.568V8.896L139.376 8.848C139.4 8.608 139.46 8.392 139.556 8.2C139.66 8 139.792 7.828 139.952 7.684C140.112 7.532 140.288 7.416 140.48 7.336C140.68 7.256 140.884 7.216 141.092 7.216C141.42 7.216 141.712 7.268 141.968 7.372C142.224 7.476 142.464 7.644 142.688 7.876L141.992 9.328L141.956 9.424L141.836 9.376C141.804 9.312 141.78 9.244 141.764 9.172C141.748 9.092 141.696 9.004 141.608 8.908C141.504 8.82 141.384 8.748 141.248 8.692C141.12 8.628 140.976 8.596 140.816 8.596C140.632 8.596 140.46 8.624 140.3 8.68C140.148 8.736 140.016 8.824 139.904 8.944C139.792 9.064 139.704 9.216 139.64 9.4C139.576 9.584 139.544 9.804 139.544 10.06V13H137.828V7.348ZM145.988 13.144C145.484 13.144 145.024 13.024 144.608 12.784C144.192 12.536 143.86 12.188 143.612 11.74C143.364 11.292 143.24 10.772 143.24 10.18C143.24 9.628 143.364 9.128 143.612 8.68C143.86 8.232 144.192 7.876 144.608 7.612C145.024 7.348 145.484 7.216 145.988 7.216C146.492 7.216 146.952 7.348 147.368 7.612C147.792 7.876 148.128 8.232 148.376 8.68C148.632 9.128 148.76 9.628 148.76 10.18C148.76 10.764 148.632 11.28 148.376 11.728C148.128 12.176 147.792 12.524 147.368 12.772C146.952 13.02 146.492 13.144 145.988 13.144ZM145.988 11.812C146.204 11.812 146.392 11.744 146.552 11.608C146.72 11.472 146.852 11.284 146.948 11.044C147.044 10.796 147.092 10.508 147.092 10.18C147.092 9.828 147.044 9.532 146.948 9.292C146.852 9.052 146.72 8.868 146.552 8.74C146.392 8.612 146.204 8.548 145.988 8.548C145.788 8.548 145.604 8.612 145.436 8.74C145.276 8.868 145.148 9.052 145.052 9.292C144.956 9.532 144.908 9.828 144.908 10.18C144.908 10.508 144.952 10.796 145.04 11.044C145.136 11.284 145.264 11.472 145.424 11.608C145.592 11.744 145.78 11.812 145.988 11.812ZM151.268 15.124C150.868 15.124 150.508 15.044 150.188 14.884C149.876 14.732 149.584 14.508 149.312 14.212L150.224 13.012L150.296 12.928L150.404 13C150.42 13.064 150.432 13.128 150.44 13.192C150.456 13.264 150.504 13.352 150.584 13.456C150.672 13.544 150.768 13.612 150.872 13.66C150.984 13.716 151.116 13.744 151.268 13.744C151.452 13.744 151.592 13.708 151.688 13.636C151.792 13.564 151.86 13.452 151.892 13.3C151.932 13.156 151.952 12.98 151.952 12.772V8.668H150.068V7.348H153.668V12.604C153.668 13.204 153.552 13.688 153.32 14.056C153.088 14.432 152.788 14.704 152.42 14.872C152.06 15.04 151.676 15.124 151.268 15.124ZM152.696 6.58C152.416 6.58 152.176 6.488 151.976 6.304C151.784 6.112 151.688 5.888 151.688 5.632C151.688 5.352 151.78 5.124 151.964 4.948C152.156 4.772 152.4 4.684 152.696 4.684C152.96 4.684 153.192 4.78 153.392 4.972C153.6 5.156 153.704 5.376 153.704 5.632C153.704 5.888 153.6 6.112 153.392 6.304C153.192 6.488 152.96 6.58 152.696 6.58ZM158.24 13.144C157.84 13.144 157.464 13.08 157.112 12.952C156.768 12.816 156.464 12.624 156.2 12.376C155.944 12.128 155.744 11.824 155.6 11.464C155.456 11.096 155.384 10.684 155.384 10.228C155.384 9.764 155.452 9.348 155.588 8.98C155.732 8.604 155.924 8.288 156.164 8.032C156.412 7.768 156.7 7.568 157.028 7.432C157.356 7.288 157.712 7.216 158.096 7.216C158.424 7.216 158.736 7.276 159.032 7.396C159.336 7.516 159.604 7.696 159.836 7.936C160.068 8.168 160.252 8.46 160.388 8.812C160.524 9.156 160.592 9.552 160.592 10C160.592 10.096 160.592 10.216 160.592 10.36C160.592 10.504 160.588 10.62 160.58 10.708H157.016C157.032 10.908 157.08 11.08 157.16 11.224C157.24 11.36 157.34 11.476 157.46 11.572C157.588 11.66 157.724 11.728 157.868 11.776C158.02 11.816 158.172 11.836 158.324 11.836C158.484 11.836 158.636 11.824 158.78 11.8C158.924 11.776 159.064 11.732 159.2 11.668C159.336 11.596 159.468 11.496 159.596 11.368L160.436 12.184C160.244 12.408 160.032 12.592 159.8 12.736C159.568 12.88 159.32 12.984 159.056 13.048C158.792 13.112 158.52 13.144 158.24 13.144ZM157.028 9.46H158.984C158.984 9.3 158.964 9.164 158.924 9.052C158.884 8.932 158.824 8.836 158.744 8.764C158.664 8.684 158.564 8.628 158.444 8.596C158.324 8.556 158.188 8.536 158.036 8.536C157.9 8.536 157.772 8.556 157.652 8.596C157.54 8.628 157.44 8.684 157.352 8.764C157.264 8.836 157.192 8.932 157.136 9.052C157.08 9.164 157.044 9.3 157.028 9.46ZM164.288 13.144C163.872 13.144 163.484 13.076 163.124 12.94C162.764 12.796 162.448 12.596 162.176 12.34C161.912 12.076 161.704 11.768 161.552 11.416C161.408 11.064 161.336 10.676 161.336 10.252C161.336 9.836 161.408 9.444 161.552 9.076C161.704 8.708 161.912 8.388 162.176 8.116C162.448 7.836 162.764 7.616 163.124 7.456C163.484 7.296 163.876 7.216 164.3 7.216C164.86 7.216 165.34 7.316 165.74 7.516C166.14 7.708 166.456 7.98 166.688 8.332L165.788 9.352L165.716 9.436L165.608 9.352C165.6 9.288 165.592 9.22 165.584 9.148C165.576 9.076 165.532 8.988 165.452 8.884C165.316 8.748 165.16 8.656 164.984 8.608C164.808 8.56 164.608 8.536 164.384 8.536C164.208 8.536 164.04 8.576 163.88 8.656C163.72 8.728 163.576 8.836 163.448 8.98C163.32 9.124 163.22 9.304 163.148 9.52C163.076 9.736 163.04 9.988 163.04 10.276C163.04 10.524 163.076 10.748 163.148 10.948C163.228 11.14 163.328 11.3 163.448 11.428C163.576 11.556 163.716 11.656 163.868 11.728C164.028 11.792 164.188 11.824 164.348 11.824C164.508 11.824 164.664 11.804 164.816 11.764C164.976 11.724 165.132 11.656 165.284 11.56C165.444 11.456 165.596 11.312 165.74 11.128L166.652 12.172C166.34 12.524 165.968 12.776 165.536 12.928C165.104 13.072 164.688 13.144 164.288 13.144ZM170.588 13.144C170.292 13.144 170.02 13.096 169.772 13C169.524 12.912 169.312 12.76 169.136 12.544C168.96 12.32 168.828 12.016 168.74 11.632C168.652 11.248 168.62 10.76 168.644 10.168L168.812 6.088L170.54 5.86L170.648 5.848L170.66 5.98C170.628 6.036 170.596 6.092 170.564 6.148C170.532 6.204 170.512 6.3 170.504 6.436L170.36 8.284H170.432L170.336 10.084C170.312 10.54 170.328 10.896 170.384 11.152C170.448 11.4 170.536 11.572 170.648 11.668C170.768 11.764 170.892 11.812 171.02 11.812C171.268 11.812 171.492 11.76 171.692 11.656C171.9 11.552 172.08 11.436 172.232 11.308L172.52 12.496C172.248 12.696 171.952 12.856 171.632 12.976C171.32 13.088 170.972 13.144 170.588 13.144ZM167.612 7.348H172.148L172.124 8.668H167.588L167.612 7.348Z" fill="white"/>
</svg>
