<svg width="176" height="20" viewBox="0 0 176 20" fill="none" xmlns="http://www.w3.org/2000/svg">
<rect x="0.5" y="0.5" width="175" height="19" stroke="black"/>
<path d="M5.792 5.524H6.656H6.776V5.608C6.728 5.656 6.696 5.708 6.68 5.764C6.672 5.82 6.668 5.916 6.668 6.052V12.28H10.268V13H5.792V5.524ZM13.532 13.132C12.908 13.132 12.428 12.992 12.092 12.712C11.756 12.424 11.588 12.06 11.588 11.62C11.588 11.324 11.66 11.06 11.804 10.828C11.948 10.588 12.144 10.388 12.392 10.228C12.648 10.06 12.944 9.932 13.28 9.844C13.616 9.756 13.972 9.712 14.348 9.712C14.484 9.712 14.62 9.716 14.756 9.724C14.9 9.724 15.048 9.732 15.2 9.748C15.36 9.756 15.524 9.772 15.692 9.796L15.716 10.456C15.572 10.432 15.424 10.416 15.272 10.408C15.128 10.392 14.984 10.38 14.84 10.372C14.696 10.364 14.556 10.36 14.42 10.36C14.132 10.36 13.868 10.384 13.628 10.432C13.388 10.48 13.18 10.552 13.004 10.648C12.828 10.744 12.692 10.868 12.596 11.02C12.5 11.172 12.452 11.356 12.452 11.572C12.452 11.74 12.48 11.884 12.536 12.004C12.6 12.116 12.684 12.208 12.788 12.28C12.892 12.344 13.012 12.392 13.148 12.424C13.292 12.456 13.448 12.472 13.616 12.472C13.928 12.472 14.204 12.424 14.444 12.328C14.692 12.224 14.9 12.076 15.068 11.884C15.244 11.692 15.376 11.456 15.464 11.176C15.552 10.896 15.596 10.576 15.596 10.216C15.596 9.672 15.532 9.248 15.404 8.944C15.276 8.64 15.084 8.424 14.828 8.296C14.58 8.168 14.26 8.104 13.868 8.104C13.604 8.104 13.344 8.156 13.088 8.26C12.832 8.356 12.6 8.508 12.392 8.716L11.972 8.164C12.228 7.908 12.524 7.716 12.86 7.588C13.196 7.46 13.552 7.396 13.928 7.396C14.288 7.396 14.616 7.44 14.912 7.528C15.208 7.616 15.46 7.764 15.668 7.972C15.884 8.172 16.048 8.444 16.16 8.788C16.28 9.132 16.34 9.564 16.34 10.084V13H15.404V12.16C15.3 12.36 15.172 12.524 15.02 12.652C14.876 12.78 14.72 12.88 14.552 12.952C14.384 13.016 14.212 13.06 14.036 13.084C13.86 13.116 13.692 13.132 13.532 13.132ZM17.864 13V7.516H18.704V8.488C18.848 8.264 19.016 8.072 19.208 7.912C19.4 7.744 19.612 7.616 19.844 7.528C20.076 7.432 20.316 7.384 20.564 7.384C20.868 7.384 21.14 7.46 21.38 7.612C21.62 7.764 21.812 8.008 21.956 8.344C22.1 8.68 22.172 9.124 22.172 9.676V13H21.332V9.7C21.332 9.316 21.288 9.012 21.2 8.788C21.112 8.556 20.992 8.392 20.84 8.296C20.688 8.192 20.516 8.14 20.324 8.14C20.14 8.14 19.952 8.18 19.76 8.26C19.576 8.34 19.404 8.456 19.244 8.608C19.084 8.752 18.952 8.928 18.848 9.136C18.752 9.344 18.704 9.58 18.704 9.844V13H17.864ZM25.808 13.12C25.528 13.12 25.252 13.06 24.98 12.94C24.716 12.82 24.472 12.64 24.248 12.4C24.032 12.16 23.86 11.856 23.732 11.488C23.604 11.12 23.54 10.692 23.54 10.204C23.54 9.7 23.608 9.272 23.744 8.92C23.88 8.56 24.06 8.268 24.284 8.044C24.508 7.812 24.756 7.644 25.028 7.54C25.3 7.428 25.576 7.372 25.856 7.372C26.112 7.372 26.34 7.412 26.54 7.492C26.748 7.572 26.928 7.684 27.08 7.828C27.24 7.964 27.364 8.128 27.452 8.32V5.02H28.244H28.364V5.104C28.316 5.152 28.284 5.204 28.268 5.26C28.26 5.316 28.256 5.412 28.256 5.548L28.268 12.148C28.268 12.292 28.272 12.436 28.28 12.58C28.296 12.716 28.332 12.856 28.388 13H27.536C27.496 12.904 27.468 12.808 27.452 12.712C27.436 12.616 27.424 12.524 27.416 12.436C27.416 12.34 27.416 12.244 27.416 12.148C27.304 12.34 27.168 12.512 27.008 12.664C26.848 12.808 26.668 12.92 26.468 13C26.268 13.08 26.048 13.12 25.808 13.12ZM25.94 12.364C26.204 12.364 26.428 12.312 26.612 12.208C26.796 12.096 26.944 11.944 27.056 11.752C27.168 11.552 27.248 11.324 27.296 11.068C27.352 10.804 27.38 10.524 27.38 10.228C27.38 9.82 27.328 9.456 27.224 9.136C27.12 8.808 26.956 8.552 26.732 8.368C26.508 8.176 26.22 8.08 25.868 8.08C25.628 8.08 25.412 8.128 25.22 8.224C25.036 8.312 24.88 8.444 24.752 8.62C24.632 8.796 24.54 9.008 24.476 9.256C24.412 9.496 24.38 9.768 24.38 10.072C24.38 10.528 24.44 10.928 24.56 11.272C24.68 11.616 24.856 11.884 25.088 12.076C25.32 12.268 25.604 12.364 25.94 12.364ZM32.012 13.12C31.708 13.12 31.416 13.088 31.136 13.024C30.864 12.96 30.604 12.864 30.356 12.736C30.116 12.608 29.892 12.448 29.684 12.256L30.164 11.44L30.236 11.332L30.308 11.38C30.324 11.444 30.34 11.512 30.356 11.584C30.38 11.648 30.436 11.728 30.524 11.824C30.692 11.992 30.892 12.132 31.124 12.244C31.364 12.348 31.668 12.4 32.036 12.4C32.332 12.4 32.58 12.364 32.78 12.292C32.988 12.22 33.148 12.12 33.26 11.992C33.372 11.856 33.428 11.7 33.428 11.524C33.428 11.404 33.404 11.3 33.356 11.212C33.308 11.116 33.228 11.028 33.116 10.948C33.012 10.868 32.872 10.788 32.696 10.708C32.52 10.628 32.304 10.548 32.048 10.468C31.632 10.348 31.268 10.208 30.956 10.048C30.644 9.888 30.404 9.704 30.236 9.496C30.068 9.28 29.984 9.036 29.984 8.764C29.984 8.484 30.06 8.244 30.212 8.044C30.364 7.836 30.588 7.676 30.884 7.564C31.188 7.444 31.56 7.384 32 7.384C32.256 7.384 32.488 7.404 32.696 7.444C32.904 7.476 33.096 7.528 33.272 7.6C33.448 7.672 33.608 7.764 33.752 7.876C33.904 7.98 34.048 8.104 34.184 8.248L33.692 8.848L33.608 8.944L33.548 8.884C33.54 8.82 33.52 8.76 33.488 8.704C33.464 8.64 33.408 8.564 33.32 8.476C33.136 8.332 32.928 8.224 32.696 8.152C32.464 8.072 32.24 8.032 32.024 8.032C31.704 8.032 31.428 8.088 31.196 8.2C30.964 8.312 30.848 8.484 30.848 8.716C30.848 8.836 30.888 8.956 30.968 9.076C31.056 9.188 31.212 9.304 31.436 9.424C31.66 9.536 31.98 9.652 32.396 9.772C32.852 9.916 33.216 10.064 33.488 10.216C33.768 10.36 33.968 10.528 34.088 10.72C34.216 10.912 34.28 11.14 34.28 11.404C34.28 11.708 34.196 11.992 34.028 12.256C33.868 12.52 33.62 12.732 33.284 12.892C32.948 13.044 32.524 13.12 32.012 13.12ZM38.42 13.132C38.02 13.132 37.652 13.06 37.316 12.916C36.98 12.772 36.688 12.572 36.44 12.316C36.2 12.06 36.012 11.76 35.876 11.416C35.74 11.064 35.672 10.68 35.672 10.264C35.672 9.856 35.74 9.48 35.876 9.136C36.012 8.784 36.2 8.48 36.44 8.224C36.688 7.968 36.98 7.768 37.316 7.624C37.652 7.48 38.016 7.408 38.408 7.408C38.856 7.408 39.256 7.5 39.608 7.684C39.968 7.86 40.26 8.108 40.484 8.428L39.944 8.956L39.86 9.04L39.8 8.98C39.8 8.916 39.784 8.856 39.752 8.8C39.728 8.744 39.668 8.668 39.572 8.572C39.396 8.412 39.208 8.3 39.008 8.236C38.808 8.172 38.576 8.14 38.312 8.14C38.08 8.14 37.86 8.188 37.652 8.284C37.444 8.38 37.256 8.52 37.088 8.704C36.928 8.88 36.8 9.096 36.704 9.352C36.608 9.608 36.56 9.892 36.56 10.204C36.56 10.516 36.608 10.804 36.704 11.068C36.8 11.324 36.932 11.548 37.1 11.74C37.268 11.932 37.468 12.084 37.7 12.196C37.94 12.3 38.196 12.352 38.468 12.352C38.652 12.352 38.828 12.328 38.996 12.28C39.164 12.224 39.324 12.148 39.476 12.052C39.628 11.948 39.768 11.824 39.896 11.68L40.4 12.268C40.128 12.556 39.824 12.772 39.488 12.916C39.16 13.06 38.804 13.132 38.42 13.132ZM43.532 13.132C42.908 13.132 42.428 12.992 42.092 12.712C41.756 12.424 41.588 12.06 41.588 11.62C41.588 11.324 41.66 11.06 41.804 10.828C41.948 10.588 42.144 10.388 42.392 10.228C42.648 10.06 42.944 9.932 43.28 9.844C43.616 9.756 43.972 9.712 44.348 9.712C44.484 9.712 44.62 9.716 44.756 9.724C44.9 9.724 45.048 9.732 45.2 9.748C45.36 9.756 45.524 9.772 45.692 9.796L45.716 10.456C45.572 10.432 45.424 10.416 45.272 10.408C45.128 10.392 44.984 10.38 44.84 10.372C44.696 10.364 44.556 10.36 44.42 10.36C44.132 10.36 43.868 10.384 43.628 10.432C43.388 10.48 43.18 10.552 43.004 10.648C42.828 10.744 42.692 10.868 42.596 11.02C42.5 11.172 42.452 11.356 42.452 11.572C42.452 11.74 42.48 11.884 42.536 12.004C42.6 12.116 42.684 12.208 42.788 12.28C42.892 12.344 43.012 12.392 43.148 12.424C43.292 12.456 43.448 12.472 43.616 12.472C43.928 12.472 44.204 12.424 44.444 12.328C44.692 12.224 44.9 12.076 45.068 11.884C45.244 11.692 45.376 11.456 45.464 11.176C45.552 10.896 45.596 10.576 45.596 10.216C45.596 9.672 45.532 9.248 45.404 8.944C45.276 8.64 45.084 8.424 44.828 8.296C44.58 8.168 44.26 8.104 43.868 8.104C43.604 8.104 43.344 8.156 43.088 8.26C42.832 8.356 42.6 8.508 42.392 8.716L41.972 8.164C42.228 7.908 42.524 7.716 42.86 7.588C43.196 7.46 43.552 7.396 43.928 7.396C44.288 7.396 44.616 7.44 44.912 7.528C45.208 7.616 45.46 7.764 45.668 7.972C45.884 8.172 46.048 8.444 46.16 8.788C46.28 9.132 46.34 9.564 46.34 10.084V13H45.404V12.16C45.3 12.36 45.172 12.524 45.02 12.652C44.876 12.78 44.72 12.88 44.552 12.952C44.384 13.016 44.212 13.06 44.036 13.084C43.86 13.116 43.692 13.132 43.532 13.132ZM47.72 15.004V7.516H48.596V8.596C48.684 8.316 48.808 8.088 48.968 7.912C49.136 7.736 49.328 7.608 49.544 7.528C49.768 7.44 50.008 7.396 50.264 7.396C50.568 7.396 50.856 7.456 51.128 7.576C51.408 7.688 51.652 7.86 51.86 8.092C52.076 8.324 52.244 8.616 52.364 8.968C52.492 9.32 52.556 9.736 52.556 10.216C52.556 10.696 52.488 11.12 52.352 11.488C52.224 11.856 52.048 12.164 51.824 12.412C51.608 12.652 51.36 12.836 51.08 12.964C50.808 13.084 50.528 13.144 50.24 13.144C50.024 13.144 49.812 13.108 49.604 13.036C49.404 12.972 49.22 12.876 49.052 12.748C48.884 12.612 48.736 12.456 48.608 12.28V15.004H47.72ZM50.096 12.376C50.288 12.376 50.476 12.344 50.66 12.28C50.844 12.208 51.012 12.092 51.164 11.932C51.316 11.772 51.436 11.556 51.524 11.284C51.612 11.004 51.656 10.66 51.656 10.252C51.656 9.812 51.6 9.44 51.488 9.136C51.376 8.824 51.212 8.584 50.996 8.416C50.788 8.248 50.532 8.156 50.228 8.14C50.004 8.124 49.792 8.156 49.592 8.236C49.4 8.316 49.228 8.448 49.076 8.632C48.924 8.816 48.804 9.06 48.716 9.364C48.636 9.66 48.596 10.02 48.596 10.444C48.604 10.7 48.632 10.932 48.68 11.14C48.728 11.348 48.796 11.532 48.884 11.692C48.972 11.844 49.076 11.972 49.196 12.076C49.316 12.172 49.452 12.248 49.604 12.304C49.756 12.352 49.92 12.376 50.096 12.376ZM56.264 13.12C55.864 13.12 55.5 13.06 55.172 12.94C54.844 12.812 54.56 12.628 54.32 12.388C54.088 12.148 53.908 11.852 53.78 11.5C53.652 11.14 53.588 10.732 53.588 10.276C53.588 9.812 53.652 9.4 53.78 9.04C53.916 8.68 54.096 8.38 54.32 8.14C54.552 7.892 54.82 7.704 55.124 7.576C55.436 7.448 55.764 7.384 56.108 7.384C56.42 7.384 56.712 7.436 56.984 7.54C57.256 7.644 57.492 7.804 57.692 8.02C57.892 8.228 58.048 8.496 58.16 8.824C58.28 9.152 58.34 9.54 58.34 9.988C58.34 10.052 58.336 10.12 58.328 10.192C58.328 10.256 58.324 10.32 58.316 10.384H54.416C54.432 10.736 54.492 11.044 54.596 11.308C54.7 11.564 54.836 11.776 55.004 11.944C55.172 12.104 55.364 12.224 55.58 12.304C55.804 12.384 56.04 12.424 56.288 12.424C56.48 12.424 56.66 12.404 56.828 12.364C56.996 12.316 57.152 12.248 57.296 12.16C57.448 12.064 57.584 11.948 57.704 11.812L58.184 12.28C58.032 12.464 57.856 12.62 57.656 12.748C57.464 12.876 57.252 12.968 57.02 13.024C56.788 13.088 56.536 13.12 56.264 13.12ZM54.452 9.712H57.464C57.464 9.456 57.428 9.228 57.356 9.028C57.292 8.82 57.196 8.644 57.068 8.5C56.948 8.348 56.8 8.236 56.624 8.164C56.456 8.084 56.264 8.044 56.048 8.044C55.856 8.044 55.672 8.076 55.496 8.14C55.328 8.204 55.172 8.308 55.028 8.452C54.884 8.588 54.76 8.76 54.656 8.968C54.56 9.176 54.492 9.424 54.452 9.712ZM66.476 13.504L65.768 13.156L69.524 5.02L70.244 5.392L66.476 13.504ZM77.708 13V5.524H80.108C80.668 5.524 81.12 5.62 81.464 5.812C81.808 6.004 82.06 6.26 82.22 6.58C82.388 6.892 82.472 7.244 82.472 7.636C82.472 7.924 82.428 8.192 82.34 8.44C82.252 8.688 82.112 8.908 81.92 9.1C81.736 9.292 81.5 9.44 81.212 9.544C80.924 9.648 80.576 9.7 80.168 9.7H78.572V13H77.708ZM78.572 8.956H80.072C80.44 8.956 80.736 8.904 80.96 8.8C81.184 8.688 81.348 8.536 81.452 8.344C81.556 8.144 81.608 7.916 81.608 7.66C81.608 7.412 81.556 7.188 81.452 6.988C81.348 6.788 81.184 6.628 80.96 6.508C80.736 6.38 80.444 6.316 80.084 6.316H78.572V8.956ZM83.948 13V12.304H85.568V5.716H84.02V5.02H86.444V12.304H88.052V13H83.948ZM91.532 13.132C90.908 13.132 90.428 12.992 90.092 12.712C89.756 12.424 89.588 12.06 89.588 11.62C89.588 11.324 89.66 11.06 89.804 10.828C89.948 10.588 90.144 10.388 90.392 10.228C90.648 10.06 90.944 9.932 91.28 9.844C91.616 9.756 91.972 9.712 92.348 9.712C92.484 9.712 92.62 9.716 92.756 9.724C92.9 9.724 93.048 9.732 93.2 9.748C93.36 9.756 93.524 9.772 93.692 9.796L93.716 10.456C93.572 10.432 93.424 10.416 93.272 10.408C93.128 10.392 92.984 10.38 92.84 10.372C92.696 10.364 92.556 10.36 92.42 10.36C92.132 10.36 91.868 10.384 91.628 10.432C91.388 10.48 91.18 10.552 91.004 10.648C90.828 10.744 90.692 10.868 90.596 11.02C90.5 11.172 90.452 11.356 90.452 11.572C90.452 11.74 90.48 11.884 90.536 12.004C90.6 12.116 90.684 12.208 90.788 12.28C90.892 12.344 91.012 12.392 91.148 12.424C91.292 12.456 91.448 12.472 91.616 12.472C91.928 12.472 92.204 12.424 92.444 12.328C92.692 12.224 92.9 12.076 93.068 11.884C93.244 11.692 93.376 11.456 93.464 11.176C93.552 10.896 93.596 10.576 93.596 10.216C93.596 9.672 93.532 9.248 93.404 8.944C93.276 8.64 93.084 8.424 92.828 8.296C92.58 8.168 92.26 8.104 91.868 8.104C91.604 8.104 91.344 8.156 91.088 8.26C90.832 8.356 90.6 8.508 90.392 8.716L89.972 8.164C90.228 7.908 90.524 7.716 90.86 7.588C91.196 7.46 91.552 7.396 91.928 7.396C92.288 7.396 92.616 7.44 92.912 7.528C93.208 7.616 93.46 7.764 93.668 7.972C93.884 8.172 94.048 8.444 94.16 8.788C94.28 9.132 94.34 9.564 94.34 10.084V13H93.404V12.16C93.3 12.36 93.172 12.524 93.02 12.652C92.876 12.78 92.72 12.88 92.552 12.952C92.384 13.016 92.212 13.06 92.036 13.084C91.86 13.116 91.692 13.132 91.532 13.132ZM95.864 13V7.516H96.704V8.488C96.848 8.264 97.016 8.072 97.208 7.912C97.4 7.744 97.612 7.616 97.844 7.528C98.076 7.432 98.316 7.384 98.564 7.384C98.868 7.384 99.14 7.46 99.38 7.612C99.62 7.764 99.812 8.008 99.956 8.344C100.1 8.68 100.172 9.124 100.172 9.676V13H99.332V9.7C99.332 9.316 99.288 9.012 99.2 8.788C99.112 8.556 98.992 8.392 98.84 8.296C98.688 8.192 98.516 8.14 98.324 8.14C98.14 8.14 97.952 8.18 97.76 8.26C97.576 8.34 97.404 8.456 97.244 8.608C97.084 8.752 96.952 8.928 96.848 9.136C96.752 9.344 96.704 9.58 96.704 9.844V13H95.864ZM101.864 13V7.516H102.704V8.488C102.848 8.264 103.016 8.072 103.208 7.912C103.4 7.744 103.612 7.616 103.844 7.528C104.076 7.432 104.316 7.384 104.564 7.384C104.868 7.384 105.14 7.46 105.38 7.612C105.62 7.764 105.812 8.008 105.956 8.344C106.1 8.68 106.172 9.124 106.172 9.676V13H105.332V9.7C105.332 9.316 105.288 9.012 105.2 8.788C105.112 8.556 104.992 8.392 104.84 8.296C104.688 8.192 104.516 8.14 104.324 8.14C104.14 8.14 103.952 8.18 103.76 8.26C103.576 8.34 103.404 8.456 103.244 8.608C103.084 8.752 102.952 8.928 102.848 9.136C102.752 9.344 102.704 9.58 102.704 9.844V13H101.864ZM108.2 13V12.304H109.604V8.212H108.272V7.516H110.468V12.304H111.752V13H108.2ZM109.988 6.364C109.82 6.364 109.676 6.304 109.556 6.184C109.436 6.064 109.376 5.92 109.376 5.752C109.376 5.576 109.432 5.428 109.544 5.308C109.664 5.188 109.812 5.128 109.988 5.128C110.156 5.128 110.3 5.192 110.42 5.32C110.548 5.44 110.612 5.584 110.612 5.752C110.612 5.92 110.548 6.064 110.42 6.184C110.3 6.304 110.156 6.364 109.988 6.364ZM113.864 13V7.516H114.704V8.488C114.848 8.264 115.016 8.072 115.208 7.912C115.4 7.744 115.612 7.616 115.844 7.528C116.076 7.432 116.316 7.384 116.564 7.384C116.868 7.384 117.14 7.46 117.38 7.612C117.62 7.764 117.812 8.008 117.956 8.344C118.1 8.68 118.172 9.124 118.172 9.676V13H117.332V9.7C117.332 9.316 117.288 9.012 117.2 8.788C117.112 8.556 116.992 8.392 116.84 8.296C116.688 8.192 116.516 8.14 116.324 8.14C116.14 8.14 115.952 8.18 115.76 8.26C115.576 8.34 115.404 8.456 115.244 8.608C115.084 8.752 114.952 8.928 114.848 9.136C114.752 9.344 114.704 9.58 114.704 9.844V13H113.864ZM121.964 15.064C121.58 15.064 121.232 15.032 120.92 14.968C120.616 14.912 120.352 14.824 120.128 14.704C119.912 14.592 119.744 14.448 119.624 14.272C119.512 14.096 119.456 13.888 119.456 13.648C119.456 13.424 119.504 13.224 119.6 13.048C119.696 12.872 119.82 12.728 119.972 12.616C120.132 12.496 120.304 12.408 120.488 12.352L120.848 12.568C120.704 12.656 120.588 12.744 120.5 12.832C120.412 12.92 120.348 13.02 120.308 13.132C120.268 13.252 120.248 13.392 120.248 13.552C120.248 13.688 120.288 13.808 120.368 13.912C120.448 14.024 120.56 14.116 120.704 14.188C120.856 14.26 121.036 14.316 121.244 14.356C121.46 14.396 121.704 14.416 121.976 14.416C122.344 14.416 122.64 14.376 122.864 14.296C123.096 14.224 123.268 14.12 123.38 13.984C123.492 13.856 123.548 13.708 123.548 13.54C123.548 13.364 123.516 13.22 123.452 13.108C123.388 12.996 123.256 12.912 123.056 12.856C122.856 12.8 122.552 12.772 122.144 12.772C121.864 12.772 121.608 12.76 121.376 12.736C121.144 12.712 120.936 12.672 120.752 12.616C120.568 12.56 120.412 12.492 120.284 12.412C120.164 12.324 120.072 12.22 120.008 12.1C119.944 11.98 119.912 11.84 119.912 11.68C119.912 11.472 119.968 11.272 120.08 11.08C120.2 10.888 120.36 10.704 120.56 10.528L120.968 10.852C120.888 10.94 120.824 11.02 120.776 11.092C120.728 11.156 120.692 11.22 120.668 11.284C120.652 11.34 120.644 11.404 120.644 11.476C120.644 11.604 120.692 11.708 120.788 11.788C120.892 11.868 121.068 11.928 121.316 11.968C121.564 12 121.9 12.016 122.324 12.016C122.748 12.016 123.092 12.052 123.356 12.124C123.62 12.188 123.82 12.284 123.956 12.412C124.1 12.54 124.2 12.688 124.256 12.856C124.312 13.024 124.34 13.208 124.34 13.408C124.34 13.624 124.296 13.828 124.208 14.02C124.128 14.22 123.996 14.396 123.812 14.548C123.628 14.708 123.384 14.832 123.08 14.92C122.776 15.016 122.404 15.064 121.964 15.064ZM121.712 11.14C121.32 11.14 120.98 11.056 120.692 10.888C120.404 10.712 120.18 10.48 120.02 10.192C119.868 9.896 119.792 9.572 119.792 9.22C119.792 8.868 119.868 8.548 120.02 8.26C120.18 7.972 120.404 7.744 120.692 7.576C120.98 7.4 121.32 7.312 121.712 7.312C122.112 7.312 122.452 7.4 122.732 7.576C123.02 7.744 123.24 7.972 123.392 8.26C123.552 8.548 123.632 8.868 123.632 9.22C123.632 9.572 123.552 9.896 123.392 10.192C123.24 10.48 123.02 10.712 122.732 10.888C122.452 11.056 122.112 11.14 121.712 11.14ZM121.712 10.42C121.944 10.42 122.148 10.368 122.324 10.264C122.508 10.152 122.652 10.004 122.756 9.82C122.86 9.636 122.912 9.436 122.912 9.22C122.912 8.996 122.86 8.796 122.756 8.62C122.652 8.436 122.508 8.292 122.324 8.188C122.148 8.076 121.944 8.02 121.712 8.02C121.48 8.02 121.272 8.076 121.088 8.188C120.912 8.292 120.772 8.436 120.668 8.62C120.564 8.796 120.512 8.996 120.512 9.22C120.512 9.436 120.564 9.636 120.668 9.82C120.772 10.004 120.912 10.152 121.088 10.264C121.272 10.368 121.48 10.42 121.712 10.42ZM123.308 8.404L122.972 8.008C123.204 7.776 123.444 7.608 123.692 7.504C123.948 7.392 124.248 7.348 124.592 7.372L124.7 8.08C124.436 8.056 124.188 8.064 123.956 8.104C123.724 8.144 123.508 8.244 123.308 8.404ZM131.708 13V5.524H134.108C134.668 5.524 135.12 5.62 135.464 5.812C135.808 6.004 136.06 6.26 136.22 6.58C136.388 6.892 136.472 7.244 136.472 7.636C136.472 7.924 136.428 8.192 136.34 8.44C136.252 8.688 136.112 8.908 135.92 9.1C135.736 9.292 135.5 9.44 135.212 9.544C134.924 9.648 134.576 9.7 134.168 9.7H132.572V13H131.708ZM132.572 8.956H134.072C134.44 8.956 134.736 8.904 134.96 8.8C135.184 8.688 135.348 8.536 135.452 8.344C135.556 8.144 135.608 7.916 135.608 7.66C135.608 7.412 135.556 7.188 135.452 6.988C135.348 6.788 135.184 6.628 134.96 6.508C134.736 6.38 134.444 6.316 134.084 6.316H132.572V8.956ZM138.428 7.516H139.328L139.292 9.112L139.184 8.932C139.232 8.684 139.316 8.464 139.436 8.272C139.556 8.08 139.7 7.92 139.868 7.792C140.036 7.656 140.22 7.556 140.42 7.492C140.62 7.42 140.828 7.384 141.044 7.384C141.332 7.384 141.596 7.436 141.836 7.54C142.084 7.636 142.304 7.784 142.496 7.984L142.112 8.656L142.064 8.764L141.98 8.716C141.964 8.652 141.94 8.592 141.908 8.536C141.876 8.48 141.808 8.412 141.704 8.332C141.576 8.252 141.456 8.2 141.344 8.176C141.24 8.144 141.12 8.128 140.984 8.128C140.784 8.128 140.584 8.168 140.384 8.248C140.184 8.32 140 8.436 139.832 8.596C139.672 8.756 139.544 8.96 139.448 9.208C139.352 9.456 139.304 9.752 139.304 10.096V13.012H138.428V7.516ZM146 13.096C145.504 13.096 145.064 12.976 144.68 12.736C144.304 12.488 144.008 12.152 143.792 11.728C143.576 11.296 143.468 10.804 143.468 10.252C143.468 9.692 143.576 9.2 143.792 8.776C144.008 8.344 144.304 8.008 144.68 7.768C145.064 7.52 145.504 7.396 146 7.396C146.496 7.396 146.932 7.52 147.308 7.768C147.692 8.008 147.992 8.344 148.208 8.776C148.424 9.2 148.532 9.692 148.532 10.252C148.532 10.804 148.424 11.296 148.208 11.728C147.992 12.152 147.692 12.488 147.308 12.736C146.932 12.976 146.496 13.096 146 13.096ZM146 12.376C146.32 12.376 146.6 12.284 146.84 12.1C147.08 11.916 147.268 11.664 147.404 11.344C147.548 11.024 147.62 10.656 147.62 10.24C147.62 9.824 147.548 9.456 147.404 9.136C147.268 8.816 147.08 8.568 146.84 8.392C146.6 8.208 146.32 8.116 146 8.116C145.688 8.116 145.408 8.208 145.16 8.392C144.92 8.568 144.728 8.816 144.584 9.136C144.448 9.456 144.38 9.824 144.38 10.24C144.38 10.656 144.448 11.024 144.584 11.344C144.728 11.664 144.92 11.916 145.16 12.1C145.408 12.284 145.688 12.376 146 12.376ZM151.328 15.088C150.984 15.088 150.656 15.024 150.344 14.896C150.04 14.768 149.784 14.576 149.576 14.32L150.056 13.672L150.128 13.576L150.2 13.624C150.216 13.688 150.236 13.748 150.26 13.804C150.284 13.868 150.34 13.948 150.428 14.044C150.54 14.132 150.668 14.204 150.812 14.26C150.964 14.316 151.132 14.344 151.316 14.344C151.556 14.344 151.768 14.288 151.952 14.176C152.144 14.072 152.292 13.904 152.396 13.672C152.5 13.448 152.552 13.152 152.552 12.784V8.224H150.512V7.516H153.428V12.736C153.428 13.288 153.332 13.736 153.14 14.08C152.948 14.432 152.692 14.688 152.372 14.848C152.06 15.008 151.712 15.088 151.328 15.088ZM152.924 6.364C152.756 6.364 152.612 6.304 152.492 6.184C152.372 6.064 152.312 5.92 152.312 5.752C152.312 5.576 152.368 5.428 152.48 5.308C152.6 5.188 152.748 5.128 152.924 5.128C153.092 5.128 153.236 5.192 153.356 5.32C153.484 5.44 153.548 5.584 153.548 5.752C153.548 5.92 153.484 6.064 153.356 6.184C153.236 6.304 153.092 6.364 152.924 6.364ZM158.264 13.12C157.864 13.12 157.5 13.06 157.172 12.94C156.844 12.812 156.56 12.628 156.32 12.388C156.088 12.148 155.908 11.852 155.78 11.5C155.652 11.14 155.588 10.732 155.588 10.276C155.588 9.812 155.652 9.4 155.78 9.04C155.916 8.68 156.096 8.38 156.32 8.14C156.552 7.892 156.82 7.704 157.124 7.576C157.436 7.448 157.764 7.384 158.108 7.384C158.42 7.384 158.712 7.436 158.984 7.54C159.256 7.644 159.492 7.804 159.692 8.02C159.892 8.228 160.048 8.496 160.16 8.824C160.28 9.152 160.34 9.54 160.34 9.988C160.34 10.052 160.336 10.12 160.328 10.192C160.328 10.256 160.324 10.32 160.316 10.384H156.416C156.432 10.736 156.492 11.044 156.596 11.308C156.7 11.564 156.836 11.776 157.004 11.944C157.172 12.104 157.364 12.224 157.58 12.304C157.804 12.384 158.04 12.424 158.288 12.424C158.48 12.424 158.66 12.404 158.828 12.364C158.996 12.316 159.152 12.248 159.296 12.16C159.448 12.064 159.584 11.948 159.704 11.812L160.184 12.28C160.032 12.464 159.856 12.62 159.656 12.748C159.464 12.876 159.252 12.968 159.02 13.024C158.788 13.088 158.536 13.12 158.264 13.12ZM156.452 9.712H159.464C159.464 9.456 159.428 9.228 159.356 9.028C159.292 8.82 159.196 8.644 159.068 8.5C158.948 8.348 158.8 8.236 158.624 8.164C158.456 8.084 158.264 8.044 158.048 8.044C157.856 8.044 157.672 8.076 157.496 8.14C157.328 8.204 157.172 8.308 157.028 8.452C156.884 8.588 156.76 8.76 156.656 8.968C156.56 9.176 156.492 9.424 156.452 9.712ZM164.42 13.132C164.02 13.132 163.652 13.06 163.316 12.916C162.98 12.772 162.688 12.572 162.44 12.316C162.2 12.06 162.012 11.76 161.876 11.416C161.74 11.064 161.672 10.68 161.672 10.264C161.672 9.856 161.74 9.48 161.876 9.136C162.012 8.784 162.2 8.48 162.44 8.224C162.688 7.968 162.98 7.768 163.316 7.624C163.652 7.48 164.016 7.408 164.408 7.408C164.856 7.408 165.256 7.5 165.608 7.684C165.968 7.86 166.26 8.108 166.484 8.428L165.944 8.956L165.86 9.04L165.8 8.98C165.8 8.916 165.784 8.856 165.752 8.8C165.728 8.744 165.668 8.668 165.572 8.572C165.396 8.412 165.208 8.3 165.008 8.236C164.808 8.172 164.576 8.14 164.312 8.14C164.08 8.14 163.86 8.188 163.652 8.284C163.444 8.38 163.256 8.52 163.088 8.704C162.928 8.88 162.8 9.096 162.704 9.352C162.608 9.608 162.56 9.892 162.56 10.204C162.56 10.516 162.608 10.804 162.704 11.068C162.8 11.324 162.932 11.548 163.1 11.74C163.268 11.932 163.468 12.084 163.7 12.196C163.94 12.3 164.196 12.352 164.468 12.352C164.652 12.352 164.828 12.328 164.996 12.28C165.164 12.224 165.324 12.148 165.476 12.052C165.628 11.948 165.768 11.824 165.896 11.68L166.4 12.268C166.128 12.556 165.824 12.772 165.488 12.916C165.16 13.06 164.804 13.132 164.42 13.132ZM170.588 13.084C170.236 13.084 169.948 13.024 169.724 12.904C169.5 12.784 169.328 12.6 169.208 12.352C169.088 12.096 169.008 11.776 168.968 11.392C168.936 11.008 168.928 10.552 168.944 10.024L169.088 6.112L169.988 6.004L170.108 5.992L170.12 6.076C170.08 6.132 170.044 6.188 170.012 6.244C169.988 6.3 169.968 6.396 169.952 6.532L169.844 7.888L169.88 8.104L169.796 10.084C169.772 10.692 169.788 11.164 169.844 11.5C169.9 11.828 170 12.056 170.144 12.184C170.288 12.304 170.48 12.364 170.72 12.364C170.984 12.364 171.216 12.312 171.416 12.208C171.624 12.104 171.84 11.972 172.064 11.812L172.328 12.496C172.056 12.696 171.776 12.844 171.488 12.94C171.2 13.036 170.9 13.084 170.588 13.084ZM167.84 7.516H171.788V8.224H167.84V7.516Z" fill="black"/>
</svg>
