<svg width="669" height="329" viewBox="0 0 669 329" fill="none" xmlns="http://www.w3.org/2000/svg">
<path d="M46.1782 322.453C44.0252 322.386 39.5002 323.11 37.5068 323.481C37.4636 321.901 37.531 318.577 38.1459 317.928C38.9146 317.116 43.3125 310.194 47.0713 308.826C50.8301 307.458 61.5087 304.636 64.6698 304.549C67.8309 304.463 82.3098 296 83.2495 295.658C84.1892 295.316 94.4826 289.974 95.3791 288.051C96.2756 286.129 104.562 282.58 109.26 280.87C113.959 279.16 137.919 264.586 160.341 245.784C182.762 226.981 193.052 209.934 212.823 186.775C232.595 163.616 255.738 130.716 328.948 100.878C402.158 71.0391 501.649 76.8622 507.032 77.0314C512.414 77.2007 552.697 75.3093 557.737 74.5389C562.778 73.7685 616.302 70.2498 622.923 69.4362C628.22 68.7853 631.197 71.2137 632.023 72.5092C609.643 85.0891 563.447 110.984 557.706 113.925C550.531 117.601 532.936 133.582 514.656 147.685C496.377 161.787 477.675 189.345 453.077 215.325C428.479 241.305 359.075 283.061 319.01 298.707C278.946 314.354 256.775 313.378 224.096 315.694C191.418 318.011 131.141 311.749 124.477 310.982C117.813 310.215 97.9494 312.656 92.0971 312.657C87.4152 312.659 74.2556 313.83 68.261 314.416L52.2862 320.23C48.9973 321.427 48.8695 322.538 46.1782 322.453Z" fill="#ECBF65"/>
<path d="M624.975 75.0744L616.23 75.8979M616.23 75.8979C614.616 76.8566 612.355 78.1944 609.88 79.6502M616.23 75.8979L610.571 76.4308M82.5247 309.748C92.219 308.184 102.555 306.67 105.381 306.759C110.763 306.928 140.921 304.997 155.233 307.769C169.544 310.542 209.826 308.65 217.9 308.904C225.974 309.158 254.937 309.79 282.915 303.332C310.893 296.873 324.22 292.554 362.532 270.629C400.843 248.703 436.633 221.31 446.028 212.038C455.423 202.766 483.393 167.045 498.682 153.499C513.971 139.953 532.72 125.68 541.731 119.739C550.743 113.799 567.998 102.73 571.586 100.892C574.264 99.5195 583.11 94.7161 589.821 91.0537M82.5247 309.748C77.4447 310.568 72.5409 311.401 68.9865 312.024C72.5944 310.128 77.7778 307.365 82.7877 304.623M82.5247 309.748C97.5469 305.702 131.376 296.02 146.513 289.659C165.435 281.708 204.173 258.031 224.842 238.802C245.512 219.573 277.757 195.599 318.718 178.029C359.68 160.46 423.667 146.216 439.6 144.674C455.534 143.131 495.344 135.558 518.196 126.709C536.477 119.63 573.563 99.9891 589.821 91.0537M589.821 91.0537C590.927 90.4501 591.975 89.8775 592.927 89.3563M597.552 78.6708C588.084 85.3091 564.272 100.68 544.761 109.059C520.372 119.532 522.894 124.999 442.76 138.735C362.625 152.471 328.369 166.535 308.978 174.658C289.586 182.78 248.115 210.644 232.015 223.421C215.914 236.199 197.55 252.992 166.713 270.601C142.043 284.688 100.484 299.152 82.7877 304.623M82.7877 304.623C89.9757 300.689 96.8066 296.797 98.1153 295.569C100.891 292.962 103.667 290.355 105.546 289.671C107.426 288.987 149.368 266.804 160.002 256.549C170.636 246.294 204.672 212.622 215.902 195.232C227.131 177.843 258.05 145.838 284.658 129.768C311.267 113.698 356.372 97.2815 390.374 91.291C424.375 85.3004 510.238 84.3781 522.241 83.7337C531.844 83.2182 578.955 79.2316 601.31 77.3027L608.77 76.6003M592.927 89.3563C593.936 88.8046 594.838 88.3105 595.589 87.8985C598.701 86.1917 604.75 82.6675 609.88 79.6502M592.927 89.3563C593.637 88.9678 601.973 81.0724 606.052 77.1732M608.77 76.6003C607.799 77.1015 606.003 78.2081 606.581 78.6254M608.77 76.6003L610.571 76.4308M606.581 78.6254C606.981 79.0994 607.187 79.9552 607.249 80.4621C606.591 81.091 605.046 82.3048 604.131 82.129C603.216 81.9533 603.358 80.9799 603.544 80.5152C603.985 79.7781 605.079 78.2999 605.924 78.2839C606.185 78.279 606.402 78.4143 606.581 78.6254ZM609.88 79.6502C610.27 78.9662 610.503 77.2189 610.571 76.4308M37.5068 323.481C39.5002 323.11 44.0252 322.386 46.1782 322.453C48.8695 322.538 48.9973 321.427 52.2862 320.23C54.9174 319.273 64.0324 315.955 68.261 314.416C74.2556 313.83 87.4152 312.659 92.0971 312.657C97.9494 312.656 117.813 310.215 124.477 310.982C131.141 311.749 191.418 318.011 224.096 315.694C256.775 313.378 278.946 314.354 319.01 298.707C359.075 283.061 428.479 241.305 453.077 215.325C477.675 189.345 496.377 161.787 514.656 147.685C532.936 133.582 550.531 117.601 557.706 113.925C563.447 110.984 609.643 85.0891 632.023 72.5092C631.197 71.2137 628.22 68.7853 622.923 69.4362C616.302 70.2498 562.778 73.7685 557.737 74.5389C552.697 75.3093 512.414 77.2007 507.032 77.0314C501.649 76.8622 402.158 71.0391 328.948 100.878C255.738 130.716 232.595 163.616 212.823 186.775C193.052 209.934 182.762 226.981 160.341 245.784C137.919 264.586 113.959 279.16 109.26 280.87C104.562 282.58 96.2756 286.129 95.3791 288.051C94.4826 289.974 84.1892 295.316 83.2495 295.658C82.3098 296 67.8309 304.463 64.6698 304.549C61.5087 304.636 50.8301 307.458 47.0713 308.826C43.3125 310.194 38.9146 317.116 38.1459 317.928C37.531 318.577 37.4636 321.901 37.5068 323.481Z" stroke="black"/>
<path d="M235.694 242.301C220.522 247.398 219.837 262.085 221.391 268.791C223.443 274.429 230.88 286.089 246.898 281.855C262.916 277.621 262.27 259.765 261.073 256.476C259.875 253.188 254.659 235.931 235.694 242.301Z" fill="#ECBF65" stroke="black"/>
<path d="M221.392 268.791L225.325 279.598C228.587 283.199 237.622 289.701 247.668 286.896C257.715 284.091 262.701 273.62 263.939 268.736L261.073 256.477" stroke="black"/>
<path d="M351.325 219.371C348.452 211.477 338.734 208.168 334.234 207.5C331.932 207.024 309.971 211.01 314.121 229.719C318.27 248.429 330.189 250.476 340.055 246.884C349.922 243.293 354.916 229.237 351.325 219.371Z" fill="#ECBF65" stroke="black"/>
<path d="M351.325 219.371L356.284 232.996C356.826 237.41 354.716 247.401 341.936 252.053C329.156 256.704 321.431 250.293 319.166 246.506C317.601 241.4 314.401 230.895 314.12 229.72" stroke="black"/>
<path d="M412.884 176.214C413.113 170.336 418.905 163.519 426.149 161.807C434.479 159.84 441.699 163.597 445.375 170.772C446.773 173.501 447.374 176.366 447.474 179.054C447.637 183.435 446.47 187.348 445.252 189.44C443.288 192.815 436.327 198.542 425.989 196.452C417.718 194.779 413.996 183.967 413.168 178.77C412.939 177.953 412.849 177.094 412.884 176.214Z" fill="#ECBF65" stroke="black"/>
<path d="M412.883 176.214L413.47 189.835C413.998 191.771 416.787 196.609 423.726 200.468C430.664 204.328 440.457 199.168 444.485 196.105L446.919 192.559C447.104 188.057 447.474 179.054 447.474 179.054" stroke="black"/>
<path d="M225.086 195.614C224.943 192.296 226.749 184.686 235.12 180.788C245.585 175.915 252.164 179.373 254.173 183.431C255.78 186.677 256.781 190.108 257.081 191.418C257.779 193.824 256.331 199.885 244.953 204.878C233.574 209.871 228.221 204.228 226.967 200.782L226.027 198.198L225.086 195.614Z" fill="#ECBF65"/>
<path d="M254.173 183.431C252.164 179.373 245.585 175.915 235.12 180.788C226.749 184.686 224.943 192.296 225.086 195.614L226.027 198.198M254.173 183.431C255.78 186.677 256.781 190.108 257.081 191.418C257.779 193.824 256.331 199.885 244.953 204.878C233.574 209.871 228.221 204.228 226.967 200.782L226.027 198.198M254.173 183.431C256.054 188.599 253.75 196.887 242.816 201.931C234.068 205.966 227.978 201.124 226.027 198.198M231.918 185.146C234.295 183.394 240.067 180.052 244.134 180.7C249.218 181.51 251.482 183.346 252.038 186.336C252.595 189.326 248.24 197.828 241.021 199.924C233.802 202.019 228.334 198.689 227.606 195.229C226.879 191.769 231.07 185.739 231.918 185.146Z" stroke="black"/>
<path d="M273.044 154.874C272.901 151.556 274.707 143.946 283.078 140.048C293.543 135.175 300.122 138.633 302.131 142.69C303.738 145.937 304.739 149.368 305.039 150.678C305.737 153.084 304.289 159.145 292.911 164.138C281.532 169.13 276.179 163.488 274.925 160.042L273.985 157.458L273.044 154.874Z" fill="#ECBF65"/>
<path d="M302.131 142.69C300.122 138.633 293.543 135.175 283.078 140.048C274.707 143.946 272.901 151.556 273.044 154.874L273.985 157.458M302.131 142.69C303.738 145.937 304.739 149.368 305.039 150.678C305.737 153.084 304.289 159.145 292.911 164.138C281.532 169.13 276.179 163.488 274.925 160.042L273.985 157.458M302.131 142.69C304.012 147.859 301.708 156.147 290.774 161.191C282.026 165.226 275.936 160.383 273.985 157.458M279.876 144.406C282.253 142.654 288.025 139.311 292.092 139.96C297.176 140.77 299.44 142.606 299.996 145.596C300.553 148.586 296.198 157.088 288.979 159.184C281.76 161.279 276.292 157.948 275.564 154.489C274.837 151.029 279.028 144.999 279.876 144.406Z" stroke="black"/>
<path d="M340.526 126.84C340.315 123.313 342.002 115.263 350.431 111.285C360.966 106.312 367.718 110.115 369.838 114.464C371.534 117.944 372.617 121.609 372.947 123.007C373.704 125.577 372.351 131.987 360.889 137.07C349.427 142.152 343.879 136.053 342.538 132.368L341.532 129.604L340.526 126.84Z" fill="#ECBF65"/>
<path d="M369.838 114.464C367.718 110.115 360.966 106.312 350.431 111.285C342.002 115.263 340.315 123.313 340.526 126.84L341.532 129.604M369.838 114.464C371.534 117.944 372.617 121.609 372.947 123.007C373.704 125.577 372.351 131.987 360.889 137.07C349.427 142.152 343.879 136.053 342.538 132.368L341.532 129.604M369.838 114.464C371.85 119.992 369.67 128.752 358.661 133.897C349.853 138.013 343.571 132.75 341.532 129.604M347.262 115.853C349.643 114.038 355.441 110.6 359.586 111.367C364.766 112.327 367.102 114.322 367.726 117.51C368.349 120.697 364.091 129.645 356.798 131.73C349.506 133.815 343.885 130.17 343.079 126.48C342.272 122.79 346.412 116.467 347.262 115.853Z" stroke="black"/>
<path d="M438.119 102.594C436.054 99.8702 429.673 95.0225 420.67 97.4215C409.415 100.42 406.615 107.475 407.729 112.009C408.619 115.635 410.099 119.011 410.727 120.246C411.767 122.611 416.855 126.466 428.892 122.963C440.929 119.46 441.352 111.477 440.059 107.924L439.089 105.259L438.119 102.594Z" fill="#ECBF65"/>
<path d="M407.729 112.009C406.615 107.475 409.415 100.42 420.67 97.4215C429.673 95.0225 436.054 99.8702 438.119 102.594L439.089 105.259M407.729 112.009C408.619 115.635 410.099 119.011 410.727 120.246C411.767 122.611 416.855 126.466 428.892 122.963C440.929 119.46 441.352 111.477 440.059 107.924L439.089 105.259M407.729 112.009C409.669 117.339 416.877 122.397 428.606 119.226C437.988 116.689 439.504 108.858 439.089 105.259M425.994 98.7762C423.014 98.9462 416.377 100.081 413.67 103.262C410.286 107.237 409.746 110.177 411.278 112.912C412.81 115.647 421.739 119.53 428.672 116.458C435.605 113.386 437.634 107.16 435.925 103.941C434.217 100.722 427.036 98.6904 425.994 98.7762Z" stroke="black"/>
<path d="M509.711 94.6271C507.646 91.9034 501.266 87.0557 492.262 89.4547C481.008 92.4535 478.208 99.5086 479.321 104.042C480.212 107.669 481.691 111.045 482.32 112.279C483.359 114.644 488.448 118.499 500.485 114.996C512.522 111.493 512.945 103.51 511.651 99.9572L510.681 97.2922L509.711 94.6271Z" fill="#ECBF65"/>
<path d="M479.321 104.042C478.208 99.5086 481.008 92.4535 492.262 89.4547C501.266 87.0557 507.646 91.9034 509.711 94.6271L510.681 97.2922M479.321 104.042C480.212 107.669 481.691 111.045 482.32 112.279C483.359 114.644 488.448 118.499 500.485 114.996C512.522 111.493 512.945 103.51 511.651 99.9572L510.681 97.2922M479.321 104.042C481.261 109.372 488.47 114.43 500.199 111.259C509.581 108.722 511.096 100.891 510.681 97.2922M497.586 90.8094C494.607 90.9794 487.97 92.1145 485.263 95.2948C481.879 99.2701 481.339 102.21 482.871 104.945C484.403 107.68 493.331 111.564 500.265 108.491C507.198 105.419 509.226 99.1936 507.518 95.9744C505.809 92.7551 498.629 90.7236 497.586 90.8094Z" stroke="black"/>
<circle cx="234.823" cy="187.281" r="1.5" transform="rotate(-20 234.823 187.281)" fill="#ECBF65" stroke="black"/>
<circle cx="237.898" cy="184.034" r="1.5" transform="rotate(-20 237.898 184.034)" fill="#ECBF65" stroke="black"/>
<circle cx="239.267" cy="187.793" r="1.5" transform="rotate(-20 239.267 187.793)" fill="#ECBF65" stroke="black"/>
<circle cx="236.533" cy="191.98" r="1.5" transform="rotate(-20 236.533 191.98)" fill="#ECBF65" stroke="black"/>
<circle cx="233.116" cy="194.288" r="1.5" transform="rotate(-20 233.116 194.288)" fill="#ECBF65" stroke="black"/>
<circle cx="230.809" cy="190.871" r="1.5" transform="rotate(-20 230.809 190.871)" fill="#ECBF65" stroke="black"/>
<circle cx="236.706" cy="198.302" r="1.5" transform="rotate(-20 236.706 198.302)" fill="#ECBF65" stroke="black"/>
<circle cx="240.977" cy="192.491" r="1.5" transform="rotate(-20 240.977 192.491)" fill="#ECBF65" stroke="black"/>
<circle cx="242.345" cy="196.25" r="1.5" transform="rotate(-20 242.345 196.25)" fill="#ECBF65" stroke="black"/>
<circle cx="246.358" cy="192.66" r="1.5" transform="rotate(-20 246.358 192.66)" fill="#ECBF65" stroke="black"/>
<circle cx="243.709" cy="188.304" r="1.5" transform="rotate(-20 243.709 188.304)" fill="#ECBF65" stroke="black"/>
<circle cx="244.221" cy="183.861" r="1.5" transform="rotate(-20 244.221 183.861)" fill="#ECBF65" stroke="black"/>
<circle cx="249.005" cy="185.312" r="1.5" transform="rotate(-20 249.005 185.312)" fill="#ECBF65" stroke="black"/>
<circle cx="248.151" cy="188.815" r="1.5" transform="rotate(-20 248.151 188.815)" fill="#ECBF65" stroke="black"/>
<circle cx="279.752" cy="152.837" r="1.5" transform="rotate(-20 279.752 152.837)" fill="#ECBF65" stroke="black"/>
<circle cx="282.06" cy="156.254" r="1.5" transform="rotate(-20 282.06 156.254)" fill="#ECBF65" stroke="black"/>
<circle cx="285.477" cy="153.946" r="1.5" transform="rotate(-20 285.477 153.946)" fill="#ECBF65" stroke="black"/>
<circle cx="289.322" cy="155.739" r="1.5" transform="rotate(-20 289.322 155.739)" fill="#ECBF65" stroke="black"/>
<circle cx="293.679" cy="153.089" r="1.5" transform="rotate(-20 293.679 153.089)" fill="#ECBF65" stroke="black"/>
<circle cx="287.269" cy="150.101" r="1.5" transform="rotate(-20 287.269 150.101)" fill="#ECBF65" stroke="black"/>
<circle cx="282.485" cy="148.65" r="1.5" transform="rotate(-20 282.485 148.65)" fill="#ECBF65" stroke="black"/>
<circle cx="286.5" cy="145.061" r="1.5" transform="rotate(-20 286.5 145.061)" fill="#ECBF65" stroke="black"/>
<circle cx="291.198" cy="143.351" r="1.5" transform="rotate(-20 291.198 143.351)" fill="#ECBF65" stroke="black"/>
<circle cx="295.043" cy="145.144" r="1.5" transform="rotate(-20 295.043 145.144)" fill="#ECBF65" stroke="black"/>
<circle cx="295.472" cy="149.244" r="1.5" transform="rotate(-20 295.472 149.244)" fill="#ECBF65" stroke="black"/>
<circle cx="291.028" cy="148.733" r="1.5" transform="rotate(-20 291.028 148.733)" fill="#ECBF65" stroke="black"/>
<circle cx="349.03" cy="118.044" r="1.5" transform="rotate(-20 349.03 118.044)" fill="#ECBF65" stroke="black"/>
<circle cx="353.387" cy="115.395" r="1.5" transform="rotate(-20 353.387 115.395)" fill="#ECBF65" stroke="black"/>
<circle cx="355.694" cy="118.812" r="1.5" transform="rotate(-20 355.694 118.812)" fill="#ECBF65" stroke="black"/>
<circle cx="417.289" cy="103.842" r="1.5" transform="rotate(-20 417.289 103.842)" fill="#ECBF65" stroke="black"/>
<circle cx="421.988" cy="102.132" r="1.5" transform="rotate(-20 421.988 102.132)" fill="#ECBF65" stroke="black"/>
<circle cx="423.101" cy="108.112" r="1.5" transform="rotate(-20 423.101 108.112)" fill="#ECBF65" stroke="black"/>
<circle cx="429.934" cy="103.497" r="1.5" transform="rotate(-20 429.934 103.497)" fill="#ECBF65" stroke="black"/>
<circle cx="489.225" cy="96.815" r="1.5" transform="rotate(-20 489.225 96.815)" fill="#ECBF65" stroke="black"/>
<circle cx="494.52" cy="93.8233" r="1.5" transform="rotate(-20 494.52 93.8233)" fill="#ECBF65" stroke="black"/>
<circle cx="499.903" cy="93.9927" r="1.5" transform="rotate(-20 499.903 93.9927)" fill="#ECBF65" stroke="black"/>
<circle cx="496.23" cy="98.522" r="1.5" transform="rotate(-20 496.23 98.522)" fill="#ECBF65" stroke="black"/>
<circle cx="490.935" cy="101.514" r="1.5" transform="rotate(-20 490.935 101.514)" fill="#ECBF65" stroke="black"/>
<circle cx="484.868" cy="99.4649" r="1.5" transform="rotate(-20 484.868 99.4649)" fill="#ECBF65" stroke="black"/>
<circle cx="486.578" cy="104.164" r="1.5" transform="rotate(-20 486.578 104.164)" fill="#ECBF65" stroke="black"/>
<circle cx="492.644" cy="106.212" r="1.5" transform="rotate(-20 492.644 106.212)" fill="#ECBF65" stroke="black"/>
<circle cx="497.94" cy="103.22" r="1.5" transform="rotate(-20 497.94 103.22)" fill="#ECBF65" stroke="black"/>
<circle cx="501.016" cy="99.9727" r="1.5" transform="rotate(-20 501.016 99.9727)" fill="#ECBF65" stroke="black"/>
<circle cx="505.372" cy="97.3228" r="1.5" transform="rotate(-20 505.372 97.3228)" fill="#ECBF65" stroke="black"/>
<circle cx="503.921" cy="102.108" r="1.5" transform="rotate(-20 503.921 102.108)" fill="#ECBF65" stroke="black"/>
<circle cx="500.846" cy="105.355" r="1.5" transform="rotate(-20 500.846 105.355)" fill="#ECBF65" stroke="black"/>
<circle cx="433.182" cy="106.571" r="1.5" transform="rotate(-20 433.182 106.571)" fill="#ECBF65" stroke="black"/>
<circle cx="431.73" cy="111.356" r="1.5" transform="rotate(-20 431.73 111.356)" fill="#ECBF65" stroke="black"/>
<circle cx="426.603" cy="108.965" r="1.5" transform="rotate(-20 426.603 108.965)" fill="#ECBF65" stroke="black"/>
<circle cx="425.152" cy="113.751" r="1.5" transform="rotate(-20 425.152 113.751)" fill="#ECBF65" stroke="black"/>
<circle cx="420.71" cy="113.239" r="1.5" transform="rotate(-20 420.71 113.239)" fill="#ECBF65" stroke="black"/>
<circle cx="414.985" cy="112.13" r="1.5" transform="rotate(-20 414.985 112.13)" fill="#ECBF65" stroke="black"/>
<circle cx="419" cy="108.541" r="1.5" transform="rotate(-20 419 108.541)" fill="#ECBF65" stroke="black"/>
<circle cx="414.557" cy="108.029" r="1.5" transform="rotate(-20 414.557 108.029)" fill="#ECBF65" stroke="black"/>
<circle cx="352.62" cy="122.059" r="1.5" transform="rotate(-20 352.62 122.059)" fill="#ECBF65" stroke="black"/>
<circle cx="350.229" cy="127.186" r="1.5" transform="rotate(-20 350.229 127.186)" fill="#ECBF65" stroke="black"/>
<circle cx="346.64" cy="123.171" r="1.5" transform="rotate(-20 346.64 123.171)" fill="#ECBF65" stroke="black"/>
<circle cx="355.015" cy="128.637" r="1.5" transform="rotate(-20 355.015 128.637)" fill="#ECBF65" stroke="black"/>
<circle cx="360.652" cy="126.585" r="1.5" transform="rotate(-20 360.652 126.585)" fill="#ECBF65" stroke="black"/>
<circle cx="363.555" cy="117.015" r="1.5" transform="rotate(-20 363.555 117.015)" fill="#ECBF65" stroke="black"/>
<circle cx="358.428" cy="114.625" r="1.5" transform="rotate(-20 358.428 114.625)" fill="#ECBF65" stroke="black"/>
<circle cx="362.103" cy="121.8" r="1.5" transform="rotate(-20 362.103 121.8)" fill="#ECBF65" stroke="black"/>
<circle cx="357.405" cy="123.51" r="1.5" transform="rotate(-20 357.405 123.51)" fill="#ECBF65" stroke="black"/>
<path d="M236.72 245.121C229.818 247.208 225.73 253.91 224.549 257C224.023 258.965 223.218 263.869 224.211 267.765C225.451 272.634 234.468 284.251 246.043 279.506C257.618 274.761 259.793 261.731 257.57 255.623C255.347 249.515 245.349 242.513 236.72 245.121Z" fill="#9DA069" stroke="black"/>
<path d="M327.401 212.115C316.876 215.946 315.729 224.877 316.47 228.864C316.563 232.555 323.824 249.068 338.688 243.125C350.579 238.372 350.188 225.992 348.506 220.397C345.856 216.04 337.926 208.285 327.401 212.115Z" fill="#9DA069" stroke="black"/>
<path d="M427.175 164.627C418.632 166.885 415.814 173.373 415.474 176.335C415.759 179.069 417.082 185.434 420.091 189.021C423.851 193.505 429.448 195.725 437.264 192.348C445.081 188.971 445.889 178.035 444.521 174.276C443.153 170.517 437.854 161.805 427.175 164.627Z" fill="#9DA069" stroke="black"/>
</svg>
