<svg width="195" height="345" viewBox="0 0 195 345" fill="none" xmlns="http://www.w3.org/2000/svg">
<path d="M90.0482 41.516L80.0482 21.016C80.3815 18.8493 83.3482 13.116 92.5482 7.51599C101.748 1.91599 110.048 0.849325 113.048 1.01599L127.048 21.016L189.548 45.5161L192.699 48.6672L193.548 49.5161C194.381 55.0161 186.548 71.4161 148.548 93.0161C101.048 120.016 88.0482 117.516 84.0482 116.516C83.2396 116.314 82.6055 115.959 82.1121 115.516C80.6528 114.207 80.4236 112.137 80.5482 111.016L90.0482 41.516Z" fill="#F5F5F5"/>
<path d="M90.0482 41.516L80.0482 21.016C80.3815 18.8493 83.3482 13.116 92.5482 7.51599C101.748 1.91599 110.048 0.849325 113.048 1.01599L127.048 21.016M90.0482 41.516L80.5482 111.016C80.4236 112.137 80.6528 114.207 82.1121 115.516M90.0482 41.516C92.8815 38.516 100.248 31.6161 107.048 28.0161C113.848 24.4161 123.215 21.8494 127.048 21.016M127.048 21.016L189.548 45.5161L192.699 48.6672M82.1121 115.516C82.6055 115.959 83.2396 116.314 84.0482 116.516C88.0482 117.516 101.048 120.016 148.548 93.0161C186.548 71.4161 194.381 55.0161 193.548 49.5161L192.699 48.6672M82.1121 115.516C81.7574 114.349 81.6482 111.216 84.0482 108.016C87.0482 104.016 101.048 86.0161 131.548 69.5161C162.048 53.0161 179.048 49.0161 183.548 48.5161C188.048 48.0161 191.85 48.3183 192.699 48.6672" stroke="black"/>
<path d="M78.5481 35.0161L83.5481 29.0161L88.5481 39.0161L81.5481 41.0161L37.5481 68.0161L28.0481 76.5161C27.9098 76.4608 27.7402 76.3852 27.5481 76.2904C27.5481 77.0323 27.4481 78.6161 27.0481 79.0161C26.8917 79.1726 26.7352 79.329 26.5481 79.4855V95.0161L25.0481 96.0161H24.5481L25.0481 282.516C26.5481 282.516 28.5481 283.216 28.5481 284.016V296.016C32.7148 294.849 47.5482 294.016 67.0482 296.016C93.1458 298.693 97.5482 308.016 96.5482 310.516V330.016C94.3815 334.683 82.4482 344.016 52.0481 344.016C14.0481 344.016 0.548157 331.016 1.04814 331.016C1.43173 331.016 1.23286 316.3 1.06891 308.038C0.984105 307.674 0.978041 307.332 1.04814 307.016C1.84814 303.416 11.7148 299.849 16.5481 298.516V284.016C16.1481 283.216 18.0481 282.516 19.5455 282.516L18.5481 96.0161H17.0481L15.9337 95.0161V77.0161C15.4845 75.9796 15.2504 74.9092 15.5481 74.0161C16.0481 72.5161 17.5481 70.5161 18.5481 70.5161H22.7851C22.6089 69.6996 22.5481 68.9661 22.5481 68.5161C25.7148 66.6828 32.1481 63.0161 32.5481 63.0161H34.5481L78.6396 36.0161C78.5728 35.6039 78.5481 35.2504 78.5481 35.0161Z" fill="#F5F5F5"/>
<path d="M81.5481 41.0161C81.2148 40.6828 80.3481 39.7161 79.5481 38.5161C79.0292 37.7377 78.7627 36.7771 78.6396 36.0161M81.5481 41.0161L88.5481 39.0161L83.5481 29.0161L78.5481 35.0161C78.5481 35.2504 78.5728 35.6039 78.6396 36.0161M81.5481 41.0161L37.5481 68.0161M78.6396 36.0161L34.5481 63.0161M34.5481 63.0161C34.7148 63.6828 35.1481 65.1161 35.5481 65.5161C35.9481 65.9161 37.0481 67.3494 37.5481 68.0161M34.5481 63.0161C34.0481 63.0161 32.9481 63.0161 32.5481 63.0161C32.1481 63.0161 25.7148 66.6828 22.5481 68.5161C22.5481 68.9661 22.6089 69.6996 22.7851 70.5161M37.5481 68.0161L28.0481 76.5161C27.9098 76.4608 27.7402 76.3852 27.5481 76.2904M22.7851 70.5161C23.0004 71.5141 23.3881 72.6361 24.0481 73.5161C25.0489 74.8505 26.583 75.814 27.5481 76.2904M22.7851 70.5161C21.7061 70.5161 19.3481 70.5161 18.5481 70.5161C17.5481 70.5161 16.0481 72.5161 15.5481 74.0161C15.2504 74.9092 15.4845 75.9796 15.9337 77.0161M27.5481 76.2904C27.5481 77.0323 27.4481 78.6161 27.0481 79.0161C26.8917 79.1726 26.7352 79.329 26.5481 79.4855M15.9337 77.0161C16.2389 77.7205 16.6435 78.4092 17.0481 79.0161C18.0481 80.5161 23.0481 81.0161 24.5481 80.5161C25.5788 80.1726 26.1373 79.829 26.5481 79.4855M15.9337 77.0161V95.0161L17.0481 96.0161H18.5481M26.5481 79.4855V95.0161L25.0481 96.0161H24.5481M18.5481 96.0161L19.5481 283.016C19.7148 283.349 20.4481 284.016 22.0481 284.016C23.6481 284.016 24.7148 283.516 25.0481 283.016V282.516M18.5481 96.0161H24.5481M24.5481 96.0161L25.0481 282.516M19.5455 282.516C18.0481 282.516 16.1481 283.216 16.5481 284.016M16.5481 284.016C17.0481 285.016 19.5481 285.516 22.0481 285.516C24.5481 285.516 28.5481 285.016 28.5481 284.016M16.5481 284.016V298.516M28.5481 284.016C28.5481 283.216 26.5481 282.516 25.0481 282.516M28.5481 284.016V296.016M16.5481 298.516V305.516C17.3815 306.016 19.3481 307.016 22.5481 307.016C25.7481 307.016 28.0481 306.016 28.5481 305.516V296.016M16.5481 298.516C11.7148 299.849 1.84814 303.416 1.04814 307.016M1.04814 307.016C0.0481382 311.516 14.5481 321.516 52.0481 321.516C89.5481 321.516 95.5482 313.016 96.5482 310.516M1.04814 307.016C1.2148 315.016 1.44812 331.016 1.04814 331.016C0.548157 331.016 14.0481 344.016 52.0481 344.016C82.4482 344.016 94.3815 334.683 96.5482 330.016V310.516M96.5482 310.516C97.5482 308.016 93.1458 298.693 67.0482 296.016C47.5482 294.016 32.7148 294.849 28.5481 296.016" stroke="black"/>
<path d="M71.0482 307.016C73.2049 307.016 75.1334 307.4 76.5042 308C77.1904 308.3 77.7145 308.644 78.0599 309.001C78.4029 309.356 78.5482 309.698 78.5482 310.016C78.5482 310.334 78.4029 310.676 78.0599 311.031C77.7145 311.388 77.1904 311.733 76.5042 312.033C75.1334 312.632 73.2049 313.016 71.0482 313.016C68.8914 313.016 66.9629 312.632 65.5921 312.033C64.9059 311.733 64.3818 311.388 64.0364 311.031C63.6934 310.676 63.5482 310.334 63.5482 310.016C63.5482 309.698 63.6934 309.356 64.0364 309.001C64.3818 308.644 64.9059 308.3 65.5921 308C66.9629 307.4 68.8914 307.016 71.0482 307.016Z" fill="#D9D9D9" stroke="black"/>
<path d="M154.577 75.0161C154.177 70.2161 148.744 64.6828 146.077 62.5161C142.411 64.1828 133.977 68.2161 129.577 71.0161C125.177 73.8161 118.077 78.5161 115.077 80.5161C114.911 83.0161 115.377 89.0161 118.577 93.0161C122.577 98.0161 137.077 104.016 146.077 96.5161C155.077 89.0161 155.077 81.0161 154.577 75.0161Z" fill="white" stroke="black"/>
</svg>
