<svg width="190" height="105" viewBox="0 0 190 105" fill="none" xmlns="http://www.w3.org/2000/svg">
<path d="M143.49 3.83625C147.607 4.7031 158.389 5.28101 163.265 5.46161L172.025 20.6317H177.622L189 97.8363V100.274H106.378C104.662 101.358 99.9844 103.525 95 103.525C90.0156 103.525 85.6993 101.358 84.1643 100.274H1V97.8363L12.6484 20.6317H18.132L26.7349 5.19078C27.8184 5.19076 32.0986 5.08237 40.5504 4.64894C51.1153 4.10715 66.5562 -2.12339 77.6628 3.02358C86.5481 7.14116 92.9231 12.6854 95 14.9429C96.3545 13.6787 100.147 10.3377 104.481 7.08698C109.899 3.02358 116.942 1.39821 121.818 1.12731C126.695 0.856419 138.343 2.75267 143.49 3.83625Z" fill="white"/>
<path d="M6.41787 94.0437L16.17 24.1532L18.132 20.6317M6.41787 94.0437L18.3372 79.4156M6.41787 94.0437H84.1643M183.04 94.0437L174.372 24.695L172.025 20.6317M183.04 94.0437L171.934 79.9573M183.04 94.0437H106.378M163.265 5.46161C158.389 5.28101 147.607 4.7031 143.49 3.83625C138.343 2.75267 126.695 0.856419 121.818 1.12731C116.942 1.39821 109.899 3.02358 104.481 7.08698C100.147 10.3377 96.3545 13.6787 95 14.9429M163.265 5.46161L171.934 79.9573M163.265 5.46161L172.025 20.6317M95 14.9429C92.9231 12.6854 86.5481 7.14116 77.6628 3.02358C66.5562 -2.12339 51.1153 4.10715 40.5504 4.64894C32.0986 5.08237 27.8184 5.19076 26.7349 5.19078M95 14.9429V92.1475M26.7349 5.19078L18.3372 79.4156M26.7349 5.19078L18.132 20.6317M18.3372 79.4156C23.755 79.4156 36.0536 79.3072 41.9049 78.8738C49.219 78.332 59.2421 76.7066 68.4524 76.7066C77.6628 76.7066 83.8934 81.8536 85.7896 83.2081C87.3066 84.2916 92.562 89.6192 95 92.1475M95 92.1475V94.0437M95 92.1475C97.0768 89.5289 102.802 83.4248 109.086 79.9573C115.371 76.4899 122.902 76.3454 125.882 76.7066C131.571 77.2484 143.815 78.4403 147.282 78.8738C150.75 79.3072 165.161 79.7768 171.934 79.9573M95 94.0437H84.1643M95 94.0437H106.378M84.1643 94.0437V97.8363M84.1643 97.8363C85.8799 98.9199 90.449 101.087 95 101.087C99.551 101.087 104.481 98.9199 106.378 97.8363M84.1643 97.8363V100.274M84.1643 97.8363H1M106.378 97.8363V94.0437M106.378 97.8363V100.274M106.378 97.8363H189M106.378 100.274C104.662 101.358 99.9844 103.525 95 103.525C90.0156 103.525 85.6993 101.358 84.1643 100.274M106.378 100.274H189V97.8363M84.1643 100.274H1V97.8363M189 97.8363L177.622 20.6317H172.025M18.132 20.6317H12.6484L1 97.8363M87.9568 70.4761C85.7896 68.2186 80.155 63.6496 74.9539 63.4329C68.4524 63.162 47.5937 65.0582 44.072 65.3291C41.2548 65.5458 31.3401 66.1418 26.7349 66.4127M87.9568 65.3291C85.7896 63.0717 80.155 58.5026 74.9539 58.2859C68.4524 58.015 47.5937 59.9112 44.072 60.1821C41.2548 60.3988 31.3401 60.9948 26.7349 61.2657M87.9568 60.1821C85.7896 57.9247 80.155 53.3556 74.9539 53.1389C68.4524 52.868 47.5937 54.7643 44.072 55.0352C41.2548 55.2519 31.3401 55.8478 26.7349 56.1187M87.9568 56.1187C85.7896 53.8613 80.155 49.2922 74.9539 49.0755C68.4524 48.8046 47.5937 50.7009 44.072 50.9718C41.2548 51.1885 31.3401 51.7844 26.7349 52.0553M89.0403 50.9718C86.8732 48.7143 81.2386 44.1452 76.0375 43.9285C69.536 43.6576 48.6772 45.5539 45.1556 45.8248C42.3383 46.0415 32.4236 46.6375 27.8184 46.9084M100.147 70.4761C101.411 68.8507 105.456 65.1666 111.524 63.4329C117.593 61.6991 128.771 62.7105 134.28 63.4329M100.147 65.6C101.411 63.9746 105.456 60.2905 111.524 58.5568C117.593 56.8231 128.771 57.8344 134.28 58.5568M100.147 62.0784C101.411 60.453 105.456 56.7689 111.524 55.0352C117.593 53.3014 128.771 54.3128 134.28 55.0352M100.147 58.015C101.411 56.3896 105.456 52.7055 111.524 50.9718C117.593 49.238 128.771 50.2494 134.28 50.9718M100.147 53.9516C101.411 52.3262 105.456 48.6421 111.524 46.9084C117.593 45.1746 127.959 46.186 133.467 46.9084M100.147 49.0755C101.411 47.4501 105.456 43.766 111.524 42.0323C117.593 40.2986 127.959 41.3099 133.467 42.0323M100.147 43.9285C101.411 42.3032 105.456 38.619 111.524 36.8853C117.593 35.1516 127.959 36.1629 133.467 36.8853M100.147 39.0524C101.411 37.4271 105.456 33.7429 111.524 32.0092C117.593 30.2755 126.875 30.4741 132.383 31.1965M100.147 35.2599C101.411 33.6346 105.456 29.9504 111.524 28.2167C117.593 26.483 126.875 26.6817 132.383 27.404M100.147 31.1965C101.411 29.5711 105.456 25.887 111.524 24.1532C117.593 22.4195 126.875 22.6183 132.383 23.3406M100.147 26.3205C101.411 24.6951 105.456 21.011 111.524 19.2772C117.593 17.5435 126.333 17.4713 131.841 18.1937" stroke="black"/>
<path d="M72.2866 32.8904L34.8198 35.0017V17.0398L72.2866 14.9294V32.8904Z" fill="#D9D9D9" stroke="black"/>
<path d="M156.859 15.9287L163.502 67.4883L138.278 65.4082L135.622 13.0791L156.859 15.9287Z" fill="#D9D9D9" stroke="black"/>
</svg>
