<svg width="204" height="119" viewBox="0 0 204 119" fill="none" xmlns="http://www.w3.org/2000/svg">
<rect x="77.2377" y="4.63574" width="125.829" height="72.7119" fill="white" stroke="black"/>
<rect x="121.648" y="18.1868" width="29.6069" height="6.61017" rx="3.30508" fill="black"/>
<rect width="86.4383" height="72.7119" transform="matrix(0.883092 -0.4692 0 1 1 45.1924)" fill="white" stroke="black"/>
<rect x="75.0171" y="5.95752" width="125.089" height="18.5085" fill="white" stroke="black" stroke-width="0.5"/>
<path d="M183.822 1C180.756 1 178.271 3.21961 178.271 5.95763H189.374C189.374 3.21961 186.888 1 183.822 1Z" fill="black" stroke="black" stroke-width="0.5"/>
<path d="M94.8167 17.5254L95.1867 14.7161C95.7789 14.7161 96.0503 15.1567 96.112 15.3771C96.112 15.7076 96.0749 16.5008 95.9269 17.0296C95.7789 17.5584 95.1251 17.5805 94.8167 17.5254Z" stroke="black" stroke-width="0.5" stroke-linejoin="round"/>
<path d="M82.6899 23.8051C81.8017 21.9542 83.3067 19.3983 84.1703 18.3517L84.5403 17.6907C85.0955 19.3432 86.2057 22.8136 86.2057 23.4746C86.2057 24.3008 85.6506 25.1271 85.0955 25.7881C84.6514 26.3169 83.5534 26.4491 83.06 26.4491C83.3067 26.339 83.5781 25.6559 82.6899 23.8051Z" fill="black" stroke="black" stroke-width="0.5" stroke-linejoin="round"/>
<path d="M94.0765 15.3772C94.0765 16.1643 93.8495 18.1432 92.9415 19.7623C91.8066 21.7862 88.591 22.2922 86.8886 20.7743C85.4332 19.4766 85.7536 19.2563 85.5645 18.2444" stroke="black" stroke-width="0.5" stroke-linejoin="round"/>
<path d="M84.0842 15.5423C82.9738 14.055 83.42 11.2071 85.9347 9.9237C88.5253 8.60165 91.2063 9.38569 92.4112 9.9237C93.5215 10.4194 94.6318 12.072 94.6318 13.2288C94.6318 14.1542 94.2617 15.1567 94.0766 15.5423" stroke="black" stroke-width="0.5" stroke-linejoin="round"/>
<path d="M84.6393 17.5254C84.8243 17.6906 85.7495 20.6652 85.7495 21.9873C85.7495 23.0449 85.3795 24.1906 85.1944 24.6313" stroke="black" stroke-width="0.5" stroke-linejoin="round"/>
<path d="M91.1158 21.3262C90.9307 21.4363 90.5237 21.9872 90.3756 22.6482C90.2276 23.3092 90.5607 24.2457 90.7457 24.6313" stroke="black" stroke-width="0.5" stroke-linejoin="round"/>
<path d="M90.9308 16.6992C91.0541 17.0848 91.3008 17.889 91.3008 18.0213C91.3008 18.1865 90.7457 18.3518 90.5607 18.3518" stroke="black" stroke-width="0.5" stroke-linejoin="round"/>
<path d="M94.0765 15.5423C94.2615 15.377 94.6316 15.0465 95.0017 15.2118C95.1672 15.2857 95.0017 16.5338 94.6316 16.8643C94.3355 17.1287 94.0148 17.1948 93.8914 17.1948" stroke="black" stroke-width="0.5" stroke-linejoin="round"/>
<path d="M88.1784 14.3855C89.5107 14.1211 91.2008 12.733 91.8793 12.072C92.0026 12.5126 92.3234 13.4931 92.6194 13.8898C92.9895 14.3855 93.7297 14.716 93.9147 15.0465C94.0998 15.377 93.9147 18.1864 93.7297 19.0126C93.5817 19.6737 92.8045 20.8304 92.4344 21.3262C92.9895 20.8304 94.1738 19.6076 94.4699 18.6821C94.8399 17.5253 95.21 13.394 95.025 12.8982C94.8399 12.4025 94.4699 10.9152 93.3596 10.0889C92.2493 9.26264 90.2139 8.93213 89.6587 8.93213C89.1036 8.93213 87.6233 8.93213 85.9579 9.7584C84.2925 10.5847 83.3673 12.733 83.5524 14.055C83.7374 15.377 84.1075 15.7076 84.1075 15.5423C84.1075 15.4101 84.7243 15.2669 85.0327 15.2118H85.5878V17.0296C85.5878 19.0126 86.6981 20.8304 87.2532 21.4915C87.0682 21.0508 86.6611 20.0042 86.513 19.3431C86.328 18.5169 86.513 14.716 88.1784 14.3855Z" fill="black" stroke="black" stroke-width="0.5" stroke-linejoin="round"/>
<path d="M85.657 15.5962C85.2869 15.4309 84.4727 15.1996 84.1767 15.5962C83.8066 16.0919 83.8066 16.753 84.1767 17.0835C84.4727 17.3479 85.2869 17.9648 85.657 18.2403" stroke="black" stroke-width="0.5" stroke-linejoin="round"/>
<path d="M87.9701 14.716C88.1551 14.661 88.5622 14.5508 88.7102 14.5508C88.8583 14.5508 89.142 14.661 89.2654 14.716" stroke="black" stroke-width="0.5"/>
<path d="M92.041 14.5508C92.1643 14.4957 92.4481 14.3855 92.5961 14.3855C92.7441 14.3855 93.0279 14.4957 93.1512 14.5508" stroke="black" stroke-width="0.5"/>
<path d="M87.9701 16.5339C88.0934 16.4788 88.4142 16.3687 88.7102 16.3687C89.0063 16.3687 89.2037 16.4788 89.2654 16.5339" stroke="black" stroke-width="0.5" stroke-linejoin="round"/>
<path d="M91.6709 16.5339C91.8559 16.4788 92.226 16.3687 92.4111 16.3687C92.5591 16.3687 92.7812 16.4237 92.9662 16.5339" stroke="black" stroke-width="0.5" stroke-linejoin="round"/>
<path d="M90.1906 19.554C90.4373 19.4438 90.9308 19.2565 90.9308 19.3887C90.9308 19.5209 90.8074 19.7743 90.7457 19.8845C90.8074 19.8845 90.9678 19.9175 91.1158 20.0497C91.2638 20.182 90.684 20.3252 90.3756 20.3803" stroke="black" stroke-width="0.5" stroke-linejoin="round"/>
<path d="M89.0803 9.42809C91.3796 9.03696 93.0279 9.64842 93.7064 10.0891C94.1505 10.4857 94.5082 11.1357 94.6316 11.4111C93.5213 10.7501 91.1158 10.0891 89.2654 10.5849C86.0474 11.447 85.7495 14.551 85.7495 14.551V14.7162H84.6393V14.2204C84.6393 13.3942 85.1944 10.0891 89.0803 9.42809Z" fill="white" stroke="black" stroke-width="0.5" stroke-linejoin="round"/>
<path d="M85.0096 14.6355C86.1251 14.6356 86.9803 15.4376 86.9803 16.3689C86.98 17.3 86.1249 18.1012 85.0096 18.1013C83.8941 18.1013 83.0391 17.3 83.0388 16.3689C83.0388 15.4376 83.8939 14.6355 85.0096 14.6355Z" fill="white" stroke="black" stroke-width="0.5"/>
<path d="M99.8128 17.6907C99.381 17.5255 98.5545 17.2941 98.7025 17.6907C98.8506 18.0874 99.5044 17.856 99.8128 17.6907ZM99.8128 17.6907L100.553 16.0382L101.478 16.3687M99.8128 11.2458V9.75854H98.5175V11.0806M99.8128 11.2458C99.6894 11.1357 99.4057 10.9814 99.2577 11.2458C99.1096 11.5102 99.5661 11.356 99.8128 11.2458ZM98.5175 11.0806C98.2091 11.0806 97.7773 10.9153 97.7773 11.0806C97.7773 11.2675 98.3324 11.1907 98.5175 11.0806Z" stroke="black" stroke-width="0.5" stroke-linejoin="round"/>
<rect x="71.3163" y="7.94067" width="125.089" height="18.5085" fill="white" stroke="black" stroke-width="0.5"/>
<rect x="67.6155" y="9.92383" width="125.089" height="18.5085" fill="white" stroke="black" stroke-width="0.5"/>
<rect x="63.9146" y="11.9067" width="125.089" height="18.5085" fill="white" stroke="black" stroke-width="0.5"/>
<rect x="60.2137" y="13.8899" width="125.089" height="18.5085" fill="white" stroke="black" stroke-width="0.5"/>
<rect x="56.5128" y="15.5425" width="125.089" height="18.5085" fill="white" stroke="black" stroke-width="0.5"/>
<path d="M149.034 15.5424H123.128L126.829 10.5847L130.53 11.5762H141.633L145.333 10.5847L149.034 15.5424Z" fill="black" stroke="black" stroke-width="0.5"/>
<path d="M64.1857 33.0592C63.2975 31.2084 64.8025 28.6525 65.6661 27.6058L66.0361 26.9448C66.5913 28.5974 67.7015 32.0677 67.7015 32.7287C67.7015 33.555 67.1464 34.3813 66.5913 35.0423C66.1472 35.5711 65.0492 35.7033 64.5558 35.7033C64.8025 35.5931 65.0739 34.9101 64.1857 33.0592Z" fill="black" stroke="black" stroke-width="0.5" stroke-linejoin="round"/>
<path d="M75.5722 24.6313C75.5722 25.4184 75.3453 27.3973 74.4373 29.0165C73.3024 31.0404 70.0868 31.5463 68.3844 30.0284C66.929 28.7307 67.2494 28.5105 67.0603 27.4985" stroke="black" stroke-width="0.5" stroke-linejoin="round"/>
<path d="M65.5799 24.7965C64.4696 23.3092 64.9158 20.4612 67.4305 19.1779C70.021 17.8558 72.7021 18.6398 73.907 19.1779C75.0173 19.6736 76.1275 21.3261 76.1275 22.4829C76.1275 23.4083 75.7574 24.4109 75.5724 24.7965" stroke="black" stroke-width="0.5" stroke-linejoin="round"/>
<path d="M66.1351 26.7795C66.3201 26.9448 67.2453 29.9194 67.2453 31.2414C67.2453 32.299 66.8752 33.4448 66.6902 33.8855" stroke="black" stroke-width="0.5" stroke-linejoin="round"/>
<path d="M72.6116 30.5806C72.4265 30.6907 72.0195 31.2416 71.8714 31.9026C71.7234 32.5636 72.0565 33.5001 72.2415 33.8857" stroke="black" stroke-width="0.5" stroke-linejoin="round"/>
<path d="M73.5368 25.5834V25.332C73.5368 25.1276 73.7025 24.9619 73.9069 24.9619C74.1113 24.9619 74.2769 25.1276 74.2769 25.332V25.5834C74.2769 25.7877 74.1113 25.9534 73.9069 25.9534C73.7025 25.9534 73.5368 25.7877 73.5368 25.5834Z" fill="black" stroke="black" stroke-width="0.5" stroke-linejoin="round"/>
<path d="M69.8359 25.5834V25.332C69.8359 25.1276 70.0016 24.9619 70.206 24.9619C70.4104 24.9619 70.5761 25.1276 70.5761 25.332V25.5834C70.5761 25.7877 70.4104 25.9534 70.206 25.9534C70.0016 25.9534 69.8359 25.7877 69.8359 25.5834Z" fill="black" stroke="black" stroke-width="0.5" stroke-linejoin="round"/>
<path d="M72.4265 25.9534C72.5499 26.339 72.7966 27.1432 72.7966 27.2754C72.7966 27.4407 72.2415 27.6059 72.0564 27.6059" stroke="black" stroke-width="0.5" stroke-linejoin="round"/>
<path d="M72.0564 29.4237C71.4643 29.4237 71.3163 28.8728 71.3163 28.5974H72.7966C72.7966 28.8728 72.6486 29.4237 72.0564 29.4237Z" stroke="black" stroke-width="0.5"/>
<path d="M75.5722 24.7967C75.7573 24.6314 76.1274 24.3009 76.4975 24.4662C76.663 24.5401 76.4975 25.7882 76.1274 26.1187C75.8313 26.3831 75.5106 26.4492 75.3872 26.4492" stroke="black" stroke-width="0.5" stroke-linejoin="round"/>
<path d="M69.6742 23.6399C71.0065 23.3755 72.6966 21.9874 73.3751 21.3264C73.4984 21.767 73.8192 22.7475 74.1152 23.1442C74.4853 23.6399 75.2255 23.9704 75.4105 24.3009C75.5956 24.6314 75.4105 27.4408 75.2255 28.267C75.0774 28.928 74.3003 30.0848 73.9302 30.5806C74.4853 30.0848 75.6696 28.8619 75.9657 27.9365C76.3357 26.7797 76.7058 22.6484 76.5208 22.1526C76.3357 21.6569 75.9657 20.1696 74.8554 19.3433C73.7451 18.517 71.7097 18.1865 71.1545 18.1865C70.5994 18.1865 69.1191 18.1865 67.4537 19.0128C65.7883 19.8391 64.8631 21.9874 65.0482 23.3094C65.2332 24.6314 65.6033 24.9619 65.6033 24.7967C65.6033 24.6645 66.2201 24.5213 66.5285 24.4662H67.0836V26.284C67.0836 28.267 68.1939 30.0848 68.749 30.7458C68.564 30.3052 68.1569 29.2586 68.0088 28.5975C67.8238 27.7713 68.0088 23.9704 69.6742 23.6399Z" fill="black" stroke="black" stroke-width="0.5" stroke-linejoin="round"/>
<path d="M67.1528 24.8503C66.7827 24.6851 65.9685 24.4537 65.6725 24.8503C65.3024 25.3461 65.3024 26.0071 65.6725 26.3376C65.9685 26.602 66.7827 27.219 67.1528 27.4944" stroke="black" stroke-width="0.5" stroke-linejoin="round"/>
<path d="M69.4658 23.9704C69.6509 23.9153 70.058 23.8052 70.206 23.8052C70.354 23.8052 70.6378 23.9153 70.7611 23.9704" stroke="black" stroke-width="0.5"/>
<path d="M73.5368 23.8051C73.6601 23.7501 73.9439 23.6399 74.0919 23.6399C74.2399 23.6399 74.5237 23.7501 74.647 23.8051" stroke="black" stroke-width="0.5"/>
<rect x="73.4167" y="29.7078" width="6.93563" height="3.5973" fill="#D9D9D9" stroke="black" stroke-width="0.5"/>
<path d="M80.0091 31.5063H79.6927V31.7713H80.0091C80.0486 31.7713 80.1278 31.7465 80.1278 31.6476C80.1278 31.5487 80.0486 31.5122 80.0091 31.5063Z" fill="black" stroke="black" stroke-width="0.5" stroke-linejoin="round"/>
<path d="M73.2062 30.3408C73.2729 30.3408 76.4553 30.3408 77.1218 30.3408" stroke="black" stroke-width="0.5" stroke-linejoin="round"/>
<path d="M80.5628 30.3408H77.7942" stroke="black" stroke-width="0.5" stroke-linejoin="round"/>
<rect x="73.2062" y="30.3408" width="1.66115" height="2.93169" fill="black"/>
<path d="M78.0114 30.3435C78.829 30.3435 79.443 30.9294 79.4431 31.5945C79.4431 32.2596 78.8291 32.8455 78.0114 32.8455C77.194 32.8453 76.5808 32.2596 76.5808 31.5945C76.5809 30.9295 77.194 30.3436 78.0114 30.3435Z" fill="#D9D9D9" stroke="black" stroke-width="0.5"/>
<path d="M78.012 30.5908C78.6766 30.5909 79.1663 31.0662 79.1663 31.5947C79.1663 32.1233 78.6766 32.5985 78.012 32.5986C77.3473 32.5986 76.8577 32.1233 76.8577 31.5947C76.8577 31.0661 77.3473 30.5908 78.012 30.5908Z" fill="#424242" stroke="black" stroke-width="0.5"/>
<path d="M78.012 31.0146C78.4145 31.0148 78.6917 31.3003 78.6917 31.5947C78.6917 31.8892 78.4144 32.1747 78.012 32.1748C77.6094 32.1748 77.3323 31.8892 77.3323 31.5947C77.3323 31.3002 77.6094 31.0146 78.012 31.0146Z" fill="black" stroke="black" stroke-width="0.5"/>
<ellipse cx="77.2998" cy="30.9589" rx="0.217532" ry="0.194269" fill="white"/>
<ellipse cx="77.6162" cy="31.3122" rx="0.098878" ry="0.088304" fill="white"/>
<line x1="73.1667" y1="33.0225" x2="80.6023" y2="33.0225" stroke="black" stroke-width="0.5"/>
<ellipse cx="74.1159" cy="29.917" rx="0.118654" ry="0.105965" fill="black"/>
<rect x="74.3974" y="29.3606" width="0.781823" height="0.088304" fill="#D9D9D9" stroke="black" stroke-width="0.088304"/>
<rect x="73.5887" y="29.4137" width="0.579837" height="0.0529824" fill="#D9D9D9" stroke="black" stroke-width="0.0529824"/>
<path d="M76.7277 29.3274C76.7435 29.4263 76.8529 29.4628 76.9056 29.4687H77.6967C77.7955 29.4687 77.9142 29.3098 77.8549 29.2215C77.8074 29.1508 77.7033 29.1449 77.6571 29.1508C77.6373 29.092 77.6373 28.9978 77.5385 28.9389C77.491 28.9106 77.3473 28.9448 77.2814 28.9566C77.2418 28.9448 77.135 28.9106 77.0243 28.9389C76.9136 28.9672 76.899 29.1037 76.9056 29.1685C76.8397 29.1803 76.7118 29.2285 76.7277 29.3274Z" fill="white" stroke="black" stroke-width="0.5"/>
<ellipse cx="77.1627" cy="29.1507" rx="0.0197756" ry="0.0176608" fill="black"/>
<ellipse cx="77.4" cy="29.1507" rx="0.0197756" ry="0.0176608" fill="black"/>
<path d="M77.2813 29.259C77.2682 29.259 77.2378 29.2555 77.222 29.2413C77.222 29.259 77.2418 29.312 77.2813 29.312C77.3209 29.312 77.3604 29.2237 77.3407 29.2413C77.3248 29.2555 77.2945 29.259 77.2813 29.259Z" stroke="black" stroke-width="0.5" stroke-linejoin="round"/>
<ellipse cx="79.9498" cy="31.6476" rx="0.098878" ry="0.088304" fill="#D9D9D9"/>
<rect x="52.812" y="17.5254" width="125.089" height="18.5085" fill="white" stroke="black" stroke-width="0.5"/>
<rect x="49.1111" y="19.5085" width="125.089" height="18.5085" fill="white" stroke="black" stroke-width="0.5"/>
<rect x="45.4103" y="21.822" width="125.089" height="18.5085" fill="white" stroke="black"/>
<rect x="45.4103" y="21.4915" width="125.089" height="18.5085" fill="white" stroke="black" stroke-width="0.5"/>
<rect x="41.7095" y="23.4746" width="125.089" height="18.5085" fill="white" stroke="black" stroke-width="0.5"/>
<rect x="38.0086" y="25.4575" width="125.089" height="18.5085" fill="white" stroke="black" stroke-width="0.5"/>
<path d="M104.809 25.4577L71.3163 25.4577V21.1611L104.809 21.1611V25.4577Z" fill="black" stroke="black" stroke-width="0.5"/>
<path d="M45.6815 43.3051C44.7932 41.4542 46.2983 38.8983 47.1618 37.8517L47.5319 37.1907C48.087 38.8432 49.1972 42.3136 49.1972 42.9746C49.1972 43.8008 48.6421 44.6271 48.087 45.2881C47.6429 45.8169 46.545 45.9491 46.0515 45.9491C46.2982 45.839 46.5697 45.1559 45.6815 43.3051Z" fill="black" stroke="black" stroke-width="0.5" stroke-linejoin="round"/>
<path d="M57.068 34.8772C57.068 35.6643 56.841 37.6432 55.9331 39.2623C54.7981 41.2862 51.5825 41.7922 49.8801 40.2743C48.4247 38.9766 48.7452 38.7563 48.556 37.7444" stroke="black" stroke-width="0.5" stroke-linejoin="round"/>
<path d="M47.0757 35.0423C45.9653 33.555 46.4115 30.7071 48.9263 29.4237C51.5168 28.1017 54.1978 28.8857 55.4028 29.4237C56.513 29.9194 57.6233 31.572 57.6233 32.7288C57.6233 33.6542 57.2532 34.6567 57.0682 35.0423" stroke="black" stroke-width="0.5" stroke-linejoin="round"/>
<path d="M47.6308 37.0254C47.8158 37.1906 48.7411 40.1652 48.7411 41.4873C48.7411 42.5449 48.371 43.6906 48.1859 44.1313" stroke="black" stroke-width="0.5" stroke-linejoin="round"/>
<path d="M54.1073 40.8262C53.9223 40.9363 53.5152 41.4872 53.3672 42.1482C53.2191 42.8092 53.5522 43.7457 53.7372 44.1313" stroke="black" stroke-width="0.5" stroke-linejoin="round"/>
<path d="M55.0325 35.829V35.5776C55.0325 35.3732 55.1982 35.2075 55.4026 35.2075C55.607 35.2075 55.7727 35.3732 55.7727 35.5776V35.829C55.7727 36.0334 55.607 36.199 55.4026 36.199C55.1982 36.199 55.0325 36.0334 55.0325 35.829Z" fill="black" stroke="black" stroke-width="0.5" stroke-linejoin="round"/>
<path d="M51.3317 35.829V35.5776C51.3317 35.3732 51.4974 35.2075 51.7018 35.2075C51.9061 35.2075 52.0718 35.3732 52.0718 35.5776V35.829C52.0718 36.0334 51.9061 36.199 51.7018 36.199C51.4974 36.199 51.3317 36.0334 51.3317 35.829Z" fill="black" stroke="black" stroke-width="0.5" stroke-linejoin="round"/>
<path d="M53.9223 36.1992C54.0456 36.5848 54.2924 37.389 54.2924 37.5213C54.2924 37.6865 53.7372 37.8518 53.5522 37.8518" stroke="black" stroke-width="0.5" stroke-linejoin="round"/>
<path d="M52.812 39.0085H54.2931" stroke="black" stroke-width="0.5" stroke-linejoin="round"/>
<path d="M57.068 35.0423C57.253 34.877 57.6231 34.5465 57.9932 34.7118C58.1587 34.7857 57.9932 36.0338 57.6231 36.3643C57.327 36.6287 57.0063 36.6948 56.8829 36.6948" stroke="black" stroke-width="0.5" stroke-linejoin="round"/>
<path d="M51.1699 33.8855C52.5022 33.6211 54.1923 32.233 54.8708 31.572C54.9942 32.0126 55.3149 32.9931 55.611 33.3898C55.981 33.8855 56.7212 34.216 56.9062 34.5465C57.0913 34.877 56.9062 37.6864 56.7212 38.5126C56.5732 39.1737 55.796 40.3304 55.4259 40.8262C55.981 40.3304 57.1653 39.1076 57.4614 38.1821C57.8315 37.0253 58.2016 32.894 58.0165 32.3982C57.8315 31.9025 57.4614 30.4152 56.3511 29.5889C55.2409 28.7626 53.2054 28.4321 52.6503 28.4321C52.0951 28.4321 50.6148 28.4321 48.9494 29.2584C47.2841 30.0847 46.3588 32.233 46.5439 33.555C46.7289 34.877 47.099 35.2076 47.099 35.0423C47.099 34.9101 47.7158 34.7669 48.0242 34.7118H48.5794V36.5296C48.5794 38.5126 49.6896 40.3304 50.2447 40.9915C50.0597 40.5508 49.6526 39.5042 49.5046 38.8431C49.3195 38.0169 49.5046 34.216 51.1699 33.8855Z" fill="black" stroke="black" stroke-width="0.5" stroke-linejoin="round"/>
<path d="M48.6485 35.0962C48.2784 34.9309 47.4643 34.6996 47.1682 35.0962C46.7981 35.5919 46.7981 36.253 47.1682 36.5835C47.4643 36.8479 48.2784 37.4648 48.6485 37.7403" stroke="black" stroke-width="0.5" stroke-linejoin="round"/>
<path d="M52.0718 34.3813L50.7765 34.8771M55.0325 34.0508H55.9577" stroke="black" stroke-width="0.5"/>
<path d="M52.9971 35.8687C53.2933 35.8687 53.861 35.8687 54.1079 35.8687" stroke="black" stroke-width="0.5"/>
<path d="M51.3318 34.1355C52.2429 34.1356 52.9323 34.7892 52.9324 35.5378C52.9324 36.2866 52.243 36.9401 51.3318 36.9402C50.4206 36.9402 49.7312 36.2866 49.7312 35.5378C49.7314 34.7892 50.4207 34.1355 51.3318 34.1355Z" fill="white" stroke="black" stroke-width="0.5"/>
<path d="M55.7729 34.4661C56.684 34.4661 57.3734 35.1198 57.3735 35.8684C57.3735 36.6171 56.684 37.2707 55.7729 37.2708C54.8617 37.2708 54.1723 36.6172 54.1723 35.8684C54.1724 35.1197 54.8617 34.4661 55.7729 34.4661Z" fill="white" stroke="black" stroke-width="0.5"/>
<rect x="34.3077" y="27.4407" width="125.089" height="18.5085" fill="white" stroke="black" stroke-width="0.5"/>
<rect x="30.6068" y="29.4238" width="125.089" height="18.5085" fill="white" stroke="black" stroke-width="0.5"/>
<rect x="26.906" y="31.7373" width="125.089" height="18.5085" fill="white" stroke="black"/>
<rect x="26.906" y="31.4067" width="125.089" height="18.5085" fill="white" stroke="black" stroke-width="0.5"/>
<rect x="23.2052" y="33.3899" width="125.089" height="18.5085" fill="white" stroke="black" stroke-width="0.5"/>
<rect x="19.5043" y="35.3728" width="125.089" height="18.5085" fill="white" stroke="black" stroke-width="0.5"/>
<path d="M52.812 35.3728H26.906L27.6148 34.5499C29.5144 32.3445 32.2808 31.0762 35.1916 31.0762H44.5264C47.4372 31.0762 50.2036 32.3445 52.1032 34.5499L52.812 35.3728Z" fill="black" stroke="black" stroke-width="0.5"/>
<path d="M26.8071 53.0551C25.9189 51.2042 27.4239 48.6483 28.2874 47.6017L28.6575 46.9407C29.2126 48.5932 30.3229 52.0636 30.3229 52.7246C30.3229 53.5508 29.7678 54.3771 29.2126 55.0381C28.7685 55.5669 27.6706 55.6991 27.1772 55.6991C27.4239 55.589 27.6953 54.9059 26.8071 53.0551Z" fill="black" stroke="black" stroke-width="0.5" stroke-linejoin="round"/>
<path d="M38.1936 44.6272C38.1936 45.4143 37.9666 47.3932 37.0587 49.0123C35.9238 51.0362 32.7081 51.5422 31.0057 50.0243C29.5503 48.7266 29.8708 48.5063 29.6816 47.4944" stroke="black" stroke-width="0.5" stroke-linejoin="round"/>
<path d="M28.2013 44.7923C27.0909 43.305 27.5372 40.4571 30.0519 39.1737C32.6424 37.8517 35.3235 38.6357 36.5284 39.1737C37.6386 39.6694 38.7489 41.322 38.7489 42.4788C38.7489 43.4042 38.3788 44.4067 38.1938 44.7923" stroke="black" stroke-width="0.5" stroke-linejoin="round"/>
<path d="M28.7564 46.7754C28.9415 46.9406 29.8667 49.9152 29.8667 51.2373C29.8667 52.2949 29.4966 53.4406 29.3116 53.8813" stroke="black" stroke-width="0.5" stroke-linejoin="round"/>
<path d="M35.2329 50.5762C35.0479 50.6863 34.6408 51.2372 34.4928 51.8982C34.3448 52.5592 34.6778 53.4957 34.8629 53.8813" stroke="black" stroke-width="0.5" stroke-linejoin="round"/>
<path d="M36.1581 45.579V45.3276C36.1581 45.1232 36.3238 44.9575 36.5282 44.9575C36.7326 44.9575 36.8983 45.1232 36.8983 45.3276V45.579C36.8983 45.7834 36.7326 45.949 36.5282 45.949C36.3238 45.949 36.1581 45.7834 36.1581 45.579Z" fill="black" stroke="black" stroke-width="0.5" stroke-linejoin="round"/>
<path d="M32.4573 45.579V45.3276C32.4573 45.1232 32.623 44.9575 32.8274 44.9575C33.0318 44.9575 33.1974 45.1232 33.1974 45.3276V45.579C33.1974 45.7834 33.0318 45.949 32.8274 45.949C32.623 45.949 32.4573 45.7834 32.4573 45.579Z" fill="black" stroke="black" stroke-width="0.5" stroke-linejoin="round"/>
<path d="M35.0479 45.9492C35.1712 46.3348 35.418 47.139 35.418 47.2713C35.418 47.4365 34.8628 47.6018 34.6778 47.6018" stroke="black" stroke-width="0.5" stroke-linejoin="round"/>
<path d="M32.4573 47.7668L33.5675 48.5931" stroke="black" stroke-width="0.5" stroke-linejoin="round"/>
<path d="M38.1936 44.7923C38.3787 44.627 38.7487 44.2965 39.1188 44.4618C39.2843 44.5357 39.1188 45.7838 38.7487 46.1143C38.4527 46.3787 38.1319 46.4448 38.0086 46.4448" stroke="black" stroke-width="0.5" stroke-linejoin="round"/>
<path d="M32.2956 43.6355C33.6279 43.3711 35.3179 41.983 35.9964 41.322C36.1198 41.7626 36.4405 42.7431 36.7366 43.1398C37.1067 43.6355 37.8468 43.966 38.0319 44.2965C38.2169 44.627 38.0319 47.4364 37.8468 48.2626C37.6988 48.9237 36.9216 50.0804 36.5515 50.5762C37.1067 50.0804 38.291 48.8576 38.587 47.9321C38.9571 46.7753 39.3272 42.644 39.1421 42.1482C38.9571 41.6525 38.587 40.1652 37.4768 39.3389C36.3665 38.5126 34.331 38.1821 33.7759 38.1821C33.2208 38.1821 31.7405 38.1821 30.0751 39.0084C28.4097 39.8347 27.4845 41.983 27.6695 43.305C27.8546 44.627 28.2247 44.9576 28.2247 44.7923C28.2247 44.6601 28.8415 44.5169 29.1499 44.4618H29.705V46.2796C29.705 48.2626 30.8153 50.0804 31.3704 50.7415C31.1853 50.3008 30.7782 49.2542 30.6302 48.5931C30.4451 47.7669 30.6302 43.966 32.2956 43.6355Z" fill="black" stroke="black" stroke-width="0.5" stroke-linejoin="round"/>
<path d="M29.7742 44.8462C29.4041 44.6809 28.5899 44.4496 28.2938 44.8462C27.9237 45.3419 27.9237 46.003 28.2938 46.3335C28.5899 46.5979 29.4041 47.2148 29.7742 47.4903" stroke="black" stroke-width="0.5" stroke-linejoin="round"/>
<path d="M33.1975 44.1313L31.9022 44.6271M36.1581 43.8008H37.0834" stroke="black" stroke-width="0.5"/>
<path d="M27.3117 44.1295C27.2659 43.8974 27.4065 43.7489 27.4825 43.7037L27.5871 43.5875L27.4916 43.1038C27.4763 43.0265 27.6246 42.9167 27.7006 42.8715C27.6433 42.5813 27.5344 41.9003 27.5569 41.4978C27.585 40.9947 27.6604 40.0853 28.4111 39.3686C29.0117 38.7953 29.7006 38.3677 29.9699 38.2256C30.2266 38.0189 30.9623 37.5706 31.8524 37.4305C32.7424 37.2903 33.84 37.3834 34.2776 37.4475C34.5312 37.4408 35.202 37.4815 35.8565 37.6975C36.511 37.9136 37.5564 38.5602 37.9973 38.8564C38.1527 38.9982 38.5074 39.3745 38.6827 39.7458C38.858 40.1172 38.9909 40.6614 39.0355 40.8871L39.3209 41.0416C39.4351 41.1034 39.4891 41.2478 39.5019 41.3123L41.0527 42.0654L41.3381 42.22C41.4808 42.2972 41.6426 42.4712 41.6617 42.5679C41.6808 42.6647 41.3673 43.0132 40.911 43.2845C40.4547 43.5559 39.0476 44.1764 38.2014 44.4094C37.3551 44.6424 35.7672 44.9921 35.2536 44.9733L35.2536 44.9733C34.74 44.9544 34.2264 44.9356 33.8365 44.8972C33.4465 44.8589 31.8676 44.6089 31.2113 44.5128C30.555 44.4166 30.165 44.3783 29.7751 44.34L29.7751 44.34C29.3851 44.3017 28.8715 44.2828 28.7479 44.3023C28.6243 44.3217 27.6544 44.5742 27.5117 44.4969C27.369 44.4197 27.369 44.4197 27.3117 44.1295Z" fill="white" stroke="black" stroke-width="0.5"/>
<path d="M27.8062 44.0516C28.2531 43.9479 29.2781 43.7599 29.8032 43.8368C30.4595 43.9329 31.7912 44.2219 32.4284 44.2213C32.9381 44.2208 34.3587 43.8841 35.0053 43.7158" stroke="black" stroke-width="0.5"/>
<path d="M39.8064 41.5633C39.8603 41.6213 39.9017 41.7877 39.6355 41.9892C39.3694 42.1907 39.0114 42.4864 38.8657 42.6091C38.0322 42.9066 36.2663 43.5171 35.8707 43.5794C35.4751 43.6417 35.0465 43.7092 34.8817 43.7351M27.7579 43.1614C27.8403 43.1484 28.1535 43.0991 28.7469 43.0057C29.4886 42.8889 30.5731 43.2168 31.1057 43.3324C31.6384 43.448 34.0445 43.3683 34.7862 43.2515C35.5279 43.1347 37.8576 42.6681 38.4184 42.2806C38.8671 41.9706 39.258 41.5832 39.3973 41.4283M29.0414 42.5604C29.6531 42.4308 30.9222 42.1445 31.1047 42.036C31.3328 41.9003 33.548 40.8534 34.0233 40.6788C34.4987 40.5042 35.6967 40.1161 36.6475 39.7669C37.4081 39.4876 38.0103 39.3528 38.2164 39.3204M35.8776 40.3868L36.6687 42.4564M38.1691 39.7268C38.2676 40.0105 38.4761 40.6359 38.5219 40.868C38.5678 41.1002 38.6302 41.4161 38.6556 41.5451" stroke="black" stroke-width="0.5"/>
<path d="M30.6926 38.012C31.0222 37.9601 31.8166 37.8948 32.3569 38.0491C32.8972 38.2034 34.6498 39.1175 35.4585 39.5553" stroke="black" stroke-width="0.5"/>
<path d="M34.1922 37.6604C34.4585 37.7182 35.5621 38.1428 35.8475 38.2973C36.0758 38.421 36.6341 38.8384 36.8847 39.0316" stroke="black" stroke-width="0.5"/>
<rect x="15.8035" y="37.356" width="125.089" height="18.5085" fill="white" stroke="black" stroke-width="0.5"/>
<rect x="12.1025" y="39.3389" width="125.089" height="18.5085" fill="white" stroke="black" stroke-width="0.5"/>
<rect x="8.40173" y="41.322" width="125.089" height="18.5085" fill="white" stroke="black" stroke-width="0.5"/>
<rect x="4.70081" y="43.3052" width="125.089" height="18.5085" fill="white" stroke="black" stroke-width="0.5"/>
<rect x="1" y="45.2881" width="125.829" height="72.7119" fill="white" stroke="black"/>
<rect x="45.4103" y="58.8389" width="29.6069" height="6.61017" rx="3.30508" fill="black"/>
<rect width="86.4383" height="72.7119" transform="matrix(0.883092 -0.4692 0 1 126.829 45.2881)" fill="white" stroke="black"/>
<path d="M24.1875 88V79.901H24.9025L26.9045 83.866L28.9455 79.888H29.6345V88H28.7765V81.89L27.0215 85.153H26.6705L25.0325 81.929V88H24.1875ZM32.8975 88.143C32.2215 88.143 31.7015 87.9913 31.3375 87.688C30.9735 87.376 30.7915 86.9817 30.7915 86.505C30.7915 86.1843 30.8695 85.8983 31.0255 85.647C31.1815 85.387 31.3939 85.1703 31.6625 84.997C31.9399 84.815 32.2605 84.6763 32.6245 84.581C32.9885 84.4857 33.3742 84.438 33.7815 84.438C33.9289 84.438 34.0762 84.4423 34.2235 84.451C34.3795 84.451 34.5399 84.4597 34.7045 84.477C34.8779 84.4857 35.0555 84.503 35.2375 84.529L35.2635 85.244C35.1075 85.218 34.9472 85.2007 34.7825 85.192C34.6265 85.1747 34.4705 85.1617 34.3145 85.153C34.1585 85.1443 34.0069 85.14 33.8595 85.14C33.5475 85.14 33.2615 85.166 33.0015 85.218C32.7415 85.27 32.5162 85.348 32.3255 85.452C32.1349 85.556 31.9875 85.6903 31.8835 85.855C31.7795 86.0197 31.7275 86.219 31.7275 86.453C31.7275 86.635 31.7579 86.791 31.8185 86.921C31.8879 87.0423 31.9789 87.142 32.0915 87.22C32.2042 87.2893 32.3342 87.3413 32.4815 87.376C32.6375 87.4107 32.8065 87.428 32.9885 87.428C33.3265 87.428 33.6255 87.376 33.8855 87.272C34.1542 87.1593 34.3795 86.999 34.5615 86.791C34.7522 86.583 34.8952 86.3273 34.9905 86.024C35.0859 85.7207 35.1335 85.374 35.1335 84.984C35.1335 84.3947 35.0642 83.9353 34.9255 83.606C34.7869 83.2767 34.5789 83.0427 34.3015 82.904C34.0329 82.7653 33.6862 82.696 33.2615 82.696C32.9755 82.696 32.6939 82.7523 32.4165 82.865C32.1392 82.969 31.8879 83.1337 31.6625 83.359L31.2075 82.761C31.4849 82.4837 31.8055 82.2757 32.1695 82.137C32.5335 81.9983 32.9192 81.929 33.3265 81.929C33.7165 81.929 34.0719 81.9767 34.3925 82.072C34.7132 82.1673 34.9862 82.3277 35.2115 82.553C35.4455 82.7697 35.6232 83.0643 35.7445 83.437C35.8745 83.8097 35.9395 84.2777 35.9395 84.841V88H34.9255V87.09C34.8129 87.3067 34.6742 87.4843 34.5095 87.623C34.3535 87.7617 34.1845 87.87 34.0025 87.948C33.8205 88.0173 33.6342 88.065 33.4435 88.091C33.2529 88.1257 33.0709 88.143 32.8975 88.143ZM37.9545 88V87.246H39.4755V82.813H38.0325V82.059H40.4115V87.246H41.8025V88H37.9545ZM39.8915 80.811C39.7095 80.811 39.5535 80.746 39.4235 80.616C39.2935 80.486 39.2285 80.33 39.2285 80.148C39.2285 79.9573 39.2892 79.797 39.4105 79.667C39.5405 79.537 39.7009 79.472 39.8915 79.472C40.0735 79.472 40.2295 79.5413 40.3595 79.68C40.4982 79.81 40.5675 79.966 40.5675 80.148C40.5675 80.33 40.4982 80.486 40.3595 80.616C40.2295 80.746 40.0735 80.811 39.8915 80.811ZM54.2955 85.634H51.3575L51.5395 84.932H54.0875L54.2955 85.634ZM52.8915 81.838L50.7595 88H49.8625L52.8525 79.758H52.9565L55.9465 88H55.0105L52.8915 81.838ZM57.7015 82.059H58.6765L58.6375 83.788L58.5205 83.593C58.5725 83.3243 58.6635 83.086 58.7935 82.878C58.9235 82.67 59.0795 82.4967 59.2615 82.358C59.4435 82.2107 59.6429 82.1023 59.8595 82.033C60.0762 81.955 60.3015 81.916 60.5355 81.916C60.8475 81.916 61.1335 81.9723 61.3935 82.085C61.6622 82.189 61.9005 82.3493 62.1085 82.566L61.6925 83.294L61.6405 83.411L61.5495 83.359C61.5322 83.2897 61.5062 83.2247 61.4715 83.164C61.4369 83.1033 61.3632 83.0297 61.2505 82.943C61.1119 82.8563 60.9819 82.8 60.8605 82.774C60.7479 82.7393 60.6179 82.722 60.4705 82.722C60.2539 82.722 60.0372 82.7653 59.8205 82.852C59.6039 82.93 59.4045 83.0557 59.2225 83.229C59.0492 83.4023 58.9105 83.6233 58.8065 83.892C58.7025 84.1607 58.6505 84.4813 58.6505 84.854V88.013H57.7015V82.059ZM66.3595 88.143C65.9262 88.143 65.5275 88.065 65.1635 87.909C64.7995 87.753 64.4832 87.5363 64.2145 87.259C63.9545 86.9817 63.7509 86.6567 63.6035 86.284C63.4562 85.9027 63.3825 85.4867 63.3825 85.036C63.3825 84.594 63.4562 84.1867 63.6035 83.814C63.7509 83.4327 63.9545 83.1033 64.2145 82.826C64.4832 82.5487 64.7995 82.332 65.1635 82.176C65.5275 82.02 65.9219 81.942 66.3465 81.942C66.8319 81.942 67.2652 82.0417 67.6465 82.241C68.0365 82.4317 68.3529 82.7003 68.5955 83.047L68.0105 83.619L67.9195 83.71L67.8545 83.645C67.8545 83.5757 67.8372 83.5107 67.8025 83.45C67.7765 83.3893 67.7115 83.307 67.6075 83.203C67.4169 83.0297 67.2132 82.9083 66.9965 82.839C66.7799 82.7697 66.5285 82.735 66.2425 82.735C65.9912 82.735 65.7529 82.787 65.5275 82.891C65.3022 82.995 65.0985 83.1467 64.9165 83.346C64.7432 83.5367 64.6045 83.7707 64.5005 84.048C64.3965 84.3253 64.3445 84.633 64.3445 84.971C64.3445 85.309 64.3965 85.621 64.5005 85.907C64.6045 86.1843 64.7475 86.427 64.9295 86.635C65.1115 86.843 65.3282 87.0077 65.5795 87.129C65.8395 87.2417 66.1169 87.298 66.4115 87.298C66.6109 87.298 66.8015 87.272 66.9835 87.22C67.1655 87.1593 67.3389 87.077 67.5035 86.973C67.6682 86.8603 67.8199 86.726 67.9585 86.57L68.5045 87.207C68.2099 87.519 67.8805 87.753 67.5165 87.909C67.1612 88.065 66.7755 88.143 66.3595 88.143ZM70.1035 79.355H71.0005H71.1305V79.446C71.0785 79.498 71.0439 79.5543 71.0265 79.615C71.0179 79.6757 71.0135 79.7797 71.0135 79.927V83.112C71.1695 82.8693 71.3515 82.6613 71.5595 82.488C71.7762 82.306 72.0015 82.1673 72.2355 82.072C72.4782 81.968 72.7209 81.916 72.9635 81.916C73.3189 81.916 73.6309 81.9983 73.8995 82.163C74.1769 82.3277 74.3892 82.592 74.5365 82.956C74.6925 83.32 74.7705 83.801 74.7705 84.399V88H73.8605V84.425C73.8605 84.009 73.8129 83.6797 73.7175 83.437C73.6222 83.1857 73.4922 83.008 73.3275 82.904C73.1629 82.7913 72.9765 82.735 72.7685 82.735C72.6125 82.735 72.4522 82.761 72.2875 82.813C72.1229 82.865 71.9625 82.943 71.8065 83.047C71.6592 83.151 71.5249 83.281 71.4035 83.437C71.2822 83.5843 71.1869 83.7533 71.1175 83.944C71.0482 84.1347 71.0135 84.347 71.0135 84.581V88H70.1035V79.355ZM76.9545 88V87.246H78.4755V82.813H77.0325V82.059H79.4115V87.246H80.8025V88H76.9545ZM78.8915 80.811C78.7095 80.811 78.5535 80.746 78.4235 80.616C78.2935 80.486 78.2285 80.33 78.2285 80.148C78.2285 79.9573 78.2892 79.797 78.4105 79.667C78.5405 79.537 78.7009 79.472 78.8915 79.472C79.0735 79.472 79.2295 79.5413 79.3595 79.68C79.4982 79.81 79.5675 79.966 79.5675 80.148C79.5675 80.33 79.4982 80.486 79.3595 80.616C79.2295 80.746 79.0735 80.811 78.8915 80.811ZM85.0275 88L82.6745 82.059H83.6105L85.5345 86.934H85.3525L86.4055 84.516C86.6135 84.0393 86.7782 83.5973 86.8995 83.19C87.0295 82.7827 87.1249 82.4057 87.1855 82.059H88.0695C88.0002 82.423 87.8919 82.8217 87.7445 83.255C87.5972 83.6883 87.4152 84.1563 87.1985 84.659L85.7555 88H85.0275ZM92.1905 88.13C91.7572 88.13 91.3629 88.065 91.0075 87.935C90.6522 87.7963 90.3445 87.597 90.0845 87.337C89.8332 87.077 89.6382 86.7563 89.4995 86.375C89.3609 85.985 89.2915 85.543 89.2915 85.049C89.2915 84.5463 89.3609 84.1 89.4995 83.71C89.6469 83.32 89.8419 82.995 90.0845 82.735C90.3359 82.4663 90.6262 82.2627 90.9555 82.124C91.2935 81.9853 91.6489 81.916 92.0215 81.916C92.3595 81.916 92.6759 81.9723 92.9705 82.085C93.2652 82.1977 93.5209 82.371 93.7375 82.605C93.9542 82.8303 94.1232 83.1207 94.2445 83.476C94.3745 83.8313 94.4395 84.2517 94.4395 84.737C94.4395 84.8063 94.4352 84.88 94.4265 84.958C94.4265 85.0273 94.4222 85.0967 94.4135 85.166H90.1885C90.2059 85.5473 90.2709 85.881 90.3835 86.167C90.4962 86.4443 90.6435 86.674 90.8255 86.856C91.0075 87.0293 91.2155 87.1593 91.4495 87.246C91.6922 87.3327 91.9479 87.376 92.2165 87.376C92.4245 87.376 92.6195 87.3543 92.8015 87.311C92.9835 87.259 93.1525 87.1853 93.3085 87.09C93.4732 86.986 93.6205 86.8603 93.7505 86.713L94.2705 87.22C94.1059 87.4193 93.9152 87.5883 93.6985 87.727C93.4905 87.8657 93.2609 87.9653 93.0095 88.026C92.7582 88.0953 92.4852 88.13 92.1905 88.13ZM90.2275 84.438H93.4905C93.4905 84.1607 93.4515 83.9137 93.3735 83.697C93.3042 83.4717 93.2002 83.281 93.0615 83.125C92.9315 82.9603 92.7712 82.839 92.5805 82.761C92.3985 82.6743 92.1905 82.631 91.9565 82.631C91.7485 82.631 91.5492 82.6657 91.3585 82.735C91.1765 82.8043 91.0075 82.917 90.8515 83.073C90.6955 83.2203 90.5612 83.4067 90.4485 83.632C90.3445 83.8573 90.2709 84.126 90.2275 84.438Z" fill="black"/>
</svg>
