<svg width="302" height="396" viewBox="0 0 302 396" fill="none" xmlns="http://www.w3.org/2000/svg">
<path d="M214 82C214 91.9016 211.467 116.797 201.333 137.166C188.667 162.627 152.778 168.993 133.778 149.897C117.535 133.572 121.111 130.801 119 118.07" stroke="black" stroke-linejoin="round"/>
<path d="M102.386 84C90.0044 65.2472 94.9799 29.3379 123.021 13.1564C151.908 -3.51302 181.804 6.37269 195.239 13.1564C207.62 19.4071 220 40.2435 220 54.829C220 66.4974 215.873 79.1382 213.81 84" stroke="black" stroke-linejoin="round"/>
<path d="M112 111C114 113.07 121 142.326 121 158.884C121 172.13 117 186.481 115 192C112.5 195.333 105.4 202.5 97 204.5C86.5 207 39.5 203 31.5 216.5C23.5 230 23 235.5 21 247C19.4 256.2 12.1667 350.333 9 394.5" stroke="black" stroke-linejoin="round"/>
<path d="M174 159.5C174 159.5 174.142 158.4 172.427 166.8C170.713 175.2 174.571 187.1 176.714 192C179.809 195.333 187.8 202.7 195 205.5C204 209 246 210.5 251.5 212C257 213.5 268 215 273.5 223.5C279 232 282.5 255.5 283.5 261C284.3 265.4 294.5 351.5 299.5 394" stroke="black" stroke-linejoin="round"/>
<path d="M179 98C180.333 102.9 183 113.12 183 114.8C183 116.9 177 119 175 119" stroke="black" stroke-linejoin="round"/>
<path d="M214.048 83.8145C216.096 81.6959 220.193 77.4587 224.289 79.5774C226.121 80.5249 224.289 96.5258 220.193 100.763C216.916 104.153 213.365 105 212 105" stroke="black" stroke-linejoin="round"/>
<path d="M120 84.7536C116 82.6757 107.2 79.7666 104 84.7536C100 90.9873 100 99.2989 104 103.455C107.2 106.779 116 114.537 120 118" stroke="black" stroke-linejoin="round"/>
<path d="M158.5 80.5C157.667 80 155.3 79 152.5 79C149.7 79 147 81 146 82" stroke="black"/>
<path d="M190 81.5C190.833 80.6667 193.2 79.1 196 79.5C198.8 79.9 201.167 81.6667 202 82.5" stroke="black"/>
<path d="M170 136L176.5 140L184 136" stroke="black"/>
<path d="M63.5 395L77 287M231.5 281L250.5 395" stroke="black"/>
<path d="M138.5 225.5C124.1 224.3 98.4999 210.333 87.4999 203.5C74.6666 204.167 46.9999 205.9 38.9999 207.5C30.9999 209.1 25.6666 218.167 23.9999 222.5L1.49989 363C0.666558 363 0.399891 363.5 5.99989 365.5C12.9999 368 31.4999 365.5 38.9999 365.5C44.9999 365.5 62.1666 369.167 69.9999 371V394.5H242.5L241 371C244.167 369.833 251.3 367.1 254.5 365.5C258.5 363.5 268 364.5 277.5 363C285.1 361.8 296 358.833 300.5 357.5C299.333 344.167 296.3 315.1 293.5 305.5C290 293.5 278.5 229.5 275 222.5C271.5 215.5 257.5 211 250.5 210C245.899 209.343 229.056 207.515 217 206.237C214.383 205.96 211.992 205.708 210 205.5C207.667 208.667 201.1 216.1 193.5 220.5C184 226 156.5 227 138.5 225.5Z" fill="#F5F5F5"/>
<path d="M241 371C244.167 369.833 251.3 367.1 254.5 365.5C258.5 363.5 268 364.5 277.5 363C285.1 361.8 296 358.833 300.5 357.5C299.333 344.167 296.3 315.1 293.5 305.5C290 293.5 278.5 229.5 275 222.5C271.5 215.5 257.5 211 250.5 210C245.899 209.343 229.056 207.515 217 206.237M241 371L242.5 394.5H69.9999V371M241 371C239.333 345.667 235.8 292.3 235 281.5M69.9999 371C62.1666 369.167 44.9999 365.5 38.9999 365.5C31.4999 365.5 12.9999 368 5.99989 365.5C0.399891 363.5 0.666558 363 1.49989 363L23.9999 222.5C25.6666 218.167 30.9999 209.1 38.9999 207.5C46.9999 205.9 74.6666 204.167 87.4999 203.5C98.4999 210.333 124.1 224.3 138.5 225.5C156.5 227 184 226 193.5 220.5C201.1 216.1 207.667 208.667 210 205.5C211.992 205.708 214.383 205.96 217 206.237M69.9999 371L78.9999 274.5C79.6665 273.167 81.1999 270.9 81.9999 272.5C82.7999 274.1 80.3332 313.167 78.9999 332.5M89.9999 214.5C96.4999 218.333 111.2 226.5 118 228.5C126.5 231 148 234 153 233.5M193.5 228.5C198 226.5 205.576 220.689 208.5 217.5C214 211.5 215.667 208.658 217 206.237M23.9999 276.5L10.4999 355.5" stroke="black"/>
<path d="M91.0075 187.792C81.1567 164.547 97.8483 132.447 107.426 119.302L111.53 111C117.686 131.755 130 175.34 130 183.642C130 194.019 123.843 204.396 117.686 212.698C112.761 219.34 100.584 221 95.1117 221C97.8482 219.616 100.858 211.038 91.0075 187.792Z" fill="black" stroke="black" stroke-linejoin="round"/>
<path d="M147.95 69.1711C162.837 65.8658 181.72 48.5132 189.301 40.25C190.68 45.7588 194.263 58.0158 197.572 62.9737C201.707 69.1711 209.977 73.3026 212.045 77.4342C214.112 81.5658 212.045 116.684 209.977 127.013C208.323 135.276 199.639 149.737 195.504 155.934C201.707 149.737 214.939 134.45 218.247 122.882C222.382 108.421 226.518 56.7763 224.45 50.5789C222.382 44.3816 218.247 25.7895 205.842 15.4605C193.436 5.13158 170.693 1 164.49 1C158.288 1 141.748 1 123.139 11.3289C104.531 21.6579 94.1933 48.5132 96.2609 65.0395C98.3285 81.5658 101.337 86.2251 103 85C104.536 83.8684 105.054 82.6886 108.5 82L119.004 84V102.224C119.004 127.013 131.41 149.737 137.612 158C135.545 152.491 130.996 139.408 129.342 131.145C127.274 120.816 129.342 73.3026 147.95 69.1711Z" fill="black" stroke="black" stroke-linejoin="round"/>
<path d="M190 99.5V96.5C190 94.0147 192.015 92 194.5 92C196.985 92 199 94.0147 199 96.5V99.5C199 101.985 196.985 104 194.5 104C192.015 104 190 101.985 190 99.5Z" fill="black" stroke="black" stroke-width="0.5" stroke-linejoin="round"/>
<path d="M150 99.5V96.5C150 94.0147 152.015 92 154.5 92C156.985 92 159 94.0147 159 96.5V99.5C159 101.985 156.985 104 154.5 104C152.015 104 150 101.985 150 99.5Z" fill="black" stroke="black" stroke-width="0.5" stroke-linejoin="round"/>
</svg>
