<svg width="302" height="407" viewBox="0 0 302 407" fill="none" xmlns="http://www.w3.org/2000/svg">
<path d="M214 93C214 102.902 211.467 127.797 201.333 148.166C188.667 173.627 152.778 179.993 133.778 160.897C117.535 144.572 121.111 141.801 119 129.07" stroke="black" stroke-linejoin="round"/>
<path d="M102.386 95C90.0044 76.2472 94.9799 40.3379 123.021 24.1564C151.908 7.48698 181.804 17.3727 195.239 24.1564C207.62 30.4071 220 51.2435 220 65.829C220 77.4974 215.873 90.1382 213.81 95" stroke="black" stroke-linejoin="round"/>
<path d="M112 122C114 124.07 121 153.326 121 169.884C121 183.13 117 197.481 115 203C112.5 206.333 105.4 213.5 97 215.5C86.5 218 39.5 214 31.5 227.5C23.5 241 23 246.5 21 258C19.4 267.2 12.1667 361.333 9 405.5" stroke="black" stroke-linejoin="round"/>
<path d="M174 170.5C174 170.5 174.142 169.4 172.427 177.8C170.713 186.2 174.571 198.1 176.714 203C179.809 206.333 187.8 213.7 195 216.5C204 220 246 221.5 251.5 223C257 224.5 268 226 273.5 234.5C279 243 282.5 266.5 283.5 272C284.3 276.4 294.5 362.5 299.5 405" stroke="black" stroke-linejoin="round"/>
<path d="M179 109C180.333 113.9 183 124.12 183 125.8C183 127.9 177 130 175 130" stroke="black" stroke-linejoin="round"/>
<path d="M214.048 94.8145C216.096 92.6959 220.193 88.4587 224.289 90.5774C226.121 91.5249 224.289 107.526 220.193 111.763C216.916 115.153 213.365 116 212 116" stroke="black" stroke-linejoin="round"/>
<path d="M120 95.7536C116 93.6757 107.2 90.7666 104 95.7536C100 101.987 100 110.299 104 114.455C107.2 117.779 116 125.537 120 129" stroke="black" stroke-linejoin="round"/>
<path d="M158.5 91.5C157.667 91 155.3 90 152.5 90C149.7 90 147 92 146 93" stroke="black"/>
<path d="M190 92.4998C190.833 91.6664 193.2 90.0998 196 90.4998C198.8 90.8998 201.167 92.6664 202 93.4998" stroke="black"/>
<path d="M160.5 103C159.5 103.5 156.9 104.5 154.5 104.5C152.1 104.5 148.5 103.5 147 103" stroke="black"/>
<path d="M189.5 102.5C190.833 103.5 194.1 105.6 196.5 106C198.9 106.4 202.167 105.833 203.5 105.5" stroke="black"/>
<path d="M170 147H184" stroke="black"/>
<path d="M63.5 406L77 298M231.5 292L250.5 406" stroke="black"/>
<path d="M138.5 236.5C124.1 235.3 98.5 221.333 87.5 214.5C74.6667 215.167 47 216.9 39 218.5C31 220.1 25.6667 229.167 24 233.5L1.50001 374C0.66668 374 0.400013 374.5 6.00001 376.5C13 379 31.5 376.5 39 376.5C45 376.5 62.1667 380.167 70 382V405.5H242.5L241 382C244.167 380.833 251.3 378.1 254.5 376.5C258.5 374.5 268 375.5 277.5 374C285.1 372.8 296 369.833 300.5 368.5C299.333 355.167 296.3 326.1 293.5 316.5C290 304.5 278.5 240.5 275 233.5C271.5 226.5 257.5 222 250.5 221C245.899 220.343 229.056 218.515 217 217.237C214.383 216.96 211.992 216.708 210 216.5C207.667 219.667 201.1 227.1 193.5 231.5C184 237 156.5 238 138.5 236.5Z" fill="#F5F5F5"/>
<path d="M241 382C244.167 380.833 251.3 378.1 254.5 376.5C258.5 374.5 268 375.5 277.5 374C285.1 372.8 296 369.833 300.5 368.5C299.333 355.167 296.3 326.1 293.5 316.5C290 304.5 278.5 240.5 275 233.5C271.5 226.5 257.5 222 250.5 221C245.899 220.343 229.056 218.515 217 217.237M241 382L242.5 405.5H70V382M241 382C239.333 356.667 235.8 303.3 235 292.5M70 382C62.1667 380.167 45 376.5 39 376.5C31.5 376.5 13 379 6.00001 376.5C0.400013 374.5 0.66668 374 1.50001 374L24 233.5C25.6667 229.167 31 220.1 39 218.5C47 216.9 74.6667 215.167 87.5 214.5C98.5 221.333 124.1 235.3 138.5 236.5C156.5 238 184 237 193.5 231.5C201.1 227.1 207.667 219.667 210 216.5C211.992 216.708 214.383 216.96 217 217.237M70 382L79 285.5C79.6667 284.167 81.2 281.9 82 283.5C82.8 285.1 80.3333 324.167 79 343.5M90 225.5C96.5 229.333 111.2 237.5 118 239.5C126.5 242 148 245 153 244.5M193.5 239.5C198 237.5 205.576 231.689 208.5 228.5C214 222.5 215.667 219.658 217 217.237M24 287.5L10.5 366.5" stroke="black"/>
<path d="M91.0075 198.792C81.1567 175.547 97.8483 143.447 107.426 130.302L111.53 122C117.686 142.755 130 186.34 130 194.642C130 205.019 123.843 215.396 117.686 223.698C112.761 230.34 100.584 232 95.1117 232C97.8482 230.616 100.858 222.038 91.0075 198.792Z" fill="black" stroke="black" stroke-linejoin="round"/>
<path d="M147.95 80.1711C162.837 76.8658 181.72 59.5132 189.301 51.25C190.68 56.7588 194.263 69.0158 197.572 73.9737C201.707 80.1711 209.977 84.3026 212.045 88.4342C214.112 92.5658 212.045 127.684 209.977 138.013C208.323 146.276 199.639 160.737 195.504 166.934C201.707 160.737 214.939 145.45 218.247 133.882C222.382 119.421 226.518 67.7763 224.45 61.5789C222.382 55.3816 218.247 36.7895 205.842 26.4605C193.436 16.1316 170.693 12 164.49 12C158.288 12 141.748 12 123.139 22.3289C104.531 32.6579 94.1933 59.5132 96.2609 76.0395C98.3285 92.5658 101.337 97.2251 103 96C104.536 94.8684 105.054 93.6886 108.5 93L119.004 95V113.224C119.004 138.013 131.41 160.737 137.612 169C135.545 163.491 130.996 150.408 129.342 142.145C127.274 131.816 129.342 84.3026 147.95 80.1711Z" fill="black" stroke="black" stroke-linejoin="round"/>
<path d="M237 39.5H248L237 50.5H248" stroke="black"/>
<path d="M254 22H271L254 39H271" stroke="black"/>
<path d="M277 1H298L277 22H298" stroke="black"/>
</svg>
