<svg width="340" height="79" viewBox="0 0 340 79" fill="none" xmlns="http://www.w3.org/2000/svg">
<rect x="1" y="16" width="338" height="56" fill="white" stroke="black"/>
<path d="M295 1C286.716 1 280 7.71573 280 16H310C310 7.71573 303.284 1 295 1Z" fill="black" stroke="black"/>
<path d="M285.208 12V7.016H286.232L287.024 9.2L287.808 7.008H288.84V12H287.888V8.704L287.304 10.424H286.712L286.152 8.704V12H285.208ZM290.648 12.096C290.493 12.096 290.347 12.0773 290.208 12.04C290.075 12.0027 289.952 11.944 289.84 11.864C289.733 11.784 289.64 11.6827 289.56 11.56C289.48 11.4373 289.419 11.2907 289.376 11.12C289.333 10.944 289.312 10.744 289.312 10.52V8.232H290.448V10.52C290.448 10.6427 290.456 10.7467 290.472 10.832C290.493 10.9173 290.523 10.9893 290.56 11.048C290.597 11.1013 290.64 11.1413 290.688 11.168C290.741 11.1893 290.797 11.2 290.856 11.2C290.957 11.2 291.045 11.184 291.12 11.152C291.2 11.12 291.264 11.072 291.312 11.008C291.365 10.9387 291.403 10.856 291.424 10.76C291.451 10.664 291.464 10.552 291.464 10.424V8.232H292.608V11.392C292.608 11.52 292.611 11.632 292.616 11.728C292.627 11.8187 292.651 11.9093 292.688 12H291.672C291.645 11.952 291.627 11.904 291.616 11.856C291.605 11.808 291.597 11.76 291.592 11.712C291.592 11.664 291.592 11.616 291.592 11.568C291.539 11.6587 291.475 11.7387 291.4 11.808C291.331 11.872 291.253 11.9253 291.168 11.968C291.088 12.0107 291.003 12.0427 290.912 12.064C290.827 12.0853 290.739 12.096 290.648 12.096ZM295.12 12.096C294.875 12.096 294.64 12.0747 294.416 12.032C294.197 11.9947 293.995 11.9333 293.808 11.848C293.621 11.7573 293.451 11.64 293.296 11.496L293.744 10.632L293.776 10.568L293.848 10.608C293.864 10.6453 293.88 10.688 293.896 10.736C293.917 10.7787 293.96 10.8293 294.024 10.888C294.173 11 294.336 11.0853 294.512 11.144C294.693 11.2027 294.899 11.232 295.128 11.232C295.245 11.232 295.344 11.2187 295.424 11.192C295.509 11.1653 295.573 11.1307 295.616 11.088C295.664 11.04 295.688 10.9893 295.688 10.936C295.688 10.8827 295.669 10.8373 295.632 10.8C295.6 10.7627 295.549 10.7307 295.48 10.704C295.416 10.672 295.331 10.64 295.224 10.608C295.117 10.576 294.992 10.5413 294.848 10.504C294.581 10.4347 294.349 10.3493 294.152 10.248C293.96 10.1467 293.811 10.0213 293.704 9.872C293.597 9.71733 293.544 9.53333 293.544 9.32C293.544 9.10133 293.611 8.904 293.744 8.728C293.877 8.552 294.059 8.41067 294.288 8.304C294.523 8.19733 294.789 8.144 295.088 8.144C295.232 8.144 295.373 8.15733 295.512 8.184C295.656 8.20533 295.792 8.24 295.92 8.288C296.048 8.33067 296.171 8.38933 296.288 8.464C296.405 8.53333 296.515 8.616 296.616 8.712L296.096 9.472L296.048 9.536L295.976 9.48C295.971 9.43733 295.957 9.39733 295.936 9.36C295.92 9.32267 295.88 9.27467 295.816 9.216C295.715 9.14667 295.603 9.09867 295.48 9.072C295.363 9.04 295.237 9.024 295.104 9.024C294.949 9.024 294.813 9.048 294.696 9.096C294.579 9.144 294.52 9.216 294.52 9.312C294.52 9.376 294.552 9.42933 294.616 9.472C294.68 9.51467 294.773 9.55467 294.896 9.592C295.024 9.624 295.181 9.66133 295.368 9.704C295.667 9.768 295.912 9.856 296.104 9.968C296.296 10.0747 296.437 10.2053 296.528 10.36C296.624 10.5147 296.672 10.6933 296.672 10.896C296.672 11.1093 296.611 11.3093 296.488 11.496C296.365 11.6773 296.187 11.824 295.952 11.936C295.723 12.0427 295.445 12.096 295.12 12.096ZM297.592 12V11.12H298.488V9.112H297.632V8.232H299.624V11.12H300.44V12H297.592ZM299 7.72C298.813 7.72 298.653 7.65867 298.52 7.536C298.392 7.408 298.328 7.25867 298.328 7.088C298.328 6.90133 298.389 6.74933 298.512 6.632C298.64 6.51467 298.803 6.456 299 6.456C299.176 6.456 299.331 6.52 299.464 6.648C299.603 6.77067 299.672 6.91733 299.672 7.088C299.672 7.25867 299.603 7.408 299.464 7.536C299.331 7.65867 299.176 7.72 299 7.72ZM303.192 12.096C302.915 12.096 302.656 12.0507 302.416 11.96C302.176 11.864 301.965 11.7307 301.784 11.56C301.608 11.384 301.469 11.1787 301.368 10.944C301.272 10.7093 301.224 10.4507 301.224 10.168C301.224 9.89067 301.272 9.62933 301.368 9.384C301.469 9.13867 301.608 8.92533 301.784 8.744C301.965 8.55733 302.176 8.41067 302.416 8.304C302.656 8.19733 302.917 8.144 303.2 8.144C303.573 8.144 303.893 8.21067 304.16 8.344C304.427 8.472 304.637 8.65333 304.792 8.888L304.192 9.568L304.144 9.624L304.072 9.568C304.067 9.52533 304.061 9.48 304.056 9.432C304.051 9.384 304.021 9.32533 303.968 9.256C303.877 9.16533 303.773 9.104 303.656 9.072C303.539 9.04 303.405 9.024 303.256 9.024C303.139 9.024 303.027 9.05067 302.92 9.104C302.813 9.152 302.717 9.224 302.632 9.32C302.547 9.416 302.48 9.536 302.432 9.68C302.384 9.824 302.36 9.992 302.36 10.184C302.36 10.3493 302.384 10.4987 302.432 10.632C302.485 10.76 302.552 10.8667 302.632 10.952C302.717 11.0373 302.811 11.104 302.912 11.152C303.019 11.1947 303.125 11.216 303.232 11.216C303.339 11.216 303.443 11.2027 303.544 11.176C303.651 11.1493 303.755 11.104 303.856 11.04C303.963 10.9707 304.064 10.8747 304.16 10.752L304.768 11.448C304.56 11.6827 304.312 11.8507 304.024 11.952C303.736 12.048 303.459 12.096 303.192 12.096Z" fill="white"/>
<path d="M141.528 59.736C138.712 59.736 136.376 58.984 134.52 57.48C132.504 55.848 131.496 53.672 131.496 50.952C131.496 48.936 132.04 47.08 133.128 45.384C134.216 43.688 135.688 42.472 137.544 41.736C137.32 40.936 137.208 40.024 137.208 39C137.208 36.312 137.992 33.848 139.56 31.608C141.192 29.24 143.256 27.656 145.752 26.856C148.312 25.96 150.872 25.512 153.432 25.512C155 25.512 156.664 25.72 158.424 26.136C160.184 26.552 162.04 27.224 163.992 28.152C165.656 28.92 167.304 29.72 168.936 30.552C170.568 31.352 172.216 32.168 173.88 33C175.576 31.944 177.16 31.416 178.632 31.416C181.288 31.416 182.616 32.28 182.616 34.008C182.616 35.16 181.976 35.736 180.696 35.736C179.864 35.736 178.296 35.256 175.992 34.296C174.36 36.344 173 39.208 171.912 42.888C171.784 43.304 171.624 43.8 171.432 44.376C171.272 44.952 171.064 45.64 170.808 46.44C169.976 48.776 169.064 50.728 168.072 52.296C167.112 53.864 166.12 55.048 165.096 55.848C168.648 53.864 172.936 49.896 177.96 43.944C187.464 32.648 195.112 27 200.904 27C203.944 27 205.464 27.88 205.464 29.64C205.464 30.12 205.288 30.712 204.936 31.416C204.488 32.152 204.072 32.52 203.688 32.52C203.528 32.52 203.448 32.472 203.448 32.376C203.448 32.376 203.496 32.312 203.592 32.184C203.72 32.056 203.88 31.88 204.072 31.656C204.488 31.176 204.696 30.648 204.696 30.072C204.696 28.92 203.896 28.344 202.296 28.344C200.408 28.344 198.296 28.904 195.96 30.024C190.808 32.52 184.792 37.592 177.912 45.24C174.36 49.112 171.912 51.656 170.568 52.872C167.144 55.912 164.136 57.432 161.544 57.432C161.128 57.432 160.696 57.384 160.248 57.288L160.2 57.24C160.2 57.176 160.728 56.904 161.784 56.424C162.008 56.296 162.232 56.168 162.456 56.04C162.712 55.88 162.952 55.72 163.176 55.56C163.752 55.112 164.696 53.592 166.008 51C166.456 50.104 166.888 49.224 167.304 48.36C167.72 47.496 168.136 46.632 168.552 45.768C169.096 44.744 169.624 43.72 170.136 42.696C170.68 41.672 171.224 40.664 171.768 39.672C172.44 38.456 173.08 37.384 173.688 36.456C174.328 35.496 174.904 34.696 175.416 34.056L174.12 33.48C170.472 35.688 166.696 39.496 162.792 44.904C155.656 54.792 148.568 59.736 141.528 59.736ZM141.576 59.208C144.648 59.208 147.64 58.216 150.552 56.232C151.576 55.528 152.664 54.632 153.816 53.544C155 52.456 156.264 51.16 157.608 49.656C158.184 49.016 158.888 48.216 159.72 47.256C160.584 46.296 161.592 45.176 162.744 43.896C163.576 42.936 164.408 41.976 165.24 41.016C166.104 40.056 166.968 39.112 167.832 38.184C168.856 37.064 169.848 36.104 170.808 35.304C171.768 34.472 172.68 33.768 173.544 33.192C171.176 32.136 169.176 31.272 167.544 30.6C165.912 29.896 164.648 29.384 163.752 29.064C161.864 28.424 160.056 27.944 158.328 27.624C156.632 27.272 155 27.096 153.432 27.096C150.84 27.096 148.456 27.544 146.28 28.44C144.008 29.336 142.12 30.76 140.616 32.712C139.048 34.76 138.264 36.984 138.264 39.384C138.264 39.736 138.28 40.088 138.312 40.44C138.376 40.76 138.44 41.08 138.504 41.4C139.272 41.208 140.04 41.112 140.808 41.112C141.16 41.112 141.48 41.128 141.768 41.16C142.088 41.192 142.408 41.24 142.728 41.304C144.232 41.592 145.432 42.36 146.328 43.608C147.256 44.888 147.672 46.264 147.576 47.736C150.168 47.704 152.52 46.936 154.632 45.432C156.936 43.736 158.088 41.656 158.088 39.192C158.088 37.336 157.432 35.752 156.12 34.44C154.904 33.128 153.336 32.472 151.416 32.472C149.976 32.472 148.648 32.936 147.432 33.864C146.184 34.92 145.56 36.152 145.56 37.56C145.56 38.84 146.12 39.768 147.24 40.344V40.392C147.464 40.424 147.576 40.584 147.576 40.872C147.576 40.872 147.56 40.888 147.528 40.92C147.528 40.92 147.512 40.92 147.48 40.92C147.384 40.92 147.208 40.84 146.952 40.68C145.704 39.848 145.08 38.744 145.08 37.368C145.08 35.768 145.768 34.424 147.144 33.336C148.36 32.312 149.816 31.8 151.512 31.8C153.56 31.8 155.288 32.488 156.696 33.864C158.168 35.272 158.904 36.952 158.904 38.904C158.904 41.72 157.672 44.024 155.208 45.816C153 47.48 150.44 48.296 147.528 48.264C147.304 49.864 146.408 51.256 144.84 52.44C144.136 52.952 143.384 53.352 142.584 53.64C141.784 53.896 140.936 54.024 140.04 54.024C139.304 54.024 138.936 53.928 138.936 53.736C138.936 53.608 139.272 53.544 139.944 53.544C140.136 53.544 140.36 53.528 140.616 53.496C140.904 53.464 141.208 53.416 141.528 53.352C144.152 52.776 145.8 51.064 146.472 48.216C141.864 47.832 138.952 45.88 137.736 42.36C136.04 42.968 134.68 44.056 133.656 45.624C132.728 47.128 132.264 48.824 132.264 50.712C132.264 51.192 132.296 51.672 132.36 52.152C132.424 52.6 132.52 53.064 132.648 53.544C133.128 55.336 134.28 56.76 136.104 57.816C137.8 58.744 139.624 59.208 141.576 59.208ZM180.984 59.256C179.608 59.256 178.92 58.072 178.92 55.704C178.92 52.856 179.64 49.944 181.08 46.968C181.656 45.816 182.552 44.44 183.768 42.84C184.248 42.232 184.76 41.624 185.304 41.016C185.848 40.376 186.44 39.704 187.08 39C187.432 38.584 187.912 38.072 188.52 37.464C189.128 36.824 189.848 36.072 190.68 35.208C192.856 33.032 194.056 31.944 194.28 31.944C194.344 31.944 194.296 32.04 194.136 32.232C194.104 32.296 194.008 32.408 193.848 32.568C193.72 32.728 193.528 32.936 193.272 33.192C191.896 34.664 190.552 36.392 189.24 38.376C188.376 39.656 187.528 41.064 186.696 42.6C185.864 44.104 185.032 45.736 184.2 47.496C183.208 49.704 182.44 51.624 181.896 53.256C181.384 54.856 181.128 56.184 181.128 57.24C181.128 58.136 181.4 58.584 181.944 58.584C182.232 58.584 182.824 58.312 183.72 57.768C184.552 57.224 185.096 56.792 185.352 56.472C185.448 56.344 185.576 56.28 185.736 56.28C185.8 56.344 185.832 56.392 185.832 56.424C185.832 56.456 185.8 56.504 185.736 56.568C184.008 58.36 182.424 59.256 180.984 59.256ZM180.312 35.16C181.112 35.16 181.512 34.76 181.512 33.96C181.512 33.288 181.192 32.76 180.552 32.376C179.976 32.088 179.336 31.944 178.632 31.944C177.416 31.944 176.04 32.376 174.504 33.24C174.728 33.336 174.936 33.432 175.128 33.528C175.32 33.592 175.512 33.656 175.704 33.72C176.408 32.984 176.968 32.616 177.384 32.616C177.448 32.616 177.48 32.632 177.48 32.664C177.32 32.856 177.144 33.064 176.952 33.288C176.76 33.48 176.536 33.704 176.28 33.96C177.368 34.344 178.248 34.648 178.92 34.872C179.592 35.064 180.056 35.16 180.312 35.16ZM146.568 47.688C146.6 47.56 146.616 47.352 146.616 47.064C146.616 45.976 146.312 44.92 145.704 43.896C145.032 42.904 144.152 42.28 143.064 42.024C142.712 41.96 142.344 41.912 141.96 41.88C141.576 41.816 141.208 41.784 140.856 41.784C140.088 41.784 139.368 41.88 138.696 42.072C139.24 43.736 140.248 45.064 141.72 46.056C143.096 46.984 144.712 47.528 146.568 47.688ZM190.658 57.288C189.858 57.288 189.218 57.016 188.738 56.472C188.29 55.928 188.066 55.272 188.066 54.504C188.066 53.8 188.274 52.872 188.69 51.72C189.138 50.568 189.762 49.192 190.562 47.592C190.914 46.888 191.362 46.04 191.906 45.048C192.482 44.024 193.17 42.856 193.97 41.544H194.066C194.29 41.704 194.546 41.784 194.834 41.784C195.506 41.784 196.274 41.448 197.138 40.776L197.234 40.872C196.754 41.416 195.922 42.744 194.738 44.856C194.354 45.528 193.986 46.152 193.634 46.728C193.314 47.304 192.994 47.848 192.674 48.36C190.786 51.592 189.842 53.96 189.842 55.464C189.842 56.328 190.242 56.76 191.042 56.76C192.834 56.76 195.314 53.96 198.482 48.36C198.93 47.56 199.458 46.568 200.066 45.384C200.674 44.2 201.378 42.824 202.178 41.256H202.274C202.498 41.352 202.706 41.432 202.898 41.496C203.09 41.56 203.282 41.592 203.474 41.592C204.178 41.592 204.674 41.272 204.962 40.632L205.106 40.68L201.362 47.928C199.154 52.152 198.05 54.824 198.05 55.944C198.05 56.52 198.322 56.808 198.866 56.808C199.25 56.808 199.714 56.648 200.258 56.328C200.834 56.008 201.426 55.512 202.034 54.84C202.802 53.944 203.458 53.096 204.002 52.296C204.578 51.464 205.234 50.344 205.97 48.936C206.066 48.776 206.162 48.696 206.258 48.696C206.45 48.696 206.45 48.856 206.258 49.176C205.682 50.264 205.058 51.352 204.386 52.44C203.746 53.496 202.962 54.488 202.034 55.416C200.818 56.632 199.746 57.24 198.818 57.24C197.986 57.24 197.346 57.032 196.898 56.616C196.482 56.2 196.274 55.528 196.274 54.6C196.274 53.832 196.434 52.984 196.754 52.056C194.61 55.544 192.578 57.288 190.658 57.288ZM208.847 57.576C205.615 57.576 203.999 56.04 203.999 52.968C203.999 52.104 204.143 51.176 204.431 50.184V50.232C204.591 49.656 204.895 49.096 205.343 48.552C205.887 47.88 206.383 47.544 206.831 47.544C206.831 47.544 206.879 47.544 206.975 47.544C207.071 47.544 207.231 47.576 207.455 47.64L207.983 46.824C208.431 46.152 208.831 45.48 209.183 44.808C209.567 44.104 209.967 43.416 210.383 42.744C211.567 40.696 212.463 39.592 213.071 39.432C213.263 39.368 213.407 39.336 213.503 39.336C213.983 39.336 214.223 39.512 214.223 39.864C214.223 40.28 213.871 40.536 213.167 40.632C212.527 40.728 212.127 40.808 211.967 40.872C211.711 41.064 211.583 41.48 211.583 42.12C211.583 42.792 212.015 43.928 212.879 45.528C213.743 47.096 214.175 48.488 214.175 49.704C214.175 50.024 214.143 50.328 214.079 50.616C214.047 50.904 213.999 51.208 213.935 51.528C213.071 55.144 210.783 56.952 207.071 56.952C207.807 57.112 208.479 57.192 209.087 57.192C210.207 57.192 211.295 57 212.351 56.616C213.407 56.2 214.383 55.64 215.279 54.936C216.207 54.2 217.055 53.32 217.823 52.296C218.623 51.24 219.311 50.12 219.887 48.936C219.983 48.744 220.079 48.648 220.175 48.648C220.367 48.648 220.383 48.808 220.223 49.128C219.711 50.088 219.167 51 218.591 51.864C218.047 52.696 217.455 53.448 216.815 54.12C216.047 54.888 215.007 55.656 213.695 56.424C212.383 57.192 210.767 57.576 208.847 57.576ZM206.735 56.568C208.367 56.568 209.711 55.336 210.767 52.872C211.631 50.952 212.063 49.016 212.063 47.064C212.063 46.808 212.015 46.472 211.919 46.056C211.855 45.608 211.743 45.08 211.583 44.472C211.455 43.896 211.359 43.4 211.295 42.984C211.231 42.536 211.215 42.152 211.247 41.832C210.639 43.048 210.031 44.152 209.423 45.144C208.815 46.136 208.239 47.032 207.695 47.832C207.855 48.088 207.935 48.344 207.935 48.6C207.935 49.048 207.759 49.544 207.407 50.088C207.183 50.408 206.799 50.712 206.255 51C205.711 51.288 205.327 51.56 205.103 51.816C204.751 52.328 204.575 53 204.575 53.832C204.575 55.656 205.295 56.568 206.735 56.568ZM226.157 38.76C225.133 38.76 224.621 38.264 224.621 37.272C224.621 36.184 225.117 35.64 226.109 35.64C227.133 35.64 227.645 36.136 227.645 37.128C227.645 38.216 227.149 38.76 226.157 38.76ZM220.493 57.48C218.381 57.48 217.325 56.312 217.325 53.976C217.325 52.28 217.821 50.488 218.813 48.6L222.413 41.544H222.557C222.653 41.672 222.845 41.736 223.133 41.736C223.741 41.736 224.541 41.368 225.533 40.632L225.629 40.728L221.549 48.648C219.853 51.912 219.005 54.184 219.005 55.464C219.005 56.04 219.165 56.44 219.485 56.664C219.805 56.888 220.173 57 220.589 57C221.037 57 221.469 56.904 221.885 56.712C222.333 56.52 222.717 56.312 223.037 56.088C223.901 55.416 224.621 54.648 225.197 53.784C225.805 52.888 226.333 51.992 226.781 51.096C227.229 50.2 227.629 49.448 227.981 48.84C228.077 48.68 228.173 48.632 228.269 48.696C228.365 48.728 228.381 48.824 228.317 48.984C227.677 50.328 226.973 51.704 226.205 53.112C225.437 54.52 224.461 55.64 223.277 56.472C222.861 56.76 222.413 57 221.933 57.192C221.485 57.384 221.005 57.48 220.493 57.48ZM231.072 57.48C229.824 57.48 228.8 57.128 228 56.424C227.2 55.72 226.8 54.616 226.8 53.112C226.8 51.896 227.04 50.616 227.52 49.272C228 47.928 228.72 46.616 229.68 45.336C231.76 42.584 233.92 41.208 236.16 41.208C238.24 41.208 239.28 42.152 239.28 44.04C239.28 44.744 239.056 45.512 238.608 46.344C238.064 47.272 237.472 47.736 236.832 47.736C236.352 47.736 236.112 47.544 236.112 47.16C236.112 46.744 236.544 46.232 237.408 45.624C238.272 44.984 238.704 44.264 238.704 43.464C238.704 42.376 238.144 41.832 237.024 41.832C235.84 41.832 234.528 42.696 233.088 44.424C232.064 45.704 231.2 47.08 230.496 48.552C230.176 49.192 229.856 50.04 229.536 51.096C229.216 52.12 229.056 53.112 229.056 54.072C229.056 54.872 229.232 55.56 229.584 56.136C229.936 56.712 230.56 57 231.456 57C232.288 57 233.152 56.776 234.048 56.328C234.944 55.848 235.712 55.288 236.352 54.648C236.896 54.104 237.504 53.368 238.176 52.44C238.88 51.48 239.584 50.312 240.288 48.936C240.384 48.776 240.48 48.696 240.576 48.696C240.768 48.696 240.768 48.856 240.576 49.176C240.032 50.264 239.44 51.304 238.8 52.296C238.192 53.288 237.376 54.248 236.352 55.176C235.744 55.784 234.976 56.328 234.048 56.808C233.12 57.256 232.128 57.48 231.072 57.48Z" fill="black"/>
<path d="M54.5 51L55.5 42.5C57.1 42.5 57.8333 43.8333 58 44.5C58 45.5 57.9 47.9 57.5 49.5C57.1 51.1 55.3333 51.1667 54.5 51Z" stroke="black" stroke-linejoin="round"/>
<path d="M21.7327 70C19.3327 64.4 23.3994 56.6667 25.7327 53.5L26.7327 51.5C28.2327 56.5 31.2327 67 31.2327 69C31.2327 71.5 29.7327 74 28.2327 76C27.0327 77.6 24.066 78 22.7327 78C23.3994 77.6667 24.1327 75.6 21.7327 70Z" fill="black" stroke="black" stroke-linejoin="round"/>
<path d="M52.5 44.5C52.5 46.8814 51.8867 52.8689 49.4333 57.7678C46.3667 63.8914 37.6778 65.4223 33.0778 60.8296C29.1452 56.9033 30.0111 56.2369 29.5 53.1751" stroke="black" stroke-linejoin="round"/>
<path d="M25.5 45C22.4998 40.5 23.7055 31.883 30.5004 28.0001C37.5002 24 44.7446 26.3722 48.0004 28.0001C51.0004 29.5 54.0004 34.5 54.0004 38C54.0004 40.8 53.0004 43.8333 52.5004 45" stroke="black" stroke-linejoin="round"/>
<path d="M27 51C27.5 51.5 30 60.5 30 64.5C30 67.7 29 71.1667 28.5 72.5" stroke="black" stroke-linejoin="round"/>
<path d="M44.5 62.5C44 62.8333 42.9001 64.5 42.5001 66.5C42.1001 68.5 43.0001 71.3333 43.5001 72.5" stroke="black" stroke-linejoin="round"/>
<path d="M44 48.5C44.3333 49.6667 45 52.1 45 52.5C45 53 43.5 53.5 43 53.5" stroke="black" stroke-linejoin="round"/>
<path d="M52.5 45C53 44.5 54 43.5 55 44C55.4472 44.2237 55 48 54 49C53.2 49.8 52.3333 50 52 50" stroke="black" stroke-linejoin="round"/>
<path d="M36.563 41.5C40.163 40.7 44.7297 36.5 46.563 34.5C46.8963 35.8333 47.763 38.8 48.563 40C49.563 41.5 51.563 42.5 52.063 43.5C52.563 44.5 52.063 53 51.563 55.5C51.163 57.5 49.063 61 48.063 62.5C49.563 61 52.763 57.3 53.563 54.5C54.563 51 55.563 38.5 55.063 37C54.563 35.5 53.563 31 50.563 28.5C47.563 26 42.063 25 40.563 25C39.063 25 35.0631 25 30.5631 27.5C26.0631 30 23.5631 36.5 24.0631 40.5C24.5631 44.5 25.5631 45.5 25.5631 45C25.5631 44.6 27.2298 44.1667 28.0631 44H29.5631V49.5C29.5631 55.5 32.5631 61 34.0631 63C33.5631 61.6667 32.463 58.5 32.063 56.5C31.563 54 32.063 42.5 36.563 41.5Z" fill="black" stroke="black" stroke-linejoin="round"/>
<path d="M29.75 45.1626C28.75 44.6626 26.55 43.9626 25.75 45.1626C24.75 46.6626 24.75 48.6626 25.75 49.6626C26.55 50.4626 28.75 52.3293 29.75 53.1626" stroke="black" stroke-linejoin="round"/>
<path d="M36 42.5C36.5 42.3333 37.6 42 38 42C38.4 42 39.1667 42.3333 39.5 42.5" stroke="black"/>
<path d="M47 42C47.3333 41.8333 48.1 41.5 48.5 41.5C48.9 41.5 49.6667 41.8333 50 42" stroke="black"/>
<path d="M36 48C36.3333 47.8333 37.2 47.5 38 47.5C38.8 47.5 39.3333 47.8333 39.5 48" stroke="black" stroke-linejoin="round"/>
<path d="M46 48C46.5 47.8334 47.5 47.5 48 47.5C48.4 47.5 49 47.6667 49.5 48" stroke="black" stroke-linejoin="round"/>
<path d="M42 57.1376C42.6667 56.8042 44 56.2376 44 56.6376C44 57.0376 43.6667 57.8042 43.5 58.1376C43.6667 58.1376 44.1 58.2376 44.5 58.6376C44.9 59.0376 43.3333 59.4709 42.5 59.6376" stroke="black" stroke-linejoin="round"/>
<path d="M39 26.5C45.2129 25.3166 49.6667 27.1666 51.5 28.5C52.7 29.7 53.6667 31.6666 54 32.4999C51 30.5 44.5 28.5 39.5 30C30.8049 32.6086 30 41.9999 30 41.9999V42.4999H27V40.9999C27 38.4999 28.5 28.5 39 26.5Z" fill="white" stroke="black" stroke-linejoin="round"/>
<circle cx="28" cy="47.5" r="5.5" fill="white" stroke="black"/>
<path d="M68 51.5C66.8333 51 64.6 50.3 65 51.5C65.4 52.7 67.1666 52 68 51.5ZM68 51.5L70 46.5L72.5 47.5M68 32V27.5H64.5V31.5M68 32C67.6666 31.6667 66.9 31.2 66.5 32C66.1 32.8 67.3333 32.3333 68 32ZM64.5 31.5C63.6667 31.5 62.5 31 62.5 31.5C62.5 32.0657 64 31.8333 64.5 31.5Z" stroke="black" stroke-linejoin="round"/>
</svg>
