<svg width="63" height="32" viewBox="0 0 63 32" fill="none" xmlns="http://www.w3.org/2000/svg">
<path d="M31.4545 1C14.5632 1 0.870117 14.6931 0.870117 31.5844H62.0389C62.0389 14.6931 48.3458 1 31.4545 1Z" fill="black" stroke="black"/>
<path d="M11.8706 23.1562V13.1882H13.9186L15.5026 17.5562L17.0706 13.1722H19.1346V23.1562H17.2306V16.5642L16.0626 20.0042H14.8786L13.7586 16.5642V23.1562H11.8706ZM22.7506 23.3483C22.4412 23.3483 22.1479 23.3109 21.8706 23.2363C21.6039 23.1616 21.3586 23.0442 21.1346 22.8842C20.9212 22.7242 20.7346 22.5216 20.5746 22.2762C20.4146 22.0309 20.2919 21.7376 20.2066 21.3962C20.1212 21.0442 20.0786 20.6442 20.0786 20.1962V15.6202H22.3506V20.1962C22.3506 20.4416 22.3666 20.6496 22.3986 20.8202C22.4412 20.9909 22.4999 21.1349 22.5746 21.2522C22.6492 21.3589 22.7346 21.4389 22.8306 21.4922C22.9372 21.5349 23.0492 21.5562 23.1666 21.5562C23.3692 21.5562 23.5452 21.5242 23.6946 21.4602C23.8546 21.3962 23.9826 21.3002 24.0786 21.1722C24.1852 21.0336 24.2599 20.8682 24.3026 20.6762C24.3559 20.4842 24.3826 20.2602 24.3826 20.0042V15.6202H26.6706V21.9402C26.6706 22.1962 26.6759 22.4202 26.6866 22.6122C26.7079 22.7936 26.7559 22.9749 26.8306 23.1562H24.7986C24.7452 23.0602 24.7079 22.9642 24.6866 22.8682C24.6652 22.7722 24.6492 22.6762 24.6386 22.5802C24.6386 22.4842 24.6386 22.3882 24.6386 22.2922C24.5319 22.4736 24.4039 22.6336 24.2546 22.7722C24.1159 22.9002 23.9612 23.0069 23.7906 23.0922C23.6306 23.1776 23.4599 23.2416 23.2786 23.2843C23.1079 23.3269 22.9319 23.3483 22.7506 23.3483ZM31.6946 23.3483C31.2039 23.3483 30.7346 23.3056 30.2866 23.2203C29.8492 23.1456 29.4439 23.0229 29.0706 22.8522C28.6972 22.6709 28.3559 22.4362 28.0466 22.1482L28.9426 20.4202L29.0066 20.2922L29.1506 20.3722C29.1826 20.4469 29.2146 20.5322 29.2466 20.6282C29.2892 20.7136 29.3746 20.8149 29.5026 20.9322C29.8012 21.1562 30.1266 21.3269 30.4786 21.4442C30.8412 21.5616 31.2519 21.6202 31.7106 21.6202C31.9452 21.6202 32.1426 21.5936 32.3026 21.5402C32.4732 21.4869 32.6012 21.4176 32.6866 21.3322C32.7826 21.2362 32.8306 21.1349 32.8306 21.0282C32.8306 20.9216 32.7932 20.8309 32.7186 20.7562C32.6546 20.6816 32.5532 20.6176 32.4146 20.5642C32.2866 20.5002 32.1159 20.4362 31.9026 20.3722C31.6892 20.3082 31.4386 20.2389 31.1506 20.1642C30.6172 20.0256 30.1532 19.8549 29.7586 19.6522C29.3746 19.4496 29.0759 19.1989 28.8626 18.9002C28.6492 18.5909 28.5426 18.2229 28.5426 17.7962C28.5426 17.3589 28.6759 16.9642 28.9426 16.6122C29.2092 16.2602 29.5719 15.9776 30.0306 15.7642C30.4999 15.5509 31.0332 15.4442 31.6306 15.4442C31.9186 15.4442 32.2012 15.4709 32.4786 15.5242C32.7666 15.5669 33.0386 15.6362 33.2946 15.7322C33.5506 15.8176 33.7959 15.9349 34.0306 16.0842C34.2652 16.2229 34.4839 16.3882 34.6866 16.5802L33.6466 18.1002L33.5506 18.2282L33.4066 18.1162C33.3959 18.0309 33.3692 17.9509 33.3266 17.8762C33.2946 17.8016 33.2146 17.7056 33.0866 17.5882C32.8839 17.4496 32.6599 17.3536 32.4146 17.3002C32.1799 17.2362 31.9292 17.2042 31.6626 17.2042C31.3532 17.2042 31.0812 17.2522 30.8466 17.3482C30.6119 17.4442 30.4946 17.5882 30.4946 17.7802C30.4946 17.9082 30.5586 18.0149 30.6866 18.1002C30.8146 18.1856 31.0012 18.2656 31.2466 18.3402C31.5026 18.4042 31.8172 18.4789 32.1906 18.5642C32.7879 18.6922 33.2786 18.8682 33.6626 19.0922C34.0466 19.3056 34.3292 19.5669 34.5106 19.8762C34.7026 20.1856 34.7986 20.5429 34.7986 20.9482C34.7986 21.3749 34.6759 21.7749 34.4306 22.1482C34.1852 22.5109 33.8279 22.8042 33.3586 23.0282C32.8999 23.2416 32.3452 23.3483 31.6946 23.3483ZM36.6386 23.1562V21.3962H38.4306V17.3802H36.7186V15.6202H40.7026V21.3962H42.3346V23.1562H36.6386ZM39.4546 14.5962C39.0812 14.5962 38.7612 14.4736 38.4946 14.2282C38.2386 13.9722 38.1106 13.6736 38.1106 13.3322C38.1106 12.9589 38.2332 12.6549 38.4786 12.4202C38.7346 12.1856 39.0599 12.0682 39.4546 12.0682C39.8066 12.0682 40.1159 12.1962 40.3826 12.4522C40.6599 12.6976 40.7986 12.9909 40.7986 13.3322C40.7986 13.6736 40.6599 13.9722 40.3826 14.2282C40.1159 14.4736 39.8066 14.5962 39.4546 14.5962ZM47.8386 23.3483C47.2839 23.3483 46.7666 23.2576 46.2866 23.0762C45.8066 22.8842 45.3852 22.6176 45.0226 22.2762C44.6706 21.9242 44.3932 21.5136 44.1906 21.0443C43.9986 20.5749 43.9026 20.0576 43.9026 19.4922C43.9026 18.9376 43.9986 18.4149 44.1906 17.9242C44.3932 17.4336 44.6706 17.0069 45.0226 16.6442C45.3852 16.2709 45.8066 15.9776 46.2866 15.7642C46.7666 15.5509 47.2892 15.4442 47.8546 15.4442C48.6012 15.4442 49.2412 15.5776 49.7746 15.8442C50.3079 16.1002 50.7292 16.4629 51.0386 16.9322L49.8386 18.2922L49.7426 18.4042L49.5986 18.2922C49.5879 18.2069 49.5772 18.1162 49.5666 18.0202C49.5559 17.9242 49.4972 17.8069 49.3906 17.6682C49.2092 17.4869 49.0012 17.3642 48.7666 17.3002C48.5319 17.2362 48.2652 17.2042 47.9666 17.2042C47.7319 17.2042 47.5079 17.2576 47.2946 17.3642C47.0812 17.4602 46.8892 17.6042 46.7186 17.7962C46.5479 17.9882 46.4146 18.2282 46.3186 18.5162C46.2226 18.8042 46.1746 19.1402 46.1746 19.5242C46.1746 19.8549 46.2226 20.1536 46.3186 20.4202C46.4252 20.6762 46.5586 20.8896 46.7186 21.0602C46.8892 21.2309 47.0759 21.3642 47.2786 21.4602C47.4919 21.5456 47.7052 21.5882 47.9186 21.5882C48.1319 21.5882 48.3399 21.5616 48.5426 21.5082C48.7559 21.4549 48.9639 21.3642 49.1666 21.2362C49.3799 21.0976 49.5826 20.9056 49.7746 20.6602L50.9906 22.0522C50.5746 22.5216 50.0786 22.8576 49.5026 23.0602C48.9266 23.2523 48.3719 23.3483 47.8386 23.3483Z" fill="white"/>
</svg>
