<svg width="63" height="32" viewBox="0 0 63 32" fill="none" xmlns="http://www.w3.org/2000/svg">
<path d="M31.4545 1C14.5632 1 0.870117 14.6931 0.870117 31.5844H62.0389C62.0389 14.6931 48.3458 1 31.4545 1Z" fill="white" stroke="black"/>
<path d="M11.8706 23.1558V13.1878H13.9186L15.5026 17.5558L17.0706 13.1718H19.1346V23.1558H17.2306V16.5638L16.0626 20.0038H14.8786L13.7586 16.5638V23.1558H11.8706ZM22.7506 23.3478C22.4412 23.3478 22.1479 23.3104 21.8706 23.2358C21.6039 23.1611 21.3586 23.0438 21.1346 22.8838C20.9212 22.7238 20.7346 22.5211 20.5746 22.2758C20.4146 22.0304 20.2919 21.7371 20.2066 21.3958C20.1212 21.0438 20.0786 20.6438 20.0786 20.1958V15.6198H22.3506V20.1958C22.3506 20.4411 22.3666 20.6491 22.3986 20.8198C22.4412 20.9904 22.4999 21.1344 22.5746 21.2518C22.6492 21.3584 22.7346 21.4384 22.8306 21.4918C22.9372 21.5344 23.0492 21.5558 23.1666 21.5558C23.3692 21.5558 23.5452 21.5238 23.6946 21.4598C23.8546 21.3958 23.9826 21.2998 24.0786 21.1718C24.1852 21.0331 24.2599 20.8678 24.3026 20.6758C24.3559 20.4838 24.3826 20.2598 24.3826 20.0038V15.6198H26.6706V21.9398C26.6706 22.1958 26.6759 22.4198 26.6866 22.6118C26.7079 22.7931 26.7559 22.9744 26.8306 23.1558H24.7986C24.7452 23.0598 24.7079 22.9638 24.6866 22.8678C24.6652 22.7718 24.6492 22.6758 24.6386 22.5798C24.6386 22.4838 24.6386 22.3878 24.6386 22.2918C24.5319 22.4731 24.4039 22.6331 24.2546 22.7718C24.1159 22.8998 23.9612 23.0064 23.7906 23.0918C23.6306 23.1771 23.4599 23.2411 23.2786 23.2838C23.1079 23.3264 22.9319 23.3478 22.7506 23.3478ZM31.6946 23.3478C31.2039 23.3478 30.7346 23.3051 30.2866 23.2198C29.8492 23.1451 29.4439 23.0224 29.0706 22.8518C28.6972 22.6704 28.3559 22.4358 28.0466 22.1478L28.9426 20.4198L29.0066 20.2918L29.1506 20.3718C29.1826 20.4464 29.2146 20.5318 29.2466 20.6278C29.2892 20.7131 29.3746 20.8144 29.5026 20.9318C29.8012 21.1558 30.1266 21.3264 30.4786 21.4438C30.8412 21.5611 31.2519 21.6198 31.7106 21.6198C31.9452 21.6198 32.1426 21.5931 32.3026 21.5398C32.4732 21.4864 32.6012 21.4171 32.6866 21.3318C32.7826 21.2358 32.8306 21.1344 32.8306 21.0278C32.8306 20.9211 32.7932 20.8304 32.7186 20.7558C32.6546 20.6811 32.5532 20.6171 32.4146 20.5638C32.2866 20.4998 32.1159 20.4358 31.9026 20.3718C31.6892 20.3078 31.4386 20.2384 31.1506 20.1638C30.6172 20.0251 30.1532 19.8544 29.7586 19.6518C29.3746 19.4491 29.0759 19.1984 28.8626 18.8998C28.6492 18.5904 28.5426 18.2224 28.5426 17.7958C28.5426 17.3584 28.6759 16.9638 28.9426 16.6118C29.2092 16.2598 29.5719 15.9771 30.0306 15.7638C30.4999 15.5504 31.0332 15.4438 31.6306 15.4438C31.9186 15.4438 32.2012 15.4704 32.4786 15.5238C32.7666 15.5664 33.0386 15.6358 33.2946 15.7318C33.5506 15.8171 33.7959 15.9344 34.0306 16.0838C34.2652 16.2224 34.4839 16.3878 34.6866 16.5798L33.6466 18.0998L33.5506 18.2278L33.4066 18.1158C33.3959 18.0304 33.3692 17.9504 33.3266 17.8758C33.2946 17.8011 33.2146 17.7051 33.0866 17.5878C32.8839 17.4491 32.6599 17.3531 32.4146 17.2998C32.1799 17.2358 31.9292 17.2038 31.6626 17.2038C31.3532 17.2038 31.0812 17.2518 30.8466 17.3478C30.6119 17.4438 30.4946 17.5878 30.4946 17.7798C30.4946 17.9078 30.5586 18.0144 30.6866 18.0998C30.8146 18.1851 31.0012 18.2651 31.2466 18.3398C31.5026 18.4038 31.8172 18.4784 32.1906 18.5638C32.7879 18.6918 33.2786 18.8678 33.6626 19.0918C34.0466 19.3051 34.3292 19.5664 34.5106 19.8758C34.7026 20.1851 34.7986 20.5424 34.7986 20.9478C34.7986 21.3744 34.6759 21.7744 34.4306 22.1478C34.1852 22.5104 33.8279 22.8038 33.3586 23.0278C32.8999 23.2411 32.3452 23.3478 31.6946 23.3478ZM36.6386 23.1558V21.3958H38.4306V17.3798H36.7186V15.6198H40.7026V21.3958H42.3346V23.1558H36.6386ZM39.4546 14.5958C39.0812 14.5958 38.7612 14.4731 38.4946 14.2278C38.2386 13.9718 38.1106 13.6731 38.1106 13.3318C38.1106 12.9584 38.2332 12.6544 38.4786 12.4198C38.7346 12.1851 39.0599 12.0678 39.4546 12.0678C39.8066 12.0678 40.1159 12.1958 40.3826 12.4518C40.6599 12.6971 40.7986 12.9904 40.7986 13.3318C40.7986 13.6731 40.6599 13.9718 40.3826 14.2278C40.1159 14.4731 39.8066 14.5958 39.4546 14.5958ZM47.8386 23.3478C47.2839 23.3478 46.7666 23.2571 46.2866 23.0758C45.8066 22.8838 45.3852 22.6171 45.0226 22.2758C44.6706 21.9238 44.3932 21.5131 44.1906 21.0438C43.9986 20.5744 43.9026 20.0571 43.9026 19.4918C43.9026 18.9371 43.9986 18.4144 44.1906 17.9238C44.3932 17.4331 44.6706 17.0064 45.0226 16.6438C45.3852 16.2704 45.8066 15.9771 46.2866 15.7638C46.7666 15.5504 47.2892 15.4438 47.8546 15.4438C48.6012 15.4438 49.2412 15.5771 49.7746 15.8438C50.3079 16.0998 50.7292 16.4624 51.0386 16.9318L49.8386 18.2918L49.7426 18.4038L49.5986 18.2918C49.5879 18.2064 49.5772 18.1158 49.5666 18.0198C49.5559 17.9238 49.4972 17.8064 49.3906 17.6678C49.2092 17.4864 49.0012 17.3638 48.7666 17.2998C48.5319 17.2358 48.2652 17.2038 47.9666 17.2038C47.7319 17.2038 47.5079 17.2571 47.2946 17.3638C47.0812 17.4598 46.8892 17.6038 46.7186 17.7958C46.5479 17.9878 46.4146 18.2278 46.3186 18.5158C46.2226 18.8038 46.1746 19.1398 46.1746 19.5238C46.1746 19.8544 46.2226 20.1531 46.3186 20.4198C46.4252 20.6758 46.5586 20.8891 46.7186 21.0598C46.8892 21.2304 47.0759 21.3638 47.2786 21.4598C47.4919 21.5451 47.7052 21.5878 47.9186 21.5878C48.1319 21.5878 48.3399 21.5611 48.5426 21.5078C48.7559 21.4544 48.9639 21.3638 49.1666 21.2358C49.3799 21.0971 49.5826 20.9051 49.7746 20.6598L50.9906 22.0518C50.5746 22.5211 50.0786 22.8571 49.5026 23.0598C48.9266 23.2518 48.3719 23.3478 47.8386 23.3478Z" fill="black"/>
</svg>
