<svg width="1440" height="900" viewBox="0 0 1440 900" fill="none" xmlns="http://www.w3.org/2000/svg">
<g clip-path="url(#clip0_148_1179)">
<rect width="1440" height="900" fill="black"/>
<rect x="0.5" y="0.5" width="1439" height="899" stroke="black"/>
<path d="M40.12 55.32C39.032 55.32 38.0187 55.128 37.08 54.744C36.1413 54.3387 35.3093 53.72 34.584 52.888C33.88 52.056 33.3253 51 32.92 49.72C32.5147 48.44 32.312 46.9147 32.312 45.144C32.312 43.5867 32.4613 42.232 32.76 41.08C33.0587 39.9067 33.464 38.9253 33.976 38.136C34.488 37.3467 35.0747 36.7173 35.736 36.248C36.3973 35.7787 37.0907 35.4373 37.816 35.224C38.5413 35.0107 39.2667 34.904 39.992 34.904C41.4427 34.904 42.68 35.2667 43.704 35.992C44.728 36.696 45.496 37.6453 46.008 38.84L44.088 39.736L43.8 39.864L43.704 39.64C43.768 39.4693 43.768 39.32 43.704 39.192C43.64 39.0427 43.5227 38.8187 43.352 38.52C42.8187 37.7947 42.264 37.3147 41.688 37.08C41.1333 36.824 40.5467 36.696 39.928 36.696C39.096 36.696 38.3387 36.888 37.656 37.272C36.9947 37.6347 36.4187 38.1787 35.928 38.904C35.4587 39.608 35.096 40.472 34.84 41.496C34.6053 42.52 34.488 43.6827 34.488 44.984C34.488 46.2427 34.6267 47.384 34.904 48.408C35.2027 49.432 35.5973 50.3173 36.088 51.064C36.6 51.8107 37.1867 52.3867 37.848 52.792C38.5307 53.1973 39.256 53.4 40.024 53.4C40.5573 53.4 41.0693 53.304 41.56 53.112C42.072 52.92 42.5413 52.6427 42.968 52.28C43.3947 51.896 43.7573 51.4587 44.056 50.968L45.72 52.056C45.08 53.1227 44.312 53.9333 43.416 54.488C42.52 55.0427 41.4213 55.32 40.12 55.32ZM53.752 55.352C52.088 55.352 50.808 54.9787 49.912 54.232C49.016 53.464 48.568 52.4933 48.568 51.32C48.568 50.5307 48.76 49.8267 49.144 49.208C49.528 48.568 50.0507 48.0347 50.712 47.608C51.3947 47.16 52.184 46.8187 53.08 46.584C53.976 46.3493 54.9253 46.232 55.928 46.232C56.2907 46.232 56.6533 46.2427 57.016 46.264C57.4 46.264 57.7947 46.2853 58.2 46.328C58.6267 46.3493 59.064 46.392 59.512 46.456L59.576 48.216C59.192 48.152 58.7973 48.1093 58.392 48.088C58.008 48.0453 57.624 48.0133 57.24 47.992C56.856 47.9707 56.4827 47.96 56.12 47.96C55.352 47.96 54.648 48.024 54.008 48.152C53.368 48.28 52.8133 48.472 52.344 48.728C51.8747 48.984 51.512 49.3147 51.256 49.72C51 50.1253 50.872 50.616 50.872 51.192C50.872 51.64 50.9467 52.024 51.096 52.344C51.2667 52.6427 51.4907 52.888 51.768 53.08C52.0453 53.2507 52.3653 53.3787 52.728 53.464C53.112 53.5493 53.528 53.592 53.976 53.592C54.808 53.592 55.544 53.464 56.184 53.208C56.8453 52.9307 57.4 52.536 57.848 52.024C58.3173 51.512 58.6693 50.8827 58.904 50.136C59.1387 49.3893 59.256 48.536 59.256 47.576C59.256 46.1253 59.0853 44.9947 58.744 44.184C58.4027 43.3733 57.8907 42.7973 57.208 42.456C56.5467 42.1147 55.6933 41.944 54.648 41.944C53.944 41.944 53.2507 42.0827 52.568 42.36C51.8853 42.616 51.2667 43.0213 50.712 43.576L49.592 42.104C50.2747 41.4213 51.064 40.9093 51.96 40.568C52.856 40.2267 53.8053 40.056 54.808 40.056C55.768 40.056 56.6427 40.1733 57.432 40.408C58.2213 40.6427 58.8933 41.0373 59.448 41.592C60.024 42.1253 60.4613 42.8507 60.76 43.768C61.08 44.6853 61.24 45.8373 61.24 47.224V55H58.744V52.76C58.4667 53.2933 58.1253 53.7307 57.72 54.072C57.336 54.4133 56.92 54.68 56.472 54.872C56.024 55.0427 55.5653 55.16 55.096 55.224C54.6267 55.3093 54.1787 55.352 53.752 55.352ZM71 55.256C69.6773 55.256 68.504 54.936 67.48 54.296C66.4773 53.6347 65.688 52.7387 65.112 51.608C64.536 50.456 64.248 49.144 64.248 47.672C64.248 46.1787 64.536 44.8667 65.112 43.736C65.688 42.584 66.4773 41.688 67.48 41.048C68.504 40.3867 69.6773 40.056 71 40.056C72.3227 40.056 73.4853 40.3867 74.488 41.048C75.512 41.688 76.312 42.584 76.888 43.736C77.464 44.8667 77.752 46.1787 77.752 47.672C77.752 49.144 77.464 50.456 76.888 51.608C76.312 52.7387 75.512 53.6347 74.488 54.296C73.4853 54.936 72.3227 55.256 71 55.256ZM71 53.336C71.8533 53.336 72.6 53.0907 73.24 52.6C73.88 52.1093 74.3813 51.4373 74.744 50.584C75.128 49.7307 75.32 48.7493 75.32 47.64C75.32 46.5307 75.128 45.5493 74.744 44.696C74.3813 43.8427 73.88 43.1813 73.24 42.712C72.6 42.2213 71.8533 41.976 71 41.976C70.168 41.976 69.4213 42.2213 68.76 42.712C68.12 43.1813 67.608 43.8427 67.224 44.696C66.8613 45.5493 66.68 46.5307 66.68 47.64C66.68 48.7493 66.8613 49.7307 67.224 50.584C67.608 51.4373 68.12 52.1093 68.76 52.6C69.4213 53.0907 70.168 53.336 71 53.336ZM96.312 55V35.064H98.072L103 44.824L108.024 35.032H109.72V55H107.608V39.96L103.288 47.992H102.424L98.392 40.056V55H96.312ZM117.752 55.352C116.088 55.352 114.808 54.9787 113.912 54.232C113.016 53.464 112.568 52.4933 112.568 51.32C112.568 50.5307 112.76 49.8267 113.144 49.208C113.528 48.568 114.051 48.0347 114.712 47.608C115.395 47.16 116.184 46.8187 117.08 46.584C117.976 46.3493 118.925 46.232 119.928 46.232C120.291 46.232 120.653 46.2427 121.016 46.264C121.4 46.264 121.795 46.2853 122.2 46.328C122.627 46.3493 123.064 46.392 123.512 46.456L123.576 48.216C123.192 48.152 122.797 48.1093 122.392 48.088C122.008 48.0453 121.624 48.0133 121.24 47.992C120.856 47.9707 120.483 47.96 120.12 47.96C119.352 47.96 118.648 48.024 118.008 48.152C117.368 48.28 116.813 48.472 116.344 48.728C115.875 48.984 115.512 49.3147 115.256 49.72C115 50.1253 114.872 50.616 114.872 51.192C114.872 51.64 114.947 52.024 115.096 52.344C115.267 52.6427 115.491 52.888 115.768 53.08C116.045 53.2507 116.365 53.3787 116.728 53.464C117.112 53.5493 117.528 53.592 117.976 53.592C118.808 53.592 119.544 53.464 120.184 53.208C120.845 52.9307 121.4 52.536 121.848 52.024C122.317 51.512 122.669 50.8827 122.904 50.136C123.139 49.3893 123.256 48.536 123.256 47.576C123.256 46.1253 123.085 44.9947 122.744 44.184C122.403 43.3733 121.891 42.7973 121.208 42.456C120.547 42.1147 119.693 41.944 118.648 41.944C117.944 41.944 117.251 42.0827 116.568 42.36C115.885 42.616 115.267 43.0213 114.712 43.576L113.592 42.104C114.275 41.4213 115.064 40.9093 115.96 40.568C116.856 40.2267 117.805 40.056 118.808 40.056C119.768 40.056 120.643 40.1733 121.432 40.408C122.221 40.6427 122.893 41.0373 123.448 41.592C124.024 42.1253 124.461 42.8507 124.76 43.768C125.08 44.6853 125.24 45.8373 125.24 47.224V55H122.744V52.76C122.467 53.2933 122.125 53.7307 121.72 54.072C121.336 54.4133 120.92 54.68 120.472 54.872C120.024 55.0427 119.565 55.16 119.096 55.224C118.627 55.3093 118.179 55.352 117.752 55.352ZM130.2 55V53.144H133.944V42.232H130.392V40.376H136.248V53.144H139.672V55H130.2ZM134.968 37.304C134.52 37.304 134.136 37.144 133.816 36.824C133.496 36.504 133.336 36.12 133.336 35.672C133.336 35.2027 133.485 34.808 133.784 34.488C134.104 34.168 134.499 34.008 134.968 34.008C135.416 34.008 135.8 34.1787 136.12 34.52C136.461 34.84 136.632 35.224 136.632 35.672C136.632 36.12 136.461 36.504 136.12 36.824C135.8 37.144 135.416 37.304 134.968 37.304Z" fill="black"/>
<rect x="571" y="55" width="299" height="45" rx="10" fill="black"/>
<path d="M575.06 84.24C573.993 84.24 573.107 83.9867 572.4 83.48C571.693 82.9733 571.16 82.24 570.8 81.28C570.453 80.3067 570.28 79.1267 570.28 77.74C570.28 76.3667 570.453 75.2067 570.8 74.26C571.16 73.3 571.693 72.5667 572.4 72.06C573.107 71.5533 573.993 71.3 575.06 71.3C576.113 71.3 576.993 71.5533 577.7 72.06C578.407 72.5667 578.94 73.3 579.3 74.26C579.66 75.2067 579.84 76.3667 579.84 77.74C579.84 79.1267 579.66 80.3067 579.3 81.28C578.94 82.2533 578.407 82.9933 577.7 83.5C576.993 83.9933 576.113 84.24 575.06 84.24ZM575.06 82C575.473 82 575.827 81.8533 576.12 81.56C576.413 81.2533 576.64 80.7867 576.8 80.16C576.973 79.52 577.06 78.7 577.06 77.7C577.06 76.78 576.973 76.0133 576.8 75.4C576.64 74.7733 576.413 74.3067 576.12 74C575.827 73.6933 575.473 73.54 575.06 73.54C574.633 73.54 574.267 73.6933 573.96 74C573.667 74.3067 573.44 74.7733 573.28 75.4C573.133 76.0133 573.06 76.78 573.06 77.7C573.06 78.7 573.133 79.52 573.28 80.16C573.44 80.7867 573.667 81.2533 573.96 81.56C574.267 81.8533 574.633 82 575.06 82ZM580.52 84V71.54H583.08L585.06 77L587.02 71.52H589.6V84H587.22V75.76L585.76 80.06H584.28L582.88 75.76V84H580.52ZM595.52 84.24C594.44 84.24 593.513 83.9733 592.74 83.44C591.967 82.8933 591.373 82.1333 590.96 81.16C590.56 80.1867 590.36 79.0533 590.36 77.76C590.36 76.7067 590.473 75.8133 590.7 75.08C590.94 74.3333 591.253 73.7133 591.64 73.22C592.027 72.7267 592.447 72.34 592.9 72.06C593.367 71.78 593.827 71.5867 594.28 71.48C594.733 71.36 595.147 71.3 595.52 71.3C596.093 71.3 596.64 71.3867 597.16 71.56C597.68 71.72 598.147 71.9667 598.56 72.3C598.987 72.62 599.333 73.0267 599.6 73.52L598.06 75.18L597.94 75.32L597.76 75.16C597.747 75.0533 597.727 74.9467 597.7 74.84C597.687 74.7333 597.613 74.5933 597.48 74.42C597.36 74.2733 597.22 74.14 597.06 74.02C596.9 73.9 596.7 73.8 596.46 73.72C596.233 73.64 595.953 73.6 595.62 73.6C595.367 73.6 595.12 73.6467 594.88 73.74C594.64 73.8333 594.413 73.9867 594.2 74.2C594 74.4 593.82 74.66 593.66 74.98C593.5 75.2867 593.373 75.66 593.28 76.1C593.2 76.54 593.16 77.0467 593.16 77.62C593.16 78.38 593.22 79.0333 593.34 79.58C593.46 80.1267 593.62 80.58 593.82 80.94C594.033 81.3 594.287 81.5667 594.58 81.74C594.873 81.9133 595.187 82 595.52 82C595.667 82 595.807 81.9933 595.94 81.98C596.073 81.9533 596.207 81.9267 596.34 81.9C596.473 81.86 596.6 81.8067 596.72 81.74C596.84 81.66 596.967 81.5733 597.1 81.48V79.6H595.18V77.3H599.62V82.94C599.02 83.4333 598.367 83.7733 597.66 83.96C596.967 84.1467 596.253 84.24 595.52 84.24ZM604.8 84.26C604.307 84.26 603.887 84.0933 603.54 83.76C603.207 83.4133 603.04 82.9933 603.04 82.5C603.04 82.02 603.207 81.6133 603.54 81.28C603.887 80.9333 604.307 80.76 604.8 80.76C605.28 80.76 605.687 80.9333 606.02 81.28C606.367 81.6133 606.54 82.02 606.54 82.5C606.54 82.9933 606.367 83.4133 606.02 83.76C605.687 84.0933 605.28 84.26 604.8 84.26ZM614.8 84.26C614.307 84.26 613.887 84.0933 613.54 83.76C613.207 83.4133 613.04 82.9933 613.04 82.5C613.04 82.02 613.207 81.6133 613.54 81.28C613.887 80.9333 614.307 80.76 614.8 80.76C615.28 80.76 615.687 80.9333 616.02 81.28C616.367 81.6133 616.54 82.02 616.54 82.5C616.54 82.9933 616.367 83.4133 616.02 83.76C615.687 84.0933 615.28 84.26 614.8 84.26ZM624.8 84.26C624.307 84.26 623.887 84.0933 623.54 83.76C623.207 83.4133 623.04 82.9933 623.04 82.5C623.04 82.02 623.207 81.6133 623.54 81.28C623.887 80.9333 624.307 80.76 624.8 80.76C625.28 80.76 625.687 80.9333 626.02 81.28C626.367 81.6133 626.54 82.02 626.54 82.5C626.54 82.9933 626.367 83.4133 626.02 83.76C625.687 84.0933 625.28 84.26 624.8 84.26ZM634.8 84.26C634.307 84.26 633.887 84.0933 633.54 83.76C633.207 83.4133 633.04 82.9933 633.04 82.5C633.04 82.02 633.207 81.6133 633.54 81.28C633.887 80.9333 634.307 80.76 634.8 80.76C635.28 80.76 635.687 80.9333 636.02 81.28C636.367 81.6133 636.54 82.02 636.54 82.5C636.54 82.9933 636.367 83.4133 636.02 83.76C635.687 84.0933 635.28 84.26 634.8 84.26ZM644.8 84.26C644.307 84.26 643.887 84.0933 643.54 83.76C643.207 83.4133 643.04 82.9933 643.04 82.5C643.04 82.02 643.207 81.6133 643.54 81.28C643.887 80.9333 644.307 80.76 644.8 80.76C645.28 80.76 645.687 80.9333 646.02 81.28C646.367 81.6133 646.54 82.02 646.54 82.5C646.54 82.9933 646.367 83.4133 646.02 83.76C645.687 84.0933 645.28 84.26 644.8 84.26ZM654.8 84.26C654.307 84.26 653.887 84.0933 653.54 83.76C653.207 83.4133 653.04 82.9933 653.04 82.5C653.04 82.02 653.207 81.6133 653.54 81.28C653.887 80.9333 654.307 80.76 654.8 80.76C655.28 80.76 655.687 80.9333 656.02 81.28C656.367 81.6133 656.54 82.02 656.54 82.5C656.54 82.9933 656.367 83.4133 656.02 83.76C655.687 84.0933 655.28 84.26 654.8 84.26ZM661.26 84V81.74H663.68V73.8H661.38V71.54H668.74V73.8H666.32V81.74H668.84V84H661.26ZM685.48 84.24C684.787 84.24 684.14 84.1267 683.54 83.9C682.94 83.66 682.413 83.3267 681.96 82.9C681.52 82.46 681.173 81.9467 680.92 81.36C680.68 80.7733 680.56 80.1267 680.56 79.42C680.56 78.7267 680.68 78.0733 680.92 77.46C681.173 76.8467 681.52 76.3133 681.96 75.86C682.413 75.3933 682.94 75.0267 683.54 74.76C684.14 74.4933 684.793 74.36 685.5 74.36C686.433 74.36 687.233 74.5267 687.9 74.86C688.567 75.18 689.093 75.6333 689.48 76.22L687.98 77.92L687.86 78.06L687.68 77.92C687.667 77.8133 687.653 77.7 687.64 77.58C687.627 77.46 687.553 77.3133 687.42 77.14C687.193 76.9133 686.933 76.76 686.64 76.68C686.347 76.6 686.013 76.56 685.64 76.56C685.347 76.56 685.067 76.6267 684.8 76.76C684.533 76.88 684.293 77.06 684.08 77.3C683.867 77.54 683.7 77.84 683.58 78.2C683.46 78.56 683.4 78.98 683.4 79.46C683.4 79.8733 683.46 80.2467 683.58 80.58C683.713 80.9 683.88 81.1667 684.08 81.38C684.293 81.5933 684.527 81.76 684.78 81.88C685.047 81.9867 685.313 82.04 685.58 82.04C685.847 82.04 686.107 82.0067 686.36 81.94C686.627 81.8733 686.887 81.76 687.14 81.6C687.407 81.4267 687.66 81.1867 687.9 80.88L689.42 82.62C688.9 83.2067 688.28 83.6267 687.56 83.88C686.84 84.12 686.147 84.24 685.48 84.24ZM693.78 84.24C692.767 84.24 691.973 84 691.4 83.52C690.827 83.0267 690.54 82.38 690.54 81.58C690.54 81.0733 690.647 80.6067 690.86 80.18C691.073 79.74 691.407 79.36 691.86 79.04C692.313 78.7067 692.893 78.4467 693.6 78.26C694.307 78.0733 695.153 77.98 696.14 77.98C696.18 77.98 696.253 77.98 696.36 77.98C696.467 77.98 696.587 77.98 696.72 77.98C696.853 77.98 696.967 77.98 697.06 77.98L697.14 79.86C697.06 79.86 696.947 79.86 696.8 79.86C696.653 79.86 696.5 79.8667 696.34 79.88C696.193 79.88 696.08 79.88 696 79.88C695.427 79.88 694.967 79.92 694.62 80C694.273 80.0667 694.007 80.1667 693.82 80.3C693.647 80.42 693.527 80.56 693.46 80.72C693.393 80.8667 693.36 81.0133 693.36 81.16C693.36 81.32 693.387 81.46 693.44 81.58C693.493 81.7 693.567 81.7933 693.66 81.86C693.753 81.9267 693.867 81.98 694 82.02C694.133 82.0467 694.273 82.06 694.42 82.06C694.74 82.06 695.013 82.0067 695.24 81.9C695.467 81.7933 695.653 81.62 695.8 81.38C695.96 81.1267 696.073 80.8067 696.14 80.42C696.22 80.0333 696.26 79.56 696.26 79C696.26 78.32 696.193 77.8 696.06 77.44C695.94 77.08 695.76 76.84 695.52 76.72C695.293 76.5867 695.013 76.52 694.68 76.52C694.267 76.52 693.887 76.58 693.54 76.7C693.193 76.8067 692.827 77.06 692.44 77.46L690.84 75.82C691.44 75.2733 692.08 74.8933 692.76 74.68C693.453 74.4667 694.127 74.36 694.78 74.36C695.353 74.36 695.893 74.4267 696.4 74.56C696.92 74.68 697.38 74.8867 697.78 75.18C698.193 75.4733 698.513 75.88 698.74 76.4C698.98 76.9067 699.1 77.5467 699.1 78.32V84H696.24V83.26C696.067 83.42 695.893 83.5667 695.72 83.7C695.56 83.82 695.38 83.92 695.18 84C694.993 84.08 694.787 84.14 694.56 84.18C694.333 84.22 694.073 84.24 693.78 84.24ZM700.86 84V74.58H703.72V75.66C703.933 75.4067 704.153 75.1867 704.38 75C704.607 74.8 704.86 74.6467 705.14 74.54C705.433 74.42 705.76 74.36 706.12 74.36C706.68 74.36 707.207 74.5 707.7 74.78C708.193 75.0467 708.593 75.4733 708.9 76.06C709.207 76.6333 709.36 77.3933 709.36 78.34V84H706.52V78.36C706.52 77.9333 706.48 77.58 706.4 77.3C706.32 77.0067 706.193 76.7867 706.02 76.64C705.847 76.4933 705.627 76.42 705.36 76.42C705.147 76.42 704.94 76.4667 704.74 76.56C704.54 76.64 704.36 76.76 704.2 76.92C704.053 77.08 703.933 77.2733 703.84 77.5C703.76 77.7267 703.72 77.98 703.72 78.26V84H700.86ZM714.14 77.58L712.74 76.28C712.993 76.04 713.207 75.82 713.38 75.62C713.567 75.42 713.713 75.2133 713.82 75C713.927 74.7867 713.98 74.5533 713.98 74.3C713.98 74.1133 713.933 73.96 713.84 73.84C713.76 73.72 713.66 73.6067 713.54 73.5C713.433 73.38 713.333 73.24 713.24 73.08C713.16 72.92 713.12 72.7133 713.12 72.46C713.12 72.0333 713.273 71.6667 713.58 71.36C713.9 71.0533 714.313 70.9 714.82 70.9C715.287 70.9 715.707 71.0867 716.08 71.46C716.467 71.82 716.66 72.2867 716.66 72.86C716.66 73.3133 716.567 73.7933 716.38 74.3C716.193 74.8067 715.913 75.3333 715.54 75.88C715.18 76.4267 714.713 76.9933 714.14 77.58ZM725.98 84.24C725.487 84.24 725.033 84.16 724.62 84C724.207 83.8533 723.853 83.6 723.56 83.24C723.267 82.8667 723.047 82.36 722.9 81.72C722.753 81.08 722.7 80.2667 722.74 79.28L723.02 72.48L725.9 72.1L726.08 72.08L726.1 72.3C726.047 72.3933 725.993 72.4867 725.94 72.58C725.887 72.6733 725.853 72.8333 725.84 73.06L725.6 76.14H725.72L725.56 79.14C725.52 79.9 725.547 80.4933 725.64 80.92C725.747 81.3333 725.893 81.62 726.08 81.78C726.28 81.94 726.487 82.02 726.7 82.02C727.113 82.02 727.487 81.9333 727.82 81.76C728.167 81.5867 728.467 81.3933 728.72 81.18L729.2 83.16C728.747 83.4933 728.253 83.76 727.72 83.96C727.2 84.1467 726.62 84.24 725.98 84.24ZM721.02 74.58H728.58L728.54 76.78H720.98L721.02 74.58ZM745.3 84.24C744.687 84.24 744.1 84.1867 743.54 84.08C742.993 83.9867 742.487 83.8333 742.02 83.62C741.553 83.3933 741.127 83.1 740.74 82.74L741.86 80.58L741.94 80.42L742.12 80.52C742.16 80.6133 742.2 80.72 742.24 80.84C742.293 80.9467 742.4 81.0733 742.56 81.22C742.933 81.5 743.34 81.7133 743.78 81.86C744.233 82.0067 744.747 82.08 745.32 82.08C745.613 82.08 745.86 82.0467 746.06 81.98C746.273 81.9133 746.433 81.8267 746.54 81.72C746.66 81.6 746.72 81.4733 746.72 81.34C746.72 81.2067 746.673 81.0933 746.58 81C746.5 80.9067 746.373 80.8267 746.2 80.76C746.04 80.68 745.827 80.6 745.56 80.52C745.293 80.44 744.98 80.3533 744.62 80.26C743.953 80.0867 743.373 79.8733 742.88 79.62C742.4 79.3667 742.027 79.0533 741.76 78.68C741.493 78.2933 741.36 77.8333 741.36 77.3C741.36 76.7533 741.527 76.26 741.86 75.82C742.193 75.38 742.647 75.0267 743.22 74.76C743.807 74.4933 744.473 74.36 745.22 74.36C745.58 74.36 745.933 74.3933 746.28 74.46C746.64 74.5133 746.98 74.6 747.3 74.72C747.62 74.8267 747.927 74.9733 748.22 75.16C748.513 75.3333 748.787 75.54 749.04 75.78L747.74 77.68L747.62 77.84L747.44 77.7C747.427 77.5933 747.393 77.4933 747.34 77.4C747.3 77.3067 747.2 77.1867 747.04 77.04C746.787 76.8667 746.507 76.7467 746.2 76.68C745.907 76.6 745.593 76.56 745.26 76.56C744.873 76.56 744.533 76.62 744.24 76.74C743.947 76.86 743.8 77.04 743.8 77.28C743.8 77.44 743.88 77.5733 744.04 77.68C744.2 77.7867 744.433 77.8867 744.74 77.98C745.06 78.06 745.453 78.1533 745.92 78.26C746.667 78.42 747.28 78.64 747.76 78.92C748.24 79.1867 748.593 79.5133 748.82 79.9C749.06 80.2867 749.18 80.7333 749.18 81.24C749.18 81.7733 749.027 82.2733 748.72 82.74C748.413 83.1933 747.967 83.56 747.38 83.84C746.807 84.1067 746.113 84.24 745.3 84.24ZM755.4 84.24C754.733 84.24 754.107 84.1333 753.52 83.92C752.947 83.6933 752.44 83.3733 752 82.96C751.573 82.5467 751.24 82.04 751 81.44C750.76 80.8267 750.64 80.14 750.64 79.38C750.64 78.6067 750.753 77.9133 750.98 77.3C751.22 76.6733 751.54 76.1467 751.94 75.72C752.353 75.28 752.833 74.9467 753.38 74.72C753.927 74.48 754.52 74.36 755.16 74.36C755.707 74.36 756.227 74.46 756.72 74.66C757.227 74.86 757.673 75.16 758.06 75.56C758.447 75.9467 758.753 76.4333 758.98 77.02C759.207 77.5933 759.32 78.2533 759.32 79C759.32 79.16 759.32 79.36 759.32 79.6C759.32 79.84 759.313 80.0333 759.3 80.18H753.36C753.387 80.5133 753.467 80.8 753.6 81.04C753.733 81.2667 753.9 81.46 754.1 81.62C754.313 81.7667 754.54 81.88 754.78 81.96C755.033 82.0267 755.287 82.06 755.54 82.06C755.807 82.06 756.06 82.04 756.3 82C756.54 81.96 756.773 81.8867 757 81.78C757.227 81.66 757.447 81.4933 757.66 81.28L759.06 82.64C758.74 83.0133 758.387 83.32 758 83.56C757.613 83.8 757.2 83.9733 756.76 84.08C756.32 84.1867 755.867 84.24 755.4 84.24ZM753.38 78.1H756.64C756.64 77.8333 756.607 77.6067 756.54 77.42C756.473 77.22 756.373 77.06 756.24 76.94C756.107 76.8067 755.94 76.7133 755.74 76.66C755.54 76.5933 755.313 76.56 755.06 76.56C754.833 76.56 754.62 76.5933 754.42 76.66C754.233 76.7133 754.067 76.8067 753.92 76.94C753.773 77.06 753.653 77.22 753.56 77.42C753.467 77.6067 753.407 77.8333 753.38 78.1ZM765.4 84.24C764.733 84.24 764.107 84.1333 763.52 83.92C762.947 83.6933 762.44 83.3733 762 82.96C761.573 82.5467 761.24 82.04 761 81.44C760.76 80.8267 760.64 80.14 760.64 79.38C760.64 78.6067 760.753 77.9133 760.98 77.3C761.22 76.6733 761.54 76.1467 761.94 75.72C762.353 75.28 762.833 74.9467 763.38 74.72C763.927 74.48 764.52 74.36 765.16 74.36C765.707 74.36 766.227 74.46 766.72 74.66C767.227 74.86 767.673 75.16 768.06 75.56C768.447 75.9467 768.753 76.4333 768.98 77.02C769.207 77.5933 769.32 78.2533 769.32 79C769.32 79.16 769.32 79.36 769.32 79.6C769.32 79.84 769.313 80.0333 769.3 80.18H763.36C763.387 80.5133 763.467 80.8 763.6 81.04C763.733 81.2667 763.9 81.46 764.1 81.62C764.313 81.7667 764.54 81.88 764.78 81.96C765.033 82.0267 765.287 82.06 765.54 82.06C765.807 82.06 766.06 82.04 766.3 82C766.54 81.96 766.773 81.8867 767 81.78C767.227 81.66 767.447 81.4933 767.66 81.28L769.06 82.64C768.74 83.0133 768.387 83.32 768 83.56C767.613 83.8 767.2 83.9733 766.76 84.08C766.32 84.1867 765.867 84.24 765.4 84.24ZM763.38 78.1H766.64C766.64 77.8333 766.607 77.6067 766.54 77.42C766.473 77.22 766.373 77.06 766.24 76.94C766.107 76.8067 765.94 76.7133 765.74 76.66C765.54 76.5933 765.313 76.56 765.06 76.56C764.833 76.56 764.62 76.5933 764.42 76.66C764.233 76.7133 764.067 76.8067 763.92 76.94C763.773 77.06 763.653 77.22 763.56 77.42C763.467 77.6067 763.407 77.8333 763.38 78.1ZM783.78 84.24C782.767 84.24 781.973 84 781.4 83.52C780.827 83.0267 780.54 82.38 780.54 81.58C780.54 81.0733 780.647 80.6067 780.86 80.18C781.073 79.74 781.407 79.36 781.86 79.04C782.313 78.7067 782.893 78.4467 783.6 78.26C784.307 78.0733 785.153 77.98 786.14 77.98C786.18 77.98 786.253 77.98 786.36 77.98C786.467 77.98 786.587 77.98 786.72 77.98C786.853 77.98 786.967 77.98 787.06 77.98L787.14 79.86C787.06 79.86 786.947 79.86 786.8 79.86C786.653 79.86 786.5 79.8667 786.34 79.88C786.193 79.88 786.08 79.88 786 79.88C785.427 79.88 784.967 79.92 784.62 80C784.273 80.0667 784.007 80.1667 783.82 80.3C783.647 80.42 783.527 80.56 783.46 80.72C783.393 80.8667 783.36 81.0133 783.36 81.16C783.36 81.32 783.387 81.46 783.44 81.58C783.493 81.7 783.567 81.7933 783.66 81.86C783.753 81.9267 783.867 81.98 784 82.02C784.133 82.0467 784.273 82.06 784.42 82.06C784.74 82.06 785.013 82.0067 785.24 81.9C785.467 81.7933 785.653 81.62 785.8 81.38C785.96 81.1267 786.073 80.8067 786.14 80.42C786.22 80.0333 786.26 79.56 786.26 79C786.26 78.32 786.193 77.8 786.06 77.44C785.94 77.08 785.76 76.84 785.52 76.72C785.293 76.5867 785.013 76.52 784.68 76.52C784.267 76.52 783.887 76.58 783.54 76.7C783.193 76.8067 782.827 77.06 782.44 77.46L780.84 75.82C781.44 75.2733 782.08 74.8933 782.76 74.68C783.453 74.4667 784.127 74.36 784.78 74.36C785.353 74.36 785.893 74.4267 786.4 74.56C786.92 74.68 787.38 74.8867 787.78 75.18C788.193 75.4733 788.513 75.88 788.74 76.4C788.98 76.9067 789.1 77.5467 789.1 78.32V84H786.24V83.26C786.067 83.42 785.893 83.5667 785.72 83.7C785.56 83.82 785.38 83.92 785.18 84C784.993 84.08 784.787 84.14 784.56 84.18C784.333 84.22 784.073 84.24 783.78 84.24ZM790.86 84V74.58H793.72V75.66C793.933 75.4067 794.153 75.1867 794.38 75C794.607 74.8 794.86 74.6467 795.14 74.54C795.433 74.42 795.76 74.36 796.12 74.36C796.68 74.36 797.207 74.5 797.7 74.78C798.193 75.0467 798.593 75.4733 798.9 76.06C799.207 76.6333 799.36 77.3933 799.36 78.34V84H796.52V78.36C796.52 77.9333 796.48 77.58 796.4 77.3C796.32 77.0067 796.193 76.7867 796.02 76.64C795.847 76.4933 795.627 76.42 795.36 76.42C795.147 76.42 794.94 76.4667 794.74 76.56C794.54 76.64 794.36 76.76 794.2 76.92C794.053 77.08 793.933 77.2733 793.84 77.5C793.76 77.7267 793.72 77.98 793.72 78.26V84H790.86ZM802.5 87.54C802.047 87.54 801.647 87.46 801.3 87.3C800.953 87.14 800.587 86.9133 800.2 86.62L801.1 84.68L801.16 84.52L801.36 84.6C801.413 84.6933 801.467 84.7933 801.52 84.9C801.573 85.0067 801.687 85.1267 801.86 85.26C801.94 85.3133 802.027 85.3533 802.12 85.38C802.227 85.4067 802.333 85.42 802.44 85.42C802.653 85.42 802.84 85.3533 803 85.22C803.16 85.1 803.313 84.9067 803.46 84.64C803.607 84.3733 803.76 84.02 803.92 83.58L806.12 77.66C806.32 77.1133 806.473 76.6 806.58 76.12C806.687 75.6267 806.74 75.1133 806.74 74.58H809.28C809.267 75.18 809.133 75.8267 808.88 76.52C808.64 77.2 808.407 77.84 808.18 78.44L805.86 84.66C805.46 85.7267 804.987 86.4733 804.44 86.9C803.893 87.3267 803.247 87.54 802.5 87.54ZM800.42 74.58H803.2L805.78 81.34L804.24 84.18L800.42 74.58ZM815.98 84.24C815.487 84.24 815.033 84.16 814.62 84C814.207 83.8533 813.853 83.6 813.56 83.24C813.267 82.8667 813.047 82.36 812.9 81.72C812.753 81.08 812.7 80.2667 812.74 79.28L813.02 72.48L815.9 72.1L816.08 72.08L816.1 72.3C816.047 72.3933 815.993 72.4867 815.94 72.58C815.887 72.6733 815.853 72.8333 815.84 73.06L815.6 76.14H815.72L815.56 79.14C815.52 79.9 815.547 80.4933 815.64 80.92C815.747 81.3333 815.893 81.62 816.08 81.78C816.28 81.94 816.487 82.02 816.7 82.02C817.113 82.02 817.487 81.9333 817.82 81.76C818.167 81.5867 818.467 81.3933 818.72 81.18L819.2 83.16C818.747 83.4933 818.253 83.76 817.72 83.96C817.2 84.1467 816.62 84.24 815.98 84.24ZM811.02 74.58H818.58L818.54 76.78H810.98L811.02 74.58ZM820.86 70.5H823.7H823.88V70.72C823.813 70.8 823.767 70.8867 823.74 70.98C823.727 71.0733 823.72 71.2333 823.72 71.46V75.54C823.933 75.2467 824.18 75.02 824.46 74.86C824.74 74.6867 825.033 74.56 825.34 74.48C825.66 74.4 825.967 74.36 826.26 74.36C826.9 74.36 827.447 74.5 827.9 74.78C828.367 75.0467 828.727 75.4733 828.98 76.06C829.233 76.6467 829.36 77.4067 829.36 78.34V84H826.52V78.36C826.52 77.88 826.48 77.5 826.4 77.22C826.32 76.9267 826.2 76.72 826.04 76.6C825.893 76.48 825.7 76.42 825.46 76.42C825.233 76.42 825.027 76.4533 824.84 76.52C824.667 76.5867 824.507 76.68 824.36 76.8C824.227 76.92 824.107 77.0733 824 77.26C823.907 77.4333 823.833 77.6333 823.78 77.86C823.74 78.0867 823.72 78.3333 823.72 78.6V84H820.86V70.5ZM831.48 84V81.8H833.72V76.78H831.58V74.58H836.56V81.8H838.6V84H831.48ZM835 73.3C834.533 73.3 834.133 73.1467 833.8 72.84C833.48 72.52 833.32 72.1467 833.32 71.72C833.32 71.2533 833.473 70.8733 833.78 70.58C834.1 70.2867 834.507 70.14 835 70.14C835.44 70.14 835.827 70.3 836.16 70.62C836.507 70.9267 836.68 71.2933 836.68 71.72C836.68 72.1467 836.507 72.52 836.16 72.84C835.827 73.1467 835.44 73.3 835 73.3ZM840.86 84V74.58H843.72V75.66C843.933 75.4067 844.153 75.1867 844.38 75C844.607 74.8 844.86 74.6467 845.14 74.54C845.433 74.42 845.76 74.36 846.12 74.36C846.68 74.36 847.207 74.5 847.7 74.78C848.193 75.0467 848.593 75.4733 848.9 76.06C849.207 76.6333 849.36 77.3933 849.36 78.34V84H846.52V78.36C846.52 77.9333 846.48 77.58 846.4 77.3C846.32 77.0067 846.193 76.7867 846.02 76.64C845.847 76.4933 845.627 76.42 845.36 76.42C845.147 76.42 844.94 76.4667 844.74 76.56C844.54 76.64 844.36 76.76 844.2 76.92C844.053 77.08 843.933 77.2733 843.84 77.5C843.76 77.7267 843.72 77.98 843.72 78.26V84H840.86ZM854.66 87.66C853.993 87.66 853.393 87.5933 852.86 87.46C852.34 87.34 851.9 87.1667 851.54 86.94C851.18 86.7133 850.907 86.4467 850.72 86.14C850.533 85.8333 850.44 85.5067 850.44 85.16C850.44 84.8667 850.52 84.5867 850.68 84.32C850.84 84.0533 851.06 83.8133 851.34 83.6C851.62 83.3733 851.927 83.1933 852.26 83.06L853.56 83.52C853.413 83.64 853.247 83.76 853.06 83.88C852.887 83.9867 852.74 84.1 852.62 84.22C852.5 84.3533 852.44 84.5067 852.44 84.68C852.44 84.8267 852.507 84.9467 852.64 85.04C852.773 85.1467 852.953 85.2267 853.18 85.28C853.42 85.3467 853.687 85.3933 853.98 85.42C854.287 85.4467 854.613 85.46 854.96 85.46C855.4 85.46 855.78 85.4267 856.1 85.36C856.433 85.2933 856.687 85.1933 856.86 85.06C857.047 84.9267 857.14 84.7733 857.14 84.6C857.14 84.4533 857.087 84.34 856.98 84.26C856.873 84.18 856.7 84.12 856.46 84.08C856.22 84.0533 855.907 84.04 855.52 84.04C855.107 84.04 854.68 84.0267 854.24 84C853.813 83.96 853.4 83.8933 853 83.8C852.6 83.7067 852.233 83.58 851.9 83.42C851.58 83.26 851.327 83.06 851.14 82.82C850.953 82.5667 850.86 82.26 850.86 81.9C850.86 81.4067 851.013 81 851.32 80.68C851.627 80.3467 851.98 80.06 852.38 79.82L853.64 80.44C853.52 80.5467 853.4 80.6333 853.28 80.7C853.173 80.7533 853.08 80.8133 853 80.88C852.933 80.9333 852.9 81.0267 852.9 81.16C852.9 81.28 853.02 81.3867 853.26 81.48C853.5 81.5733 853.873 81.6467 854.38 81.7C854.887 81.74 855.54 81.76 856.34 81.76C856.86 81.76 857.307 81.8333 857.68 81.98C858.067 82.1133 858.38 82.3067 858.62 82.56C858.873 82.8 859.06 83.0733 859.18 83.38C859.3 83.6867 859.36 84.0133 859.36 84.36C859.36 84.7733 859.26 85.1733 859.06 85.56C858.873 85.96 858.58 86.3133 858.18 86.62C857.793 86.94 857.307 87.1933 856.72 87.38C856.133 87.5667 855.447 87.66 854.66 87.66ZM854.64 80.84C853.987 80.84 853.38 80.7 852.82 80.42C852.273 80.14 851.833 79.76 851.5 79.28C851.18 78.8 851.02 78.2533 851.02 77.64C851.02 77.0267 851.18 76.4733 851.5 75.98C851.833 75.4867 852.273 75.0933 852.82 74.8C853.38 74.5067 853.987 74.36 854.64 74.36C855.307 74.36 855.913 74.5067 856.46 74.8C857.007 75.0933 857.44 75.4867 857.76 75.98C858.093 76.4733 858.26 77.0267 858.26 77.64C858.26 78.2533 858.093 78.8 857.76 79.28C857.44 79.76 857.007 80.14 856.46 80.42C855.913 80.7 855.307 80.84 854.64 80.84ZM854.62 78.9C854.86 78.9 855.073 78.8533 855.26 78.76C855.447 78.6533 855.593 78.5067 855.7 78.32C855.82 78.12 855.88 77.8933 855.88 77.64C855.88 77.3867 855.82 77.1733 855.7 77C855.593 76.8267 855.44 76.6933 855.24 76.6C855.053 76.4933 854.847 76.44 854.62 76.44C854.433 76.44 854.247 76.4933 854.06 76.6C853.873 76.7067 853.713 76.8533 853.58 77.04C853.46 77.2133 853.4 77.4133 853.4 77.64C853.4 77.8667 853.453 78.08 853.56 78.28C853.68 78.4667 853.833 78.62 854.02 78.74C854.207 78.8467 854.407 78.9 854.62 78.9ZM857.68 76.44L856.62 75.1C856.993 74.86 857.44 74.6667 857.96 74.52C858.48 74.3733 859.013 74.32 859.56 74.36L859.8 76.16C859.427 76.0667 859.047 76.0533 858.66 76.12C858.273 76.1733 857.947 76.28 857.68 76.44ZM864.8 84.26C864.307 84.26 863.887 84.0933 863.54 83.76C863.207 83.4133 863.04 82.9933 863.04 82.5C863.04 82.02 863.207 81.6133 863.54 81.28C863.887 80.9333 864.307 80.76 864.8 80.76C865.28 80.76 865.687 80.9333 866.02 81.28C866.367 81.6133 866.54 82.02 866.54 82.5C866.54 82.9933 866.367 83.4133 866.02 83.76C865.687 84.0933 865.28 84.26 864.8 84.26Z" fill="white"/>
<rect x="620.5" y="229.5" width="13" height="23" rx="6.5" fill="white" stroke="black"/>
<rect x="665.5" y="229.5" width="13" height="23" rx="6.5" fill="white" stroke="black"/>
<rect x="623.5" y="234.5" width="8" height="14" rx="4" fill="black" stroke="black"/>
<rect x="668.5" y="234.5" width="8" height="14" rx="4" fill="black" stroke="black"/>
</g>
<defs>
<clipPath id="clip0_148_1179">
<rect width="1440" height="900" fill="white"/>
</clipPath>
</defs>
</svg>
