<svg width="102" height="44" viewBox="0 0 102 44" fill="none" xmlns="http://www.w3.org/2000/svg">
<path d="M47.5 37H1V1H101V37H54.5L51 43L47.5 37Z" fill="black" stroke="black"/>
<path d="M6.27 7.393H7.539H7.62V7.492C7.59 7.528 7.569 7.567 7.557 7.609C7.551 7.651 7.548 7.723 7.548 7.825V9.589H8.961V7.393H10.23H10.311V7.492C10.281 7.528 10.26 7.567 10.248 7.609C10.242 7.651 10.239 7.723 10.239 7.825V13H8.961V10.579H7.548V13H6.27V7.393ZM11.166 13V12.01H12.174V9.751H11.211V8.761H13.452V12.01H14.37V13H11.166ZM12.75 8.185C12.54 8.185 12.36 8.116 12.21 7.978C12.066 7.834 11.994 7.666 11.994 7.474C11.994 7.264 12.063 7.093 12.201 6.961C12.345 6.829 12.528 6.763 12.75 6.763C12.948 6.763 13.122 6.835 13.272 6.979C13.428 7.117 13.506 7.282 13.506 7.474C13.506 7.666 13.428 7.834 13.272 7.978C13.122 8.116 12.948 8.185 12.75 8.185ZM17.691 13.108C17.469 13.108 17.265 13.072 17.079 13C16.893 12.934 16.734 12.82 16.602 12.658C16.47 12.49 16.371 12.262 16.305 11.974C16.239 11.686 16.215 11.32 16.233 10.876L16.359 7.816L17.655 7.645L17.736 7.636L17.745 7.735C17.721 7.777 17.697 7.819 17.673 7.861C17.649 7.903 17.634 7.975 17.628 8.077L17.52 9.463H17.574L17.502 10.813C17.484 11.155 17.496 11.422 17.538 11.614C17.586 11.8 17.652 11.929 17.736 12.001C17.826 12.073 17.919 12.109 18.015 12.109C18.201 12.109 18.369 12.07 18.519 11.992C18.675 11.914 18.81 11.827 18.924 11.731L19.14 12.622C18.936 12.772 18.714 12.892 18.474 12.982C18.24 13.066 17.979 13.108 17.691 13.108ZM15.459 8.761H18.861L18.843 9.751H15.441L15.459 8.761ZM24.234 13V7.393H25.386L26.277 9.85L27.159 7.384H28.32V13H27.249V9.292L26.592 11.227H25.926L25.296 9.292V13H24.234ZM30.93 13.108C30.63 13.108 30.348 13.06 30.084 12.964C29.826 12.862 29.598 12.718 29.4 12.532C29.208 12.346 29.058 12.118 28.95 11.848C28.842 11.572 28.788 11.263 28.788 10.921C28.788 10.573 28.839 10.261 28.941 9.985C29.049 9.703 29.193 9.466 29.373 9.274C29.559 9.076 29.775 8.926 30.021 8.824C30.267 8.716 30.534 8.662 30.822 8.662C31.068 8.662 31.302 8.707 31.524 8.797C31.752 8.887 31.953 9.022 32.127 9.202C32.301 9.376 32.439 9.595 32.541 9.859C32.643 10.117 32.694 10.414 32.694 10.75C32.694 10.822 32.694 10.912 32.694 11.02C32.694 11.128 32.691 11.215 32.685 11.281H30.012C30.024 11.431 30.06 11.56 30.12 11.668C30.18 11.77 30.255 11.857 30.345 11.929C30.441 11.995 30.543 12.046 30.651 12.082C30.765 12.112 30.879 12.127 30.993 12.127C31.113 12.127 31.227 12.118 31.335 12.1C31.443 12.082 31.548 12.049 31.65 12.001C31.752 11.947 31.851 11.872 31.947 11.776L32.577 12.388C32.433 12.556 32.274 12.694 32.1 12.802C31.926 12.91 31.74 12.988 31.542 13.036C31.344 13.084 31.14 13.108 30.93 13.108ZM30.021 10.345H31.488C31.488 10.225 31.473 10.123 31.443 10.039C31.413 9.949 31.368 9.877 31.308 9.823C31.248 9.763 31.173 9.721 31.083 9.697C30.993 9.667 30.891 9.652 30.777 9.652C30.675 9.652 30.579 9.667 30.489 9.697C30.405 9.721 30.33 9.763 30.264 9.823C30.198 9.877 30.144 9.949 30.102 10.039C30.06 10.123 30.033 10.225 30.021 10.345ZM37.77 7.393H39.039H39.12V7.492C39.09 7.528 39.069 7.567 39.057 7.609C39.051 7.651 39.048 7.723 39.048 7.825V9.589H40.461V7.393H41.73H41.811V7.492C41.781 7.528 41.76 7.567 41.748 7.609C41.742 7.651 41.739 7.723 41.739 7.825V13H40.461V10.579H39.048V13H37.77V7.393ZM43.701 13.108C43.245 13.108 42.888 13 42.63 12.784C42.372 12.562 42.243 12.271 42.243 11.911C42.243 11.683 42.291 11.473 42.387 11.281C42.483 11.083 42.633 10.912 42.837 10.768C43.041 10.618 43.302 10.501 43.62 10.417C43.938 10.333 44.319 10.291 44.763 10.291C44.781 10.291 44.814 10.291 44.862 10.291C44.91 10.291 44.964 10.291 45.024 10.291C45.084 10.291 45.135 10.291 45.177 10.291L45.213 11.137C45.177 11.137 45.126 11.137 45.06 11.137C44.994 11.137 44.925 11.14 44.853 11.146C44.787 11.146 44.736 11.146 44.7 11.146C44.442 11.146 44.235 11.164 44.079 11.2C43.923 11.23 43.803 11.275 43.719 11.335C43.641 11.389 43.587 11.452 43.557 11.524C43.527 11.59 43.512 11.656 43.512 11.722C43.512 11.794 43.524 11.857 43.548 11.911C43.572 11.965 43.605 12.007 43.647 12.037C43.689 12.067 43.74 12.091 43.8 12.109C43.86 12.121 43.923 12.127 43.989 12.127C44.133 12.127 44.256 12.103 44.358 12.055C44.46 12.007 44.544 11.929 44.61 11.821C44.682 11.707 44.733 11.563 44.763 11.389C44.799 11.215 44.817 11.002 44.817 10.75C44.817 10.444 44.787 10.21 44.727 10.048C44.673 9.886 44.592 9.778 44.484 9.724C44.382 9.664 44.256 9.634 44.106 9.634C43.92 9.634 43.749 9.661 43.593 9.715C43.437 9.763 43.272 9.877 43.098 10.057L42.378 9.319C42.648 9.073 42.936 8.902 43.242 8.806C43.554 8.71 43.857 8.662 44.151 8.662C44.409 8.662 44.652 8.692 44.88 8.752C45.114 8.806 45.321 8.899 45.501 9.031C45.687 9.163 45.831 9.346 45.933 9.58C46.041 9.808 46.095 10.096 46.095 10.444V13H44.808V12.667C44.73 12.739 44.652 12.805 44.574 12.865C44.502 12.919 44.421 12.964 44.331 13C44.247 13.036 44.154 13.063 44.052 13.081C43.95 13.099 43.833 13.108 43.701 13.108ZM47.121 8.761H48.426V9.922L48.282 9.886C48.3 9.706 48.345 9.544 48.417 9.4C48.495 9.25 48.594 9.121 48.714 9.013C48.834 8.899 48.966 8.812 49.11 8.752C49.26 8.692 49.413 8.662 49.569 8.662C49.815 8.662 50.034 8.701 50.226 8.779C50.418 8.857 50.598 8.983 50.766 9.157L50.244 10.246L50.217 10.318L50.127 10.282C50.103 10.234 50.085 10.183 50.073 10.129C50.061 10.069 50.022 10.003 49.956 9.931C49.878 9.865 49.788 9.811 49.686 9.769C49.59 9.721 49.482 9.697 49.362 9.697C49.224 9.697 49.095 9.718 48.975 9.76C48.861 9.802 48.762 9.868 48.678 9.958C48.594 10.048 48.528 10.162 48.48 10.3C48.432 10.438 48.408 10.603 48.408 10.795V13H47.121V8.761ZM52.98 13.108C52.734 13.108 52.503 13.063 52.287 12.973C52.077 12.877 51.891 12.736 51.729 12.55C51.573 12.364 51.45 12.133 51.36 11.857C51.27 11.575 51.225 11.248 51.225 10.876C51.225 10.522 51.264 10.207 51.342 9.931C51.426 9.655 51.543 9.424 51.693 9.238C51.849 9.046 52.035 8.902 52.251 8.806C52.467 8.71 52.707 8.662 52.971 8.662C53.079 8.662 53.187 8.671 53.295 8.689C53.409 8.707 53.514 8.74 53.61 8.788C53.706 8.836 53.787 8.911 53.853 9.013V6.925H55.131H55.212V7.024C55.182 7.06 55.161 7.099 55.149 7.141C55.137 7.183 55.134 7.255 55.14 7.357L55.122 12.496C55.122 12.58 55.128 12.664 55.14 12.748C55.152 12.832 55.179 12.916 55.221 13H53.979C53.949 12.94 53.928 12.898 53.916 12.874C53.904 12.85 53.898 12.823 53.898 12.793C53.898 12.763 53.898 12.721 53.898 12.667C53.826 12.775 53.742 12.862 53.646 12.928C53.55 12.994 53.445 13.039 53.331 13.063C53.217 13.093 53.1 13.108 52.98 13.108ZM53.205 12.118C53.307 12.118 53.397 12.097 53.475 12.055C53.559 12.013 53.628 11.947 53.682 11.857C53.742 11.761 53.787 11.632 53.817 11.47C53.847 11.308 53.862 11.11 53.862 10.876C53.862 10.564 53.838 10.318 53.79 10.138C53.742 9.952 53.667 9.82 53.565 9.742C53.469 9.664 53.346 9.625 53.196 9.625C53.082 9.625 52.977 9.655 52.881 9.715C52.791 9.775 52.716 9.862 52.656 9.976C52.596 10.084 52.548 10.219 52.512 10.381C52.482 10.537 52.467 10.714 52.467 10.912C52.467 11.17 52.506 11.389 52.584 11.569C52.662 11.749 52.758 11.887 52.872 11.983C52.986 12.073 53.097 12.118 53.205 12.118ZM61.701 13.108C61.245 13.108 60.888 13 60.63 12.784C60.372 12.562 60.243 12.271 60.243 11.911C60.243 11.683 60.291 11.473 60.387 11.281C60.483 11.083 60.633 10.912 60.837 10.768C61.041 10.618 61.302 10.501 61.62 10.417C61.938 10.333 62.319 10.291 62.763 10.291C62.781 10.291 62.814 10.291 62.862 10.291C62.91 10.291 62.964 10.291 63.024 10.291C63.084 10.291 63.135 10.291 63.177 10.291L63.213 11.137C63.177 11.137 63.126 11.137 63.06 11.137C62.994 11.137 62.925 11.14 62.853 11.146C62.787 11.146 62.736 11.146 62.7 11.146C62.442 11.146 62.235 11.164 62.079 11.2C61.923 11.23 61.803 11.275 61.719 11.335C61.641 11.389 61.587 11.452 61.557 11.524C61.527 11.59 61.512 11.656 61.512 11.722C61.512 11.794 61.524 11.857 61.548 11.911C61.572 11.965 61.605 12.007 61.647 12.037C61.689 12.067 61.74 12.091 61.8 12.109C61.86 12.121 61.923 12.127 61.989 12.127C62.133 12.127 62.256 12.103 62.358 12.055C62.46 12.007 62.544 11.929 62.61 11.821C62.682 11.707 62.733 11.563 62.763 11.389C62.799 11.215 62.817 11.002 62.817 10.75C62.817 10.444 62.787 10.21 62.727 10.048C62.673 9.886 62.592 9.778 62.484 9.724C62.382 9.664 62.256 9.634 62.106 9.634C61.92 9.634 61.749 9.661 61.593 9.715C61.437 9.763 61.272 9.877 61.098 10.057L60.378 9.319C60.648 9.073 60.936 8.902 61.242 8.806C61.554 8.71 61.857 8.662 62.151 8.662C62.409 8.662 62.652 8.692 62.88 8.752C63.114 8.806 63.321 8.899 63.501 9.031C63.687 9.163 63.831 9.346 63.933 9.58C64.041 9.808 64.095 10.096 64.095 10.444V13H62.808V12.667C62.73 12.739 62.652 12.805 62.574 12.865C62.502 12.919 62.421 12.964 62.331 13C62.247 13.036 62.154 13.063 62.052 13.081C61.95 13.099 61.833 13.108 61.701 13.108ZM64.887 13V8.761H66.174V9.247C66.27 9.133 66.369 9.034 66.471 8.95C66.573 8.86 66.687 8.791 66.813 8.743C66.945 8.689 67.092 8.662 67.254 8.662C67.506 8.662 67.743 8.725 67.965 8.851C68.187 8.971 68.367 9.163 68.505 9.427C68.643 9.685 68.712 10.027 68.712 10.453V13H67.434V10.462C67.434 10.27 67.416 10.111 67.38 9.985C67.344 9.853 67.287 9.754 67.209 9.688C67.131 9.622 67.032 9.589 66.912 9.589C66.816 9.589 66.723 9.61 66.633 9.652C66.543 9.688 66.462 9.742 66.39 9.814C66.324 9.886 66.27 9.973 66.228 10.075C66.192 10.177 66.174 10.291 66.174 10.417V13H64.887ZM70.98 13.108C70.734 13.108 70.503 13.063 70.287 12.973C70.077 12.877 69.891 12.736 69.729 12.55C69.573 12.364 69.45 12.133 69.36 11.857C69.27 11.575 69.225 11.248 69.225 10.876C69.225 10.522 69.264 10.207 69.342 9.931C69.426 9.655 69.543 9.424 69.693 9.238C69.849 9.046 70.035 8.902 70.251 8.806C70.467 8.71 70.707 8.662 70.971 8.662C71.079 8.662 71.187 8.671 71.295 8.689C71.409 8.707 71.514 8.74 71.61 8.788C71.706 8.836 71.787 8.911 71.853 9.013V6.925H73.131H73.212V7.024C73.182 7.06 73.161 7.099 73.149 7.141C73.137 7.183 73.134 7.255 73.14 7.357L73.122 12.496C73.122 12.58 73.128 12.664 73.14 12.748C73.152 12.832 73.179 12.916 73.221 13H71.979C71.949 12.94 71.928 12.898 71.916 12.874C71.904 12.85 71.898 12.823 71.898 12.793C71.898 12.763 71.898 12.721 71.898 12.667C71.826 12.775 71.742 12.862 71.646 12.928C71.55 12.994 71.445 13.039 71.331 13.063C71.217 13.093 71.1 13.108 70.98 13.108ZM71.205 12.118C71.307 12.118 71.397 12.097 71.475 12.055C71.559 12.013 71.628 11.947 71.682 11.857C71.742 11.761 71.787 11.632 71.817 11.47C71.847 11.308 71.862 11.11 71.862 10.876C71.862 10.564 71.838 10.318 71.79 10.138C71.742 9.952 71.667 9.82 71.565 9.742C71.469 9.664 71.346 9.625 71.196 9.625C71.082 9.625 70.977 9.655 70.881 9.715C70.791 9.775 70.716 9.862 70.656 9.976C70.596 10.084 70.548 10.219 70.512 10.381C70.482 10.537 70.467 10.714 70.467 10.912C70.467 11.17 70.506 11.389 70.584 11.569C70.662 11.749 70.758 11.887 70.872 11.983C70.986 12.073 71.097 12.118 71.205 12.118ZM80.151 13.108C79.773 13.108 79.407 13.057 79.053 12.955C78.705 12.847 78.423 12.682 78.207 12.46L78.819 11.443L78.864 11.371L78.954 11.425C78.966 11.467 78.981 11.512 78.999 11.56C79.023 11.602 79.074 11.656 79.152 11.722C79.296 11.818 79.452 11.899 79.62 11.965C79.788 12.031 79.962 12.067 80.142 12.073C80.268 12.073 80.379 12.064 80.475 12.046C80.577 12.028 80.664 11.998 80.736 11.956C80.808 11.914 80.862 11.857 80.898 11.785C80.94 11.707 80.961 11.614 80.961 11.506C80.961 11.452 80.952 11.398 80.934 11.344C80.922 11.284 80.898 11.227 80.862 11.173C80.826 11.113 80.769 11.053 80.691 10.993C80.619 10.933 80.526 10.867 80.412 10.795C80.298 10.723 80.154 10.648 79.98 10.57C79.596 10.384 79.29 10.207 79.062 10.039C78.84 9.871 78.678 9.688 78.576 9.49C78.48 9.286 78.432 9.043 78.432 8.761C78.432 8.485 78.513 8.236 78.675 8.014C78.843 7.792 79.068 7.615 79.35 7.483C79.632 7.351 79.941 7.285 80.277 7.285C80.535 7.285 80.769 7.312 80.979 7.366C81.195 7.42 81.393 7.501 81.573 7.609C81.759 7.717 81.93 7.855 82.086 8.023L81.321 8.851L81.267 8.914L81.186 8.842C81.18 8.794 81.171 8.749 81.159 8.707C81.147 8.659 81.108 8.599 81.042 8.527C80.946 8.443 80.844 8.389 80.736 8.365C80.628 8.335 80.502 8.32 80.358 8.32C80.256 8.32 80.163 8.332 80.079 8.356C79.995 8.374 79.923 8.404 79.863 8.446C79.803 8.482 79.755 8.524 79.719 8.572C79.689 8.62 79.674 8.671 79.674 8.725C79.674 8.779 79.68 8.83 79.692 8.878C79.704 8.92 79.728 8.965 79.764 9.013C79.8 9.061 79.854 9.112 79.926 9.166C80.004 9.22 80.103 9.283 80.223 9.355C80.349 9.421 80.505 9.499 80.691 9.589C80.979 9.733 81.222 9.871 81.42 10.003C81.618 10.135 81.774 10.273 81.888 10.417C82.008 10.555 82.092 10.708 82.14 10.876C82.194 11.044 82.221 11.236 82.221 11.452C82.221 11.734 82.149 12.001 82.005 12.253C81.861 12.505 81.636 12.712 81.33 12.874C81.024 13.03 80.631 13.108 80.151 13.108ZM84.741 13.108C84.363 13.108 84.018 13.018 83.706 12.838C83.394 12.652 83.145 12.391 82.959 12.055C82.773 11.719 82.68 11.329 82.68 10.885C82.68 10.471 82.773 10.096 82.959 9.76C83.145 9.424 83.394 9.157 83.706 8.959C84.018 8.761 84.363 8.662 84.741 8.662C85.119 8.662 85.464 8.761 85.776 8.959C86.094 9.157 86.346 9.424 86.532 9.76C86.724 10.096 86.82 10.471 86.82 10.885C86.82 11.323 86.724 11.71 86.532 12.046C86.346 12.382 86.094 12.643 85.776 12.829C85.464 13.015 85.119 13.108 84.741 13.108ZM84.741 12.109C84.903 12.109 85.044 12.058 85.164 11.956C85.29 11.854 85.389 11.713 85.461 11.533C85.533 11.347 85.569 11.131 85.569 10.885C85.569 10.621 85.533 10.399 85.461 10.219C85.389 10.039 85.29 9.901 85.164 9.805C85.044 9.709 84.903 9.661 84.741 9.661C84.591 9.661 84.453 9.709 84.327 9.805C84.207 9.901 84.111 10.039 84.039 10.219C83.967 10.399 83.931 10.621 83.931 10.885C83.931 11.131 83.964 11.347 84.03 11.533C84.102 11.713 84.198 11.854 84.318 11.956C84.444 12.058 84.585 12.109 84.741 12.109ZM88.107 9.751H87.198V8.761H88.107V8.572C88.107 8.182 88.197 7.861 88.377 7.609C88.563 7.357 88.8 7.168 89.088 7.042C89.376 6.916 89.676 6.853 89.988 6.853C90.288 6.853 90.564 6.904 90.816 7.006C91.068 7.108 91.287 7.252 91.473 7.438L91.059 8.275L91.023 8.347L90.942 8.302C90.918 8.26 90.894 8.218 90.87 8.176C90.852 8.128 90.801 8.074 90.717 8.014C90.609 7.948 90.504 7.903 90.402 7.879C90.3 7.849 90.189 7.834 90.069 7.834C89.919 7.834 89.79 7.864 89.682 7.924C89.58 7.984 89.502 8.068 89.448 8.176C89.4 8.284 89.376 8.413 89.376 8.563V8.761H90.582V9.751H89.376V13H88.107V9.751ZM94.191 13.108C93.969 13.108 93.765 13.072 93.579 13C93.393 12.934 93.234 12.82 93.102 12.658C92.97 12.49 92.871 12.262 92.805 11.974C92.739 11.686 92.715 11.32 92.733 10.876L92.859 7.816L94.155 7.645L94.236 7.636L94.245 7.735C94.221 7.777 94.197 7.819 94.173 7.861C94.149 7.903 94.134 7.975 94.128 8.077L94.02 9.463H94.074L94.002 10.813C93.984 11.155 93.996 11.422 94.038 11.614C94.086 11.8 94.152 11.929 94.236 12.001C94.326 12.073 94.419 12.109 94.515 12.109C94.701 12.109 94.869 12.07 95.019 11.992C95.175 11.914 95.31 11.827 95.424 11.731L95.64 12.622C95.436 12.772 95.214 12.892 94.974 12.982C94.74 13.066 94.479 13.108 94.191 13.108ZM91.959 8.761H95.361L95.343 9.751H91.941L91.959 8.761Z" fill="white"/>
<path d="M25.328 29V24.016H26.816C27.1093 24.016 27.3627 24.0453 27.576 24.104C27.7947 24.1627 27.9733 24.248 28.112 24.36C28.256 24.472 28.3627 24.6053 28.432 24.76C28.5013 24.9093 28.536 25.0747 28.536 25.256C28.536 25.4 28.5067 25.5467 28.448 25.696C28.3947 25.84 28.3147 25.9707 28.208 26.088C28.1067 26.2 27.976 26.2853 27.816 26.344C27.9547 26.3973 28.08 26.4667 28.192 26.552C28.304 26.6373 28.4 26.736 28.48 26.848C28.56 26.9547 28.6213 27.0693 28.664 27.192C28.712 27.3147 28.736 27.4427 28.736 27.576C28.736 27.7893 28.696 27.984 28.616 28.16C28.536 28.336 28.416 28.488 28.256 28.616C28.096 28.7387 27.896 28.8347 27.656 28.904C27.416 28.968 27.1333 29 26.808 29H25.328ZM26.112 28.336H26.896C27.104 28.336 27.2827 28.3093 27.432 28.256C27.5813 28.1973 27.696 28.1093 27.776 27.992C27.8613 27.8747 27.904 27.7253 27.904 27.544C27.904 27.3733 27.8667 27.224 27.792 27.096C27.7227 26.9627 27.6053 26.8587 27.44 26.784C27.2747 26.7093 27.0507 26.672 26.768 26.672H26.112V28.336ZM26.112 26.032H26.736C26.992 26.032 27.192 26.0027 27.336 25.944C27.4853 25.8853 27.5893 25.8027 27.648 25.696C27.712 25.5893 27.744 25.4693 27.744 25.336C27.744 25.2347 27.7253 25.144 27.688 25.064C27.656 24.984 27.6027 24.9147 27.528 24.856C27.4533 24.792 27.3573 24.744 27.24 24.712C27.1227 24.68 26.984 24.664 26.824 24.664H26.112V26.032ZM29.72 29V28.368H30.64V25.928H29.76V25.296H31.44V28.368H32.28V29H29.72ZM30.992 24.632C30.848 24.632 30.7253 24.584 30.624 24.488C30.528 24.3867 30.48 24.2693 30.48 24.136C30.48 23.992 30.528 23.872 30.624 23.776C30.72 23.68 30.8427 23.632 30.992 23.632C31.1307 23.632 31.2507 23.6827 31.352 23.784C31.4587 23.8853 31.512 24.0027 31.512 24.136C31.512 24.2693 31.4587 24.3867 31.352 24.488C31.2507 24.584 31.1307 24.632 30.992 24.632ZM33.544 29V28.368H34.6V24.28H33.592V23.648H35.408V28.368H36.456V29H33.544ZM37.544 29V28.368H38.6V24.28H37.592V23.648H39.408V28.368H40.456V29H37.544ZM41.72 29V28.368H42.64V25.928H41.76V25.296H43.44V28.368H44.28V29H41.72ZM42.992 24.632C42.848 24.632 42.7253 24.584 42.624 24.488C42.528 24.3867 42.48 24.2693 42.48 24.136C42.48 23.992 42.528 23.872 42.624 23.776C42.72 23.68 42.8427 23.632 42.992 23.632C43.1307 23.632 43.2507 23.6827 43.352 23.784C43.4587 23.8853 43.512 24.0027 43.512 24.136C43.512 24.2693 43.4587 24.3867 43.352 24.488C43.2507 24.584 43.1307 24.632 42.992 24.632ZM47.168 29.088C46.9013 29.088 46.656 29.0453 46.432 28.96C46.208 28.8747 46.0133 28.752 45.848 28.592C45.688 28.4267 45.5627 28.224 45.472 27.984C45.3813 27.744 45.336 27.472 45.336 27.168C45.336 26.8587 45.3813 26.584 45.472 26.344C45.5627 26.0987 45.6853 25.8933 45.84 25.728C46 25.5627 46.184 25.4347 46.392 25.344C46.6053 25.2533 46.832 25.208 47.072 25.208C47.28 25.208 47.4773 25.2453 47.664 25.32C47.856 25.3947 48.0213 25.5067 48.16 25.656C48.304 25.8 48.416 25.984 48.496 26.208C48.5813 26.432 48.624 26.6933 48.624 26.992C48.624 27.0453 48.624 27.1067 48.624 27.176C48.624 27.24 48.6213 27.296 48.616 27.344H46.104C46.1147 27.536 46.152 27.704 46.216 27.848C46.28 27.9867 46.36 28.1013 46.456 28.192C46.5573 28.2827 46.672 28.3493 46.8 28.392C46.928 28.4347 47.0613 28.456 47.2 28.456C47.3227 28.456 47.4347 28.4453 47.536 28.424C47.6427 28.3973 47.744 28.3573 47.84 28.304C47.936 28.2507 48.024 28.1787 48.104 28.088L48.52 28.496C48.408 28.6293 48.2827 28.7413 48.144 28.832C48.0053 28.9173 47.8533 28.9813 47.688 29.024C47.528 29.0667 47.3547 29.088 47.168 29.088ZM46.12 26.744H47.848C47.848 26.5947 47.8293 26.464 47.792 26.352C47.7547 26.24 47.6987 26.144 47.624 26.064C47.5547 25.984 47.4693 25.9253 47.368 25.888C47.2667 25.8453 47.1547 25.824 47.032 25.824C46.9147 25.824 46.8053 25.8427 46.704 25.88C46.608 25.9173 46.52 25.9733 46.44 26.048C46.36 26.1227 46.2907 26.2187 46.232 26.336C46.1787 26.448 46.1413 26.584 46.12 26.744ZM53.432 29V24.008H56.608V24.664H54.192V26.072H56.184V26.736H54.192V28.344H56.592V29H53.432ZM57.72 29V28.368H58.64V25.928H57.76V25.296H59.44V28.368H60.28V29H57.72ZM58.992 24.632C58.848 24.632 58.7253 24.584 58.624 24.488C58.528 24.3867 58.48 24.2693 58.48 24.136C58.48 23.992 58.528 23.872 58.624 23.776C58.72 23.68 58.8427 23.632 58.992 23.632C59.1307 23.632 59.2507 23.6827 59.352 23.784C59.4587 23.8853 59.512 24.0027 59.512 24.136C59.512 24.2693 59.4587 24.3867 59.352 24.488C59.2507 24.584 59.1307 24.632 58.992 24.632ZM61.544 29V28.368H62.6V24.28H61.592V23.648H63.408V28.368H64.456V29H61.544ZM65.72 29V28.368H66.64V25.928H65.76V25.296H67.44V28.368H68.28V29H65.72ZM66.992 24.632C66.848 24.632 66.7253 24.584 66.624 24.488C66.528 24.3867 66.48 24.2693 66.48 24.136C66.48 23.992 66.528 23.872 66.624 23.776C66.72 23.68 66.8427 23.632 66.992 23.632C67.1307 23.632 67.2507 23.6827 67.352 23.784C67.4587 23.8853 67.512 24.0027 67.512 24.136C67.512 24.2693 67.4587 24.3867 67.352 24.488C67.2507 24.584 67.1307 24.632 66.992 24.632ZM71.056 29.088C70.832 29.088 70.6213 29.0667 70.424 29.024C70.2267 28.9813 70.04 28.9173 69.864 28.832C69.6933 28.7467 69.536 28.6373 69.392 28.504L69.76 27.832L69.808 27.76L69.864 27.792C69.8747 27.8347 69.888 27.88 69.904 27.928C69.92 27.9707 69.9573 28.024 70.016 28.088C70.144 28.2 70.2907 28.2907 70.456 28.36C70.6213 28.424 70.824 28.456 71.064 28.456C71.2293 28.456 71.368 28.4373 71.48 28.4C71.5973 28.3573 71.688 28.3013 71.752 28.232C71.816 28.1573 71.848 28.0747 71.848 27.984C71.848 27.9147 71.8293 27.856 71.792 27.808C71.76 27.7547 71.7093 27.7067 71.64 27.664C71.5707 27.616 71.48 27.5707 71.368 27.528C71.256 27.48 71.12 27.4347 70.96 27.392C70.688 27.312 70.4507 27.2213 70.248 27.12C70.0453 27.0133 69.888 26.888 69.776 26.744C69.664 26.6 69.608 26.4293 69.608 26.232C69.608 26.0347 69.664 25.8613 69.776 25.712C69.8933 25.5573 70.0587 25.4347 70.272 25.344C70.4853 25.2533 70.7387 25.208 71.032 25.208C71.192 25.208 71.3413 25.2213 71.48 25.248C71.624 25.2693 71.7547 25.304 71.872 25.352C71.9947 25.4 72.1093 25.4613 72.216 25.536C72.3227 25.6053 72.424 25.688 72.52 25.784L72.112 26.328L72.064 26.392L72.008 26.344C72.0027 26.3013 71.9893 26.2613 71.968 26.224C71.952 26.1867 71.9147 26.1387 71.856 26.08C71.7387 25.9947 71.6107 25.9307 71.472 25.888C71.3333 25.8453 71.192 25.824 71.048 25.824C70.8613 25.824 70.696 25.856 70.552 25.92C70.4133 25.984 70.344 26.08 70.344 26.208C70.344 26.2827 70.3733 26.352 70.432 26.416C70.496 26.48 70.5973 26.544 70.736 26.608C70.8747 26.6667 71.064 26.728 71.304 26.792C71.608 26.872 71.8533 26.9653 72.04 27.072C72.2267 27.1733 72.3627 27.2933 72.448 27.432C72.5387 27.5707 72.584 27.7333 72.584 27.92C72.584 28.128 72.5253 28.3227 72.408 28.504C72.296 28.68 72.1253 28.8213 71.896 28.928C71.6667 29.0347 71.3867 29.088 71.056 29.088ZM73.488 23.648H74.272H74.352V23.72C74.32 23.752 74.2987 23.7867 74.288 23.824C74.2827 23.8613 74.28 23.9253 74.28 24.016V25.84C74.3707 25.7067 74.4773 25.5947 74.6 25.504C74.728 25.408 74.8587 25.336 74.992 25.288C75.1307 25.2347 75.2693 25.208 75.408 25.208C75.6427 25.208 75.8453 25.2613 76.016 25.368C76.192 25.4747 76.328 25.6427 76.424 25.872C76.52 26.096 76.568 26.3947 76.568 26.768V29H75.784V26.776C75.784 26.5467 75.76 26.3653 75.712 26.232C75.664 26.0933 75.5973 25.9947 75.512 25.936C75.4267 25.872 75.3253 25.84 75.208 25.84C75.112 25.84 75.0187 25.856 74.928 25.888C74.8427 25.92 74.76 25.9653 74.68 26.024C74.6 26.0773 74.5307 26.1467 74.472 26.232C74.4133 26.3173 74.3653 26.4133 74.328 26.52C74.296 26.6267 74.28 26.744 74.28 26.872V29H73.488V23.648Z" fill="white"/>
</svg>
