<svg width="102" height="44" viewBox="0 0 102 44" fill="none" xmlns="http://www.w3.org/2000/svg">
<path d="M47.5 37H1V1H101V37H54.5L51 43L47.5 37Z" fill="black" stroke="black"/>
<path d="M14.357 11.911H12.062L12.215 11.029H14.177L14.357 11.911ZM13.259 9.571L12.35 13H11.09L12.872 7.393H13.637L15.419 13H14.141L13.259 9.571ZM20.234 13V7.393H21.386L22.277 9.85L23.159 7.384H24.32V13H23.249V9.292L22.592 11.227H21.926L21.296 9.292V13H20.234ZM26.741 13.108C26.363 13.108 26.018 13.018 25.706 12.838C25.394 12.652 25.145 12.391 24.959 12.055C24.773 11.719 24.68 11.329 24.68 10.885C24.68 10.471 24.773 10.096 24.959 9.76C25.145 9.424 25.394 9.157 25.706 8.959C26.018 8.761 26.363 8.662 26.741 8.662C27.119 8.662 27.464 8.761 27.776 8.959C28.094 9.157 28.346 9.424 28.532 9.76C28.724 10.096 28.82 10.471 28.82 10.885C28.82 11.323 28.724 11.71 28.532 12.046C28.346 12.382 28.094 12.643 27.776 12.829C27.464 13.015 27.119 13.108 26.741 13.108ZM26.741 12.109C26.903 12.109 27.044 12.058 27.164 11.956C27.29 11.854 27.389 11.713 27.461 11.533C27.533 11.347 27.569 11.131 27.569 10.885C27.569 10.621 27.533 10.399 27.461 10.219C27.389 10.039 27.29 9.901 27.164 9.805C27.044 9.709 26.903 9.661 26.741 9.661C26.591 9.661 26.453 9.709 26.327 9.805C26.207 9.901 26.111 10.039 26.039 10.219C25.967 10.399 25.931 10.621 25.931 10.885C25.931 11.131 25.964 11.347 26.03 11.533C26.102 11.713 26.198 11.854 26.318 11.956C26.444 12.058 26.585 12.109 26.741 12.109ZM31.241 13.108C30.863 13.108 30.518 13.018 30.206 12.838C29.894 12.652 29.645 12.391 29.459 12.055C29.273 11.719 29.18 11.329 29.18 10.885C29.18 10.471 29.273 10.096 29.459 9.76C29.645 9.424 29.894 9.157 30.206 8.959C30.518 8.761 30.863 8.662 31.241 8.662C31.619 8.662 31.964 8.761 32.276 8.959C32.594 9.157 32.846 9.424 33.032 9.76C33.224 10.096 33.32 10.471 33.32 10.885C33.32 11.323 33.224 11.71 33.032 12.046C32.846 12.382 32.594 12.643 32.276 12.829C31.964 13.015 31.619 13.108 31.241 13.108ZM31.241 12.109C31.403 12.109 31.544 12.058 31.664 11.956C31.79 11.854 31.889 11.713 31.961 11.533C32.033 11.347 32.069 11.131 32.069 10.885C32.069 10.621 32.033 10.399 31.961 10.219C31.889 10.039 31.79 9.901 31.664 9.805C31.544 9.709 31.403 9.661 31.241 9.661C31.091 9.661 30.953 9.709 30.827 9.805C30.707 9.901 30.611 10.039 30.539 10.219C30.467 10.399 30.431 10.621 30.431 10.885C30.431 11.131 30.464 11.347 30.53 11.533C30.602 11.713 30.698 11.854 30.818 11.956C30.944 12.058 31.085 12.109 31.241 12.109ZM33.887 13V8.761H35.174V9.247C35.27 9.133 35.369 9.034 35.471 8.95C35.573 8.86 35.687 8.791 35.813 8.743C35.945 8.689 36.092 8.662 36.254 8.662C36.506 8.662 36.743 8.725 36.965 8.851C37.187 8.971 37.367 9.163 37.505 9.427C37.643 9.685 37.712 10.027 37.712 10.453V13H36.434V10.462C36.434 10.27 36.416 10.111 36.38 9.985C36.344 9.853 36.287 9.754 36.209 9.688C36.131 9.622 36.032 9.589 35.912 9.589C35.816 9.589 35.723 9.61 35.633 9.652C35.543 9.688 35.462 9.742 35.39 9.814C35.324 9.886 35.27 9.973 35.228 10.075C35.192 10.177 35.174 10.291 35.174 10.417V13H33.887ZM44.651 13.108C44.273 13.108 43.907 13.057 43.553 12.955C43.205 12.847 42.923 12.682 42.707 12.46L43.319 11.443L43.364 11.371L43.454 11.425C43.466 11.467 43.481 11.512 43.499 11.56C43.523 11.602 43.574 11.656 43.652 11.722C43.796 11.818 43.952 11.899 44.12 11.965C44.288 12.031 44.462 12.067 44.642 12.073C44.768 12.073 44.879 12.064 44.975 12.046C45.077 12.028 45.164 11.998 45.236 11.956C45.308 11.914 45.362 11.857 45.398 11.785C45.44 11.707 45.461 11.614 45.461 11.506C45.461 11.452 45.452 11.398 45.434 11.344C45.422 11.284 45.398 11.227 45.362 11.173C45.326 11.113 45.269 11.053 45.191 10.993C45.119 10.933 45.026 10.867 44.912 10.795C44.798 10.723 44.654 10.648 44.48 10.57C44.096 10.384 43.79 10.207 43.562 10.039C43.34 9.871 43.178 9.688 43.076 9.49C42.98 9.286 42.932 9.043 42.932 8.761C42.932 8.485 43.013 8.236 43.175 8.014C43.343 7.792 43.568 7.615 43.85 7.483C44.132 7.351 44.441 7.285 44.777 7.285C45.035 7.285 45.269 7.312 45.479 7.366C45.695 7.42 45.893 7.501 46.073 7.609C46.259 7.717 46.43 7.855 46.586 8.023L45.821 8.851L45.767 8.914L45.686 8.842C45.68 8.794 45.671 8.749 45.659 8.707C45.647 8.659 45.608 8.599 45.542 8.527C45.446 8.443 45.344 8.389 45.236 8.365C45.128 8.335 45.002 8.32 44.858 8.32C44.756 8.32 44.663 8.332 44.579 8.356C44.495 8.374 44.423 8.404 44.363 8.446C44.303 8.482 44.255 8.524 44.219 8.572C44.189 8.62 44.174 8.671 44.174 8.725C44.174 8.779 44.18 8.83 44.192 8.878C44.204 8.92 44.228 8.965 44.264 9.013C44.3 9.061 44.354 9.112 44.426 9.166C44.504 9.22 44.603 9.283 44.723 9.355C44.849 9.421 45.005 9.499 45.191 9.589C45.479 9.733 45.722 9.871 45.92 10.003C46.118 10.135 46.274 10.273 46.388 10.417C46.508 10.555 46.592 10.708 46.64 10.876C46.694 11.044 46.721 11.236 46.721 11.452C46.721 11.734 46.649 12.001 46.505 12.253C46.361 12.505 46.136 12.712 45.83 12.874C45.524 13.03 45.131 13.108 44.651 13.108ZM47.387 6.925H48.665H48.746V7.024C48.716 7.06 48.695 7.099 48.683 7.141C48.677 7.183 48.674 7.255 48.674 7.357V9.193C48.77 9.061 48.881 8.959 49.007 8.887C49.133 8.809 49.265 8.752 49.403 8.716C49.547 8.68 49.685 8.662 49.817 8.662C50.105 8.662 50.351 8.725 50.555 8.851C50.765 8.971 50.927 9.163 51.041 9.427C51.155 9.691 51.212 10.033 51.212 10.453V13H49.934V10.462C49.934 10.246 49.916 10.075 49.88 9.949C49.844 9.817 49.79 9.724 49.718 9.67C49.652 9.616 49.565 9.589 49.457 9.589C49.355 9.589 49.262 9.604 49.178 9.634C49.1 9.664 49.028 9.706 48.962 9.76C48.902 9.814 48.848 9.883 48.8 9.967C48.758 10.045 48.725 10.135 48.701 10.237C48.683 10.339 48.674 10.45 48.674 10.57V13H47.387V6.925ZM53.201 13.108C52.745 13.108 52.388 13 52.13 12.784C51.872 12.562 51.743 12.271 51.743 11.911C51.743 11.683 51.791 11.473 51.887 11.281C51.983 11.083 52.133 10.912 52.337 10.768C52.541 10.618 52.802 10.501 53.12 10.417C53.438 10.333 53.819 10.291 54.263 10.291C54.281 10.291 54.314 10.291 54.362 10.291C54.41 10.291 54.464 10.291 54.524 10.291C54.584 10.291 54.635 10.291 54.677 10.291L54.713 11.137C54.677 11.137 54.626 11.137 54.56 11.137C54.494 11.137 54.425 11.14 54.353 11.146C54.287 11.146 54.236 11.146 54.2 11.146C53.942 11.146 53.735 11.164 53.579 11.2C53.423 11.23 53.303 11.275 53.219 11.335C53.141 11.389 53.087 11.452 53.057 11.524C53.027 11.59 53.012 11.656 53.012 11.722C53.012 11.794 53.024 11.857 53.048 11.911C53.072 11.965 53.105 12.007 53.147 12.037C53.189 12.067 53.24 12.091 53.3 12.109C53.36 12.121 53.423 12.127 53.489 12.127C53.633 12.127 53.756 12.103 53.858 12.055C53.96 12.007 54.044 11.929 54.11 11.821C54.182 11.707 54.233 11.563 54.263 11.389C54.299 11.215 54.317 11.002 54.317 10.75C54.317 10.444 54.287 10.21 54.227 10.048C54.173 9.886 54.092 9.778 53.984 9.724C53.882 9.664 53.756 9.634 53.606 9.634C53.42 9.634 53.249 9.661 53.093 9.715C52.937 9.763 52.772 9.877 52.598 10.057L51.878 9.319C52.148 9.073 52.436 8.902 52.742 8.806C53.054 8.71 53.357 8.662 53.651 8.662C53.909 8.662 54.152 8.692 54.38 8.752C54.614 8.806 54.821 8.899 55.001 9.031C55.187 9.163 55.331 9.346 55.433 9.58C55.541 9.808 55.595 10.096 55.595 10.444V13H54.308V12.667C54.23 12.739 54.152 12.805 54.074 12.865C54.002 12.919 53.921 12.964 53.831 13C53.747 13.036 53.654 13.063 53.552 13.081C53.45 13.099 53.333 13.108 53.201 13.108ZM56.36 14.503L56.351 8.752H57.593V9.193C57.701 9.067 57.812 8.965 57.926 8.887C58.046 8.809 58.172 8.752 58.304 8.716C58.436 8.68 58.574 8.662 58.718 8.662C58.946 8.662 59.156 8.713 59.348 8.815C59.546 8.911 59.717 9.055 59.861 9.247C60.011 9.439 60.128 9.676 60.212 9.958C60.296 10.234 60.338 10.555 60.338 10.921C60.338 11.293 60.293 11.617 60.203 11.893C60.119 12.169 59.999 12.397 59.843 12.577C59.693 12.757 59.519 12.892 59.321 12.982C59.123 13.066 58.916 13.108 58.7 13.108C58.562 13.108 58.424 13.096 58.286 13.072C58.154 13.048 58.031 13.012 57.917 12.964C57.803 12.91 57.71 12.844 57.638 12.766V14.503H56.36ZM58.304 12.172C58.43 12.172 58.541 12.148 58.637 12.1C58.733 12.052 58.814 11.977 58.88 11.875C58.952 11.773 59.006 11.635 59.042 11.461C59.078 11.287 59.096 11.074 59.096 10.822C59.096 10.576 59.063 10.363 58.997 10.183C58.937 10.003 58.85 9.865 58.736 9.769C58.622 9.673 58.487 9.625 58.331 9.625C58.205 9.625 58.097 9.652 58.007 9.706C57.917 9.754 57.845 9.832 57.791 9.94C57.737 10.042 57.698 10.174 57.674 10.336C57.65 10.498 57.638 10.69 57.638 10.912C57.638 11.086 57.644 11.242 57.656 11.38C57.674 11.512 57.698 11.629 57.728 11.731C57.764 11.827 57.806 11.908 57.854 11.974C57.908 12.04 57.971 12.091 58.043 12.127C58.121 12.157 58.208 12.172 58.304 12.172ZM62.93 13.108C62.63 13.108 62.348 13.06 62.084 12.964C61.826 12.862 61.598 12.718 61.4 12.532C61.208 12.346 61.058 12.118 60.95 11.848C60.842 11.572 60.788 11.263 60.788 10.921C60.788 10.573 60.839 10.261 60.941 9.985C61.049 9.703 61.193 9.466 61.373 9.274C61.559 9.076 61.775 8.926 62.021 8.824C62.267 8.716 62.534 8.662 62.822 8.662C63.068 8.662 63.302 8.707 63.524 8.797C63.752 8.887 63.953 9.022 64.127 9.202C64.301 9.376 64.439 9.595 64.541 9.859C64.643 10.117 64.694 10.414 64.694 10.75C64.694 10.822 64.694 10.912 64.694 11.02C64.694 11.128 64.691 11.215 64.685 11.281H62.012C62.024 11.431 62.06 11.56 62.12 11.668C62.18 11.77 62.255 11.857 62.345 11.929C62.441 11.995 62.543 12.046 62.651 12.082C62.765 12.112 62.879 12.127 62.993 12.127C63.113 12.127 63.227 12.118 63.335 12.1C63.443 12.082 63.548 12.049 63.65 12.001C63.752 11.947 63.851 11.872 63.947 11.776L64.577 12.388C64.433 12.556 64.274 12.694 64.1 12.802C63.926 12.91 63.74 12.988 63.542 13.036C63.344 13.084 63.14 13.108 62.93 13.108ZM62.021 10.345H63.488C63.488 10.225 63.473 10.123 63.443 10.039C63.413 9.949 63.368 9.877 63.308 9.823C63.248 9.763 63.173 9.721 63.083 9.697C62.993 9.667 62.891 9.652 62.777 9.652C62.675 9.652 62.579 9.667 62.489 9.697C62.405 9.721 62.33 9.763 62.264 9.823C62.198 9.877 62.144 9.949 62.102 10.039C62.06 10.123 62.033 10.225 62.021 10.345ZM66.98 13.108C66.734 13.108 66.503 13.063 66.287 12.973C66.077 12.877 65.891 12.736 65.729 12.55C65.573 12.364 65.45 12.133 65.36 11.857C65.27 11.575 65.225 11.248 65.225 10.876C65.225 10.522 65.264 10.207 65.342 9.931C65.426 9.655 65.543 9.424 65.693 9.238C65.849 9.046 66.035 8.902 66.251 8.806C66.467 8.71 66.707 8.662 66.971 8.662C67.079 8.662 67.187 8.671 67.295 8.689C67.409 8.707 67.514 8.74 67.61 8.788C67.706 8.836 67.787 8.911 67.853 9.013V6.925H69.131H69.212V7.024C69.182 7.06 69.161 7.099 69.149 7.141C69.137 7.183 69.134 7.255 69.14 7.357L69.122 12.496C69.122 12.58 69.128 12.664 69.14 12.748C69.152 12.832 69.179 12.916 69.221 13H67.979C67.949 12.94 67.928 12.898 67.916 12.874C67.904 12.85 67.898 12.823 67.898 12.793C67.898 12.763 67.898 12.721 67.898 12.667C67.826 12.775 67.742 12.862 67.646 12.928C67.55 12.994 67.445 13.039 67.331 13.063C67.217 13.093 67.1 13.108 66.98 13.108ZM67.205 12.118C67.307 12.118 67.397 12.097 67.475 12.055C67.559 12.013 67.628 11.947 67.682 11.857C67.742 11.761 67.787 11.632 67.817 11.47C67.847 11.308 67.862 11.11 67.862 10.876C67.862 10.564 67.838 10.318 67.79 10.138C67.742 9.952 67.667 9.82 67.565 9.742C67.469 9.664 67.346 9.625 67.196 9.625C67.082 9.625 66.977 9.655 66.881 9.715C66.791 9.775 66.716 9.862 66.656 9.976C66.596 10.084 66.548 10.219 66.512 10.381C66.482 10.537 66.467 10.714 66.467 10.912C66.467 11.17 66.506 11.389 66.584 11.569C66.662 11.749 66.758 11.887 66.872 11.983C66.986 12.073 67.097 12.118 67.205 12.118ZM74.36 13V7.393H76.349C76.793 7.393 77.162 7.471 77.456 7.627C77.75 7.777 77.969 7.981 78.113 8.239C78.257 8.491 78.329 8.77 78.329 9.076C78.329 9.304 78.287 9.52 78.203 9.724C78.125 9.922 78.005 10.096 77.843 10.246C77.687 10.396 77.486 10.516 77.24 10.606C77 10.69 76.718 10.732 76.394 10.732H75.656V13H74.36ZM75.656 9.697H76.322C76.46 9.697 76.58 9.67 76.682 9.616C76.79 9.562 76.874 9.487 76.934 9.391C76.994 9.295 77.024 9.187 77.024 9.067C77.024 8.941 76.994 8.833 76.934 8.743C76.874 8.653 76.793 8.584 76.691 8.536C76.589 8.488 76.469 8.464 76.331 8.464H75.656V9.697ZM80.741 13.108C80.363 13.108 80.018 13.018 79.706 12.838C79.394 12.652 79.145 12.391 78.959 12.055C78.773 11.719 78.68 11.329 78.68 10.885C78.68 10.471 78.773 10.096 78.959 9.76C79.145 9.424 79.394 9.157 79.706 8.959C80.018 8.761 80.363 8.662 80.741 8.662C81.119 8.662 81.464 8.761 81.776 8.959C82.094 9.157 82.346 9.424 82.532 9.76C82.724 10.096 82.82 10.471 82.82 10.885C82.82 11.323 82.724 11.71 82.532 12.046C82.346 12.382 82.094 12.643 81.776 12.829C81.464 13.015 81.119 13.108 80.741 13.108ZM80.741 12.109C80.903 12.109 81.044 12.058 81.164 11.956C81.29 11.854 81.389 11.713 81.461 11.533C81.533 11.347 81.569 11.131 81.569 10.885C81.569 10.621 81.533 10.399 81.461 10.219C81.389 10.039 81.29 9.901 81.164 9.805C81.044 9.709 80.903 9.661 80.741 9.661C80.591 9.661 80.453 9.709 80.327 9.805C80.207 9.901 80.111 10.039 80.039 10.219C79.967 10.399 79.931 10.621 79.931 10.885C79.931 11.131 79.964 11.347 80.03 11.533C80.102 11.713 80.198 11.854 80.318 11.956C80.444 12.058 80.585 12.109 80.741 12.109ZM85.241 13.108C84.863 13.108 84.518 13.018 84.206 12.838C83.894 12.652 83.645 12.391 83.459 12.055C83.273 11.719 83.18 11.329 83.18 10.885C83.18 10.471 83.273 10.096 83.459 9.76C83.645 9.424 83.894 9.157 84.206 8.959C84.518 8.761 84.863 8.662 85.241 8.662C85.619 8.662 85.964 8.761 86.276 8.959C86.594 9.157 86.846 9.424 87.032 9.76C87.224 10.096 87.32 10.471 87.32 10.885C87.32 11.323 87.224 11.71 87.032 12.046C86.846 12.382 86.594 12.643 86.276 12.829C85.964 13.015 85.619 13.108 85.241 13.108ZM85.241 12.109C85.403 12.109 85.544 12.058 85.664 11.956C85.79 11.854 85.889 11.713 85.961 11.533C86.033 11.347 86.069 11.131 86.069 10.885C86.069 10.621 86.033 10.399 85.961 10.219C85.889 10.039 85.79 9.901 85.664 9.805C85.544 9.709 85.403 9.661 85.241 9.661C85.091 9.661 84.953 9.709 84.827 9.805C84.707 9.901 84.611 10.039 84.539 10.219C84.467 10.399 84.431 10.621 84.431 10.885C84.431 11.131 84.464 11.347 84.53 11.533C84.602 11.713 84.698 11.854 84.818 11.956C84.944 12.058 85.085 12.109 85.241 12.109ZM87.968 13V12.01H89.12V7.915H88.022V6.925H90.398V12.01H91.541V13H87.968Z" fill="white"/>
<path d="M33.384 29V24.016H34.936C35.336 24.016 35.6613 24.0773 35.912 24.2C36.168 24.3173 36.3547 24.4853 36.472 24.704C36.5947 24.9173 36.656 25.1707 36.656 25.464C36.656 25.6507 36.616 25.8373 36.536 26.024C36.4613 26.2053 36.3493 26.368 36.2 26.512C36.056 26.6507 35.8853 26.752 35.688 26.816L36.792 29H35.952L34.904 26.888H34.192V29H33.384ZM34.192 26.224H34.992C35.28 26.224 35.4933 26.1573 35.632 26.024C35.776 25.8853 35.848 25.704 35.848 25.48C35.848 25.3413 35.816 25.2133 35.752 25.096C35.6933 24.9787 35.6 24.8853 35.472 24.816C35.3493 24.7467 35.1893 24.712 34.992 24.712H34.192V26.224ZM38.616 29.088C38.2053 29.088 37.8853 28.9947 37.656 28.808C37.432 28.616 37.32 28.368 37.32 28.064C37.32 27.8613 37.3653 27.68 37.456 27.52C37.552 27.3547 37.6853 27.2133 37.856 27.096C38.032 26.9787 38.2427 26.888 38.488 26.824C38.7333 26.7547 39.0107 26.72 39.32 26.72C39.384 26.72 39.4507 26.7227 39.52 26.728C39.5947 26.728 39.672 26.7307 39.752 26.736C39.8373 26.7413 39.9227 26.7467 40.008 26.752L40.032 27.32C39.9573 27.3093 39.8773 27.3013 39.792 27.296C39.712 27.2907 39.632 27.288 39.552 27.288C39.472 27.288 39.3973 27.288 39.328 27.288C39.12 27.288 38.9387 27.304 38.784 27.336C38.6347 27.3627 38.5093 27.4053 38.408 27.464C38.312 27.5227 38.24 27.5947 38.192 27.68C38.144 27.7653 38.12 27.864 38.12 27.976C38.12 28.0667 38.136 28.1467 38.168 28.216C38.2 28.28 38.2427 28.3307 38.296 28.368C38.3547 28.4053 38.4213 28.4347 38.496 28.456C38.576 28.472 38.6613 28.48 38.752 28.48C38.928 28.48 39.0827 28.4507 39.216 28.392C39.3493 28.3333 39.4613 28.248 39.552 28.136C39.648 28.0187 39.72 27.8747 39.768 27.704C39.816 27.528 39.84 27.3227 39.84 27.088C39.84 26.7627 39.8027 26.5093 39.728 26.328C39.6587 26.1467 39.5547 26.0213 39.416 25.952C39.2773 25.8827 39.104 25.848 38.896 25.848C38.7253 25.848 38.56 25.8773 38.4 25.936C38.2453 25.9893 38.0933 26.0907 37.944 26.24L37.52 25.76C37.7227 25.568 37.944 25.4293 38.184 25.344C38.4293 25.2587 38.68 25.216 38.936 25.216C39.1707 25.216 39.3867 25.2453 39.584 25.304C39.7867 25.3573 39.9627 25.448 40.112 25.576C40.2667 25.704 40.384 25.8773 40.464 26.096C40.5493 26.3147 40.592 26.592 40.592 26.928V29H39.76V28.544C39.6907 28.6507 39.6133 28.7413 39.528 28.816C39.4427 28.8853 39.3493 28.9413 39.248 28.984C39.152 29.0213 39.0507 29.048 38.944 29.064C38.8373 29.08 38.728 29.088 38.616 29.088ZM42.824 29.088C42.6267 29.088 42.4347 29.048 42.248 28.968C42.0667 28.8827 41.904 28.76 41.76 28.6C41.616 28.44 41.5013 28.2373 41.416 27.992C41.336 27.7413 41.296 27.4533 41.296 27.128C41.296 26.7973 41.336 26.512 41.416 26.272C41.5013 26.032 41.616 25.8347 41.76 25.68C41.904 25.52 42.0693 25.4027 42.256 25.328C42.4427 25.248 42.6373 25.208 42.84 25.208C42.984 25.208 43.1147 25.2267 43.232 25.264C43.3547 25.3013 43.464 25.3573 43.56 25.432C43.656 25.5067 43.7333 25.6 43.792 25.712V23.648H44.568H44.64V23.72C44.6133 23.752 44.5947 23.7867 44.584 23.824C44.5733 23.8613 44.5707 23.9253 44.576 24.016V28.48C44.576 28.5653 44.5787 28.6533 44.584 28.744C44.5947 28.8293 44.6187 28.9147 44.656 29H43.872C43.8453 28.9413 43.8267 28.888 43.816 28.84C43.8053 28.792 43.8 28.744 43.8 28.696C43.8 28.648 43.8 28.5973 43.8 28.544C43.7253 28.656 43.64 28.7547 43.544 28.84C43.448 28.92 43.3387 28.9813 43.216 29.024C43.0933 29.0667 42.9627 29.088 42.824 29.088ZM42.96 28.432C43.104 28.432 43.2267 28.4027 43.328 28.344C43.4293 28.2853 43.512 28.2 43.576 28.088C43.64 27.976 43.688 27.84 43.72 27.68C43.752 27.52 43.768 27.3387 43.768 27.136C43.768 26.864 43.7387 26.632 43.68 26.44C43.6213 26.2427 43.528 26.0933 43.4 25.992C43.2773 25.8853 43.12 25.832 42.928 25.832C42.7893 25.832 42.6667 25.8613 42.56 25.92C42.4533 25.9787 42.3627 26.064 42.288 26.176C42.2187 26.2827 42.1653 26.4133 42.128 26.568C42.0907 26.7227 42.072 26.896 42.072 27.088C42.072 27.36 42.1093 27.5973 42.184 27.8C42.264 28.0027 42.3707 28.16 42.504 28.272C42.6373 28.3787 42.7893 28.432 42.96 28.432ZM45.72 29V28.368H46.64V25.928H45.76V25.296H47.44V28.368H48.28V29H45.72ZM46.992 24.632C46.848 24.632 46.7253 24.584 46.624 24.488C46.528 24.3867 46.48 24.2693 46.48 24.136C46.48 23.992 46.528 23.872 46.624 23.776C46.72 23.68 46.8427 23.632 46.992 23.632C47.1307 23.632 47.2507 23.6827 47.352 23.784C47.4587 23.8853 47.512 24.0027 47.512 24.136C47.512 24.2693 47.4587 24.3867 47.352 24.488C47.2507 24.584 47.1307 24.632 46.992 24.632ZM51 29.08C50.664 29.08 50.3653 29 50.104 28.84C49.8427 28.6747 49.6347 28.448 49.48 28.16C49.3253 27.8667 49.248 27.5307 49.248 27.152C49.248 26.7787 49.3253 26.448 49.48 26.16C49.6347 25.8667 49.8427 25.6373 50.104 25.472C50.3653 25.3013 50.664 25.216 51 25.216C51.3307 25.216 51.6267 25.3013 51.888 25.472C52.1547 25.6373 52.3653 25.8667 52.52 26.16C52.6747 26.448 52.752 26.7787 52.752 27.152C52.752 27.5253 52.6747 27.8587 52.52 28.152C52.3653 28.44 52.1547 28.6667 51.888 28.832C51.6267 28.9973 51.3307 29.08 51 29.08ZM51 28.432C51.1813 28.432 51.3413 28.3787 51.48 28.272C51.624 28.16 51.736 28.008 51.816 27.816C51.896 27.624 51.936 27.4 51.936 27.144C51.936 26.8827 51.896 26.656 51.816 26.464C51.736 26.272 51.624 26.1227 51.48 26.016C51.3413 25.9093 51.1813 25.856 51 25.856C50.8187 25.856 50.656 25.9093 50.512 26.016C50.3733 26.1227 50.264 26.272 50.184 26.464C50.104 26.656 50.064 26.8827 50.064 27.144C50.064 27.4 50.104 27.624 50.184 27.816C50.264 28.008 50.3733 28.16 50.512 28.272C50.656 28.3787 50.8187 28.432 51 28.432ZM53.488 23.648H54.272H54.352V23.72C54.32 23.752 54.2987 23.7867 54.288 23.824C54.2827 23.8613 54.28 23.9253 54.28 24.016V25.84C54.3707 25.7067 54.4773 25.5947 54.6 25.504C54.728 25.408 54.8587 25.336 54.992 25.288C55.1307 25.2347 55.2693 25.208 55.408 25.208C55.6427 25.208 55.8453 25.2613 56.016 25.368C56.192 25.4747 56.328 25.6427 56.424 25.872C56.52 26.096 56.568 26.3947 56.568 26.768V29H55.784V26.776C55.784 26.5467 55.76 26.3653 55.712 26.232C55.664 26.0933 55.5973 25.9947 55.512 25.936C55.4267 25.872 55.3253 25.84 55.208 25.84C55.112 25.84 55.0187 25.856 54.928 25.888C54.8427 25.92 54.76 25.9653 54.68 26.024C54.6 26.0773 54.5307 26.1467 54.472 26.232C54.4133 26.3173 54.3653 26.4133 54.328 26.52C54.296 26.6267 54.28 26.744 54.28 26.872V29H53.488V23.648ZM59.168 29.088C58.9013 29.088 58.656 29.0453 58.432 28.96C58.208 28.8747 58.0133 28.752 57.848 28.592C57.688 28.4267 57.5627 28.224 57.472 27.984C57.3813 27.744 57.336 27.472 57.336 27.168C57.336 26.8587 57.3813 26.584 57.472 26.344C57.5627 26.0987 57.6853 25.8933 57.84 25.728C58 25.5627 58.184 25.4347 58.392 25.344C58.6053 25.2533 58.832 25.208 59.072 25.208C59.28 25.208 59.4773 25.2453 59.664 25.32C59.856 25.3947 60.0213 25.5067 60.16 25.656C60.304 25.8 60.416 25.984 60.496 26.208C60.5813 26.432 60.624 26.6933 60.624 26.992C60.624 27.0453 60.624 27.1067 60.624 27.176C60.624 27.24 60.6213 27.296 60.616 27.344H58.104C58.1147 27.536 58.152 27.704 58.216 27.848C58.28 27.9867 58.36 28.1013 58.456 28.192C58.5573 28.2827 58.672 28.3493 58.8 28.392C58.928 28.4347 59.0613 28.456 59.2 28.456C59.3227 28.456 59.4347 28.4453 59.536 28.424C59.6427 28.3973 59.744 28.3573 59.84 28.304C59.936 28.2507 60.024 28.1787 60.104 28.088L60.52 28.496C60.408 28.6293 60.2827 28.7413 60.144 28.832C60.0053 28.9173 59.8533 28.9813 59.688 29.024C59.528 29.0667 59.3547 29.088 59.168 29.088ZM58.12 26.744H59.848C59.848 26.5947 59.8293 26.464 59.792 26.352C59.7547 26.24 59.6987 26.144 59.624 26.064C59.5547 25.984 59.4693 25.9253 59.368 25.888C59.2667 25.8453 59.1547 25.824 59.032 25.824C58.9147 25.824 58.8053 25.8427 58.704 25.88C58.608 25.9173 58.52 25.9733 58.44 26.048C58.36 26.1227 58.2907 26.2187 58.232 26.336C58.1787 26.448 58.1413 26.584 58.12 26.744ZM62.616 29.088C62.2053 29.088 61.8853 28.9947 61.656 28.808C61.432 28.616 61.32 28.368 61.32 28.064C61.32 27.8613 61.3653 27.68 61.456 27.52C61.552 27.3547 61.6853 27.2133 61.856 27.096C62.032 26.9787 62.2427 26.888 62.488 26.824C62.7333 26.7547 63.0107 26.72 63.32 26.72C63.384 26.72 63.4507 26.7227 63.52 26.728C63.5947 26.728 63.672 26.7307 63.752 26.736C63.8373 26.7413 63.9227 26.7467 64.008 26.752L64.032 27.32C63.9573 27.3093 63.8773 27.3013 63.792 27.296C63.712 27.2907 63.632 27.288 63.552 27.288C63.472 27.288 63.3973 27.288 63.328 27.288C63.12 27.288 62.9387 27.304 62.784 27.336C62.6347 27.3627 62.5093 27.4053 62.408 27.464C62.312 27.5227 62.24 27.5947 62.192 27.68C62.144 27.7653 62.12 27.864 62.12 27.976C62.12 28.0667 62.136 28.1467 62.168 28.216C62.2 28.28 62.2427 28.3307 62.296 28.368C62.3547 28.4053 62.4213 28.4347 62.496 28.456C62.576 28.472 62.6613 28.48 62.752 28.48C62.928 28.48 63.0827 28.4507 63.216 28.392C63.3493 28.3333 63.4613 28.248 63.552 28.136C63.648 28.0187 63.72 27.8747 63.768 27.704C63.816 27.528 63.84 27.3227 63.84 27.088C63.84 26.7627 63.8027 26.5093 63.728 26.328C63.6587 26.1467 63.5547 26.0213 63.416 25.952C63.2773 25.8827 63.104 25.848 62.896 25.848C62.7253 25.848 62.56 25.8773 62.4 25.936C62.2453 25.9893 62.0933 26.0907 61.944 26.24L61.52 25.76C61.7227 25.568 61.944 25.4293 62.184 25.344C62.4293 25.2587 62.68 25.216 62.936 25.216C63.1707 25.216 63.3867 25.2453 63.584 25.304C63.7867 25.3573 63.9627 25.448 64.112 25.576C64.2667 25.704 64.384 25.8773 64.464 26.096C64.5493 26.3147 64.592 26.592 64.592 26.928V29H63.76V28.544C63.6907 28.6507 63.6133 28.7413 63.528 28.816C63.4427 28.8853 63.3493 28.9413 63.248 28.984C63.152 29.0213 63.0507 29.048 62.944 29.064C62.8373 29.08 62.728 29.088 62.616 29.088ZM66.824 29.088C66.6267 29.088 66.4347 29.048 66.248 28.968C66.0667 28.8827 65.904 28.76 65.76 28.6C65.616 28.44 65.5013 28.2373 65.416 27.992C65.336 27.7413 65.296 27.4533 65.296 27.128C65.296 26.7973 65.336 26.512 65.416 26.272C65.5013 26.032 65.616 25.8347 65.76 25.68C65.904 25.52 66.0693 25.4027 66.256 25.328C66.4427 25.248 66.6373 25.208 66.84 25.208C66.984 25.208 67.1147 25.2267 67.232 25.264C67.3547 25.3013 67.464 25.3573 67.56 25.432C67.656 25.5067 67.7333 25.6 67.792 25.712V23.648H68.568H68.64V23.72C68.6133 23.752 68.5947 23.7867 68.584 23.824C68.5733 23.8613 68.5707 23.9253 68.576 24.016V28.48C68.576 28.5653 68.5787 28.6533 68.584 28.744C68.5947 28.8293 68.6187 28.9147 68.656 29H67.872C67.8453 28.9413 67.8267 28.888 67.816 28.84C67.8053 28.792 67.8 28.744 67.8 28.696C67.8 28.648 67.8 28.5973 67.8 28.544C67.7253 28.656 67.64 28.7547 67.544 28.84C67.448 28.92 67.3387 28.9813 67.216 29.024C67.0933 29.0667 66.9627 29.088 66.824 29.088ZM66.96 28.432C67.104 28.432 67.2267 28.4027 67.328 28.344C67.4293 28.2853 67.512 28.2 67.576 28.088C67.64 27.976 67.688 27.84 67.72 27.68C67.752 27.52 67.768 27.3387 67.768 27.136C67.768 26.864 67.7387 26.632 67.68 26.44C67.6213 26.2427 67.528 26.0933 67.4 25.992C67.2773 25.8853 67.12 25.832 66.928 25.832C66.7893 25.832 66.6667 25.8613 66.56 25.92C66.4533 25.9787 66.3627 26.064 66.288 26.176C66.2187 26.2827 66.1653 26.4133 66.128 26.568C66.0907 26.7227 66.072 26.896 66.072 27.088C66.072 27.36 66.1093 27.5973 66.184 27.8C66.264 28.0027 66.3707 28.16 66.504 28.272C66.6373 28.3787 66.7893 28.432 66.96 28.432Z" fill="white"/>
</svg>
