<svg width="102" height="44" viewBox="0 0 102 44" fill="none" xmlns="http://www.w3.org/2000/svg">
<path d="M47.5 37H1V1H101V37H54.5L51 43L47.5 37Z" fill="black" stroke="black"/>
<path d="M13.275 15.132C12.901 15.132 12.5453 15.0623 12.208 14.923C11.878 14.7837 11.5847 14.571 11.328 14.285C11.0713 13.999 10.8697 13.636 10.723 13.196C10.5837 12.7487 10.514 12.2207 10.514 11.612C10.514 11.0767 10.569 10.6073 10.679 10.204C10.7963 9.80067 10.9503 9.45967 11.141 9.181C11.339 8.90233 11.559 8.67867 11.801 8.51C12.0503 8.334 12.307 8.20933 12.571 8.136C12.8423 8.05533 13.11 8.015 13.374 8.015C13.9093 8.015 14.364 8.12867 14.738 8.356C15.112 8.58333 15.4017 8.91333 15.607 9.346L14.749 10.116L14.672 10.182L14.595 10.094C14.595 10.0353 14.5877 9.97667 14.573 9.918C14.5583 9.85933 14.518 9.78233 14.452 9.687C14.3127 9.52567 14.1623 9.41933 14.001 9.368C13.8397 9.30933 13.6747 9.28 13.506 9.28C13.3447 9.28 13.1797 9.32767 13.011 9.423C12.8423 9.511 12.6847 9.65033 12.538 9.841C12.3987 10.0243 12.285 10.259 12.197 10.545C12.109 10.831 12.065 11.1683 12.065 11.557C12.065 11.931 12.0943 12.261 12.153 12.547C12.219 12.833 12.307 13.075 12.417 13.273C12.5343 13.4637 12.67 13.6103 12.824 13.713C12.9853 13.8083 13.1613 13.856 13.352 13.856C13.528 13.856 13.682 13.8377 13.814 13.801C13.946 13.7643 14.067 13.6947 14.177 13.592C14.287 13.4893 14.3933 13.3463 14.496 13.163L15.552 13.966C15.2733 14.4133 14.947 14.7213 14.573 14.89C14.199 15.0513 13.7663 15.132 13.275 15.132ZM17.829 15.132C17.2717 15.132 16.8353 15 16.52 14.736C16.2047 14.4647 16.047 14.109 16.047 13.669C16.047 13.3903 16.1057 13.1337 16.223 12.899C16.3403 12.657 16.5237 12.448 16.773 12.272C17.0223 12.0887 17.3413 11.9457 17.73 11.843C18.1187 11.7403 18.5843 11.689 19.127 11.689C19.149 11.689 19.1893 11.689 19.248 11.689C19.3067 11.689 19.3727 11.689 19.446 11.689C19.5193 11.689 19.5817 11.689 19.633 11.689L19.677 12.723C19.633 12.723 19.5707 12.723 19.49 12.723C19.4093 12.723 19.325 12.7267 19.237 12.734C19.1563 12.734 19.094 12.734 19.05 12.734C18.7347 12.734 18.4817 12.756 18.291 12.8C18.1003 12.8367 17.9537 12.8917 17.851 12.965C17.7557 13.031 17.6897 13.108 17.653 13.196C17.6163 13.2767 17.598 13.3573 17.598 13.438C17.598 13.526 17.6127 13.603 17.642 13.669C17.6713 13.735 17.7117 13.7863 17.763 13.823C17.8143 13.8597 17.8767 13.889 17.95 13.911C18.0233 13.9257 18.1003 13.933 18.181 13.933C18.357 13.933 18.5073 13.9037 18.632 13.845C18.7567 13.7863 18.8593 13.691 18.94 13.559C19.028 13.4197 19.0903 13.2437 19.127 13.031C19.171 12.8183 19.193 12.558 19.193 12.25C19.193 11.876 19.1563 11.59 19.083 11.392C19.017 11.194 18.918 11.062 18.786 10.996C18.6613 10.9227 18.5073 10.886 18.324 10.886C18.0967 10.886 17.8877 10.919 17.697 10.985C17.5063 11.0437 17.3047 11.183 17.092 11.403L16.212 10.501C16.542 10.2003 16.894 9.99133 17.268 9.874C17.6493 9.75667 18.0197 9.698 18.379 9.698C18.6943 9.698 18.9913 9.73467 19.27 9.808C19.556 9.874 19.809 9.98767 20.029 10.149C20.2563 10.3103 20.4323 10.534 20.557 10.82C20.689 11.0987 20.755 11.4507 20.755 11.876V15H19.182V14.593C19.0867 14.681 18.9913 14.7617 18.896 14.835C18.808 14.901 18.709 14.956 18.599 15C18.4963 15.044 18.3827 15.077 18.258 15.099C18.1333 15.121 17.9903 15.132 17.829 15.132ZM22.009 9.819H23.604V11.238L23.428 11.194C23.45 10.974 23.505 10.776 23.593 10.6C23.6883 10.4167 23.8093 10.259 23.956 10.127C24.1027 9.98767 24.264 9.88133 24.44 9.808C24.6233 9.73467 24.8103 9.698 25.001 9.698C25.3017 9.698 25.5693 9.74567 25.804 9.841C26.0387 9.93633 26.2587 10.0903 26.464 10.303L25.826 11.634L25.793 11.722L25.683 11.678C25.6537 11.6193 25.6317 11.557 25.617 11.491C25.6023 11.4177 25.5547 11.337 25.474 11.249C25.3787 11.1683 25.2687 11.1023 25.144 11.051C25.0267 10.9923 24.8947 10.963 24.748 10.963C24.5793 10.963 24.4217 10.9887 24.275 11.04C24.1357 11.0913 24.0147 11.172 23.912 11.282C23.8093 11.392 23.7287 11.5313 23.67 11.7C23.6113 11.8687 23.582 12.0703 23.582 12.305V15H22.009V9.819ZM27.509 9.819H29.104V11.238L28.928 11.194C28.95 10.974 29.005 10.776 29.093 10.6C29.1883 10.4167 29.3093 10.259 29.456 10.127C29.6027 9.98767 29.764 9.88133 29.94 9.808C30.1233 9.73467 30.3103 9.698 30.501 9.698C30.8017 9.698 31.0693 9.74567 31.304 9.841C31.5387 9.93633 31.7587 10.0903 31.964 10.303L31.326 11.634L31.293 11.722L31.183 11.678C31.1537 11.6193 31.1317 11.557 31.117 11.491C31.1023 11.4177 31.0547 11.337 30.974 11.249C30.8787 11.1683 30.7687 11.1023 30.644 11.051C30.5267 10.9923 30.3947 10.963 30.248 10.963C30.0793 10.963 29.9217 10.9887 29.775 11.04C29.6357 11.0913 29.5147 11.172 29.412 11.282C29.3093 11.392 29.2287 11.5313 29.17 11.7C29.1113 11.8687 29.082 12.0703 29.082 12.305V15H27.509V9.819ZM33.064 15V13.79H34.296V11.029H33.119V9.819H35.858V13.79H36.98V15H33.064ZM35 9.115C34.7433 9.115 34.5233 9.03067 34.34 8.862C34.164 8.686 34.076 8.48067 34.076 8.246C34.076 7.98933 34.1603 7.78033 34.329 7.619C34.505 7.45767 34.7287 7.377 35 7.377C35.242 7.377 35.4547 7.465 35.638 7.641C35.8287 7.80967 35.924 8.01133 35.924 8.246C35.924 8.48067 35.8287 8.686 35.638 8.862C35.4547 9.03067 35.242 9.115 35 9.115ZM40.72 15.132C40.3533 15.132 40.0087 15.0733 39.686 14.956C39.3707 14.8313 39.092 14.6553 38.85 14.428C38.6153 14.2007 38.432 13.922 38.3 13.592C38.168 13.2547 38.102 12.877 38.102 12.459C38.102 12.0337 38.1643 11.6523 38.289 11.315C38.421 10.9703 38.597 10.6807 38.817 10.446C39.0443 10.204 39.3083 10.0207 39.609 9.896C39.9097 9.764 40.236 9.698 40.588 9.698C40.8887 9.698 41.1747 9.753 41.446 9.863C41.7247 9.973 41.9703 10.138 42.183 10.358C42.3957 10.5707 42.5643 10.8383 42.689 11.161C42.8137 11.4763 42.876 11.8393 42.876 12.25C42.876 12.338 42.876 12.448 42.876 12.58C42.876 12.712 42.8723 12.8183 42.865 12.899H39.598C39.6127 13.0823 39.6567 13.24 39.73 13.372C39.8033 13.4967 39.895 13.603 40.005 13.691C40.1223 13.7717 40.247 13.834 40.379 13.878C40.5183 13.9147 40.6577 13.933 40.797 13.933C40.9437 13.933 41.083 13.922 41.215 13.9C41.347 13.878 41.4753 13.8377 41.6 13.779C41.7247 13.713 41.8457 13.6213 41.963 13.504L42.733 14.252C42.557 14.4573 42.3627 14.626 42.15 14.758C41.9373 14.89 41.71 14.9853 41.468 15.044C41.226 15.1027 40.9767 15.132 40.72 15.132ZM39.609 11.755H41.402C41.402 11.6083 41.3837 11.4837 41.347 11.381C41.3103 11.271 41.2553 11.183 41.182 11.117C41.1087 11.0437 41.017 10.9923 40.907 10.963C40.797 10.9263 40.6723 10.908 40.533 10.908C40.4083 10.908 40.291 10.9263 40.181 10.963C40.0783 10.9923 39.9867 11.0437 39.906 11.117C39.8253 11.183 39.7593 11.271 39.708 11.381C39.6567 11.4837 39.6237 11.6083 39.609 11.755ZM53.04 15.165L52.534 14.461C52.3873 14.6077 52.2297 14.7323 52.061 14.835C51.8997 14.9303 51.7237 15.0037 51.533 15.055C51.3423 15.1063 51.1407 15.132 50.928 15.132C50.5247 15.132 50.18 15.055 49.894 14.901C49.6153 14.7397 49.399 14.5233 49.245 14.252C49.0983 13.9733 49.025 13.6617 49.025 13.317C49.025 13.1043 49.047 12.9027 49.091 12.712C49.135 12.514 49.201 12.327 49.289 12.151C49.3843 11.9677 49.5053 11.799 49.652 11.645C49.7987 11.4837 49.9747 11.337 50.18 11.205C49.9527 10.9337 49.7913 10.6697 49.696 10.413C49.608 10.1563 49.564 9.87767 49.564 9.577C49.564 9.357 49.6117 9.15533 49.707 8.972C49.8023 8.78133 49.9307 8.61633 50.092 8.477C50.2607 8.33767 50.4477 8.23133 50.653 8.158C50.8657 8.07733 51.082 8.037 51.302 8.037C51.6247 8.037 51.9033 8.11033 52.138 8.257C52.38 8.40367 52.567 8.59433 52.699 8.829C52.831 9.06367 52.897 9.313 52.897 9.577C52.897 9.819 52.8713 10.0353 52.82 10.226C52.7687 10.4093 52.6953 10.578 52.6 10.732C52.512 10.8787 52.4057 11.018 52.281 11.15C52.1637 11.2747 52.0317 11.403 51.885 11.535L52.71 12.668C52.7393 12.624 52.7723 12.5727 52.809 12.514C52.853 12.448 52.8933 12.3783 52.93 12.305C52.974 12.2317 53.007 12.162 53.029 12.096C53.0583 12.0227 53.073 11.9567 53.073 11.898C53.073 11.854 53.0767 11.8137 53.084 11.777C53.0913 11.7403 53.117 11.6963 53.161 11.645L54.151 12.338C54.0777 12.514 54.0007 12.6753 53.92 12.822C53.8467 12.9687 53.7697 13.1043 53.689 13.229C53.6157 13.3463 53.535 13.46 53.447 13.57L53.964 14.263L53.04 15.165ZM51.049 13.977C51.1443 13.977 51.236 13.9623 51.324 13.933C51.412 13.9037 51.5 13.8597 51.588 13.801C51.676 13.735 51.7567 13.6617 51.83 13.581L50.895 12.217C50.807 12.2903 50.73 12.3637 50.664 12.437C50.598 12.5103 50.543 12.5873 50.499 12.668C50.4623 12.7487 50.433 12.8367 50.411 12.932C50.3963 13.02 50.389 13.1153 50.389 13.218C50.389 13.3353 50.4 13.4417 50.422 13.537C50.4513 13.6323 50.4917 13.713 50.543 13.779C50.6017 13.845 50.6713 13.8963 50.752 13.933C50.8327 13.9623 50.9317 13.977 51.049 13.977ZM51.17 10.556C51.258 10.4973 51.335 10.435 51.401 10.369C51.467 10.303 51.522 10.2297 51.566 10.149C51.61 10.0683 51.643 9.984 51.665 9.896C51.687 9.808 51.698 9.71633 51.698 9.621C51.698 9.511 51.6723 9.40833 51.621 9.313C51.5697 9.21033 51.467 9.159 51.313 9.159C51.203 9.159 51.1113 9.18467 51.038 9.236C50.9647 9.28733 50.9097 9.34967 50.873 9.423C50.8437 9.49633 50.829 9.56233 50.829 9.621C50.829 9.709 50.84 9.808 50.862 9.918C50.884 10.0207 50.9207 10.127 50.972 10.237C51.0233 10.3397 51.0893 10.446 51.17 10.556ZM60.311 8.147H61.862H61.961V8.268C61.9243 8.312 61.8987 8.35967 61.884 8.411C61.8767 8.46233 61.873 8.55033 61.873 8.675V13.746H64.909V15H60.311V8.147ZM67.989 15.132C67.527 15.132 67.1053 15.022 66.724 14.802C66.3427 14.5747 66.0383 14.2557 65.811 13.845C65.5837 13.4343 65.47 12.9577 65.47 12.415C65.47 11.909 65.5837 11.4507 65.811 11.04C66.0383 10.6293 66.3427 10.303 66.724 10.061C67.1053 9.819 67.527 9.698 67.989 9.698C68.451 9.698 68.8727 9.819 69.254 10.061C69.6427 10.303 69.9507 10.6293 70.178 11.04C70.4127 11.4507 70.53 11.909 70.53 12.415C70.53 12.9503 70.4127 13.4233 70.178 13.834C69.9507 14.2447 69.6427 14.5637 69.254 14.791C68.8727 15.0183 68.451 15.132 67.989 15.132ZM67.989 13.911C68.187 13.911 68.3593 13.8487 68.506 13.724C68.66 13.5993 68.781 13.427 68.869 13.207C68.957 12.9797 69.001 12.7157 69.001 12.415C69.001 12.0923 68.957 11.821 68.869 11.601C68.781 11.381 68.66 11.2123 68.506 11.095C68.3593 10.9777 68.187 10.919 67.989 10.919C67.8057 10.919 67.637 10.9777 67.483 11.095C67.3363 11.2123 67.219 11.381 67.131 11.601C67.043 11.821 66.999 12.0923 66.999 12.415C66.999 12.7157 67.0393 12.9797 67.12 13.207C67.208 13.427 67.3253 13.5993 67.472 13.724C67.626 13.8487 67.7983 13.911 67.989 13.911ZM71.696 15L70.805 9.819H72.125L72.554 12.965L73.203 10.457H73.962L74.677 12.932C74.721 12.558 74.7577 12.2317 74.787 11.953C74.8163 11.667 74.8347 11.4177 74.842 11.205C74.8567 10.9923 74.864 10.8053 74.864 10.644C74.8713 10.4827 74.875 10.336 74.875 10.204V9.819H76.151C76.129 10.347 76.0777 10.9153 75.997 11.524C75.9237 12.1253 75.8357 12.7267 75.733 13.328C75.6303 13.922 75.5313 14.4793 75.436 15H74.127L73.555 12.547L73.038 15H71.696ZM79.22 15.132C78.8533 15.132 78.5087 15.0733 78.186 14.956C77.8707 14.8313 77.592 14.6553 77.35 14.428C77.1153 14.2007 76.932 13.922 76.8 13.592C76.668 13.2547 76.602 12.877 76.602 12.459C76.602 12.0337 76.6643 11.6523 76.789 11.315C76.921 10.9703 77.097 10.6807 77.317 10.446C77.5443 10.204 77.8083 10.0207 78.109 9.896C78.4097 9.764 78.736 9.698 79.088 9.698C79.3887 9.698 79.6747 9.753 79.946 9.863C80.2247 9.973 80.4703 10.138 80.683 10.358C80.8957 10.5707 81.0643 10.8383 81.189 11.161C81.3137 11.4763 81.376 11.8393 81.376 12.25C81.376 12.338 81.376 12.448 81.376 12.58C81.376 12.712 81.3723 12.8183 81.365 12.899H78.098C78.1127 13.0823 78.1567 13.24 78.23 13.372C78.3033 13.4967 78.395 13.603 78.505 13.691C78.6223 13.7717 78.747 13.834 78.879 13.878C79.0183 13.9147 79.1577 13.933 79.297 13.933C79.4437 13.933 79.583 13.922 79.715 13.9C79.847 13.878 79.9753 13.8377 80.1 13.779C80.2247 13.713 80.3457 13.6213 80.463 13.504L81.233 14.252C81.057 14.4573 80.8627 14.626 80.65 14.758C80.4373 14.89 80.21 14.9853 79.968 15.044C79.726 15.1027 79.4767 15.132 79.22 15.132ZM78.109 11.755H79.902C79.902 11.6083 79.8837 11.4837 79.847 11.381C79.8103 11.271 79.7553 11.183 79.682 11.117C79.6087 11.0437 79.517 10.9923 79.407 10.963C79.297 10.9263 79.1723 10.908 79.033 10.908C78.9083 10.908 78.791 10.9263 78.681 10.963C78.5783 10.9923 78.4867 11.0437 78.406 11.117C78.3253 11.183 78.2593 11.271 78.208 11.381C78.1567 11.4837 78.1237 11.6083 78.109 11.755ZM82.322 15V13.79H83.73V8.785H82.388V7.575H85.292V13.79H86.689V15H82.322ZM87.822 15V13.79H89.23V8.785H87.888V7.575H90.792V13.79H92.189V15H87.822Z" fill="white"/>
<path d="M24.952 29.088C24.6213 29.088 24.3147 29.0373 24.032 28.936C23.7547 28.8347 23.5173 28.6827 23.32 28.48L23.712 27.816L23.752 27.744L23.816 27.784C23.8267 27.8213 23.84 27.8613 23.856 27.904C23.872 27.9467 23.912 28 23.976 28.064C24.1093 28.1653 24.2613 28.2507 24.432 28.32C24.6027 28.384 24.7893 28.416 24.992 28.416C25.1307 28.416 25.2533 28.4 25.36 28.368C25.472 28.3307 25.568 28.2827 25.648 28.224C25.7333 28.16 25.7973 28.0853 25.84 28C25.8827 27.9093 25.904 27.8107 25.904 27.704C25.904 27.6293 25.896 27.56 25.88 27.496C25.864 27.4267 25.8347 27.3653 25.792 27.312C25.7493 27.2533 25.688 27.1947 25.608 27.136C25.5333 27.0773 25.4347 27.016 25.312 26.952C25.1893 26.8827 25.0427 26.8107 24.872 26.736C24.5253 26.5867 24.2507 26.4373 24.048 26.288C23.8507 26.1333 23.7093 25.968 23.624 25.792C23.5387 25.6107 23.496 25.4133 23.496 25.2C23.496 24.9547 23.5627 24.7387 23.696 24.552C23.8293 24.36 24.0133 24.2107 24.248 24.104C24.488 23.992 24.76 23.936 25.064 23.936C25.2667 23.936 25.456 23.9627 25.632 24.016C25.808 24.064 25.9733 24.136 26.128 24.232C26.2827 24.3227 26.4213 24.4373 26.544 24.576L26.08 25.12L26.032 25.184L25.976 25.136C25.9707 25.0933 25.96 25.0507 25.944 25.008C25.9333 24.9653 25.8987 24.912 25.84 24.848C25.728 24.7467 25.608 24.6773 25.48 24.64C25.3573 24.6027 25.2107 24.584 25.04 24.584C24.928 24.584 24.824 24.6 24.728 24.632C24.6373 24.6587 24.5573 24.7013 24.488 24.76C24.424 24.8133 24.3733 24.8747 24.336 24.944C24.304 25.0133 24.288 25.088 24.288 25.168C24.288 25.2427 24.296 25.3093 24.312 25.368C24.328 25.4267 24.3573 25.4853 24.4 25.544C24.448 25.6027 24.512 25.664 24.592 25.728C24.6773 25.7867 24.784 25.8507 24.912 25.92C25.04 25.984 25.1973 26.056 25.384 26.136C25.6347 26.248 25.8427 26.3573 26.008 26.464C26.1787 26.5707 26.312 26.6827 26.408 26.8C26.5093 26.912 26.5813 27.0373 26.624 27.176C26.6667 27.3093 26.688 27.4613 26.688 27.632C26.688 27.872 26.6267 28.104 26.504 28.328C26.3867 28.5467 26.2 28.728 25.944 28.872C25.688 29.016 25.3573 29.088 24.952 29.088ZM28.72 29.088C28.5707 29.088 28.4293 29.0667 28.296 29.024C28.168 28.9867 28.0507 28.9253 27.944 28.84C27.8373 28.7547 27.744 28.648 27.664 28.52C27.5893 28.392 27.5307 28.2373 27.488 28.056C27.4507 27.8747 27.432 27.6693 27.432 27.44L27.44 25.296H28.224V27.44C28.224 27.6267 28.24 27.7867 28.272 27.92C28.3093 28.048 28.3573 28.152 28.416 28.232C28.48 28.312 28.552 28.3707 28.632 28.408C28.712 28.44 28.7973 28.456 28.888 28.456C29.0053 28.456 29.1147 28.4347 29.216 28.392C29.3173 28.3493 29.4053 28.2853 29.48 28.2C29.56 28.1093 29.6187 27.9973 29.656 27.864C29.6987 27.7253 29.72 27.5653 29.72 27.384V25.296H30.52V28.416C30.52 28.5227 30.5227 28.624 30.528 28.72C30.5387 28.8107 30.5627 28.904 30.6 29H29.856C29.8293 28.9413 29.8107 28.8853 29.8 28.832C29.7893 28.7733 29.7813 28.7173 29.776 28.664C29.776 28.6053 29.776 28.5467 29.776 28.488C29.7227 28.5893 29.656 28.6773 29.576 28.752C29.5013 28.8267 29.416 28.8907 29.32 28.944C29.2293 28.992 29.1333 29.0267 29.032 29.048C28.936 29.0747 28.832 29.088 28.72 29.088ZM32.168 25.928H31.376V25.296H32.168V25.048C32.168 24.7173 32.2347 24.4453 32.368 24.232C32.5067 24.0133 32.688 23.8533 32.912 23.752C33.136 23.6453 33.3813 23.592 33.648 23.592C33.8933 23.592 34.12 23.6347 34.328 23.72C34.536 23.8053 34.7147 23.9333 34.864 24.104L34.528 24.656L34.488 24.72L34.432 24.688C34.4213 24.6453 34.4053 24.6027 34.384 24.56C34.368 24.5173 34.328 24.4667 34.264 24.408C34.1733 24.3387 34.0853 24.2907 34 24.264C33.9147 24.2373 33.8107 24.224 33.688 24.224C33.5387 24.224 33.408 24.2533 33.296 24.312C33.1893 24.3653 33.104 24.4533 33.04 24.576C32.9813 24.6933 32.952 24.8507 32.952 25.048V25.296H34.104V25.928H32.952V29H32.168V25.928ZM36.536 30.4C36.2907 30.4 36.064 30.352 35.856 30.256C35.648 30.1653 35.4667 30.0293 35.312 29.848L35.752 29.272L35.8 29.208L35.856 29.248C35.8667 29.2907 35.8773 29.3333 35.888 29.376C35.904 29.4187 35.9387 29.472 35.992 29.536C36.0613 29.5947 36.1387 29.6427 36.224 29.68C36.3147 29.7173 36.416 29.736 36.528 29.736C36.6773 29.736 36.8027 29.704 36.904 29.64C37.0053 29.5813 37.08 29.4853 37.128 29.352C37.1813 29.224 37.208 29.0587 37.208 28.856V25.936H35.888V25.296H38.016V28.792C38.016 29.1707 37.9467 29.4773 37.808 29.712C37.6693 29.952 37.488 30.1253 37.264 30.232C37.04 30.344 36.7973 30.4 36.536 30.4ZM37.552 24.632C37.408 24.632 37.2853 24.584 37.184 24.488C37.088 24.3867 37.04 24.2693 37.04 24.136C37.04 23.992 37.088 23.872 37.184 23.776C37.28 23.68 37.4027 23.632 37.552 23.632C37.6907 23.632 37.8107 23.6827 37.912 23.784C38.0187 23.8853 38.072 24.0027 38.072 24.136C38.072 24.2693 38.0187 24.3867 37.912 24.488C37.8107 24.584 37.6907 24.632 37.552 24.632ZM40.616 29.088C40.2053 29.088 39.8853 28.9947 39.656 28.808C39.432 28.616 39.32 28.368 39.32 28.064C39.32 27.8613 39.3653 27.68 39.456 27.52C39.552 27.3547 39.6853 27.2133 39.856 27.096C40.032 26.9787 40.2427 26.888 40.488 26.824C40.7333 26.7547 41.0107 26.72 41.32 26.72C41.384 26.72 41.4507 26.7227 41.52 26.728C41.5947 26.728 41.672 26.7307 41.752 26.736C41.8373 26.7413 41.9227 26.7467 42.008 26.752L42.032 27.32C41.9573 27.3093 41.8773 27.3013 41.792 27.296C41.712 27.2907 41.632 27.288 41.552 27.288C41.472 27.288 41.3973 27.288 41.328 27.288C41.12 27.288 40.9387 27.304 40.784 27.336C40.6347 27.3627 40.5093 27.4053 40.408 27.464C40.312 27.5227 40.24 27.5947 40.192 27.68C40.144 27.7653 40.12 27.864 40.12 27.976C40.12 28.0667 40.136 28.1467 40.168 28.216C40.2 28.28 40.2427 28.3307 40.296 28.368C40.3547 28.4053 40.4213 28.4347 40.496 28.456C40.576 28.472 40.6613 28.48 40.752 28.48C40.928 28.48 41.0827 28.4507 41.216 28.392C41.3493 28.3333 41.4613 28.248 41.552 28.136C41.648 28.0187 41.72 27.8747 41.768 27.704C41.816 27.528 41.84 27.3227 41.84 27.088C41.84 26.7627 41.8027 26.5093 41.728 26.328C41.6587 26.1467 41.5547 26.0213 41.416 25.952C41.2773 25.8827 41.104 25.848 40.896 25.848C40.7253 25.848 40.56 25.8773 40.4 25.936C40.2453 25.9893 40.0933 26.0907 39.944 26.24L39.52 25.76C39.7227 25.568 39.944 25.4293 40.184 25.344C40.4293 25.2587 40.68 25.216 40.936 25.216C41.1707 25.216 41.3867 25.2453 41.584 25.304C41.7867 25.3573 41.9627 25.448 42.112 25.576C42.2667 25.704 42.384 25.8773 42.464 26.096C42.5493 26.3147 42.592 26.592 42.592 26.928V29H41.76V28.544C41.6907 28.6507 41.6133 28.7413 41.528 28.816C41.4427 28.8853 41.3493 28.9413 41.248 28.984C41.152 29.0213 41.0507 29.048 40.944 29.064C40.8373 29.08 40.728 29.088 40.616 29.088ZM43.48 29V25.296H44.28V25.864C44.3707 25.7307 44.472 25.616 44.584 25.52C44.696 25.424 44.8213 25.3493 44.96 25.296C45.0987 25.2373 45.248 25.208 45.408 25.208C45.616 25.208 45.808 25.2613 45.984 25.368C46.16 25.4747 46.3013 25.6427 46.408 25.872C46.5147 26.096 46.568 26.3947 46.568 26.768V29H45.776V26.776C45.776 26.5573 45.752 26.3787 45.704 26.24C45.656 26.1013 45.5867 26 45.496 25.936C45.4107 25.872 45.3067 25.84 45.184 25.84C45.0773 25.84 44.9707 25.864 44.864 25.912C44.7573 25.96 44.6587 26.0267 44.568 26.112C44.4827 26.192 44.4133 26.2933 44.36 26.416C44.3067 26.5333 44.28 26.6667 44.28 26.816V29H43.48ZM52.952 29.088C52.6213 29.088 52.3147 29.0373 52.032 28.936C51.7547 28.8347 51.5173 28.6827 51.32 28.48L51.712 27.816L51.752 27.744L51.816 27.784C51.8267 27.8213 51.84 27.8613 51.856 27.904C51.872 27.9467 51.912 28 51.976 28.064C52.1093 28.1653 52.2613 28.2507 52.432 28.32C52.6027 28.384 52.7893 28.416 52.992 28.416C53.1307 28.416 53.2533 28.4 53.36 28.368C53.472 28.3307 53.568 28.2827 53.648 28.224C53.7333 28.16 53.7973 28.0853 53.84 28C53.8827 27.9093 53.904 27.8107 53.904 27.704C53.904 27.6293 53.896 27.56 53.88 27.496C53.864 27.4267 53.8347 27.3653 53.792 27.312C53.7493 27.2533 53.688 27.1947 53.608 27.136C53.5333 27.0773 53.4347 27.016 53.312 26.952C53.1893 26.8827 53.0427 26.8107 52.872 26.736C52.5253 26.5867 52.2507 26.4373 52.048 26.288C51.8507 26.1333 51.7093 25.968 51.624 25.792C51.5387 25.6107 51.496 25.4133 51.496 25.2C51.496 24.9547 51.5627 24.7387 51.696 24.552C51.8293 24.36 52.0133 24.2107 52.248 24.104C52.488 23.992 52.76 23.936 53.064 23.936C53.2667 23.936 53.456 23.9627 53.632 24.016C53.808 24.064 53.9733 24.136 54.128 24.232C54.2827 24.3227 54.4213 24.4373 54.544 24.576L54.08 25.12L54.032 25.184L53.976 25.136C53.9707 25.0933 53.96 25.0507 53.944 25.008C53.9333 24.9653 53.8987 24.912 53.84 24.848C53.728 24.7467 53.608 24.6773 53.48 24.64C53.3573 24.6027 53.2107 24.584 53.04 24.584C52.928 24.584 52.824 24.6 52.728 24.632C52.6373 24.6587 52.5573 24.7013 52.488 24.76C52.424 24.8133 52.3733 24.8747 52.336 24.944C52.304 25.0133 52.288 25.088 52.288 25.168C52.288 25.2427 52.296 25.3093 52.312 25.368C52.328 25.4267 52.3573 25.4853 52.4 25.544C52.448 25.6027 52.512 25.664 52.592 25.728C52.6773 25.7867 52.784 25.8507 52.912 25.92C53.04 25.984 53.1973 26.056 53.384 26.136C53.6347 26.248 53.8427 26.3573 54.008 26.464C54.1787 26.5707 54.312 26.6827 54.408 26.8C54.5093 26.912 54.5813 27.0373 54.624 27.176C54.6667 27.3093 54.688 27.4613 54.688 27.632C54.688 27.872 54.6267 28.104 54.504 28.328C54.3867 28.5467 54.2 28.728 53.944 28.872C53.688 29.016 53.3573 29.088 52.952 29.088ZM57.392 29.072C57.1733 29.072 56.984 29.0373 56.824 28.968C56.6693 28.8933 56.544 28.776 56.448 28.616C56.3573 28.456 56.2933 28.248 56.256 27.992C56.2187 27.736 56.2053 27.424 56.216 27.056L56.32 24.4L57.136 24.296L57.216 24.288L57.224 24.36C57.1973 24.3973 57.1733 24.4347 57.152 24.472C57.136 24.5093 57.1227 24.5733 57.112 24.664L57.032 25.696L57.064 25.784L57.008 27.056C56.992 27.4187 57.0027 27.7013 57.04 27.904C57.0773 28.1013 57.1413 28.24 57.232 28.32C57.3227 28.3947 57.432 28.432 57.56 28.432C57.7307 28.432 57.8827 28.3973 58.016 28.328C58.1547 28.2587 58.2907 28.1733 58.424 28.072L58.6 28.664C58.4187 28.7973 58.2293 28.8987 58.032 28.968C57.8347 29.0373 57.6213 29.072 57.392 29.072ZM55.496 25.296H58.288L58.28 25.936H55.496V25.296ZM61.168 29.088C60.9013 29.088 60.656 29.0453 60.432 28.96C60.208 28.8747 60.0133 28.752 59.848 28.592C59.688 28.4267 59.5627 28.224 59.472 27.984C59.3813 27.744 59.336 27.472 59.336 27.168C59.336 26.8587 59.3813 26.584 59.472 26.344C59.5627 26.0987 59.6853 25.8933 59.84 25.728C60 25.5627 60.184 25.4347 60.392 25.344C60.6053 25.2533 60.832 25.208 61.072 25.208C61.28 25.208 61.4773 25.2453 61.664 25.32C61.856 25.3947 62.0213 25.5067 62.16 25.656C62.304 25.8 62.416 25.984 62.496 26.208C62.5813 26.432 62.624 26.6933 62.624 26.992C62.624 27.0453 62.624 27.1067 62.624 27.176C62.624 27.24 62.6213 27.296 62.616 27.344H60.104C60.1147 27.536 60.152 27.704 60.216 27.848C60.28 27.9867 60.36 28.1013 60.456 28.192C60.5573 28.2827 60.672 28.3493 60.8 28.392C60.928 28.4347 61.0613 28.456 61.2 28.456C61.3227 28.456 61.4347 28.4453 61.536 28.424C61.6427 28.3973 61.744 28.3573 61.84 28.304C61.936 28.2507 62.024 28.1787 62.104 28.088L62.52 28.496C62.408 28.6293 62.2827 28.7413 62.144 28.832C62.0053 28.9173 61.8533 28.9813 61.688 29.024C61.528 29.0667 61.3547 29.088 61.168 29.088ZM60.12 26.744H61.848C61.848 26.5947 61.8293 26.464 61.792 26.352C61.7547 26.24 61.6987 26.144 61.624 26.064C61.5547 25.984 61.4693 25.9253 61.368 25.888C61.2667 25.8453 61.1547 25.824 61.032 25.824C60.9147 25.824 60.8053 25.8427 60.704 25.88C60.608 25.9173 60.52 25.9733 60.44 26.048C60.36 26.1227 60.2907 26.2187 60.232 26.336C60.1787 26.448 60.1413 26.584 60.12 26.744ZM64.672 29L63.264 25.296H64.088L65.112 28.08H64.992L65.544 26.776C65.6507 26.504 65.7387 26.2453 65.808 26C65.8773 25.7547 65.9227 25.52 65.944 25.296H66.688C66.656 25.5307 66.5947 25.7813 66.504 26.048C66.4187 26.3093 66.3173 26.5813 66.2 26.864L65.304 29H64.672ZM69.168 29.088C68.9013 29.088 68.656 29.0453 68.432 28.96C68.208 28.8747 68.0133 28.752 67.848 28.592C67.688 28.4267 67.5627 28.224 67.472 27.984C67.3813 27.744 67.336 27.472 67.336 27.168C67.336 26.8587 67.3813 26.584 67.472 26.344C67.5627 26.0987 67.6853 25.8933 67.84 25.728C68 25.5627 68.184 25.4347 68.392 25.344C68.6053 25.2533 68.832 25.208 69.072 25.208C69.28 25.208 69.4773 25.2453 69.664 25.32C69.856 25.3947 70.0213 25.5067 70.16 25.656C70.304 25.8 70.416 25.984 70.496 26.208C70.5813 26.432 70.624 26.6933 70.624 26.992C70.624 27.0453 70.624 27.1067 70.624 27.176C70.624 27.24 70.6213 27.296 70.616 27.344H68.104C68.1147 27.536 68.152 27.704 68.216 27.848C68.28 27.9867 68.36 28.1013 68.456 28.192C68.5573 28.2827 68.672 28.3493 68.8 28.392C68.928 28.4347 69.0613 28.456 69.2 28.456C69.3227 28.456 69.4347 28.4453 69.536 28.424C69.6427 28.3973 69.744 28.3573 69.84 28.304C69.936 28.2507 70.024 28.1787 70.104 28.088L70.52 28.496C70.408 28.6293 70.2827 28.7413 70.144 28.832C70.0053 28.9173 69.8533 28.9813 69.688 29.024C69.528 29.0667 69.3547 29.088 69.168 29.088ZM68.12 26.744H69.848C69.848 26.5947 69.8293 26.464 69.792 26.352C69.7547 26.24 69.6987 26.144 69.624 26.064C69.5547 25.984 69.4693 25.9253 69.368 25.888C69.2667 25.8453 69.1547 25.824 69.032 25.824C68.9147 25.824 68.8053 25.8427 68.704 25.88C68.608 25.9173 68.52 25.9733 68.44 26.048C68.36 26.1227 68.2907 26.2187 68.232 26.336C68.1787 26.448 68.1413 26.584 68.12 26.744ZM71.48 29V25.296H72.28V25.864C72.3707 25.7307 72.472 25.616 72.584 25.52C72.696 25.424 72.8213 25.3493 72.96 25.296C73.0987 25.2373 73.248 25.208 73.408 25.208C73.616 25.208 73.808 25.2613 73.984 25.368C74.16 25.4747 74.3013 25.6427 74.408 25.872C74.5147 26.096 74.568 26.3947 74.568 26.768V29H73.776V26.776C73.776 26.5573 73.752 26.3787 73.704 26.24C73.656 26.1013 73.5867 26 73.496 25.936C73.4107 25.872 73.3067 25.84 73.184 25.84C73.0773 25.84 72.9707 25.864 72.864 25.912C72.7573 25.96 72.6587 26.0267 72.568 26.112C72.4827 26.192 72.4133 26.2933 72.36 26.416C72.3067 26.5333 72.28 26.6667 72.28 26.816V29H71.48ZM77.056 29.088C76.832 29.088 76.6213 29.0667 76.424 29.024C76.2267 28.9813 76.04 28.9173 75.864 28.832C75.6933 28.7467 75.536 28.6373 75.392 28.504L75.76 27.832L75.808 27.76L75.864 27.792C75.8747 27.8347 75.888 27.88 75.904 27.928C75.92 27.9707 75.9573 28.024 76.016 28.088C76.144 28.2 76.2907 28.2907 76.456 28.36C76.6213 28.424 76.824 28.456 77.064 28.456C77.2293 28.456 77.368 28.4373 77.48 28.4C77.5973 28.3573 77.688 28.3013 77.752 28.232C77.816 28.1573 77.848 28.0747 77.848 27.984C77.848 27.9147 77.8293 27.856 77.792 27.808C77.76 27.7547 77.7093 27.7067 77.64 27.664C77.5707 27.616 77.48 27.5707 77.368 27.528C77.256 27.48 77.12 27.4347 76.96 27.392C76.688 27.312 76.4507 27.2213 76.248 27.12C76.0453 27.0133 75.888 26.888 75.776 26.744C75.664 26.6 75.608 26.4293 75.608 26.232C75.608 26.0347 75.664 25.8613 75.776 25.712C75.8933 25.5573 76.0587 25.4347 76.272 25.344C76.4853 25.2533 76.7387 25.208 77.032 25.208C77.192 25.208 77.3413 25.2213 77.48 25.248C77.624 25.2693 77.7547 25.304 77.872 25.352C77.9947 25.4 78.1093 25.4613 78.216 25.536C78.3227 25.6053 78.424 25.688 78.52 25.784L78.112 26.328L78.064 26.392L78.008 26.344C78.0027 26.3013 77.9893 26.2613 77.968 26.224C77.952 26.1867 77.9147 26.1387 77.856 26.08C77.7387 25.9947 77.6107 25.9307 77.472 25.888C77.3333 25.8453 77.192 25.824 77.048 25.824C76.8613 25.824 76.696 25.856 76.552 25.92C76.4133 25.984 76.344 26.08 76.344 26.208C76.344 26.2827 76.3733 26.352 76.432 26.416C76.496 26.48 76.5973 26.544 76.736 26.608C76.8747 26.6667 77.064 26.728 77.304 26.792C77.608 26.872 77.8533 26.9653 78.04 27.072C78.2267 27.1733 78.3627 27.2933 78.448 27.432C78.5387 27.5707 78.584 27.7333 78.584 27.92C78.584 28.128 78.5253 28.3227 78.408 28.504C78.296 28.68 78.1253 28.8213 77.896 28.928C77.6667 29.0347 77.3867 29.088 77.056 29.088Z" fill="white"/>
</svg>
