<svg width="102" height="44" viewBox="0 0 102 44" fill="none" xmlns="http://www.w3.org/2000/svg">
<path d="M47.5 37H1V1H101V37H54.5L51 43L47.5 37Z" fill="black" stroke="black"/>
<path d="M22.79 11V5.94H21.18V4.77H25.84V5.94H24.13V11H22.79ZM28.49 11.12C28.07 11.12 27.6867 11.02 27.34 10.82C26.9933 10.6133 26.7167 10.3233 26.51 9.95C26.3033 9.57667 26.2 9.14333 26.2 8.65C26.2 8.19 26.3033 7.77333 26.51 7.4C26.7167 7.02667 26.9933 6.73 27.34 6.51C27.6867 6.29 28.07 6.18 28.49 6.18C28.91 6.18 29.2933 6.29 29.64 6.51C29.9933 6.73 30.2733 7.02667 30.48 7.4C30.6933 7.77333 30.8 8.19 30.8 8.65C30.8 9.13667 30.6933 9.56667 30.48 9.94C30.2733 10.3133 29.9933 10.6033 29.64 10.81C29.2933 11.0167 28.91 11.12 28.49 11.12ZM28.49 10.01C28.67 10.01 28.8267 9.95333 28.96 9.84C29.1 9.72667 29.21 9.57 29.29 9.37C29.37 9.16333 29.41 8.92333 29.41 8.65C29.41 8.35667 29.37 8.11 29.29 7.91C29.21 7.71 29.1 7.55667 28.96 7.45C28.8267 7.34333 28.67 7.29 28.49 7.29C28.3233 7.29 28.17 7.34333 28.03 7.45C27.8967 7.55667 27.79 7.71 27.71 7.91C27.63 8.11 27.59 8.35667 27.59 8.65C27.59 8.92333 27.6267 9.16333 27.7 9.37C27.78 9.57 27.8867 9.72667 28.02 9.84C28.16 9.95333 28.3167 10.01 28.49 10.01ZM36.46 11V4.77H40.67V5.89H37.85V7.2H40.16V8.32H37.85V9.88H40.65V11H36.46ZM41.43 11V6.29H42.86V6.83C42.9667 6.70333 43.0767 6.59333 43.19 6.5C43.3033 6.4 43.43 6.32333 43.57 6.27C43.7167 6.21 43.88 6.18 44.06 6.18C44.34 6.18 44.6033 6.25 44.85 6.39C45.0967 6.52333 45.2967 6.73667 45.45 7.03C45.6033 7.31667 45.68 7.69667 45.68 8.17V11H44.26V8.18C44.26 7.96667 44.24 7.79 44.2 7.65C44.16 7.50333 44.0967 7.39333 44.01 7.32C43.9233 7.24667 43.8133 7.21 43.68 7.21C43.5733 7.21 43.47 7.23333 43.37 7.28C43.27 7.32 43.18 7.38 43.1 7.46C43.0267 7.54 42.9667 7.63667 42.92 7.75C42.88 7.86333 42.86 7.99 42.86 8.13V11H41.43ZM47.89 12.77C47.5567 12.77 47.2567 12.7033 46.99 12.57C46.73 12.4433 46.4867 12.2567 46.26 12.01L47.02 11.01L47.08 10.94L47.17 11C47.1833 11.0533 47.1933 11.1067 47.2 11.16C47.2133 11.22 47.2533 11.2933 47.32 11.38C47.3933 11.4533 47.4733 11.51 47.56 11.55C47.6533 11.5967 47.7633 11.62 47.89 11.62C48.0433 11.62 48.16 11.59 48.24 11.53C48.3267 11.47 48.3833 11.3767 48.41 11.25C48.4433 11.13 48.46 10.9833 48.46 10.81V7.39H46.89V6.29H49.89V10.67C49.89 11.17 49.7933 11.5733 49.6 11.88C49.4067 12.1933 49.1567 12.42 48.85 12.56C48.55 12.7 48.23 12.77 47.89 12.77ZM49.08 5.65C48.8467 5.65 48.6467 5.57333 48.48 5.42C48.32 5.26 48.24 5.07333 48.24 4.86C48.24 4.62667 48.3167 4.43667 48.47 4.29C48.63 4.14333 48.8333 4.07 49.08 4.07C49.3 4.07 49.4933 4.15 49.66 4.31C49.8333 4.46333 49.92 4.64667 49.92 4.86C49.92 5.07333 49.8333 5.26 49.66 5.42C49.4933 5.57333 49.3 5.65 49.08 5.65ZM53.49 11.12C53.07 11.12 52.6867 11.02 52.34 10.82C51.9933 10.6133 51.7167 10.3233 51.51 9.95C51.3033 9.57667 51.2 9.14333 51.2 8.65C51.2 8.19 51.3033 7.77333 51.51 7.4C51.7167 7.02667 51.9933 6.73 52.34 6.51C52.6867 6.29 53.07 6.18 53.49 6.18C53.91 6.18 54.2933 6.29 54.64 6.51C54.9933 6.73 55.2733 7.02667 55.48 7.4C55.6933 7.77333 55.8 8.19 55.8 8.65C55.8 9.13667 55.6933 9.56667 55.48 9.94C55.2733 10.3133 54.9933 10.6033 54.64 10.81C54.2933 11.0167 53.91 11.12 53.49 11.12ZM53.49 10.01C53.67 10.01 53.8267 9.95333 53.96 9.84C54.1 9.72667 54.21 9.57 54.29 9.37C54.37 9.16333 54.41 8.92333 54.41 8.65C54.41 8.35667 54.37 8.11 54.29 7.91C54.21 7.71 54.1 7.55667 53.96 7.45C53.8267 7.34333 53.67 7.29 53.49 7.29C53.3233 7.29 53.17 7.34333 53.03 7.45C52.8967 7.55667 52.79 7.71 52.71 7.91C52.63 8.11 52.59 8.35667 52.59 8.65C52.59 8.92333 52.6267 9.16333 52.7 9.37C52.78 9.57 52.8867 9.72667 53.02 9.84C53.16 9.95333 53.3167 10.01 53.49 10.01ZM57.25 12.77C57.0233 12.77 56.8233 12.73 56.65 12.65C56.4767 12.57 56.2933 12.4567 56.1 12.31L56.55 11.34L56.58 11.26L56.68 11.3C56.7067 11.3467 56.7333 11.3967 56.76 11.45C56.7867 11.5033 56.8433 11.5633 56.93 11.63C56.97 11.6567 57.0133 11.6767 57.06 11.69C57.1133 11.7033 57.1667 11.71 57.22 11.71C57.3267 11.71 57.42 11.6767 57.5 11.61C57.58 11.55 57.6567 11.4533 57.73 11.32C57.8033 11.1867 57.88 11.01 57.96 10.79L59.06 7.83C59.16 7.55667 59.2367 7.3 59.29 7.06C59.3433 6.81333 59.37 6.55667 59.37 6.29H60.64C60.6333 6.59 60.5667 6.91333 60.44 7.26C60.32 7.6 60.2033 7.92 60.09 8.22L58.93 11.33C58.73 11.8633 58.4933 12.2367 58.22 12.45C57.9467 12.6633 57.6233 12.77 57.25 12.77ZM56.21 6.29H57.6L58.89 9.67L58.12 11.09L56.21 6.29ZM66.74 11V9.9H67.86V7.39H66.79V6.29H69.28V9.9H70.3V11H66.74ZM68.5 5.65C68.2667 5.65 68.0667 5.57333 67.9 5.42C67.74 5.26 67.66 5.07333 67.66 4.86C67.66 4.62667 67.7367 4.43667 67.89 4.29C68.05 4.14333 68.2533 4.07 68.5 4.07C68.72 4.07 68.9133 4.15 69.08 4.31C69.2533 4.46333 69.34 4.64667 69.34 4.86C69.34 5.07333 69.2533 5.26 69.08 5.42C68.9133 5.57333 68.72 5.65 68.5 5.65ZM73.65 11.12C73.3433 11.12 73.05 11.0933 72.77 11.04C72.4967 10.9933 72.2433 10.9167 72.01 10.81C71.7767 10.6967 71.5633 10.55 71.37 10.37L71.93 9.29L71.97 9.21L72.06 9.26C72.08 9.30667 72.1 9.36 72.12 9.42C72.1467 9.47333 72.2 9.53667 72.28 9.61C72.4667 9.75 72.67 9.85667 72.89 9.93C73.1167 10.0033 73.3733 10.04 73.66 10.04C73.8067 10.04 73.93 10.0233 74.03 9.99C74.1367 9.95667 74.2167 9.91333 74.27 9.86C74.33 9.8 74.36 9.73667 74.36 9.67C74.36 9.60333 74.3367 9.54667 74.29 9.5C74.25 9.45333 74.1867 9.41333 74.1 9.38C74.02 9.34 73.9133 9.3 73.78 9.26C73.6467 9.22 73.49 9.17667 73.31 9.13C72.9767 9.04333 72.6867 8.93667 72.44 8.81C72.2 8.68333 72.0133 8.52667 71.88 8.34C71.7467 8.14667 71.68 7.91667 71.68 7.65C71.68 7.37667 71.7633 7.13 71.93 6.91C72.0967 6.69 72.3233 6.51333 72.61 6.38C72.9033 6.24667 73.2367 6.18 73.61 6.18C73.79 6.18 73.9667 6.19667 74.14 6.23C74.32 6.25667 74.49 6.3 74.65 6.36C74.81 6.41333 74.9633 6.48667 75.11 6.58C75.2567 6.66667 75.3933 6.77 75.52 6.89L74.87 7.84L74.81 7.92L74.72 7.85C74.7133 7.79667 74.6967 7.74667 74.67 7.7C74.65 7.65333 74.6 7.59333 74.52 7.52C74.3933 7.43333 74.2533 7.37333 74.1 7.34C73.9533 7.3 73.7967 7.28 73.63 7.28C73.4367 7.28 73.2667 7.31 73.12 7.37C72.9733 7.43 72.9 7.52 72.9 7.64C72.9 7.72 72.94 7.78667 73.02 7.84C73.1 7.89333 73.2167 7.94333 73.37 7.99C73.53 8.03 73.7267 8.07667 73.96 8.13C74.3333 8.21 74.64 8.32 74.88 8.46C75.12 8.59333 75.2967 8.75667 75.41 8.95C75.53 9.14333 75.59 9.36667 75.59 9.62C75.59 9.88667 75.5133 10.1367 75.36 10.37C75.2067 10.5967 74.9833 10.78 74.69 10.92C74.4033 11.0533 74.0567 11.12 73.65 11.12ZM18.99 21.12C18.7433 21.12 18.5167 21.08 18.31 21C18.1033 20.9267 17.9267 20.8 17.78 20.62C17.6333 20.4333 17.5233 20.18 17.45 19.86C17.3767 19.54 17.35 19.1333 17.37 18.64L17.51 15.24L18.95 15.05L19.04 15.04L19.05 15.15C19.0233 15.1967 18.9967 15.2433 18.97 15.29C18.9433 15.3367 18.9267 15.4167 18.92 15.53L18.8 17.07H18.86L18.78 18.57C18.76 18.95 18.7733 19.2467 18.82 19.46C18.8733 19.6667 18.9467 19.81 19.04 19.89C19.14 19.97 19.2433 20.01 19.35 20.01C19.5567 20.01 19.7433 19.9667 19.91 19.88C20.0833 19.7933 20.2333 19.6967 20.36 19.59L20.6 20.58C20.3733 20.7467 20.1267 20.88 19.86 20.98C19.6 21.0733 19.31 21.12 18.99 21.12ZM16.51 16.29H20.29L20.27 17.39H16.49L16.51 16.29ZM21.43 14.25H22.85H22.94V14.36C22.9067 14.4 22.8833 14.4433 22.87 14.49C22.8633 14.5367 22.86 14.6167 22.86 14.73V16.77C22.9667 16.6233 23.09 16.51 23.23 16.43C23.37 16.3433 23.5167 16.28 23.67 16.24C23.83 16.2 23.9833 16.18 24.13 16.18C24.45 16.18 24.7233 16.25 24.95 16.39C25.1833 16.5233 25.3633 16.7367 25.49 17.03C25.6167 17.3233 25.68 17.7033 25.68 18.17V21H24.26V18.18C24.26 17.94 24.24 17.75 24.2 17.61C24.16 17.4633 24.1 17.36 24.02 17.3C23.9467 17.24 23.85 17.21 23.73 17.21C23.6167 17.21 23.5133 17.2267 23.42 17.26C23.3333 17.2933 23.2533 17.34 23.18 17.4C23.1133 17.46 23.0533 17.5367 23 17.63C22.9533 17.7167 22.9167 17.8167 22.89 17.93C22.87 18.0433 22.86 18.1667 22.86 18.3V21H21.43V14.25ZM28.7 21.12C28.3667 21.12 28.0533 21.0667 27.76 20.96C27.4733 20.8467 27.22 20.6867 27 20.48C26.7867 20.2733 26.62 20.02 26.5 19.72C26.38 19.4133 26.32 19.07 26.32 18.69C26.32 18.3033 26.3767 17.9567 26.49 17.65C26.61 17.3367 26.77 17.0733 26.97 16.86C27.1767 16.64 27.4167 16.4733 27.69 16.36C27.9633 16.24 28.26 16.18 28.58 16.18C28.8533 16.18 29.1133 16.23 29.36 16.33C29.6133 16.43 29.8367 16.58 30.03 16.78C30.2233 16.9733 30.3767 17.2167 30.49 17.51C30.6033 17.7967 30.66 18.1267 30.66 18.5C30.66 18.58 30.66 18.68 30.66 18.8C30.66 18.92 30.6567 19.0167 30.65 19.09H27.68C27.6933 19.2567 27.7333 19.4 27.8 19.52C27.8667 19.6333 27.95 19.73 28.05 19.81C28.1567 19.8833 28.27 19.94 28.39 19.98C28.5167 20.0133 28.6433 20.03 28.77 20.03C28.9033 20.03 29.03 20.02 29.15 20C29.27 19.98 29.3867 19.9433 29.5 19.89C29.6133 19.83 29.7233 19.7467 29.83 19.64L30.53 20.32C30.37 20.5067 30.1933 20.66 30 20.78C29.8067 20.9 29.6 20.9867 29.38 21.04C29.16 21.0933 28.9333 21.12 28.7 21.12ZM27.69 18.05H29.32C29.32 17.9167 29.3033 17.8033 29.27 17.71C29.2367 17.61 29.1867 17.53 29.12 17.47C29.0533 17.4033 28.97 17.3567 28.87 17.33C28.77 17.2967 28.6567 17.28 28.53 17.28C28.4167 17.28 28.31 17.2967 28.21 17.33C28.1167 17.3567 28.0333 17.4033 27.96 17.47C27.8867 17.53 27.8267 17.61 27.78 17.71C27.7333 17.8033 27.7033 17.9167 27.69 18.05ZM38.53 21.12C37.9967 21.12 37.5533 20.9933 37.2 20.74C36.8467 20.4867 36.58 20.12 36.4 19.64C36.2267 19.1533 36.14 18.5633 36.14 17.87C36.14 17.1833 36.2267 16.6033 36.4 16.13C36.58 15.65 36.8467 15.2833 37.2 15.03C37.5533 14.7767 37.9967 14.65 38.53 14.65C39.0567 14.65 39.4967 14.7767 39.85 15.03C40.2033 15.2833 40.47 15.65 40.65 16.13C40.83 16.6033 40.92 17.1833 40.92 17.87C40.92 18.5633 40.83 19.1533 40.65 19.64C40.47 20.1267 40.2033 20.4967 39.85 20.75C39.4967 20.9967 39.0567 21.12 38.53 21.12ZM38.53 20C38.7367 20 38.9133 19.9267 39.06 19.78C39.2067 19.6267 39.32 19.3933 39.4 19.08C39.4867 18.76 39.53 18.35 39.53 17.85C39.53 17.39 39.4867 17.0067 39.4 16.7C39.32 16.3867 39.2067 16.1533 39.06 16C38.9133 15.8467 38.7367 15.77 38.53 15.77C38.3167 15.77 38.1333 15.8467 37.98 16C37.8333 16.1533 37.72 16.3867 37.64 16.7C37.5667 17.0067 37.53 17.39 37.53 17.85C37.53 18.35 37.5667 18.76 37.64 19.08C37.72 19.3933 37.8333 19.6267 37.98 19.78C38.1333 19.9267 38.3167 20 38.53 20ZM41.43 21V16.29H42.86V16.83C42.9667 16.7033 43.0767 16.5933 43.19 16.5C43.3033 16.4 43.43 16.3233 43.57 16.27C43.7167 16.21 43.88 16.18 44.06 16.18C44.34 16.18 44.6033 16.25 44.85 16.39C45.0967 16.5233 45.2967 16.7367 45.45 17.03C45.6033 17.3167 45.68 17.6967 45.68 18.17V21H44.26V18.18C44.26 17.9667 44.24 17.79 44.2 17.65C44.16 17.5033 44.0967 17.3933 44.01 17.32C43.9233 17.2467 43.8133 17.21 43.68 17.21C43.5733 17.21 43.47 17.2333 43.37 17.28C43.27 17.32 43.18 17.38 43.1 17.46C43.0267 17.54 42.9667 17.6367 42.92 17.75C42.88 17.8633 42.86 17.99 42.86 18.13V21H41.43ZM46.52 21V19.9H47.8V15.35H46.58V14.25H49.22V19.9H50.49V21H46.52ZM52.25 22.77C52.0233 22.77 51.8233 22.73 51.65 22.65C51.4767 22.57 51.2933 22.4567 51.1 22.31L51.55 21.34L51.58 21.26L51.68 21.3C51.7067 21.3467 51.7333 21.3967 51.76 21.45C51.7867 21.5033 51.8433 21.5633 51.93 21.63C51.97 21.6567 52.0133 21.6767 52.06 21.69C52.1133 21.7033 52.1667 21.71 52.22 21.71C52.3267 21.71 52.42 21.6767 52.5 21.61C52.58 21.55 52.6567 21.4533 52.73 21.32C52.8033 21.1867 52.88 21.01 52.96 20.79L54.06 17.83C54.16 17.5567 54.2367 17.3 54.29 17.06C54.3433 16.8133 54.37 16.5567 54.37 16.29H55.64C55.6333 16.59 55.5667 16.9133 55.44 17.26C55.32 17.6 55.2033 17.92 55.09 18.22L53.93 21.33C53.73 21.8633 53.4933 22.2367 53.22 22.45C52.9467 22.6633 52.6233 22.77 52.25 22.77ZM51.21 16.29H52.6L53.89 19.67L53.12 21.09L51.21 16.29ZM62.79 21V15.94H61.18V14.77H65.84V15.94H64.13V21H62.79ZM66.43 14.25H67.85H67.94V14.36C67.9067 14.4 67.8833 14.4433 67.87 14.49C67.8633 14.5367 67.86 14.6167 67.86 14.73V16.77C67.9667 16.6233 68.09 16.51 68.23 16.43C68.37 16.3433 68.5167 16.28 68.67 16.24C68.83 16.2 68.9833 16.18 69.13 16.18C69.45 16.18 69.7233 16.25 69.95 16.39C70.1833 16.5233 70.3633 16.7367 70.49 17.03C70.6167 17.3233 70.68 17.7033 70.68 18.17V21H69.26V18.18C69.26 17.94 69.24 17.75 69.2 17.61C69.16 17.4633 69.1 17.36 69.02 17.3C68.9467 17.24 68.85 17.21 68.73 17.21C68.6167 17.21 68.5133 17.2267 68.42 17.26C68.3333 17.2933 68.2533 17.34 68.18 17.4C68.1133 17.46 68.0533 17.5367 68 17.63C67.9533 17.7167 67.9167 17.8167 67.89 17.93C67.87 18.0433 67.86 18.1667 67.86 18.3V21H66.43V14.25ZM71.74 21V19.9H72.86V17.39H71.79V16.29H74.28V19.9H75.3V21H71.74ZM73.5 15.65C73.2667 15.65 73.0667 15.5733 72.9 15.42C72.74 15.26 72.66 15.0733 72.66 14.86C72.66 14.6267 72.7367 14.4367 72.89 14.29C73.05 14.1433 73.2533 14.07 73.5 14.07C73.72 14.07 73.9133 14.15 74.08 14.31C74.2533 14.4633 74.34 14.6467 74.34 14.86C74.34 15.0733 74.2533 15.26 74.08 15.42C73.9133 15.5733 73.72 15.65 73.5 15.65ZM76.43 21V16.29H77.86V16.83C77.9667 16.7033 78.0767 16.5933 78.19 16.5C78.3033 16.4 78.43 16.3233 78.57 16.27C78.7167 16.21 78.88 16.18 79.06 16.18C79.34 16.18 79.6033 16.25 79.85 16.39C80.0967 16.5233 80.2967 16.7367 80.45 17.03C80.6033 17.3167 80.68 17.6967 80.68 18.17V21H79.26V18.18C79.26 17.9667 79.24 17.79 79.2 17.65C79.16 17.5033 79.0967 17.3933 79.01 17.32C78.9233 17.2467 78.8133 17.21 78.68 17.21C78.5733 17.21 78.47 17.2333 78.37 17.28C78.27 17.32 78.18 17.38 78.1 17.46C78.0267 17.54 77.9667 17.6367 77.92 17.75C77.88 17.8633 77.86 17.99 77.86 18.13V21H76.43ZM83.33 22.83C82.9967 22.83 82.6967 22.7967 82.43 22.73C82.17 22.67 81.95 22.5833 81.77 22.47C81.59 22.3567 81.4533 22.2233 81.36 22.07C81.2667 21.9167 81.22 21.7533 81.22 21.58C81.22 21.4333 81.26 21.2933 81.34 21.16C81.42 21.0267 81.53 20.9067 81.67 20.8C81.81 20.6867 81.9633 20.5967 82.13 20.53L82.78 20.76C82.7067 20.82 82.6233 20.88 82.53 20.94C82.4433 20.9933 82.37 21.05 82.31 21.11C82.25 21.1767 82.22 21.2533 82.22 21.34C82.22 21.4133 82.2533 21.4733 82.32 21.52C82.3867 21.5733 82.4767 21.6133 82.59 21.64C82.71 21.6733 82.8433 21.6967 82.99 21.71C83.1433 21.7233 83.3067 21.73 83.48 21.73C83.7 21.73 83.89 21.7133 84.05 21.68C84.2167 21.6467 84.3433 21.5967 84.43 21.53C84.5233 21.4633 84.57 21.3867 84.57 21.3C84.57 21.2267 84.5433 21.17 84.49 21.13C84.4367 21.09 84.35 21.06 84.23 21.04C84.11 21.0267 83.9533 21.02 83.76 21.02C83.5533 21.02 83.34 21.0133 83.12 21C82.9067 20.98 82.7 20.9467 82.5 20.9C82.3 20.8533 82.1167 20.79 81.95 20.71C81.79 20.63 81.6633 20.53 81.57 20.41C81.4767 20.2833 81.43 20.13 81.43 19.95C81.43 19.7033 81.5067 19.5 81.66 19.34C81.8133 19.1733 81.99 19.03 82.19 18.91L82.82 19.22C82.76 19.2733 82.7 19.3167 82.64 19.35C82.5867 19.3767 82.54 19.4067 82.5 19.44C82.4667 19.4667 82.45 19.5133 82.45 19.58C82.45 19.64 82.51 19.6933 82.63 19.74C82.75 19.7867 82.9367 19.8233 83.19 19.85C83.4433 19.87 83.77 19.88 84.17 19.88C84.43 19.88 84.6533 19.9167 84.84 19.99C85.0333 20.0567 85.19 20.1533 85.31 20.28C85.4367 20.4 85.53 20.5367 85.59 20.69C85.65 20.8433 85.68 21.0067 85.68 21.18C85.68 21.3867 85.63 21.5867 85.53 21.78C85.4367 21.98 85.29 22.1567 85.09 22.31C84.8967 22.47 84.6533 22.5967 84.36 22.69C84.0667 22.7833 83.7233 22.83 83.33 22.83ZM83.32 19.42C82.9933 19.42 82.69 19.35 82.41 19.21C82.1367 19.07 81.9167 18.88 81.75 18.64C81.59 18.4 81.51 18.1267 81.51 17.82C81.51 17.5133 81.59 17.2367 81.75 16.99C81.9167 16.7433 82.1367 16.5467 82.41 16.4C82.69 16.2533 82.9933 16.18 83.32 16.18C83.6533 16.18 83.9567 16.2533 84.23 16.4C84.5033 16.5467 84.72 16.7433 84.88 16.99C85.0467 17.2367 85.13 17.5133 85.13 17.82C85.13 18.1267 85.0467 18.4 84.88 18.64C84.72 18.88 84.5033 19.07 84.23 19.21C83.9567 19.35 83.6533 19.42 83.32 19.42ZM83.31 18.45C83.43 18.45 83.5367 18.4267 83.63 18.38C83.7233 18.3267 83.7967 18.2533 83.85 18.16C83.91 18.06 83.94 17.9467 83.94 17.82C83.94 17.6933 83.91 17.5867 83.85 17.5C83.7967 17.4133 83.72 17.3467 83.62 17.3C83.5267 17.2467 83.4233 17.22 83.31 17.22C83.2167 17.22 83.1233 17.2467 83.03 17.3C82.9367 17.3533 82.8567 17.4267 82.79 17.52C82.73 17.6067 82.7 17.7067 82.7 17.82C82.7 17.9333 82.7267 18.04 82.78 18.14C82.84 18.2333 82.9167 18.31 83.01 18.37C83.1033 18.4233 83.2033 18.45 83.31 18.45ZM84.84 17.22L84.31 16.55C84.4967 16.43 84.72 16.3333 84.98 16.26C85.24 16.1867 85.5067 16.16 85.78 16.18L85.9 17.08C85.7133 17.0333 85.5233 17.0267 85.33 17.06C85.1367 17.0867 84.9733 17.14 84.84 17.22Z" fill="white"/>
<path d="M31.432 31V26.008H34.608V26.664H32.192V28.072H34.184V28.736H32.192V30.344H34.592V31H31.432ZM35.792 27.296H36.616L36.6 28.352L36.504 28.264C36.5307 28.104 36.5813 27.96 36.656 27.832C36.7307 27.6987 36.8213 27.5867 36.928 27.496C37.04 27.4053 37.1627 27.336 37.296 27.288C37.4293 27.2347 37.568 27.208 37.712 27.208C37.9147 27.208 38.0987 27.2427 38.264 27.312C38.4293 27.3813 38.5787 27.4853 38.712 27.624L38.376 28.28L38.344 28.352L38.28 28.32C38.264 28.2773 38.248 28.2347 38.232 28.192C38.216 28.1493 38.176 28.0987 38.112 28.04C38.032 27.9867 37.952 27.9467 37.872 27.92C37.7973 27.8933 37.7093 27.88 37.608 27.88C37.48 27.88 37.3547 27.904 37.232 27.952C37.1147 27.9947 37.008 28.064 36.912 28.16C36.816 28.256 36.7387 28.3787 36.68 28.528C36.6267 28.672 36.6 28.848 36.6 29.056V31.008H35.792V27.296ZM39.544 31V30.368H40.6V26.28H39.592V25.648H41.408V30.368H42.456V31H39.544ZM45.168 31.088C44.9013 31.088 44.656 31.0453 44.432 30.96C44.208 30.8747 44.0133 30.752 43.848 30.592C43.688 30.4267 43.5627 30.224 43.472 29.984C43.3813 29.744 43.336 29.472 43.336 29.168C43.336 28.8587 43.3813 28.584 43.472 28.344C43.5627 28.0987 43.6853 27.8933 43.84 27.728C44 27.5627 44.184 27.4347 44.392 27.344C44.6053 27.2533 44.832 27.208 45.072 27.208C45.28 27.208 45.4773 27.2453 45.664 27.32C45.856 27.3947 46.0213 27.5067 46.16 27.656C46.304 27.8 46.416 27.984 46.496 28.208C46.5813 28.432 46.624 28.6933 46.624 28.992C46.624 29.0453 46.624 29.1067 46.624 29.176C46.624 29.24 46.6213 29.296 46.616 29.344H44.104C44.1147 29.536 44.152 29.704 44.216 29.848C44.28 29.9867 44.36 30.1013 44.456 30.192C44.5573 30.2827 44.672 30.3493 44.8 30.392C44.928 30.4347 45.0613 30.456 45.2 30.456C45.3227 30.456 45.4347 30.4453 45.536 30.424C45.6427 30.3973 45.744 30.3573 45.84 30.304C45.936 30.2507 46.024 30.1787 46.104 30.088L46.52 30.496C46.408 30.6293 46.2827 30.7413 46.144 30.832C46.0053 30.9173 45.8533 30.9813 45.688 31.024C45.528 31.0667 45.3547 31.088 45.168 31.088ZM44.12 28.744H45.848C45.848 28.5947 45.8293 28.464 45.792 28.352C45.7547 28.24 45.6987 28.144 45.624 28.064C45.5547 27.984 45.4693 27.9253 45.368 27.888C45.2667 27.8453 45.1547 27.824 45.032 27.824C44.9147 27.824 44.8053 27.8427 44.704 27.88C44.608 27.9173 44.52 27.9733 44.44 28.048C44.36 28.1227 44.2907 28.2187 44.232 28.336C44.1787 28.448 44.1413 28.584 44.12 28.744ZM47.48 31V27.296H48.28V27.864C48.3707 27.7307 48.472 27.616 48.584 27.52C48.696 27.424 48.8213 27.3493 48.96 27.296C49.0987 27.2373 49.248 27.208 49.408 27.208C49.616 27.208 49.808 27.2613 49.984 27.368C50.16 27.4747 50.3013 27.6427 50.408 27.872C50.5147 28.096 50.568 28.3947 50.568 28.768V31H49.776V28.776C49.776 28.5573 49.752 28.3787 49.704 28.24C49.656 28.1013 49.5867 28 49.496 27.936C49.4107 27.872 49.3067 27.84 49.184 27.84C49.0773 27.84 48.9707 27.864 48.864 27.912C48.7573 27.96 48.6587 28.0267 48.568 28.112C48.4827 28.192 48.4133 28.2933 48.36 28.416C48.3067 28.5333 48.28 28.6667 48.28 28.816V31H47.48ZM52.824 31.088C52.6267 31.088 52.4347 31.048 52.248 30.968C52.0667 30.8827 51.904 30.76 51.76 30.6C51.616 30.44 51.5013 30.2373 51.416 29.992C51.336 29.7413 51.296 29.4533 51.296 29.128C51.296 28.7973 51.336 28.512 51.416 28.272C51.5013 28.032 51.616 27.8347 51.76 27.68C51.904 27.52 52.0693 27.4027 52.256 27.328C52.4427 27.248 52.6373 27.208 52.84 27.208C52.984 27.208 53.1147 27.2267 53.232 27.264C53.3547 27.3013 53.464 27.3573 53.56 27.432C53.656 27.5067 53.7333 27.6 53.792 27.712V25.648H54.568H54.64V25.72C54.6133 25.752 54.5947 25.7867 54.584 25.824C54.5733 25.8613 54.5707 25.9253 54.576 26.016V30.48C54.576 30.5653 54.5787 30.6533 54.584 30.744C54.5947 30.8293 54.6187 30.9147 54.656 31H53.872C53.8453 30.9413 53.8267 30.888 53.816 30.84C53.8053 30.792 53.8 30.744 53.8 30.696C53.8 30.648 53.8 30.5973 53.8 30.544C53.7253 30.656 53.64 30.7547 53.544 30.84C53.448 30.92 53.3387 30.9813 53.216 31.024C53.0933 31.0667 52.9627 31.088 52.824 31.088ZM52.96 30.432C53.104 30.432 53.2267 30.4027 53.328 30.344C53.4293 30.2853 53.512 30.2 53.576 30.088C53.64 29.976 53.688 29.84 53.72 29.68C53.752 29.52 53.768 29.3387 53.768 29.136C53.768 28.864 53.7387 28.632 53.68 28.44C53.6213 28.2427 53.528 28.0933 53.4 27.992C53.2773 27.8853 53.12 27.832 52.928 27.832C52.7893 27.832 52.6667 27.8613 52.56 27.92C52.4533 27.9787 52.3627 28.064 52.288 28.176C52.2187 28.2827 52.1653 28.4133 52.128 28.568C52.0907 28.7227 52.072 28.896 52.072 29.088C52.072 29.36 52.1093 29.5973 52.184 29.8C52.264 30.0027 52.3707 30.16 52.504 30.272C52.6373 30.3787 52.7893 30.432 52.96 30.432ZM59.696 31.408L59.28 31.208L62.28 25.544L62.688 25.76L59.696 31.408ZM61.008 31.088C60.6133 31.088 60.2773 30.9893 60 30.792C59.728 30.5947 59.5227 30.304 59.384 29.92C59.2453 29.536 59.176 29.0693 59.176 28.52C59.176 27.9813 59.2453 27.5227 59.384 27.144C59.5227 26.76 59.728 26.4667 60 26.264C60.2773 26.0613 60.6133 25.96 61.008 25.96C61.408 25.96 61.744 26.0613 62.016 26.264C62.288 26.4667 62.4933 26.76 62.632 27.144C62.776 27.5227 62.848 27.9813 62.848 28.52C62.848 29.0693 62.776 29.536 62.632 29.92C62.4933 30.304 62.288 30.5947 62.016 30.792C61.744 30.9893 61.408 31.088 61.008 31.088ZM61.008 30.44C61.2267 30.44 61.4133 30.368 61.568 30.224C61.7227 30.08 61.8427 29.8667 61.928 29.584C62.0133 29.296 62.056 28.9387 62.056 28.512C62.056 28.112 62.0133 27.7707 61.928 27.488C61.8427 27.2053 61.7227 26.9893 61.568 26.84C61.4133 26.6853 61.2267 26.608 61.008 26.608C60.7893 26.608 60.6 26.6853 60.44 26.84C60.2853 26.9893 60.168 27.2053 60.088 27.488C60.008 27.7707 59.968 28.112 59.968 28.512C59.968 28.9387 60.008 29.296 60.088 29.584C60.168 29.8667 60.2853 30.08 60.44 30.224C60.6 30.368 60.7893 30.44 61.008 30.44ZM64.008 32.4C63.832 32.4 63.6747 32.3707 63.536 32.312C63.3973 32.2587 63.264 32.176 63.136 32.064L63.432 31.52L63.472 31.456L63.528 31.488C63.544 31.5253 63.5627 31.56 63.584 31.592C63.6107 31.6293 63.6613 31.6747 63.736 31.728C63.7787 31.744 63.824 31.7547 63.872 31.76C63.92 31.7707 63.968 31.776 64.016 31.776C64.1387 31.776 64.2427 31.744 64.328 31.68C64.4133 31.6213 64.488 31.528 64.552 31.4C64.6213 31.272 64.6907 31.1067 64.76 30.904L65.528 28.664C65.608 28.4293 65.6773 28.2027 65.736 27.984C65.8 27.76 65.84 27.5307 65.856 27.296H66.608C66.5867 27.5413 66.5307 27.7947 66.44 28.056C66.3547 28.3173 66.2667 28.5707 66.176 28.816L65.256 31.352C65.1173 31.7413 64.944 32.0133 64.736 32.168C64.528 32.3227 64.2853 32.4 64.008 32.4ZM63.288 27.296H64.096L65.216 30.208L64.816 31.088L63.288 27.296ZM69.168 31.088C68.9013 31.088 68.656 31.0453 68.432 30.96C68.208 30.8747 68.0133 30.752 67.848 30.592C67.688 30.4267 67.5627 30.224 67.472 29.984C67.3813 29.744 67.336 29.472 67.336 29.168C67.336 28.8587 67.3813 28.584 67.472 28.344C67.5627 28.0987 67.6853 27.8933 67.84 27.728C68 27.5627 68.184 27.4347 68.392 27.344C68.6053 27.2533 68.832 27.208 69.072 27.208C69.28 27.208 69.4773 27.2453 69.664 27.32C69.856 27.3947 70.0213 27.5067 70.16 27.656C70.304 27.8 70.416 27.984 70.496 28.208C70.5813 28.432 70.624 28.6933 70.624 28.992C70.624 29.0453 70.624 29.1067 70.624 29.176C70.624 29.24 70.6213 29.296 70.616 29.344H68.104C68.1147 29.536 68.152 29.704 68.216 29.848C68.28 29.9867 68.36 30.1013 68.456 30.192C68.5573 30.2827 68.672 30.3493 68.8 30.392C68.928 30.4347 69.0613 30.456 69.2 30.456C69.3227 30.456 69.4347 30.4453 69.536 30.424C69.6427 30.3973 69.744 30.3573 69.84 30.304C69.936 30.2507 70.024 30.1787 70.104 30.088L70.52 30.496C70.408 30.6293 70.2827 30.7413 70.144 30.832C70.0053 30.9173 69.8533 30.9813 69.688 31.024C69.528 31.0667 69.3547 31.088 69.168 31.088ZM68.12 28.744H69.848C69.848 28.5947 69.8293 28.464 69.792 28.352C69.7547 28.24 69.6987 28.144 69.624 28.064C69.5547 27.984 69.4693 27.9253 69.368 27.888C69.2667 27.8453 69.1547 27.824 69.032 27.824C68.9147 27.824 68.8053 27.8427 68.704 27.88C68.608 27.9173 68.52 27.9733 68.44 28.048C68.36 28.1227 68.2907 28.2187 68.232 28.336C68.1787 28.448 68.1413 28.584 68.12 28.744Z" fill="white"/>
</svg>
