<svg width="102" height="44" viewBox="0 0 102 44" fill="none" xmlns="http://www.w3.org/2000/svg">
<path d="M47.5 37H1V1H101V37H54.5L51 43L47.5 37Z" fill="black" stroke="black"/>
<path d="M15.684 13L15.054 7.393H16.125L16.359 10.732L16.962 7.852H17.718L18.321 10.705L18.465 7.393H19.491L18.879 13H17.979L17.295 9.679L16.602 13H15.684ZM20.166 13V12.01H21.174V9.751H20.211V8.761H22.452V12.01H23.37V13H20.166ZM21.75 8.185C21.54 8.185 21.36 8.116 21.21 7.978C21.066 7.834 20.994 7.666 20.994 7.474C20.994 7.264 21.063 7.093 21.201 6.961C21.345 6.829 21.528 6.763 21.75 6.763C21.948 6.763 22.122 6.835 22.272 6.979C22.428 7.117 22.506 7.282 22.506 7.474C22.506 7.666 22.428 7.834 22.272 7.978C22.122 8.116 21.948 8.185 21.75 8.185ZM24.387 13V8.761H25.674V9.247C25.77 9.133 25.869 9.034 25.971 8.95C26.073 8.86 26.187 8.791 26.313 8.743C26.445 8.689 26.592 8.662 26.754 8.662C27.006 8.662 27.243 8.725 27.465 8.851C27.687 8.971 27.867 9.163 28.005 9.427C28.143 9.685 28.212 10.027 28.212 10.453V13H26.934V10.462C26.934 10.27 26.916 10.111 26.88 9.985C26.844 9.853 26.787 9.754 26.709 9.688C26.631 9.622 26.532 9.589 26.412 9.589C26.316 9.589 26.223 9.61 26.133 9.652C26.043 9.688 25.962 9.742 25.89 9.814C25.824 9.886 25.77 9.973 25.728 10.075C25.692 10.177 25.674 10.291 25.674 10.417V13H24.387ZM31.191 13.108C30.969 13.108 30.765 13.072 30.579 13C30.393 12.934 30.234 12.82 30.102 12.658C29.97 12.49 29.871 12.262 29.805 11.974C29.739 11.686 29.715 11.32 29.733 10.876L29.859 7.816L31.155 7.645L31.236 7.636L31.245 7.735C31.221 7.777 31.197 7.819 31.173 7.861C31.149 7.903 31.134 7.975 31.128 8.077L31.02 9.463H31.074L31.002 10.813C30.984 11.155 30.996 11.422 31.038 11.614C31.086 11.8 31.152 11.929 31.236 12.001C31.326 12.073 31.419 12.109 31.515 12.109C31.701 12.109 31.869 12.07 32.019 11.992C32.175 11.914 32.31 11.827 32.424 11.731L32.64 12.622C32.436 12.772 32.214 12.892 31.974 12.982C31.74 13.066 31.479 13.108 31.191 13.108ZM28.959 8.761H32.361L32.343 9.751H28.941L28.959 8.761ZM35.43 13.108C35.13 13.108 34.848 13.06 34.584 12.964C34.326 12.862 34.098 12.718 33.9 12.532C33.708 12.346 33.558 12.118 33.45 11.848C33.342 11.572 33.288 11.263 33.288 10.921C33.288 10.573 33.339 10.261 33.441 9.985C33.549 9.703 33.693 9.466 33.873 9.274C34.059 9.076 34.275 8.926 34.521 8.824C34.767 8.716 35.034 8.662 35.322 8.662C35.568 8.662 35.802 8.707 36.024 8.797C36.252 8.887 36.453 9.022 36.627 9.202C36.801 9.376 36.939 9.595 37.041 9.859C37.143 10.117 37.194 10.414 37.194 10.75C37.194 10.822 37.194 10.912 37.194 11.02C37.194 11.128 37.191 11.215 37.185 11.281H34.512C34.524 11.431 34.56 11.56 34.62 11.668C34.68 11.77 34.755 11.857 34.845 11.929C34.941 11.995 35.043 12.046 35.151 12.082C35.265 12.112 35.379 12.127 35.493 12.127C35.613 12.127 35.727 12.118 35.835 12.1C35.943 12.082 36.048 12.049 36.15 12.001C36.252 11.947 36.351 11.872 36.447 11.776L37.077 12.388C36.933 12.556 36.774 12.694 36.6 12.802C36.426 12.91 36.24 12.988 36.042 13.036C35.844 13.084 35.64 13.108 35.43 13.108ZM34.521 10.345H35.988C35.988 10.225 35.973 10.123 35.943 10.039C35.913 9.949 35.868 9.877 35.808 9.823C35.748 9.763 35.673 9.721 35.583 9.697C35.493 9.667 35.391 9.652 35.277 9.652C35.175 9.652 35.079 9.667 34.989 9.697C34.905 9.721 34.83 9.763 34.764 9.823C34.698 9.877 34.644 9.949 34.602 10.039C34.56 10.123 34.533 10.225 34.521 10.345ZM38.121 8.761H39.426V9.922L39.282 9.886C39.3 9.706 39.345 9.544 39.417 9.4C39.495 9.25 39.594 9.121 39.714 9.013C39.834 8.899 39.966 8.812 40.11 8.752C40.26 8.692 40.413 8.662 40.569 8.662C40.815 8.662 41.034 8.701 41.226 8.779C41.418 8.857 41.598 8.983 41.766 9.157L41.244 10.246L41.217 10.318L41.127 10.282C41.103 10.234 41.085 10.183 41.073 10.129C41.061 10.069 41.022 10.003 40.956 9.931C40.878 9.865 40.788 9.811 40.686 9.769C40.59 9.721 40.482 9.697 40.362 9.697C40.224 9.697 40.095 9.718 39.975 9.76C39.861 9.802 39.762 9.868 39.678 9.958C39.594 10.048 39.528 10.162 39.48 10.3C39.432 10.438 39.408 10.603 39.408 10.795V13H38.121V8.761ZM48.975 13.108C48.669 13.108 48.378 13.051 48.102 12.937C47.832 12.823 47.592 12.649 47.382 12.415C47.172 12.181 47.007 11.884 46.887 11.524C46.773 11.158 46.716 10.726 46.716 10.228C46.716 9.79 46.761 9.406 46.851 9.076C46.947 8.746 47.073 8.467 47.229 8.239C47.391 8.011 47.571 7.828 47.769 7.69C47.973 7.546 48.183 7.444 48.399 7.384C48.621 7.318 48.84 7.285 49.056 7.285C49.494 7.285 49.866 7.378 50.172 7.564C50.478 7.75 50.715 8.02 50.883 8.374L50.181 9.004L50.118 9.058L50.055 8.986C50.055 8.938 50.049 8.89 50.037 8.842C50.025 8.794 49.992 8.731 49.938 8.653C49.824 8.521 49.701 8.434 49.569 8.392C49.437 8.344 49.302 8.32 49.164 8.32C49.032 8.32 48.897 8.359 48.759 8.437C48.621 8.509 48.492 8.623 48.372 8.779C48.258 8.929 48.165 9.121 48.093 9.355C48.021 9.589 47.985 9.865 47.985 10.183C47.985 10.489 48.009 10.759 48.057 10.993C48.111 11.227 48.183 11.425 48.273 11.587C48.369 11.743 48.48 11.863 48.606 11.947C48.738 12.025 48.882 12.064 49.038 12.064C49.182 12.064 49.308 12.049 49.416 12.019C49.524 11.989 49.623 11.932 49.713 11.848C49.803 11.764 49.89 11.647 49.974 11.497L50.838 12.154C50.61 12.52 50.343 12.772 50.037 12.91C49.731 13.042 49.377 13.108 48.975 13.108ZM53.241 13.108C52.863 13.108 52.518 13.018 52.206 12.838C51.894 12.652 51.645 12.391 51.459 12.055C51.273 11.719 51.18 11.329 51.18 10.885C51.18 10.471 51.273 10.096 51.459 9.76C51.645 9.424 51.894 9.157 52.206 8.959C52.518 8.761 52.863 8.662 53.241 8.662C53.619 8.662 53.964 8.761 54.276 8.959C54.594 9.157 54.846 9.424 55.032 9.76C55.224 10.096 55.32 10.471 55.32 10.885C55.32 11.323 55.224 11.71 55.032 12.046C54.846 12.382 54.594 12.643 54.276 12.829C53.964 13.015 53.619 13.108 53.241 13.108ZM53.241 12.109C53.403 12.109 53.544 12.058 53.664 11.956C53.79 11.854 53.889 11.713 53.961 11.533C54.033 11.347 54.069 11.131 54.069 10.885C54.069 10.621 54.033 10.399 53.961 10.219C53.889 10.039 53.79 9.901 53.664 9.805C53.544 9.709 53.403 9.661 53.241 9.661C53.091 9.661 52.953 9.709 52.827 9.805C52.707 9.901 52.611 10.039 52.539 10.219C52.467 10.399 52.431 10.621 52.431 10.885C52.431 11.131 52.464 11.347 52.53 11.533C52.602 11.713 52.698 11.854 52.818 11.956C52.944 12.058 53.085 12.109 53.241 12.109ZM55.725 13V8.761H56.751V9.004C56.823 8.914 56.895 8.845 56.967 8.797C57.039 8.749 57.111 8.716 57.183 8.698C57.261 8.674 57.336 8.662 57.408 8.662C57.498 8.662 57.585 8.674 57.669 8.698C57.753 8.722 57.834 8.767 57.912 8.833C57.99 8.893 58.056 8.986 58.11 9.112C58.182 8.998 58.257 8.911 58.335 8.851C58.413 8.785 58.503 8.737 58.605 8.707C58.713 8.677 58.833 8.662 58.965 8.662C59.127 8.662 59.262 8.692 59.37 8.752C59.484 8.806 59.577 8.887 59.649 8.995C59.721 9.103 59.772 9.238 59.802 9.4C59.838 9.562 59.856 9.748 59.856 9.958V13H58.785V10.165C58.785 10.027 58.779 9.916 58.767 9.832C58.761 9.742 58.746 9.676 58.722 9.634C58.704 9.592 58.671 9.571 58.623 9.571C58.569 9.571 58.515 9.598 58.461 9.652C58.407 9.7 58.362 9.781 58.326 9.895C58.296 10.003 58.281 10.15 58.281 10.336V13H57.3V10.174C57.3 9.916 57.285 9.745 57.255 9.661C57.225 9.577 57.177 9.535 57.111 9.535C57.063 9.535 57.018 9.55 56.976 9.58C56.94 9.61 56.907 9.658 56.877 9.724C56.853 9.784 56.832 9.862 56.814 9.958C56.802 10.048 56.796 10.153 56.796 10.273V13H55.725ZM60.36 14.503L60.351 8.752H61.593V9.193C61.701 9.067 61.812 8.965 61.926 8.887C62.046 8.809 62.172 8.752 62.304 8.716C62.436 8.68 62.574 8.662 62.718 8.662C62.946 8.662 63.156 8.713 63.348 8.815C63.546 8.911 63.717 9.055 63.861 9.247C64.011 9.439 64.128 9.676 64.212 9.958C64.296 10.234 64.338 10.555 64.338 10.921C64.338 11.293 64.293 11.617 64.203 11.893C64.119 12.169 63.999 12.397 63.843 12.577C63.693 12.757 63.519 12.892 63.321 12.982C63.123 13.066 62.916 13.108 62.7 13.108C62.562 13.108 62.424 13.096 62.286 13.072C62.154 13.048 62.031 13.012 61.917 12.964C61.803 12.91 61.71 12.844 61.638 12.766V14.503H60.36ZM62.304 12.172C62.43 12.172 62.541 12.148 62.637 12.1C62.733 12.052 62.814 11.977 62.88 11.875C62.952 11.773 63.006 11.635 63.042 11.461C63.078 11.287 63.096 11.074 63.096 10.822C63.096 10.576 63.063 10.363 62.997 10.183C62.937 10.003 62.85 9.865 62.736 9.769C62.622 9.673 62.487 9.625 62.331 9.625C62.205 9.625 62.097 9.652 62.007 9.706C61.917 9.754 61.845 9.832 61.791 9.94C61.737 10.042 61.698 10.174 61.674 10.336C61.65 10.498 61.638 10.69 61.638 10.912C61.638 11.086 61.644 11.242 61.656 11.38C61.674 11.512 61.698 11.629 61.728 11.731C61.764 11.827 61.806 11.908 61.854 11.974C61.908 12.04 61.971 12.091 62.043 12.127C62.121 12.157 62.208 12.172 62.304 12.172ZM66.201 13.108C65.745 13.108 65.388 13 65.13 12.784C64.872 12.562 64.743 12.271 64.743 11.911C64.743 11.683 64.791 11.473 64.887 11.281C64.983 11.083 65.133 10.912 65.337 10.768C65.541 10.618 65.802 10.501 66.12 10.417C66.438 10.333 66.819 10.291 67.263 10.291C67.281 10.291 67.314 10.291 67.362 10.291C67.41 10.291 67.464 10.291 67.524 10.291C67.584 10.291 67.635 10.291 67.677 10.291L67.713 11.137C67.677 11.137 67.626 11.137 67.56 11.137C67.494 11.137 67.425 11.14 67.353 11.146C67.287 11.146 67.236 11.146 67.2 11.146C66.942 11.146 66.735 11.164 66.579 11.2C66.423 11.23 66.303 11.275 66.219 11.335C66.141 11.389 66.087 11.452 66.057 11.524C66.027 11.59 66.012 11.656 66.012 11.722C66.012 11.794 66.024 11.857 66.048 11.911C66.072 11.965 66.105 12.007 66.147 12.037C66.189 12.067 66.24 12.091 66.3 12.109C66.36 12.121 66.423 12.127 66.489 12.127C66.633 12.127 66.756 12.103 66.858 12.055C66.96 12.007 67.044 11.929 67.11 11.821C67.182 11.707 67.233 11.563 67.263 11.389C67.299 11.215 67.317 11.002 67.317 10.75C67.317 10.444 67.287 10.21 67.227 10.048C67.173 9.886 67.092 9.778 66.984 9.724C66.882 9.664 66.756 9.634 66.606 9.634C66.42 9.634 66.249 9.661 66.093 9.715C65.937 9.763 65.772 9.877 65.598 10.057L64.878 9.319C65.148 9.073 65.436 8.902 65.742 8.806C66.054 8.71 66.357 8.662 66.651 8.662C66.909 8.662 67.152 8.692 67.38 8.752C67.614 8.806 67.821 8.899 68.001 9.031C68.187 9.163 68.331 9.346 68.433 9.58C68.541 9.808 68.595 10.096 68.595 10.444V13H67.308V12.667C67.23 12.739 67.152 12.805 67.074 12.865C67.002 12.919 66.921 12.964 66.831 13C66.747 13.036 66.654 13.063 66.552 13.081C66.45 13.099 66.333 13.108 66.201 13.108ZM69.387 13V8.761H70.674V9.247C70.77 9.133 70.869 9.034 70.971 8.95C71.073 8.86 71.187 8.791 71.313 8.743C71.445 8.689 71.592 8.662 71.754 8.662C72.006 8.662 72.243 8.725 72.465 8.851C72.687 8.971 72.867 9.163 73.005 9.427C73.143 9.685 73.212 10.027 73.212 10.453V13H71.934V10.462C71.934 10.27 71.916 10.111 71.88 9.985C71.844 9.853 71.787 9.754 71.709 9.688C71.631 9.622 71.532 9.589 71.412 9.589C71.316 9.589 71.223 9.61 71.133 9.652C71.043 9.688 70.962 9.742 70.89 9.814C70.824 9.886 70.77 9.973 70.728 10.075C70.692 10.177 70.674 10.291 70.674 10.417V13H69.387ZM74.166 13V12.01H75.174V9.751H74.211V8.761H76.452V12.01H77.37V13H74.166ZM75.75 8.185C75.54 8.185 75.36 8.116 75.21 7.978C75.066 7.834 74.994 7.666 74.994 7.474C74.994 7.264 75.063 7.093 75.201 6.961C75.345 6.829 75.528 6.763 75.75 6.763C75.948 6.763 76.122 6.835 76.272 6.979C76.428 7.117 76.506 7.282 76.506 7.474C76.506 7.666 76.428 7.834 76.272 7.978C76.122 8.116 75.948 8.185 75.75 8.185ZM80.241 13.108C79.863 13.108 79.518 13.018 79.206 12.838C78.894 12.652 78.645 12.391 78.459 12.055C78.273 11.719 78.18 11.329 78.18 10.885C78.18 10.471 78.273 10.096 78.459 9.76C78.645 9.424 78.894 9.157 79.206 8.959C79.518 8.761 79.863 8.662 80.241 8.662C80.619 8.662 80.964 8.761 81.276 8.959C81.594 9.157 81.846 9.424 82.032 9.76C82.224 10.096 82.32 10.471 82.32 10.885C82.32 11.323 82.224 11.71 82.032 12.046C81.846 12.382 81.594 12.643 81.276 12.829C80.964 13.015 80.619 13.108 80.241 13.108ZM80.241 12.109C80.403 12.109 80.544 12.058 80.664 11.956C80.79 11.854 80.889 11.713 80.961 11.533C81.033 11.347 81.069 11.131 81.069 10.885C81.069 10.621 81.033 10.399 80.961 10.219C80.889 10.039 80.79 9.901 80.664 9.805C80.544 9.709 80.403 9.661 80.241 9.661C80.091 9.661 79.953 9.709 79.827 9.805C79.707 9.901 79.611 10.039 79.539 10.219C79.467 10.399 79.431 10.621 79.431 10.885C79.431 11.131 79.464 11.347 79.53 11.533C79.602 11.713 79.698 11.854 79.818 11.956C79.944 12.058 80.085 12.109 80.241 12.109ZM82.887 13V8.761H84.174V9.247C84.27 9.133 84.369 9.034 84.471 8.95C84.573 8.86 84.687 8.791 84.813 8.743C84.945 8.689 85.092 8.662 85.254 8.662C85.506 8.662 85.743 8.725 85.965 8.851C86.187 8.971 86.367 9.163 86.505 9.427C86.643 9.685 86.712 10.027 86.712 10.453V13H85.434V10.462C85.434 10.27 85.416 10.111 85.38 9.985C85.344 9.853 85.287 9.754 85.209 9.688C85.131 9.622 85.032 9.589 84.912 9.589C84.816 9.589 84.723 9.61 84.633 9.652C84.543 9.688 84.462 9.742 84.39 9.814C84.324 9.886 84.27 9.973 84.228 10.075C84.192 10.177 84.174 10.291 84.174 10.417V13H82.887Z" fill="white"/>
<path d="M31.432 29V24.008H34.608V24.664H32.192V26.072H34.184V26.736H32.192V28.344H34.592V29H31.432ZM35.792 25.296H36.616L36.6 26.352L36.504 26.264C36.5307 26.104 36.5813 25.96 36.656 25.832C36.7307 25.6987 36.8213 25.5867 36.928 25.496C37.04 25.4053 37.1627 25.336 37.296 25.288C37.4293 25.2347 37.568 25.208 37.712 25.208C37.9147 25.208 38.0987 25.2427 38.264 25.312C38.4293 25.3813 38.5787 25.4853 38.712 25.624L38.376 26.28L38.344 26.352L38.28 26.32C38.264 26.2773 38.248 26.2347 38.232 26.192C38.216 26.1493 38.176 26.0987 38.112 26.04C38.032 25.9867 37.952 25.9467 37.872 25.92C37.7973 25.8933 37.7093 25.88 37.608 25.88C37.48 25.88 37.3547 25.904 37.232 25.952C37.1147 25.9947 37.008 26.064 36.912 26.16C36.816 26.256 36.7387 26.3787 36.68 26.528C36.6267 26.672 36.6 26.848 36.6 27.056V29.008H35.792V25.296ZM39.544 29V28.368H40.6V24.28H39.592V23.648H41.408V28.368H42.456V29H39.544ZM45.168 29.088C44.9013 29.088 44.656 29.0453 44.432 28.96C44.208 28.8747 44.0133 28.752 43.848 28.592C43.688 28.4267 43.5627 28.224 43.472 27.984C43.3813 27.744 43.336 27.472 43.336 27.168C43.336 26.8587 43.3813 26.584 43.472 26.344C43.5627 26.0987 43.6853 25.8933 43.84 25.728C44 25.5627 44.184 25.4347 44.392 25.344C44.6053 25.2533 44.832 25.208 45.072 25.208C45.28 25.208 45.4773 25.2453 45.664 25.32C45.856 25.3947 46.0213 25.5067 46.16 25.656C46.304 25.8 46.416 25.984 46.496 26.208C46.5813 26.432 46.624 26.6933 46.624 26.992C46.624 27.0453 46.624 27.1067 46.624 27.176C46.624 27.24 46.6213 27.296 46.616 27.344H44.104C44.1147 27.536 44.152 27.704 44.216 27.848C44.28 27.9867 44.36 28.1013 44.456 28.192C44.5573 28.2827 44.672 28.3493 44.8 28.392C44.928 28.4347 45.0613 28.456 45.2 28.456C45.3227 28.456 45.4347 28.4453 45.536 28.424C45.6427 28.3973 45.744 28.3573 45.84 28.304C45.936 28.2507 46.024 28.1787 46.104 28.088L46.52 28.496C46.408 28.6293 46.2827 28.7413 46.144 28.832C46.0053 28.9173 45.8533 28.9813 45.688 29.024C45.528 29.0667 45.3547 29.088 45.168 29.088ZM44.12 26.744H45.848C45.848 26.5947 45.8293 26.464 45.792 26.352C45.7547 26.24 45.6987 26.144 45.624 26.064C45.5547 25.984 45.4693 25.9253 45.368 25.888C45.2667 25.8453 45.1547 25.824 45.032 25.824C44.9147 25.824 44.8053 25.8427 44.704 25.88C44.608 25.9173 44.52 25.9733 44.44 26.048C44.36 26.1227 44.2907 26.2187 44.232 26.336C44.1787 26.448 44.1413 26.584 44.12 26.744ZM47.48 29V25.296H48.28V25.864C48.3707 25.7307 48.472 25.616 48.584 25.52C48.696 25.424 48.8213 25.3493 48.96 25.296C49.0987 25.2373 49.248 25.208 49.408 25.208C49.616 25.208 49.808 25.2613 49.984 25.368C50.16 25.4747 50.3013 25.6427 50.408 25.872C50.5147 26.096 50.568 26.3947 50.568 26.768V29H49.776V26.776C49.776 26.5573 49.752 26.3787 49.704 26.24C49.656 26.1013 49.5867 26 49.496 25.936C49.4107 25.872 49.3067 25.84 49.184 25.84C49.0773 25.84 48.9707 25.864 48.864 25.912C48.7573 25.96 48.6587 26.0267 48.568 26.112C48.4827 26.192 48.4133 26.2933 48.36 26.416C48.3067 26.5333 48.28 26.6667 48.28 26.816V29H47.48ZM52.824 29.088C52.6267 29.088 52.4347 29.048 52.248 28.968C52.0667 28.8827 51.904 28.76 51.76 28.6C51.616 28.44 51.5013 28.2373 51.416 27.992C51.336 27.7413 51.296 27.4533 51.296 27.128C51.296 26.7973 51.336 26.512 51.416 26.272C51.5013 26.032 51.616 25.8347 51.76 25.68C51.904 25.52 52.0693 25.4027 52.256 25.328C52.4427 25.248 52.6373 25.208 52.84 25.208C52.984 25.208 53.1147 25.2267 53.232 25.264C53.3547 25.3013 53.464 25.3573 53.56 25.432C53.656 25.5067 53.7333 25.6 53.792 25.712V23.648H54.568H54.64V23.72C54.6133 23.752 54.5947 23.7867 54.584 23.824C54.5733 23.8613 54.5707 23.9253 54.576 24.016V28.48C54.576 28.5653 54.5787 28.6533 54.584 28.744C54.5947 28.8293 54.6187 28.9147 54.656 29H53.872C53.8453 28.9413 53.8267 28.888 53.816 28.84C53.8053 28.792 53.8 28.744 53.8 28.696C53.8 28.648 53.8 28.5973 53.8 28.544C53.7253 28.656 53.64 28.7547 53.544 28.84C53.448 28.92 53.3387 28.9813 53.216 29.024C53.0933 29.0667 52.9627 29.088 52.824 29.088ZM52.96 28.432C53.104 28.432 53.2267 28.4027 53.328 28.344C53.4293 28.2853 53.512 28.2 53.576 28.088C53.64 27.976 53.688 27.84 53.72 27.68C53.752 27.52 53.768 27.3387 53.768 27.136C53.768 26.864 53.7387 26.632 53.68 26.44C53.6213 26.2427 53.528 26.0933 53.4 25.992C53.2773 25.8853 53.12 25.832 52.928 25.832C52.7893 25.832 52.6667 25.8613 52.56 25.92C52.4533 25.9787 52.3627 26.064 52.288 26.176C52.2187 26.2827 52.1653 26.4133 52.128 26.568C52.0907 26.7227 52.072 26.896 52.072 27.088C52.072 27.36 52.1093 27.5973 52.184 27.8C52.264 28.0027 52.3707 28.16 52.504 28.272C52.6373 28.3787 52.7893 28.432 52.96 28.432ZM59.696 29.408L59.28 29.208L62.28 23.544L62.688 23.76L59.696 29.408ZM61.008 29.088C60.6133 29.088 60.2773 28.9893 60 28.792C59.728 28.5947 59.5227 28.304 59.384 27.92C59.2453 27.536 59.176 27.0693 59.176 26.52C59.176 25.9813 59.2453 25.5227 59.384 25.144C59.5227 24.76 59.728 24.4667 60 24.264C60.2773 24.0613 60.6133 23.96 61.008 23.96C61.408 23.96 61.744 24.0613 62.016 24.264C62.288 24.4667 62.4933 24.76 62.632 25.144C62.776 25.5227 62.848 25.9813 62.848 26.52C62.848 27.0693 62.776 27.536 62.632 27.92C62.4933 28.304 62.288 28.5947 62.016 28.792C61.744 28.9893 61.408 29.088 61.008 29.088ZM61.008 28.44C61.2267 28.44 61.4133 28.368 61.568 28.224C61.7227 28.08 61.8427 27.8667 61.928 27.584C62.0133 27.296 62.056 26.9387 62.056 26.512C62.056 26.112 62.0133 25.7707 61.928 25.488C61.8427 25.2053 61.7227 24.9893 61.568 24.84C61.4133 24.6853 61.2267 24.608 61.008 24.608C60.7893 24.608 60.6 24.6853 60.44 24.84C60.2853 24.9893 60.168 25.2053 60.088 25.488C60.008 25.7707 59.968 26.112 59.968 26.512C59.968 26.9387 60.008 27.296 60.088 27.584C60.168 27.8667 60.2853 28.08 60.44 28.224C60.6 28.368 60.7893 28.44 61.008 28.44ZM64.008 30.4C63.832 30.4 63.6747 30.3707 63.536 30.312C63.3973 30.2587 63.264 30.176 63.136 30.064L63.432 29.52L63.472 29.456L63.528 29.488C63.544 29.5253 63.5627 29.56 63.584 29.592C63.6107 29.6293 63.6613 29.6747 63.736 29.728C63.7787 29.744 63.824 29.7547 63.872 29.76C63.92 29.7707 63.968 29.776 64.016 29.776C64.1387 29.776 64.2427 29.744 64.328 29.68C64.4133 29.6213 64.488 29.528 64.552 29.4C64.6213 29.272 64.6907 29.1067 64.76 28.904L65.528 26.664C65.608 26.4293 65.6773 26.2027 65.736 25.984C65.8 25.76 65.84 25.5307 65.856 25.296H66.608C66.5867 25.5413 66.5307 25.7947 66.44 26.056C66.3547 26.3173 66.2667 26.5707 66.176 26.816L65.256 29.352C65.1173 29.7413 64.944 30.0133 64.736 30.168C64.528 30.3227 64.2853 30.4 64.008 30.4ZM63.288 25.296H64.096L65.216 28.208L64.816 29.088L63.288 25.296ZM69.168 29.088C68.9013 29.088 68.656 29.0453 68.432 28.96C68.208 28.8747 68.0133 28.752 67.848 28.592C67.688 28.4267 67.5627 28.224 67.472 27.984C67.3813 27.744 67.336 27.472 67.336 27.168C67.336 26.8587 67.3813 26.584 67.472 26.344C67.5627 26.0987 67.6853 25.8933 67.84 25.728C68 25.5627 68.184 25.4347 68.392 25.344C68.6053 25.2533 68.832 25.208 69.072 25.208C69.28 25.208 69.4773 25.2453 69.664 25.32C69.856 25.3947 70.0213 25.5067 70.16 25.656C70.304 25.8 70.416 25.984 70.496 26.208C70.5813 26.432 70.624 26.6933 70.624 26.992C70.624 27.0453 70.624 27.1067 70.624 27.176C70.624 27.24 70.6213 27.296 70.616 27.344H68.104C68.1147 27.536 68.152 27.704 68.216 27.848C68.28 27.9867 68.36 28.1013 68.456 28.192C68.5573 28.2827 68.672 28.3493 68.8 28.392C68.928 28.4347 69.0613 28.456 69.2 28.456C69.3227 28.456 69.4347 28.4453 69.536 28.424C69.6427 28.3973 69.744 28.3573 69.84 28.304C69.936 28.2507 70.024 28.1787 70.104 28.088L70.52 28.496C70.408 28.6293 70.2827 28.7413 70.144 28.832C70.0053 28.9173 69.8533 28.9813 69.688 29.024C69.528 29.0667 69.3547 29.088 69.168 29.088ZM68.12 26.744H69.848C69.848 26.5947 69.8293 26.464 69.792 26.352C69.7547 26.24 69.6987 26.144 69.624 26.064C69.5547 25.984 69.4693 25.9253 69.368 25.888C69.2667 25.8453 69.1547 25.824 69.032 25.824C68.9147 25.824 68.8053 25.8427 68.704 25.88C68.608 25.9173 68.52 25.9733 68.44 26.048C68.36 26.1227 68.2907 26.2187 68.232 26.336C68.1787 26.448 68.1413 26.584 68.12 26.744Z" fill="white"/>
</svg>
