<svg width="102" height="44" viewBox="0 0 102 44" fill="none" xmlns="http://www.w3.org/2000/svg">
<path d="M47.5 37H1V1H101V37H54.5L51 43L47.5 37Z" fill="black" stroke="black"/>
<path d="M24.459 7.393H25.728H25.809V7.492C25.779 7.528 25.758 7.567 25.746 7.609C25.74 7.651 25.737 7.723 25.737 7.825V11.974H28.221V13H24.459V7.393ZM30.741 13.108C30.363 13.108 30.018 13.018 29.706 12.838C29.394 12.652 29.145 12.391 28.959 12.055C28.773 11.719 28.68 11.329 28.68 10.885C28.68 10.471 28.773 10.096 28.959 9.76C29.145 9.424 29.394 9.157 29.706 8.959C30.018 8.761 30.363 8.662 30.741 8.662C31.119 8.662 31.464 8.761 31.776 8.959C32.094 9.157 32.346 9.424 32.532 9.76C32.724 10.096 32.82 10.471 32.82 10.885C32.82 11.323 32.724 11.71 32.532 12.046C32.346 12.382 32.094 12.643 31.776 12.829C31.464 13.015 31.119 13.108 30.741 13.108ZM30.741 12.109C30.903 12.109 31.044 12.058 31.164 11.956C31.29 11.854 31.389 11.713 31.461 11.533C31.533 11.347 31.569 11.131 31.569 10.885C31.569 10.621 31.533 10.399 31.461 10.219C31.389 10.039 31.29 9.901 31.164 9.805C31.044 9.709 30.903 9.661 30.741 9.661C30.591 9.661 30.453 9.709 30.327 9.805C30.207 9.901 30.111 10.039 30.039 10.219C29.967 10.399 29.931 10.621 29.931 10.885C29.931 11.131 29.964 11.347 30.03 11.533C30.102 11.713 30.198 11.854 30.318 11.956C30.444 12.058 30.585 12.109 30.741 12.109ZM35.466 13.108C35.154 13.108 34.863 13.057 34.593 12.955C34.323 12.847 34.086 12.697 33.882 12.505C33.684 12.307 33.528 12.076 33.414 11.812C33.306 11.548 33.252 11.257 33.252 10.939C33.252 10.627 33.306 10.333 33.414 10.057C33.528 9.781 33.684 9.541 33.882 9.337C34.086 9.127 34.323 8.962 34.593 8.842C34.863 8.722 35.157 8.662 35.475 8.662C35.895 8.662 36.255 8.737 36.555 8.887C36.855 9.031 37.092 9.235 37.266 9.499L36.591 10.264L36.537 10.327L36.456 10.264C36.45 10.216 36.444 10.165 36.438 10.111C36.432 10.057 36.399 9.991 36.339 9.913C36.237 9.811 36.12 9.742 35.988 9.706C35.856 9.67 35.706 9.652 35.538 9.652C35.406 9.652 35.28 9.682 35.16 9.742C35.04 9.796 34.932 9.877 34.836 9.985C34.74 10.093 34.665 10.228 34.611 10.39C34.557 10.552 34.53 10.741 34.53 10.957C34.53 11.143 34.557 11.311 34.611 11.461C34.671 11.605 34.746 11.725 34.836 11.821C34.932 11.917 35.037 11.992 35.151 12.046C35.271 12.094 35.391 12.118 35.511 12.118C35.631 12.118 35.748 12.103 35.862 12.073C35.982 12.043 36.099 11.992 36.213 11.92C36.333 11.842 36.447 11.734 36.555 11.596L37.239 12.379C37.005 12.643 36.726 12.832 36.402 12.946C36.078 13.054 35.766 13.108 35.466 13.108ZM39.201 13.108C38.745 13.108 38.388 13 38.13 12.784C37.872 12.562 37.743 12.271 37.743 11.911C37.743 11.683 37.791 11.473 37.887 11.281C37.983 11.083 38.133 10.912 38.337 10.768C38.541 10.618 38.802 10.501 39.12 10.417C39.438 10.333 39.819 10.291 40.263 10.291C40.281 10.291 40.314 10.291 40.362 10.291C40.41 10.291 40.464 10.291 40.524 10.291C40.584 10.291 40.635 10.291 40.677 10.291L40.713 11.137C40.677 11.137 40.626 11.137 40.56 11.137C40.494 11.137 40.425 11.14 40.353 11.146C40.287 11.146 40.236 11.146 40.2 11.146C39.942 11.146 39.735 11.164 39.579 11.2C39.423 11.23 39.303 11.275 39.219 11.335C39.141 11.389 39.087 11.452 39.057 11.524C39.027 11.59 39.012 11.656 39.012 11.722C39.012 11.794 39.024 11.857 39.048 11.911C39.072 11.965 39.105 12.007 39.147 12.037C39.189 12.067 39.24 12.091 39.3 12.109C39.36 12.121 39.423 12.127 39.489 12.127C39.633 12.127 39.756 12.103 39.858 12.055C39.96 12.007 40.044 11.929 40.11 11.821C40.182 11.707 40.233 11.563 40.263 11.389C40.299 11.215 40.317 11.002 40.317 10.75C40.317 10.444 40.287 10.21 40.227 10.048C40.173 9.886 40.092 9.778 39.984 9.724C39.882 9.664 39.756 9.634 39.606 9.634C39.42 9.634 39.249 9.661 39.093 9.715C38.937 9.763 38.772 9.877 38.598 10.057L37.878 9.319C38.148 9.073 38.436 8.902 38.742 8.806C39.054 8.71 39.357 8.662 39.651 8.662C39.909 8.662 40.152 8.692 40.38 8.752C40.614 8.806 40.821 8.899 41.001 9.031C41.187 9.163 41.331 9.346 41.433 9.58C41.541 9.808 41.595 10.096 41.595 10.444V13H40.308V12.667C40.23 12.739 40.152 12.805 40.074 12.865C40.002 12.919 39.921 12.964 39.831 13C39.747 13.036 39.654 13.063 39.552 13.081C39.45 13.099 39.333 13.108 39.201 13.108ZM42.468 13V12.01H43.62V7.915H42.522V6.925H44.898V12.01H46.041V13H42.468ZM52.818 13L51.09 7.393H52.332L53.331 11.101L54.267 7.393H55.482L53.772 13H52.818ZM57.201 13.108C56.745 13.108 56.388 13 56.13 12.784C55.872 12.562 55.743 12.271 55.743 11.911C55.743 11.683 55.791 11.473 55.887 11.281C55.983 11.083 56.133 10.912 56.337 10.768C56.541 10.618 56.802 10.501 57.12 10.417C57.438 10.333 57.819 10.291 58.263 10.291C58.281 10.291 58.314 10.291 58.362 10.291C58.41 10.291 58.464 10.291 58.524 10.291C58.584 10.291 58.635 10.291 58.677 10.291L58.713 11.137C58.677 11.137 58.626 11.137 58.56 11.137C58.494 11.137 58.425 11.14 58.353 11.146C58.287 11.146 58.236 11.146 58.2 11.146C57.942 11.146 57.735 11.164 57.579 11.2C57.423 11.23 57.303 11.275 57.219 11.335C57.141 11.389 57.087 11.452 57.057 11.524C57.027 11.59 57.012 11.656 57.012 11.722C57.012 11.794 57.024 11.857 57.048 11.911C57.072 11.965 57.105 12.007 57.147 12.037C57.189 12.067 57.24 12.091 57.3 12.109C57.36 12.121 57.423 12.127 57.489 12.127C57.633 12.127 57.756 12.103 57.858 12.055C57.96 12.007 58.044 11.929 58.11 11.821C58.182 11.707 58.233 11.563 58.263 11.389C58.299 11.215 58.317 11.002 58.317 10.75C58.317 10.444 58.287 10.21 58.227 10.048C58.173 9.886 58.092 9.778 57.984 9.724C57.882 9.664 57.756 9.634 57.606 9.634C57.42 9.634 57.249 9.661 57.093 9.715C56.937 9.763 56.772 9.877 56.598 10.057L55.878 9.319C56.148 9.073 56.436 8.902 56.742 8.806C57.054 8.71 57.357 8.662 57.651 8.662C57.909 8.662 58.152 8.692 58.38 8.752C58.614 8.806 58.821 8.899 59.001 9.031C59.187 9.163 59.331 9.346 59.433 9.58C59.541 9.808 59.595 10.096 59.595 10.444V13H58.308V12.667C58.23 12.739 58.152 12.805 58.074 12.865C58.002 12.919 57.921 12.964 57.831 13C57.747 13.036 57.654 13.063 57.552 13.081C57.45 13.099 57.333 13.108 57.201 13.108ZM60.468 13V12.01H61.62V7.915H60.522V6.925H62.898V12.01H64.041V13H60.468ZM64.968 13V12.01H66.12V7.915H65.022V6.925H67.398V12.01H68.541V13H64.968ZM71.43 13.108C71.13 13.108 70.848 13.06 70.584 12.964C70.326 12.862 70.098 12.718 69.9 12.532C69.708 12.346 69.558 12.118 69.45 11.848C69.342 11.572 69.288 11.263 69.288 10.921C69.288 10.573 69.339 10.261 69.441 9.985C69.549 9.703 69.693 9.466 69.873 9.274C70.059 9.076 70.275 8.926 70.521 8.824C70.767 8.716 71.034 8.662 71.322 8.662C71.568 8.662 71.802 8.707 72.024 8.797C72.252 8.887 72.453 9.022 72.627 9.202C72.801 9.376 72.939 9.595 73.041 9.859C73.143 10.117 73.194 10.414 73.194 10.75C73.194 10.822 73.194 10.912 73.194 11.02C73.194 11.128 73.191 11.215 73.185 11.281H70.512C70.524 11.431 70.56 11.56 70.62 11.668C70.68 11.77 70.755 11.857 70.845 11.929C70.941 11.995 71.043 12.046 71.151 12.082C71.265 12.112 71.379 12.127 71.493 12.127C71.613 12.127 71.727 12.118 71.835 12.1C71.943 12.082 72.048 12.049 72.15 12.001C72.252 11.947 72.351 11.872 72.447 11.776L73.077 12.388C72.933 12.556 72.774 12.694 72.6 12.802C72.426 12.91 72.24 12.988 72.042 13.036C71.844 13.084 71.64 13.108 71.43 13.108ZM70.521 10.345H71.988C71.988 10.225 71.973 10.123 71.943 10.039C71.913 9.949 71.868 9.877 71.808 9.823C71.748 9.763 71.673 9.721 71.583 9.697C71.493 9.667 71.391 9.652 71.277 9.652C71.175 9.652 71.079 9.667 70.989 9.697C70.905 9.721 70.83 9.763 70.764 9.823C70.698 9.877 70.644 9.949 70.602 10.039C70.56 10.123 70.533 10.225 70.521 10.345ZM74.625 14.593C74.421 14.593 74.241 14.557 74.085 14.485C73.929 14.413 73.764 14.311 73.59 14.179L73.995 13.306L74.022 13.234L74.112 13.27C74.136 13.312 74.16 13.357 74.184 13.405C74.208 13.453 74.259 13.507 74.337 13.567C74.373 13.591 74.412 13.609 74.454 13.621C74.502 13.633 74.55 13.639 74.598 13.639C74.694 13.639 74.778 13.609 74.85 13.549C74.922 13.495 74.991 13.408 75.057 13.288C75.123 13.168 75.192 13.009 75.264 12.811L76.254 10.147C76.344 9.901 76.413 9.67 76.461 9.454C76.509 9.232 76.533 9.001 76.533 8.761H77.676C77.67 9.031 77.61 9.322 77.496 9.634C77.388 9.94 77.283 10.228 77.181 10.498L76.137 13.297C75.957 13.777 75.744 14.113 75.498 14.305C75.252 14.497 74.961 14.593 74.625 14.593ZM73.689 8.761H74.94L76.101 11.803L75.408 13.081L73.689 8.761Z" fill="white"/>
<path d="M26.552 29.104C26.3067 29.104 26.0747 29.0613 25.856 28.976C25.6373 28.8853 25.4507 28.744 25.296 28.552L25.696 27.952L25.752 27.888L25.808 27.928C25.8133 27.9707 25.824 28.0133 25.84 28.056C25.8613 28.0933 25.904 28.1413 25.968 28.2C26.048 28.2587 26.1307 28.3067 26.216 28.344C26.3013 28.376 26.3973 28.392 26.504 28.392C26.6587 28.392 26.784 28.3547 26.88 28.28C26.9813 28.2 27.056 28.0773 27.104 27.912C27.152 27.7413 27.176 27.5253 27.176 27.264V24.664H26.248V24.016H28.712V24.664H27.968V27.312C27.9733 27.6213 27.936 27.8907 27.856 28.12C27.7813 28.3493 27.6747 28.5387 27.536 28.688C27.4027 28.832 27.2507 28.936 27.08 29C26.9147 29.0693 26.7387 29.104 26.552 29.104ZM31 29.08C30.664 29.08 30.3653 29 30.104 28.84C29.8427 28.6747 29.6347 28.448 29.48 28.16C29.3253 27.8667 29.248 27.5307 29.248 27.152C29.248 26.7787 29.3253 26.448 29.48 26.16C29.6347 25.8667 29.8427 25.6373 30.104 25.472C30.3653 25.3013 30.664 25.216 31 25.216C31.3307 25.216 31.6267 25.3013 31.888 25.472C32.1547 25.6373 32.3653 25.8667 32.52 26.16C32.6747 26.448 32.752 26.7787 32.752 27.152C32.752 27.5253 32.6747 27.8587 32.52 28.152C32.3653 28.44 32.1547 28.6667 31.888 28.832C31.6267 28.9973 31.3307 29.08 31 29.08ZM31 28.432C31.1813 28.432 31.3413 28.3787 31.48 28.272C31.624 28.16 31.736 28.008 31.816 27.816C31.896 27.624 31.936 27.4 31.936 27.144C31.936 26.8827 31.896 26.656 31.816 26.464C31.736 26.272 31.624 26.1227 31.48 26.016C31.3413 25.9093 31.1813 25.856 31 25.856C30.8187 25.856 30.656 25.9093 30.512 26.016C30.3733 26.1227 30.264 26.272 30.184 26.464C30.104 26.656 30.064 26.8827 30.064 27.144C30.064 27.4 30.104 27.624 30.184 27.816C30.264 28.008 30.3733 28.16 30.512 28.272C30.656 28.3787 30.8187 28.432 31 28.432ZM35.056 29.088C34.832 29.088 34.6213 29.0667 34.424 29.024C34.2267 28.9813 34.04 28.9173 33.864 28.832C33.6933 28.7467 33.536 28.6373 33.392 28.504L33.76 27.832L33.808 27.76L33.864 27.792C33.8747 27.8347 33.888 27.88 33.904 27.928C33.92 27.9707 33.9573 28.024 34.016 28.088C34.144 28.2 34.2907 28.2907 34.456 28.36C34.6213 28.424 34.824 28.456 35.064 28.456C35.2293 28.456 35.368 28.4373 35.48 28.4C35.5973 28.3573 35.688 28.3013 35.752 28.232C35.816 28.1573 35.848 28.0747 35.848 27.984C35.848 27.9147 35.8293 27.856 35.792 27.808C35.76 27.7547 35.7093 27.7067 35.64 27.664C35.5707 27.616 35.48 27.5707 35.368 27.528C35.256 27.48 35.12 27.4347 34.96 27.392C34.688 27.312 34.4507 27.2213 34.248 27.12C34.0453 27.0133 33.888 26.888 33.776 26.744C33.664 26.6 33.608 26.4293 33.608 26.232C33.608 26.0347 33.664 25.8613 33.776 25.712C33.8933 25.5573 34.0587 25.4347 34.272 25.344C34.4853 25.2533 34.7387 25.208 35.032 25.208C35.192 25.208 35.3413 25.2213 35.48 25.248C35.624 25.2693 35.7547 25.304 35.872 25.352C35.9947 25.4 36.1093 25.4613 36.216 25.536C36.3227 25.6053 36.424 25.688 36.52 25.784L36.112 26.328L36.064 26.392L36.008 26.344C36.0027 26.3013 35.9893 26.2613 35.968 26.224C35.952 26.1867 35.9147 26.1387 35.856 26.08C35.7387 25.9947 35.6107 25.9307 35.472 25.888C35.3333 25.8453 35.192 25.824 35.048 25.824C34.8613 25.824 34.696 25.856 34.552 25.92C34.4133 25.984 34.344 26.08 34.344 26.208C34.344 26.2827 34.3733 26.352 34.432 26.416C34.496 26.48 34.5973 26.544 34.736 26.608C34.8747 26.6667 35.064 26.728 35.304 26.792C35.608 26.872 35.8533 26.9653 36.04 27.072C36.2267 27.1733 36.3627 27.2933 36.448 27.432C36.5387 27.5707 36.584 27.7333 36.584 27.92C36.584 28.128 36.5253 28.3227 36.408 28.504C36.296 28.68 36.1253 28.8213 35.896 28.928C35.6667 29.0347 35.3867 29.088 35.056 29.088ZM39.168 29.088C38.9013 29.088 38.656 29.0453 38.432 28.96C38.208 28.8747 38.0133 28.752 37.848 28.592C37.688 28.4267 37.5627 28.224 37.472 27.984C37.3813 27.744 37.336 27.472 37.336 27.168C37.336 26.8587 37.3813 26.584 37.472 26.344C37.5627 26.0987 37.6853 25.8933 37.84 25.728C38 25.5627 38.184 25.4347 38.392 25.344C38.6053 25.2533 38.832 25.208 39.072 25.208C39.28 25.208 39.4773 25.2453 39.664 25.32C39.856 25.3947 40.0213 25.5067 40.16 25.656C40.304 25.8 40.416 25.984 40.496 26.208C40.5813 26.432 40.624 26.6933 40.624 26.992C40.624 27.0453 40.624 27.1067 40.624 27.176C40.624 27.24 40.6213 27.296 40.616 27.344H38.104C38.1147 27.536 38.152 27.704 38.216 27.848C38.28 27.9867 38.36 28.1013 38.456 28.192C38.5573 28.2827 38.672 28.3493 38.8 28.392C38.928 28.4347 39.0613 28.456 39.2 28.456C39.3227 28.456 39.4347 28.4453 39.536 28.424C39.6427 28.3973 39.744 28.3573 39.84 28.304C39.936 28.2507 40.024 28.1787 40.104 28.088L40.52 28.496C40.408 28.6293 40.2827 28.7413 40.144 28.832C40.0053 28.9173 39.8533 28.9813 39.688 29.024C39.528 29.0667 39.3547 29.088 39.168 29.088ZM38.12 26.744H39.848C39.848 26.5947 39.8293 26.464 39.792 26.352C39.7547 26.24 39.6987 26.144 39.624 26.064C39.5547 25.984 39.4693 25.9253 39.368 25.888C39.2667 25.8453 39.1547 25.824 39.032 25.824C38.9147 25.824 38.8053 25.8427 38.704 25.88C38.608 25.9173 38.52 25.9733 38.44 26.048C38.36 26.1227 38.2907 26.2187 38.232 26.336C38.1787 26.448 38.1413 26.584 38.12 26.744ZM38.968 24.96L38.592 24.712L39.256 23.432L39.832 23.84L38.968 24.96ZM47.216 29.088C46.8053 29.088 46.4507 28.984 46.152 28.776C45.8533 28.5627 45.624 28.264 45.464 27.88C45.3093 27.496 45.232 27.0507 45.232 26.544C45.2267 26.1173 45.2667 25.7547 45.352 25.456C45.4427 25.152 45.56 24.9013 45.704 24.704C45.848 24.5067 46.008 24.352 46.184 24.24C46.36 24.128 46.536 24.0507 46.712 24.008C46.888 23.9653 47.0507 23.944 47.2 23.944C47.408 23.944 47.6107 23.9787 47.808 24.048C48.0053 24.1173 48.184 24.216 48.344 24.344C48.5093 24.4667 48.64 24.6187 48.736 24.8L48.256 25.256L48.192 25.312L48.144 25.256C48.1493 25.2133 48.144 25.1733 48.128 25.136C48.112 25.0987 48.0773 25.0453 48.024 24.976C47.9547 24.896 47.88 24.8293 47.8 24.776C47.7253 24.7227 47.64 24.6827 47.544 24.656C47.448 24.624 47.336 24.608 47.208 24.608C47.08 24.608 46.9573 24.6293 46.84 24.672C46.7227 24.7093 46.6133 24.7733 46.512 24.864C46.4107 24.9493 46.3227 25.064 46.248 25.208C46.1733 25.352 46.1147 25.528 46.072 25.736C46.0293 25.9387 46.008 26.176 46.008 26.448C46.008 26.7787 46.0373 27.0667 46.096 27.312C46.1547 27.5573 46.2347 27.7627 46.336 27.928C46.4427 28.0933 46.5707 28.2187 46.72 28.304C46.8693 28.3893 47.0347 28.432 47.216 28.432C47.28 28.432 47.3467 28.4267 47.416 28.416C47.4907 28.4053 47.5627 28.392 47.632 28.376C47.7067 28.3547 47.776 28.3253 47.84 28.288C47.9093 28.2507 47.9733 28.2107 48.032 28.168V27.152H47.184V26.496H48.744V28.568C48.5093 28.7493 48.2613 28.8827 48 28.968C47.744 29.048 47.4827 29.088 47.216 29.088ZM51 29.08C50.664 29.08 50.3653 29 50.104 28.84C49.8427 28.6747 49.6347 28.448 49.48 28.16C49.3253 27.8667 49.248 27.5307 49.248 27.152C49.248 26.7787 49.3253 26.448 49.48 26.16C49.6347 25.8667 49.8427 25.6373 50.104 25.472C50.3653 25.3013 50.664 25.216 51 25.216C51.3307 25.216 51.6267 25.3013 51.888 25.472C52.1547 25.6373 52.3653 25.8667 52.52 26.16C52.6747 26.448 52.752 26.7787 52.752 27.152C52.752 27.5253 52.6747 27.8587 52.52 28.152C52.3653 28.44 52.1547 28.6667 51.888 28.832C51.6267 28.9973 51.3307 29.08 51 29.08ZM51 28.432C51.1813 28.432 51.3413 28.3787 51.48 28.272C51.624 28.16 51.736 28.008 51.816 27.816C51.896 27.624 51.936 27.4 51.936 27.144C51.936 26.8827 51.896 26.656 51.816 26.464C51.736 26.272 51.624 26.1227 51.48 26.016C51.3413 25.9093 51.1813 25.856 51 25.856C50.8187 25.856 50.656 25.9093 50.512 26.016C50.3733 26.1227 50.264 26.272 50.184 26.464C50.104 26.656 50.064 26.8827 50.064 27.144C50.064 27.4 50.104 27.624 50.184 27.816C50.264 28.008 50.3733 28.16 50.512 28.272C50.656 28.3787 50.8187 28.432 51 28.432ZM53.48 29V25.296H54.28V25.864C54.3707 25.7307 54.472 25.616 54.584 25.52C54.696 25.424 54.8213 25.3493 54.96 25.296C55.0987 25.2373 55.248 25.208 55.408 25.208C55.616 25.208 55.808 25.2613 55.984 25.368C56.16 25.4747 56.3013 25.6427 56.408 25.872C56.5147 26.096 56.568 26.3947 56.568 26.768V29H55.776V26.776C55.776 26.5573 55.752 26.3787 55.704 26.24C55.656 26.1013 55.5867 26 55.496 25.936C55.4107 25.872 55.3067 25.84 55.184 25.84C55.0773 25.84 54.9707 25.864 54.864 25.912C54.7573 25.96 54.6587 26.0267 54.568 26.112C54.4827 26.192 54.4133 26.2933 54.36 26.416C54.3067 26.5333 54.28 26.6667 54.28 26.816V29H53.48ZM57.344 28.512L59.472 25.968H57.504V25.296H60.472V25.816L58.384 28.336H60.288C60.3787 28.336 60.4427 28.3307 60.48 28.32C60.5173 28.3093 60.552 28.2907 60.584 28.264H60.656V28.336V29H57.344V28.512ZM62.616 29.088C62.2053 29.088 61.8853 28.9947 61.656 28.808C61.432 28.616 61.32 28.368 61.32 28.064C61.32 27.8613 61.3653 27.68 61.456 27.52C61.552 27.3547 61.6853 27.2133 61.856 27.096C62.032 26.9787 62.2427 26.888 62.488 26.824C62.7333 26.7547 63.0107 26.72 63.32 26.72C63.384 26.72 63.4507 26.7227 63.52 26.728C63.5947 26.728 63.672 26.7307 63.752 26.736C63.8373 26.7413 63.9227 26.7467 64.008 26.752L64.032 27.32C63.9573 27.3093 63.8773 27.3013 63.792 27.296C63.712 27.2907 63.632 27.288 63.552 27.288C63.472 27.288 63.3973 27.288 63.328 27.288C63.12 27.288 62.9387 27.304 62.784 27.336C62.6347 27.3627 62.5093 27.4053 62.408 27.464C62.312 27.5227 62.24 27.5947 62.192 27.68C62.144 27.7653 62.12 27.864 62.12 27.976C62.12 28.0667 62.136 28.1467 62.168 28.216C62.2 28.28 62.2427 28.3307 62.296 28.368C62.3547 28.4053 62.4213 28.4347 62.496 28.456C62.576 28.472 62.6613 28.48 62.752 28.48C62.928 28.48 63.0827 28.4507 63.216 28.392C63.3493 28.3333 63.4613 28.248 63.552 28.136C63.648 28.0187 63.72 27.8747 63.768 27.704C63.816 27.528 63.84 27.3227 63.84 27.088C63.84 26.7627 63.8027 26.5093 63.728 26.328C63.6587 26.1467 63.5547 26.0213 63.416 25.952C63.2773 25.8827 63.104 25.848 62.896 25.848C62.7253 25.848 62.56 25.8773 62.4 25.936C62.2453 25.9893 62.0933 26.0907 61.944 26.24L61.52 25.76C61.7227 25.568 61.944 25.4293 62.184 25.344C62.4293 25.2587 62.68 25.216 62.936 25.216C63.1707 25.216 63.3867 25.2453 63.584 25.304C63.7867 25.3573 63.9627 25.448 64.112 25.576C64.2667 25.704 64.384 25.8773 64.464 26.096C64.5493 26.3147 64.592 26.592 64.592 26.928V29H63.76V28.544C63.6907 28.6507 63.6133 28.7413 63.528 28.816C63.4427 28.8853 63.3493 28.9413 63.248 28.984C63.152 29.0213 63.0507 29.048 62.944 29.064C62.8373 29.08 62.728 29.088 62.616 29.088ZM62.856 24.96L62.48 24.712L63.144 23.432L63.72 23.84L62.856 24.96ZM65.544 29V28.368H66.6V24.28H65.592V23.648H67.408V28.368H68.456V29H65.544ZM71.168 29.088C70.9013 29.088 70.656 29.0453 70.432 28.96C70.208 28.8747 70.0133 28.752 69.848 28.592C69.688 28.4267 69.5627 28.224 69.472 27.984C69.3813 27.744 69.336 27.472 69.336 27.168C69.336 26.8587 69.3813 26.584 69.472 26.344C69.5627 26.0987 69.6853 25.8933 69.84 25.728C70 25.5627 70.184 25.4347 70.392 25.344C70.6053 25.2533 70.832 25.208 71.072 25.208C71.28 25.208 71.4773 25.2453 71.664 25.32C71.856 25.3947 72.0213 25.5067 72.16 25.656C72.304 25.8 72.416 25.984 72.496 26.208C72.5813 26.432 72.624 26.6933 72.624 26.992C72.624 27.0453 72.624 27.1067 72.624 27.176C72.624 27.24 72.6213 27.296 72.616 27.344H70.104C70.1147 27.536 70.152 27.704 70.216 27.848C70.28 27.9867 70.36 28.1013 70.456 28.192C70.5573 28.2827 70.672 28.3493 70.8 28.392C70.928 28.4347 71.0613 28.456 71.2 28.456C71.3227 28.456 71.4347 28.4453 71.536 28.424C71.6427 28.3973 71.744 28.3573 71.84 28.304C71.936 28.2507 72.024 28.1787 72.104 28.088L72.52 28.496C72.408 28.6293 72.2827 28.7413 72.144 28.832C72.0053 28.9173 71.8533 28.9813 71.688 29.024C71.528 29.0667 71.3547 29.088 71.168 29.088ZM70.12 26.744H71.848C71.848 26.5947 71.8293 26.464 71.792 26.352C71.7547 26.24 71.6987 26.144 71.624 26.064C71.5547 25.984 71.4693 25.9253 71.368 25.888C71.2667 25.8453 71.1547 25.824 71.032 25.824C70.9147 25.824 70.8053 25.8427 70.704 25.88C70.608 25.9173 70.52 25.9733 70.44 26.048C70.36 26.1227 70.2907 26.2187 70.232 26.336C70.1787 26.448 70.1413 26.584 70.12 26.744ZM73.344 28.512L75.472 25.968H73.504V25.296H76.472V25.816L74.384 28.336H76.288C76.3787 28.336 76.4427 28.3307 76.48 28.32C76.5173 28.3093 76.552 28.2907 76.584 28.264H76.656V28.336V29H73.344V28.512Z" fill="white"/>
</svg>
