<svg width="102" height="44" viewBox="0 0 102 44" fill="none" xmlns="http://www.w3.org/2000/svg">
<path d="M47.5 37H1V1H101V37H54.5L51 43L47.5 37Z" fill="black" stroke="black"/>
<path d="M29.506 15V8.147H34.137V9.379H31.035V10.82H33.576V12.052H31.035V13.768H34.115V15H29.506ZM36.612 15L34.742 9.819H36.381L37.47 13.185H37.283L37.844 11.766C37.954 11.4433 38.0457 11.117 38.119 10.787C38.1923 10.457 38.229 10.1343 38.229 9.819H39.67C39.648 10.1563 39.5783 10.5047 39.461 10.864C39.3437 11.216 39.219 11.5643 39.087 11.909L37.844 15H36.612ZM42.97 15.132C42.6033 15.132 42.2587 15.0733 41.936 14.956C41.6207 14.8313 41.342 14.6553 41.1 14.428C40.8653 14.2007 40.682 13.922 40.55 13.592C40.418 13.2547 40.352 12.877 40.352 12.459C40.352 12.0337 40.4143 11.6523 40.539 11.315C40.671 10.9703 40.847 10.6807 41.067 10.446C41.2943 10.204 41.5583 10.0207 41.859 9.896C42.1597 9.764 42.486 9.698 42.838 9.698C43.1387 9.698 43.4247 9.753 43.696 9.863C43.9747 9.973 44.2203 10.138 44.433 10.358C44.6457 10.5707 44.8143 10.8383 44.939 11.161C45.0637 11.4763 45.126 11.8393 45.126 12.25C45.126 12.338 45.126 12.448 45.126 12.58C45.126 12.712 45.1223 12.8183 45.115 12.899H41.848C41.8627 13.0823 41.9067 13.24 41.98 13.372C42.0533 13.4967 42.145 13.603 42.255 13.691C42.3723 13.7717 42.497 13.834 42.629 13.878C42.7683 13.9147 42.9077 13.933 43.047 13.933C43.1937 13.933 43.333 13.922 43.465 13.9C43.597 13.878 43.7253 13.8377 43.85 13.779C43.9747 13.713 44.0957 13.6213 44.213 13.504L44.983 14.252C44.807 14.4573 44.6127 14.626 44.4 14.758C44.1873 14.89 43.96 14.9853 43.718 15.044C43.476 15.1027 43.2267 15.132 42.97 15.132ZM41.859 11.755H43.652C43.652 11.6083 43.6337 11.4837 43.597 11.381C43.5603 11.271 43.5053 11.183 43.432 11.117C43.3587 11.0437 43.267 10.9923 43.157 10.963C43.047 10.9263 42.9223 10.908 42.783 10.908C42.6583 10.908 42.541 10.9263 42.431 10.963C42.3283 10.9923 42.2367 11.0437 42.156 11.117C42.0753 11.183 42.0093 11.271 41.958 11.381C41.9067 11.4837 41.8737 11.6083 41.859 11.755ZM46.259 9.819H47.854V11.238L47.678 11.194C47.7 10.974 47.755 10.776 47.843 10.6C47.9383 10.4167 48.0593 10.259 48.206 10.127C48.3527 9.98767 48.514 9.88133 48.69 9.808C48.8733 9.73467 49.0603 9.698 49.251 9.698C49.5517 9.698 49.8193 9.74567 50.054 9.841C50.2887 9.93633 50.5087 10.0903 50.714 10.303L50.076 11.634L50.043 11.722L49.933 11.678C49.9037 11.6193 49.8817 11.557 49.867 11.491C49.8523 11.4177 49.8047 11.337 49.724 11.249C49.6287 11.1683 49.5187 11.1023 49.394 11.051C49.2767 10.9923 49.1447 10.963 48.998 10.963C48.8293 10.963 48.6717 10.9887 48.525 11.04C48.3857 11.0913 48.2647 11.172 48.162 11.282C48.0593 11.392 47.9787 11.5313 47.92 11.7C47.8613 11.8687 47.832 12.0703 47.832 12.305V15H46.259V9.819ZM51.275 15V9.819H52.529V10.116C52.617 10.006 52.705 9.92167 52.793 9.863C52.881 9.80433 52.969 9.764 53.057 9.742C53.1523 9.71267 53.244 9.698 53.332 9.698C53.442 9.698 53.5483 9.71267 53.651 9.742C53.7537 9.77133 53.8527 9.82633 53.948 9.907C54.0433 9.98033 54.124 10.094 54.19 10.248C54.278 10.1087 54.3697 10.0023 54.465 9.929C54.5603 9.84833 54.6703 9.78967 54.795 9.753C54.927 9.71633 55.0737 9.698 55.235 9.698C55.433 9.698 55.598 9.73467 55.73 9.808C55.8693 9.874 55.983 9.973 56.071 10.105C56.159 10.237 56.2213 10.402 56.258 10.6C56.302 10.798 56.324 11.0253 56.324 11.282V15H55.015V11.535C55.015 11.3663 55.0077 11.2307 54.993 11.128C54.9857 11.018 54.9673 10.9373 54.938 10.886C54.916 10.8347 54.8757 10.809 54.817 10.809C54.751 10.809 54.685 10.842 54.619 10.908C54.553 10.9667 54.498 11.0657 54.454 11.205C54.4173 11.337 54.399 11.5167 54.399 11.744V15H53.2V11.546C53.2 11.2307 53.1817 11.0217 53.145 10.919C53.1083 10.8163 53.0497 10.765 52.969 10.765C52.9103 10.765 52.8553 10.7833 52.804 10.82C52.76 10.8567 52.7197 10.9153 52.683 10.996C52.6537 11.0693 52.628 11.1647 52.606 11.282C52.5913 11.392 52.584 11.5203 52.584 11.667V15H51.275ZM59.239 15.132C58.777 15.132 58.3553 15.022 57.974 14.802C57.5927 14.5747 57.2883 14.2557 57.061 13.845C56.8337 13.4343 56.72 12.9577 56.72 12.415C56.72 11.909 56.8337 11.4507 57.061 11.04C57.2883 10.6293 57.5927 10.303 57.974 10.061C58.3553 9.819 58.777 9.698 59.239 9.698C59.701 9.698 60.1227 9.819 60.504 10.061C60.8927 10.303 61.2007 10.6293 61.428 11.04C61.6627 11.4507 61.78 11.909 61.78 12.415C61.78 12.9503 61.6627 13.4233 61.428 13.834C61.2007 14.2447 60.8927 14.5637 60.504 14.791C60.1227 15.0183 59.701 15.132 59.239 15.132ZM59.239 13.911C59.437 13.911 59.6093 13.8487 59.756 13.724C59.91 13.5993 60.031 13.427 60.119 13.207C60.207 12.9797 60.251 12.7157 60.251 12.415C60.251 12.0923 60.207 11.821 60.119 11.601C60.031 11.381 59.91 11.2123 59.756 11.095C59.6093 10.9777 59.437 10.919 59.239 10.919C59.0557 10.919 58.887 10.9777 58.733 11.095C58.5863 11.2123 58.469 11.381 58.381 11.601C58.293 11.821 58.249 12.0923 58.249 12.415C58.249 12.7157 58.2893 12.9797 58.37 13.207C58.458 13.427 58.5753 13.5993 58.722 13.724C58.876 13.8487 59.0483 13.911 59.239 13.911ZM62.759 9.819H64.354V11.238L64.178 11.194C64.2 10.974 64.255 10.776 64.343 10.6C64.4383 10.4167 64.5593 10.259 64.706 10.127C64.8527 9.98767 65.014 9.88133 65.19 9.808C65.3733 9.73467 65.5603 9.698 65.751 9.698C66.0517 9.698 66.3193 9.74567 66.554 9.841C66.7887 9.93633 67.0087 10.0903 67.214 10.303L66.576 11.634L66.543 11.722L66.433 11.678C66.4037 11.6193 66.3817 11.557 66.367 11.491C66.3523 11.4177 66.3047 11.337 66.224 11.249C66.1287 11.1683 66.0187 11.1023 65.894 11.051C65.7767 10.9923 65.6447 10.963 65.498 10.963C65.3293 10.963 65.1717 10.9887 65.025 11.04C64.8857 11.0913 64.7647 11.172 64.662 11.282C64.5593 11.392 64.4787 11.5313 64.42 11.7C64.3613 11.8687 64.332 12.0703 64.332 12.305V15H62.759V9.819ZM70.47 15.132C70.1033 15.132 69.7587 15.0733 69.436 14.956C69.1207 14.8313 68.842 14.6553 68.6 14.428C68.3653 14.2007 68.182 13.922 68.05 13.592C67.918 13.2547 67.852 12.877 67.852 12.459C67.852 12.0337 67.9143 11.6523 68.039 11.315C68.171 10.9703 68.347 10.6807 68.567 10.446C68.7943 10.204 69.0583 10.0207 69.359 9.896C69.6597 9.764 69.986 9.698 70.338 9.698C70.6387 9.698 70.9247 9.753 71.196 9.863C71.4747 9.973 71.7203 10.138 71.933 10.358C72.1457 10.5707 72.3143 10.8383 72.439 11.161C72.5637 11.4763 72.626 11.8393 72.626 12.25C72.626 12.338 72.626 12.448 72.626 12.58C72.626 12.712 72.6223 12.8183 72.615 12.899H69.348C69.3627 13.0823 69.4067 13.24 69.48 13.372C69.5533 13.4967 69.645 13.603 69.755 13.691C69.8723 13.7717 69.997 13.834 70.129 13.878C70.2683 13.9147 70.4077 13.933 70.547 13.933C70.6937 13.933 70.833 13.922 70.965 13.9C71.097 13.878 71.2253 13.8377 71.35 13.779C71.4747 13.713 71.5957 13.6213 71.713 13.504L72.483 14.252C72.307 14.4573 72.1127 14.626 71.9 14.758C71.6873 14.89 71.46 14.9853 71.218 15.044C70.976 15.1027 70.7267 15.132 70.47 15.132ZM69.359 11.755H71.152C71.152 11.6083 71.1337 11.4837 71.097 11.381C71.0603 11.271 71.0053 11.183 70.932 11.117C70.8587 11.0437 70.767 10.9923 70.657 10.963C70.547 10.9263 70.4223 10.908 70.283 10.908C70.1583 10.908 70.041 10.9263 69.931 10.963C69.8283 10.9923 69.7367 11.0437 69.656 11.117C69.5753 11.183 69.5093 11.271 69.458 11.381C69.4067 11.4837 69.3737 11.6083 69.359 11.755Z" fill="white"/>
<path d="M28.568 29V24.688H27.208V24.008H30.768V24.688H29.344V29H28.568ZM32.616 29.088C32.2053 29.088 31.8853 28.9947 31.656 28.808C31.432 28.616 31.32 28.368 31.32 28.064C31.32 27.8613 31.3653 27.68 31.456 27.52C31.552 27.3547 31.6853 27.2133 31.856 27.096C32.032 26.9787 32.2427 26.888 32.488 26.824C32.7333 26.7547 33.0107 26.72 33.32 26.72C33.384 26.72 33.4507 26.7227 33.52 26.728C33.5947 26.728 33.672 26.7307 33.752 26.736C33.8373 26.7413 33.9227 26.7467 34.008 26.752L34.032 27.32C33.9573 27.3093 33.8773 27.3013 33.792 27.296C33.712 27.2907 33.632 27.288 33.552 27.288C33.472 27.288 33.3973 27.288 33.328 27.288C33.12 27.288 32.9387 27.304 32.784 27.336C32.6347 27.3627 32.5093 27.4053 32.408 27.464C32.312 27.5227 32.24 27.5947 32.192 27.68C32.144 27.7653 32.12 27.864 32.12 27.976C32.12 28.0667 32.136 28.1467 32.168 28.216C32.2 28.28 32.2427 28.3307 32.296 28.368C32.3547 28.4053 32.4213 28.4347 32.496 28.456C32.576 28.472 32.6613 28.48 32.752 28.48C32.928 28.48 33.0827 28.4507 33.216 28.392C33.3493 28.3333 33.4613 28.248 33.552 28.136C33.648 28.0187 33.72 27.8747 33.768 27.704C33.816 27.528 33.84 27.3227 33.84 27.088C33.84 26.7627 33.8027 26.5093 33.728 26.328C33.6587 26.1467 33.5547 26.0213 33.416 25.952C33.2773 25.8827 33.104 25.848 32.896 25.848C32.7253 25.848 32.56 25.8773 32.4 25.936C32.2453 25.9893 32.0933 26.0907 31.944 26.24L31.52 25.76C31.7227 25.568 31.944 25.4293 32.184 25.344C32.4293 25.2587 32.68 25.216 32.936 25.216C33.1707 25.216 33.3867 25.2453 33.584 25.304C33.7867 25.3573 33.9627 25.448 34.112 25.576C34.2667 25.704 34.384 25.8773 34.464 26.096C34.5493 26.3147 34.592 26.592 34.592 26.928V29H33.76V28.544C33.6907 28.6507 33.6133 28.7413 33.528 28.816C33.4427 28.8853 33.3493 28.9413 33.248 28.984C33.152 29.0213 33.0507 29.048 32.944 29.064C32.8373 29.08 32.728 29.088 32.616 29.088ZM36.008 30.4C35.832 30.4 35.6747 30.3707 35.536 30.312C35.3973 30.2587 35.264 30.176 35.136 30.064L35.432 29.52L35.472 29.456L35.528 29.488C35.544 29.5253 35.5627 29.56 35.584 29.592C35.6107 29.6293 35.6613 29.6747 35.736 29.728C35.7787 29.744 35.824 29.7547 35.872 29.76C35.92 29.7707 35.968 29.776 36.016 29.776C36.1387 29.776 36.2427 29.744 36.328 29.68C36.4133 29.6213 36.488 29.528 36.552 29.4C36.6213 29.272 36.6907 29.1067 36.76 28.904L37.528 26.664C37.608 26.4293 37.6773 26.2027 37.736 25.984C37.8 25.76 37.84 25.5307 37.856 25.296H38.608C38.5867 25.5413 38.5307 25.7947 38.44 26.056C38.3547 26.3173 38.2667 26.5707 38.176 26.816L37.256 29.352C37.1173 29.7413 36.944 30.0133 36.736 30.168C36.528 30.3227 36.2853 30.4 36.008 30.4ZM35.288 25.296H36.096L37.216 28.208L36.816 29.088L35.288 25.296ZM39.544 29V28.368H40.6V24.28H39.592V23.648H41.408V28.368H42.456V29H39.544ZM45 29.08C44.664 29.08 44.3653 29 44.104 28.84C43.8427 28.6747 43.6347 28.448 43.48 28.16C43.3253 27.8667 43.248 27.5307 43.248 27.152C43.248 26.7787 43.3253 26.448 43.48 26.16C43.6347 25.8667 43.8427 25.6373 44.104 25.472C44.3653 25.3013 44.664 25.216 45 25.216C45.3307 25.216 45.6267 25.3013 45.888 25.472C46.1547 25.6373 46.3653 25.8667 46.52 26.16C46.6747 26.448 46.752 26.7787 46.752 27.152C46.752 27.5253 46.6747 27.8587 46.52 28.152C46.3653 28.44 46.1547 28.6667 45.888 28.832C45.6267 28.9973 45.3307 29.08 45 29.08ZM45 28.432C45.1813 28.432 45.3413 28.3787 45.48 28.272C45.624 28.16 45.736 28.008 45.816 27.816C45.896 27.624 45.936 27.4 45.936 27.144C45.936 26.8827 45.896 26.656 45.816 26.464C45.736 26.272 45.624 26.1227 45.48 26.016C45.3413 25.9093 45.1813 25.856 45 25.856C44.8187 25.856 44.656 25.9093 44.512 26.016C44.3733 26.1227 44.264 26.272 44.184 26.464C44.104 26.656 44.064 26.8827 44.064 27.144C44.064 27.4 44.104 27.624 44.184 27.816C44.264 28.008 44.3733 28.16 44.512 28.272C44.656 28.3787 44.8187 28.432 45 28.432ZM47.792 25.296H48.616L48.6 26.352L48.504 26.264C48.5307 26.104 48.5813 25.96 48.656 25.832C48.7307 25.6987 48.8213 25.5867 48.928 25.496C49.04 25.4053 49.1627 25.336 49.296 25.288C49.4293 25.2347 49.568 25.208 49.712 25.208C49.9147 25.208 50.0987 25.2427 50.264 25.312C50.4293 25.3813 50.5787 25.4853 50.712 25.624L50.376 26.28L50.344 26.352L50.28 26.32C50.264 26.2773 50.248 26.2347 50.232 26.192C50.216 26.1493 50.176 26.0987 50.112 26.04C50.032 25.9867 49.952 25.9467 49.872 25.92C49.7973 25.8933 49.7093 25.88 49.608 25.88C49.48 25.88 49.3547 25.904 49.232 25.952C49.1147 25.9947 49.008 26.064 48.912 26.16C48.816 26.256 48.7387 26.3787 48.68 26.528C48.6267 26.672 48.6 26.848 48.6 27.056V29.008H47.792V25.296ZM56.952 29.088C56.6213 29.088 56.3147 29.0373 56.032 28.936C55.7547 28.8347 55.5173 28.6827 55.32 28.48L55.712 27.816L55.752 27.744L55.816 27.784C55.8267 27.8213 55.84 27.8613 55.856 27.904C55.872 27.9467 55.912 28 55.976 28.064C56.1093 28.1653 56.2613 28.2507 56.432 28.32C56.6027 28.384 56.7893 28.416 56.992 28.416C57.1307 28.416 57.2533 28.4 57.36 28.368C57.472 28.3307 57.568 28.2827 57.648 28.224C57.7333 28.16 57.7973 28.0853 57.84 28C57.8827 27.9093 57.904 27.8107 57.904 27.704C57.904 27.6293 57.896 27.56 57.88 27.496C57.864 27.4267 57.8347 27.3653 57.792 27.312C57.7493 27.2533 57.688 27.1947 57.608 27.136C57.5333 27.0773 57.4347 27.016 57.312 26.952C57.1893 26.8827 57.0427 26.8107 56.872 26.736C56.5253 26.5867 56.2507 26.4373 56.048 26.288C55.8507 26.1333 55.7093 25.968 55.624 25.792C55.5387 25.6107 55.496 25.4133 55.496 25.2C55.496 24.9547 55.5627 24.7387 55.696 24.552C55.8293 24.36 56.0133 24.2107 56.248 24.104C56.488 23.992 56.76 23.936 57.064 23.936C57.2667 23.936 57.456 23.9627 57.632 24.016C57.808 24.064 57.9733 24.136 58.128 24.232C58.2827 24.3227 58.4213 24.4373 58.544 24.576L58.08 25.12L58.032 25.184L57.976 25.136C57.9707 25.0933 57.96 25.0507 57.944 25.008C57.9333 24.9653 57.8987 24.912 57.84 24.848C57.728 24.7467 57.608 24.6773 57.48 24.64C57.3573 24.6027 57.2107 24.584 57.04 24.584C56.928 24.584 56.824 24.6 56.728 24.632C56.6373 24.6587 56.5573 24.7013 56.488 24.76C56.424 24.8133 56.3733 24.8747 56.336 24.944C56.304 25.0133 56.288 25.088 56.288 25.168C56.288 25.2427 56.296 25.3093 56.312 25.368C56.328 25.4267 56.3573 25.4853 56.4 25.544C56.448 25.6027 56.512 25.664 56.592 25.728C56.6773 25.7867 56.784 25.8507 56.912 25.92C57.04 25.984 57.1973 26.056 57.384 26.136C57.6347 26.248 57.8427 26.3573 58.008 26.464C58.1787 26.5707 58.312 26.6827 58.408 26.8C58.5093 26.912 58.5813 27.0373 58.624 27.176C58.6667 27.3093 58.688 27.4613 58.688 27.632C58.688 27.872 58.6267 28.104 58.504 28.328C58.3867 28.5467 58.2 28.728 57.944 28.872C57.688 29.016 57.3573 29.088 56.952 29.088ZM59.792 29.008L59.096 25.296H59.776L60.256 27.976L60.824 25.688H61.256L61.928 27.96C61.9813 27.5653 62.0267 27.2373 62.064 26.976C62.1013 26.7093 62.128 26.488 62.144 26.312C62.16 26.1307 62.1707 25.9787 62.176 25.856C62.1813 25.728 62.184 25.6027 62.184 25.48V25.296H62.88C62.8427 25.696 62.7947 26.1067 62.736 26.528C62.6773 26.9493 62.6107 27.3707 62.536 27.792C62.4613 28.208 62.384 28.6133 62.304 29.008H61.6L61.032 26.872L60.496 29.008H59.792ZM63.72 29V28.368H64.64V25.928H63.76V25.296H65.44V28.368H66.28V29H63.72ZM64.992 24.632C64.848 24.632 64.7253 24.584 64.624 24.488C64.528 24.3867 64.48 24.2693 64.48 24.136C64.48 23.992 64.528 23.872 64.624 23.776C64.72 23.68 64.8427 23.632 64.992 23.632C65.1307 23.632 65.2507 23.6827 65.352 23.784C65.4587 23.8853 65.512 24.0027 65.512 24.136C65.512 24.2693 65.4587 24.3867 65.352 24.488C65.2507 24.584 65.1307 24.632 64.992 24.632ZM68.168 25.928H67.376V25.296H68.168V25.048C68.168 24.7173 68.2347 24.4453 68.368 24.232C68.5067 24.0133 68.688 23.8533 68.912 23.752C69.136 23.6453 69.3813 23.592 69.648 23.592C69.8933 23.592 70.12 23.6347 70.328 23.72C70.536 23.8053 70.7147 23.9333 70.864 24.104L70.528 24.656L70.488 24.72L70.432 24.688C70.4213 24.6453 70.4053 24.6027 70.384 24.56C70.368 24.5173 70.328 24.4667 70.264 24.408C70.1733 24.3387 70.0853 24.2907 70 24.264C69.9147 24.2373 69.8107 24.224 69.688 24.224C69.5387 24.224 69.408 24.2533 69.296 24.312C69.1893 24.3653 69.104 24.4533 69.04 24.576C68.9813 24.6933 68.952 24.8507 68.952 25.048V25.296H70.104V25.928H68.952V29H68.168V25.928ZM73.392 29.072C73.1733 29.072 72.984 29.0373 72.824 28.968C72.6693 28.8933 72.544 28.776 72.448 28.616C72.3573 28.456 72.2933 28.248 72.256 27.992C72.2187 27.736 72.2053 27.424 72.216 27.056L72.32 24.4L73.136 24.296L73.216 24.288L73.224 24.36C73.1973 24.3973 73.1733 24.4347 73.152 24.472C73.136 24.5093 73.1227 24.5733 73.112 24.664L73.032 25.696L73.064 25.784L73.008 27.056C72.992 27.4187 73.0027 27.7013 73.04 27.904C73.0773 28.1013 73.1413 28.24 73.232 28.32C73.3227 28.3947 73.432 28.432 73.56 28.432C73.7307 28.432 73.8827 28.3973 74.016 28.328C74.1547 28.2587 74.2907 28.1733 74.424 28.072L74.6 28.664C74.4187 28.7973 74.2293 28.8987 74.032 28.968C73.8347 29.0373 73.6213 29.072 73.392 29.072ZM71.496 25.296H74.288L74.28 25.936H71.496V25.296Z" fill="white"/>
</svg>
