<svg width="861" height="511" viewBox="0 0 861 511" fill="none" xmlns="http://www.w3.org/2000/svg">
<path d="M346.763 152.594C349.586 148.713 353.82 148.918 355.584 149.507C358.407 151.976 360.583 165.532 361.318 172.001C361.465 161.856 359.995 143.332 364.405 131.864C368.016 122.477 378.495 65.6645 444.678 71.4389C510.396 77.1727 519.217 129.218 520.54 138.039C521.864 146.86 521.864 165.385 521.864 168.913C521.864 172.442 522.746 175.088 523.628 176.411C524.333 177.47 526.715 175.97 526.715 175.97C530.391 174.794 533.565 172.442 537.535 175.088C543.71 179.204 537.976 193.171 537.535 195.377C537.094 197.582 532.008 207.726 526.715 210.814C522.481 213.284 513.13 211.696 508.866 212.578C504.749 218.606 494.929 232.514 490.342 236.395C484.608 241.247 465.201 253.596 451.969 258.007C445.353 260.212 425.947 262.418 411.833 255.361C400.542 249.715 384.928 235.072 380.077 229.779C378.901 228.456 375.49 224.046 371.256 216.989C367.021 209.932 364.699 204.639 364.405 201.551C362.434 191.407 360.494 197.141 358.024 195.377C354.936 193.171 349.85 182.145 348.968 177.734C348.086 173.324 343.234 157.446 346.763 152.594Z" fill="#FEE5D7" stroke="black"/>
<path d="M351.615 148.183C352.673 148.536 354.702 148.918 355.584 149.065L357.349 151.271L361.318 166.267V161.856C361.759 160.533 362.642 157.446 362.642 155.681C362.642 153.476 363.083 138.921 364.406 136.716C365.729 134.51 370.14 123.925 371.022 119.514C371.904 115.104 373.668 104.96 377.638 98.3436C381.607 91.7278 385.136 91.2867 391.752 86.4351C398.367 81.5834 401.896 84.2297 408.953 79.8191C416.01 75.4086 417.333 78.0549 421.744 78.0549H430.565C434.093 78.0549 434.534 76.2907 444.679 74.9675C454.823 73.6443 456.587 78.937 463.644 79.8191C470.701 80.7013 469.819 81.1423 478.64 84.2297C487.461 87.3172 485.256 84.6708 490.108 89.5225C494.959 94.3741 494.077 95.6973 495.842 98.3436C497.253 100.461 508.191 110.693 513.484 115.545C514.219 118.338 516.042 124.984 517.453 129.218C519.218 134.51 519.659 134.952 520.1 138.921C520.541 142.891 521.423 160.092 521.423 161.856C521.423 163.62 520.652 168.529 521.423 172.001C522.305 175.97 523.863 176.411 524.745 176.411C525.627 176.411 530.391 173.765 535.096 177.293C536.86 178.616 536.86 183.909 538.183 188.32C539.242 191.848 541.271 193.612 542.153 194.053C545.24 193.759 551.856 192.73 553.62 190.966C555.826 188.761 556.267 186.114 556.708 183.027C557.149 179.94 558.472 176.852 561.118 175.97C563.765 175.088 563.324 164.944 563.765 161.856C564.206 158.769 558.472 153.917 558.472 149.065C558.472 144.214 553.62 128.777 553.62 123.925C553.62 119.073 551.415 113.34 547.446 108.047C543.476 102.754 542.153 93.492 541.271 91.2867C540.389 89.0814 540.389 69.2337 535.537 64.3821C531.656 60.5007 530.391 47.1807 530.244 41.0059C528.627 36.1543 523.099 31.4789 517.453 23.3634C510.397 13.2191 498.488 5.72106 484.374 3.95682C470.262 2.19279 467.849 2.19276 461.675 2.19266H461.673C454.175 2.19269 450.776 5.28 441.513 5.72106C432.251 6.16212 428.594 3.51587 423.742 2.19269C418.89 0.869513 412.403 -1.33582 389.468 8.36749C367.56 17.6365 358.231 42.7701 357.349 44.5344C356.467 46.2986 353.379 49.386 353.379 53.7966C353.379 58.2072 351.174 63.941 349.41 70.5569C347.645 77.1728 348.086 87.3172 348.086 89.5225C348.086 91.7278 349.41 108.929 349.41 110.252C349.41 111.575 350.292 112.899 348.086 115.545C345.881 118.191 352.497 121.279 351.615 123.925C350.733 126.571 351.615 126.571 351.615 128.777C351.615 130.982 348.969 137.598 348.086 140.244C347.204 142.891 348.969 144.655 349.41 145.978C349.851 147.301 350.292 147.742 351.615 148.183Z" fill="#4F1F1F"/>
<path d="M355.584 220.517C360.524 218.4 363.524 209.638 364.406 205.521H365.081L371.697 217.871L379.195 229.338C379.048 230.22 376.108 232.778 370.815 230.661C364.199 228.015 365.963 231.984 357.349 230.661C348.734 229.338 354.496 230.661 349.41 234.19C345.341 237.013 344.636 239.188 344.792 239.924C343.763 238.894 341.705 236.307 341.705 234.19C341.705 231.543 343.91 228.015 344.792 225.81C345.675 223.604 349.41 223.163 355.584 220.517Z" fill="#4F1F1F"/>
<path d="M506.22 236.836C506.22 230.22 510.19 217.871 510.19 216.548L507.543 215.224C506.073 217.283 502.78 222.017 501.369 224.487C499.957 226.956 494.606 233.014 492.106 235.513C492.106 238.6 489.46 246.981 487.696 253.155C485.625 260.402 489.901 260.653 490.342 261.977C490.783 263.3 492.547 270.357 492.988 272.121C493.43 273.885 501.369 279.178 502.692 278.737C504.015 278.296 501.81 273.444 501.369 270.357C500.928 267.269 499.604 263.3 499.604 259.33C499.604 255.361 504.897 253.155 504.015 250.509C503.133 247.863 506.22 243.452 506.22 236.836Z" fill="#4F1F1F"/>
<path d="M351.615 148.183C352.673 148.536 354.702 148.918 355.584 149.065L357.349 151.271L361.318 166.267V161.856C361.759 160.533 362.642 157.446 362.642 155.681C362.642 153.476 363.083 138.921 364.406 136.716C365.729 134.51 370.14 123.925 371.022 119.514C371.904 115.104 373.668 104.96 377.638 98.3436C381.607 91.7278 385.136 91.2867 391.752 86.4351C398.367 81.5834 401.896 84.2297 408.953 79.8191C416.01 75.4086 417.333 78.0549 421.744 78.0549H430.565C434.093 78.0549 434.534 76.2907 444.679 74.9675C454.823 73.6443 456.587 78.937 463.644 79.8191C470.701 80.7013 469.819 81.1423 478.64 84.2297C487.461 87.3172 485.256 84.6708 490.108 89.5225C494.959 94.3741 494.077 95.6973 495.842 98.3436C497.253 100.461 508.191 110.693 513.484 115.545C514.219 118.338 516.042 124.984 517.453 129.218C519.218 134.51 519.659 134.952 520.1 138.921C520.541 142.891 521.423 160.092 521.423 161.856C521.423 163.62 520.652 168.529 521.423 172.001C522.305 175.97 523.863 176.411 524.745 176.411C525.627 176.411 530.391 173.765 535.096 177.293C536.86 178.616 536.86 183.909 538.183 188.32C539.242 191.848 541.271 193.612 542.153 194.053C545.24 193.759 551.856 192.73 553.62 190.966C555.826 188.761 556.267 186.114 556.708 183.027C557.149 179.94 558.472 176.852 561.118 175.97C563.765 175.088 563.324 164.944 563.765 161.856C564.206 158.769 558.472 153.917 558.472 149.065C558.472 144.214 553.62 128.777 553.62 123.925C553.62 119.073 551.415 113.34 547.446 108.047C543.476 102.754 542.153 93.492 541.271 91.2867C540.389 89.0814 540.389 69.2337 535.537 64.3821C531.656 60.5007 530.391 47.1807 530.244 41.0059C528.627 36.1543 523.099 31.4789 517.453 23.3634C510.397 13.2191 498.488 5.72106 484.374 3.95682C470.262 2.19279 467.849 2.19276 461.675 2.19266H461.673C454.175 2.19269 450.776 5.28 441.513 5.72106C432.251 6.16212 428.594 3.51587 423.742 2.19269C418.89 0.869513 412.403 -1.33582 389.468 8.36749C367.56 17.6365 358.231 42.7701 357.349 44.5344C356.467 46.2986 353.379 49.386 353.379 53.7966C353.379 58.2072 351.174 63.941 349.41 70.5569C347.645 77.1728 348.086 87.3172 348.086 89.5225C348.086 91.7278 349.41 108.929 349.41 110.252C349.41 111.575 350.292 112.899 348.086 115.545C345.881 118.191 352.497 121.279 351.615 123.925C350.733 126.571 351.615 126.571 351.615 128.777C351.615 130.982 348.969 137.598 348.086 140.244C347.204 142.891 348.969 144.655 349.41 145.978C349.851 147.301 350.292 147.742 351.615 148.183Z" stroke="black"/>
<path d="M355.584 220.517C360.524 218.4 363.524 209.638 364.406 205.521H365.081L371.697 217.871L379.195 229.338C379.048 230.22 376.108 232.778 370.815 230.661C364.199 228.015 365.963 231.984 357.349 230.661C348.734 229.338 354.496 230.661 349.41 234.19C345.341 237.013 344.636 239.188 344.792 239.924C343.763 238.894 341.705 236.307 341.705 234.19C341.705 231.543 343.91 228.015 344.792 225.81C345.675 223.604 349.41 223.163 355.584 220.517Z" stroke="black"/>
<path d="M506.22 236.836C506.22 230.22 510.19 217.871 510.19 216.548L507.543 215.224C506.073 217.283 502.78 222.017 501.369 224.487C499.957 226.956 494.606 233.014 492.106 235.513C492.106 238.6 489.46 246.981 487.696 253.155C485.625 260.402 489.901 260.653 490.342 261.977C490.783 263.3 492.547 270.357 492.988 272.121C493.43 273.885 501.369 279.178 502.692 278.737C504.015 278.296 501.81 273.444 501.369 270.357C500.928 267.269 499.604 263.3 499.604 259.33C499.604 255.361 504.897 253.155 504.015 250.509C503.133 247.863 506.22 243.452 506.22 236.836Z" stroke="black"/>
<path d="M449.089 10.1317C448.207 12.337 444.678 9.2496 442.473 23.8046C440.709 35.4485 441.09 38.0655 440.943 42.7702M434.093 7.0443C429.035 5.72116 426.182 8.36757 419.773 7.04435C410.61 5.15261 398.395 4.83905 390.897 22.0404C383.399 39.2418 376.549 37.4775 371.021 38.8007M426.595 13.6603C421.302 13.6603 418.656 11.8958 415.569 23.8046C412.481 35.7133 411.158 40.124 411.158 46.2987M457.704 7.0443C465.643 7.0443 476.258 10.5729 477.317 21.1583C478.375 31.7437 477.758 42.3292 477.317 46.2987M482.61 7.0443C487.314 6.75029 498.4 9.16149 505.104 21.1583C511.808 33.1551 512.602 45.2696 512.161 49.8272" stroke="black"/>
<path d="M513.718 220.076C516.541 220.782 520.245 219.194 521.657 217.43C523.421 215.224 524.303 211.696 524.303 209.05C524.303 206.403 522.98 201.552 518.57 201.11C514.159 200.669 510.63 203.757 508.866 209.491C507.102 215.224 510.189 219.194 513.718 220.076Z" fill="#ECBF65"/>
<path d="M354.936 194.054C355.377 199.787 364.199 200.228 364.199 200.228C364.199 200.228 365.08 194.936 364.64 191.407C364.312 188.781 362.435 184.791 361.994 184.791C356.831 184.791 354.495 188.32 354.936 194.054Z" fill="#ECBF65"/>
<path d="M513.718 220.076C516.541 220.782 520.245 219.194 521.657 217.43C523.421 215.224 524.303 211.696 524.303 209.05C524.303 206.403 522.98 201.552 518.57 201.11C514.159 200.669 510.63 203.757 508.866 209.491C507.102 215.224 510.189 219.194 513.718 220.076Z" stroke="black"/>
<path d="M354.936 194.054C355.377 199.787 364.199 200.228 364.199 200.228C364.199 200.228 365.08 194.936 364.64 191.407C364.312 188.781 362.435 184.791 361.994 184.791C356.831 184.791 354.495 188.32 354.936 194.054Z" stroke="black"/>
<path d="M355.585 156.563C354.114 155.975 351.086 155.417 350.733 157.887C350.292 160.974 349.41 165.826 350.733 167.149C351.792 168.207 353.526 166.708 354.261 165.826C355.731 166.414 358.231 168.472 356.467 172.001C354.261 176.411 354.703 181.263 355.585 182.586C356.467 183.909 357.79 182.145 359.113 180.822C360.171 179.763 360.877 179.499 361.759 178.616M524.951 183.468C526.568 182.439 530.773 180.822 531.126 182.586C531.567 184.791 531.567 199.346 528.48 200.669C526.01 201.728 524.216 202.875 524.069 203.316" stroke="black"/>
<path d="M411.599 124.807C413.216 124.366 416.715 123.396 417.773 123.043C418.832 122.69 420.273 122.308 420.861 122.161" stroke="black"/>
<path d="M397.044 109.811C406.218 108.047 416.157 115.839 419.979 119.956C415.128 121.132 406.748 123.87 398.809 124.366C391.752 124.807 386.018 123.925 383.813 123.925C382.048 123.925 379.843 124.513 378.961 124.807C379.402 124.513 380.637 123.661 382.048 122.602C383.813 121.279 385.577 112.017 397.044 109.811Z" fill="white" stroke="black"/>
<path d="M384.694 126.13C387.047 126.424 392.192 127.012 393.957 127.012C395.721 127.012 400.572 126.424 402.778 126.13" stroke="black"/>
<path d="M396.417 119.618C397.476 123.146 400.681 124.028 402.151 124.028C403.915 124.028 408.149 123.411 409.208 120.941C410.909 116.971 409.649 112.561 407.002 111.238C403.632 109.552 400.387 110.355 398.622 111.238C396.858 112.12 395.094 115.207 396.417 119.618Z" fill="#4A2525" stroke="black"/>
<path d="M469.378 116.868C467.614 117.927 463.056 120.249 460.998 121.279C467.173 122.602 473.348 127.012 480.846 127.895C485.226 128.41 490.549 127.895 492.754 127.895C494.519 127.895 497.9 129.071 499.37 129.659L497.606 127.895C496.724 127.012 494.078 123.925 490.99 120.838C487.903 117.75 485.256 115.104 480.846 114.222C476.435 113.339 471.583 115.545 469.378 116.868Z" fill="white" stroke="black"/>
<path d="M472.466 121.279C472.818 124.454 475.553 126.13 476.876 126.571C477.464 126.865 479.183 127.687 481.287 127.453C485.256 127.012 486.193 124.536 486.58 122.602C487.021 120.397 485.697 116.868 483.933 115.545C482.169 114.222 478.199 114.222 476.876 114.663C475.553 115.104 472.025 117.309 472.466 121.279Z" fill="#4A2525" stroke="black"/>
<path d="M462.762 123.484C464.232 124.219 467.261 125.777 467.613 126.13C467.966 126.483 470.701 127.747 472.024 128.336M475.994 129.659C478.052 130.1 482.609 131.07 484.374 131.423C486.138 131.776 491.284 130.982 493.636 130.541" stroke="black"/>
<path d="M465.408 116.427C467.466 114.957 472.024 111.928 473.788 111.575C475.993 111.134 479.963 111.134 481.286 111.575M417.773 114.222C417.332 114.222 413.363 109.899 407.629 107.606C405.865 106.9 400.719 106.724 398.367 106.724M389.546 109.37C388.957 109.664 387.428 110.605 386.017 112.016C384.606 113.428 383.371 115.545 382.93 116.427M487.461 114.222C488.931 115.251 492.136 117.662 493.195 119.073C494.253 120.485 495.106 121.72 495.4 122.161" stroke="black"/>
<path d="M372.691 144.487C367.751 141.312 365.634 131.99 365.193 127.727C364.899 126.845 364.135 123.934 363.429 119.347C362.547 113.613 366.958 102.145 372.691 99.058C378.425 95.9706 392.098 87.5905 410.181 94.2064C428.265 100.822 429.147 114.054 429.147 120.67C429.147 127.286 421.208 145.81 404.889 148.898C388.569 151.985 378.866 148.457 372.691 144.487Z" fill="#D4D4D4" fill-opacity="0.18"/>
<path d="M452.523 115.818C450.759 120.052 450.906 125.522 451.2 127.727C451.2 131.549 452.7 140.782 458.698 147.134C466.196 155.073 479.869 160.365 492.66 158.16C505.356 155.971 507.623 150.74 513.263 137.722L513.389 137.43C519.123 124.198 508.538 108.761 502.804 103.91C497.07 99.058 478.546 94.2064 469.725 97.2938C460.903 100.381 454.729 110.526 452.523 115.818Z" fill="#D4D4D4" fill-opacity="0.18"/>
<path d="M372.691 144.487C367.751 141.312 365.634 131.99 365.193 127.727C364.899 126.845 364.135 123.934 363.429 119.347C362.547 113.613 366.958 102.145 372.691 99.058C378.425 95.9706 392.098 87.5905 410.181 94.2064C428.265 100.822 429.147 114.054 429.147 120.67C429.147 127.286 421.208 145.81 404.889 148.898C388.569 151.985 378.866 148.457 372.691 144.487Z" stroke="black" stroke-width="2"/>
<path d="M452.523 115.818C450.759 120.052 450.906 125.522 451.2 127.727C451.2 131.549 452.7 140.782 458.698 147.134C466.196 155.073 479.869 160.365 492.66 158.16C505.356 155.971 507.623 150.74 513.263 137.722L513.389 137.43C519.123 124.198 508.538 108.761 502.804 103.91C497.07 99.058 478.546 94.2064 469.725 97.2938C460.903 100.381 454.729 110.526 452.523 115.818Z" stroke="black" stroke-width="2"/>
<path d="M428.706 113.613C431.058 112.731 436.733 111.055 440.615 111.408C444.496 111.761 449.877 114.495 452.082 115.818" stroke="black"/>
<path d="M422.625 153.917C423.331 152.506 426.154 152.447 427.477 152.594C427.918 152.631 428.8 154.799 428.359 157.004C427.918 159.21 424.39 159.651 423.066 159.21C421.743 158.769 421.743 155.681 422.625 153.917Z" fill="#7D7D7D"/>
<path d="M442.914 159.21C441.503 158.151 441.15 155.24 441.15 153.917C441.139 153.476 441.15 153.035 442.473 152.594C443.796 152.153 446.443 153.035 448.207 154.358C449.971 155.681 449.53 159.21 449.089 160.092C448.648 160.974 444.678 160.533 442.914 159.21Z" fill="#7D7D7D"/>
<path d="M421.536 146.419C418.89 148.624 418.656 146.86 415.568 152.594C412.481 158.328 416.01 160.092 417.774 161.415C419.185 162.474 421.302 163.62 422.184 164.061M446.677 148.183C447.559 149.948 451.294 149.065 454.382 152.594C455.925 154.358 457.469 155.681 456.146 161.415C455.259 165.259 451.882 166.414 450.412 166.708M436.091 102.754C435.65 107.9 434.415 119.162 433.004 123.043C431.24 127.895 423.507 140.244 423.066 143.332C422.625 146.419 423.793 148.235 424.624 149.065C425.506 149.948 425.8 149.948 426.388 150.389M427.477 152.594C426.154 152.447 423.331 152.506 422.625 153.917C421.743 155.681 421.743 158.769 423.066 159.21C424.39 159.651 427.918 159.21 428.359 157.004C428.8 154.799 427.918 152.631 427.477 152.594ZM441.15 153.917C441.15 155.24 441.503 158.151 442.914 159.21C444.678 160.533 448.648 160.974 449.089 160.092C449.53 159.21 449.971 155.681 448.207 154.358C446.443 153.035 443.796 152.153 442.473 152.594C441.15 153.035 441.139 153.476 441.15 153.917Z" stroke="black"/>
<path d="M401.28 177.293C398.488 180.548 392.817 187.734 392.464 190.438C392.023 193.818 399.484 208.805 400.365 209.932M473.568 182.551C476.065 185.555 480.973 192.541 480.62 196.447C480.267 200.352 472.258 211.696 468.73 215.224" stroke="black"/>
<path d="M418.215 183.468C416.098 184.174 405.571 187.879 400.572 189.643C408.511 190.966 428.359 187.879 435.857 188.32C441.855 188.673 462.321 193.613 471.583 194.054C469.378 193.024 464.438 190.702 462.321 189.643C460.203 188.584 449.677 183.909 444.678 181.704C442.032 182.292 437.621 183.468 435.857 183.468C433.211 183.027 430.564 181.704 428.359 180.822C425.86 181.41 420.332 182.762 418.215 183.468Z" fill="#DB6969" stroke="black"/>
<path d="M416.01 201.551C411.423 199.787 403.513 192.73 401.014 189.643C402.484 193.465 407.63 202.345 409.394 203.757C411.599 205.521 416.892 213.019 432.77 214.783C448.648 216.547 458.351 210.814 460.557 208.608C464.967 204.198 468.937 198.464 471.583 194.494C468.496 197.141 464.085 201.551 458.792 203.757C453.122 206.12 421.743 203.757 416.01 201.551Z" fill="#DB6969" stroke="black"/>
<path d="M412.783 198.023C412.428 198.023 411.155 197.508 410.563 197.251L408.344 195.707L406.125 194.164L402.13 190.304L408.344 190.136L413.227 190.003L416.334 189.919L418.997 189.67L424.323 189.174L428.762 188.761H434.532H437.639L443.854 189.873L450.512 191.065L452.731 191.462L456.282 191.848L461.608 192.62L465.159 193.006L471.817 193.778L465.159 198.795L461.608 200.51L461.164 200.724C461.016 200.853 460.365 201.11 458.945 201.11C458.098 201.11 457.104 201.019 456.282 200.918C455.726 200.849 455.249 200.776 454.95 200.724C454.802 200.724 453.974 200.647 451.843 200.339C449.713 200.03 450.068 199.953 450.512 199.953C450.068 199.824 448.825 199.567 447.404 199.567C445.984 199.567 444.445 199.309 443.854 199.181C443.114 199.309 441.279 199.567 439.859 199.567C438.438 199.567 435.42 199.309 434.088 199.181H429.206C427.43 199.181 425.211 198.409 424.323 198.023L418.997 198.379L418.553 198.409C416.778 198.28 413.138 198.023 412.783 198.023Z" fill="white"/>
<path d="M424.323 198.023C425.211 198.409 427.43 199.181 429.206 199.181C430.981 199.181 433.201 199.181 434.088 199.181M424.323 198.023L418.997 198.379M424.323 198.023V189.174M434.088 199.181C435.42 199.309 438.438 199.567 439.859 199.567C441.279 199.567 443.114 199.309 443.854 199.181M434.088 199.181C434.088 198.872 434.384 192.105 434.532 188.761M443.854 199.181C444.445 199.309 445.984 199.567 447.404 199.567C448.825 199.567 450.068 199.824 450.512 199.953M443.854 199.181V189.873M450.512 199.953C450.068 199.953 449.713 200.03 451.843 200.339C453.974 200.647 454.802 200.724 454.95 200.724C455.249 200.776 455.726 200.849 456.282 200.918M450.512 199.953V191.065M465.159 198.795L471.817 193.778L465.159 193.006M465.159 198.795L461.608 200.51M465.159 198.795C465.159 196.713 465.159 192.668 465.159 193.006M413.227 190.003L416.334 189.919L418.997 189.67M413.227 190.003V197.637M413.227 190.003L408.344 190.136M418.997 189.67V198.379M418.997 189.67L424.323 189.174M418.997 198.379L418.553 198.409C416.778 198.28 413.138 198.023 412.783 198.023C412.428 198.023 411.155 197.508 410.563 197.251L408.344 195.707M424.323 189.174L428.762 188.761H434.532M434.532 188.761H437.639L443.854 189.873M443.854 189.873L450.512 191.065M450.512 191.065L452.731 191.462L456.282 191.848M456.282 200.918C457.104 201.019 458.098 201.11 458.945 201.11C460.365 201.11 461.016 200.853 461.164 200.724L461.608 200.51M456.282 200.918C456.282 200.454 456.134 194.645 456.282 191.848M456.282 191.848L461.608 192.62M461.608 200.51V192.62M461.608 192.62L465.159 193.006M408.344 195.707L406.125 194.164L402.13 190.304L408.344 190.136M408.344 195.707V190.136" stroke="black"/>
<path d="M418.891 198.464L410.069 197.582C410.951 198.17 414.833 201.199 416.244 201.552C418.008 201.993 423.301 203.316 434.328 204.198C443.149 204.904 453.293 205.08 457.704 203.757L466.525 198.464L459.909 201.552L449.324 200.228L444.031 199.787L439.179 200.228L433.445 199.787H428.153L424.183 198.464H418.891Z" fill="black" stroke="black"/>
<path d="M354.702 95.2561H348.968V89.9634H343.676V105.842H348.968V99.6667H354.702V95.2561Z" fill="#D9D9D9" stroke="black"/>
<path d="M359.554 58.6482C358.143 62.5295 354.261 82.9065 352.497 92.6098L353.379 109.811C357.202 107.606 365.641 103.195 368.816 103.195H375.432C395.427 101.284 436.563 97.4614 441.15 97.4614C446.884 97.4614 515.248 98.7846 517.012 98.7846C518.776 98.7846 530.685 97.9025 534.655 101.431C537.83 104.254 546.857 111.722 550.974 115.104C551.415 115.545 552.385 115.016 552.738 109.37C553.091 103.724 547.298 85.2588 544.358 76.7316C538.918 70.2628 526.627 56.3547 520.982 52.4734C515.336 48.5921 508.632 47.3277 505.986 47.1807C460.998 48.0628 370.581 49.9152 368.816 50.2681C366.611 50.7091 361.318 53.7966 359.554 58.6482Z" fill="#6A89C6"/>
<path d="M362.641 58.6482L364.847 101.431M509.514 51.5913C509.955 52.4734 511.72 56.4429 511.72 60.4124C511.72 63.5881 510.249 84.0826 509.514 93.933L507.75 97.4614M352.497 92.6098C354.261 82.9065 358.143 62.5295 359.554 58.6482C361.318 53.7966 366.611 50.7091 368.816 50.2681C370.581 49.9152 460.998 48.0628 505.986 47.1807C508.632 47.3277 515.336 48.5921 520.982 52.4734C526.627 56.3547 538.918 70.2628 544.358 76.7316C547.298 85.2588 553.091 103.724 552.738 109.37C552.385 115.016 551.415 115.545 550.974 115.104C546.857 111.722 537.83 104.254 534.655 101.431C530.685 97.9025 518.776 98.7846 517.012 98.7846C515.248 98.7846 446.884 97.4614 441.15 97.4614C436.563 97.4614 395.427 101.284 375.432 103.195C374.55 103.195 371.992 103.195 368.816 103.195C365.641 103.195 357.202 107.606 353.379 109.811L352.497 92.6098Z" stroke="black"/>
<path d="M428.359 35.7133C410.364 36.419 393.221 45.1226 386.899 49.3861H390.869C396.162 47.4749 406.571 43.2113 411.158 41.447C413.804 40.4292 420.866 38.3951 429.682 37.9186C446.001 37.0364 464.085 40.1238 468.054 41.006C472.906 42.0841 481.139 45.8576 484.815 47.6219H488.343C484.08 45.4166 474.758 40.7414 471.583 39.6828C467.613 38.3597 450.853 34.8312 428.359 35.7133Z" fill="#6A89C6" stroke="black"/>
<path d="M424.389 59.5303H401.895C397.926 59.5302 389.987 59.5303 388.223 60.4125C386.523 61.2623 385.723 63.7938 385.576 65.264C386.017 72.321 387.34 87.317 389.105 90.8455C390.869 94.374 395.426 94.962 397.485 94.815C407.335 94.374 427.653 93.3154 430.123 92.6097C433.211 91.7276 434.975 88.1991 434.975 86.4349V68.3515C434.975 65.7051 433.652 63.0588 431.446 61.2945C429.682 59.8831 426.007 59.5303 424.389 59.5303Z" fill="#4F1F1F" fill-opacity="0.51" stroke="black"/>
<path d="M444.237 85.9939V63.941C444.237 60.7653 448.354 59.9714 450.412 59.9714C460.557 59.9714 481.463 60.1479 483.933 60.8536C486.403 61.5592 487.902 64.088 488.343 65.2641C488.49 72.4681 488.696 87.3171 488.343 89.0814C487.99 90.8456 485.256 91.8747 483.933 92.1688H450.412C449.236 92.0218 446.619 91.4631 445.56 90.4045C444.502 89.346 444.237 87.0231 444.237 85.9939Z" fill="#4F1F1F" fill-opacity="0.51" stroke="black"/>
<path d="M377.43 248.745C378.842 245.217 379.489 233.308 379.636 229.338L389.339 239.042C393.749 243.452 403.012 250.509 411.392 254.92C419.08 258.966 428.152 259.771 433.445 260.213C438.738 260.654 451.431 258.493 457.262 255.802C462.996 253.156 466.083 251.832 476.228 246.54C483.865 242.555 488.577 238.16 491.224 235.954L481.52 277.414C479.903 286.529 476.316 306.171 474.904 311.816C473.14 318.873 466.965 336.516 462.996 344.014C459.82 350.012 429.916 391.795 415.361 411.937C405.658 393.56 385.458 355.04 382.282 347.983C378.312 339.162 375.666 322.402 373.902 315.345C372.138 308.288 369.932 277.855 371.696 269.475C373.461 261.095 375.666 253.156 377.43 248.745Z" fill="#FEE5D7"/>
<path d="M373.902 277.414C374.931 284.618 377.518 300.79 379.636 307.847C382.282 316.668 386.693 332.987 388.457 339.603C389.868 344.896 391.103 350.63 391.544 352.835M478.874 283.589C474.61 293.733 465.466 314.992 462.996 318.873C459.908 323.725 451.528 340.926 448.441 347.983C445.971 353.629 445.059 358.275 444.912 359.892M383.164 273.444C386.546 278.737 394.191 289.94 397.719 292.41C402.13 295.497 409.187 301.231 414.479 303.436C418.713 305.201 421.536 305.936 422.418 306.083M443.589 303.436C446.383 302.26 452.41 299.555 454.175 298.144C455.939 296.732 460.791 291.675 462.996 289.322M403.012 258.889C406.687 263.447 414.391 272.65 415.802 273.003M379.636 229.338C379.489 233.308 378.842 245.217 377.43 248.745C375.666 253.156 373.461 261.095 371.696 269.475C369.932 277.855 372.138 308.288 373.902 315.345C375.666 322.402 378.312 339.162 382.282 347.983C385.458 355.04 405.658 393.56 415.361 411.937C429.916 391.795 459.82 350.012 462.996 344.014C466.965 336.516 473.14 318.873 474.904 311.816C476.316 306.171 479.903 286.529 481.52 277.414L491.224 235.954C488.577 238.16 483.865 242.555 476.228 246.54C466.083 251.832 462.996 253.156 457.262 255.802C451.431 258.493 438.738 260.654 433.445 260.213C428.152 259.771 419.08 258.966 411.392 254.92C403.012 250.509 393.749 243.452 389.339 239.042C385.81 235.513 381.106 230.809 379.636 229.338Z" stroke="black"/>
<path d="M514.808 43.2111C515.984 42.9171 518.865 42.329 520.983 42.329C523.1 42.329 525.687 42.9171 526.716 43.2111C529.069 41.7409 534.303 38.6241 536.42 37.9184C539.066 37.0363 554.944 36.1542 559.355 37.0363C563.765 37.9184 578.32 48.5039 579.643 50.2681C580.702 51.6795 585.083 59.0893 587.141 62.6178L604.784 79.3781C608.753 80.1132 617.751 82.2009 621.985 84.6708C627.278 87.7582 633.894 96.1383 637.863 108.047C641.833 119.956 646.684 140.244 648.449 143.332C650.213 146.419 659.034 158.769 661.68 160.974C664.327 163.179 667.855 165.385 671.825 170.236C675.794 175.088 694.319 193.171 701.817 200.228C707.815 205.874 766.653 259.036 795.322 284.912C805.319 295.938 825.666 318.962 827.078 322.843C828.842 327.695 860.157 375.329 859.716 386.355C859.275 397.382 859.275 409.29 850.454 415.906C841.633 422.522 823 424.5 819.5 425C816.37 425.447 811.397 425.776 800.5 427.5C794.5 428.449 780.939 429.138 773 429.138H747.5H718.577C706.374 428.844 680.029 427.815 672.266 426.051C664.503 424.287 651.389 419.729 645.802 417.671C644.038 406.35 642.715 378.769 651.536 359.01C660.357 339.25 679.029 323.725 687.262 318.432C689.908 318.726 696.083 319.403 699.612 319.755C703.14 320.108 709.021 321.961 711.52 322.843C708.286 316.374 699.612 300.437 690.79 288.44C681.969 276.443 664.768 254.332 657.27 244.775C649.331 235.366 632.394 215.577 628.16 211.696C622.867 206.844 595.081 186.997 584.495 183.468C573.91 179.94 552.739 168.913 539.066 148.624C525.393 128.336 524.511 129.218 523.188 126.13C521.865 123.043 516.572 112.016 513.926 108.929C511.279 105.842 511.513 101.184 511.513 98.7847C511.513 97.9026 530.627 98.2952 531.361 98.7847C532.684 99.6668 541.271 107.606 541.712 111.134C542.153 114.663 546.123 117.309 547.446 118.632C548.505 119.691 556.12 129.659 559.796 134.51C557.885 124.807 553.886 105.136 553.18 104.077C552.958 103.744 552.652 103.551 552.298 103.441C551.244 103.114 549.76 103.525 548.769 103.195C547.446 102.754 544.8 102.313 543.918 95.6973C543.036 89.0814 544.359 75.8496 544.8 74.5264L546.564 69.2337C543.771 68.9397 540.213 63.6764 539.507 62.6178C538.625 61.2946 535.538 59.5304 534.655 59.0893C533.773 58.6483 530.686 56.443 529.804 56.0019C528.922 55.5609 524.07 54.2377 523.188 53.7966C522.482 53.4438 518.042 51.2973 515.69 49.8271C514.808 49.239 513.044 47.6218 513.044 45.8576C513.044 44.0933 514.22 43.3582 514.808 43.2111Z" fill="#FEE5D7"/>
<path d="M526.716 43.2111C525.687 42.9171 523.1 42.329 520.983 42.329C518.865 42.329 515.984 42.9171 514.808 43.2111C514.22 43.3582 513.044 44.0933 513.044 45.8576C513.044 47.6218 514.808 49.239 515.69 49.8271C518.042 51.2973 522.482 53.4438 523.188 53.7966C524.07 54.2377 528.922 55.5609 529.804 56.0019C530.686 56.443 533.773 58.6483 534.655 59.0893C535.538 59.5304 538.625 61.2946 539.507 62.6178C540.213 63.6764 543.771 68.9397 546.564 69.2337M526.716 43.2111C529.069 41.7409 534.303 38.6241 536.42 37.9184C539.066 37.0363 554.944 36.1542 559.355 37.0363C563.765 37.9184 578.32 48.5039 579.643 50.2681C580.702 51.6795 585.083 59.0893 587.141 62.6178L604.784 79.3781C608.753 80.1132 617.751 82.2009 621.985 84.6708C627.278 87.7582 633.894 96.1383 637.863 108.047C641.833 119.956 646.684 140.244 648.449 143.332C650.213 146.419 659.034 158.769 661.68 160.974C664.327 163.179 667.855 165.385 671.825 170.236C675.794 175.088 694.319 193.171 701.817 200.228C707.815 205.874 766.653 259.036 795.322 284.912C805.319 295.938 825.666 318.962 827.078 322.843C828.842 327.695 860.157 375.329 859.716 386.355C859.275 397.382 859.275 409.291 850.454 415.906C841.633 422.522 823 424.5 819.5 425C816.37 425.447 811.397 425.776 800.5 427.5C794.5 428.449 780.939 429.138 773 429.138C766.649 429.138 753.969 429.138 747.5 429.138H718.577C706.374 428.844 680.029 427.815 672.266 426.051C664.503 424.287 651.389 419.729 645.802 417.671C644.038 406.35 642.715 378.769 651.536 359.01C660.357 339.25 679.029 323.725 687.262 318.432C689.908 318.726 696.083 319.403 699.612 319.755C703.14 320.108 709.021 321.961 711.52 322.843M526.716 43.2111C526.128 44.2403 525.217 46.9161 526.275 49.386C527.598 52.4734 535.096 53.7966 539.507 53.7966C543.036 53.7966 545.682 53.5026 546.564 53.3556C547.299 53.5026 549.122 54.2377 550.534 56.0019C551.945 57.7662 554.944 60.0609 556.267 60.9877M711.52 322.843C708.286 316.374 699.612 300.437 690.79 288.44C681.969 276.443 664.768 254.332 657.27 244.775C649.331 235.366 632.394 215.577 628.16 211.696C622.867 206.844 595.081 186.997 584.495 183.468C573.91 179.94 552.739 168.913 539.066 148.624C525.393 128.336 524.511 129.218 523.188 126.13C521.865 123.043 516.572 112.016 513.926 108.929C511.279 105.842 511.513 101.184 511.513 98.7847C511.513 97.9026 530.627 98.2952 531.361 98.7847C532.684 99.6668 541.271 107.606 541.712 111.134C542.153 114.663 546.123 117.309 547.446 118.632C548.505 119.691 556.12 129.659 559.796 134.51C557.885 124.807 553.886 105.136 553.18 104.077C552.958 103.744 552.652 103.551 552.298 103.441M711.52 322.843C714.608 329.459 721.312 344.014 723.429 349.306C726.075 355.922 732.691 372.683 736.661 378.857C740.63 385.032 744.6 390.325 744.6 392.53C744.6 394.736 745.482 395.618 742.394 392.53C739.925 390.06 737.543 385.326 736.661 383.268M546.564 69.2337C546.123 70.5569 545.153 73.4679 544.8 74.5264C544.359 75.8496 543.036 89.0814 543.918 95.6973C544.8 102.313 547.446 102.754 548.769 103.195C549.76 103.525 551.244 103.114 552.298 103.441M546.564 69.2337C548.769 67.4695 553.621 63.4999 555.385 61.7357C555.6 61.5208 555.899 61.2682 556.267 60.9877M618.898 183.468C622.279 182.733 629.571 180.998 631.689 179.94C633.806 178.881 643.156 173.912 647.567 171.559M614.487 186.997C612.723 188.173 608.577 190.613 606.107 190.966M612.282 169.354C609.194 164.208 603.02 152.859 603.02 148.624C603.02 143.332 606.107 128.777 606.107 126.13M624.19 108.929C620.368 109.517 611.753 110.34 607.871 108.929C603.99 107.518 601.255 103.048 600.373 100.99M615.81 92.6099C613.017 94.3741 606.901 97.9026 604.784 97.9026C602.667 97.9026 599.197 97.9026 597.727 97.9026M597.727 93.933C597.433 95.4032 596.051 99.314 592.875 103.195C589.7 107.077 585.083 110.105 583.172 111.134C583.172 112.163 582.731 115.104 580.967 118.632C578.761 123.043 576.556 127.012 574.792 127.895C573.028 128.777 571.263 129.659 569.058 128.777C566.853 127.895 564.647 123.484 568.176 113.34C570.999 105.224 571.998 101.725 572.145 100.99L585.377 81.1423C587.583 80.2602 590.67 79.7309 592.434 79.3781C595.963 78.6724 598.168 78.496 599.05 78.496M552.298 103.441C553.033 103.065 555.032 101.607 557.149 98.7847C559.796 95.2562 560.678 87.3171 561.119 85.1118C561.472 83.3476 561.56 81.1423 561.56 80.2602C563.177 79.8191 566.853 78.5842 568.617 77.1728C570.381 75.7614 573.469 73.3503 574.792 72.3211C575.821 74.0854 578.232 77.9667 579.643 79.3781C581.055 80.7895 581.996 81.4363 582.29 81.5834M584.495 60.4125C582.437 58.3542 577.35 54.1495 573.469 53.7966C569.09 53.3985 559.681 58.3898 556.267 60.9877M547.446 52.0324C548.328 51.1503 550.357 48.8568 551.416 46.7397M540.623 115.986C539.966 117.015 538.428 119.338 537.535 120.397C536.643 121.455 533.635 122.602 532.243 123.043M559.796 137.157C559.796 137.892 559.796 140.156 559.796 143.332C559.796 147.301 561.56 150.389 561.56 151.712" stroke="black"/>
<path d="M550.091 85.1119C547.621 84.4062 545.828 85.4059 545.24 85.994C544.652 86.7291 543.564 89.1696 543.917 93.0509C544.358 97.9026 547.004 99.6668 548.327 99.6668C549.65 99.6668 551.856 98.7847 553.179 97.0205C554.237 95.6091 554.208 89.9635 554.061 87.3171C553.767 86.8761 552.561 85.8176 550.091 85.1119Z" fill="#F2C8BC"/>
<path d="M573.909 115.986C573.203 115.28 570.968 114.81 569.939 114.663C569.586 114.606 568.616 114.933 568.175 115.104L566.852 122.161C566.852 122.896 567.205 124.631 568.616 125.689C570.027 126.748 572.732 125.836 573.909 125.248C574.35 123.043 575.232 118.456 575.232 117.75C575.232 116.868 574.791 116.868 573.909 115.986Z" fill="#F2C8BC"/>
<path d="M550.091 85.1119C547.621 84.4062 545.828 85.4059 545.24 85.994C544.652 86.7291 543.564 89.1696 543.917 93.0509C544.358 97.9026 547.004 99.6668 548.327 99.6668C549.65 99.6668 551.856 98.7847 553.179 97.0205C554.237 95.6091 554.208 89.9635 554.061 87.3171C553.767 86.8761 552.561 85.8176 550.091 85.1119Z" stroke="black"/>
<path d="M573.909 115.986C573.203 115.28 570.968 114.81 569.939 114.663C569.586 114.606 568.616 114.933 568.175 115.104L566.852 122.161C566.852 122.896 567.205 124.631 568.616 125.689C570.027 126.748 572.732 125.836 573.909 125.248C574.35 123.043 575.232 118.456 575.232 117.75C575.232 116.868 574.791 116.868 573.909 115.986Z" stroke="black"/>
<path d="M356.259 233.749C360.141 233.396 372.873 232.132 378.753 231.543C379.047 231.69 379.635 232.426 379.635 234.19C379.635 236.395 378.312 244.775 377.871 247.863C377.43 250.95 372.578 261.535 371.255 272.121C369.932 282.706 372.137 303.436 373.461 311.816C374.519 318.52 379.488 338.427 381.841 347.542L415.361 411.937C430.504 391.354 462.025 347.277 466.965 335.633C471.905 323.99 475.786 308.141 477.11 301.672L481.961 276.973L487.695 254.479L504.014 249.186H507.102C507.984 249.186 519.451 248.304 527.39 249.186C535.329 250.068 534.888 253.155 536.212 255.361C537.535 257.566 540.622 266.387 543.268 269.475C545.915 272.562 545.474 270.357 550.325 270.357C555.177 270.357 554.736 271.68 559.588 273.444C564.439 275.208 567.968 275.649 573.702 276.973C579.435 278.296 602.37 284.03 608.545 286.235C613.485 287.999 641.772 298.732 655.298 303.877L663.678 306.965L672.94 303.877C674.41 304.465 678.056 305.906 680.879 306.965C684.407 308.288 683.084 306.965 684.849 306.965C686.613 306.965 687.054 310.493 687.054 311.816C687.054 312.875 688.818 317.256 689.7 319.314C684.113 325.93 671.352 341.985 665.001 353.276C658.65 364.567 648.241 404.439 643.83 422.963C637.214 420.611 622.218 415.553 615.161 414.142C608.104 412.731 593.402 407.967 586.933 405.762C584.875 405.027 579.876 403.557 576.348 403.557C571.937 403.557 576.789 410.614 576.348 415.906C575.907 421.199 575.025 423.845 573.702 430.461C572.378 437.077 568.409 440.165 566.204 445.016C563.998 449.868 558.264 482.947 558.264 485.594V503.677C519.745 505.588 439.09 509.323 424.624 508.97C406.54 508.529 310.83 502.354 288.336 498.384C270.341 495.209 225.559 484.418 205.417 479.419C206.005 477.949 207.181 473.95 207.181 469.716V449.868C207.181 441.047 209.387 441.047 209.387 433.549C209.387 426.051 213.356 424.727 214.238 418.112C215.12 411.496 212.915 408.849 209.387 410.614C205.858 412.378 201.889 413.26 198.801 413.26C195.714 413.26 193.508 413.26 187.334 418.112C181.159 422.963 171.455 421.64 161.311 421.64C151.167 421.64 156.459 423.845 151.608 425.61C146.756 427.374 135.73 429.138 132.201 429.138C128.673 429.138 127.791 426.492 124.262 424.727C121.439 423.316 120.146 424.727 119.851 425.61L111.03 304.759H112.795C113.971 305.2 116.499 306.082 117.205 306.082C118.087 306.082 122.057 304.318 124.262 302.995C126.467 301.672 141.463 300.349 148.961 298.143C156.459 295.938 165.281 287.117 183.805 279.178C202.33 271.239 234.527 263.3 243.789 261.094C253.051 258.889 253.492 256.684 255.698 254.479C257.903 252.273 254.816 250.95 272.458 242.129C290.1 233.308 300.245 239.483 303.332 239.483C306.42 239.483 306.861 239.041 309.948 237.277C311.957 236.129 316.766 234.421 320.975 233.368C323.235 232.802 325.321 232.426 326.708 232.426C330.678 232.426 335.971 235.072 338.176 235.072C340.381 235.072 351.408 234.19 356.259 233.749Z" fill="#D53F3E"/>
<path d="M415.361 411.937C430.504 391.354 462.025 347.277 466.965 335.633C471.905 323.99 475.786 308.141 477.11 301.672L481.961 276.973L487.695 254.479L504.014 249.186C504.749 249.186 506.396 249.186 507.102 249.186C507.984 249.186 519.451 248.304 527.39 249.186C535.329 250.068 534.888 253.155 536.212 255.361C537.535 257.566 540.622 266.387 543.268 269.475C545.915 272.562 545.474 270.357 550.325 270.357C555.177 270.357 554.736 271.68 559.588 273.444C564.439 275.208 567.968 275.649 573.702 276.973C579.435 278.296 602.37 284.03 608.545 286.235C613.485 287.999 641.772 298.732 655.298 303.877L663.678 306.965L672.94 303.877C674.41 304.465 678.056 305.906 680.879 306.965C684.407 308.288 683.084 306.965 684.849 306.965C686.613 306.965 687.054 310.493 687.054 311.816C687.054 312.875 688.818 317.256 689.7 319.314C684.113 325.93 671.352 341.985 665.001 353.276C658.65 364.567 648.241 404.439 643.83 422.963C637.214 420.611 622.218 415.553 615.161 414.142C608.104 412.731 593.402 407.967 586.933 405.762C584.875 405.027 579.876 403.557 576.348 403.557C571.937 403.557 576.789 410.614 576.348 415.906C575.907 421.199 575.025 423.845 573.702 430.461C572.378 437.077 568.409 440.165 566.204 445.016C563.998 449.868 558.264 482.947 558.264 485.594C558.264 487.711 558.264 498.531 558.264 503.677C519.745 505.588 439.09 509.323 424.623 508.97C406.54 508.529 310.83 502.354 288.336 498.384C270.341 495.209 225.559 484.418 205.417 479.419C206.005 477.949 207.181 473.95 207.181 469.716C207.181 464.423 207.181 458.689 207.181 449.868C207.181 441.047 209.387 441.047 209.387 433.549C209.387 426.051 213.356 424.727 214.238 418.112C215.12 411.496 212.915 408.849 209.387 410.614C205.858 412.378 201.889 413.26 198.801 413.26C195.714 413.26 193.508 413.26 187.334 418.112C181.159 422.963 171.455 421.64 161.311 421.64C151.167 421.64 156.459 423.845 151.608 425.61C146.756 427.374 135.73 429.138 132.201 429.138C128.673 429.138 127.791 426.492 124.262 424.727C121.439 423.316 120.146 424.727 119.851 425.61L111.03 304.759H112.795C113.971 305.2 116.499 306.082 117.205 306.082C118.087 306.082 122.057 304.318 124.262 302.995C126.467 301.672 141.463 300.349 148.961 298.143C156.459 295.938 165.281 287.117 183.805 279.178C202.33 271.239 234.527 263.3 243.789 261.094C253.051 258.889 253.492 256.684 255.698 254.479C257.903 252.273 254.816 250.95 272.458 242.129C290.1 233.308 300.245 239.483 303.332 239.483C306.42 239.483 306.861 239.041 309.948 237.277C311.957 236.129 316.766 234.421 320.975 233.368M415.361 411.937L381.841 347.542C379.488 338.427 374.519 318.52 373.461 311.816C372.137 303.436 369.932 282.706 371.255 272.121C372.578 261.535 377.43 250.95 377.871 247.863C378.312 244.775 379.635 236.395 379.635 234.19C379.635 232.426 379.047 231.69 378.753 231.543C372.873 232.132 360.141 233.396 356.259 233.749C351.408 234.19 340.381 235.072 338.176 235.072C335.971 235.072 330.678 232.426 326.708 232.426C325.321 232.426 323.235 232.802 320.975 233.368M415.361 411.937L412.274 416.788M320.975 233.368C322.445 238.788 325.385 250.156 325.385 252.273C325.385 254.92 325.826 257.125 328.031 259.33C330.237 261.535 332.883 265.064 334.647 268.151C336.412 271.239 338.176 277.855 338.176 280.501C338.176 283.147 341.263 298.143 339.058 300.349C336.853 302.554 334.647 302.995 336.412 305.2C338.176 307.406 339.94 310.052 338.176 310.934C336.412 311.816 334.647 310.052 336.412 313.581C338.176 317.109 336.853 315.786 339.058 318.432C341.263 321.079 343.469 321.961 342.145 325.048C340.822 328.135 338.617 328.577 340.822 330.782C343.028 332.987 342.145 330.782 344.351 334.31C346.556 337.839 345.674 337.398 349.202 340.044C352.731 342.69 350.084 340.044 356.7 343.131C363.316 346.219 369.932 349.747 371.255 349.747C372.578 349.747 378.312 347.983 377.871 348.865C377.43 349.747 382.282 381.063 383.605 382.386C384.664 383.444 403.159 405.762 412.274 416.788M412.274 416.788L408.304 426.492H412.274L419.772 416.788L472.258 392.53V365.184C474.022 365.331 478.697 366.067 483.284 367.831C489.018 370.036 491.223 372.241 492.547 370.036C493.87 367.831 493.87 367.39 496.957 365.184C499.427 363.42 502.103 361.509 503.132 360.774C502.691 354.305 501.632 340.662 500.927 337.839C500.045 334.31 496.957 336.957 496.957 326.812C496.957 316.668 496.957 318.432 496.957 310.934C496.957 303.436 496.075 298.584 495.193 290.645C494.311 282.706 496.957 274.326 496.957 275.649C496.957 276.973 498.721 287.558 498.721 290.645C498.721 293.733 500.927 302.113 500.927 307.847C500.927 312.434 499.457 320.049 498.721 323.284M483.284 290.645C483.725 297.849 484.343 312.875 483.284 315.345C481.961 318.432 480.638 328.577 477.11 334.31C473.581 340.044 466.965 348.424 466.965 349.747M492.547 318.432C491.959 321.814 490.165 329.723 487.695 334.31C485.225 338.897 481.079 345.925 479.315 348.865M342.145 239.483C343.028 241.247 346.556 246.098 347.879 246.981C349.202 247.863 351.408 250.068 352.29 245.216C353.172 240.365 348.761 240.806 356.7 239.483C363.052 238.424 367.286 237.571 368.609 237.277M312.594 242.129C316.858 249.186 325.385 266.034 325.385 276.973C325.385 290.645 327.59 298.584 325.385 311.816C323.18 325.048 327.149 364.743 330.237 372.682M296.275 255.361C299.055 266.093 304.359 288.969 303.332 294.615C302.049 301.672 293.629 332.546 290.983 340.044C288.336 347.542 272.458 354.158 272.458 355.481M265.401 255.361C268.635 258.595 276.428 267.181 281.72 275.649C288.336 286.235 292.747 298.584 294.511 298.584C296.275 298.584 294.511 287.558 294.511 282.265C294.511 276.973 289.659 261.535 286.572 258.007C284.102 255.184 280.544 253.008 279.074 252.273M270.694 284.471C273.928 287.852 280.662 296.026 281.72 301.672C282.779 307.317 282.161 319.608 281.72 325.048M480.197 371.8C481.226 373.418 483.284 379.034 483.284 388.561C483.284 400.469 483.284 409.731 480.197 414.583C477.727 418.464 475.345 422.963 474.463 424.727M509.307 311.816C510.924 327.547 514.335 360.774 515.041 367.831C515.923 376.652 513.717 407.085 510.63 411.937C508.16 415.818 501.662 422.081 498.721 424.727M518.569 376.652C519.892 389.149 522.539 416.259 522.539 424.727C522.539 433.196 521.068 440.9 520.333 443.693M536.212 263.741C536.212 264.623 531.36 281.824 527.39 289.763C523.421 297.702 520.774 306.524 519.451 310.934C518.393 314.463 517.246 322.108 516.805 325.489M524.744 259.33C525.038 263.153 525.009 272.386 522.539 278.737C519.451 286.676 518.128 295.938 515.923 300.79C514.159 304.671 512.541 307.112 511.953 307.847M316.564 311.816C316.123 330.635 316.388 371.095 320.975 382.386C325.562 393.677 333.177 408.555 336.412 414.583M219.531 410.614C222.618 410.614 235.409 392.53 240.702 392.53C245.994 392.53 239.82 403.557 237.614 405.762C235.409 407.967 226.588 411.937 225.706 416.788C224.824 421.64 223.941 431.343 223.5 446.339C223.148 458.336 221.883 471.627 221.295 476.772M261.873 382.386C258.932 389.149 252.434 406.468 249.964 421.64C246.877 440.606 241.584 469.716 243.789 474.567M582.523 292.41C580.464 293.733 575.819 296.908 573.702 299.026C571.055 301.672 563.998 310.052 563.116 311.816C562.234 313.581 555.618 325.048 555.618 326.812M541.945 289.763C543.268 292.41 541.945 307.847 541.945 325.489C541.945 343.131 542.386 363.861 545.033 371.8C547.15 378.152 549.443 386.502 550.325 389.884M589.58 300.79C589.58 305.2 587.374 331.664 583.846 343.131C580.317 354.599 577.671 361.215 578.112 371.8C578.112 383.797 579.288 394.441 579.876 398.264M658.826 307.847C655.298 310.934 645.594 329.9 642.507 337.839C639.419 345.778 636.332 356.804 633.686 367.831C631.039 378.857 625.306 389.002 625.747 398.264C626.099 405.674 627.658 411.937 628.393 414.142M596.637 403.557C599.283 403.557 599.724 396.059 602.811 389.884C605.899 383.709 609.868 372.682 609.868 376.652C609.868 379.828 608.104 388.561 607.222 392.53L605.458 403.557" stroke="black"/>
<path d="M183.13 332.987V336.075C182.689 340.926 182.689 342.691 181.366 348.424C179.556 356.264 177.69 359.745 176.955 361.215L194.156 365.626C194.303 362.832 194.862 356.011 195.921 351.071C197.244 344.896 203.419 340.485 202.978 340.044C202.625 339.691 189.599 335.193 183.13 332.987Z" fill="#F63F3E" stroke="black"/>
<path d="M202.977 365.626L194.156 364.302C194.156 361.95 194.509 356.011 195.92 351.071C197.332 346.131 201.213 342.249 202.977 340.926L209.152 343.573L202.977 365.626Z" fill="#D9D9D9" stroke="black"/>
<path d="M210.035 341.808L202.096 368.272L217.092 374.006C217.386 370.624 218.15 362.979 218.856 359.451C219.562 355.922 222.678 348.571 224.149 345.337L210.035 341.808Z" fill="#808080" stroke="black"/>
<path d="M281.487 381.504L217.533 368.713C217.827 366.508 218.592 361.391 219.297 358.569C220.003 355.746 221.797 351.218 222.826 349.306L285.015 370.477C285.456 371.359 286.162 373.741 285.456 376.211C284.574 379.298 281.928 382.827 281.487 381.504Z" fill="#D9D9D9"/>
<path d="M281.487 381.504L217.533 368.713C217.827 366.508 218.592 361.391 219.297 358.569C220.003 355.746 221.797 351.218 222.826 349.306L285.015 370.477M281.487 381.504C281.193 380.769 280.781 378.681 281.487 376.211C282.193 373.741 284.133 371.359 285.015 370.477M281.487 381.504C281.928 382.827 284.574 379.298 285.456 376.211C286.162 373.741 285.456 371.359 285.015 370.477" stroke="black"/>
<path d="M305.745 381.504C305.745 380.092 291.631 375.623 284.574 373.564C284.28 373.711 283.515 374.358 282.81 375.77C282.104 377.181 282.516 379.004 282.81 379.739C290.455 380.915 305.745 382.915 305.745 381.504Z" fill="#5061FF" fill-opacity="0.76"/>
<path d="M161.959 325.048L14.8796 280.942C10.763 282.118 2.26525 286.588 1.20671 295.056C0.148166 303.524 3.41201 311.522 5.17624 314.463L150.933 360.333L178.279 359.451C178.72 357.833 179.866 353.717 180.925 350.188C181.983 346.66 182.542 339.309 182.689 336.075L161.959 325.048Z" fill="#D9D9D9" stroke="black"/>
<path d="M64.7197 321.079C60.1327 321.431 40.6082 321.814 32.0811 323.284L21.0546 319.755C19.8784 320.637 17.1733 322.755 15.7621 324.166C13.9982 325.93 5.1767 340.926 3.85352 348.424C2.53034 355.922 11.3515 364.302 15.7621 364.302C19.2906 364.302 22.231 363.126 23.2601 362.538C23.9952 366.361 25.5536 374.8 25.9065 377.975C26.3475 381.945 33.4045 393.412 35.1687 395.177C36.933 396.941 43.1078 409.731 43.5489 411.496C43.9899 413.26 48.8416 418.994 52.3701 421.199C55.1928 422.963 63.2495 431.931 66.925 436.195C70.6005 438.694 80.245 443.693 89.419 443.693C98.5931 443.693 106.473 439.282 109.267 437.077C114.412 431.196 125.057 418.817 126.468 416.347C127.879 413.877 128.526 410.908 128.673 409.731C132.79 406.497 141.464 399.411 143.228 396.941C144.993 394.471 144.551 390.913 144.11 389.443C147.933 388.414 155.931 386.002 157.342 384.591C159.106 382.827 159.989 379.298 159.989 376.652C159.989 374.535 157.048 372.241 155.578 371.359C157.195 370.33 160.782 367.478 162.194 364.302C163.605 361.127 163.37 360.333 163.076 360.333H150.726L111.913 348.424L109.267 347.462L102.21 344.896L107.061 343.132C107.944 342.102 109.62 339.25 109.267 336.075C108.914 332.899 104.415 329.753 102.21 328.577C100.74 327.694 97.3581 325.577 95.5939 324.166C93.3886 322.402 79.2747 323.725 77.0694 323.284C74.8641 322.843 70.4535 320.638 64.7197 321.079Z" fill="#FEE5D7"/>
<path d="M155.578 371.359C157.195 370.33 160.782 367.478 162.194 364.302C163.605 361.127 163.37 360.333 163.076 360.333H150.726L111.913 348.424L109.267 347.462M155.578 371.359C157.048 372.241 159.989 374.535 159.989 376.652C159.989 379.298 159.106 382.827 157.342 384.591C155.931 386.002 147.933 388.414 144.11 389.443M155.578 371.359C150.138 371.8 138.729 372.683 136.612 372.683C133.966 372.683 100.445 374.447 99.5631 374.888C98.681 375.329 71.3359 379.298 66.925 380.622C63.3963 381.68 55.7514 382.827 52.3701 383.268M144.11 389.443C144.551 390.913 144.993 394.471 143.228 396.941C141.464 399.411 132.79 406.497 128.673 409.731M144.11 389.443C133.084 391.942 110.678 397.117 109.267 397.823C107.503 398.705 84.5671 406.644 84.1261 407.085C83.7732 407.438 66.9247 408.996 58.5446 409.731M128.673 409.731C128.526 410.908 127.879 413.877 126.468 416.347C125.057 418.817 114.412 431.196 109.267 437.077C106.473 439.282 98.5931 443.693 89.419 443.693C80.245 443.693 70.6005 438.694 66.925 436.195C63.2495 431.931 55.1928 422.963 52.3701 421.199C48.8416 418.994 43.9899 413.26 43.5489 411.496C43.1078 409.731 36.933 396.941 35.1687 395.177C33.4045 393.412 26.3475 381.945 25.9065 377.975C25.5536 374.8 23.9952 366.361 23.2601 362.538C22.231 363.126 19.2906 364.302 15.7621 364.302C11.3515 364.302 2.53034 355.922 3.85352 348.424C5.1767 340.926 13.9982 325.93 15.7621 324.166C17.1733 322.755 19.8784 320.637 21.0546 319.755L32.0811 323.284C40.6082 321.814 60.1327 321.431 64.7197 321.079C70.4535 320.638 74.8641 322.843 77.0694 323.284C79.2747 323.725 93.3886 322.402 95.5939 324.166C97.3581 325.577 100.74 327.694 102.21 328.577C104.415 329.753 108.914 332.899 109.267 336.075C109.62 339.25 107.944 342.102 107.061 343.132L102.21 344.896L109.267 347.462M128.673 409.731L112.795 417.671C104.709 422.816 88.272 433.284 87.2135 433.99C85.8903 434.872 84.5671 436.195 81.4797 436.195M109.267 347.462C97.505 348.665 73.5406 351.071 71.7764 351.071C70.0122 351.071 41.6373 357.245 27.6705 360.333M84.5671 355.481C84.2731 356.951 83.7732 360.333 84.1261 362.097C84.4789 363.861 86.3314 366.655 87.2135 367.831M109.267 404.439C109.972 405.497 110.443 408.408 110.59 409.731C111.031 410.026 112.089 410.79 112.795 411.496M97.3578 381.504C96.9168 383.268 97.3578 382.386 97.3578 385.473C97.3578 387.943 100.004 392.971 101.327 395.177M111.472 423.845C111.913 423.845 111.913 426.492 112.795 426.492M87.2135 436.636C87.6545 437.959 87.8307 438.224 88.5367 439.282C89.2426 440.341 90.595 440.9 91.183 441.047M135.289 360.333C135.436 361.95 135.906 365.449 136.612 366.508M135.289 376.652C135.436 378.71 135.906 383.18 136.612 384.591M130.878 395.177C131.319 395.618 132.378 396.764 133.084 397.823M63.3963 328.577C63.3963 331.223 63.3963 336.957 63.3963 338.721C63.3963 340.485 65.7488 343.573 66.925 344.896M30.7579 324.166L25.4652 326.371" stroke="black"/>
<path d="M55.457 282.265C55.457 285.794 57.8093 291.675 58.9855 294.174L112.795 310.052C113.089 309.758 113.5 308.641 112.795 306.524C111.913 303.877 103.091 292.851 99.563 290.646C96.0345 288.44 79.2742 276.532 76.1868 274.326C73.0994 272.121 67.3656 268.151 63.3961 269.916C59.4266 271.68 55.457 277.855 55.457 282.265Z" fill="#FEE5D7"/>
<path d="M93.3881 288.44C94.2703 289.764 95.7699 292.851 94.7113 294.615C93.3881 296.82 92.065 300.79 90.7418 301.231M58.9855 294.174C57.8093 291.675 55.457 285.794 55.457 282.265C55.457 277.855 59.4266 271.68 63.3961 269.916C67.3656 268.151 73.0994 272.121 76.1868 274.326C79.2742 276.532 96.0345 288.44 99.563 290.646C103.091 292.851 111.913 303.877 112.795 306.524C113.5 308.641 113.089 309.758 112.795 310.052L58.9855 294.174Z" stroke="black"/>
<path d="M85.4492 339.603C84.7435 338.192 85.1552 333.134 85.4492 330.782L101.327 329.459C103.532 329.606 108.208 331.135 109.266 336.075C110.589 342.249 103.091 344.455 102.65 344.455H89.4185C87.2132 344.455 86.3313 341.367 85.4492 339.603Z" fill="#F2C8BC"/>
<path d="M149.403 367.831V360.774H163.075C162.487 362.244 161.047 365.537 159.988 366.949C158.929 368.36 152.49 368.125 149.403 367.831Z" fill="#F2C8BC"/>
<path d="M151.167 382.827L150.285 375.329L157.342 373.124C158.224 373.271 159.988 374.094 159.988 376.211C159.988 378.328 159.4 380.034 159.106 380.622L151.167 382.827Z" fill="#F2C8BC"/>
<path d="M141.022 395.177L138.376 391.207L144.11 389.443V392.53L141.022 395.177Z" fill="#F2C8BC"/>
<path d="M85.4492 339.603C84.7435 338.192 85.1552 333.134 85.4492 330.782L101.327 329.459C103.532 329.606 108.208 331.135 109.266 336.075C110.589 342.249 103.091 344.455 102.65 344.455H89.4185C87.2132 344.455 86.3313 341.367 85.4492 339.603Z" stroke="black"/>
<path d="M149.403 367.831V360.774H163.075C162.487 362.244 161.047 365.537 159.988 366.949C158.929 368.36 152.49 368.125 149.403 367.831Z" stroke="black"/>
<path d="M151.167 382.827L150.285 375.329L157.342 373.124C158.224 373.271 159.988 374.094 159.988 376.211C159.988 378.328 159.4 380.034 159.106 380.622L151.167 382.827Z" stroke="black"/>
<path d="M141.022 395.177L138.376 391.207L144.11 389.443V392.53L141.022 395.177Z" stroke="black"/>
<path d="M69.1304 386.355C69.1304 385.65 70.0126 381.945 70.4536 380.18L75.3053 379.298L74.4232 387.237H75.7463C76.4814 387.973 77.9516 389.707 77.9516 390.766C77.9516 392.089 79.2748 392.53 80.1569 392.971C81.0391 393.412 81.4801 393.853 82.3622 395.618C83.0679 397.029 82.0682 399.734 81.4801 400.91L86.7728 406.203L83.6854 407.085C82.0682 405.615 78.3927 402.586 76.6285 402.233C74.4232 401.792 73.9821 400.469 73.1 399.146C72.2179 397.823 70.4536 398.705 69.1304 398.264C67.8073 397.823 67.3662 393.412 67.3662 392.089C67.3662 391.031 68.8364 389.884 69.5715 389.443C69.4245 388.708 69.1304 387.061 69.1304 386.355Z" fill="#ECBF65" stroke="black"/>
<path d="M289.66 435.313V500.149C317.594 503.383 379.46 509.852 403.453 509.852C427.447 509.852 491.665 507.794 520.775 506.765L523.422 466.628L522.098 463.541C521.657 462.512 520.775 460.277 520.775 459.571C520.775 458.689 519.011 456.925 519.011 456.043C519.011 455.337 512.248 438.988 508.867 430.902L464.32 428.697L407.864 426.051L299.363 420.317C298.922 422.081 297.776 425.962 296.717 427.374C295.659 428.785 291.571 433.255 289.66 435.313Z" fill="#1B2759"/>
<path d="M292.748 440.165C299.363 442.37 306.861 444.134 312.154 443.252C317.447 442.37 314.801 437.077 319.652 440.165C324.504 443.252 324.504 447.222 326.709 448.545C328.914 449.868 330.238 448.545 337.736 447.663C345.234 446.78 343.469 447.663 348.762 445.457C354.055 443.252 358.465 443.252 359.789 445.457C361.112 447.663 360.671 451.632 364.199 453.396C367.728 455.161 371.256 456.925 379.636 453.396C388.016 449.868 390.222 449.868 391.545 449.868C392.868 449.868 407.864 451.632 408.746 455.161C409.628 458.689 414.039 460.894 416.685 459.571C419.332 458.248 423.742 455.161 427.271 455.161C430.799 455.161 440.061 456.043 451.088 456.043C462.114 456.043 469.171 452.514 475.346 456.043C481.521 459.571 484.608 458.689 491.224 459.571C497.84 460.453 495.635 463.541 504.015 463.541C510.719 463.541 515.042 463.541 516.365 463.541M431.681 432.667C429.917 432.225 424.977 431.079 419.332 430.02C413.686 428.962 407.864 429.579 405.659 430.02C405.512 430.755 406.188 432.578 410.069 433.99C413.951 435.401 416.979 435.46 418.008 435.313M386.252 437.077C383.165 433.843 376.372 427.903 373.903 430.02C370.815 432.667 366.404 435.313 373.02 437.077C379.636 438.841 388.016 441.929 388.899 441.929M510.19 456.043C507.985 453.396 504.897 449.868 500.487 449.868C496.076 449.868 486.814 445.457 485.932 447.663C485.049 449.868 479.316 451.191 478.434 451.191C477.551 451.191 469.171 451.191 467.407 451.191M353.614 430.02C351.261 430.02 345.675 430.02 342.146 430.02C337.736 430.02 331.12 430.02 332.884 431.784C334.648 433.549 337.295 433.99 343.028 433.99C347.615 433.99 357.877 433.108 362.435 432.667M289.66 500.149V435.313C291.571 433.255 295.659 428.785 296.717 427.374C297.776 425.962 298.922 422.081 299.363 420.317L407.864 426.051L464.32 428.697L508.867 430.902C512.248 438.988 519.011 455.337 519.011 456.043C519.011 456.925 520.775 458.689 520.775 459.571C520.775 460.277 521.657 462.512 522.098 463.541L523.422 466.628L520.775 506.765C491.665 507.794 427.447 509.852 403.453 509.852C379.46 509.852 317.594 503.383 289.66 500.149Z" stroke="#808080" stroke-width="2"/>
<path d="M421.977 447.222C419.331 445.457 418.449 444.134 418.449 442.811C418.155 442.076 417.831 440.253 418.89 438.841C420.213 437.077 423.3 436.636 426.829 437.959C430.357 439.282 433.886 441.488 432.563 445.016C431.24 448.545 424.624 448.986 421.977 447.222Z" fill="#ECBF65"/>
<path d="M410.103 448.744C409.468 448.321 409.256 448.004 409.256 447.687C409.185 447.511 409.107 447.074 409.362 446.735C409.68 446.312 410.421 446.207 411.269 446.524C412.117 446.841 412.965 447.37 412.647 448.215C412.329 449.061 410.739 449.167 410.103 448.744Z" fill="#ECBF65"/>
<path d="M406.575 439.682C405.939 438.836 405.727 438.201 405.727 437.567C405.657 437.215 405.579 436.341 405.833 435.664C406.151 434.818 406.893 434.607 407.741 435.241C408.588 435.875 409.436 436.933 409.118 438.624C408.8 440.316 407.211 440.527 406.575 439.682Z" fill="#ECBF65"/>
<path d="M396.449 444.974C395.495 444.128 395.177 443.494 395.177 442.859C395.071 442.507 394.954 441.633 395.336 440.956C395.813 440.11 396.925 439.899 398.197 440.533C399.469 441.168 400.74 442.225 400.263 443.917C399.787 445.608 397.402 445.82 396.449 444.974Z" fill="#ECBF65"/>
<path d="M439.443 439.762C438.648 439.057 438.383 438.528 438.383 438C438.295 437.706 438.198 436.978 438.516 436.414C438.913 435.709 439.84 435.533 440.9 436.061C441.96 436.59 443.019 437.471 442.622 438.881C442.225 440.29 440.238 440.467 439.443 439.762Z" fill="#ECBF65"/>
<circle cx="405.217" cy="113.34" r="2.2053" fill="#D9D9D9"/>
<circle cx="481.079" cy="117.75" r="2.2053" fill="#D9D9D9"/>
</svg>
