<svg width="1440" height="543" viewBox="0 0 1440 543" fill="none" xmlns="http://www.w3.org/2000/svg">
<rect x="925.881" y="36.4434" width="215.099" height="444.072" rx="33.5" transform="rotate(90 925.881 36.4434)" fill="#1D2228" stroke="black"/>
<rect x="918.524" y="46.5586" width="100.153" height="99.2332" rx="33.5" transform="rotate(90 918.524 46.5586)" fill="#3E3F44" stroke="black"/>
<path d="M911.168 74.5654C911.168 86.4683 901.315 96.1356 889.139 96.1357C876.962 96.1357 867.109 86.4684 867.109 74.5654C867.11 62.6626 876.962 52.9961 889.139 52.9961C901.315 52.9962 911.168 62.6627 911.168 74.5654Z" fill="#4A4B4F" stroke="black"/>
<path d="M869.787 116.865C869.787 128.768 859.934 138.435 847.758 138.436C835.581 138.436 825.729 128.768 825.729 116.865C825.729 104.962 835.582 95.2959 847.758 95.2959C859.934 95.296 869.787 104.963 869.787 116.865Z" fill="#4A4B4F" stroke="black"/>
<circle cx="888.678" cy="74.5652" r="17.8914" transform="rotate(90 888.678 74.5652)" fill="#0A0B0F" stroke="black"/>
<circle cx="847.298" cy="116.866" r="17.8914" transform="rotate(90 847.298 116.866)" fill="#0A0B0F" stroke="black"/>
<circle cx="888.679" cy="74.5656" r="6.85657" transform="rotate(90 888.679 74.5656)" fill="#1B4750" stroke="black"/>
<circle cx="847.298" cy="116.865" r="6.85657" transform="rotate(90 847.298 116.865)" fill="#1B4750" stroke="black"/>
<circle cx="896.034" cy="123.302" r="10.5349" transform="rotate(90 896.034 123.302)" fill="#ECE3D2" stroke="black"/>
<circle cx="843.619" cy="70.8869" r="4.09786" transform="rotate(90 843.619 70.8869)" fill="#2C2C2E" stroke="black"/>
<circle cx="847.297" cy="116.866" r="3.17828" transform="rotate(90 847.297 116.866)" fill="#78878E" stroke="black"/>
<circle cx="888.678" cy="74.565" r="3.17828" transform="rotate(90 888.678 74.565)" fill="#78878E" stroke="black"/>
<path d="M742.926 148.13C738.512 145.188 735.57 145.372 734.65 145.832C734.65 147.211 734.65 150.889 739.248 153.648C742.926 155.855 746.298 156.406 747.524 156.406C747.831 154.874 747.34 151.073 742.926 148.13Z" fill="#D9D9D9"/>
<path d="M731.891 147.211C731.891 145.004 732.811 143.226 733.271 142.613C733.73 141.694 734.65 139.395 734.65 137.556V137.556C734.65 135.257 734.65 132.498 731.891 129.279C729.133 126.061 723.155 121.923 712.121 124.221C701.086 126.52 691.89 134.337 691.89 138.015C691.89 141.693 695.108 144.452 695.108 147.671C695.108 150.889 691.89 153.648 691.89 156.866C691.89 160.085 695.108 161.924 698.787 164.683C701.729 166.89 705.837 168.054 707.523 168.361C708.596 166.062 712.029 161.372 717.178 161.004C722.328 160.637 727.293 164.836 729.133 166.982C730.205 166.368 732.535 164.867 733.271 163.763C734.19 162.384 734.65 161.464 734.65 157.326C734.65 153.188 731.891 149.969 731.891 147.211Z" fill="#D9D9D9"/>
<path d="M742.926 148.13C738.512 145.188 735.57 145.372 734.65 145.832C734.65 147.211 734.65 150.889 739.248 153.648C742.926 155.855 746.298 156.406 747.524 156.406C747.831 154.874 747.34 151.073 742.926 148.13Z" stroke="black"/>
<path d="M731.891 147.211C731.891 145.004 732.811 143.226 733.271 142.613C733.73 141.694 734.65 139.395 734.65 137.556V137.556C734.65 135.257 734.65 132.498 731.891 129.279C729.133 126.061 723.155 121.923 712.121 124.221C701.086 126.52 691.89 134.337 691.89 138.015C691.89 141.693 695.108 144.452 695.108 147.671C695.108 150.889 691.89 153.648 691.89 156.866C691.89 160.085 695.108 161.924 698.787 164.683C701.729 166.89 705.837 168.054 707.523 168.361C708.596 166.062 712.029 161.372 717.178 161.004C722.328 160.637 727.293 164.836 729.133 166.982C730.205 166.368 732.535 164.867 733.271 163.763C734.19 162.384 734.65 161.464 734.65 157.326C734.65 153.188 731.891 149.969 731.891 147.211Z" stroke="black"/>
<rect x="855.993" y="252.543" width="1.75871" height="14.6327" transform="rotate(90 855.993 252.543)" fill="#424242" stroke="black"/>
<rect x="823.809" y="252.543" width="1.75871" height="32.1046" transform="rotate(90 823.809 252.543)" fill="#424242" stroke="black"/>
<rect x="780.589" y="252.543" width="1.75871" height="32.1046" transform="rotate(90 780.589 252.543)" fill="#424242" stroke="black"/>
<path d="M795.302 35.4434H744.346V33.6846H795.302V35.4434Z" fill="#424242" stroke="black"/>
<path d="M247.459 233.337C244.088 253.567 213.748 293.746 199 311.307C199.702 322.544 207.428 350.919 232.71 374.521C257.993 398.122 299.429 401.213 316.986 399.808C335.246 376.628 373.451 329.004 380.193 323.946C388.621 317.624 399.155 323.946 409.689 319.732C420.224 315.517 458.148 288.122 468.683 283.908C479.217 279.693 500.286 283.908 512.927 290.23C525.569 296.551 559.279 311.302 565.6 311.302C571.92 311.302 582.455 298.659 580.348 283.908C578.662 272.107 565.6 257.918 559.279 252.299H512.927C507.309 250.894 494.808 246.82 489.751 241.762C483.431 235.44 481.324 227.011 481.324 216.475V178.544C484.835 177.139 492.28 173.065 493.965 168.007C496.072 161.685 498.179 146.934 496.072 125.862C494.387 109.003 488.347 80.9063 485.538 68.9651C488.347 64.7505 494.387 55.8999 496.072 54.2141C498.179 52.1068 515.034 45.7887 523.462 54.2141C531.889 62.6395 557.172 49.9995 559.279 43.6777C561.386 37.3559 559.279 20.4978 546.638 9.96138C533.996 -0.57503 521.355 1.53225 512.927 3.63953C506.185 5.32536 480.622 25.4158 468.683 35.2503C465.171 30.3334 454.777 21.3423 441.293 24.7139C427.809 28.0856 418.819 40.1687 416.01 45.7887C410.392 43.6815 397.048 40.7313 388.621 45.7887C380.193 50.8462 372.468 61.945 369.658 66.8622C359.826 66.1598 338.898 65.1764 333.841 66.8622C327.521 68.9695 304.345 100.579 287.49 127.973C270.634 155.368 251.672 208.05 247.459 233.337Z" fill="#FEE5D7" stroke="black"/>
<path d="M329.351 89.7487C334.269 104.502 346.213 136.96 354.643 148.762C357.259 152.423 360.133 155.695 363.074 158.545M369.397 68.6724C375.018 77.8055 389.21 103.238 401.013 131.901C409.493 152.496 405.439 162.645 399.258 167.553M399.258 167.553C394.685 171.184 388.947 171.946 386.259 171.946C384.635 171.946 382.456 171.391 379.936 170.315M399.258 167.553C401.248 175.341 408.6 191.336 422.09 193.023C438.951 195.13 449.49 190.915 449.49 182.484C449.49 180.28 448.769 176.491 447.705 171.946M415.766 45.4885C421.387 55.3241 433.05 77.1029 434.736 85.5334C436.843 96.0716 438.951 125.578 438.951 134.009C438.951 140.235 444.699 159.107 447.705 171.946M447.705 171.946C452.515 174.054 463.4 178.269 468.459 178.269C473.517 178.269 478.997 178.269 481.105 178.269M485.32 68.6724C481.807 59.5393 473.517 40.0086 468.459 34.9503M516.936 49.7037L504.289 34.9503M363.074 158.545C352.536 160.084 328.508 164.039 316.705 167.553M363.074 158.545C365.88 161.264 368.746 163.6 371.505 165.523M371.505 165.523C366.587 167.664 355.065 173.211 348.32 178.269C341.576 183.327 335.674 190.212 333.567 193.023M371.505 165.523C374.516 167.623 377.399 169.232 379.936 170.315M379.936 170.315C375.018 177.182 363.074 193.444 354.643 203.561C346.213 213.677 334.269 230.257 329.351 237.283M445.274 296.296C443.166 295.594 438.108 292.924 434.736 287.866C431.363 282.808 433.331 274.518 434.736 271.005M434.736 302.619C431.925 300.512 425.462 295.032 422.09 289.974C418.717 284.915 420.684 275.22 422.09 271.005M516.936 24.4122L525.366 32.8427C530.284 33.5452 540.963 34.5288 544.336 32.8427C547.708 31.1566 552.766 27.9249 554.874 26.5198L542.228 13.874C538.715 13.874 530.846 14.2955 527.474 15.9817C524.102 17.6678 519.043 22.3045 516.936 24.4122ZM455.813 161.408V148.762C457.218 143.845 462.557 133.587 472.674 131.901C482.791 130.215 488.13 139.629 489.536 144.547V161.408C488.13 163.457 482.791 167.553 472.674 167.553C462.557 167.553 457.218 163.457 455.813 161.408ZM417.874 155.085C419.279 153.68 423.354 150.448 428.413 148.762C433.471 147.076 437.546 149.465 438.951 150.87L447.382 178.269C444.572 180.377 437.686 184.592 432.628 184.592C427.57 184.592 420.684 178.972 417.874 176.162V155.085ZM375.72 131.901L394.69 129.794C396.797 136.117 401.013 149.184 401.013 150.87C401.013 152.978 398.905 159.3 390.474 161.408C383.73 163.094 377.828 157.895 375.72 155.085V131.901Z" stroke="black"/>
<path d="M237 376.5C218.6 363.3 202.833 322.667 197 306L179.5 320.75L162 335.5C151 318.5 136.2 318.95 105 311.75C73.8 304.55 19 370.5 -4.5 376.5V546H291C297.667 532 311 499.8 311 483C311 462 290 441 291 431.5C292 422 302.5 418 311 411C317.8 405.4 317.833 400.333 317 398.5C298 396.667 255.4 389.7 237 376.5Z" fill="black" stroke="#D9D9D9"/>
<path d="M165 337C170.5 352 185.3 385.8 200.5 401C215.7 416.2 260.167 428 280.5 432M165 367C132.833 367.5 69.1001 370.8 71.5001 380C74.5001 391.5 97.0006 397 107.501 391.5C118.001 386 170.501 378.5 170.501 385C170.501 391.5 136.001 473 89.0006 494C42.0006 515 53.5006 525.5 60.0006 525.5C66.5006 525.5 140.501 505 170.501 468.5C200.5 432 218 422 227 427C236 432 240.5 444 237 453.5C233.5 463 217 525.5 227 525.5C237 525.5 265 469.5 265 453.5C265 437.5 285 439.5 287 444.5C288.6 448.5 287.667 471.5 287 482.5" stroke="#D9D9D9"/>
<path d="M842.913 34.6932C839.547 29.6392 840.108 21.3563 840.809 17.8466C853.436 11.5291 874.477 9.42331 882.894 13.635C889.628 17.0043 913.757 30.4816 924.979 36.7991C929.188 29.7796 940.973 15.7408 954.441 15.7408C967.908 15.7408 978.289 24.1641 981.797 28.3757C988.109 19.2505 1005.36 1 1023.88 1C1042.4 1 1059.66 20.6544 1065.97 30.4816C1072.98 24.1641 1089.12 11.108 1097.53 9.42331C1108.05 7.31748 1126.99 17.8466 1137.52 41.0107C1145.93 59.542 1150.84 82.4253 1152.25 91.5505C1166.27 127.35 1196.01 206.95 1202.75 238.958C1209.48 270.967 1212.57 300.027 1213.27 310.557L1228 356.885C1217.48 371.625 1190.54 402.792 1166.98 409.53C1143.41 416.269 1122.08 415.146 1114.37 413.742L1055.45 350.567C1050.54 351.971 1038.19 353.937 1028.09 350.567C1015.47 346.356 988.109 329.509 977.588 316.874C969.171 306.766 943.218 302.835 931.293 302.133C920.772 302.835 897.624 303.818 889.207 302.133C880.79 300.449 868.866 295.816 863.955 293.71L830.287 291.604C828.182 292.306 823.131 291.183 819.764 281.075C816.397 270.967 822.57 261.421 826.077 257.911C829.584 255.805 838.703 251.172 847.12 249.488C855.537 247.803 864.656 250.189 868.163 251.593C878.685 250.891 902.253 247.382 912.354 238.958C922.454 230.535 924.979 217.198 924.979 211.583V135.773C921.472 135.773 913.616 134.509 910.249 129.455C906.041 123.138 903.936 118.926 903.936 112.609C903.936 107.555 912.354 75.4059 916.562 59.9631C916.562 58.5593 915.72 54.488 912.354 49.434C908.987 44.38 902.534 43.1165 899.728 43.1165H878.685C874.476 45.2224 864.796 49.0128 859.746 47.3282C853.433 45.2224 847.122 41.0107 842.913 34.6932Z" fill="#FEE5D7" stroke="black"/>
<path d="M925.046 135.823C930.663 135.823 943.159 134.136 948.214 127.391C951.591 122.884 957.036 111.855 961.534 102.096M967.169 89.4481C967.169 92.9613 970.117 100.409 981.912 102.096C996.654 104.204 1013.5 85.2322 1015.61 78.9084C1015.98 77.8069 1016.28 76.3523 1016.54 74.6925M967.169 89.4481C967.061 88.2624 966.957 86.8353 966.869 85.2322M967.169 89.4481C965.771 92.7131 963.769 97.2475 961.534 102.096M1034.56 36.7496L1017.72 55.7211C1017.72 60.1183 1017.46 68.7294 1016.54 74.6925M1066.16 30.4258C1061.24 36.7496 1050.15 50.662 1045.1 55.7211C1042.16 58.6556 1040.14 70.6689 1039.23 83.1243M1110.38 45.1814L1089.32 64.1528C1088.91 69.9549 1087.52 80.059 1084.72 89.4481M981.912 30.4258C979.103 33.939 972.644 43.495 969.274 53.6131C968.374 56.3163 967.754 59.5812 967.343 63.0622M966.869 85.2322C968.373 85.9349 972.644 87.3402 977.699 87.3402C982.753 87.3402 988.229 84.5296 990.335 83.1243V62.0449C988.931 60.6396 984.438 57.829 977.699 57.829C970.959 57.829 967.987 61.3178 967.343 63.0622M966.869 85.2322C966.539 79.1772 966.451 70.6116 967.343 63.0622M1039.23 83.1243C1041.19 81.719 1046.36 78.9084 1051.41 78.9084C1056.47 78.9084 1061.94 81.719 1064.05 83.1243V104.204C1061.94 105.609 1056.47 108.42 1051.41 108.42C1046.36 108.42 1040.93 105.609 1038.85 104.204M1039.23 83.1243C1038.68 90.6176 1038.54 98.271 1038.85 104.204M1038.85 104.204C1039.14 109.66 1039.8 113.661 1040.88 114.743C1045.1 118.959 1066.16 118.959 1076.69 106.312C1080.14 102.161 1082.77 95.9776 1084.72 89.4481M925.046 154.794C938.385 154.794 969.274 155.637 986.123 159.01C1002.97 162.383 1025.44 168.847 1034.56 171.658M961.534 102.096C974.645 110.527 1004.24 128.234 1017.72 131.607C1034.56 135.823 1070.37 144.255 1097.75 144.255M925.046 36.7496L916.621 57.829M1016.54 74.6925H1032.46M1084.72 89.4481L1106.17 91.556M948.214 220.14C952.226 224.356 961.575 234.474 966.869 241.22C972.163 247.965 973.486 260.894 973.486 266.515M882.923 300.242V285.486M893.454 304.458V291.81M1089.32 285.486C1088.62 270.028 1085.11 236.582 1076.69 226.464C1068.26 216.346 1039.48 201.169 1026.14 194.845M1131.45 281.271C1123.02 270.028 1106.17 243.328 1106.17 226.464C1106.17 209.601 1108.98 187.116 1110.38 177.982M832.377 291.81C830.973 288.297 830.692 281.271 840.802 281.271C850.911 281.271 856.246 284.081 857.65 285.486V291.81H832.377ZM912.409 114.743H937.682C940.491 105.609 943.158 86.497 931.364 83.1243C919.57 79.7516 913.813 84.5296 912.409 87.3402L908.197 114.743H912.409Z" stroke="black"/>
<path d="M1183.37 393.976C1201.77 380.776 1213 349 1223.37 323.477L1240.87 338.227L1258.37 352.977C1269.37 335.977 1284.17 325.676 1315.37 318.476C1346.57 311.276 1416.5 387.976 1440 393.976L1440 539L1145 543.5C1138.33 529.5 1109.37 517.276 1109.37 500.476C1109.37 479.476 1130.37 458.476 1129.37 448.976C1128.37 439.476 1117.87 435.476 1109.37 428.476C1102.57 422.876 1102.54 417.81 1103.37 415.976C1122.37 414.143 1164.97 407.176 1183.37 393.976Z" fill="black" stroke="#D9D9D9"/>
<path d="M1137.5 448.5C1150 448 1180.9 444 1204.5 432C1228.1 420 1250 385 1258 369C1271.67 365.5 1302 358.8 1314 360C1329 361.5 1277 371.5 1271 379.5C1265 387.5 1245 394 1258 410.5C1271 427 1371.5 460 1371 473.5C1370.5 487 1266 460 1254.5 446C1243 432 1206.5 448 1212.5 464.5C1218.5 481 1238 518 1230 521.5C1222 525 1196 482.5 1183.5 473.5C1171 464.5 1155.5 474.5 1154.5 483.5" stroke="#D9D9D9"/>
</svg>
