<svg width="145" height="32" viewBox="0 0 145 32" fill="none" xmlns="http://www.w3.org/2000/svg">
<path d="M143.74 31.5847H1.01318L21.4028 0.99999L41.7924 7.11688H102.961L123.351 1L143.74 31.5847Z" fill="white" stroke="black"/>
<path d="M29.0167 23.1558V13.1878H32.5527C33.342 13.1878 33.998 13.3264 34.5207 13.6038C35.0433 13.8704 35.4327 14.2331 35.6887 14.6918C35.9447 15.1398 36.0727 15.6358 36.0727 16.1798C36.0727 16.5851 35.998 16.9691 35.8487 17.3318C35.71 17.6838 35.4967 17.9931 35.2087 18.2598C34.9313 18.5264 34.574 18.7398 34.1367 18.8998C33.71 19.0491 33.2087 19.1238 32.6327 19.1238H31.3207V23.1558H29.0167ZM31.3207 17.2838H32.5047C32.75 17.2838 32.9633 17.2358 33.1447 17.1398C33.3367 17.0438 33.486 16.9104 33.5927 16.7398C33.6993 16.5691 33.7527 16.3771 33.7527 16.1638C33.7527 15.9398 33.6993 15.7478 33.5927 15.5878C33.486 15.4278 33.342 15.3051 33.1607 15.2198C32.9793 15.1344 32.766 15.0918 32.5207 15.0918H31.3207V17.2838ZM37.0647 12.3558H39.3367H39.4807V12.5318C39.4273 12.5958 39.39 12.6651 39.3687 12.7398C39.358 12.8144 39.3527 12.9424 39.3527 13.1238V16.3878C39.5233 16.1531 39.7207 15.9718 39.9447 15.8438C40.1687 15.7051 40.4033 15.6038 40.6487 15.5398C40.9047 15.4758 41.15 15.4438 41.3847 15.4438C41.8967 15.4438 42.334 15.5558 42.6967 15.7798C43.07 15.9931 43.358 16.3344 43.5607 16.8038C43.7633 17.2731 43.8647 17.8811 43.8647 18.6278V23.1558H41.5927V18.6438C41.5927 18.2598 41.5607 17.9558 41.4967 17.7318C41.4327 17.4971 41.3367 17.3318 41.2087 17.2358C41.0913 17.1398 40.9367 17.0918 40.7447 17.0918C40.5633 17.0918 40.398 17.1184 40.2487 17.1718C40.11 17.2251 39.982 17.2998 39.8647 17.3958C39.758 17.4918 39.662 17.6144 39.5767 17.7638C39.502 17.9024 39.4433 18.0624 39.4007 18.2438C39.3687 18.4251 39.3527 18.6224 39.3527 18.8358V23.1558H37.0647V12.3558ZM48.3607 23.3478C47.6887 23.3478 47.0753 23.1878 46.5207 22.8678C45.966 22.5371 45.5233 22.0731 45.1927 21.4758C44.862 20.8784 44.6967 20.1851 44.6967 19.3958C44.6967 18.6598 44.862 17.9931 45.1927 17.3958C45.5233 16.7984 45.966 16.3238 46.5207 15.9718C47.0753 15.6198 47.6887 15.4438 48.3607 15.4438C49.0327 15.4438 49.646 15.6198 50.2007 15.9718C50.766 16.3238 51.214 16.7984 51.5447 17.3958C51.886 17.9931 52.0567 18.6598 52.0567 19.3958C52.0567 20.1744 51.886 20.8624 51.5447 21.4598C51.214 22.0571 50.766 22.5211 50.2007 22.8518C49.646 23.1824 49.0327 23.3478 48.3607 23.3478ZM48.3607 21.5718C48.6487 21.5718 48.8993 21.4811 49.1127 21.2998C49.3367 21.1184 49.5127 20.8678 49.6407 20.5478C49.7687 20.2171 49.8327 19.8331 49.8327 19.3958C49.8327 18.9264 49.7687 18.5318 49.6407 18.2118C49.5127 17.8918 49.3367 17.6464 49.1127 17.4758C48.8993 17.3051 48.6487 17.2198 48.3607 17.2198C48.094 17.2198 47.8487 17.3051 47.6247 17.4758C47.4113 17.6464 47.2407 17.8918 47.1127 18.2118C46.9847 18.5318 46.9207 18.9264 46.9207 19.3958C46.9207 19.8331 46.9793 20.2171 47.0967 20.5478C47.2247 20.8678 47.3953 21.1184 47.6087 21.2998C47.8327 21.4811 48.0833 21.5718 48.3607 21.5718ZM57.1607 23.3478C56.766 23.3478 56.4033 23.2838 56.0727 23.1558C55.742 23.0384 55.4593 22.8358 55.2247 22.5478C54.99 22.2491 54.814 21.8438 54.6967 21.3318C54.5793 20.8198 54.5367 20.1691 54.5687 19.3798L54.7927 13.9398L57.0967 13.6358L57.2407 13.6198L57.2567 13.7958C57.214 13.8704 57.1713 13.9451 57.1287 14.0198C57.086 14.0944 57.0593 14.2224 57.0487 14.4038L56.8567 16.8678H56.9527L56.8247 19.2678C56.7927 19.8758 56.814 20.3504 56.8887 20.6918C56.974 21.0224 57.0913 21.2518 57.2407 21.3798C57.4007 21.5078 57.566 21.5718 57.7367 21.5718C58.0673 21.5718 58.366 21.5024 58.6327 21.3638C58.91 21.2251 59.15 21.0704 59.3527 20.8998L59.7367 22.4838C59.374 22.7504 58.9793 22.9638 58.5527 23.1238C58.1367 23.2731 57.6727 23.3478 57.1607 23.3478ZM53.1927 15.6198H59.2407L59.2087 17.3798H53.1607L53.1927 15.6198ZM64.3607 23.3478C63.6887 23.3478 63.0753 23.1878 62.5207 22.8678C61.966 22.5371 61.5233 22.0731 61.1927 21.4758C60.862 20.8784 60.6967 20.1851 60.6967 19.3958C60.6967 18.6598 60.862 17.9931 61.1927 17.3958C61.5233 16.7984 61.966 16.3238 62.5207 15.9718C63.0753 15.6198 63.6887 15.4438 64.3607 15.4438C65.0327 15.4438 65.646 15.6198 66.2007 15.9718C66.766 16.3238 67.214 16.7984 67.5447 17.3958C67.886 17.9931 68.0567 18.6598 68.0567 19.3958C68.0567 20.1744 67.886 20.8624 67.5447 21.4598C67.214 22.0571 66.766 22.5211 66.2007 22.8518C65.646 23.1824 65.0327 23.3478 64.3607 23.3478ZM64.3607 21.5718C64.6487 21.5718 64.8993 21.4811 65.1127 21.2998C65.3367 21.1184 65.5127 20.8678 65.6407 20.5478C65.7687 20.2171 65.8327 19.8331 65.8327 19.3958C65.8327 18.9264 65.7687 18.5318 65.6407 18.2118C65.5127 17.8918 65.3367 17.6464 65.1127 17.4758C64.8993 17.3051 64.6487 17.2198 64.3607 17.2198C64.094 17.2198 63.8487 17.3051 63.6247 17.4758C63.4113 17.6464 63.2407 17.8918 63.1127 18.2118C62.9847 18.5318 62.9207 18.9264 62.9207 19.3958C62.9207 19.8331 62.9793 20.2171 63.0967 20.5478C63.2247 20.8678 63.3953 21.1184 63.6087 21.2998C63.8327 21.4811 64.0833 21.5718 64.3607 21.5718ZM72.1047 26.0838C71.5713 26.0838 71.0913 26.0304 70.6647 25.9238C70.2487 25.8278 69.8967 25.6891 69.6087 25.5078C69.3207 25.3264 69.102 25.1131 68.9527 24.8678C68.8033 24.6224 68.7287 24.3611 68.7287 24.0838C68.7287 23.8491 68.7927 23.6251 68.9207 23.4118C69.0487 23.1984 69.2247 23.0064 69.4487 22.8358C69.6727 22.6544 69.918 22.5104 70.1847 22.4038L71.2247 22.7718C71.1073 22.8678 70.974 22.9638 70.8247 23.0598C70.686 23.1451 70.5687 23.2358 70.4727 23.3318C70.3767 23.4384 70.3287 23.5611 70.3287 23.6998C70.3287 23.8171 70.382 23.9131 70.4887 23.9878C70.5953 24.0731 70.7393 24.1371 70.9207 24.1798C71.1127 24.2331 71.326 24.2704 71.5607 24.2918C71.806 24.3131 72.0673 24.3238 72.3447 24.3238C72.6967 24.3238 73.0007 24.2971 73.2567 24.2438C73.5233 24.1904 73.726 24.1104 73.8647 24.0038C74.014 23.8971 74.0887 23.7744 74.0887 23.6358C74.0887 23.5184 74.046 23.4278 73.9607 23.3638C73.8753 23.2998 73.7367 23.2518 73.5447 23.2198C73.3527 23.1984 73.102 23.1878 72.7927 23.1878C72.462 23.1878 72.1207 23.1771 71.7687 23.1558C71.4273 23.1238 71.0967 23.0704 70.7767 22.9958C70.4567 22.9211 70.1633 22.8198 69.8967 22.6918C69.6407 22.5638 69.438 22.4038 69.2887 22.2118C69.1393 22.0091 69.0647 21.7638 69.0647 21.4758C69.0647 21.0811 69.1873 20.7558 69.4327 20.4998C69.678 20.2331 69.9607 20.0038 70.2807 19.8118L71.2887 20.3078C71.1927 20.3931 71.0967 20.4624 71.0007 20.5158C70.9153 20.5584 70.8407 20.6064 70.7767 20.6598C70.7233 20.7024 70.6967 20.7771 70.6967 20.8838C70.6967 20.9798 70.7927 21.0651 70.9847 21.1398C71.1767 21.2144 71.4753 21.2731 71.8807 21.3158C72.286 21.3478 72.8087 21.3638 73.4487 21.3638C73.8647 21.3638 74.222 21.4224 74.5207 21.5398C74.83 21.6464 75.0807 21.8011 75.2727 22.0038C75.4753 22.1958 75.6247 22.4144 75.7207 22.6598C75.8167 22.9051 75.8647 23.1664 75.8647 23.4438C75.8647 23.7744 75.7847 24.0944 75.6247 24.4038C75.4753 24.7238 75.2407 25.0064 74.9207 25.2518C74.6113 25.5078 74.222 25.7104 73.7527 25.8598C73.2833 26.0091 72.734 26.0838 72.1047 26.0838ZM72.0887 20.6278C71.566 20.6278 71.0807 20.5158 70.6327 20.2918C70.1953 20.0678 69.8433 19.7638 69.5767 19.3798C69.3207 18.9958 69.1927 18.5584 69.1927 18.0678C69.1927 17.5771 69.3207 17.1344 69.5767 16.7398C69.8433 16.3451 70.1953 16.0304 70.6327 15.7958C71.0807 15.5611 71.566 15.4438 72.0887 15.4438C72.622 15.4438 73.1073 15.5611 73.5447 15.7958C73.982 16.0304 74.3287 16.3451 74.5847 16.7398C74.8513 17.1344 74.9847 17.5771 74.9847 18.0678C74.9847 18.5584 74.8513 18.9958 74.5847 19.3798C74.3287 19.7638 73.982 20.0678 73.5447 20.2918C73.1073 20.5158 72.622 20.6278 72.0887 20.6278ZM72.0727 19.0758C72.2647 19.0758 72.4353 19.0384 72.5847 18.9638C72.734 18.8784 72.8513 18.7611 72.9367 18.6118C73.0327 18.4518 73.0807 18.2704 73.0807 18.0678C73.0807 17.8651 73.0327 17.6944 72.9367 17.5558C72.8513 17.4171 72.7287 17.3104 72.5687 17.2358C72.4193 17.1504 72.254 17.1078 72.0727 17.1078C71.9233 17.1078 71.774 17.1504 71.6247 17.2358C71.4753 17.3211 71.3473 17.4384 71.2407 17.5878C71.1447 17.7264 71.0967 17.8864 71.0967 18.0678C71.0967 18.2491 71.1393 18.4198 71.2247 18.5798C71.3207 18.7291 71.4433 18.8518 71.5927 18.9478C71.742 19.0331 71.902 19.0758 72.0727 19.0758ZM74.5207 17.1078L73.6727 16.0358C73.9713 15.8438 74.3287 15.6891 74.7447 15.5718C75.1607 15.4544 75.5873 15.4118 76.0247 15.4438L76.2167 16.8838C75.918 16.8091 75.614 16.7984 75.3047 16.8518C74.9953 16.8944 74.734 16.9798 74.5207 17.1078ZM77.4807 15.6198H79.8007V17.6838L79.5447 17.6198C79.5767 17.2998 79.6567 17.0118 79.7847 16.7558C79.9233 16.4891 80.0993 16.2598 80.3127 16.0678C80.526 15.8651 80.7607 15.7104 81.0167 15.6038C81.2833 15.4971 81.5553 15.4438 81.8327 15.4438C82.27 15.4438 82.6593 15.5131 83.0007 15.6518C83.342 15.7904 83.662 16.0144 83.9607 16.3238L83.0327 18.2598L82.9847 18.3878L82.8247 18.3238C82.782 18.2384 82.75 18.1478 82.7287 18.0518C82.7073 17.9451 82.638 17.8278 82.5207 17.6998C82.382 17.5824 82.222 17.4864 82.0407 17.4118C81.87 17.3264 81.678 17.2838 81.4647 17.2838C81.2193 17.2838 80.99 17.3211 80.7767 17.3958C80.574 17.4704 80.398 17.5878 80.2487 17.7478C80.0993 17.9078 79.982 18.1104 79.8967 18.3558C79.8113 18.6011 79.7687 18.8944 79.7687 19.2358V23.1558H77.4807V15.6198ZM87.4007 23.3478C86.59 23.3478 85.9553 23.1558 85.4967 22.7718C85.038 22.3771 84.8087 21.8598 84.8087 21.2198C84.8087 20.8144 84.894 20.4411 85.0647 20.0998C85.2353 19.7478 85.502 19.4438 85.8647 19.1878C86.2273 18.9211 86.6913 18.7131 87.2567 18.5638C87.822 18.4144 88.4993 18.3398 89.2887 18.3398C89.3207 18.3398 89.3793 18.3398 89.4647 18.3398C89.55 18.3398 89.646 18.3398 89.7527 18.3398C89.8593 18.3398 89.95 18.3398 90.0247 18.3398L90.0887 19.8438C90.0247 19.8438 89.934 19.8438 89.8167 19.8438C89.6993 19.8438 89.5767 19.8491 89.4487 19.8598C89.3313 19.8598 89.2407 19.8598 89.1767 19.8598C88.718 19.8598 88.35 19.8918 88.0727 19.9558C87.7953 20.0091 87.582 20.0891 87.4327 20.1958C87.294 20.2918 87.198 20.4038 87.1447 20.5318C87.0913 20.6491 87.0647 20.7664 87.0647 20.8838C87.0647 21.0118 87.086 21.1238 87.1287 21.2198C87.1713 21.3158 87.23 21.3904 87.3047 21.4438C87.3793 21.4971 87.47 21.5398 87.5767 21.5718C87.6833 21.5931 87.7953 21.6038 87.9127 21.6038C88.1687 21.6038 88.3873 21.5611 88.5687 21.4758C88.75 21.3904 88.8993 21.2518 89.0167 21.0598C89.1447 20.8571 89.2353 20.6011 89.2887 20.2918C89.3527 19.9824 89.3847 19.6038 89.3847 19.1558C89.3847 18.6118 89.3313 18.1958 89.2247 17.9078C89.1287 17.6198 88.9847 17.4278 88.7927 17.3318C88.6113 17.2251 88.3873 17.1718 88.1207 17.1718C87.79 17.1718 87.486 17.2198 87.2087 17.3158C86.9313 17.4011 86.638 17.6038 86.3287 17.9238L85.0487 16.6118C85.5287 16.1744 86.0407 15.8704 86.5847 15.6998C87.1393 15.5291 87.678 15.4438 88.2007 15.4438C88.6593 15.4438 89.0913 15.4971 89.4967 15.6038C89.9127 15.6998 90.2807 15.8651 90.6007 16.0998C90.9313 16.3344 91.1873 16.6598 91.3687 17.0758C91.5607 17.4811 91.6567 17.9931 91.6567 18.6118V23.1558H89.3687V22.5638C89.23 22.6918 89.0913 22.8091 88.9527 22.9158C88.8247 23.0118 88.6807 23.0918 88.5207 23.1558C88.3713 23.2198 88.206 23.2678 88.0247 23.2998C87.8433 23.3318 87.6353 23.3478 87.4007 23.3478ZM93.0167 25.8278L93.0007 15.6038H95.2087V16.3878C95.4007 16.1638 95.598 15.9824 95.8007 15.8438C96.014 15.7051 96.238 15.6038 96.4727 15.5398C96.7073 15.4758 96.9527 15.4438 97.2087 15.4438C97.614 15.4438 97.9873 15.5344 98.3287 15.7158C98.6807 15.8864 98.9847 16.1424 99.2407 16.4838C99.5073 16.8251 99.7153 17.2464 99.8647 17.7478C100.014 18.2384 100.089 18.8091 100.089 19.4598C100.089 20.1211 100.009 20.6971 99.8487 21.1878C99.6993 21.6784 99.486 22.0838 99.2087 22.4038C98.942 22.7238 98.6327 22.9638 98.2807 23.1238C97.9287 23.2731 97.5607 23.3478 97.1767 23.3478C96.9313 23.3478 96.686 23.3264 96.4407 23.2838C96.206 23.2411 95.9873 23.1771 95.7847 23.0918C95.582 22.9958 95.4167 22.8784 95.2887 22.7398V25.8278H93.0167ZM96.4727 21.6838C96.6967 21.6838 96.894 21.6411 97.0647 21.5558C97.2353 21.4704 97.3793 21.3371 97.4967 21.1558C97.6247 20.9744 97.7207 20.7291 97.7847 20.4198C97.8487 20.1104 97.8807 19.7318 97.8807 19.2838C97.8807 18.8464 97.822 18.4678 97.7047 18.1478C97.598 17.8278 97.4433 17.5824 97.2407 17.4118C97.038 17.2411 96.798 17.1558 96.5207 17.1558C96.2967 17.1558 96.1047 17.2038 95.9447 17.2998C95.7847 17.3851 95.6567 17.5238 95.5607 17.7158C95.4647 17.8971 95.3953 18.1318 95.3527 18.4198C95.31 18.7078 95.2887 19.0491 95.2887 19.4438C95.2887 19.7531 95.2993 20.0304 95.3207 20.2758C95.3527 20.5104 95.3953 20.7184 95.4487 20.8998C95.5127 21.0704 95.5873 21.2144 95.6727 21.3318C95.7687 21.4491 95.8807 21.5398 96.0087 21.6038C96.1473 21.6571 96.302 21.6838 96.4727 21.6838ZM101.065 12.3558H103.337H103.481V12.5318C103.427 12.5958 103.39 12.6651 103.369 12.7398C103.358 12.8144 103.353 12.9424 103.353 13.1238V16.3878C103.523 16.1531 103.721 15.9718 103.945 15.8438C104.169 15.7051 104.403 15.6038 104.649 15.5398C104.905 15.4758 105.15 15.4438 105.385 15.4438C105.897 15.4438 106.334 15.5558 106.697 15.7798C107.07 15.9931 107.358 16.3344 107.561 16.8038C107.763 17.2731 107.865 17.8811 107.865 18.6278V23.1558H105.593V18.6438C105.593 18.2598 105.561 17.9558 105.497 17.7318C105.433 17.4971 105.337 17.3318 105.209 17.2358C105.091 17.1398 104.937 17.0918 104.745 17.0918C104.563 17.0918 104.398 17.1184 104.249 17.1718C104.11 17.2251 103.982 17.2998 103.865 17.3958C103.758 17.4918 103.662 17.6144 103.577 17.7638C103.502 17.9024 103.443 18.0624 103.401 18.2438C103.369 18.4251 103.353 18.6224 103.353 18.8358V23.1558H101.065V12.3558ZM110.377 25.9878C110.014 25.9878 109.694 25.9238 109.417 25.7958C109.139 25.6678 108.846 25.4864 108.537 25.2518L109.257 23.6998L109.305 23.5718L109.465 23.6358C109.507 23.7104 109.55 23.7904 109.593 23.8758C109.635 23.9611 109.726 24.0571 109.865 24.1638C109.929 24.2064 109.998 24.2384 110.073 24.2598C110.158 24.2811 110.243 24.2918 110.329 24.2918C110.499 24.2918 110.649 24.2384 110.777 24.1318C110.905 24.0358 111.027 23.8811 111.145 23.6678C111.262 23.4544 111.385 23.1718 111.513 22.8198L113.273 18.0838C113.433 17.6464 113.555 17.2358 113.641 16.8518C113.726 16.4571 113.769 16.0464 113.769 15.6198H115.801C115.79 16.0998 115.683 16.6171 115.481 17.1718C115.289 17.7158 115.102 18.2278 114.921 18.7078L113.065 23.6838C112.745 24.5371 112.366 25.1344 111.929 25.4758C111.491 25.8171 110.974 25.9878 110.377 25.9878ZM108.713 15.6198H110.937L113.001 21.0278L111.769 23.2998L108.713 15.6198Z" fill="black"/>
</svg>
