<svg width="340" height="78" viewBox="0 0 340 78" fill="none" xmlns="http://www.w3.org/2000/svg">
<rect x="1" y="16" width="338" height="56" fill="white" stroke="black"/>
<path d="M251 16.0001H181L191 0.999995L201 4H231L241 1L251 16.0001Z" fill="black" stroke="black"/>
<path d="M194.32 12V7.016H196.088C196.483 7.016 196.811 7.08533 197.072 7.224C197.333 7.35733 197.528 7.53867 197.656 7.768C197.784 7.992 197.848 8.24 197.848 8.512C197.848 8.71467 197.811 8.90667 197.736 9.088C197.667 9.264 197.56 9.41867 197.416 9.552C197.277 9.68533 197.099 9.792 196.88 9.872C196.667 9.94667 196.416 9.984 196.128 9.984H195.472V12H194.32ZM195.472 9.064H196.064C196.187 9.064 196.293 9.04 196.384 8.992C196.48 8.944 196.555 8.87733 196.608 8.792C196.661 8.70667 196.688 8.61067 196.688 8.504C196.688 8.392 196.661 8.296 196.608 8.216C196.555 8.136 196.483 8.07467 196.392 8.032C196.301 7.98933 196.195 7.968 196.072 7.968H195.472V9.064ZM198.344 6.6H199.48H199.552V6.688C199.525 6.72 199.507 6.75467 199.496 6.792C199.491 6.82933 199.488 6.89333 199.488 6.984V8.616C199.573 8.49867 199.672 8.408 199.784 8.344C199.896 8.27467 200.013 8.224 200.136 8.192C200.264 8.16 200.387 8.144 200.504 8.144C200.76 8.144 200.979 8.2 201.16 8.312C201.347 8.41867 201.491 8.58933 201.592 8.824C201.693 9.05867 201.744 9.36267 201.744 9.736V12H200.608V9.744C200.608 9.552 200.592 9.4 200.56 9.288C200.528 9.17067 200.48 9.088 200.416 9.04C200.357 8.992 200.28 8.968 200.184 8.968C200.093 8.968 200.011 8.98133 199.936 9.008C199.867 9.03467 199.803 9.072 199.744 9.12C199.691 9.168 199.643 9.22933 199.6 9.304C199.563 9.37333 199.533 9.45333 199.512 9.544C199.496 9.63467 199.488 9.73333 199.488 9.84V12H198.344V6.6ZM203.992 12.096C203.656 12.096 203.349 12.016 203.072 11.856C202.795 11.6907 202.573 11.4587 202.408 11.16C202.243 10.8613 202.16 10.5147 202.16 10.12C202.16 9.752 202.243 9.41867 202.408 9.12C202.573 8.82133 202.795 8.584 203.072 8.408C203.349 8.232 203.656 8.144 203.992 8.144C204.328 8.144 204.635 8.232 204.912 8.408C205.195 8.584 205.419 8.82133 205.584 9.12C205.755 9.41867 205.84 9.752 205.84 10.12C205.84 10.5093 205.755 10.8533 205.584 11.152C205.419 11.4507 205.195 11.6827 204.912 11.848C204.635 12.0133 204.328 12.096 203.992 12.096ZM203.992 11.208C204.136 11.208 204.261 11.1627 204.368 11.072C204.48 10.9813 204.568 10.856 204.632 10.696C204.696 10.5307 204.728 10.3387 204.728 10.12C204.728 9.88533 204.696 9.688 204.632 9.528C204.568 9.368 204.48 9.24533 204.368 9.16C204.261 9.07467 204.136 9.032 203.992 9.032C203.859 9.032 203.736 9.07467 203.624 9.16C203.517 9.24533 203.432 9.368 203.368 9.528C203.304 9.688 203.272 9.88533 203.272 10.12C203.272 10.3387 203.301 10.5307 203.36 10.696C203.424 10.856 203.509 10.9813 203.616 11.072C203.728 11.1627 203.853 11.208 203.992 11.208ZM208.392 12.096C208.195 12.096 208.013 12.064 207.848 12C207.683 11.9413 207.541 11.84 207.424 11.696C207.307 11.5467 207.219 11.344 207.16 11.088C207.101 10.832 207.08 10.5067 207.096 10.112L207.208 7.392L208.36 7.24L208.432 7.232L208.44 7.32C208.419 7.35733 208.397 7.39467 208.376 7.432C208.355 7.46933 208.341 7.53333 208.336 7.624L208.24 8.856H208.288L208.224 10.056C208.208 10.36 208.219 10.5973 208.256 10.768C208.299 10.9333 208.357 11.048 208.432 11.112C208.512 11.176 208.595 11.208 208.68 11.208C208.845 11.208 208.995 11.1733 209.128 11.104C209.267 11.0347 209.387 10.9573 209.488 10.872L209.68 11.664C209.499 11.7973 209.301 11.904 209.088 11.984C208.88 12.0587 208.648 12.096 208.392 12.096ZM206.408 8.232H209.432L209.416 9.112H206.392L206.408 8.232ZM211.992 12.096C211.656 12.096 211.349 12.016 211.072 11.856C210.795 11.6907 210.573 11.4587 210.408 11.16C210.243 10.8613 210.16 10.5147 210.16 10.12C210.16 9.752 210.243 9.41867 210.408 9.12C210.573 8.82133 210.795 8.584 211.072 8.408C211.349 8.232 211.656 8.144 211.992 8.144C212.328 8.144 212.635 8.232 212.912 8.408C213.195 8.584 213.419 8.82133 213.584 9.12C213.755 9.41867 213.84 9.752 213.84 10.12C213.84 10.5093 213.755 10.8533 213.584 11.152C213.419 11.4507 213.195 11.6827 212.912 11.848C212.635 12.0133 212.328 12.096 211.992 12.096ZM211.992 11.208C212.136 11.208 212.261 11.1627 212.368 11.072C212.48 10.9813 212.568 10.856 212.632 10.696C212.696 10.5307 212.728 10.3387 212.728 10.12C212.728 9.88533 212.696 9.688 212.632 9.528C212.568 9.368 212.48 9.24533 212.368 9.16C212.261 9.07467 212.136 9.032 211.992 9.032C211.859 9.032 211.736 9.07467 211.624 9.16C211.517 9.24533 211.432 9.368 211.368 9.528C211.304 9.688 211.272 9.88533 211.272 10.12C211.272 10.3387 211.301 10.5307 211.36 10.696C211.424 10.856 211.509 10.9813 211.616 11.072C211.728 11.1627 211.853 11.208 211.992 11.208ZM215.864 13.464C215.597 13.464 215.357 13.4373 215.144 13.384C214.936 13.336 214.76 13.2667 214.616 13.176C214.472 13.0853 214.363 12.9787 214.288 12.856C214.213 12.7333 214.176 12.6027 214.176 12.464C214.176 12.3467 214.208 12.2347 214.272 12.128C214.336 12.0213 214.424 11.9253 214.536 11.84C214.648 11.7493 214.771 11.6773 214.904 11.624L215.424 11.808C215.365 11.856 215.299 11.904 215.224 11.952C215.155 11.9947 215.096 12.04 215.048 12.088C215 12.1413 214.976 12.2027 214.976 12.272C214.976 12.3307 215.003 12.3787 215.056 12.416C215.109 12.4587 215.181 12.4907 215.272 12.512C215.368 12.5387 215.475 12.5573 215.592 12.568C215.715 12.5787 215.845 12.584 215.984 12.584C216.16 12.584 216.312 12.5707 216.44 12.544C216.573 12.5173 216.675 12.4773 216.744 12.424C216.819 12.3707 216.856 12.3093 216.856 12.24C216.856 12.1813 216.835 12.136 216.792 12.104C216.749 12.072 216.68 12.048 216.584 12.032C216.488 12.0213 216.363 12.016 216.208 12.016C216.043 12.016 215.872 12.0107 215.696 12C215.525 11.984 215.36 11.9573 215.2 11.92C215.04 11.8827 214.893 11.832 214.76 11.768C214.632 11.704 214.531 11.624 214.456 11.528C214.381 11.4267 214.344 11.304 214.344 11.16C214.344 10.9627 214.405 10.8 214.528 10.672C214.651 10.5387 214.792 10.424 214.952 10.328L215.456 10.576C215.408 10.6187 215.36 10.6533 215.312 10.68C215.269 10.7013 215.232 10.7253 215.2 10.752C215.173 10.7733 215.16 10.8107 215.16 10.864C215.16 10.912 215.208 10.9547 215.304 10.992C215.4 11.0293 215.549 11.0587 215.752 11.08C215.955 11.096 216.216 11.104 216.536 11.104C216.744 11.104 216.923 11.1333 217.072 11.192C217.227 11.2453 217.352 11.3227 217.448 11.424C217.549 11.52 217.624 11.6293 217.672 11.752C217.72 11.8747 217.744 12.0053 217.744 12.144C217.744 12.3093 217.704 12.4693 217.624 12.624C217.549 12.784 217.432 12.9253 217.272 13.048C217.117 13.176 216.923 13.2773 216.688 13.352C216.453 13.4267 216.179 13.464 215.864 13.464ZM215.856 10.736C215.595 10.736 215.352 10.68 215.128 10.568C214.909 10.456 214.733 10.304 214.6 10.112C214.472 9.92 214.408 9.70133 214.408 9.456C214.408 9.21067 214.472 8.98933 214.6 8.792C214.733 8.59467 214.909 8.43733 215.128 8.32C215.352 8.20267 215.595 8.144 215.856 8.144C216.123 8.144 216.365 8.20267 216.584 8.32C216.803 8.43733 216.976 8.59467 217.104 8.792C217.237 8.98933 217.304 9.21067 217.304 9.456C217.304 9.70133 217.237 9.92 217.104 10.112C216.976 10.304 216.803 10.456 216.584 10.568C216.365 10.68 216.123 10.736 215.856 10.736ZM215.848 9.96C215.944 9.96 216.029 9.94133 216.104 9.904C216.179 9.86133 216.237 9.80267 216.28 9.728C216.328 9.648 216.352 9.55733 216.352 9.456C216.352 9.35467 216.328 9.26933 216.28 9.2C216.237 9.13067 216.176 9.07733 216.096 9.04C216.021 8.99733 215.939 8.976 215.848 8.976C215.773 8.976 215.699 8.99733 215.624 9.04C215.549 9.08267 215.485 9.14133 215.432 9.216C215.384 9.28533 215.36 9.36533 215.36 9.456C215.36 9.54667 215.381 9.632 215.424 9.712C215.472 9.78667 215.533 9.848 215.608 9.896C215.683 9.93867 215.763 9.96 215.848 9.96ZM217.072 8.976L216.648 8.44C216.797 8.344 216.976 8.26667 217.184 8.208C217.392 8.14933 217.605 8.128 217.824 8.144L217.92 8.864C217.771 8.82667 217.619 8.82133 217.464 8.848C217.309 8.86933 217.179 8.912 217.072 8.976ZM218.552 8.232H219.712V9.264L219.584 9.232C219.6 9.072 219.64 8.928 219.704 8.8C219.773 8.66667 219.861 8.552 219.968 8.456C220.075 8.35467 220.192 8.27733 220.32 8.224C220.453 8.17067 220.589 8.144 220.728 8.144C220.947 8.144 221.141 8.17867 221.312 8.248C221.483 8.31733 221.643 8.42933 221.792 8.584L221.328 9.552L221.304 9.616L221.224 9.584C221.203 9.54133 221.187 9.496 221.176 9.448C221.165 9.39467 221.131 9.336 221.072 9.272C221.003 9.21333 220.923 9.16533 220.832 9.128C220.747 9.08533 220.651 9.064 220.544 9.064C220.421 9.064 220.307 9.08267 220.2 9.12C220.099 9.15733 220.011 9.216 219.936 9.296C219.861 9.376 219.803 9.47733 219.76 9.6C219.717 9.72267 219.696 9.86933 219.696 10.04V12H218.552V8.232ZM223.512 12.096C223.107 12.096 222.789 12 222.56 11.808C222.331 11.6107 222.216 11.352 222.216 11.032C222.216 10.8293 222.259 10.6427 222.344 10.472C222.429 10.296 222.563 10.144 222.744 10.016C222.925 9.88267 223.157 9.77867 223.44 9.704C223.723 9.62933 224.061 9.592 224.456 9.592C224.472 9.592 224.501 9.592 224.544 9.592C224.587 9.592 224.635 9.592 224.688 9.592C224.741 9.592 224.787 9.592 224.824 9.592L224.856 10.344C224.824 10.344 224.779 10.344 224.72 10.344C224.661 10.344 224.6 10.3467 224.536 10.352C224.477 10.352 224.432 10.352 224.4 10.352C224.171 10.352 223.987 10.368 223.848 10.4C223.709 10.4267 223.603 10.4667 223.528 10.52C223.459 10.568 223.411 10.624 223.384 10.688C223.357 10.7467 223.344 10.8053 223.344 10.864C223.344 10.928 223.355 10.984 223.376 11.032C223.397 11.08 223.427 11.1173 223.464 11.144C223.501 11.1707 223.547 11.192 223.6 11.208C223.653 11.2187 223.709 11.224 223.768 11.224C223.896 11.224 224.005 11.2027 224.096 11.16C224.187 11.1173 224.261 11.048 224.32 10.952C224.384 10.8507 224.429 10.7227 224.456 10.568C224.488 10.4133 224.504 10.224 224.504 10C224.504 9.728 224.477 9.52 224.424 9.376C224.376 9.232 224.304 9.136 224.208 9.088C224.117 9.03467 224.005 9.008 223.872 9.008C223.707 9.008 223.555 9.032 223.416 9.08C223.277 9.12267 223.131 9.224 222.976 9.384L222.336 8.728C222.576 8.50933 222.832 8.35733 223.104 8.272C223.381 8.18667 223.651 8.144 223.912 8.144C224.141 8.144 224.357 8.17067 224.56 8.224C224.768 8.272 224.952 8.35467 225.112 8.472C225.277 8.58933 225.405 8.752 225.496 8.96C225.592 9.16267 225.64 9.41867 225.64 9.728V12H224.496V11.704C224.427 11.768 224.357 11.8267 224.288 11.88C224.224 11.928 224.152 11.968 224.072 12C223.997 12.032 223.915 12.056 223.824 12.072C223.733 12.088 223.629 12.096 223.512 12.096ZM226.32 13.336L226.312 8.224H227.416V8.616C227.512 8.504 227.611 8.41333 227.712 8.344C227.819 8.27467 227.931 8.224 228.048 8.192C228.165 8.16 228.288 8.144 228.416 8.144C228.619 8.144 228.805 8.18933 228.976 8.28C229.152 8.36533 229.304 8.49333 229.432 8.664C229.565 8.83467 229.669 9.04533 229.744 9.296C229.819 9.54133 229.856 9.82667 229.856 10.152C229.856 10.4827 229.816 10.7707 229.736 11.016C229.661 11.2613 229.555 11.464 229.416 11.624C229.283 11.784 229.128 11.904 228.952 11.984C228.776 12.0587 228.592 12.096 228.4 12.096C228.277 12.096 228.155 12.0853 228.032 12.064C227.915 12.0427 227.805 12.0107 227.704 11.968C227.603 11.92 227.52 11.8613 227.456 11.792V13.336H226.32ZM228.048 11.264C228.16 11.264 228.259 11.2427 228.344 11.2C228.429 11.1573 228.501 11.0907 228.56 11C228.624 10.9093 228.672 10.7867 228.704 10.632C228.736 10.4773 228.752 10.288 228.752 10.064C228.752 9.84533 228.723 9.656 228.664 9.496C228.611 9.336 228.533 9.21333 228.432 9.128C228.331 9.04267 228.211 9 228.072 9C227.96 9 227.864 9.024 227.784 9.072C227.704 9.11467 227.64 9.184 227.592 9.28C227.544 9.37067 227.509 9.488 227.488 9.632C227.467 9.776 227.456 9.94667 227.456 10.144C227.456 10.2987 227.461 10.4373 227.472 10.56C227.488 10.6773 227.509 10.7813 227.536 10.872C227.568 10.9573 227.605 11.0293 227.648 11.088C227.696 11.1467 227.752 11.192 227.816 11.224C227.885 11.2507 227.963 11.264 228.048 11.264ZM230.344 6.6H231.48H231.552V6.688C231.525 6.72 231.507 6.75467 231.496 6.792C231.491 6.82933 231.488 6.89333 231.488 6.984V8.616C231.573 8.49867 231.672 8.408 231.784 8.344C231.896 8.27467 232.013 8.224 232.136 8.192C232.264 8.16 232.387 8.144 232.504 8.144C232.76 8.144 232.979 8.2 233.16 8.312C233.347 8.41867 233.491 8.58933 233.592 8.824C233.693 9.05867 233.744 9.36267 233.744 9.736V12H232.608V9.744C232.608 9.552 232.592 9.4 232.56 9.288C232.528 9.17067 232.48 9.088 232.416 9.04C232.357 8.992 232.28 8.968 232.184 8.968C232.093 8.968 232.011 8.98133 231.936 9.008C231.867 9.03467 231.803 9.072 231.744 9.12C231.691 9.168 231.643 9.22933 231.6 9.304C231.563 9.37333 231.533 9.45333 231.512 9.544C231.496 9.63467 231.488 9.73333 231.488 9.84V12H230.344V6.6ZM235 13.416C234.819 13.416 234.659 13.384 234.52 13.32C234.381 13.256 234.235 13.1653 234.08 13.048L234.44 12.272L234.464 12.208L234.544 12.24C234.565 12.2773 234.587 12.3173 234.608 12.36C234.629 12.4027 234.675 12.4507 234.744 12.504C234.776 12.5253 234.811 12.5413 234.848 12.552C234.891 12.5627 234.933 12.568 234.976 12.568C235.061 12.568 235.136 12.5413 235.2 12.488C235.264 12.44 235.325 12.3627 235.384 12.256C235.443 12.1493 235.504 12.008 235.568 11.832L236.448 9.464C236.528 9.24533 236.589 9.04 236.632 8.848C236.675 8.65067 236.696 8.44533 236.696 8.232H237.712C237.707 8.472 237.653 8.73067 237.552 9.008C237.456 9.28 237.363 9.536 237.272 9.776L236.344 12.264C236.184 12.6907 235.995 12.9893 235.776 13.16C235.557 13.3307 235.299 13.416 235 13.416ZM234.168 8.232H235.28L236.312 10.936L235.696 12.072L234.168 8.232Z" fill="white"/>
<path d="M85.3906 28.6367C86.4583 28.5846 87.2201 28.5586 87.6758 28.5586C92.4284 28.5586 94.8047 30.9609 94.8047 35.7656C94.8047 37.8359 94.3424 39.4701 93.418 40.668C92.4935 41.8529 91.1133 42.4453 89.2773 42.4453C87.8971 42.4453 86.5625 42.2044 85.2734 41.7227C85.2734 37.6992 85.3125 33.3372 85.3906 28.6367ZM80.7617 53.2852C80.918 50.0299 80.9961 45.9349 80.9961 41C80.9961 36.8073 80.931 33.181 80.8008 30.1211C80.7747 29.6393 79.3229 29.2552 76.4453 28.9688C76.224 28.1094 76.25 27.2695 76.5234 26.4492C77.9036 26.5013 79.388 26.5339 80.9766 26.5469C82.5651 26.5599 84.388 26.5534 86.4453 26.5273C88.5156 26.5013 90.0326 26.4883 90.9961 26.4883C94.6029 26.4883 97.3503 27.3346 99.2383 29.0273C101.126 30.7201 102.07 32.9792 102.07 35.8047C102.07 38.6562 101.022 40.8893 98.9258 42.5039C96.8424 44.1185 94.1341 44.9258 90.8008 44.9258C89.8633 44.9258 89.0234 44.8411 88.2812 44.6719C88.2812 48.3568 88.3203 51.2409 88.3984 53.3242C88.3984 53.4023 88.4896 53.5065 88.6719 53.6367C88.8672 53.7669 89.1471 53.8906 89.5117 54.0078C89.8893 54.125 90.4948 54.2422 91.3281 54.3594C92.1745 54.4635 92.6628 54.5286 92.793 54.5547C93.0143 55.2839 92.9753 56.0846 92.6758 56.957C87.8711 56.8529 84.9544 56.8008 83.9258 56.8008C83.1706 56.8008 80.6901 56.8529 76.4844 56.957C76.1589 56.0586 76.1589 55.2188 76.4844 54.4375C79.3099 54.151 80.7357 53.7669 80.7617 53.2852ZM94.0039 35.7656C94.0039 31.7292 92.1224 29.6068 88.3594 29.3984C88.3073 32.276 88.2812 36.2214 88.2812 41.2344C88.763 41.4557 89.2839 41.5924 89.8438 41.6445C91.1979 41.5143 92.2266 40.9284 92.9297 39.8867C93.6458 38.8451 94.0039 37.4714 94.0039 35.7656ZM81.5625 53.3242C81.5365 54.2878 80.026 54.9128 77.0312 55.1992C76.9271 55.4076 76.9271 55.7135 77.0312 56.1172C79.2448 56.0391 81.543 56 83.9258 56C86.6992 56 89.362 56.0391 91.9141 56.1172C92.0182 55.9089 92.0182 55.6029 91.9141 55.1992C87.5911 54.9388 85.4167 54.3138 85.3906 53.3242C85.3125 49.6393 85.2734 46.2083 85.2734 43.0312C86.901 43.7604 88.7435 44.125 90.8008 44.125C93.444 44.125 95.4818 43.3503 96.9141 41.8008C98.3594 40.2513 99.082 38.2526 99.082 35.8047C99.082 33.2396 98.2682 31.1823 96.6406 29.6328C95.013 28.0703 92.6628 27.2891 89.5898 27.2891C88.6393 27.2891 87.3047 27.3086 85.5859 27.3477C83.8672 27.3867 82.3242 27.4062 80.957 27.4062C79.6029 27.4062 78.3073 27.3672 77.0703 27.2891C76.9661 27.5234 76.9661 27.8294 77.0703 28.207C77.6562 28.2591 78.138 28.3112 78.5156 28.3633C78.8932 28.4154 79.3555 28.5065 79.9023 28.6367C80.4492 28.7669 80.8594 28.9557 81.1328 29.2031C81.4193 29.4375 81.5755 29.7305 81.6016 30.082C81.7318 33.1419 81.7969 36.7812 81.7969 41C81.7969 45.1276 81.7188 49.2357 81.5625 53.3242ZM117.168 55.1016C117.012 55.401 117.012 55.7201 117.168 56.0586C120.553 55.9805 123.939 55.9805 127.324 56.0586C127.52 55.7461 127.52 55.4271 127.324 55.1016C124.16 54.9453 122.565 54.3203 122.539 53.2266L122.324 43.4023C122.272 41.6185 121.986 40.3164 121.465 39.4961C120.944 38.6628 120.046 38.2461 118.77 38.2461C116.608 38.2461 114.036 39.737 111.055 42.7188V26.7617C110.951 26.5534 110.723 26.3776 110.371 26.2344C108.561 27.0938 106.68 27.6276 104.727 27.8359C104.648 28.1615 104.648 28.4674 104.727 28.7539C106.224 28.832 107.331 29.099 108.047 29.5547V53.2266C108.021 54.1901 106.901 54.8151 104.688 55.1016C104.531 55.401 104.531 55.7201 104.688 56.0586C108.099 55.9284 111.497 55.9284 114.883 56.0586C115.052 55.7201 115.052 55.401 114.883 55.1016C112.461 54.8411 111.237 54.2161 111.211 53.2266C111.107 50.4531 111.055 47.3672 111.055 43.9688C113.659 41.6641 115.71 40.5117 117.207 40.5117C118.626 40.5117 119.336 41.6901 119.336 44.0469L119.297 53.2266C119.297 53.8646 119.102 54.3138 118.711 54.5742C118.32 54.8216 117.806 54.9974 117.168 55.1016ZM116.523 56.7422C116.211 55.974 116.211 55.1862 116.523 54.3789C116.953 54.3789 117.389 54.2682 117.832 54.0469C118.275 53.8125 118.496 53.5391 118.496 53.2266L118.535 44.0469C118.535 42.6276 118.255 41.7617 117.695 41.4492C116.732 41.6836 115.436 42.3867 113.809 43.5586C113.809 47.0742 113.861 50.2839 113.965 53.1875C114.017 53.8776 114.538 54.2747 115.527 54.3789C115.853 55.1862 115.853 55.974 115.527 56.7422C111.712 56.612 107.871 56.612 104.004 56.7422C103.691 55.974 103.691 55.1862 104.004 54.3789C106.139 54.0924 107.22 53.6953 107.246 53.1875V30.043C106.374 29.7695 105.293 29.5938 104.004 29.5156C103.717 28.7474 103.717 27.9206 104.004 27.0352C105.983 26.931 108.197 26.3451 110.645 25.2773C112.064 25.3815 113.118 25.8112 113.809 26.5664V39.2812C115.645 38.0573 117.767 37.4453 120.176 37.4453C121.934 37.4453 123.184 37.9271 123.926 38.8906C124.681 39.8411 125.072 41.3451 125.098 43.4023C125.15 48.5065 125.215 51.7812 125.293 53.2266C125.319 53.7604 126.237 54.1445 128.047 54.3789C128.346 55.2383 128.32 56.026 127.969 56.7422C124.154 56.6641 120.339 56.6641 116.523 56.7422ZM139.941 39.5156C141.283 39.5156 142.344 40.1602 143.125 41.4492C143.919 42.7253 144.316 44.7109 144.316 47.4062C144.316 50.1016 143.919 52.0872 143.125 53.3633C142.344 54.6393 141.283 55.2773 139.941 55.2773C139.199 55.2773 138.522 55.1211 137.91 54.8086C137.311 54.4961 136.797 54.0143 136.367 53.3633C135.951 52.7122 135.625 51.8984 135.391 50.9219C135.156 49.9323 135.039 48.7604 135.039 47.4062C135.039 46.0651 135.156 44.8997 135.391 43.9102C135.625 42.9076 135.951 42.0872 136.367 41.4492C136.797 40.7982 137.311 40.3164 137.91 40.0039C138.522 39.6784 139.199 39.5156 139.941 39.5156ZM139.941 56.5664C141.152 56.5664 142.24 56.3385 143.203 55.8828C144.167 55.4271 144.987 54.7956 145.664 53.9883C146.354 53.168 146.882 52.1979 147.246 51.0781C147.611 49.9583 147.793 48.7344 147.793 47.4062C147.793 46.0781 147.611 44.8542 147.246 43.7344C146.882 42.6146 146.354 41.651 145.664 40.8438C144.987 40.0234 144.167 39.3854 143.203 38.9297C142.24 38.474 141.152 38.2461 139.941 38.2461C138.652 38.2461 137.487 38.474 136.445 38.9297C135.404 39.3854 134.518 40.0169 133.789 40.8242C133.073 41.6315 132.52 42.6016 132.129 43.7344C131.738 44.8542 131.543 46.0781 131.543 47.4062C131.543 48.7474 131.738 49.9779 132.129 51.0977C132.52 52.2174 133.073 53.1875 133.789 54.0078C134.518 54.8151 135.404 55.4466 136.445 55.9023C137.487 56.3451 138.652 56.5664 139.941 56.5664ZM140.625 37.4453C142.201 37.4453 143.6 37.6862 144.824 38.168C146.061 38.6497 147.103 39.3333 147.949 40.2188C148.796 41.0911 149.44 42.1393 149.883 43.3633C150.326 44.5872 150.547 45.9349 150.547 47.4062C150.547 48.8646 150.326 50.2057 149.883 51.4297C149.44 52.6536 148.796 53.7083 147.949 54.5938C147.116 55.4661 146.081 56.1432 144.844 56.625C143.607 57.1198 142.201 57.3672 140.625 57.3672C139.062 57.3672 137.663 57.1198 136.426 56.625C135.202 56.1432 134.167 55.4661 133.32 54.5938C132.487 53.7083 131.849 52.6602 131.406 51.4492C130.964 50.2253 130.742 48.8776 130.742 47.4062C130.742 45.9349 130.964 44.5872 131.406 43.3633C131.849 42.1393 132.493 41.0911 133.34 40.2188C134.186 39.3333 135.221 38.6497 136.445 38.168C137.669 37.6862 139.062 37.4453 140.625 37.4453ZM137.793 47.4062C137.793 51.612 138.737 53.9427 140.625 54.3984C142.552 53.9427 143.516 51.612 143.516 47.4062C143.516 43.2396 142.552 40.9023 140.625 40.3945C138.737 40.9023 137.793 43.2396 137.793 47.4062ZM160.43 40.6094H168.105C168.288 40.1016 168.288 39.6328 168.105 39.2031H160.43V34.9258C160.104 34.7826 159.779 34.7826 159.453 34.9258C158.971 35.8242 158.438 36.612 157.852 37.2891C157.266 37.9531 156.771 38.4219 156.367 38.6953C155.977 38.9557 155.41 39.2943 154.668 39.7109C154.577 39.9844 154.577 40.2839 154.668 40.6094H157.051V50.8438C157.051 54.6589 158.626 56.5664 161.777 56.5664C163.118 56.5664 164.355 56.2214 165.488 55.5312C166.621 54.8281 167.467 53.9688 168.027 52.9531C167.91 52.6667 167.695 52.5104 167.383 52.4844C166.159 53.5781 164.974 54.125 163.828 54.125C161.562 54.125 160.43 53.0964 160.43 51.0391V40.6094ZM167.148 51.6445C167.969 51.7487 168.555 52.1979 168.906 52.9922C168.229 54.2292 167.246 55.2643 165.957 56.0977C164.668 56.944 163.275 57.3672 161.777 57.3672C158.105 57.3672 156.27 55.1927 156.27 50.8438V41.3906H153.867C153.672 40.7005 153.672 39.9844 153.867 39.2422C154.661 38.7865 155.267 38.4154 155.684 38.1289C156.1 37.8294 156.621 37.3477 157.246 36.6836C157.871 36.0195 158.424 35.2188 158.906 34.2812C160.13 33.7734 161.556 33.7995 163.184 34.3594V38.4023H168.867C169.284 39.3659 169.284 40.362 168.867 41.3906H163.184V51.0391C163.184 52.2891 163.633 53.0247 164.531 53.2461C165.312 53.0768 166.185 52.543 167.148 51.6445ZM181.348 39.5156C182.689 39.5156 183.75 40.1602 184.531 41.4492C185.326 42.7253 185.723 44.7109 185.723 47.4062C185.723 50.1016 185.326 52.0872 184.531 53.3633C183.75 54.6393 182.689 55.2773 181.348 55.2773C180.605 55.2773 179.928 55.1211 179.316 54.8086C178.717 54.4961 178.203 54.0143 177.773 53.3633C177.357 52.7122 177.031 51.8984 176.797 50.9219C176.562 49.9323 176.445 48.7604 176.445 47.4062C176.445 46.0651 176.562 44.8997 176.797 43.9102C177.031 42.9076 177.357 42.0872 177.773 41.4492C178.203 40.7982 178.717 40.3164 179.316 40.0039C179.928 39.6784 180.605 39.5156 181.348 39.5156ZM181.348 56.5664C182.559 56.5664 183.646 56.3385 184.609 55.8828C185.573 55.4271 186.393 54.7956 187.07 53.9883C187.76 53.168 188.288 52.1979 188.652 51.0781C189.017 49.9583 189.199 48.7344 189.199 47.4062C189.199 46.0781 189.017 44.8542 188.652 43.7344C188.288 42.6146 187.76 41.651 187.07 40.8438C186.393 40.0234 185.573 39.3854 184.609 38.9297C183.646 38.474 182.559 38.2461 181.348 38.2461C180.059 38.2461 178.893 38.474 177.852 38.9297C176.81 39.3854 175.924 40.0169 175.195 40.8242C174.479 41.6315 173.926 42.6016 173.535 43.7344C173.145 44.8542 172.949 46.0781 172.949 47.4062C172.949 48.7474 173.145 49.9779 173.535 51.0977C173.926 52.2174 174.479 53.1875 175.195 54.0078C175.924 54.8151 176.81 55.4466 177.852 55.9023C178.893 56.3451 180.059 56.5664 181.348 56.5664ZM182.031 37.4453C183.607 37.4453 185.007 37.6862 186.23 38.168C187.467 38.6497 188.509 39.3333 189.355 40.2188C190.202 41.0911 190.846 42.1393 191.289 43.3633C191.732 44.5872 191.953 45.9349 191.953 47.4062C191.953 48.8646 191.732 50.2057 191.289 51.4297C190.846 52.6536 190.202 53.7083 189.355 54.5938C188.522 55.4661 187.487 56.1432 186.25 56.625C185.013 57.1198 183.607 57.3672 182.031 57.3672C180.469 57.3672 179.069 57.1198 177.832 56.625C176.608 56.1432 175.573 55.4661 174.727 54.5938C173.893 53.7083 173.255 52.6602 172.812 51.4492C172.37 50.2253 172.148 48.8776 172.148 47.4062C172.148 45.9349 172.37 44.5872 172.812 43.3633C173.255 42.1393 173.9 41.0911 174.746 40.2188C175.592 39.3333 176.628 38.6497 177.852 38.168C179.076 37.6862 180.469 37.4453 182.031 37.4453ZM179.199 47.4062C179.199 51.612 180.143 53.9427 182.031 54.3984C183.958 53.9427 184.922 51.612 184.922 47.4062C184.922 43.2396 183.958 40.9023 182.031 40.3945C180.143 40.9023 179.199 43.2396 179.199 47.4062ZM200.02 44.6719C200.02 42.862 200.358 41.5534 201.035 40.7461C201.725 39.9258 202.591 39.5156 203.633 39.5156C204.401 39.5156 205.111 39.8867 205.762 40.6289C206.426 41.3581 206.758 42.5885 206.758 44.3203C206.758 48.0312 205.742 49.8867 203.711 49.8867C201.25 49.8867 200.02 48.1484 200.02 44.6719ZM199.941 61.1953C199.941 59.763 200.768 58.6042 202.422 57.7188C203.464 57.6146 205.065 57.5625 207.227 57.5625C208.776 57.5625 209.811 57.849 210.332 58.4219C210.853 58.9948 211.113 59.8281 211.113 60.9219C211.113 61.8594 210.612 62.8294 209.609 63.832C208.607 64.8477 207.109 65.3555 205.117 65.3555C203.32 65.3555 202.005 64.9453 201.172 64.125C200.352 63.3177 199.941 62.3411 199.941 61.1953ZM212.5 39.0859C212.852 39.112 213.027 39.2943 213.027 39.6328C213.027 40.0625 212.76 40.3164 212.227 40.3945C211.771 40.4466 211.211 40.3424 210.547 40.082C210.195 39.9518 209.746 39.7695 209.199 39.5352C208.652 39.2878 208.268 39.1185 208.047 39.0273C207.826 38.9232 207.52 38.806 207.129 38.6758C206.738 38.5456 206.4 38.4609 206.113 38.4219C205.84 38.3828 205.495 38.3438 205.078 38.3047C204.674 38.2656 204.219 38.2461 203.711 38.2461C201.732 38.2461 200.052 38.9102 198.672 40.2383C197.305 41.5664 196.621 43.0312 196.621 44.6328C196.621 47.224 197.799 49.1706 200.156 50.4727C198.047 52.0482 196.992 53.4609 196.992 54.7109C196.992 56.2865 198.242 57.263 200.742 57.6406C198.19 59.0208 196.914 60.6745 196.914 62.6016C196.914 63.8516 197.5 64.8932 198.672 65.7266C199.844 66.5729 201.562 66.9961 203.828 66.9961C206.523 66.9961 208.802 66.1042 210.664 64.3203C212.539 62.5365 213.477 60.7201 213.477 58.8711C213.477 55.8893 211.66 54.3984 208.027 54.3984C207.624 54.3984 207.09 54.4115 206.426 54.4375C205.762 54.4635 205.306 54.4766 205.059 54.4766C203.066 54.4766 201.66 54.3464 200.84 54.0859C200.033 53.8125 199.629 53.3828 199.629 52.7969C199.629 52.0547 200.202 51.4427 201.348 50.9609C202.142 51.0911 202.982 51.1562 203.867 51.1562C205.625 51.1562 207.109 50.5443 208.32 49.3203C209.544 48.0964 210.156 46.4427 210.156 44.3594C210.156 42.7057 209.844 41.4557 209.219 40.6094L209.316 40.5117C209.525 40.6549 209.805 40.8568 210.156 41.1172C210.521 41.3646 210.794 41.5404 210.977 41.6445C211.172 41.7487 211.419 41.8529 211.719 41.957C212.031 42.0612 212.337 42.1133 212.637 42.1133C213.132 42.1133 213.548 41.9245 213.887 41.5469C214.225 41.1562 214.395 40.694 214.395 40.1602C214.395 39.6003 214.232 39.1315 213.906 38.7539C213.594 38.3633 213.125 38.168 212.5 38.168C212.318 38.5065 212.318 38.8125 212.5 39.0859ZM212.754 42.9141C212.858 43.3438 212.91 43.8255 212.91 44.3594C212.91 46.6771 212.168 48.526 210.684 49.9062C209.212 51.2734 207.409 51.957 205.273 51.957H202.832C202.454 52.3867 202.344 52.7708 202.5 53.1094C202.669 53.4349 202.982 53.5977 203.438 53.5977H209.98C214.147 53.5977 216.23 55.3555 216.23 58.8711C216.23 59.8086 215.951 60.7917 215.391 61.8203C214.831 62.849 214.049 63.806 213.047 64.6914C212.044 65.5898 210.729 66.332 209.102 66.918C207.474 67.5039 205.716 67.7969 203.828 67.7969C201.289 67.7969 199.368 67.3021 198.066 66.3125C196.764 65.3359 196.113 64.099 196.113 62.6016C196.113 60.9479 196.979 59.4115 198.711 57.9922C197.031 57.4062 196.191 56.3125 196.191 54.7109C196.191 53.3307 197.044 51.931 198.75 50.5117C196.797 49.1055 195.82 47.1458 195.82 44.6328C195.82 42.849 196.589 41.2083 198.125 39.7109C199.661 38.2005 201.523 37.4453 203.711 37.4453C205.339 37.4453 206.536 37.5299 207.305 37.6992C208.086 37.8685 209.062 38.194 210.234 38.6758C210.82 37.8034 211.576 37.3672 212.5 37.3672C213.411 37.3672 214.089 37.6341 214.531 38.168C214.974 38.7018 215.195 39.3659 215.195 40.1602C215.195 40.9284 214.974 41.5794 214.531 42.1133C214.089 42.6471 213.496 42.9141 212.754 42.9141ZM202.715 61.1953C202.715 62.0286 202.956 62.7578 203.438 63.3828C203.932 64.0078 204.727 64.3854 205.82 64.5156C207.318 64.3854 208.438 63.9232 209.18 63.1289C209.935 62.3477 210.312 61.612 210.312 60.9219C210.312 60.1146 210.13 59.4831 209.766 59.0273C209.401 58.5846 208.704 58.3633 207.676 58.3633C206.439 58.3633 205.221 58.4154 204.023 58.5195C203.151 59.2617 202.715 60.1536 202.715 61.1953ZM202.793 44.6719C202.793 47.1328 203.327 48.5651 204.395 48.9688C205.436 48.5651 205.957 47.0156 205.957 44.3203C205.957 42.1849 205.41 40.9023 204.316 40.4727C203.301 40.9023 202.793 42.3021 202.793 44.6719ZM225.234 45.0039C225.56 43.806 226.23 42.6406 227.246 41.5078C228.262 40.375 229.297 39.8086 230.352 39.8086C231.589 39.8086 232.207 40.2057 232.207 41C232.207 41.7161 231.868 42.1719 231.191 42.3672C231.009 42.6276 231.009 42.9336 231.191 43.2852C231.895 43.2852 232.467 43.0703 232.91 42.6406C233.366 42.2109 233.594 41.612 233.594 40.8438C233.594 40.0365 233.346 39.4049 232.852 38.9492C232.37 38.4805 231.738 38.2461 230.957 38.2461C229.941 38.2461 228.919 38.6562 227.891 39.4766C226.875 40.2839 225.99 41.1888 225.234 42.1914V38.832C225.13 38.6237 224.909 38.4544 224.57 38.3242C222.826 39.1445 220.807 39.6784 218.516 39.9258C218.438 40.2383 218.438 40.5443 218.516 40.8438C220.273 40.9219 221.53 41.1888 222.285 41.6445C222.389 46.5013 222.376 50.3945 222.246 53.3242C222.22 54.2878 221.113 54.9128 218.926 55.1992C218.73 55.5508 218.73 55.8568 218.926 56.1172C222.337 55.9609 226.055 55.9609 230.078 56.1172C230.26 55.8568 230.26 55.5508 230.078 55.1992C226.992 54.9128 225.436 54.2878 225.41 53.3242C225.293 50.681 225.234 47.9076 225.234 45.0039ZM228.164 53.2852C228.19 53.793 229.069 54.1901 230.801 54.4766C231.23 55.3359 231.204 56.1628 230.723 56.957C225.202 56.7747 221.029 56.7357 218.203 56.8398C217.721 56.0716 217.695 55.2839 218.125 54.4766C220.312 54.1901 221.419 53.793 221.445 53.2852C221.602 49.5742 221.615 45.8503 221.484 42.1133C220.625 41.8529 219.44 41.6836 217.93 41.6055C217.63 40.8242 217.63 39.9974 217.93 39.125C220.104 38.9948 222.409 38.4089 224.844 37.3672C226.25 37.5234 227.305 37.9466 228.008 38.6367C229.102 37.8424 230.085 37.4453 230.957 37.4453C231.973 37.4453 232.799 37.7448 233.438 38.3438C234.076 38.9427 234.395 39.776 234.395 40.8438C234.395 41.8594 234.095 42.6536 233.496 43.2266C232.897 43.7995 232.129 44.0859 231.191 44.0859C230.319 44.0859 229.59 43.793 229.004 43.207C228.47 43.9232 228.138 44.5742 228.008 45.1602C228.008 47.9857 228.06 50.694 228.164 53.2852ZM242.578 41.8008C243.19 41.9049 243.672 42.1458 244.023 42.5234C244.388 42.888 244.57 43.3568 244.57 43.9297C244.57 44.6198 244.342 45.1927 243.887 45.6484C243.431 46.0911 242.832 46.3125 242.09 46.3125C241.322 46.3125 240.625 46.0391 240 45.4922C239.375 44.9453 239.062 44.1706 239.062 43.168C239.062 41.4622 239.87 40.082 241.484 39.0273C243.112 37.9727 245.234 37.4453 247.852 37.4453C250.339 37.4453 252.083 37.9466 253.086 38.9492C254.102 39.9388 254.609 41.612 254.609 43.9688V50.8047L255.859 50.7656C256.927 50.8438 257.669 51.3516 258.086 52.2891L257.461 53.3633C257.057 53.9753 256.719 54.4505 256.445 54.7891C256.185 55.1146 255.807 55.4857 255.312 55.9023C254.818 56.319 254.238 56.6185 253.574 56.8008C252.91 56.9831 252.135 57.0742 251.25 57.0742C250.156 57.0742 249.329 56.6641 248.77 55.8438C247.363 56.8594 245.527 57.3672 243.262 57.3672C242.272 57.3672 241.426 57.2109 240.723 56.8984C240.033 56.599 239.525 56.1953 239.199 55.6875C238.887 55.1797 238.665 54.7044 238.535 54.2617C238.405 53.819 238.34 53.3698 238.34 52.9141C238.34 51 238.984 49.5677 240.273 48.6172C241.562 47.6667 244.167 46.6901 248.086 45.6875V43.5586C248.086 42.5169 247.865 41.7552 247.422 41.2734C246.992 40.7917 246.432 40.5508 245.742 40.5508C244.271 40.5508 243.216 40.9674 242.578 41.8008ZM248.887 47.5234V51.6055C247.637 53.2591 246.361 54.0859 245.059 54.0859C244.303 54.0859 243.685 53.9036 243.203 53.5391C242.734 53.1745 242.5 52.6602 242.5 51.9961C242.5 50.9284 242.936 50.0495 243.809 49.3594C244.694 48.6693 246.387 48.0573 248.887 47.5234ZM248.086 51.3516V48.9688C246.198 49.6589 245.254 50.668 245.254 51.9961C245.254 52.556 245.456 52.9466 245.859 53.168C246.549 52.9206 247.292 52.3151 248.086 51.3516ZM242.09 44.5938C241.634 44.5938 241.315 44.2617 241.133 43.5977C240.872 42.5299 241.191 41.599 242.09 40.8047C242.975 40.0234 244.31 39.6328 246.094 39.6328C246.94 39.6328 247.617 39.9648 248.125 40.6289C248.633 41.2799 248.887 42.2565 248.887 43.5586V46.2734C245.046 47.263 242.461 48.2005 241.133 49.0859C239.805 49.9583 239.141 51.2344 239.141 52.9141C239.141 53.7995 239.44 54.6328 240.039 55.4141C240.638 56.1823 241.712 56.5664 243.262 56.5664C243.874 56.5664 244.447 56.4688 244.98 56.2734C245.527 56.0781 246.087 55.7656 246.66 55.3359C247.246 54.8932 247.604 54.6133 247.734 54.4961C247.865 54.3789 248.079 54.1771 248.379 53.8906C248.691 53.5911 248.861 53.4284 248.887 53.4023C249.056 55.3164 249.844 56.2734 251.25 56.2734C251.602 56.2734 252.005 56.1823 252.461 56C252.917 55.8177 253.372 55.4596 253.828 54.9258C254.297 54.3919 254.59 54.0404 254.707 53.8711C254.837 53.6888 255.026 53.4089 255.273 53.0312C255.521 52.6406 255.703 52.3737 255.82 52.2305C255.651 51.8659 255.326 51.6576 254.844 51.6055C254.128 52.6992 253.398 53.2331 252.656 53.207C252.122 53.181 251.855 52.8034 251.855 52.0742V43.9688C251.855 41.8854 251.445 40.4141 250.625 39.5547C249.818 38.6823 248.424 38.2461 246.445 38.2461C244.661 38.2461 243.112 38.7083 241.797 39.6328C240.495 40.5443 239.844 41.7227 239.844 43.168C239.844 43.9102 240.072 44.4896 240.527 44.9062C240.983 45.3099 241.504 45.5117 242.09 45.5117C242.272 45.2513 242.272 44.9453 242.09 44.5938ZM270.879 40.8047C272.415 40.8047 273.581 41.4297 274.375 42.6797C275.182 43.9297 275.586 45.5182 275.586 47.4453C275.586 50.2708 275.085 52.2826 274.082 53.4805C273.092 54.6784 272.012 55.2773 270.84 55.2773C268.6 55.2773 267.038 54.4505 266.152 52.7969V42.6406C267.65 41.4167 269.225 40.8047 270.879 40.8047ZM274.785 47.4453C274.785 45.9219 274.505 44.6263 273.945 43.5586C273.385 42.4909 272.572 41.8659 271.504 41.6836C270.605 41.8138 269.74 42.25 268.906 42.9922V52.6797C269.414 53.6693 270.228 54.2552 271.348 54.4375C272.285 54.2552 273.092 53.6172 273.77 52.5234C274.447 51.4297 274.785 49.737 274.785 47.4453ZM259.395 40.8438H259.434C261.191 40.9219 262.441 41.1888 263.184 41.6445C263.184 51.6185 263.171 58.9753 263.145 63.7148C263.118 64.6784 262.012 65.3099 259.824 65.6094C259.746 65.8958 259.746 66.2018 259.824 66.5273C263.236 66.3581 266.96 66.3581 270.996 66.5273C271.152 66.2279 271.152 65.9219 270.996 65.6094C267.897 65.3099 266.335 64.6784 266.309 63.7148L266.191 55.8828C267.467 56.3385 268.828 56.5664 270.273 56.5664C271.797 56.5664 273.138 56.2604 274.297 55.6484C275.456 55.0234 276.361 54.2161 277.012 53.2266C277.663 52.224 278.151 51.1562 278.477 50.0234C278.815 48.8906 278.984 47.7253 278.984 46.5273C278.984 43.9883 278.405 41.9766 277.246 40.4922C276.087 38.9948 274.59 38.2461 272.754 38.2461C270.514 38.2461 268.314 39.2031 266.152 41.1172V38.832C266.048 38.6237 265.82 38.4544 265.469 38.3242C263.737 39.1445 261.725 39.6784 259.434 39.9258C259.329 40.2122 259.316 40.5182 259.395 40.8438ZM258.789 39.125C261.328 38.9036 263.62 38.2721 265.664 37.2305C267.083 37.3477 268.138 37.7773 268.828 38.5195C270.052 37.8034 271.829 37.4453 274.16 37.4453C276.4 37.4453 278.223 38.2656 279.629 39.9062C281.048 41.5469 281.758 43.7539 281.758 46.5273C281.758 47.8294 281.562 49.0924 281.172 50.3164C280.781 51.5404 280.208 52.6927 279.453 53.7734C278.698 54.8542 277.643 55.7201 276.289 56.3711C274.948 57.0352 273.411 57.3672 271.68 57.3672C270.56 57.3672 269.648 57.3411 268.945 57.2891L269.062 63.6758C269.089 64.1836 269.974 64.5872 271.719 64.8867C272.057 65.6549 272.057 66.4688 271.719 67.3281C266.51 67.1328 262.35 67.1003 259.238 67.2305C258.939 66.4102 258.939 65.6289 259.238 64.8867C261.283 64.6133 262.318 64.2096 262.344 63.6758L262.383 42.1133C261.536 41.8529 260.352 41.6836 258.828 41.6055C258.49 40.8242 258.477 39.9974 258.789 39.125ZM297.832 55.1016C297.676 55.401 297.676 55.7201 297.832 56.0586C301.217 55.9805 304.603 55.9805 307.988 56.0586C308.184 55.7461 308.184 55.4271 307.988 55.1016C304.824 54.9453 303.229 54.3203 303.203 53.2266L302.988 43.4023C302.936 41.6185 302.65 40.3164 302.129 39.4961C301.608 38.6628 300.71 38.2461 299.434 38.2461C297.272 38.2461 294.701 39.737 291.719 42.7188V26.7617C291.615 26.5534 291.387 26.3776 291.035 26.2344C289.225 27.0938 287.344 27.6276 285.391 27.8359C285.312 28.1615 285.312 28.4674 285.391 28.7539C286.888 28.832 287.995 29.099 288.711 29.5547V53.2266C288.685 54.1901 287.565 54.8151 285.352 55.1016C285.195 55.401 285.195 55.7201 285.352 56.0586C288.763 55.9284 292.161 55.9284 295.547 56.0586C295.716 55.7201 295.716 55.401 295.547 55.1016C293.125 54.8411 291.901 54.2161 291.875 53.2266C291.771 50.4531 291.719 47.3672 291.719 43.9688C294.323 41.6641 296.374 40.5117 297.871 40.5117C299.29 40.5117 300 41.6901 300 44.0469L299.961 53.2266C299.961 53.8646 299.766 54.3138 299.375 54.5742C298.984 54.8216 298.47 54.9974 297.832 55.1016ZM297.188 56.7422C296.875 55.974 296.875 55.1862 297.188 54.3789C297.617 54.3789 298.053 54.2682 298.496 54.0469C298.939 53.8125 299.16 53.5391 299.16 53.2266L299.199 44.0469C299.199 42.6276 298.919 41.7617 298.359 41.4492C297.396 41.6836 296.1 42.3867 294.473 43.5586C294.473 47.0742 294.525 50.2839 294.629 53.1875C294.681 53.8776 295.202 54.2747 296.191 54.3789C296.517 55.1862 296.517 55.974 296.191 56.7422C292.376 56.612 288.535 56.612 284.668 56.7422C284.355 55.974 284.355 55.1862 284.668 54.3789C286.803 54.0924 287.884 53.6953 287.91 53.1875V30.043C287.038 29.7695 285.957 29.5938 284.668 29.5156C284.382 28.7474 284.382 27.9206 284.668 27.0352C286.647 26.931 288.861 26.3451 291.309 25.2773C292.728 25.3815 293.783 25.8112 294.473 26.5664V39.2812C296.309 38.0573 298.431 37.4453 300.84 37.4453C302.598 37.4453 303.848 37.9271 304.59 38.8906C305.345 39.8411 305.736 41.3451 305.762 43.4023C305.814 48.5065 305.879 51.7812 305.957 53.2266C305.983 53.7604 306.901 54.1445 308.711 54.3789C309.01 55.2383 308.984 56.026 308.633 56.7422C304.818 56.6641 301.003 56.6641 297.188 56.7422ZM329.453 37.9531C329.714 38.7865 329.688 39.5742 329.375 40.3164C327.747 40.3945 326.732 40.8893 326.328 41.8008L320.332 56.2344L318.203 61.8789C317.357 64.1445 316.491 65.694 315.605 66.5273C314.733 67.3737 313.639 67.7969 312.324 67.7969C311.23 67.7969 310.352 67.4648 309.688 66.8008C309.023 66.1367 308.691 65.3099 308.691 64.3203C308.691 63.3568 309.023 62.543 309.688 61.8789C310.352 61.2148 311.165 60.8828 312.129 60.8828C313.275 60.8828 314.193 61.319 314.883 62.1914L317.246 55.9609L311.328 41.8008C311.042 41.0326 309.974 40.5378 308.125 40.3164C307.786 39.5742 307.76 38.7865 308.047 37.9531C312.448 38.1224 316.465 38.1224 320.098 37.9531C320.358 38.7865 320.332 39.5742 320.02 40.3164C319.238 40.3685 318.704 40.4922 318.418 40.6875C318.145 40.8698 318.105 41.1888 318.301 41.6445L320.684 47.4844L322.891 41.6445C323.047 41.2409 323.001 40.9284 322.754 40.707C322.52 40.4727 321.979 40.3424 321.133 40.3164C320.807 39.5742 320.781 38.7865 321.055 37.9531C322.122 38.0052 324.922 38.0052 329.453 37.9531ZM328.848 38.6758C325.97 38.806 323.574 38.806 321.66 38.6758C321.517 39.0273 321.517 39.3333 321.66 39.5938C322.155 39.6198 322.572 39.6784 322.91 39.7695C323.249 39.8477 323.529 40.0365 323.75 40.3359C323.971 40.6224 323.991 41.0065 323.809 41.4883L319.727 52.2305L315.605 41.957C315.319 41.2148 315.612 40.6484 316.484 40.2578C317.37 39.8672 318.372 39.6458 319.492 39.5938C319.622 39.3333 319.622 39.0273 319.492 38.6758C315.599 38.8451 311.986 38.8451 308.652 38.6758C308.522 39.0273 308.522 39.3333 308.652 39.5938C310.462 39.8151 311.595 40.4466 312.051 41.4883L318.125 56L315.977 61.5664C315.547 62.7643 315.033 63.7018 314.434 64.3789C313.835 65.056 313.216 65.3945 312.578 65.3945C311.51 65.3945 310.977 64.8607 310.977 63.793C310.977 63.1029 311.23 62.7057 311.738 62.6016C311.921 62.3021 311.921 61.9961 311.738 61.6836C311.087 61.6836 310.547 61.8984 310.117 62.3281C309.701 62.7708 309.492 63.3828 309.492 64.1641C309.492 65.0104 309.779 65.694 310.352 66.2148C310.924 66.7357 311.654 66.9961 312.539 66.9961C313.607 66.9961 314.492 66.625 315.195 65.8828C315.898 65.1406 316.654 63.7148 317.461 61.6055L319.57 55.9219L325.605 41.4883C326.113 40.3034 327.194 39.6719 328.848 39.5938C328.978 39.3333 328.978 39.0273 328.848 38.6758Z" fill="black"/>
<path d="M21.7327 69C19.3327 63.4 23.3994 55.6667 25.7327 52.5L26.7327 50.5C28.2327 55.5 31.2327 66 31.2327 68C31.2327 70.5 29.7327 73 28.2327 75C27.0327 76.6 24.066 77 22.7327 77C23.3994 76.6667 24.1327 74.6 21.7327 69Z" fill="black" stroke="black" stroke-linejoin="round"/>
<path d="M52.5 43.5C52.5 45.8814 51.8867 51.8689 49.4333 56.7678C46.3667 62.8914 37.6778 64.4223 33.0778 59.8296C29.1452 55.9033 30.0111 55.2369 29.5 52.1751" stroke="black" stroke-linejoin="round"/>
<path d="M25.5 44C22.4998 39.5 23.7055 30.883 30.5004 27.0001C37.5002 23 44.7446 25.3722 48.0004 27.0001C51.0004 28.5 54.0004 33.5 54.0004 37C54.0004 39.8 53.0004 42.8333 52.5004 44" stroke="black" stroke-linejoin="round"/>
<path d="M27 50C27.5 50.5 30 59.5 30 63.5C30 66.7 29 70.1667 28.5 71.5" stroke="black" stroke-linejoin="round"/>
<path d="M44.5 61.5C44 61.8333 42.9001 63.5 42.5001 65.5C42.1001 67.5 43.0001 70.3333 43.5001 71.5" stroke="black" stroke-linejoin="round"/>
<path d="M47 46.5V45.5C47 44.9477 47.4477 44.5 48 44.5C48.5523 44.5 49 44.9477 49 45.5V46.5C49 47.0523 48.5523 47.5 48 47.5C47.4477 47.5 47 47.0523 47 46.5Z" fill="black" stroke="black" stroke-width="0.5" stroke-linejoin="round"/>
<path d="M37 46.5V45.5C37 44.9477 37.4477 44.5 38 44.5C38.5523 44.5 39 44.9477 39 45.5V46.5C39 47.0523 38.5523 47.5 38 47.5C37.4477 47.5 37 47.0523 37 46.5Z" fill="black" stroke="black" stroke-width="0.5" stroke-linejoin="round"/>
<path d="M44 47.5C44.3333 48.6667 45 51.1 45 51.5C45 52 43.5 52.5 43 52.5" stroke="black" stroke-linejoin="round"/>
<path d="M43 58C41.4 58 41 56.3333 41 55.5H45C45 56.3333 44.6 58 43 58Z" stroke="black"/>
<path d="M52.5 44C53 43.5 54 42.5 55 43C55.4472 43.2237 55 47 54 48C53.2 48.8 52.3333 49 52 49" stroke="black" stroke-linejoin="round"/>
<path d="M36.563 40.5C40.163 39.7 44.7297 35.5 46.563 33.5C46.8963 34.8333 47.763 37.8 48.563 39C49.563 40.5 51.563 41.5 52.063 42.5C52.563 43.5 52.063 52 51.563 54.5C51.163 56.5 49.063 60 48.063 61.5C49.563 60 52.763 56.3 53.563 53.5C54.563 50 55.563 37.5 55.063 36C54.563 34.5 53.563 30 50.563 27.5C47.563 25 42.063 24 40.563 24C39.063 24 35.0631 24 30.5631 26.5C26.0631 29 23.5631 35.5 24.0631 39.5C24.5631 43.5 25.5631 44.5 25.5631 44C25.5631 43.6 27.2298 43.1667 28.0631 43H29.5631V48.5C29.5631 54.5 32.5631 60 34.0631 62C33.5631 60.6667 32.463 57.5 32.063 55.5C31.563 53 32.063 41.5 36.563 40.5Z" fill="black" stroke="black" stroke-linejoin="round"/>
<path d="M29.75 44.1626C28.75 43.6626 26.55 42.9626 25.75 44.1626C24.75 45.6626 24.75 47.6626 25.75 48.6626C26.55 49.4626 28.75 51.3293 29.75 52.1626" stroke="black" stroke-linejoin="round"/>
<path d="M36 41.5C36.5 41.3333 37.6 41 38 41C38.4 41 39.1667 41.3333 39.5 41.5" stroke="black"/>
<path d="M47 41C47.3333 40.8333 48.1 40.5 48.5 40.5C48.9 40.5 49.6667 40.8333 50 41" stroke="black"/>
<rect x="46.15" y="58.253" width="19.7916" height="12.097" fill="#D9D9D9" stroke="black" stroke-width="0.3"/>
<path d="M64.4886 64.3015H63.6337V65.103H64.4886C64.5955 65.103 64.8092 65.0282 64.8092 64.729C64.8092 64.4298 64.5955 64.3193 64.4886 64.3015Z" fill="black" stroke="black" stroke-width="0.3" stroke-linejoin="round"/>
<path d="M46.1068 60.7748C46.2869 60.7748 54.8861 60.7748 56.687 60.7748" stroke="black" stroke-width="0.3" stroke-linejoin="round"/>
<path d="M65.9847 60.7748H58.5038" stroke="black" stroke-width="0.3" stroke-linejoin="round"/>
<rect x="46.1068" y="60.7748" width="4.48856" height="8.87025" fill="black"/>
<circle cx="59.0916" cy="64.5687" r="4.39199" fill="#D9D9D9" stroke="black" stroke-width="0.3"/>
<circle cx="59.0915" cy="64.5687" r="3.6439" fill="#424242" stroke="black" stroke-width="0.3"/>
<circle cx="59.0917" cy="64.5687" r="2.36145" fill="black" stroke="black" stroke-width="0.3"/>
<circle cx="57.168" cy="62.645" r="0.587787" fill="white"/>
<circle cx="58.0229" cy="63.7137" r="0.267176" fill="white"/>
<line x1="46" y1="69.495" x2="66.0916" y2="69.495" stroke="black" stroke-width="0.3"/>
<circle cx="48.5649" cy="59.4924" r="0.170611" fill="black" stroke="black" stroke-width="0.3"/>
<rect x="49.3396" y="57.8091" width="2.08397" height="0.267176" fill="#D9D9D9" stroke="black" stroke-width="0.267176"/>
<rect x="47.1489" y="57.9694" width="1.54962" height="0.160306" fill="#D9D9D9" stroke="black" stroke-width="0.160306"/>
<path d="M55.6219 57.7086C55.6647 58.0079 55.9603 58.1183 56.1028 58.1361H58.2402C58.5074 58.1361 58.828 57.6552 58.6677 57.388C58.5395 57.1743 58.258 57.1565 58.1334 57.1743C58.0799 56.9962 58.0799 56.7112 57.8128 56.533C57.6845 56.4475 57.2962 56.5509 57.1181 56.5865C57.0112 56.5509 56.7227 56.4475 56.4234 56.533C56.1242 56.6185 56.085 57.0318 56.1028 57.2277C55.9247 57.2633 55.5792 57.4094 55.6219 57.7086Z" fill="white" stroke="black" stroke-width="0.3"/>
<circle cx="56.7975" cy="57.1743" r="0.0534352" fill="black"/>
<circle cx="57.4386" cy="57.1743" r="0.0534352" fill="black"/>
<path d="M57.1179 57.5019C57.0823 57.5019 57.0004 57.4912 56.9576 57.4485C56.9576 57.5019 57.0111 57.6622 57.1179 57.6622C57.2248 57.6622 57.3317 57.395 57.2783 57.4485C57.2355 57.4912 57.1536 57.5019 57.1179 57.5019Z" stroke="black" stroke-width="0.3" stroke-linejoin="round"/>
<circle cx="64.3283" cy="64.729" r="0.267176" fill="#D9D9D9"/>
</svg>
