<svg width="145" height="32" viewBox="0 0 145 32" fill="none" xmlns="http://www.w3.org/2000/svg">
<path d="M143.74 31.5847H1.01294L21.4026 0.99999L41.7922 7.11688H102.961L123.351 1L143.74 31.5847Z" fill="black" stroke="black"/>
<path d="M29.0167 23.1562V13.1882H32.5527C33.342 13.1882 33.998 13.3269 34.5207 13.6042C35.0433 13.8709 35.4327 14.2336 35.6887 14.6922C35.9447 15.1402 36.0727 15.6362 36.0727 16.1802C36.0727 16.5856 35.998 16.9696 35.8487 17.3322C35.71 17.6842 35.4967 17.9936 35.2087 18.2602C34.9313 18.5269 34.574 18.7402 34.1367 18.9002C33.71 19.0496 33.2087 19.1242 32.6327 19.1242H31.3207V23.1562H29.0167ZM31.3207 17.2842H32.5047C32.75 17.2842 32.9633 17.2362 33.1447 17.1402C33.3367 17.0442 33.486 16.9109 33.5927 16.7402C33.6993 16.5696 33.7527 16.3776 33.7527 16.1642C33.7527 15.9402 33.6993 15.7482 33.5927 15.5882C33.486 15.4282 33.342 15.3056 33.1607 15.2202C32.9793 15.1349 32.766 15.0922 32.5207 15.0922H31.3207V17.2842ZM37.0647 12.3562H39.3367H39.4807V12.5322C39.4273 12.5962 39.39 12.6656 39.3687 12.7402C39.358 12.8149 39.3527 12.9429 39.3527 13.1242V16.3882C39.5233 16.1536 39.7207 15.9722 39.9447 15.8442C40.1687 15.7056 40.4033 15.6042 40.6487 15.5402C40.9047 15.4762 41.15 15.4442 41.3847 15.4442C41.8967 15.4442 42.334 15.5562 42.6967 15.7802C43.07 15.9936 43.358 16.3349 43.5607 16.8042C43.7633 17.2736 43.8647 17.8816 43.8647 18.6282V23.1562H41.5927V18.6442C41.5927 18.2602 41.5607 17.9562 41.4967 17.7322C41.4327 17.4976 41.3367 17.3322 41.2087 17.2362C41.0913 17.1402 40.9367 17.0922 40.7447 17.0922C40.5633 17.0922 40.398 17.1189 40.2487 17.1722C40.11 17.2256 39.982 17.3002 39.8647 17.3962C39.758 17.4922 39.662 17.6149 39.5767 17.7642C39.502 17.9029 39.4433 18.0629 39.4007 18.2442C39.3687 18.4256 39.3527 18.6229 39.3527 18.8362V23.1562H37.0647V12.3562ZM48.3607 23.3483C47.6887 23.3483 47.0753 23.1882 46.5207 22.8682C45.966 22.5376 45.5233 22.0736 45.1927 21.4762C44.862 20.8789 44.6967 20.1856 44.6967 19.3962C44.6967 18.6602 44.862 17.9936 45.1927 17.3962C45.5233 16.7989 45.966 16.3242 46.5207 15.9722C47.0753 15.6202 47.6887 15.4442 48.3607 15.4442C49.0327 15.4442 49.646 15.6202 50.2007 15.9722C50.766 16.3242 51.214 16.7989 51.5447 17.3962C51.886 17.9936 52.0567 18.6602 52.0567 19.3962C52.0567 20.1749 51.886 20.8629 51.5447 21.4602C51.214 22.0576 50.766 22.5216 50.2007 22.8522C49.646 23.1829 49.0327 23.3483 48.3607 23.3483ZM48.3607 21.5722C48.6487 21.5722 48.8993 21.4816 49.1127 21.3002C49.3367 21.1189 49.5127 20.8682 49.6407 20.5482C49.7687 20.2176 49.8327 19.8336 49.8327 19.3962C49.8327 18.9269 49.7687 18.5322 49.6407 18.2122C49.5127 17.8922 49.3367 17.6469 49.1127 17.4762C48.8993 17.3056 48.6487 17.2202 48.3607 17.2202C48.094 17.2202 47.8487 17.3056 47.6247 17.4762C47.4113 17.6469 47.2407 17.8922 47.1127 18.2122C46.9847 18.5322 46.9207 18.9269 46.9207 19.3962C46.9207 19.8336 46.9793 20.2176 47.0967 20.5482C47.2247 20.8682 47.3953 21.1189 47.6087 21.3002C47.8327 21.4816 48.0833 21.5722 48.3607 21.5722ZM57.1607 23.3483C56.766 23.3483 56.4033 23.2843 56.0727 23.1562C55.742 23.0389 55.4593 22.8362 55.2247 22.5482C54.99 22.2496 54.814 21.8442 54.6967 21.3322C54.5793 20.8202 54.5367 20.1696 54.5687 19.3802L54.7927 13.9402L57.0967 13.6362L57.2407 13.6202L57.2567 13.7962C57.214 13.8709 57.1713 13.9456 57.1287 14.0202C57.086 14.0949 57.0593 14.2229 57.0487 14.4042L56.8567 16.8682H56.9527L56.8247 19.2682C56.7927 19.8762 56.814 20.3509 56.8887 20.6922C56.974 21.0229 57.0913 21.2522 57.2407 21.3802C57.4007 21.5082 57.566 21.5722 57.7367 21.5722C58.0673 21.5722 58.366 21.5029 58.6327 21.3642C58.91 21.2256 59.15 21.0709 59.3527 20.9002L59.7367 22.4842C59.374 22.7509 58.9793 22.9642 58.5527 23.1242C58.1367 23.2736 57.6727 23.3483 57.1607 23.3483ZM53.1927 15.6202H59.2407L59.2087 17.3802H53.1607L53.1927 15.6202ZM64.3607 23.3483C63.6887 23.3483 63.0753 23.1882 62.5207 22.8682C61.966 22.5376 61.5233 22.0736 61.1927 21.4762C60.862 20.8789 60.6967 20.1856 60.6967 19.3962C60.6967 18.6602 60.862 17.9936 61.1927 17.3962C61.5233 16.7989 61.966 16.3242 62.5207 15.9722C63.0753 15.6202 63.6887 15.4442 64.3607 15.4442C65.0327 15.4442 65.646 15.6202 66.2007 15.9722C66.766 16.3242 67.214 16.7989 67.5447 17.3962C67.886 17.9936 68.0567 18.6602 68.0567 19.3962C68.0567 20.1749 67.886 20.8629 67.5447 21.4602C67.214 22.0576 66.766 22.5216 66.2007 22.8522C65.646 23.1829 65.0327 23.3483 64.3607 23.3483ZM64.3607 21.5722C64.6487 21.5722 64.8993 21.4816 65.1127 21.3002C65.3367 21.1189 65.5127 20.8682 65.6407 20.5482C65.7687 20.2176 65.8327 19.8336 65.8327 19.3962C65.8327 18.9269 65.7687 18.5322 65.6407 18.2122C65.5127 17.8922 65.3367 17.6469 65.1127 17.4762C64.8993 17.3056 64.6487 17.2202 64.3607 17.2202C64.094 17.2202 63.8487 17.3056 63.6247 17.4762C63.4113 17.6469 63.2407 17.8922 63.1127 18.2122C62.9847 18.5322 62.9207 18.9269 62.9207 19.3962C62.9207 19.8336 62.9793 20.2176 63.0967 20.5482C63.2247 20.8682 63.3953 21.1189 63.6087 21.3002C63.8327 21.4816 64.0833 21.5722 64.3607 21.5722ZM72.1047 26.0843C71.5713 26.0843 71.0913 26.0309 70.6647 25.9243C70.2487 25.8283 69.8967 25.6896 69.6087 25.5082C69.3207 25.3269 69.102 25.1136 68.9527 24.8683C68.8033 24.6229 68.7287 24.3616 68.7287 24.0843C68.7287 23.8496 68.7927 23.6256 68.9207 23.4123C69.0487 23.1989 69.2247 23.0069 69.4487 22.8362C69.6727 22.6549 69.918 22.5109 70.1847 22.4042L71.2247 22.7722C71.1073 22.8682 70.974 22.9642 70.8247 23.0602C70.686 23.1456 70.5687 23.2363 70.4727 23.3323C70.3767 23.4389 70.3287 23.5616 70.3287 23.7003C70.3287 23.8176 70.382 23.9136 70.4887 23.9883C70.5953 24.0736 70.7393 24.1376 70.9207 24.1803C71.1127 24.2336 71.326 24.2709 71.5607 24.2923C71.806 24.3136 72.0673 24.3243 72.3447 24.3243C72.6967 24.3243 73.0007 24.2976 73.2567 24.2443C73.5233 24.1909 73.726 24.1109 73.8647 24.0043C74.014 23.8976 74.0887 23.7749 74.0887 23.6363C74.0887 23.5189 74.046 23.4283 73.9607 23.3643C73.8753 23.3003 73.7367 23.2523 73.5447 23.2203C73.3527 23.1989 73.102 23.1883 72.7927 23.1883C72.462 23.1883 72.1207 23.1776 71.7687 23.1562C71.4273 23.1242 71.0967 23.0709 70.7767 22.9962C70.4567 22.9216 70.1633 22.8202 69.8967 22.6922C69.6407 22.5642 69.438 22.4042 69.2887 22.2122C69.1393 22.0096 69.0647 21.7642 69.0647 21.4762C69.0647 21.0816 69.1873 20.7562 69.4327 20.5002C69.678 20.2336 69.9607 20.0042 70.2807 19.8122L71.2887 20.3082C71.1927 20.3936 71.0967 20.4629 71.0007 20.5162C70.9153 20.5589 70.8407 20.6069 70.7767 20.6602C70.7233 20.7029 70.6967 20.7776 70.6967 20.8842C70.6967 20.9802 70.7927 21.0656 70.9847 21.1402C71.1767 21.2149 71.4753 21.2736 71.8807 21.3162C72.286 21.3482 72.8087 21.3642 73.4487 21.3642C73.8647 21.3642 74.222 21.4229 74.5207 21.5402C74.83 21.6469 75.0807 21.8016 75.2727 22.0042C75.4753 22.1962 75.6247 22.4149 75.7207 22.6602C75.8167 22.9056 75.8647 23.1669 75.8647 23.4443C75.8647 23.7749 75.7847 24.0949 75.6247 24.4043C75.4753 24.7243 75.2407 25.0069 74.9207 25.2523C74.6113 25.5083 74.222 25.7109 73.7527 25.8603C73.2833 26.0096 72.734 26.0843 72.1047 26.0843ZM72.0887 20.6282C71.566 20.6282 71.0807 20.5162 70.6327 20.2922C70.1953 20.0682 69.8433 19.7642 69.5767 19.3802C69.3207 18.9962 69.1927 18.5589 69.1927 18.0682C69.1927 17.5776 69.3207 17.1349 69.5767 16.7402C69.8433 16.3456 70.1953 16.0309 70.6327 15.7962C71.0807 15.5616 71.566 15.4442 72.0887 15.4442C72.622 15.4442 73.1073 15.5616 73.5447 15.7962C73.982 16.0309 74.3287 16.3456 74.5847 16.7402C74.8513 17.1349 74.9847 17.5776 74.9847 18.0682C74.9847 18.5589 74.8513 18.9962 74.5847 19.3802C74.3287 19.7642 73.982 20.0682 73.5447 20.2922C73.1073 20.5162 72.622 20.6282 72.0887 20.6282ZM72.0727 19.0762C72.2647 19.0762 72.4353 19.0389 72.5847 18.9642C72.734 18.8789 72.8513 18.7616 72.9367 18.6122C73.0327 18.4522 73.0807 18.2709 73.0807 18.0682C73.0807 17.8656 73.0327 17.6949 72.9367 17.5562C72.8513 17.4176 72.7287 17.3109 72.5687 17.2362C72.4193 17.1509 72.254 17.1082 72.0727 17.1082C71.9233 17.1082 71.774 17.1509 71.6247 17.2362C71.4753 17.3216 71.3473 17.4389 71.2407 17.5882C71.1447 17.7269 71.0967 17.8869 71.0967 18.0682C71.0967 18.2496 71.1393 18.4202 71.2247 18.5802C71.3207 18.7296 71.4433 18.8522 71.5927 18.9482C71.742 19.0336 71.902 19.0762 72.0727 19.0762ZM74.5207 17.1082L73.6727 16.0362C73.9713 15.8442 74.3287 15.6896 74.7447 15.5722C75.1607 15.4549 75.5873 15.4122 76.0247 15.4442L76.2167 16.8842C75.918 16.8096 75.614 16.7989 75.3047 16.8522C74.9953 16.8949 74.734 16.9802 74.5207 17.1082ZM77.4807 15.6202H79.8007V17.6842L79.5447 17.6202C79.5767 17.3002 79.6567 17.0122 79.7847 16.7562C79.9233 16.4896 80.0993 16.2602 80.3127 16.0682C80.526 15.8656 80.7607 15.7109 81.0167 15.6042C81.2833 15.4976 81.5553 15.4442 81.8327 15.4442C82.27 15.4442 82.6593 15.5136 83.0007 15.6522C83.342 15.7909 83.662 16.0149 83.9607 16.3242L83.0327 18.2602L82.9847 18.3882L82.8247 18.3242C82.782 18.2389 82.75 18.1482 82.7287 18.0522C82.7073 17.9456 82.638 17.8282 82.5207 17.7002C82.382 17.5829 82.222 17.4869 82.0407 17.4122C81.87 17.3269 81.678 17.2842 81.4647 17.2842C81.2193 17.2842 80.99 17.3216 80.7767 17.3962C80.574 17.4709 80.398 17.5882 80.2487 17.7482C80.0993 17.9082 79.982 18.1109 79.8967 18.3562C79.8113 18.6016 79.7687 18.8949 79.7687 19.2362V23.1562H77.4807V15.6202ZM87.4007 23.3483C86.59 23.3483 85.9553 23.1562 85.4967 22.7722C85.038 22.3776 84.8087 21.8602 84.8087 21.2202C84.8087 20.8149 84.894 20.4416 85.0647 20.1002C85.2353 19.7482 85.502 19.4442 85.8647 19.1882C86.2273 18.9216 86.6913 18.7136 87.2567 18.5642C87.822 18.4149 88.4993 18.3402 89.2887 18.3402C89.3207 18.3402 89.3793 18.3402 89.4647 18.3402C89.55 18.3402 89.646 18.3402 89.7527 18.3402C89.8593 18.3402 89.95 18.3402 90.0247 18.3402L90.0887 19.8442C90.0247 19.8442 89.934 19.8442 89.8167 19.8442C89.6993 19.8442 89.5767 19.8496 89.4487 19.8602C89.3313 19.8602 89.2407 19.8602 89.1767 19.8602C88.718 19.8602 88.35 19.8922 88.0727 19.9562C87.7953 20.0096 87.582 20.0896 87.4327 20.1962C87.294 20.2922 87.198 20.4042 87.1447 20.5322C87.0913 20.6496 87.0647 20.7669 87.0647 20.8842C87.0647 21.0122 87.086 21.1242 87.1287 21.2202C87.1713 21.3162 87.23 21.3909 87.3047 21.4442C87.3793 21.4976 87.47 21.5402 87.5767 21.5722C87.6833 21.5936 87.7953 21.6042 87.9127 21.6042C88.1687 21.6042 88.3873 21.5616 88.5687 21.4762C88.75 21.3909 88.8993 21.2522 89.0167 21.0602C89.1447 20.8576 89.2353 20.6016 89.2887 20.2922C89.3527 19.9829 89.3847 19.6042 89.3847 19.1562C89.3847 18.6122 89.3313 18.1962 89.2247 17.9082C89.1287 17.6202 88.9847 17.4282 88.7927 17.3322C88.6113 17.2256 88.3873 17.1722 88.1207 17.1722C87.79 17.1722 87.486 17.2202 87.2087 17.3162C86.9313 17.4016 86.638 17.6042 86.3287 17.9242L85.0487 16.6122C85.5287 16.1749 86.0407 15.8709 86.5847 15.7002C87.1393 15.5296 87.678 15.4442 88.2007 15.4442C88.6593 15.4442 89.0913 15.4976 89.4967 15.6042C89.9127 15.7002 90.2807 15.8656 90.6007 16.1002C90.9313 16.3349 91.1873 16.6602 91.3687 17.0762C91.5607 17.4816 91.6567 17.9936 91.6567 18.6122V23.1562H89.3687V22.5642C89.23 22.6922 89.0913 22.8096 88.9527 22.9162C88.8247 23.0122 88.6807 23.0922 88.5207 23.1562C88.3713 23.2203 88.206 23.2683 88.0247 23.3003C87.8433 23.3323 87.6353 23.3483 87.4007 23.3483ZM93.0167 25.8283L93.0007 15.6042H95.2087V16.3882C95.4007 16.1642 95.598 15.9829 95.8007 15.8442C96.014 15.7056 96.238 15.6042 96.4727 15.5402C96.7073 15.4762 96.9527 15.4442 97.2087 15.4442C97.614 15.4442 97.9873 15.5349 98.3287 15.7162C98.6807 15.8869 98.9847 16.1429 99.2407 16.4842C99.5073 16.8256 99.7153 17.2469 99.8647 17.7482C100.014 18.2389 100.089 18.8096 100.089 19.4602C100.089 20.1216 100.009 20.6976 99.8487 21.1882C99.6993 21.6789 99.486 22.0842 99.2087 22.4042C98.942 22.7242 98.6327 22.9642 98.2807 23.1242C97.9287 23.2736 97.5607 23.3483 97.1767 23.3483C96.9313 23.3483 96.686 23.3269 96.4407 23.2843C96.206 23.2416 95.9873 23.1776 95.7847 23.0922C95.582 22.9962 95.4167 22.8789 95.2887 22.7402V25.8283H93.0167ZM96.4727 21.6842C96.6967 21.6842 96.894 21.6416 97.0647 21.5562C97.2353 21.4709 97.3793 21.3376 97.4967 21.1562C97.6247 20.9749 97.7207 20.7296 97.7847 20.4202C97.8487 20.1109 97.8807 19.7322 97.8807 19.2842C97.8807 18.8469 97.822 18.4682 97.7047 18.1482C97.598 17.8282 97.4433 17.5829 97.2407 17.4122C97.038 17.2416 96.798 17.1562 96.5207 17.1562C96.2967 17.1562 96.1047 17.2042 95.9447 17.3002C95.7847 17.3856 95.6567 17.5242 95.5607 17.7162C95.4647 17.8976 95.3953 18.1322 95.3527 18.4202C95.31 18.7082 95.2887 19.0496 95.2887 19.4442C95.2887 19.7536 95.2993 20.0309 95.3207 20.2762C95.3527 20.5109 95.3953 20.7189 95.4487 20.9002C95.5127 21.0709 95.5873 21.2149 95.6727 21.3322C95.7687 21.4496 95.8807 21.5402 96.0087 21.6042C96.1473 21.6576 96.302 21.6842 96.4727 21.6842ZM101.065 12.3562H103.337H103.481V12.5322C103.427 12.5962 103.39 12.6656 103.369 12.7402C103.358 12.8149 103.353 12.9429 103.353 13.1242V16.3882C103.523 16.1536 103.721 15.9722 103.945 15.8442C104.169 15.7056 104.403 15.6042 104.649 15.5402C104.905 15.4762 105.15 15.4442 105.385 15.4442C105.897 15.4442 106.334 15.5562 106.697 15.7802C107.07 15.9936 107.358 16.3349 107.561 16.8042C107.763 17.2736 107.865 17.8816 107.865 18.6282V23.1562H105.593V18.6442C105.593 18.2602 105.561 17.9562 105.497 17.7322C105.433 17.4976 105.337 17.3322 105.209 17.2362C105.091 17.1402 104.937 17.0922 104.745 17.0922C104.563 17.0922 104.398 17.1189 104.249 17.1722C104.11 17.2256 103.982 17.3002 103.865 17.3962C103.758 17.4922 103.662 17.6149 103.577 17.7642C103.502 17.9029 103.443 18.0629 103.401 18.2442C103.369 18.4256 103.353 18.6229 103.353 18.8362V23.1562H101.065V12.3562ZM110.377 25.9883C110.014 25.9883 109.694 25.9243 109.417 25.7963C109.139 25.6683 108.846 25.4869 108.537 25.2523L109.257 23.7003L109.305 23.5723L109.465 23.6363C109.507 23.7109 109.55 23.7909 109.593 23.8763C109.635 23.9616 109.726 24.0576 109.865 24.1643C109.929 24.2069 109.998 24.2389 110.073 24.2603C110.158 24.2816 110.243 24.2923 110.329 24.2923C110.499 24.2923 110.649 24.2389 110.777 24.1323C110.905 24.0363 111.027 23.8816 111.145 23.6683C111.262 23.4549 111.385 23.1722 111.513 22.8202L113.273 18.0842C113.433 17.6469 113.555 17.2362 113.641 16.8522C113.726 16.4576 113.769 16.0469 113.769 15.6202H115.801C115.79 16.1002 115.683 16.6176 115.481 17.1722C115.289 17.7162 115.102 18.2282 114.921 18.7082L113.065 23.6842C112.745 24.5376 112.366 25.1349 111.929 25.4763C111.491 25.8176 110.974 25.9883 110.377 25.9883ZM108.713 15.6202H110.937L113.001 21.0282L111.769 23.3003L108.713 15.6202Z" fill="white"/>
</svg>
