<svg width="214" height="20" viewBox="0 0 214 20" fill="none" xmlns="http://www.w3.org/2000/svg">
<rect x="0.5" y="0.5" width="213" height="19" stroke="black"/>
<path d="M5.708 13V5.524H8.108C8.668 5.524 9.12 5.62 9.464 5.812C9.808 6.004 10.06 6.26 10.22 6.58C10.388 6.892 10.472 7.244 10.472 7.636C10.472 7.924 10.428 8.192 10.34 8.44C10.252 8.688 10.112 8.908 9.92 9.1C9.736 9.292 9.5 9.44 9.212 9.544C8.924 9.648 8.576 9.7 8.168 9.7H6.572V13H5.708ZM6.572 8.956H8.072C8.44 8.956 8.736 8.904 8.96 8.8C9.184 8.688 9.348 8.536 9.452 8.344C9.556 8.144 9.608 7.916 9.608 7.66C9.608 7.412 9.556 7.188 9.452 6.988C9.348 6.788 9.184 6.628 8.96 6.508C8.736 6.38 8.444 6.316 8.084 6.316H6.572V8.956ZM12.428 7.516H13.328L13.292 9.112L13.184 8.932C13.232 8.684 13.316 8.464 13.436 8.272C13.556 8.08 13.7 7.92 13.868 7.792C14.036 7.656 14.22 7.556 14.42 7.492C14.62 7.42 14.828 7.384 15.044 7.384C15.332 7.384 15.596 7.436 15.836 7.54C16.084 7.636 16.304 7.784 16.496 7.984L16.112 8.656L16.064 8.764L15.98 8.716C15.964 8.652 15.94 8.592 15.908 8.536C15.876 8.48 15.808 8.412 15.704 8.332C15.576 8.252 15.456 8.2 15.344 8.176C15.24 8.144 15.12 8.128 14.984 8.128C14.784 8.128 14.584 8.168 14.384 8.248C14.184 8.32 14 8.436 13.832 8.596C13.672 8.756 13.544 8.96 13.448 9.208C13.352 9.456 13.304 9.752 13.304 10.096V13.012H12.428V7.516ZM20.264 13.12C19.864 13.12 19.5 13.06 19.172 12.94C18.844 12.812 18.56 12.628 18.32 12.388C18.088 12.148 17.908 11.852 17.78 11.5C17.652 11.14 17.588 10.732 17.588 10.276C17.588 9.812 17.652 9.4 17.78 9.04C17.916 8.68 18.096 8.38 18.32 8.14C18.552 7.892 18.82 7.704 19.124 7.576C19.436 7.448 19.764 7.384 20.108 7.384C20.42 7.384 20.712 7.436 20.984 7.54C21.256 7.644 21.492 7.804 21.692 8.02C21.892 8.228 22.048 8.496 22.16 8.824C22.28 9.152 22.34 9.54 22.34 9.988C22.34 10.052 22.336 10.12 22.328 10.192C22.328 10.256 22.324 10.32 22.316 10.384H18.416C18.432 10.736 18.492 11.044 18.596 11.308C18.7 11.564 18.836 11.776 19.004 11.944C19.172 12.104 19.364 12.224 19.58 12.304C19.804 12.384 20.04 12.424 20.288 12.424C20.48 12.424 20.66 12.404 20.828 12.364C20.996 12.316 21.152 12.248 21.296 12.16C21.448 12.064 21.584 11.948 21.704 11.812L22.184 12.28C22.032 12.464 21.856 12.62 21.656 12.748C21.464 12.876 21.252 12.968 21.02 13.024C20.788 13.088 20.536 13.12 20.264 13.12ZM18.452 9.712H21.464C21.464 9.456 21.428 9.228 21.356 9.028C21.292 8.82 21.196 8.644 21.068 8.5C20.948 8.348 20.8 8.236 20.624 8.164C20.456 8.084 20.264 8.044 20.048 8.044C19.856 8.044 19.672 8.076 19.496 8.14C19.328 8.204 19.172 8.308 19.028 8.452C18.884 8.588 18.76 8.76 18.656 8.968C18.56 9.176 18.492 9.424 18.452 9.712ZM26.012 13.12C25.708 13.12 25.416 13.088 25.136 13.024C24.864 12.96 24.604 12.864 24.356 12.736C24.116 12.608 23.892 12.448 23.684 12.256L24.164 11.44L24.236 11.332L24.308 11.38C24.324 11.444 24.34 11.512 24.356 11.584C24.38 11.648 24.436 11.728 24.524 11.824C24.692 11.992 24.892 12.132 25.124 12.244C25.364 12.348 25.668 12.4 26.036 12.4C26.332 12.4 26.58 12.364 26.78 12.292C26.988 12.22 27.148 12.12 27.26 11.992C27.372 11.856 27.428 11.7 27.428 11.524C27.428 11.404 27.404 11.3 27.356 11.212C27.308 11.116 27.228 11.028 27.116 10.948C27.012 10.868 26.872 10.788 26.696 10.708C26.52 10.628 26.304 10.548 26.048 10.468C25.632 10.348 25.268 10.208 24.956 10.048C24.644 9.888 24.404 9.704 24.236 9.496C24.068 9.28 23.984 9.036 23.984 8.764C23.984 8.484 24.06 8.244 24.212 8.044C24.364 7.836 24.588 7.676 24.884 7.564C25.188 7.444 25.56 7.384 26 7.384C26.256 7.384 26.488 7.404 26.696 7.444C26.904 7.476 27.096 7.528 27.272 7.6C27.448 7.672 27.608 7.764 27.752 7.876C27.904 7.98 28.048 8.104 28.184 8.248L27.692 8.848L27.608 8.944L27.548 8.884C27.54 8.82 27.52 8.76 27.488 8.704C27.464 8.64 27.408 8.564 27.32 8.476C27.136 8.332 26.928 8.224 26.696 8.152C26.464 8.072 26.24 8.032 26.024 8.032C25.704 8.032 25.428 8.088 25.196 8.2C24.964 8.312 24.848 8.484 24.848 8.716C24.848 8.836 24.888 8.956 24.968 9.076C25.056 9.188 25.212 9.304 25.436 9.424C25.66 9.536 25.98 9.652 26.396 9.772C26.852 9.916 27.216 10.064 27.488 10.216C27.768 10.36 27.968 10.528 28.088 10.72C28.216 10.912 28.28 11.14 28.28 11.404C28.28 11.708 28.196 11.992 28.028 12.256C27.868 12.52 27.62 12.732 27.284 12.892C26.948 13.044 26.524 13.12 26.012 13.12ZM32.264 13.12C31.864 13.12 31.5 13.06 31.172 12.94C30.844 12.812 30.56 12.628 30.32 12.388C30.088 12.148 29.908 11.852 29.78 11.5C29.652 11.14 29.588 10.732 29.588 10.276C29.588 9.812 29.652 9.4 29.78 9.04C29.916 8.68 30.096 8.38 30.32 8.14C30.552 7.892 30.82 7.704 31.124 7.576C31.436 7.448 31.764 7.384 32.108 7.384C32.42 7.384 32.712 7.436 32.984 7.54C33.256 7.644 33.492 7.804 33.692 8.02C33.892 8.228 34.048 8.496 34.16 8.824C34.28 9.152 34.34 9.54 34.34 9.988C34.34 10.052 34.336 10.12 34.328 10.192C34.328 10.256 34.324 10.32 34.316 10.384H30.416C30.432 10.736 30.492 11.044 30.596 11.308C30.7 11.564 30.836 11.776 31.004 11.944C31.172 12.104 31.364 12.224 31.58 12.304C31.804 12.384 32.04 12.424 32.288 12.424C32.48 12.424 32.66 12.404 32.828 12.364C32.996 12.316 33.152 12.248 33.296 12.16C33.448 12.064 33.584 11.948 33.704 11.812L34.184 12.28C34.032 12.464 33.856 12.62 33.656 12.748C33.464 12.876 33.252 12.968 33.02 13.024C32.788 13.088 32.536 13.12 32.264 13.12ZM30.452 9.712H33.464C33.464 9.456 33.428 9.228 33.356 9.028C33.292 8.82 33.196 8.644 33.068 8.5C32.948 8.348 32.8 8.236 32.624 8.164C32.456 8.084 32.264 8.044 32.048 8.044C31.856 8.044 31.672 8.076 31.496 8.14C31.328 8.204 31.172 8.308 31.028 8.452C30.884 8.588 30.76 8.76 30.656 8.968C30.56 9.176 30.492 9.424 30.452 9.712ZM36.428 7.516H37.328L37.292 9.112L37.184 8.932C37.232 8.684 37.316 8.464 37.436 8.272C37.556 8.08 37.7 7.92 37.868 7.792C38.036 7.656 38.22 7.556 38.42 7.492C38.62 7.42 38.828 7.384 39.044 7.384C39.332 7.384 39.596 7.436 39.836 7.54C40.084 7.636 40.304 7.784 40.496 7.984L40.112 8.656L40.064 8.764L39.98 8.716C39.964 8.652 39.94 8.592 39.908 8.536C39.876 8.48 39.808 8.412 39.704 8.332C39.576 8.252 39.456 8.2 39.344 8.176C39.24 8.144 39.12 8.128 38.984 8.128C38.784 8.128 38.584 8.168 38.384 8.248C38.184 8.32 38 8.436 37.832 8.596C37.672 8.756 37.544 8.96 37.448 9.208C37.352 9.456 37.304 9.752 37.304 10.096V13.012H36.428V7.516ZM43.652 13L41.48 7.516H42.344L44.12 12.016H43.952L44.924 9.784C45.116 9.344 45.268 8.936 45.38 8.56C45.5 8.184 45.588 7.836 45.644 7.516H46.46C46.396 7.852 46.296 8.22 46.16 8.62C46.024 9.02 45.856 9.452 45.656 9.916L44.324 13H43.652ZM49.532 13.132C48.908 13.132 48.428 12.992 48.092 12.712C47.756 12.424 47.588 12.06 47.588 11.62C47.588 11.324 47.66 11.06 47.804 10.828C47.948 10.588 48.144 10.388 48.392 10.228C48.648 10.06 48.944 9.932 49.28 9.844C49.616 9.756 49.972 9.712 50.348 9.712C50.484 9.712 50.62 9.716 50.756 9.724C50.9 9.724 51.048 9.732 51.2 9.748C51.36 9.756 51.524 9.772 51.692 9.796L51.716 10.456C51.572 10.432 51.424 10.416 51.272 10.408C51.128 10.392 50.984 10.38 50.84 10.372C50.696 10.364 50.556 10.36 50.42 10.36C50.132 10.36 49.868 10.384 49.628 10.432C49.388 10.48 49.18 10.552 49.004 10.648C48.828 10.744 48.692 10.868 48.596 11.02C48.5 11.172 48.452 11.356 48.452 11.572C48.452 11.74 48.48 11.884 48.536 12.004C48.6 12.116 48.684 12.208 48.788 12.28C48.892 12.344 49.012 12.392 49.148 12.424C49.292 12.456 49.448 12.472 49.616 12.472C49.928 12.472 50.204 12.424 50.444 12.328C50.692 12.224 50.9 12.076 51.068 11.884C51.244 11.692 51.376 11.456 51.464 11.176C51.552 10.896 51.596 10.576 51.596 10.216C51.596 9.672 51.532 9.248 51.404 8.944C51.276 8.64 51.084 8.424 50.828 8.296C50.58 8.168 50.26 8.104 49.868 8.104C49.604 8.104 49.344 8.156 49.088 8.26C48.832 8.356 48.6 8.508 48.392 8.716L47.972 8.164C48.228 7.908 48.524 7.716 48.86 7.588C49.196 7.46 49.552 7.396 49.928 7.396C50.288 7.396 50.616 7.44 50.912 7.528C51.208 7.616 51.46 7.764 51.668 7.972C51.884 8.172 52.048 8.444 52.16 8.788C52.28 9.132 52.34 9.564 52.34 10.084V13H51.404V12.16C51.3 12.36 51.172 12.524 51.02 12.652C50.876 12.78 50.72 12.88 50.552 12.952C50.384 13.016 50.212 13.06 50.036 13.084C49.86 13.116 49.692 13.132 49.532 13.132ZM56.588 13.084C56.236 13.084 55.948 13.024 55.724 12.904C55.5 12.784 55.328 12.6 55.208 12.352C55.088 12.096 55.008 11.776 54.968 11.392C54.936 11.008 54.928 10.552 54.944 10.024L55.088 6.112L55.988 6.004L56.108 5.992L56.12 6.076C56.08 6.132 56.044 6.188 56.012 6.244C55.988 6.3 55.968 6.396 55.952 6.532L55.844 7.888L55.88 8.104L55.796 10.084C55.772 10.692 55.788 11.164 55.844 11.5C55.9 11.828 56 12.056 56.144 12.184C56.288 12.304 56.48 12.364 56.72 12.364C56.984 12.364 57.216 12.312 57.416 12.208C57.624 12.104 57.84 11.972 58.064 11.812L58.328 12.496C58.056 12.696 57.776 12.844 57.488 12.94C57.2 13.036 56.9 13.084 56.588 13.084ZM53.84 7.516H57.788V8.224H53.84V7.516ZM60.2 13V12.304H61.604V8.212H60.272V7.516H62.468V12.304H63.752V13H60.2ZM61.988 6.364C61.82 6.364 61.676 6.304 61.556 6.184C61.436 6.064 61.376 5.92 61.376 5.752C61.376 5.576 61.432 5.428 61.544 5.308C61.664 5.188 61.812 5.128 61.988 5.128C62.156 5.128 62.3 5.192 62.42 5.32C62.548 5.44 62.612 5.584 62.612 5.752C62.612 5.92 62.548 6.064 62.42 6.184C62.3 6.304 62.156 6.364 61.988 6.364ZM68 13.096C67.504 13.096 67.064 12.976 66.68 12.736C66.304 12.488 66.008 12.152 65.792 11.728C65.576 11.296 65.468 10.804 65.468 10.252C65.468 9.692 65.576 9.2 65.792 8.776C66.008 8.344 66.304 8.008 66.68 7.768C67.064 7.52 67.504 7.396 68 7.396C68.496 7.396 68.932 7.52 69.308 7.768C69.692 8.008 69.992 8.344 70.208 8.776C70.424 9.2 70.532 9.692 70.532 10.252C70.532 10.804 70.424 11.296 70.208 11.728C69.992 12.152 69.692 12.488 69.308 12.736C68.932 12.976 68.496 13.096 68 13.096ZM68 12.376C68.32 12.376 68.6 12.284 68.84 12.1C69.08 11.916 69.268 11.664 69.404 11.344C69.548 11.024 69.62 10.656 69.62 10.24C69.62 9.824 69.548 9.456 69.404 9.136C69.268 8.816 69.08 8.568 68.84 8.392C68.6 8.208 68.32 8.116 68 8.116C67.688 8.116 67.408 8.208 67.16 8.392C66.92 8.568 66.728 8.816 66.584 9.136C66.448 9.456 66.38 9.824 66.38 10.24C66.38 10.656 66.448 11.024 66.584 11.344C66.728 11.664 66.92 11.916 67.16 12.1C67.408 12.284 67.688 12.376 68 12.376ZM71.864 13V7.516H72.704V8.488C72.848 8.264 73.016 8.072 73.208 7.912C73.4 7.744 73.612 7.616 73.844 7.528C74.076 7.432 74.316 7.384 74.564 7.384C74.868 7.384 75.14 7.46 75.38 7.612C75.62 7.764 75.812 8.008 75.956 8.344C76.1 8.68 76.172 9.124 76.172 9.676V13H75.332V9.7C75.332 9.316 75.288 9.012 75.2 8.788C75.112 8.556 74.992 8.392 74.84 8.296C74.688 8.192 74.516 8.14 74.324 8.14C74.14 8.14 73.952 8.18 73.76 8.26C73.576 8.34 73.404 8.456 73.244 8.608C73.084 8.752 72.952 8.928 72.848 9.136C72.752 9.344 72.704 9.58 72.704 9.844V13H71.864ZM90.476 13.504L89.768 13.156L93.524 5.02L94.244 5.392L90.476 13.504ZM111.284 10.816H108.572L108.74 10.168H111.092L111.284 10.816ZM109.988 7.312L108.02 13H107.192L109.952 5.392H110.048L112.808 13H111.944L109.988 7.312ZM115.808 13.12C115.528 13.12 115.252 13.06 114.98 12.94C114.716 12.82 114.472 12.64 114.248 12.4C114.032 12.16 113.86 11.856 113.732 11.488C113.604 11.12 113.54 10.692 113.54 10.204C113.54 9.7 113.608 9.272 113.744 8.92C113.88 8.56 114.06 8.268 114.284 8.044C114.508 7.812 114.756 7.644 115.028 7.54C115.3 7.428 115.576 7.372 115.856 7.372C116.112 7.372 116.34 7.412 116.54 7.492C116.748 7.572 116.928 7.684 117.08 7.828C117.24 7.964 117.364 8.128 117.452 8.32V5.02H118.244H118.364V5.104C118.316 5.152 118.284 5.204 118.268 5.26C118.26 5.316 118.256 5.412 118.256 5.548L118.268 12.148C118.268 12.292 118.272 12.436 118.28 12.58C118.296 12.716 118.332 12.856 118.388 13H117.536C117.496 12.904 117.468 12.808 117.452 12.712C117.436 12.616 117.424 12.524 117.416 12.436C117.416 12.34 117.416 12.244 117.416 12.148C117.304 12.34 117.168 12.512 117.008 12.664C116.848 12.808 116.668 12.92 116.468 13C116.268 13.08 116.048 13.12 115.808 13.12ZM115.94 12.364C116.204 12.364 116.428 12.312 116.612 12.208C116.796 12.096 116.944 11.944 117.056 11.752C117.168 11.552 117.248 11.324 117.296 11.068C117.352 10.804 117.38 10.524 117.38 10.228C117.38 9.82 117.328 9.456 117.224 9.136C117.12 8.808 116.956 8.552 116.732 8.368C116.508 8.176 116.22 8.08 115.868 8.08C115.628 8.08 115.412 8.128 115.22 8.224C115.036 8.312 114.88 8.444 114.752 8.62C114.632 8.796 114.54 9.008 114.476 9.256C114.412 9.496 114.38 9.768 114.38 10.072C114.38 10.528 114.44 10.928 114.56 11.272C114.68 11.616 114.856 11.884 115.088 12.076C115.32 12.268 115.604 12.364 115.94 12.364ZM121.532 13.132C120.908 13.132 120.428 12.992 120.092 12.712C119.756 12.424 119.588 12.06 119.588 11.62C119.588 11.324 119.66 11.06 119.804 10.828C119.948 10.588 120.144 10.388 120.392 10.228C120.648 10.06 120.944 9.932 121.28 9.844C121.616 9.756 121.972 9.712 122.348 9.712C122.484 9.712 122.62 9.716 122.756 9.724C122.9 9.724 123.048 9.732 123.2 9.748C123.36 9.756 123.524 9.772 123.692 9.796L123.716 10.456C123.572 10.432 123.424 10.416 123.272 10.408C123.128 10.392 122.984 10.38 122.84 10.372C122.696 10.364 122.556 10.36 122.42 10.36C122.132 10.36 121.868 10.384 121.628 10.432C121.388 10.48 121.18 10.552 121.004 10.648C120.828 10.744 120.692 10.868 120.596 11.02C120.5 11.172 120.452 11.356 120.452 11.572C120.452 11.74 120.48 11.884 120.536 12.004C120.6 12.116 120.684 12.208 120.788 12.28C120.892 12.344 121.012 12.392 121.148 12.424C121.292 12.456 121.448 12.472 121.616 12.472C121.928 12.472 122.204 12.424 122.444 12.328C122.692 12.224 122.9 12.076 123.068 11.884C123.244 11.692 123.376 11.456 123.464 11.176C123.552 10.896 123.596 10.576 123.596 10.216C123.596 9.672 123.532 9.248 123.404 8.944C123.276 8.64 123.084 8.424 122.828 8.296C122.58 8.168 122.26 8.104 121.868 8.104C121.604 8.104 121.344 8.156 121.088 8.26C120.832 8.356 120.6 8.508 120.392 8.716L119.972 8.164C120.228 7.908 120.524 7.716 120.86 7.588C121.196 7.46 121.552 7.396 121.928 7.396C122.288 7.396 122.616 7.44 122.912 7.528C123.208 7.616 123.46 7.764 123.668 7.972C123.884 8.172 124.048 8.444 124.16 8.788C124.28 9.132 124.34 9.564 124.34 10.084V13H123.404V12.16C123.3 12.36 123.172 12.524 123.02 12.652C122.876 12.78 122.72 12.88 122.552 12.952C122.384 13.016 122.212 13.06 122.036 13.084C121.86 13.116 121.692 13.132 121.532 13.132ZM125.72 15.004V7.516H126.596V8.596C126.684 8.316 126.808 8.088 126.968 7.912C127.136 7.736 127.328 7.608 127.544 7.528C127.768 7.44 128.008 7.396 128.264 7.396C128.568 7.396 128.856 7.456 129.128 7.576C129.408 7.688 129.652 7.86 129.86 8.092C130.076 8.324 130.244 8.616 130.364 8.968C130.492 9.32 130.556 9.736 130.556 10.216C130.556 10.696 130.488 11.12 130.352 11.488C130.224 11.856 130.048 12.164 129.824 12.412C129.608 12.652 129.36 12.836 129.08 12.964C128.808 13.084 128.528 13.144 128.24 13.144C128.024 13.144 127.812 13.108 127.604 13.036C127.404 12.972 127.22 12.876 127.052 12.748C126.884 12.612 126.736 12.456 126.608 12.28V15.004H125.72ZM128.096 12.376C128.288 12.376 128.476 12.344 128.66 12.28C128.844 12.208 129.012 12.092 129.164 11.932C129.316 11.772 129.436 11.556 129.524 11.284C129.612 11.004 129.656 10.66 129.656 10.252C129.656 9.812 129.6 9.44 129.488 9.136C129.376 8.824 129.212 8.584 128.996 8.416C128.788 8.248 128.532 8.156 128.228 8.14C128.004 8.124 127.792 8.156 127.592 8.236C127.4 8.316 127.228 8.448 127.076 8.632C126.924 8.816 126.804 9.06 126.716 9.364C126.636 9.66 126.596 10.02 126.596 10.444C126.604 10.7 126.632 10.932 126.68 11.14C126.728 11.348 126.796 11.532 126.884 11.692C126.972 11.844 127.076 11.972 127.196 12.076C127.316 12.172 127.452 12.248 127.604 12.304C127.756 12.352 127.92 12.376 128.096 12.376ZM134.588 13.084C134.236 13.084 133.948 13.024 133.724 12.904C133.5 12.784 133.328 12.6 133.208 12.352C133.088 12.096 133.008 11.776 132.968 11.392C132.936 11.008 132.928 10.552 132.944 10.024L133.088 6.112L133.988 6.004L134.108 5.992L134.12 6.076C134.08 6.132 134.044 6.188 134.012 6.244C133.988 6.3 133.968 6.396 133.952 6.532L133.844 7.888L133.88 8.104L133.796 10.084C133.772 10.692 133.788 11.164 133.844 11.5C133.9 11.828 134 12.056 134.144 12.184C134.288 12.304 134.48 12.364 134.72 12.364C134.984 12.364 135.216 12.312 135.416 12.208C135.624 12.104 135.84 11.972 136.064 11.812L136.328 12.496C136.056 12.696 135.776 12.844 135.488 12.94C135.2 13.036 134.9 13.084 134.588 13.084ZM131.84 7.516H135.788V8.224H131.84V7.516ZM138.2 13V12.304H139.604V8.212H138.272V7.516H140.468V12.304H141.752V13H138.2ZM139.988 6.364C139.82 6.364 139.676 6.304 139.556 6.184C139.436 6.064 139.376 5.92 139.376 5.752C139.376 5.576 139.432 5.428 139.544 5.308C139.664 5.188 139.812 5.128 139.988 5.128C140.156 5.128 140.3 5.192 140.42 5.32C140.548 5.44 140.612 5.584 140.612 5.752C140.612 5.92 140.548 6.064 140.42 6.184C140.3 6.304 140.156 6.364 139.988 6.364ZM145.652 13L143.48 7.516H144.344L146.12 12.016H145.952L146.924 9.784C147.116 9.344 147.268 8.936 147.38 8.56C147.5 8.184 147.588 7.836 147.644 7.516H148.46C148.396 7.852 148.296 8.22 148.16 8.62C148.024 9.02 147.856 9.452 147.656 9.916L146.324 13H145.652ZM152.264 13.12C151.864 13.12 151.5 13.06 151.172 12.94C150.844 12.812 150.56 12.628 150.32 12.388C150.088 12.148 149.908 11.852 149.78 11.5C149.652 11.14 149.588 10.732 149.588 10.276C149.588 9.812 149.652 9.4 149.78 9.04C149.916 8.68 150.096 8.38 150.32 8.14C150.552 7.892 150.82 7.704 151.124 7.576C151.436 7.448 151.764 7.384 152.108 7.384C152.42 7.384 152.712 7.436 152.984 7.54C153.256 7.644 153.492 7.804 153.692 8.02C153.892 8.228 154.048 8.496 154.16 8.824C154.28 9.152 154.34 9.54 154.34 9.988C154.34 10.052 154.336 10.12 154.328 10.192C154.328 10.256 154.324 10.32 154.316 10.384H150.416C150.432 10.736 150.492 11.044 150.596 11.308C150.7 11.564 150.836 11.776 151.004 11.944C151.172 12.104 151.364 12.224 151.58 12.304C151.804 12.384 152.04 12.424 152.288 12.424C152.48 12.424 152.66 12.404 152.828 12.364C152.996 12.316 153.152 12.248 153.296 12.16C153.448 12.064 153.584 11.948 153.704 11.812L154.184 12.28C154.032 12.464 153.856 12.62 153.656 12.748C153.464 12.876 153.252 12.968 153.02 13.024C152.788 13.088 152.536 13.12 152.264 13.12ZM150.452 9.712H153.464C153.464 9.456 153.428 9.228 153.356 9.028C153.292 8.82 153.196 8.644 153.068 8.5C152.948 8.348 152.8 8.236 152.624 8.164C152.456 8.084 152.264 8.044 152.048 8.044C151.856 8.044 151.672 8.076 151.496 8.14C151.328 8.204 151.172 8.308 151.028 8.452C150.884 8.588 150.76 8.76 150.656 8.968C150.56 9.176 150.492 9.424 150.452 9.712ZM161.708 13V5.524H164.108C164.668 5.524 165.12 5.62 165.464 5.812C165.808 6.004 166.06 6.26 166.22 6.58C166.388 6.892 166.472 7.244 166.472 7.636C166.472 7.924 166.428 8.192 166.34 8.44C166.252 8.688 166.112 8.908 165.92 9.1C165.736 9.292 165.5 9.44 165.212 9.544C164.924 9.648 164.576 9.7 164.168 9.7H162.572V13H161.708ZM162.572 8.956H164.072C164.44 8.956 164.736 8.904 164.96 8.8C165.184 8.688 165.348 8.536 165.452 8.344C165.556 8.144 165.608 7.916 165.608 7.66C165.608 7.412 165.556 7.188 165.452 6.988C165.348 6.788 165.184 6.628 164.96 6.508C164.736 6.38 164.444 6.316 164.084 6.316H162.572V8.956ZM168.428 7.516H169.328L169.292 9.112L169.184 8.932C169.232 8.684 169.316 8.464 169.436 8.272C169.556 8.08 169.7 7.92 169.868 7.792C170.036 7.656 170.22 7.556 170.42 7.492C170.62 7.42 170.828 7.384 171.044 7.384C171.332 7.384 171.596 7.436 171.836 7.54C172.084 7.636 172.304 7.784 172.496 7.984L172.112 8.656L172.064 8.764L171.98 8.716C171.964 8.652 171.94 8.592 171.908 8.536C171.876 8.48 171.808 8.412 171.704 8.332C171.576 8.252 171.456 8.2 171.344 8.176C171.24 8.144 171.12 8.128 170.984 8.128C170.784 8.128 170.584 8.168 170.384 8.248C170.184 8.32 170 8.436 169.832 8.596C169.672 8.756 169.544 8.96 169.448 9.208C169.352 9.456 169.304 9.752 169.304 10.096V13.012H168.428V7.516ZM176 13.096C175.504 13.096 175.064 12.976 174.68 12.736C174.304 12.488 174.008 12.152 173.792 11.728C173.576 11.296 173.468 10.804 173.468 10.252C173.468 9.692 173.576 9.2 173.792 8.776C174.008 8.344 174.304 8.008 174.68 7.768C175.064 7.52 175.504 7.396 176 7.396C176.496 7.396 176.932 7.52 177.308 7.768C177.692 8.008 177.992 8.344 178.208 8.776C178.424 9.2 178.532 9.692 178.532 10.252C178.532 10.804 178.424 11.296 178.208 11.728C177.992 12.152 177.692 12.488 177.308 12.736C176.932 12.976 176.496 13.096 176 13.096ZM176 12.376C176.32 12.376 176.6 12.284 176.84 12.1C177.08 11.916 177.268 11.664 177.404 11.344C177.548 11.024 177.62 10.656 177.62 10.24C177.62 9.824 177.548 9.456 177.404 9.136C177.268 8.816 177.08 8.568 176.84 8.392C176.6 8.208 176.32 8.116 176 8.116C175.688 8.116 175.408 8.208 175.16 8.392C174.92 8.568 174.728 8.816 174.584 9.136C174.448 9.456 174.38 9.824 174.38 10.24C174.38 10.656 174.448 11.024 174.584 11.344C174.728 11.664 174.92 11.916 175.16 12.1C175.408 12.284 175.688 12.376 176 12.376ZM181.328 15.088C180.984 15.088 180.656 15.024 180.344 14.896C180.04 14.768 179.784 14.576 179.576 14.32L180.056 13.672L180.128 13.576L180.2 13.624C180.216 13.688 180.236 13.748 180.26 13.804C180.284 13.868 180.34 13.948 180.428 14.044C180.54 14.132 180.668 14.204 180.812 14.26C180.964 14.316 181.132 14.344 181.316 14.344C181.556 14.344 181.768 14.288 181.952 14.176C182.144 14.072 182.292 13.904 182.396 13.672C182.5 13.448 182.552 13.152 182.552 12.784V8.224H180.512V7.516H183.428V12.736C183.428 13.288 183.332 13.736 183.14 14.08C182.948 14.432 182.692 14.688 182.372 14.848C182.06 15.008 181.712 15.088 181.328 15.088ZM182.924 6.364C182.756 6.364 182.612 6.304 182.492 6.184C182.372 6.064 182.312 5.92 182.312 5.752C182.312 5.576 182.368 5.428 182.48 5.308C182.6 5.188 182.748 5.128 182.924 5.128C183.092 5.128 183.236 5.192 183.356 5.32C183.484 5.44 183.548 5.584 183.548 5.752C183.548 5.92 183.484 6.064 183.356 6.184C183.236 6.304 183.092 6.364 182.924 6.364ZM188.264 13.12C187.864 13.12 187.5 13.06 187.172 12.94C186.844 12.812 186.56 12.628 186.32 12.388C186.088 12.148 185.908 11.852 185.78 11.5C185.652 11.14 185.588 10.732 185.588 10.276C185.588 9.812 185.652 9.4 185.78 9.04C185.916 8.68 186.096 8.38 186.32 8.14C186.552 7.892 186.82 7.704 187.124 7.576C187.436 7.448 187.764 7.384 188.108 7.384C188.42 7.384 188.712 7.436 188.984 7.54C189.256 7.644 189.492 7.804 189.692 8.02C189.892 8.228 190.048 8.496 190.16 8.824C190.28 9.152 190.34 9.54 190.34 9.988C190.34 10.052 190.336 10.12 190.328 10.192C190.328 10.256 190.324 10.32 190.316 10.384H186.416C186.432 10.736 186.492 11.044 186.596 11.308C186.7 11.564 186.836 11.776 187.004 11.944C187.172 12.104 187.364 12.224 187.58 12.304C187.804 12.384 188.04 12.424 188.288 12.424C188.48 12.424 188.66 12.404 188.828 12.364C188.996 12.316 189.152 12.248 189.296 12.16C189.448 12.064 189.584 11.948 189.704 11.812L190.184 12.28C190.032 12.464 189.856 12.62 189.656 12.748C189.464 12.876 189.252 12.968 189.02 13.024C188.788 13.088 188.536 13.12 188.264 13.12ZM186.452 9.712H189.464C189.464 9.456 189.428 9.228 189.356 9.028C189.292 8.82 189.196 8.644 189.068 8.5C188.948 8.348 188.8 8.236 188.624 8.164C188.456 8.084 188.264 8.044 188.048 8.044C187.856 8.044 187.672 8.076 187.496 8.14C187.328 8.204 187.172 8.308 187.028 8.452C186.884 8.588 186.76 8.76 186.656 8.968C186.56 9.176 186.492 9.424 186.452 9.712ZM194.42 13.132C194.02 13.132 193.652 13.06 193.316 12.916C192.98 12.772 192.688 12.572 192.44 12.316C192.2 12.06 192.012 11.76 191.876 11.416C191.74 11.064 191.672 10.68 191.672 10.264C191.672 9.856 191.74 9.48 191.876 9.136C192.012 8.784 192.2 8.48 192.44 8.224C192.688 7.968 192.98 7.768 193.316 7.624C193.652 7.48 194.016 7.408 194.408 7.408C194.856 7.408 195.256 7.5 195.608 7.684C195.968 7.86 196.26 8.108 196.484 8.428L195.944 8.956L195.86 9.04L195.8 8.98C195.8 8.916 195.784 8.856 195.752 8.8C195.728 8.744 195.668 8.668 195.572 8.572C195.396 8.412 195.208 8.3 195.008 8.236C194.808 8.172 194.576 8.14 194.312 8.14C194.08 8.14 193.86 8.188 193.652 8.284C193.444 8.38 193.256 8.52 193.088 8.704C192.928 8.88 192.8 9.096 192.704 9.352C192.608 9.608 192.56 9.892 192.56 10.204C192.56 10.516 192.608 10.804 192.704 11.068C192.8 11.324 192.932 11.548 193.1 11.74C193.268 11.932 193.468 12.084 193.7 12.196C193.94 12.3 194.196 12.352 194.468 12.352C194.652 12.352 194.828 12.328 194.996 12.28C195.164 12.224 195.324 12.148 195.476 12.052C195.628 11.948 195.768 11.824 195.896 11.68L196.4 12.268C196.128 12.556 195.824 12.772 195.488 12.916C195.16 13.06 194.804 13.132 194.42 13.132ZM200.588 13.084C200.236 13.084 199.948 13.024 199.724 12.904C199.5 12.784 199.328 12.6 199.208 12.352C199.088 12.096 199.008 11.776 198.968 11.392C198.936 11.008 198.928 10.552 198.944 10.024L199.088 6.112L199.988 6.004L200.108 5.992L200.12 6.076C200.08 6.132 200.044 6.188 200.012 6.244C199.988 6.3 199.968 6.396 199.952 6.532L199.844 7.888L199.88 8.104L199.796 10.084C199.772 10.692 199.788 11.164 199.844 11.5C199.9 11.828 200 12.056 200.144 12.184C200.288 12.304 200.48 12.364 200.72 12.364C200.984 12.364 201.216 12.312 201.416 12.208C201.624 12.104 201.84 11.972 202.064 11.812L202.328 12.496C202.056 12.696 201.776 12.844 201.488 12.94C201.2 13.036 200.9 13.084 200.588 13.084ZM197.84 7.516H201.788V8.224H197.84V7.516Z" fill="black"/>
</svg>
