<svg width="214" height="20" viewBox="0 0 214 20" fill="none" xmlns="http://www.w3.org/2000/svg">
<rect x="0.5" y="0.5" width="213" height="19" fill="black" stroke="black"/>
<path d="M5.48 13V5.524H8.132C8.724 5.524 9.216 5.628 9.608 5.836C10 6.036 10.292 6.308 10.484 6.652C10.676 6.988 10.772 7.36 10.772 7.768C10.772 8.072 10.716 8.36 10.604 8.632C10.5 8.896 10.34 9.128 10.124 9.328C9.916 9.528 9.648 9.688 9.32 9.808C9 9.92 8.624 9.976 8.192 9.976H7.208V13H5.48ZM7.208 8.596H8.096C8.28 8.596 8.44 8.56 8.576 8.488C8.72 8.416 8.832 8.316 8.912 8.188C8.992 8.06 9.032 7.916 9.032 7.756C9.032 7.588 8.992 7.444 8.912 7.324C8.832 7.204 8.724 7.112 8.588 7.048C8.452 6.984 8.292 6.952 8.108 6.952H7.208V8.596ZM11.828 7.348H13.568V8.896L13.376 8.848C13.4 8.608 13.46 8.392 13.556 8.2C13.66 8 13.792 7.828 13.952 7.684C14.112 7.532 14.288 7.416 14.48 7.336C14.68 7.256 14.884 7.216 15.092 7.216C15.42 7.216 15.712 7.268 15.968 7.372C16.224 7.476 16.464 7.644 16.688 7.876L15.992 9.328L15.956 9.424L15.836 9.376C15.804 9.312 15.78 9.244 15.764 9.172C15.748 9.092 15.696 9.004 15.608 8.908C15.504 8.82 15.384 8.748 15.248 8.692C15.12 8.628 14.976 8.596 14.816 8.596C14.632 8.596 14.46 8.624 14.3 8.68C14.148 8.736 14.016 8.824 13.904 8.944C13.792 9.064 13.704 9.216 13.64 9.4C13.576 9.584 13.544 9.804 13.544 10.06V13H11.828V7.348ZM20.24 13.144C19.84 13.144 19.464 13.08 19.112 12.952C18.768 12.816 18.464 12.624 18.2 12.376C17.944 12.128 17.744 11.824 17.6 11.464C17.456 11.096 17.384 10.684 17.384 10.228C17.384 9.764 17.452 9.348 17.588 8.98C17.732 8.604 17.924 8.288 18.164 8.032C18.412 7.768 18.7 7.568 19.028 7.432C19.356 7.288 19.712 7.216 20.096 7.216C20.424 7.216 20.736 7.276 21.032 7.396C21.336 7.516 21.604 7.696 21.836 7.936C22.068 8.168 22.252 8.46 22.388 8.812C22.524 9.156 22.592 9.552 22.592 10C22.592 10.096 22.592 10.216 22.592 10.36C22.592 10.504 22.588 10.62 22.58 10.708H19.016C19.032 10.908 19.08 11.08 19.16 11.224C19.24 11.36 19.34 11.476 19.46 11.572C19.588 11.66 19.724 11.728 19.868 11.776C20.02 11.816 20.172 11.836 20.324 11.836C20.484 11.836 20.636 11.824 20.78 11.8C20.924 11.776 21.064 11.732 21.2 11.668C21.336 11.596 21.468 11.496 21.596 11.368L22.436 12.184C22.244 12.408 22.032 12.592 21.8 12.736C21.568 12.88 21.32 12.984 21.056 13.048C20.792 13.112 20.52 13.144 20.24 13.144ZM19.028 9.46H20.984C20.984 9.3 20.964 9.164 20.924 9.052C20.884 8.932 20.824 8.836 20.744 8.764C20.664 8.684 20.564 8.628 20.444 8.596C20.324 8.556 20.188 8.536 20.036 8.536C19.9 8.536 19.772 8.556 19.652 8.596C19.54 8.628 19.44 8.684 19.352 8.764C19.264 8.836 19.192 8.932 19.136 9.052C19.08 9.164 19.044 9.3 19.028 9.46ZM26.18 13.144C25.812 13.144 25.46 13.112 25.124 13.048C24.796 12.992 24.492 12.9 24.212 12.772C23.932 12.636 23.676 12.46 23.444 12.244L24.116 10.948L24.164 10.852L24.272 10.912C24.296 10.968 24.32 11.032 24.344 11.104C24.376 11.168 24.44 11.244 24.536 11.332C24.76 11.5 25.004 11.628 25.268 11.716C25.54 11.804 25.848 11.848 26.192 11.848C26.368 11.848 26.516 11.828 26.636 11.788C26.764 11.748 26.86 11.696 26.924 11.632C26.996 11.56 27.032 11.484 27.032 11.404C27.032 11.324 27.004 11.256 26.948 11.2C26.9 11.144 26.824 11.096 26.72 11.056C26.624 11.008 26.496 10.96 26.336 10.912C26.176 10.864 25.988 10.812 25.772 10.756C25.372 10.652 25.024 10.524 24.728 10.372C24.44 10.22 24.216 10.032 24.056 9.808C23.896 9.576 23.816 9.3 23.816 8.98C23.816 8.652 23.916 8.356 24.116 8.092C24.316 7.828 24.588 7.616 24.932 7.456C25.284 7.296 25.684 7.216 26.132 7.216C26.348 7.216 26.56 7.236 26.768 7.276C26.984 7.308 27.188 7.36 27.38 7.432C27.572 7.496 27.756 7.584 27.932 7.696C28.108 7.8 28.272 7.924 28.424 8.068L27.644 9.208L27.572 9.304L27.464 9.22C27.456 9.156 27.436 9.096 27.404 9.04C27.38 8.984 27.32 8.912 27.224 8.824C27.072 8.72 26.904 8.648 26.72 8.608C26.544 8.56 26.356 8.536 26.156 8.536C25.924 8.536 25.72 8.572 25.544 8.644C25.368 8.716 25.28 8.824 25.28 8.968C25.28 9.064 25.328 9.144 25.424 9.208C25.52 9.272 25.66 9.332 25.844 9.388C26.036 9.436 26.272 9.492 26.552 9.556C27 9.652 27.368 9.784 27.656 9.952C27.944 10.112 28.156 10.308 28.292 10.54C28.436 10.772 28.508 11.04 28.508 11.344C28.508 11.664 28.416 11.964 28.232 12.244C28.048 12.516 27.78 12.736 27.428 12.904C27.084 13.064 26.668 13.144 26.18 13.144ZM32.24 13.144C31.84 13.144 31.464 13.08 31.112 12.952C30.768 12.816 30.464 12.624 30.2 12.376C29.944 12.128 29.744 11.824 29.6 11.464C29.456 11.096 29.384 10.684 29.384 10.228C29.384 9.764 29.452 9.348 29.588 8.98C29.732 8.604 29.924 8.288 30.164 8.032C30.412 7.768 30.7 7.568 31.028 7.432C31.356 7.288 31.712 7.216 32.096 7.216C32.424 7.216 32.736 7.276 33.032 7.396C33.336 7.516 33.604 7.696 33.836 7.936C34.068 8.168 34.252 8.46 34.388 8.812C34.524 9.156 34.592 9.552 34.592 10C34.592 10.096 34.592 10.216 34.592 10.36C34.592 10.504 34.588 10.62 34.58 10.708H31.016C31.032 10.908 31.08 11.08 31.16 11.224C31.24 11.36 31.34 11.476 31.46 11.572C31.588 11.66 31.724 11.728 31.868 11.776C32.02 11.816 32.172 11.836 32.324 11.836C32.484 11.836 32.636 11.824 32.78 11.8C32.924 11.776 33.064 11.732 33.2 11.668C33.336 11.596 33.468 11.496 33.596 11.368L34.436 12.184C34.244 12.408 34.032 12.592 33.8 12.736C33.568 12.88 33.32 12.984 33.056 13.048C32.792 13.112 32.52 13.144 32.24 13.144ZM31.028 9.46H32.984C32.984 9.3 32.964 9.164 32.924 9.052C32.884 8.932 32.824 8.836 32.744 8.764C32.664 8.684 32.564 8.628 32.444 8.596C32.324 8.556 32.188 8.536 32.036 8.536C31.9 8.536 31.772 8.556 31.652 8.596C31.54 8.628 31.44 8.684 31.352 8.764C31.264 8.836 31.192 8.932 31.136 9.052C31.08 9.164 31.044 9.3 31.028 9.46ZM35.828 7.348H37.568V8.896L37.376 8.848C37.4 8.608 37.46 8.392 37.556 8.2C37.66 8 37.792 7.828 37.952 7.684C38.112 7.532 38.288 7.416 38.48 7.336C38.68 7.256 38.884 7.216 39.092 7.216C39.42 7.216 39.712 7.268 39.968 7.372C40.224 7.476 40.464 7.644 40.688 7.876L39.992 9.328L39.956 9.424L39.836 9.376C39.804 9.312 39.78 9.244 39.764 9.172C39.748 9.092 39.696 9.004 39.608 8.908C39.504 8.82 39.384 8.748 39.248 8.692C39.12 8.628 38.976 8.596 38.816 8.596C38.632 8.596 38.46 8.624 38.3 8.68C38.148 8.736 38.016 8.824 37.904 8.944C37.792 9.064 37.704 9.216 37.64 9.4C37.576 9.584 37.544 9.804 37.544 10.06V13H35.828V7.348ZM43.304 13L41.264 7.348H43.052L44.24 11.02H44.036L44.648 9.472C44.768 9.12 44.868 8.764 44.948 8.404C45.028 8.044 45.068 7.692 45.068 7.348H46.64C46.616 7.716 46.54 8.096 46.412 8.488C46.284 8.872 46.148 9.252 46.004 9.628L44.648 13H43.304ZM49.268 13.144C48.66 13.144 48.184 13 47.84 12.712C47.496 12.416 47.324 12.028 47.324 11.548C47.324 11.244 47.388 10.964 47.516 10.708C47.644 10.444 47.844 10.216 48.116 10.024C48.388 9.824 48.736 9.668 49.16 9.556C49.584 9.444 50.092 9.388 50.684 9.388C50.708 9.388 50.752 9.388 50.816 9.388C50.88 9.388 50.952 9.388 51.032 9.388C51.112 9.388 51.18 9.388 51.236 9.388L51.284 10.516C51.236 10.516 51.168 10.516 51.08 10.516C50.992 10.516 50.9 10.52 50.804 10.528C50.716 10.528 50.648 10.528 50.6 10.528C50.256 10.528 49.98 10.552 49.772 10.6C49.564 10.64 49.404 10.7 49.292 10.78C49.188 10.852 49.116 10.936 49.076 11.032C49.036 11.12 49.016 11.208 49.016 11.296C49.016 11.392 49.032 11.476 49.064 11.548C49.096 11.62 49.14 11.676 49.196 11.716C49.252 11.756 49.32 11.788 49.4 11.812C49.48 11.828 49.564 11.836 49.652 11.836C49.844 11.836 50.008 11.804 50.144 11.74C50.28 11.676 50.392 11.572 50.48 11.428C50.576 11.276 50.644 11.084 50.684 10.852C50.732 10.62 50.756 10.336 50.756 10C50.756 9.592 50.716 9.28 50.636 9.064C50.564 8.848 50.456 8.704 50.312 8.632C50.176 8.552 50.008 8.512 49.808 8.512C49.56 8.512 49.332 8.548 49.124 8.62C48.916 8.684 48.696 8.836 48.464 9.076L47.504 8.092C47.864 7.764 48.248 7.536 48.656 7.408C49.072 7.28 49.476 7.216 49.868 7.216C50.212 7.216 50.536 7.256 50.84 7.336C51.152 7.408 51.428 7.532 51.668 7.708C51.916 7.884 52.108 8.128 52.244 8.44C52.388 8.744 52.46 9.128 52.46 9.592V13H50.744V12.556C50.64 12.652 50.536 12.74 50.432 12.82C50.336 12.892 50.228 12.952 50.108 13C49.996 13.048 49.872 13.084 49.736 13.108C49.6 13.132 49.444 13.144 49.268 13.144ZM56.588 13.144C56.292 13.144 56.02 13.096 55.772 13C55.524 12.912 55.312 12.76 55.136 12.544C54.96 12.32 54.828 12.016 54.74 11.632C54.652 11.248 54.62 10.76 54.644 10.168L54.812 6.088L56.54 5.86L56.648 5.848L56.66 5.98C56.628 6.036 56.596 6.092 56.564 6.148C56.532 6.204 56.512 6.3 56.504 6.436L56.36 8.284H56.432L56.336 10.084C56.312 10.54 56.328 10.896 56.384 11.152C56.448 11.4 56.536 11.572 56.648 11.668C56.768 11.764 56.892 11.812 57.02 11.812C57.268 11.812 57.492 11.76 57.692 11.656C57.9 11.552 58.08 11.436 58.232 11.308L58.52 12.496C58.248 12.696 57.952 12.856 57.632 12.976C57.32 13.088 56.972 13.144 56.588 13.144ZM53.612 7.348H58.148L58.124 8.668H53.588L53.612 7.348ZM59.888 13V11.68H61.232V8.668H59.948V7.348H62.936V11.68H64.16V13H59.888ZM62 6.58C61.72 6.58 61.48 6.488 61.28 6.304C61.088 6.112 60.992 5.888 60.992 5.632C60.992 5.352 61.084 5.124 61.268 4.948C61.46 4.772 61.704 4.684 62 4.684C62.264 4.684 62.496 4.78 62.696 4.972C62.904 5.156 63.008 5.376 63.008 5.632C63.008 5.888 62.904 6.112 62.696 6.304C62.496 6.488 62.264 6.58 62 6.58ZM67.988 13.144C67.484 13.144 67.024 13.024 66.608 12.784C66.192 12.536 65.86 12.188 65.612 11.74C65.364 11.292 65.24 10.772 65.24 10.18C65.24 9.628 65.364 9.128 65.612 8.68C65.86 8.232 66.192 7.876 66.608 7.612C67.024 7.348 67.484 7.216 67.988 7.216C68.492 7.216 68.952 7.348 69.368 7.612C69.792 7.876 70.128 8.232 70.376 8.68C70.632 9.128 70.76 9.628 70.76 10.18C70.76 10.764 70.632 11.28 70.376 11.728C70.128 12.176 69.792 12.524 69.368 12.772C68.952 13.02 68.492 13.144 67.988 13.144ZM67.988 11.812C68.204 11.812 68.392 11.744 68.552 11.608C68.72 11.472 68.852 11.284 68.948 11.044C69.044 10.796 69.092 10.508 69.092 10.18C69.092 9.828 69.044 9.532 68.948 9.292C68.852 9.052 68.72 8.868 68.552 8.74C68.392 8.612 68.204 8.548 67.988 8.548C67.788 8.548 67.604 8.612 67.436 8.74C67.276 8.868 67.148 9.052 67.052 9.292C66.956 9.532 66.908 9.828 66.908 10.18C66.908 10.508 66.952 10.796 67.04 11.044C67.136 11.284 67.264 11.472 67.424 11.608C67.592 11.744 67.78 11.812 67.988 11.812ZM71.516 13V7.348H73.232V7.996C73.36 7.844 73.492 7.712 73.628 7.6C73.764 7.48 73.916 7.388 74.084 7.324C74.26 7.252 74.456 7.216 74.672 7.216C75.008 7.216 75.324 7.3 75.62 7.468C75.916 7.628 76.156 7.884 76.34 8.236C76.524 8.58 76.616 9.036 76.616 9.604V13H74.912V9.616C74.912 9.36 74.888 9.148 74.84 8.98C74.792 8.804 74.716 8.672 74.612 8.584C74.508 8.496 74.376 8.452 74.216 8.452C74.088 8.452 73.964 8.48 73.844 8.536C73.724 8.584 73.616 8.656 73.52 8.752C73.432 8.848 73.36 8.964 73.304 9.1C73.256 9.236 73.232 9.388 73.232 9.556V13H71.516ZM91.016 13.528L89.408 12.856L93.056 4.984L94.616 5.776L91.016 13.528ZM111.476 11.548H108.416L108.62 10.372H111.236L111.476 11.548ZM110.012 8.428L108.8 13H107.12L109.496 5.524H110.516L112.892 13H111.188L110.012 8.428ZM115.64 13.144C115.312 13.144 115.004 13.084 114.716 12.964C114.436 12.836 114.188 12.648 113.972 12.4C113.764 12.152 113.6 11.844 113.48 11.476C113.36 11.1 113.3 10.664 113.3 10.168C113.3 9.696 113.352 9.276 113.456 8.908C113.568 8.54 113.724 8.232 113.924 7.984C114.132 7.728 114.38 7.536 114.668 7.408C114.956 7.28 115.276 7.216 115.628 7.216C115.772 7.216 115.916 7.228 116.06 7.252C116.212 7.276 116.352 7.32 116.48 7.384C116.608 7.448 116.716 7.548 116.804 7.684V4.9H118.508H118.616V5.032C118.576 5.08 118.548 5.132 118.532 5.188C118.516 5.244 118.512 5.34 118.52 5.476L118.496 12.328C118.496 12.44 118.504 12.552 118.52 12.664C118.536 12.776 118.572 12.888 118.628 13H116.972C116.932 12.92 116.904 12.864 116.888 12.832C116.872 12.8 116.864 12.764 116.864 12.724C116.864 12.684 116.864 12.628 116.864 12.556C116.768 12.7 116.656 12.816 116.528 12.904C116.4 12.992 116.26 13.052 116.108 13.084C115.956 13.124 115.8 13.144 115.64 13.144ZM115.94 11.824C116.076 11.824 116.196 11.796 116.3 11.74C116.412 11.684 116.504 11.596 116.576 11.476C116.656 11.348 116.716 11.176 116.756 10.96C116.796 10.744 116.816 10.48 116.816 10.168C116.816 9.752 116.784 9.424 116.72 9.184C116.656 8.936 116.556 8.76 116.42 8.656C116.292 8.552 116.128 8.5 115.928 8.5C115.776 8.5 115.636 8.54 115.508 8.62C115.388 8.7 115.288 8.816 115.208 8.968C115.128 9.112 115.064 9.292 115.016 9.508C114.976 9.716 114.956 9.952 114.956 10.216C114.956 10.56 115.008 10.852 115.112 11.092C115.216 11.332 115.344 11.516 115.496 11.644C115.648 11.764 115.796 11.824 115.94 11.824ZM121.268 13.144C120.66 13.144 120.184 13 119.84 12.712C119.496 12.416 119.324 12.028 119.324 11.548C119.324 11.244 119.388 10.964 119.516 10.708C119.644 10.444 119.844 10.216 120.116 10.024C120.388 9.824 120.736 9.668 121.16 9.556C121.584 9.444 122.092 9.388 122.684 9.388C122.708 9.388 122.752 9.388 122.816 9.388C122.88 9.388 122.952 9.388 123.032 9.388C123.112 9.388 123.18 9.388 123.236 9.388L123.284 10.516C123.236 10.516 123.168 10.516 123.08 10.516C122.992 10.516 122.9 10.52 122.804 10.528C122.716 10.528 122.648 10.528 122.6 10.528C122.256 10.528 121.98 10.552 121.772 10.6C121.564 10.64 121.404 10.7 121.292 10.78C121.188 10.852 121.116 10.936 121.076 11.032C121.036 11.12 121.016 11.208 121.016 11.296C121.016 11.392 121.032 11.476 121.064 11.548C121.096 11.62 121.14 11.676 121.196 11.716C121.252 11.756 121.32 11.788 121.4 11.812C121.48 11.828 121.564 11.836 121.652 11.836C121.844 11.836 122.008 11.804 122.144 11.74C122.28 11.676 122.392 11.572 122.48 11.428C122.576 11.276 122.644 11.084 122.684 10.852C122.732 10.62 122.756 10.336 122.756 10C122.756 9.592 122.716 9.28 122.636 9.064C122.564 8.848 122.456 8.704 122.312 8.632C122.176 8.552 122.008 8.512 121.808 8.512C121.56 8.512 121.332 8.548 121.124 8.62C120.916 8.684 120.696 8.836 120.464 9.076L119.504 8.092C119.864 7.764 120.248 7.536 120.656 7.408C121.072 7.28 121.476 7.216 121.868 7.216C122.212 7.216 122.536 7.256 122.84 7.336C123.152 7.408 123.428 7.532 123.668 7.708C123.916 7.884 124.108 8.128 124.244 8.44C124.388 8.744 124.46 9.128 124.46 9.592V13H122.744V12.556C122.64 12.652 122.536 12.74 122.432 12.82C122.336 12.892 122.228 12.952 122.108 13C121.996 13.048 121.872 13.084 121.736 13.108C121.6 13.132 121.444 13.144 121.268 13.144ZM125.48 15.004L125.468 7.336H127.124V7.924C127.268 7.756 127.416 7.62 127.568 7.516C127.728 7.412 127.896 7.336 128.072 7.288C128.248 7.24 128.432 7.216 128.624 7.216C128.928 7.216 129.208 7.284 129.464 7.42C129.728 7.548 129.956 7.74 130.148 7.996C130.348 8.252 130.504 8.568 130.616 8.944C130.728 9.312 130.784 9.74 130.784 10.228C130.784 10.724 130.724 11.156 130.604 11.524C130.492 11.892 130.332 12.196 130.124 12.436C129.924 12.676 129.692 12.856 129.428 12.976C129.164 13.088 128.888 13.144 128.6 13.144C128.416 13.144 128.232 13.128 128.048 13.096C127.872 13.064 127.708 13.016 127.556 12.952C127.404 12.88 127.28 12.792 127.184 12.688V15.004H125.48ZM128.072 11.896C128.24 11.896 128.388 11.864 128.516 11.8C128.644 11.736 128.752 11.636 128.84 11.5C128.936 11.364 129.008 11.18 129.056 10.948C129.104 10.716 129.128 10.432 129.128 10.096C129.128 9.768 129.084 9.484 128.996 9.244C128.916 9.004 128.8 8.82 128.648 8.692C128.496 8.564 128.316 8.5 128.108 8.5C127.94 8.5 127.796 8.536 127.676 8.608C127.556 8.672 127.46 8.776 127.388 8.92C127.316 9.056 127.264 9.232 127.232 9.448C127.2 9.664 127.184 9.92 127.184 10.216C127.184 10.448 127.192 10.656 127.208 10.84C127.232 11.016 127.264 11.172 127.304 11.308C127.352 11.436 127.408 11.544 127.472 11.632C127.544 11.72 127.628 11.788 127.724 11.836C127.828 11.876 127.944 11.896 128.072 11.896ZM134.588 13.144C134.292 13.144 134.02 13.096 133.772 13C133.524 12.912 133.312 12.76 133.136 12.544C132.96 12.32 132.828 12.016 132.74 11.632C132.652 11.248 132.62 10.76 132.644 10.168L132.812 6.088L134.54 5.86L134.648 5.848L134.66 5.98C134.628 6.036 134.596 6.092 134.564 6.148C134.532 6.204 134.512 6.3 134.504 6.436L134.36 8.284H134.432L134.336 10.084C134.312 10.54 134.328 10.896 134.384 11.152C134.448 11.4 134.536 11.572 134.648 11.668C134.768 11.764 134.892 11.812 135.02 11.812C135.268 11.812 135.492 11.76 135.692 11.656C135.9 11.552 136.08 11.436 136.232 11.308L136.52 12.496C136.248 12.696 135.952 12.856 135.632 12.976C135.32 13.088 134.972 13.144 134.588 13.144ZM131.612 7.348H136.148L136.124 8.668H131.588L131.612 7.348ZM137.888 13V11.68H139.232V8.668H137.948V7.348H140.936V11.68H142.16V13H137.888ZM140 6.58C139.72 6.58 139.48 6.488 139.28 6.304C139.088 6.112 138.992 5.888 138.992 5.632C138.992 5.352 139.084 5.124 139.268 4.948C139.46 4.772 139.704 4.684 140 4.684C140.264 4.684 140.496 4.78 140.696 4.972C140.904 5.156 141.008 5.376 141.008 5.632C141.008 5.888 140.904 6.112 140.696 6.304C140.496 6.488 140.264 6.58 140 6.58ZM145.304 13L143.264 7.348H145.052L146.24 11.02H146.036L146.648 9.472C146.768 9.12 146.868 8.764 146.948 8.404C147.028 8.044 147.068 7.692 147.068 7.348H148.64C148.616 7.716 148.54 8.096 148.412 8.488C148.284 8.872 148.148 9.252 148.004 9.628L146.648 13H145.304ZM152.24 13.144C151.84 13.144 151.464 13.08 151.112 12.952C150.768 12.816 150.464 12.624 150.2 12.376C149.944 12.128 149.744 11.824 149.6 11.464C149.456 11.096 149.384 10.684 149.384 10.228C149.384 9.764 149.452 9.348 149.588 8.98C149.732 8.604 149.924 8.288 150.164 8.032C150.412 7.768 150.7 7.568 151.028 7.432C151.356 7.288 151.712 7.216 152.096 7.216C152.424 7.216 152.736 7.276 153.032 7.396C153.336 7.516 153.604 7.696 153.836 7.936C154.068 8.168 154.252 8.46 154.388 8.812C154.524 9.156 154.592 9.552 154.592 10C154.592 10.096 154.592 10.216 154.592 10.36C154.592 10.504 154.588 10.62 154.58 10.708H151.016C151.032 10.908 151.08 11.08 151.16 11.224C151.24 11.36 151.34 11.476 151.46 11.572C151.588 11.66 151.724 11.728 151.868 11.776C152.02 11.816 152.172 11.836 152.324 11.836C152.484 11.836 152.636 11.824 152.78 11.8C152.924 11.776 153.064 11.732 153.2 11.668C153.336 11.596 153.468 11.496 153.596 11.368L154.436 12.184C154.244 12.408 154.032 12.592 153.8 12.736C153.568 12.88 153.32 12.984 153.056 13.048C152.792 13.112 152.52 13.144 152.24 13.144ZM151.028 9.46H152.984C152.984 9.3 152.964 9.164 152.924 9.052C152.884 8.932 152.824 8.836 152.744 8.764C152.664 8.684 152.564 8.628 152.444 8.596C152.324 8.556 152.188 8.536 152.036 8.536C151.9 8.536 151.772 8.556 151.652 8.596C151.54 8.628 151.44 8.684 151.352 8.764C151.264 8.836 151.192 8.932 151.136 9.052C151.08 9.164 151.044 9.3 151.028 9.46ZM161.48 13V5.524H164.132C164.724 5.524 165.216 5.628 165.608 5.836C166 6.036 166.292 6.308 166.484 6.652C166.676 6.988 166.772 7.36 166.772 7.768C166.772 8.072 166.716 8.36 166.604 8.632C166.5 8.896 166.34 9.128 166.124 9.328C165.916 9.528 165.648 9.688 165.32 9.808C165 9.92 164.624 9.976 164.192 9.976H163.208V13H161.48ZM163.208 8.596H164.096C164.28 8.596 164.44 8.56 164.576 8.488C164.72 8.416 164.832 8.316 164.912 8.188C164.992 8.06 165.032 7.916 165.032 7.756C165.032 7.588 164.992 7.444 164.912 7.324C164.832 7.204 164.724 7.112 164.588 7.048C164.452 6.984 164.292 6.952 164.108 6.952H163.208V8.596ZM167.828 7.348H169.568V8.896L169.376 8.848C169.4 8.608 169.46 8.392 169.556 8.2C169.66 8 169.792 7.828 169.952 7.684C170.112 7.532 170.288 7.416 170.48 7.336C170.68 7.256 170.884 7.216 171.092 7.216C171.42 7.216 171.712 7.268 171.968 7.372C172.224 7.476 172.464 7.644 172.688 7.876L171.992 9.328L171.956 9.424L171.836 9.376C171.804 9.312 171.78 9.244 171.764 9.172C171.748 9.092 171.696 9.004 171.608 8.908C171.504 8.82 171.384 8.748 171.248 8.692C171.12 8.628 170.976 8.596 170.816 8.596C170.632 8.596 170.46 8.624 170.3 8.68C170.148 8.736 170.016 8.824 169.904 8.944C169.792 9.064 169.704 9.216 169.64 9.4C169.576 9.584 169.544 9.804 169.544 10.06V13H167.828V7.348ZM175.988 13.144C175.484 13.144 175.024 13.024 174.608 12.784C174.192 12.536 173.86 12.188 173.612 11.74C173.364 11.292 173.24 10.772 173.24 10.18C173.24 9.628 173.364 9.128 173.612 8.68C173.86 8.232 174.192 7.876 174.608 7.612C175.024 7.348 175.484 7.216 175.988 7.216C176.492 7.216 176.952 7.348 177.368 7.612C177.792 7.876 178.128 8.232 178.376 8.68C178.632 9.128 178.76 9.628 178.76 10.18C178.76 10.764 178.632 11.28 178.376 11.728C178.128 12.176 177.792 12.524 177.368 12.772C176.952 13.02 176.492 13.144 175.988 13.144ZM175.988 11.812C176.204 11.812 176.392 11.744 176.552 11.608C176.72 11.472 176.852 11.284 176.948 11.044C177.044 10.796 177.092 10.508 177.092 10.18C177.092 9.828 177.044 9.532 176.948 9.292C176.852 9.052 176.72 8.868 176.552 8.74C176.392 8.612 176.204 8.548 175.988 8.548C175.788 8.548 175.604 8.612 175.436 8.74C175.276 8.868 175.148 9.052 175.052 9.292C174.956 9.532 174.908 9.828 174.908 10.18C174.908 10.508 174.952 10.796 175.04 11.044C175.136 11.284 175.264 11.472 175.424 11.608C175.592 11.744 175.78 11.812 175.988 11.812ZM181.268 15.124C180.868 15.124 180.508 15.044 180.188 14.884C179.876 14.732 179.584 14.508 179.312 14.212L180.224 13.012L180.296 12.928L180.404 13C180.42 13.064 180.432 13.128 180.44 13.192C180.456 13.264 180.504 13.352 180.584 13.456C180.672 13.544 180.768 13.612 180.872 13.66C180.984 13.716 181.116 13.744 181.268 13.744C181.452 13.744 181.592 13.708 181.688 13.636C181.792 13.564 181.86 13.452 181.892 13.3C181.932 13.156 181.952 12.98 181.952 12.772V8.668H180.068V7.348H183.668V12.604C183.668 13.204 183.552 13.688 183.32 14.056C183.088 14.432 182.788 14.704 182.42 14.872C182.06 15.04 181.676 15.124 181.268 15.124ZM182.696 6.58C182.416 6.58 182.176 6.488 181.976 6.304C181.784 6.112 181.688 5.888 181.688 5.632C181.688 5.352 181.78 5.124 181.964 4.948C182.156 4.772 182.4 4.684 182.696 4.684C182.96 4.684 183.192 4.78 183.392 4.972C183.6 5.156 183.704 5.376 183.704 5.632C183.704 5.888 183.6 6.112 183.392 6.304C183.192 6.488 182.96 6.58 182.696 6.58ZM188.24 13.144C187.84 13.144 187.464 13.08 187.112 12.952C186.768 12.816 186.464 12.624 186.2 12.376C185.944 12.128 185.744 11.824 185.6 11.464C185.456 11.096 185.384 10.684 185.384 10.228C185.384 9.764 185.452 9.348 185.588 8.98C185.732 8.604 185.924 8.288 186.164 8.032C186.412 7.768 186.7 7.568 187.028 7.432C187.356 7.288 187.712 7.216 188.096 7.216C188.424 7.216 188.736 7.276 189.032 7.396C189.336 7.516 189.604 7.696 189.836 7.936C190.068 8.168 190.252 8.46 190.388 8.812C190.524 9.156 190.592 9.552 190.592 10C190.592 10.096 190.592 10.216 190.592 10.36C190.592 10.504 190.588 10.62 190.58 10.708H187.016C187.032 10.908 187.08 11.08 187.16 11.224C187.24 11.36 187.34 11.476 187.46 11.572C187.588 11.66 187.724 11.728 187.868 11.776C188.02 11.816 188.172 11.836 188.324 11.836C188.484 11.836 188.636 11.824 188.78 11.8C188.924 11.776 189.064 11.732 189.2 11.668C189.336 11.596 189.468 11.496 189.596 11.368L190.436 12.184C190.244 12.408 190.032 12.592 189.8 12.736C189.568 12.88 189.32 12.984 189.056 13.048C188.792 13.112 188.52 13.144 188.24 13.144ZM187.028 9.46H188.984C188.984 9.3 188.964 9.164 188.924 9.052C188.884 8.932 188.824 8.836 188.744 8.764C188.664 8.684 188.564 8.628 188.444 8.596C188.324 8.556 188.188 8.536 188.036 8.536C187.9 8.536 187.772 8.556 187.652 8.596C187.54 8.628 187.44 8.684 187.352 8.764C187.264 8.836 187.192 8.932 187.136 9.052C187.08 9.164 187.044 9.3 187.028 9.46ZM194.288 13.144C193.872 13.144 193.484 13.076 193.124 12.94C192.764 12.796 192.448 12.596 192.176 12.34C191.912 12.076 191.704 11.768 191.552 11.416C191.408 11.064 191.336 10.676 191.336 10.252C191.336 9.836 191.408 9.444 191.552 9.076C191.704 8.708 191.912 8.388 192.176 8.116C192.448 7.836 192.764 7.616 193.124 7.456C193.484 7.296 193.876 7.216 194.3 7.216C194.86 7.216 195.34 7.316 195.74 7.516C196.14 7.708 196.456 7.98 196.688 8.332L195.788 9.352L195.716 9.436L195.608 9.352C195.6 9.288 195.592 9.22 195.584 9.148C195.576 9.076 195.532 8.988 195.452 8.884C195.316 8.748 195.16 8.656 194.984 8.608C194.808 8.56 194.608 8.536 194.384 8.536C194.208 8.536 194.04 8.576 193.88 8.656C193.72 8.728 193.576 8.836 193.448 8.98C193.32 9.124 193.22 9.304 193.148 9.52C193.076 9.736 193.04 9.988 193.04 10.276C193.04 10.524 193.076 10.748 193.148 10.948C193.228 11.14 193.328 11.3 193.448 11.428C193.576 11.556 193.716 11.656 193.868 11.728C194.028 11.792 194.188 11.824 194.348 11.824C194.508 11.824 194.664 11.804 194.816 11.764C194.976 11.724 195.132 11.656 195.284 11.56C195.444 11.456 195.596 11.312 195.74 11.128L196.652 12.172C196.34 12.524 195.968 12.776 195.536 12.928C195.104 13.072 194.688 13.144 194.288 13.144ZM200.588 13.144C200.292 13.144 200.02 13.096 199.772 13C199.524 12.912 199.312 12.76 199.136 12.544C198.96 12.32 198.828 12.016 198.74 11.632C198.652 11.248 198.62 10.76 198.644 10.168L198.812 6.088L200.54 5.86L200.648 5.848L200.66 5.98C200.628 6.036 200.596 6.092 200.564 6.148C200.532 6.204 200.512 6.3 200.504 6.436L200.36 8.284H200.432L200.336 10.084C200.312 10.54 200.328 10.896 200.384 11.152C200.448 11.4 200.536 11.572 200.648 11.668C200.768 11.764 200.892 11.812 201.02 11.812C201.268 11.812 201.492 11.76 201.692 11.656C201.9 11.552 202.08 11.436 202.232 11.308L202.52 12.496C202.248 12.696 201.952 12.856 201.632 12.976C201.32 13.088 200.972 13.144 200.588 13.144ZM197.612 7.348H202.148L202.124 8.668H197.588L197.612 7.348Z" fill="white"/>
</svg>
