<svg width="293" height="369" viewBox="0 0 293 369" fill="none" xmlns="http://www.w3.org/2000/svg">
<path d="M99.4095 364.243V358.871H116.497V364.243C116.09 364.658 113.812 368.001 107.953 368.001C102.095 368.001 99.8163 364.658 99.4095 364.243Z" fill="white" stroke="black"/>
<path d="M107.953 354.931C105.659 354.931 103.607 355.425 102.146 356.198C100.663 356.983 99.9097 357.982 99.9097 358.955C99.9099 359.927 100.663 360.925 102.146 361.71C103.607 362.484 105.659 362.977 107.953 362.977C110.247 362.977 112.3 362.484 113.76 361.71C115.243 360.925 115.996 359.927 115.997 358.955C115.997 357.982 115.243 356.983 113.76 356.198C112.3 355.425 110.247 354.931 107.953 354.931Z" fill="white" stroke="black"/>
<path d="M171.872 322.401V317.029H188.959V322.401C188.552 322.816 186.274 326.158 180.415 326.158C174.557 326.158 172.279 322.816 171.872 322.401Z" fill="white" stroke="black"/>
<path d="M180.415 313.088C178.121 313.088 176.069 313.582 174.608 314.355C173.125 315.14 172.372 316.139 172.372 317.112C172.372 318.084 173.126 319.082 174.608 319.867C176.069 320.641 178.121 321.134 180.415 321.134C182.709 321.134 184.762 320.641 186.223 319.867C187.705 319.082 188.459 318.084 188.459 317.112C188.459 316.139 187.706 315.14 186.223 314.355C184.762 313.581 182.709 313.088 180.415 313.088Z" fill="white" stroke="black"/>
<path d="M16.5051 315.756V310.383H33.5922V315.756C33.1854 316.171 30.9071 319.513 25.0486 319.513C19.1902 319.513 16.9119 316.171 16.5051 315.756Z" fill="white" stroke="black"/>
<path d="M25.0483 306.444C22.7542 306.444 20.7022 306.937 19.2416 307.71C17.7587 308.495 17.0053 309.494 17.0053 310.467C17.0055 311.439 17.7588 312.438 19.2416 313.223C20.7022 313.996 22.7542 314.489 25.0483 314.49C27.3426 314.49 29.3953 313.996 30.8559 313.223C32.3387 312.438 33.092 311.439 33.0922 310.467C33.0922 309.494 32.3389 308.495 30.8559 307.71C29.3953 306.937 27.3426 306.444 25.0483 306.444Z" fill="white" stroke="black"/>
<rect width="124.229" height="10.4422" transform="matrix(0.866025 0.5 0 1 1.02167 293.783)" fill="white" stroke="black"/>
<path d="M204.78 300.562L108.586 356.1V366.446L204.78 310.908V300.562Z" fill="white" stroke="black"/>
<rect width="111.137" height="124.148" transform="matrix(0.866025 -0.5 0.866025 0.5 1.00006 293.794)" fill="white" stroke="black"/>
<path d="M111.276 243.606L108.586 245.03L119.661 251.36L121.876 249.935L111.276 243.606Z" fill="#D9D9D9" stroke="black"/>
<path d="M121.876 249.935V252.625L119.661 251.359L121.876 249.935L111.276 243.606L109.377 241.075L119.977 247.087L121.876 249.935Z" fill="#D9D9D9"/>
<path d="M121.876 249.935V252.625L119.661 251.359L121.876 249.935ZM121.876 249.935L119.977 247.087L109.377 241.075L111.276 243.606L121.876 249.935Z" stroke="black"/>
<path d="M122.825 248.827C121.929 248.247 120.104 247.086 119.977 247.086L121.876 249.934L122.825 248.827Z" fill="#D9D9D9" stroke="black"/>
<path d="M186.586 286.957L183.896 288.381L194.971 294.71L197.186 293.285L186.586 286.957Z" fill="#D9D9D9" stroke="black"/>
<path d="M197.186 293.286V295.975L194.971 294.709L197.186 293.286L186.586 286.957L184.687 284.426L195.288 290.438L197.186 293.286Z" fill="#D9D9D9"/>
<path d="M197.186 293.286V295.975L194.971 294.709L197.186 293.286ZM197.186 293.286L195.288 290.438L184.687 284.426L186.586 286.957L197.186 293.286Z" stroke="black"/>
<path d="M198.135 292.178C197.239 291.598 195.414 290.438 195.288 290.438L197.186 293.285L198.135 292.178Z" fill="#D9D9D9" stroke="black"/>
<rect width="43.0765" height="7.34601" transform="matrix(0.866025 -0.5 0.866025 0.5 109.535 345.324)" fill="#D9D9D9" stroke="black"/>
<rect width="38.0816" height="0.730761" transform="matrix(0.866025 -0.5 0.866025 0.5 114.598 345.17)" fill="#D9D9D9" stroke="black"/>
<path d="M120.611 337.422L127.039 341.133L127.038 342.33L120.61 338.619L120.611 337.422Z" fill="#D9D9D9" stroke="black"/>
<path d="M132.783 337.828L127.036 341.146L127.038 342.33C129.282 341.034 130.54 340.308 132.785 339.012L132.783 337.828Z" fill="#D9D9D9" stroke="black"/>
<rect width="6.63974" height="7.41709" transform="matrix(0.866025 -0.5 0.866025 0.5 120.61 337.423)" fill="#D9D9D9" stroke="black"/>
<rect width="9.06908" height="7.39794" transform="matrix(0.866025 -0.5 0.866025 0.5 7.32861 293.285)" fill="#D9D9D9" stroke="black"/>
<rect width="2.18922" height="7.67605" transform="matrix(0.866025 -0.5 0.866025 0.5 103.839 348.448)" fill="#D9D9D9" stroke="black"/>
<rect width="2.18922" height="7.67605" transform="matrix(0.866025 -0.5 0.866025 0.5 106.054 347.223)" fill="#D9D9D9" stroke="black"/>
<rect width="0.56773" height="1.62455" transform="matrix(0.866025 -0.5 0.866025 0.5 16.5051 290.721)" fill="#D9D9D9" stroke="black"/>
<path d="M98.3024 245.054C100.112 245.055 101.725 245.465 102.869 246.103C104.029 246.751 104.605 247.566 104.605 248.351C104.605 249.137 104.029 249.953 102.869 250.6C101.725 251.239 100.112 251.649 98.3024 251.649C96.4928 251.649 94.8786 251.239 93.735 250.6C92.575 249.953 91.9987 249.137 91.9987 248.351C91.9989 247.566 92.5751 246.751 93.735 246.103C94.8786 245.465 96.4928 245.054 98.3024 245.054Z" fill="#D9D9D9" stroke="black"/>
<path d="M87.8596 258.978C103.559 258.978 117.748 262.682 127.995 268.642C138.254 274.61 144.475 282.781 144.475 291.703C144.475 300.625 138.254 308.796 127.995 314.764C117.748 320.725 103.559 324.428 87.8596 324.428C72.1601 324.428 57.9716 320.725 47.7248 314.764C37.4655 308.796 31.2443 300.625 31.2443 291.703C31.2445 282.781 37.4656 274.61 47.7248 268.642C57.9716 262.682 72.16 258.978 87.8596 258.978Z" fill="white" stroke="black"/>
<path d="M87.86 258.978C101.899 258.978 114.585 262.291 123.744 267.622C132.915 272.96 138.463 280.261 138.464 288.222C138.464 296.184 132.915 303.485 123.744 308.823C114.585 314.154 101.899 317.467 87.86 317.467C73.8208 317.467 61.135 314.154 51.9762 308.823C42.8049 303.485 37.2565 296.184 37.2565 288.222C37.2566 280.261 42.805 272.96 51.9762 267.622C61.135 262.291 73.8209 258.978 87.86 258.978Z" fill="black" stroke="black"/>
<path d="M87.8603 277.015C93.5135 277.015 98.6069 278.31 102.269 280.379C105.947 282.457 108.086 285.25 108.086 288.223C108.086 291.196 105.947 293.988 102.269 296.066C98.6069 298.135 93.5135 299.431 87.8603 299.431C82.2069 299.431 77.1128 298.135 73.4501 296.066C69.7724 293.988 67.6338 291.196 67.6337 288.223C67.6337 285.25 69.7722 282.457 73.4501 280.379C77.1128 278.31 82.2069 277.015 87.8603 277.015Z" fill="#808080" stroke="black"/>
<path d="M152.57 306.123V295.975H184.845V306.123C184.077 306.907 179.773 313.22 168.707 313.22C157.641 313.22 153.338 306.907 152.57 306.123Z" fill="white" stroke="black"/>
<path d="M168.708 288.09C164.316 288.09 160.365 289.033 157.53 290.534C154.673 292.047 153.07 294.051 153.07 296.134C153.07 298.216 154.673 300.22 157.53 301.732C160.365 303.233 164.316 304.177 168.708 304.177C173.099 304.177 177.049 303.233 179.884 301.732C182.741 300.22 184.345 298.216 184.345 296.134C184.345 294.051 182.742 292.047 179.884 290.534C177.049 289.033 173.099 288.09 168.708 288.09Z" fill="white" stroke="black"/>
<path d="M178.833 291.387C179.308 291.071 179.414 288.224 178.675 286.009C178.517 285.535 178.042 284.05 176.302 282.845C175.352 282.188 174.72 282.369 174.245 282.685C174.061 282.808 173.137 283.161 173.137 286.484C173.137 289.806 175.985 291.705 176.776 291.863C177.567 292.021 178.358 291.704 178.833 291.387Z" fill="white" stroke="black"/>
<path d="M186.111 288.064C185.731 288.571 181.048 290.596 178.833 291.387C178.991 291.071 179.308 290.311 179.308 289.805C179.308 289.172 179.308 287.748 178.675 285.849C178.042 283.951 176.618 282.843 175.827 282.527C175.443 282.373 175.039 282.406 174.722 282.491C174.551 282.561 174.39 282.626 174.245 282.685C174.348 282.623 174.517 282.546 174.722 282.491C176.228 281.88 178.561 280.945 178.675 280.945C178.802 280.945 183.685 283.898 186.111 285.375C186.269 286.06 186.491 287.558 186.111 288.064Z" fill="white"/>
<path d="M186.111 288.064C185.731 288.571 181.048 290.596 178.833 291.387C178.991 291.071 179.308 290.311 179.308 289.805C179.308 289.172 179.308 287.748 178.675 285.849C178.042 283.951 176.618 282.843 175.827 282.527C175.194 282.274 174.509 282.527 174.245 282.685C175.669 282.105 178.548 280.945 178.675 280.945C178.802 280.945 183.685 283.898 186.111 285.375C186.269 286.06 186.491 287.558 186.111 288.064Z" stroke="black"/>
<path d="M159.531 295.95V289.805H177.884V295.95C177.447 296.424 175 300.247 168.707 300.247C162.415 300.247 159.968 296.424 159.531 295.95Z" fill="white" stroke="black"/>
<path d="M168.707 285.875C166.244 285.875 164.038 286.444 162.466 287.338C160.879 288.241 160.031 289.412 160.031 290.595C160.031 291.779 160.879 292.95 162.466 293.853C164.038 294.748 166.244 295.317 168.707 295.317C171.171 295.317 173.377 294.748 174.949 293.853C176.536 292.95 177.384 291.779 177.384 290.595C177.384 289.412 176.536 288.241 174.949 287.338C173.377 286.444 171.171 285.875 168.707 285.875Z" fill="white" stroke="black"/>
<path d="M160.006 292.336V289.014L172.663 283.635L177.884 287.748V290.596L165.227 296.608L160.006 292.336Z" fill="white"/>
<path d="M160.006 289.014C160.006 289.394 160.006 291.387 160.006 292.336L165.227 296.608M160.006 289.014L165.227 293.127M160.006 289.014L172.663 283.635L177.884 287.748M165.227 296.608V293.127M165.227 296.608L177.884 290.596V287.748M165.227 293.127L177.884 287.748" stroke="black"/>
<path d="M165.859 289.191V286.957H172.188V289.191C172.037 289.364 171.194 290.754 169.024 290.754C166.854 290.754 166.01 289.364 165.859 289.191Z" fill="white" stroke="black"/>
<path d="M169.024 285.875C168.218 285.875 167.513 286.056 167.027 286.323C166.524 286.6 166.36 286.901 166.36 287.115C166.36 287.329 166.523 287.631 167.027 287.908C167.513 288.175 168.218 288.355 169.024 288.355C169.83 288.355 170.535 288.175 171.02 287.908C171.524 287.631 171.688 287.329 171.688 287.115C171.688 286.901 171.524 286.6 171.02 286.323C170.534 286.056 169.83 285.875 169.024 285.875Z" fill="white" stroke="black"/>
<path d="M85.0119 309.423C85.0119 308.664 85.4338 308.052 85.6448 307.841C92.5007 308.052 108.206 308.189 116.18 307.05C126.148 305.626 135.324 302.462 137.856 301.513C140.387 300.563 153.044 295.184 154.784 294.393C156.177 293.76 159.584 292.231 161.113 291.545C161.429 291.492 162.189 291.545 162.695 292.178C163.201 292.811 163.223 293.813 163.17 294.235C155.47 297.663 139.248 304.772 135.957 305.784C131.843 307.05 114.44 311.005 107.953 311.48C102.764 311.86 90.9186 311.638 85.6448 311.48C85.4338 311.111 85.0119 310.183 85.0119 309.423Z" fill="white" stroke="black"/>
<path d="M71.2472 305.626H77.4176L77.5758 304.519L85.803 304.835L85.3283 309.107V310.372L85.803 311.48V313.22H85.1701V314.011H84.5373V313.22H84.0626V310.267L83.4298 310.214V311.955L76.943 311.48H72.9876L70.4562 308.632L71.2472 305.626Z" fill="white"/>
<path d="M77.4176 305.626H71.2472L70.4562 308.632M77.4176 305.626L76.943 308.632M77.4176 305.626L77.5758 304.519L85.803 304.835L85.3283 309.107M76.943 308.632H70.4562M76.943 308.632V311.48M76.943 308.632L85.3283 309.107M70.4562 308.632L72.9876 311.48H76.943M76.943 311.48L83.4298 311.955V310.214L84.0626 310.267M85.3283 309.107V310.372M85.3283 310.372L84.0626 310.267M85.3283 310.372L85.803 311.48V313.22H85.1701V314.011H84.5373V313.22H84.0626V310.267" stroke="black"/>
<path d="M87.0688 288.222V284.425H89.2838V288.222C89.2311 288.433 88.9357 288.855 88.1763 288.855C87.4169 288.855 87.1215 288.433 87.0688 288.222Z" fill="white" stroke="black"/>
<mask id="path-46-inside-1_2057_1079" fill="white">
<ellipse cx="1.1075" cy="0.632858" rx="1.1075" ry="0.632858" transform="matrix(-1 0 0 1 89.2838 283.792)"/>
</mask>
<ellipse cx="1.1075" cy="0.632858" rx="1.1075" ry="0.632858" transform="matrix(-1 0 0 1 89.2838 283.792)" fill="white"/>
<path d="M87.0688 284.425H88.0688C88.0688 284.264 88.0091 284.144 87.9596 284.077C87.9146 284.016 87.8791 283.999 87.8893 284.005C87.9129 284.018 88.0123 284.058 88.1763 284.058V285.058V286.058C87.7287 286.058 87.2743 285.957 86.8971 285.741C86.5481 285.542 86.0688 285.114 86.0688 284.425H87.0688ZM88.1763 285.058V284.058C88.3404 284.058 88.4397 284.018 88.4633 284.005C88.4735 283.999 88.438 284.016 88.393 284.077C88.3435 284.144 88.2838 284.264 88.2838 284.425H89.2838H90.2838C90.2838 285.114 89.8045 285.542 89.4556 285.741C89.0783 285.957 88.6239 286.058 88.1763 286.058V285.058ZM89.2838 284.425H88.2838C88.2838 284.586 88.3435 284.707 88.393 284.774C88.438 284.835 88.4735 284.852 88.4633 284.846C88.4397 284.833 88.3404 284.792 88.1763 284.792V283.792V282.792C88.6239 282.792 89.0783 282.894 89.4556 283.11C89.8045 283.309 90.2838 283.737 90.2838 284.425H89.2838ZM88.1763 283.792V284.792C88.0123 284.792 87.9129 284.833 87.8893 284.846C87.8791 284.852 87.9146 284.835 87.9596 284.774C88.0091 284.707 88.0688 284.586 88.0688 284.425H87.0688H86.0688C86.0688 283.737 86.5481 283.309 86.8971 283.11C87.2743 282.894 87.7287 282.792 88.1763 282.792V283.792Z" fill="black" mask="url(#path-46-inside-1_2057_1079)"/>
<rect width="125.519" height="21.0923" transform="matrix(0.866025 0.5 -0.577145 0.816642 110.001 217.026)" fill="white" stroke="black"/>
<path d="M168.391 214.811L59.6976 152L110.01 217.026L218.703 279.837L168.391 214.811Z" fill="white" stroke="black"/>
<path d="M218.703 279.837L168.391 214.811L156.208 232.056L206.521 297.082L218.703 279.837Z" fill="white" stroke="black"/>
<path d="M110.01 217.184L59.6977 152.158L47.5151 169.404L97.8273 234.43L110.01 217.184Z" fill="white" stroke="black"/>
<rect width="125.519" height="21.0923" transform="matrix(0.866025 0.5 -0.577145 0.816642 59.6885 152.052)" fill="white" stroke="black"/>
<path d="M161.508 149C167.108 146.2 170.174 148.5 171.008 150C171.341 151.167 171.808 153.9 171.008 155.5C170.008 157.5 167.008 159.5 162.508 161C158.008 162.5 155.008 158.5 155.008 157.5C155.008 156.5 154.508 152.5 161.508 149Z" fill="black"/>
<path d="M171.008 150C170.174 148.5 167.108 146.2 161.508 149C154.508 152.5 155.008 156.5 155.008 157.5C155.008 158.5 158.008 162.5 162.508 161C167.008 159.5 170.008 157.5 171.008 155.5C171.808 153.9 171.341 151.167 171.008 150ZM171.008 150V111C171.508 113.333 173.108 118.6 175.508 121C178.508 124 183.508 129 183.508 133C183.508 136.2 181.841 141 181.008 143" stroke="black"/>
<path d="M270.508 38.9999C276.108 36.1999 279.174 38.4999 280.008 39.9999C280.341 41.1666 280.808 43.9 280.008 45.5C279.008 47.5 276.008 49.5 271.508 51C267.008 52.5 264.008 48.5 264.008 47.5C264.008 46.5 263.508 42.4999 270.508 38.9999Z" fill="black"/>
<path d="M280.008 39.9999C279.174 38.4999 276.108 36.1999 270.508 38.9999C263.508 42.4999 264.008 46.5 264.008 47.5C264.008 48.5 267.008 52.5 271.508 51C276.008 49.5 279.008 47.5 280.008 45.5C280.808 43.9 280.341 41.1666 280.008 39.9999ZM280.008 39.9999V1C280.508 3.33333 282.108 8.6 284.508 11C287.508 14 292.508 19 292.508 23C292.508 26.2 290.841 31 290.008 33" stroke="black"/>
<path d="M228.645 79C231.845 77.4 232.645 75 232.645 74V71.5C231.311 70.6667 227.745 69.6 224.145 72C219.645 75 221.145 78 221.645 78.5C222.145 79 224.645 81 228.645 79Z" fill="black"/>
<path d="M232.645 44V71.5M232.645 71.5V74C232.645 75 231.845 77.4 228.645 79C224.645 81 222.145 79 221.645 78.5C221.145 78 219.645 75 224.145 72C227.745 69.6 231.311 70.6667 232.645 71.5Z" stroke="black"/>
<path d="M215.742 130C218.542 130 219.909 131 220.242 131.5V105.5L247.242 103V127V128C247.575 128.833 247.242 131.1 243.242 133.5C238.242 136.5 234.742 134.5 234.242 133.5C233.742 132.5 233.242 129.5 235.742 127.5C238.242 125.5 241.742 124 244.242 125C246.242 125.8 247.075 126.667 247.242 127V103L220.242 105.5V131.5C220.409 132.167 220.642 133.7 220.242 134.5L220.242 134.5C219.742 135.501 218.242 138.5 215.242 139.5C212.242 140.5 209.242 140.5 207.742 139C206.242 137.5 207.242 134.5 208.742 133C210.242 131.5 212.242 130 215.742 130Z" fill="black"/>
<path d="M220.242 131.5C219.909 131 218.542 130 215.742 130C212.242 130 210.242 131.5 208.742 133C207.242 134.5 206.242 137.5 207.742 139C209.242 140.5 212.242 140.5 215.242 139.5C218.242 138.5 219.742 135.5 220.242 134.5C220.642 133.7 220.409 132.167 220.242 131.5ZM220.242 131.5V105.5L247.242 103V127M247.242 127V128C247.575 128.833 247.242 131.1 243.242 133.5C238.242 136.5 234.742 134.5 234.242 133.5C233.742 132.5 233.242 129.5 235.742 127.5C238.242 125.5 241.742 124 244.242 125C246.242 125.8 247.075 126.667 247.242 127Z" stroke="black"/>
</svg>
