<svg width="526" height="522" viewBox="0 0 526 522" fill="none" xmlns="http://www.w3.org/2000/svg">
<path d="M237.911 511.956V499.021H279.047V511.956C278.067 512.954 272.583 521.001 258.479 521.001C244.375 521.001 238.891 512.954 237.911 511.956Z" fill="white" stroke="black"/>
<path d="M258.479 488.833C252.865 488.833 247.806 490.039 244.169 491.964C240.51 493.901 238.411 496.491 238.411 499.222C238.411 501.952 240.51 504.542 244.169 506.479C247.806 508.405 252.865 509.61 258.479 509.61C264.094 509.61 269.153 508.405 272.789 506.479C276.448 504.542 278.547 501.952 278.547 499.222C278.547 496.491 276.448 493.901 272.789 491.964C269.153 490.039 264.094 488.833 258.479 488.833Z" fill="white" stroke="black"/>
<path d="M412.357 411.225V398.291H453.493V411.225C452.513 412.223 447.028 420.27 432.925 420.27C418.821 420.27 413.336 412.223 412.357 411.225Z" fill="white" stroke="black"/>
<path d="M432.925 388.101C427.311 388.101 422.251 389.306 418.615 391.231C414.956 393.168 412.857 395.759 412.857 398.489C412.857 401.22 414.956 403.81 418.615 405.747C422.251 407.672 427.311 408.878 432.925 408.878C438.54 408.878 443.598 407.672 447.235 405.747C450.894 403.81 452.993 401.22 452.993 398.489C452.993 395.759 450.894 393.168 447.235 391.231C443.598 389.306 438.54 388.101 432.925 388.101Z" fill="white" stroke="black"/>
<path d="M38.3267 395.227V382.293H79.4623V395.227C78.4829 396.226 72.9982 404.272 58.8945 404.272C44.7908 404.272 39.3061 396.226 38.3267 395.227Z" fill="white" stroke="black"/>
<path d="M58.895 372.104C53.2803 372.104 48.221 373.31 44.5845 375.235C40.9257 377.172 38.8268 379.763 38.8267 382.493C38.8267 385.223 40.9257 387.814 44.5845 389.751C48.221 391.676 53.2803 392.882 58.895 392.882C64.5096 392.882 69.5681 391.676 73.2046 389.751C76.8634 387.814 78.9624 385.224 78.9624 382.493C78.9623 379.763 76.8634 377.172 73.2046 375.235C69.5681 373.31 64.5096 372.105 58.895 372.104Z" fill="white" stroke="black"/>
<rect width="299.07" height="25.1385" transform="matrix(0.866025 0.5 0 1 1.05225 342.328)" fill="#D9D9D9" stroke="black"/>
<path d="M491.581 358.648L260.003 492.35V517.257L491.581 383.555V358.648Z" fill="#D9D9D9" stroke="black"/>
<rect width="267.551" height="298.875" transform="matrix(0.866025 -0.5 0.866025 0.5 1 342.356)" fill="#D9D9D9" stroke="black"/>
<path d="M266.478 221.534L260.002 224.962L286.664 240.199L291.997 236.769L266.478 221.534Z" fill="#D9D9D9" stroke="black"/>
<path d="M291.997 236.769V243.244L286.664 240.197L291.997 236.769L266.477 221.534L261.907 215.439L287.426 229.913L291.997 236.769Z" fill="#D9D9D9"/>
<path d="M291.997 236.769V243.244L286.664 240.197L291.997 236.769ZM291.997 236.769L287.426 229.913L261.907 215.439L266.477 221.534L291.997 236.769Z" stroke="black"/>
<path d="M294.282 234.101C292.124 232.704 287.731 229.911 287.426 229.911L291.997 236.767L294.282 234.101Z" fill="#D9D9D9" stroke="black"/>
<path d="M447.78 325.896L441.305 329.323L467.967 344.56L473.299 341.131L447.78 325.896Z" fill="#D9D9D9" stroke="black"/>
<path d="M473.299 341.131V347.606L467.967 344.559L473.299 341.131L447.78 325.895L443.209 319.801L468.728 334.275L473.299 341.131Z" fill="#D9D9D9"/>
<path d="M473.299 341.131V347.606L467.967 344.559L473.299 341.131ZM473.299 341.131L468.728 334.275L443.209 319.801L447.78 325.895L473.299 341.131Z" stroke="black"/>
<path d="M475.584 338.464C473.426 337.068 469.033 334.274 468.729 334.274L473.299 341.13L475.584 338.464Z" fill="#D9D9D9" stroke="black"/>
<rect width="103.703" height="17.6848" transform="matrix(0.866025 -0.5 0.866025 0.5 262.288 466.409)" fill="#D9D9D9" stroke="black"/>
<rect width="91.6777" height="1.75924" transform="matrix(0.866025 -0.5 0.866025 0.5 274.476 466.039)" fill="#D9D9D9" stroke="black"/>
<path d="M288.953 447.386L304.426 456.32L304.424 459.201L288.95 450.267L288.953 447.386Z" fill="#D9D9D9" stroke="black"/>
<path d="M318.255 448.363L304.419 456.351L304.423 459.201C309.826 456.082 312.856 454.333 318.259 451.213L318.255 448.363Z" fill="#D9D9D9" stroke="black"/>
<rect width="15.9845" height="17.8559" transform="matrix(0.866025 -0.5 0.866025 0.5 288.95 447.388)" fill="#D9D9D9" stroke="black"/>
<rect width="21.8329" height="17.8098" transform="matrix(0.866025 -0.5 0.866025 0.5 16.2354 341.129)" fill="#D9D9D9" stroke="black"/>
<rect width="5.27035" height="18.4793" transform="matrix(0.866025 -0.5 0.866025 0.5 248.576 473.929)" fill="#D9D9D9" stroke="black"/>
<rect width="5.27035" height="18.4793" transform="matrix(0.866025 -0.5 0.866025 0.5 253.908 470.981)" fill="#D9D9D9" stroke="black"/>
<rect width="1.36676" height="3.91095" transform="matrix(0.866025 -0.5 0.866025 0.5 38.3267 334.957)" fill="#D9D9D9" stroke="black"/>
<path d="M235.245 224.316C239.698 224.316 243.706 225.325 246.583 226.93C249.475 228.545 251.123 230.696 251.123 232.958C251.122 235.219 249.475 237.37 246.583 238.985C243.706 240.59 239.698 241.598 235.245 241.598C230.791 241.598 226.784 240.59 223.908 238.985C221.015 237.37 219.367 235.219 219.367 232.958C219.367 230.696 221.015 228.545 223.908 226.93C226.784 225.325 230.791 224.316 235.245 224.316Z" fill="#D9D9D9" stroke="black"/>
<path d="M210.106 257.836C248.004 257.836 282.289 266.773 307.082 281.195C331.888 295.625 347.106 315.487 347.106 337.322C347.106 359.157 331.888 379.018 307.082 393.448C282.289 407.871 248.004 416.808 210.106 416.808C172.209 416.808 137.924 407.871 113.131 393.448C88.3249 379.018 73.1066 359.157 73.1064 337.322C73.1064 315.487 88.3248 295.625 113.131 281.195C137.924 266.773 172.209 257.836 210.106 257.836Z" fill="white" stroke="black"/>
<path d="M210.106 257.836C244.007 257.836 274.673 265.835 296.848 278.741C319.034 291.655 332.633 309.421 332.633 328.942C332.633 348.464 319.034 366.23 296.848 379.144C274.673 392.05 244.007 400.049 210.106 400.049C176.206 400.049 145.54 392.05 123.365 379.144C101.178 366.23 87.5801 348.464 87.5801 328.942C87.5801 309.421 101.179 291.655 123.365 278.741C145.54 265.835 176.206 257.836 210.106 257.836Z" fill="black" stroke="black"/>
<path d="M210.107 301.258C223.815 301.258 236.201 304.398 245.142 309.448C254.099 314.508 259.502 321.42 259.502 328.943C259.502 336.467 254.099 343.379 245.142 348.438C236.201 353.489 223.815 356.629 210.107 356.629C196.399 356.629 184.012 353.489 175.071 348.438C166.114 343.379 160.71 336.467 160.71 328.943C160.71 321.42 166.114 314.508 175.071 309.448C184.012 304.397 196.399 301.258 210.107 301.258Z" fill="#808080" stroke="black"/>
<path d="M365.889 372.038V347.606H443.589V372.038C441.739 373.924 431.379 389.123 404.739 389.123C378.099 389.123 367.739 373.924 365.889 372.038Z" fill="white" stroke="black"/>
<path d="M404.739 327.92C394.076 327.92 384.446 330.209 377.501 333.886C370.534 337.574 366.388 342.584 366.388 347.987C366.388 353.39 370.534 358.401 377.501 362.09C384.446 365.767 394.076 368.056 404.739 368.056C415.402 368.056 425.031 365.767 431.976 362.09C438.943 358.401 443.089 353.39 443.089 347.987C443.089 342.584 438.943 337.574 431.976 333.886C425.031 330.209 415.402 327.92 404.739 327.92Z" fill="white" stroke="black"/>
<path d="M429.116 336.561C430.258 335.799 430.513 328.946 428.735 323.614C428.354 322.471 427.211 318.897 423.022 315.996C420.736 314.414 419.213 314.85 418.07 315.612C417.627 315.908 415.404 316.758 415.404 324.756C415.404 332.755 422.26 337.326 424.164 337.706C426.069 338.087 427.973 337.323 429.116 336.561Z" fill="white" stroke="black"/>
<path d="M446.637 328.562C445.723 329.781 434.448 334.655 429.116 336.56C429.497 335.799 430.259 333.97 430.259 332.751C430.259 331.228 430.259 327.8 428.735 323.229C427.212 318.659 423.784 315.993 421.879 315.231C420.954 314.861 419.981 314.94 419.218 315.145C418.806 315.312 418.42 315.469 418.07 315.612C418.319 315.462 418.725 315.277 419.218 315.145C422.844 313.674 428.461 311.422 428.735 311.422C429.04 311.422 440.797 318.532 446.637 322.087C447.018 323.737 447.551 327.343 446.637 328.562Z" fill="white"/>
<path d="M446.637 328.562C445.723 329.781 434.448 334.655 429.116 336.56C429.497 335.799 430.259 333.97 430.259 332.751C430.259 331.228 430.259 327.8 428.735 323.229C427.212 318.659 423.784 315.993 421.879 315.231C420.356 314.621 418.705 315.231 418.07 315.612C421.498 314.215 428.43 311.422 428.735 311.422C429.04 311.422 440.797 318.532 446.637 322.087C447.018 323.737 447.551 327.343 446.637 328.562Z" stroke="black"/>
<path d="M382.648 347.545V332.752H426.831V347.545C425.779 348.687 419.888 357.89 404.739 357.89C389.591 357.89 383.7 348.687 382.648 347.545Z" fill="white" stroke="black"/>
<path d="M404.739 322.586C398.709 322.586 393.275 323.978 389.366 326.202C385.442 328.435 383.148 331.442 383.148 334.655C383.148 337.868 385.442 340.876 389.366 343.108C393.275 345.333 398.709 346.725 404.739 346.725C410.769 346.725 416.203 345.333 420.113 343.108C424.037 340.876 426.331 337.868 426.331 334.655C426.331 331.442 424.037 328.435 420.113 326.202C416.203 323.978 410.769 322.586 404.739 322.586Z" fill="white" stroke="black"/>
<path d="M383.791 338.846V330.848L414.261 317.897L426.831 327.8V334.656L396.36 349.13L383.791 338.846Z" fill="white"/>
<path d="M383.791 330.848C383.791 331.762 383.791 336.561 383.791 338.846L396.36 349.13M383.791 330.848L396.36 340.751M383.791 330.848L414.261 317.897L426.831 327.8M396.36 349.13V340.751M396.36 349.13L426.831 334.656V327.8M396.36 340.751L426.831 327.8" stroke="black"/>
<path d="M397.883 331.275V325.896H413.119V331.275C412.756 331.69 410.725 335.037 405.501 335.037C400.277 335.037 398.246 331.69 397.883 331.275Z" fill="white" stroke="black"/>
<path d="M405.5 322.586C403.465 322.586 401.646 323.041 400.355 323.751C399.046 324.471 398.383 325.385 398.383 326.275C398.383 327.166 399.046 328.08 400.355 328.8C401.646 329.51 403.465 329.966 405.5 329.966C407.536 329.966 409.355 329.51 410.647 328.8C411.956 328.08 412.619 327.166 412.619 326.275C412.619 325.385 411.956 324.471 410.647 323.751C409.355 323.041 407.536 322.586 405.5 322.586Z" fill="white" stroke="black"/>
<path d="M203.25 379.981C203.25 378.153 204.266 376.68 204.774 376.172C221.279 376.68 259.088 377.01 278.285 374.268C302.281 370.84 324.372 363.222 330.466 360.937C336.561 358.652 367.031 345.701 371.221 343.797C374.573 342.273 382.775 338.592 386.457 336.941C387.218 336.814 389.047 336.941 390.265 338.465C391.484 339.988 391.535 342.4 391.408 343.416C372.872 351.669 333.818 368.783 325.896 371.221C315.993 374.268 274.095 383.79 258.479 384.933C245.986 385.847 217.47 385.314 204.774 384.933C204.266 384.044 203.25 381.809 203.25 379.981Z" fill="white" stroke="black"/>
<path d="M170.113 370.84H184.968L185.349 368.174L205.155 368.936L204.012 379.22V382.267L205.155 384.933V389.123H203.631V391.027H202.108V389.123H200.965V382.013L199.442 381.886V386.075L183.825 384.933H174.303L168.209 378.077L170.113 370.84Z" fill="white"/>
<path d="M184.968 370.84H170.113L168.209 378.077M184.968 370.84L183.825 378.077M184.968 370.84L185.349 368.174L205.155 368.936L204.012 379.22M183.825 378.077H168.209M183.825 378.077V384.933M183.825 378.077L204.012 379.22M168.209 378.077L174.303 384.933H183.825M183.825 384.933L199.442 386.075V381.886L200.965 382.013M204.012 379.22V382.267M204.012 382.267L200.965 382.013M204.012 382.267L205.155 384.933V389.123H203.631V391.027H202.108V389.123H200.965V382.013" stroke="black"/>
<path d="M208.202 328.942V319.8H213.535V328.942C213.408 329.449 212.697 330.465 210.868 330.465C209.04 330.465 208.329 329.449 208.202 328.942Z" fill="white" stroke="black"/>
<path d="M210.869 318.777C210.203 318.777 209.625 318.932 209.231 319.157C208.823 319.39 208.703 319.637 208.703 319.801C208.703 319.965 208.823 320.211 209.231 320.444C209.625 320.67 210.203 320.824 210.869 320.824C211.534 320.824 212.111 320.669 212.505 320.444C212.914 320.211 213.035 319.965 213.035 319.801C213.035 319.637 212.914 319.39 212.505 319.157C212.111 318.932 211.534 318.777 210.869 318.777Z" fill="white" stroke="black"/>
<rect width="302.174" height="50.7777" transform="matrix(0.866025 0.5 -0.577145 0.816642 263.409 157.545)" fill="#D9D9D9" stroke="black"/>
<path d="M403.977 152.212L142.309 1L263.43 157.544L525.099 308.756L403.977 152.212Z" fill="#D9D9D9" stroke="black"/>
<path d="M525.099 308.755L403.977 152.211L374.649 193.728L495.771 350.272L525.099 308.755Z" fill="#D9D9D9" stroke="black"/>
<path d="M263.43 157.925L142.309 1.38135L112.98 42.8979L234.102 199.442L263.43 157.925Z" fill="#D9D9D9" stroke="black"/>
<rect width="302.174" height="50.7777" transform="matrix(0.866025 0.5 -0.577145 0.816642 142.287 1.12549)" fill="#D9D9D9" stroke="black"/>
</svg>
