<svg width="724" height="398" viewBox="0 0 724 398" fill="none" xmlns="http://www.w3.org/2000/svg">
<path d="M573.2 53.1767L578.088 55.8918L589.595 64.9394L586.887 80.3206L573.728 105.052L566.733 125.109L565.982 140.415L567.336 147.577L569.666 147.502L582.226 148.557H588.617L608.772 152.705L624.939 158.737L628.022 165.145L630.128 172.912L649.305 183.543L671.339 190.405L678.783 188.217L706.082 163.261L716.609 167.407L723 180.602L722.699 187.615L715.179 214.08L713.901 228.255L720.368 237.604L721.045 244.918L719.165 251.554L708.262 252.157L693.673 248.537L681.34 237.152L672.016 238.51L663.894 241.45L659.756 252.232L656.073 265.125L657.275 272.288L663.141 277.792L667.577 289.555L670.811 304.71L673.294 311.647L670.586 314.739L662.916 316.774L656.522 314.739L645.394 296.642L640.205 289.706L631.407 288.499L615.84 292.872L591.927 303.052L582.299 302.976L574.104 300.941L566.432 292.345L559.892 275.757L557.785 265.352L553.197 265.653L537.931 262.637L530.787 266.784L530.714 283.749L529.284 304.862L521.614 318.509L500.331 342.108L492.51 352.363L489.428 359.752L488.751 366.161L491.984 377.245L496.42 387.801L492.737 393.833L481.455 397L473.485 390.591L470.403 379.129L453.181 363.523L461.003 350.478L459.649 347.236L431.148 340.45L418.89 330.572L401.669 313.154L398.436 305.69L399.186 281.412L398.208 275.531L395.879 272.666L387.53 272.891L375.874 281.336L365.12 293.928L343.162 308.104L340.906 311.119L348.275 324.917L347.974 330.271L330.079 352.288L326.693 359.526L303.983 373.324L293.605 378.526L262.171 368.348L253.448 367.141L239.46 373.927L219.533 380.412L187.496 386.82L175.691 382.146L170.126 377.697L167.344 371.062L159.296 359.3L150.196 352.288L143.881 344.673L135.458 336.379L130.045 329.441L137.262 307.198L132 299.356L129.292 288.198L130.722 280.657L127.862 278.773L98.9114 274.4L74.8466 275.757L57.6254 283.222L43.562 295.587L41.9096 298.225L42.7358 300.413L49.7285 311.798L37.9233 323.786L19.7244 333.061L6.86587 334.041L1.2249 332.231L1 319.413L11.6784 314.663L21.3033 306.294L24.5369 294.531L25.7395 286.237L15.5889 276.209L16.8672 270.027L23.1829 258.34L26.8686 248.009L31.8325 239.038L51.8352 224.41L71.9894 209.707L74.9958 194.099L76.577 175.023L79.4342 170.424L106.581 159.038L113.349 154.514L116.734 148.03L138.091 126.616L159.222 105.353L163.507 98.1902L167.041 94.0438V90.575L164.411 87.9358L154.334 86.1272L150.949 79.3403L161.928 67.2773L175.615 59.8876L188.926 59.8128L194.266 63.2056L193.963 67.2013L199.68 71.4996L209.757 72.932L222.239 71.4237L234.648 66.8999L242.242 56.1174L246.68 47.9741L266.082 38.6998L279.317 43.3755L316.164 44.5812L343.013 42.0179L359.858 35.6843H380.687L394.674 39.2279L397.157 38.6998L400.992 37.8715L404.827 34.4775L417.986 32.1408L419.792 29.3508L419.265 26.486L416.859 24.9777L400.692 26.486L394.525 24.2241L392.946 19.0963L398.135 10.1235L410.092 2.80975L420.169 1L427.462 2.96046L445.209 16.533L449.496 16.9851L451.977 14.5725L455.662 13.2149L461.829 15.8542L468.748 24.2241L469.875 25.5058L509.582 22.5651H518.454L545.376 37.2674L573.2 53.1767Z" fill="white" stroke="#808080" stroke-linecap="round" stroke-linejoin="round"/>
</svg>
