<svg width="19" height="11" viewBox="0 0 19 11" fill="none" xmlns="http://www.w3.org/2000/svg">
<path d="M14.3501 2.17127L14.4683 2.23675L14.7465 2.45492L14.6811 2.82582L14.3629 3.42219L14.1938 3.90584L14.1756 4.27493L14.2084 4.44764L14.2647 4.44583L14.5684 4.47127H14.7229L15.2102 4.57129L15.6011 4.71675L15.6756 4.87128L15.7265 5.05857L16.1902 5.31492L16.7229 5.48038L16.9029 5.42764L17.5629 4.82583L17.8174 4.92582L17.972 5.24401L17.9647 5.4131L17.7829 6.05128L17.752 6.39311L17.9083 6.61855L17.9247 6.79491L17.8793 6.95494L17.6156 6.96947L17.2629 6.88219L16.9647 6.60765L16.7393 6.64038L16.5429 6.71129L16.4429 6.97128L16.3538 7.2822L16.3829 7.45493L16.5247 7.58765L16.632 7.8713L16.7102 8.23673L16.7702 8.40402L16.7047 8.47857L16.5193 8.52765L16.3647 8.47857L16.0956 8.0422L15.9702 7.87493L15.7575 7.84583L15.3811 7.95128L14.8029 8.19675L14.5702 8.19492L14.372 8.14584L14.1865 7.93857L14.0284 7.53857L13.9774 7.28766L13.8665 7.29493L13.4974 7.22219L13.3247 7.3222L13.3229 7.73128L13.2884 8.24039L13.1029 8.56948L12.5883 9.13855L12.3992 9.38583L12.3247 9.56403L12.3084 9.71856L12.3865 9.98583L12.4938 10.2404L12.4047 10.3858L12.132 10.4622L11.9393 10.3077L11.8647 10.0313L11.4484 9.65494L11.6375 9.34039L11.6047 9.26221L10.9156 9.09858L10.6193 8.86037L10.2029 8.44037L10.1247 8.26037L10.1429 7.67493L10.1192 7.53311L10.0629 7.46403L9.86106 7.46946L9.57925 7.6731L9.31924 7.97675L8.78834 8.31857L8.7338 8.39129L8.91196 8.72401L8.9047 8.8531L8.47201 9.38403L8.39017 9.55856L7.84107 9.89129L7.59016 10.0167L6.83016 9.7713L6.61926 9.74219L6.28107 9.90582L5.79928 10.0622L5.02469 10.2167L4.73926 10.104L4.60471 9.99674L4.53746 9.83674L4.34287 9.55312L4.12286 9.38403L3.97016 9.20039L3.76653 9.00039L3.63564 8.8331L3.81014 8.29674L3.68291 8.10764L3.61744 7.83856L3.652 7.65673L3.58287 7.61129L2.8829 7.50583L2.30107 7.53857L1.8847 7.71857L1.54468 8.01675L1.50473 8.08037L1.5247 8.13311L1.69377 8.40766L1.40835 8.69674L0.96834 8.92038L0.657449 8.94402L0.521063 8.90038L0.515625 8.59129L0.773804 8.47674L1.00651 8.27493L1.0847 7.99129L1.11377 7.79129L0.868353 7.54947L0.899259 7.40038L1.05196 7.11857L1.14107 6.86946L1.26109 6.65312L1.74471 6.30039L2.23199 5.94583L2.30468 5.56946L2.34291 5.10948L2.41199 4.99856L3.06834 4.72401L3.23197 4.61493L3.31381 4.45857L3.83017 3.94218L4.34109 3.42946L4.44468 3.25673L4.53013 3.15674V3.0731L4.46655 3.00945L4.22291 2.96584L4.14106 2.80218L4.40651 2.51129L4.73743 2.3331L5.05925 2.3313L5.18837 2.41311L5.18105 2.50946L5.31926 2.61311L5.56291 2.64765L5.8647 2.61128L6.16471 2.50219L6.34832 2.24218L6.45563 2.04582L6.92471 1.82218L7.2447 1.93493L8.1356 1.964L8.78473 1.90219L9.19201 1.74946H9.6956L10.0338 1.83491L10.0938 1.82218L10.1865 1.8022L10.2793 1.72036L10.5974 1.66401L10.6411 1.59674L10.6283 1.52766L10.5702 1.49128L10.1793 1.52766L10.0302 1.47311L9.99201 1.34946L10.1175 1.13309L10.4066 0.956726L10.6502 0.913086L10.8265 0.960361L11.2556 1.28765L11.3593 1.29855L11.4192 1.24037L11.5083 1.20764L11.6574 1.27128L11.8247 1.47311L11.852 1.50402L12.812 1.43311H13.0265L13.6774 1.78764L14.3501 2.17127Z" fill="black" stroke="white" stroke-width="0.25" stroke-linecap="round" stroke-linejoin="round"/>
</svg>
