<svg width="102" height="102" viewBox="0 0 102 102" fill="none" xmlns="http://www.w3.org/2000/svg">
<rect x="1" y="1" width="100" height="100" rx="10" fill="black" stroke="black"/>
<path d="M18.73 11.44C19.09 11.0733 19.42 10.74 19.72 10.44C20.02 10.14 20.2867 9.86333 20.52 9.61C20.76 9.35 20.9633 9.10667 21.13 8.88C21.2967 8.64667 21.4233 8.42 21.51 8.2C21.5967 7.97333 21.64 7.73667 21.64 7.49C21.64 7.27667 21.6133 7.09667 21.56 6.95C21.5067 6.80333 21.43 6.68667 21.33 6.6C21.2367 6.50667 21.1233 6.44 20.99 6.4C20.8633 6.36 20.7267 6.34 20.58 6.34C20.42 6.34 20.2667 6.36333 20.12 6.41C19.9733 6.45667 19.8333 6.52667 19.7 6.62C19.5667 6.70667 19.4433 6.82333 19.33 6.97C19.27 7.06333 19.2333 7.13667 19.22 7.19C19.2067 7.23667 19.2033 7.28667 19.21 7.34L19.17 7.39L19.09 7.34L18.58 6.94C18.7133 6.68 18.88 6.46 19.08 6.28C19.28 6.1 19.5067 5.96333 19.76 5.87C20.0133 5.77667 20.2833 5.73 20.57 5.73C20.9233 5.73 21.2333 5.80333 21.5 5.95C21.7667 6.09 21.9767 6.29333 22.13 6.56C22.2833 6.82667 22.36 7.14333 22.36 7.51C22.36 7.78333 22.31 8.05 22.21 8.31C22.11 8.56333 21.9733 8.81333 21.8 9.06C21.6267 9.30667 21.4233 9.55333 21.19 9.8C20.9567 10.0467 20.7067 10.3033 20.44 10.57C20.18 10.83 19.91 11.1033 19.63 11.39H21.95C22.0633 11.39 22.1433 11.3833 22.19 11.37C22.2367 11.3567 22.28 11.33 22.32 11.29H22.39V11.39V12H18.73V11.44ZM24.07 10.46L26.74 7.03L26.97 7.5L24.3 10.89L24.07 10.46ZM25.5 12.11C25.0867 12.11 24.7367 11.9867 24.45 11.74C24.1633 11.4933 23.9433 11.1333 23.79 10.66C23.6433 10.18 23.57 9.6 23.57 8.92C23.57 8.26 23.6433 7.69333 23.79 7.22C23.9433 6.74 24.1633 6.37333 24.45 6.12C24.7367 5.86 25.0867 5.73 25.5 5.73C25.9133 5.73 26.2633 5.86 26.55 6.12C26.8367 6.37333 27.0533 6.74 27.2 7.22C27.3533 7.69333 27.43 8.26 27.43 8.92C27.43 9.6 27.3533 10.18 27.2 10.66C27.0533 11.1333 26.8367 11.4933 26.55 11.74C26.2633 11.9867 25.9133 12.11 25.5 12.11ZM25.5 11.5C25.7533 11.5 25.97 11.4 26.15 11.2C26.33 11 26.4667 10.71 26.56 10.33C26.66 9.94333 26.71 9.47333 26.71 8.92C26.71 8.39333 26.66 7.94 26.56 7.56C26.4667 7.17333 26.33 6.87333 26.15 6.66C25.97 6.44667 25.7533 6.34 25.5 6.34C25.2467 6.34 25.03 6.44667 24.85 6.66C24.67 6.87333 24.53 7.17333 24.43 7.56C24.3367 7.94 24.29 8.39333 24.29 8.92C24.29 9.47333 24.3367 9.94333 24.43 10.33C24.53 10.71 24.67 11 24.85 11.2C25.03 11.4 25.2467 11.5 25.5 11.5ZM28.73 11.44C29.09 11.0733 29.42 10.74 29.72 10.44C30.02 10.14 30.2867 9.86333 30.52 9.61C30.76 9.35 30.9633 9.10667 31.13 8.88C31.2967 8.64667 31.4233 8.42 31.51 8.2C31.5967 7.97333 31.64 7.73667 31.64 7.49C31.64 7.27667 31.6133 7.09667 31.56 6.95C31.5067 6.80333 31.43 6.68667 31.33 6.6C31.2367 6.50667 31.1233 6.44 30.99 6.4C30.8633 6.36 30.7267 6.34 30.58 6.34C30.42 6.34 30.2667 6.36333 30.12 6.41C29.9733 6.45667 29.8333 6.52667 29.7 6.62C29.5667 6.70667 29.4433 6.82333 29.33 6.97C29.27 7.06333 29.2333 7.13667 29.22 7.19C29.2067 7.23667 29.2033 7.28667 29.21 7.34L29.17 7.39L29.09 7.34L28.58 6.94C28.7133 6.68 28.88 6.46 29.08 6.28C29.28 6.1 29.5067 5.96333 29.76 5.87C30.0133 5.77667 30.2833 5.73 30.57 5.73C30.9233 5.73 31.2333 5.80333 31.5 5.95C31.7667 6.09 31.9767 6.29333 32.13 6.56C32.2833 6.82667 32.36 7.14333 32.36 7.51C32.36 7.78333 32.31 8.05 32.21 8.31C32.11 8.56333 31.9733 8.81333 31.8 9.06C31.6267 9.30667 31.4233 9.55333 31.19 9.8C30.9567 10.0467 30.7067 10.3033 30.44 10.57C30.18 10.83 29.91 11.1033 29.63 11.39H31.95C32.0633 11.39 32.1433 11.3833 32.19 11.37C32.2367 11.3567 32.28 11.33 32.32 11.29H32.39V11.39V12H28.73V11.44ZM35.49 12.11C35.11 12.11 34.7567 12.0267 34.43 11.86C34.11 11.6933 33.8467 11.4567 33.64 11.15L34.2 10.73L34.28 10.67L34.32 10.72C34.3133 10.7733 34.32 10.8233 34.34 10.87C34.3667 10.9167 34.4133 10.9833 34.48 11.07C34.6133 11.2167 34.76 11.3267 34.92 11.4C35.0867 11.4667 35.29 11.5 35.53 11.5C35.69 11.5 35.8433 11.4667 35.99 11.4C36.1367 11.3267 36.2633 11.2267 36.37 11.1C36.4833 10.9733 36.5733 10.8167 36.64 10.63C36.7067 10.4433 36.74 10.2367 36.74 10.01C36.74 9.77667 36.7067 9.57 36.64 9.39C36.5733 9.20333 36.48 9.04667 36.36 8.92C36.2467 8.79333 36.1133 8.69667 35.96 8.63C35.8067 8.56333 35.64 8.53 35.46 8.53C35.32 8.53 35.1767 8.55333 35.03 8.6C34.89 8.64667 34.7567 8.71333 34.63 8.8C34.51 8.88667 34.3967 8.99333 34.29 9.12L33.85 8.94L34.06 5.77H37.22V6.4H34.65L34.55 8.19C34.6633 8.13667 34.7733 8.09333 34.88 8.06C34.9933 8.02 35.1067 7.99333 35.22 7.98C35.34 7.96 35.4567 7.95 35.57 7.95C35.8433 7.95 36.0933 8 36.32 8.1C36.5467 8.19333 36.7433 8.33333 36.91 8.52C37.0833 8.7 37.2167 8.92 37.31 9.18C37.4033 9.43333 37.45 9.72 37.45 10.04C37.45 10.4667 37.3633 10.8367 37.19 11.15C37.0167 11.4567 36.7833 11.6933 36.49 11.86C36.1967 12.0267 35.8633 12.11 35.49 12.11ZM40.38 12.11C40.22 12.11 40.0833 12.0533 39.97 11.94C39.8567 11.8267 39.8 11.6933 39.8 11.54C39.8 11.3867 39.8567 11.2533 39.97 11.14C40.0833 11.0267 40.22 10.97 40.38 10.97C40.5333 10.97 40.6667 11.0267 40.78 11.14C40.8933 11.2533 40.95 11.3867 40.95 11.54C40.95 11.6933 40.8933 11.8267 40.78 11.94C40.6667 12.0533 40.5333 12.11 40.38 12.11ZM44.07 10.46L46.74 7.03L46.97 7.5L44.3 10.89L44.07 10.46ZM45.5 12.11C45.0867 12.11 44.7367 11.9867 44.45 11.74C44.1633 11.4933 43.9433 11.1333 43.79 10.66C43.6433 10.18 43.57 9.6 43.57 8.92C43.57 8.26 43.6433 7.69333 43.79 7.22C43.9433 6.74 44.1633 6.37333 44.45 6.12C44.7367 5.86 45.0867 5.73 45.5 5.73C45.9133 5.73 46.2633 5.86 46.55 6.12C46.8367 6.37333 47.0533 6.74 47.2 7.22C47.3533 7.69333 47.43 8.26 47.43 8.92C47.43 9.6 47.3533 10.18 47.2 10.66C47.0533 11.1333 46.8367 11.4933 46.55 11.74C46.2633 11.9867 45.9133 12.11 45.5 12.11ZM45.5 11.5C45.7533 11.5 45.97 11.4 46.15 11.2C46.33 11 46.4667 10.71 46.56 10.33C46.66 9.94333 46.71 9.47333 46.71 8.92C46.71 8.39333 46.66 7.94 46.56 7.56C46.4667 7.17333 46.33 6.87333 46.15 6.66C45.97 6.44667 45.7533 6.34 45.5 6.34C45.2467 6.34 45.03 6.44667 44.85 6.66C44.67 6.87333 44.53 7.17333 44.43 7.56C44.3367 7.94 44.29 8.39333 44.29 8.92C44.29 9.47333 44.3367 9.94333 44.43 10.33C44.53 10.71 44.67 11 44.85 11.2C45.03 11.4 45.2467 11.5 45.5 11.5ZM50.49 12.11C50.11 12.11 49.7567 12.0267 49.43 11.86C49.11 11.6933 48.8467 11.4567 48.64 11.15L49.2 10.73L49.28 10.67L49.32 10.72C49.3133 10.7733 49.32 10.8233 49.34 10.87C49.3667 10.9167 49.4133 10.9833 49.48 11.07C49.6133 11.2167 49.76 11.3267 49.92 11.4C50.0867 11.4667 50.29 11.5 50.53 11.5C50.69 11.5 50.8433 11.4667 50.99 11.4C51.1367 11.3267 51.2633 11.2267 51.37 11.1C51.4833 10.9733 51.5733 10.8167 51.64 10.63C51.7067 10.4433 51.74 10.2367 51.74 10.01C51.74 9.77667 51.7067 9.57 51.64 9.39C51.5733 9.20333 51.48 9.04667 51.36 8.92C51.2467 8.79333 51.1133 8.69667 50.96 8.63C50.8067 8.56333 50.64 8.53 50.46 8.53C50.32 8.53 50.1767 8.55333 50.03 8.6C49.89 8.64667 49.7567 8.71333 49.63 8.8C49.51 8.88667 49.3967 8.99333 49.29 9.12L48.85 8.94L49.06 5.77H52.22V6.4H49.65L49.55 8.19C49.6633 8.13667 49.7733 8.09333 49.88 8.06C49.9933 8.02 50.1067 7.99333 50.22 7.98C50.34 7.96 50.4567 7.95 50.57 7.95C50.8433 7.95 51.0933 8 51.32 8.1C51.5467 8.19333 51.7433 8.33333 51.91 8.52C52.0833 8.7 52.2167 8.92 52.31 9.18C52.4033 9.43333 52.45 9.72 52.45 10.04C52.45 10.4667 52.3633 10.8367 52.19 11.15C52.0167 11.4567 51.7833 11.6933 51.49 11.86C51.1967 12.0267 50.8633 12.11 50.49 12.11ZM55.38 12.11C55.22 12.11 55.0833 12.0533 54.97 11.94C54.8567 11.8267 54.8 11.6933 54.8 11.54C54.8 11.3867 54.8567 11.2533 54.97 11.14C55.0833 11.0267 55.22 10.97 55.38 10.97C55.5333 10.97 55.6667 11.0267 55.78 11.14C55.8933 11.2533 55.95 11.3867 55.95 11.54C55.95 11.6933 55.8933 11.8267 55.78 11.94C55.6667 12.0533 55.5333 12.11 55.38 12.11ZM58.73 11.44C59.09 11.0733 59.42 10.74 59.72 10.44C60.02 10.14 60.2867 9.86333 60.52 9.61C60.76 9.35 60.9633 9.10667 61.13 8.88C61.2967 8.64667 61.4233 8.42 61.51 8.2C61.5967 7.97333 61.64 7.73667 61.64 7.49C61.64 7.27667 61.6133 7.09667 61.56 6.95C61.5067 6.80333 61.43 6.68667 61.33 6.6C61.2367 6.50667 61.1233 6.44 60.99 6.4C60.8633 6.36 60.7267 6.34 60.58 6.34C60.42 6.34 60.2667 6.36333 60.12 6.41C59.9733 6.45667 59.8333 6.52667 59.7 6.62C59.5667 6.70667 59.4433 6.82333 59.33 6.97C59.27 7.06333 59.2333 7.13667 59.22 7.19C59.2067 7.23667 59.2033 7.28667 59.21 7.34L59.17 7.39L59.09 7.34L58.58 6.94C58.7133 6.68 58.88 6.46 59.08 6.28C59.28 6.1 59.5067 5.96333 59.76 5.87C60.0133 5.77667 60.2833 5.73 60.57 5.73C60.9233 5.73 61.2333 5.80333 61.5 5.95C61.7667 6.09 61.9767 6.29333 62.13 6.56C62.2833 6.82667 62.36 7.14333 62.36 7.51C62.36 7.78333 62.31 8.05 62.21 8.31C62.11 8.56333 61.9733 8.81333 61.8 9.06C61.6267 9.30667 61.4233 9.55333 61.19 9.8C60.9567 10.0467 60.7067 10.3033 60.44 10.57C60.18 10.83 59.91 11.1033 59.63 11.39H61.95C62.0633 11.39 62.1433 11.3833 62.19 11.37C62.2367 11.3567 62.28 11.33 62.32 11.29H62.39V11.39V12H58.73V11.44ZM66.18 12V10.47H63.48V9.96L66.33 5.76H66.92V9.89H67.72V10.48H66.92V12H66.18ZM64.29 9.88H66.18V7.02L64.29 9.88ZM69.11 9.19V8.52H71.91V9.19H69.11ZM73.73 11.44C74.09 11.0733 74.42 10.74 74.72 10.44C75.02 10.14 75.2867 9.86333 75.52 9.61C75.76 9.35 75.9633 9.10667 76.13 8.88C76.2967 8.64667 76.4233 8.42 76.51 8.2C76.5967 7.97333 76.64 7.73667 76.64 7.49C76.64 7.27667 76.6133 7.09667 76.56 6.95C76.5067 6.80333 76.43 6.68667 76.33 6.6C76.2367 6.50667 76.1233 6.44 75.99 6.4C75.8633 6.36 75.7267 6.34 75.58 6.34C75.42 6.34 75.2667 6.36333 75.12 6.41C74.9733 6.45667 74.8333 6.52667 74.7 6.62C74.5667 6.70667 74.4433 6.82333 74.33 6.97C74.27 7.06333 74.2333 7.13667 74.22 7.19C74.2067 7.23667 74.2033 7.28667 74.21 7.34L74.17 7.39L74.09 7.34L73.58 6.94C73.7133 6.68 73.88 6.46 74.08 6.28C74.28 6.1 74.5067 5.96333 74.76 5.87C75.0133 5.77667 75.2833 5.73 75.57 5.73C75.9233 5.73 76.2333 5.80333 76.5 5.95C76.7667 6.09 76.9767 6.29333 77.13 6.56C77.2833 6.82667 77.36 7.14333 77.36 7.51C77.36 7.78333 77.31 8.05 77.21 8.31C77.11 8.56333 76.9733 8.81333 76.8 9.06C76.6267 9.30667 76.4233 9.55333 76.19 9.8C75.9567 10.0467 75.7067 10.3033 75.44 10.57C75.18 10.83 74.91 11.1033 74.63 11.39H76.95C77.0633 11.39 77.1433 11.3833 77.19 11.37C77.2367 11.3567 77.28 11.33 77.32 11.29H77.39V11.39V12H73.73V11.44ZM80.49 12.11C80.11 12.11 79.7567 12.0267 79.43 11.86C79.11 11.6933 78.8467 11.4567 78.64 11.15L79.2 10.73L79.28 10.67L79.32 10.72C79.3133 10.7733 79.32 10.8233 79.34 10.87C79.3667 10.9167 79.4133 10.9833 79.48 11.07C79.6133 11.2167 79.76 11.3267 79.92 11.4C80.0867 11.4667 80.29 11.5 80.53 11.5C80.69 11.5 80.8433 11.4667 80.99 11.4C81.1367 11.3267 81.2633 11.2267 81.37 11.1C81.4833 10.9733 81.5733 10.8167 81.64 10.63C81.7067 10.4433 81.74 10.2367 81.74 10.01C81.74 9.77667 81.7067 9.57 81.64 9.39C81.5733 9.20333 81.48 9.04667 81.36 8.92C81.2467 8.79333 81.1133 8.69667 80.96 8.63C80.8067 8.56333 80.64 8.53 80.46 8.53C80.32 8.53 80.1767 8.55333 80.03 8.6C79.89 8.64667 79.7567 8.71333 79.63 8.8C79.51 8.88667 79.3967 8.99333 79.29 9.12L78.85 8.94L79.06 5.77H82.22V6.4H79.65L79.55 8.19C79.6633 8.13667 79.7733 8.09333 79.88 8.06C79.9933 8.02 80.1067 7.99333 80.22 7.98C80.34 7.96 80.4567 7.95 80.57 7.95C80.8433 7.95 81.0933 8 81.32 8.1C81.5467 8.19333 81.7433 8.33333 81.91 8.52C82.0833 8.7 82.2167 8.92 82.31 9.18C82.4033 9.43333 82.45 9.72 82.45 10.04C82.45 10.4667 82.3633 10.8367 82.19 11.15C82.0167 11.4567 81.7833 11.6933 81.49 11.86C81.1967 12.0267 80.8633 12.11 80.49 12.11Z" fill="white"/>
<path d="M15 36V35H14V34H16V35H19V33H15V32H14V30H15V29H20V30H21V31H19V30H16V32H20V33H21V35H20V36H15ZM23 36V35H22V32H23V31H29V32H24V35H29V36H23ZM31 36V35H30V32H31V31H36V32H37V35H36V36H31ZM32 35H35V32H32V35ZM39 36V35H41V30H40V29H43V35H45V36H39ZM49 30V29H51V30H49ZM47 36V35H49V32H48V31H51V35H53V36H47ZM55 36V35H54V32H55V31H60V32H61V35H60V36H55ZM56 35H59V32H56V35ZM62 36V35H67V34H63V33H62V32H63V31H68V32H64V33H68V34H69V35H68V36H62ZM73 30V29H75V30H73ZM71 36V35H73V32H72V31H75V35H77V36H71ZM78 36V35H83V34H79V33H78V32H79V31H84V32H80V33H84V34H85V35H84V36H78ZM33 44V38H31V37H37V38H35V44H33ZM41 40H42V41H41V44H39V39H41V40ZM45 39V40H42V39H45ZM47 44V43H46V42H47V41H51V40H47V39H52V40H53V44H47ZM48 43H51V42H48V43ZM55 44V43H54V40H55V39H61V40H56V43H61V44H55ZM62 44V37H64V41H66V40H67V39H69V40H68V41H67V42H68V43H69V44H67V43H66V42H64V44H62ZM22 52V45H24V46H25V47H26V46H27V45H29V52H27V48H26V50H25V48H24V52H22ZM31 52V51H30V48H31V47H36V48H37V51H36V52H31ZM32 51H35V48H32V51ZM38 52V47H44V48H45V52H43V48H40V52H38ZM49 46V45H51V46H49ZM47 52V51H49V48H48V47H51V51H53V52H47ZM57 52V48H55V47H57V45H59V47H61V48H59V52H57ZM63 52V51H62V48H63V47H68V48H69V51H68V52H63ZM64 51H67V48H64V51ZM73 48H74V49H73V52H71V47H73V48ZM77 47V48H74V47H77Z" fill="white"/>
</svg>
