<svg width="102" height="102" viewBox="0 0 102 102" fill="none" xmlns="http://www.w3.org/2000/svg">
<rect x="1" y="1" width="100" height="100" rx="10" fill="black" stroke="black"/>
<path d="M13.73 11.44C14.09 11.0733 14.42 10.74 14.72 10.44C15.02 10.14 15.2867 9.86333 15.52 9.61C15.76 9.35 15.9633 9.10667 16.13 8.88C16.2967 8.64667 16.4233 8.42 16.51 8.2C16.5967 7.97333 16.64 7.73667 16.64 7.49C16.64 7.27667 16.6133 7.09667 16.56 6.95C16.5067 6.80333 16.43 6.68667 16.33 6.6C16.2367 6.50667 16.1233 6.44 15.99 6.4C15.8633 6.36 15.7267 6.34 15.58 6.34C15.42 6.34 15.2667 6.36333 15.12 6.41C14.9733 6.45667 14.8333 6.52667 14.7 6.62C14.5667 6.70667 14.4433 6.82333 14.33 6.97C14.27 7.06333 14.2333 7.13667 14.22 7.19C14.2067 7.23667 14.2033 7.28667 14.21 7.34L14.17 7.39L14.09 7.34L13.58 6.94C13.7133 6.68 13.88 6.46 14.08 6.28C14.28 6.1 14.5067 5.96333 14.76 5.87C15.0133 5.77667 15.2833 5.73 15.57 5.73C15.9233 5.73 16.2333 5.80333 16.5 5.95C16.7667 6.09 16.9767 6.29333 17.13 6.56C17.2833 6.82667 17.36 7.14333 17.36 7.51C17.36 7.78333 17.31 8.05 17.21 8.31C17.11 8.56333 16.9733 8.81333 16.8 9.06C16.6267 9.30667 16.4233 9.55333 16.19 9.8C15.9567 10.0467 15.7067 10.3033 15.44 10.57C15.18 10.83 14.91 11.1033 14.63 11.39H16.95C17.0633 11.39 17.1433 11.3833 17.19 11.37C17.2367 11.3567 17.28 11.33 17.32 11.29H17.39V11.39V12H13.73V11.44ZM19.07 10.46L21.74 7.03L21.97 7.5L19.3 10.89L19.07 10.46ZM20.5 12.11C20.0867 12.11 19.7367 11.9867 19.45 11.74C19.1633 11.4933 18.9433 11.1333 18.79 10.66C18.6433 10.18 18.57 9.6 18.57 8.92C18.57 8.26 18.6433 7.69333 18.79 7.22C18.9433 6.74 19.1633 6.37333 19.45 6.12C19.7367 5.86 20.0867 5.73 20.5 5.73C20.9133 5.73 21.2633 5.86 21.55 6.12C21.8367 6.37333 22.0533 6.74 22.2 7.22C22.3533 7.69333 22.43 8.26 22.43 8.92C22.43 9.6 22.3533 10.18 22.2 10.66C22.0533 11.1333 21.8367 11.4933 21.55 11.74C21.2633 11.9867 20.9133 12.11 20.5 12.11ZM20.5 11.5C20.7533 11.5 20.97 11.4 21.15 11.2C21.33 11 21.4667 10.71 21.56 10.33C21.66 9.94333 21.71 9.47333 21.71 8.92C21.71 8.39333 21.66 7.94 21.56 7.56C21.4667 7.17333 21.33 6.87333 21.15 6.66C20.97 6.44667 20.7533 6.34 20.5 6.34C20.2467 6.34 20.03 6.44667 19.85 6.66C19.67 6.87333 19.53 7.17333 19.43 7.56C19.3367 7.94 19.29 8.39333 19.29 8.92C19.29 9.47333 19.3367 9.94333 19.43 10.33C19.53 10.71 19.67 11 19.85 11.2C20.03 11.4 20.2467 11.5 20.5 11.5ZM23.73 11.44C24.09 11.0733 24.42 10.74 24.72 10.44C25.02 10.14 25.2867 9.86333 25.52 9.61C25.76 9.35 25.9633 9.10667 26.13 8.88C26.2967 8.64667 26.4233 8.42 26.51 8.2C26.5967 7.97333 26.64 7.73667 26.64 7.49C26.64 7.27667 26.6133 7.09667 26.56 6.95C26.5067 6.80333 26.43 6.68667 26.33 6.6C26.2367 6.50667 26.1233 6.44 25.99 6.4C25.8633 6.36 25.7267 6.34 25.58 6.34C25.42 6.34 25.2667 6.36333 25.12 6.41C24.9733 6.45667 24.8333 6.52667 24.7 6.62C24.5667 6.70667 24.4433 6.82333 24.33 6.97C24.27 7.06333 24.2333 7.13667 24.22 7.19C24.2067 7.23667 24.2033 7.28667 24.21 7.34L24.17 7.39L24.09 7.34L23.58 6.94C23.7133 6.68 23.88 6.46 24.08 6.28C24.28 6.1 24.5067 5.96333 24.76 5.87C25.0133 5.77667 25.2833 5.73 25.57 5.73C25.9233 5.73 26.2333 5.80333 26.5 5.95C26.7667 6.09 26.9767 6.29333 27.13 6.56C27.2833 6.82667 27.36 7.14333 27.36 7.51C27.36 7.78333 27.31 8.05 27.21 8.31C27.11 8.56333 26.9733 8.81333 26.8 9.06C26.6267 9.30667 26.4233 9.55333 26.19 9.8C25.9567 10.0467 25.7067 10.3033 25.44 10.57C25.18 10.83 24.91 11.1033 24.63 11.39H26.95C27.0633 11.39 27.1433 11.3833 27.19 11.37C27.2367 11.3567 27.28 11.33 27.32 11.29H27.39V11.39V12H23.73V11.44ZM30.49 12.11C30.11 12.11 29.7567 12.0267 29.43 11.86C29.11 11.6933 28.8467 11.4567 28.64 11.15L29.2 10.73L29.28 10.67L29.32 10.72C29.3133 10.7733 29.32 10.8233 29.34 10.87C29.3667 10.9167 29.4133 10.9833 29.48 11.07C29.6133 11.2167 29.76 11.3267 29.92 11.4C30.0867 11.4667 30.29 11.5 30.53 11.5C30.69 11.5 30.8433 11.4667 30.99 11.4C31.1367 11.3267 31.2633 11.2267 31.37 11.1C31.4833 10.9733 31.5733 10.8167 31.64 10.63C31.7067 10.4433 31.74 10.2367 31.74 10.01C31.74 9.77667 31.7067 9.57 31.64 9.39C31.5733 9.20333 31.48 9.04667 31.36 8.92C31.2467 8.79333 31.1133 8.69667 30.96 8.63C30.8067 8.56333 30.64 8.53 30.46 8.53C30.32 8.53 30.1767 8.55333 30.03 8.6C29.89 8.64667 29.7567 8.71333 29.63 8.8C29.51 8.88667 29.3967 8.99333 29.29 9.12L28.85 8.94L29.06 5.77H32.22V6.4H29.65L29.55 8.19C29.6633 8.13667 29.7733 8.09333 29.88 8.06C29.9933 8.02 30.1067 7.99333 30.22 7.98C30.34 7.96 30.4567 7.95 30.57 7.95C30.8433 7.95 31.0933 8 31.32 8.1C31.5467 8.19333 31.7433 8.33333 31.91 8.52C32.0833 8.7 32.2167 8.92 32.31 9.18C32.4033 9.43333 32.45 9.72 32.45 10.04C32.45 10.4667 32.3633 10.8367 32.19 11.15C32.0167 11.4567 31.7833 11.6933 31.49 11.86C31.1967 12.0267 30.8633 12.11 30.49 12.11ZM35.38 12.11C35.22 12.11 35.0833 12.0533 34.97 11.94C34.8567 11.8267 34.8 11.6933 34.8 11.54C34.8 11.3867 34.8567 11.2533 34.97 11.14C35.0833 11.0267 35.22 10.97 35.38 10.97C35.5333 10.97 35.6667 11.0267 35.78 11.14C35.8933 11.2533 35.95 11.3867 35.95 11.54C35.95 11.6933 35.8933 11.8267 35.78 11.94C35.6667 12.0533 35.5333 12.11 35.38 12.11ZM39.07 10.46L41.74 7.03L41.97 7.5L39.3 10.89L39.07 10.46ZM40.5 12.11C40.0867 12.11 39.7367 11.9867 39.45 11.74C39.1633 11.4933 38.9433 11.1333 38.79 10.66C38.6433 10.18 38.57 9.6 38.57 8.92C38.57 8.26 38.6433 7.69333 38.79 7.22C38.9433 6.74 39.1633 6.37333 39.45 6.12C39.7367 5.86 40.0867 5.73 40.5 5.73C40.9133 5.73 41.2633 5.86 41.55 6.12C41.8367 6.37333 42.0533 6.74 42.2 7.22C42.3533 7.69333 42.43 8.26 42.43 8.92C42.43 9.6 42.3533 10.18 42.2 10.66C42.0533 11.1333 41.8367 11.4933 41.55 11.74C41.2633 11.9867 40.9133 12.11 40.5 12.11ZM40.5 11.5C40.7533 11.5 40.97 11.4 41.15 11.2C41.33 11 41.4667 10.71 41.56 10.33C41.66 9.94333 41.71 9.47333 41.71 8.92C41.71 8.39333 41.66 7.94 41.56 7.56C41.4667 7.17333 41.33 6.87333 41.15 6.66C40.97 6.44667 40.7533 6.34 40.5 6.34C40.2467 6.34 40.03 6.44667 39.85 6.66C39.67 6.87333 39.53 7.17333 39.43 7.56C39.3367 7.94 39.29 8.39333 39.29 8.92C39.29 9.47333 39.3367 9.94333 39.43 10.33C39.53 10.71 39.67 11 39.85 11.2C40.03 11.4 40.2467 11.5 40.5 11.5ZM45.4 12.11C45.0733 12.11 44.76 12.05 44.46 11.93C44.16 11.81 43.9033 11.6333 43.69 11.4L44.15 10.85L44.22 10.77L44.27 10.82C44.2767 10.8733 44.29 10.9267 44.31 10.98C44.33 11.0267 44.3767 11.09 44.45 11.17C44.5633 11.27 44.6933 11.3533 44.84 11.42C44.9867 11.48 45.1633 11.51 45.37 11.51C45.6367 11.51 45.8567 11.4567 46.03 11.35C46.2033 11.2433 46.3333 11.0967 46.42 10.91C46.5067 10.7167 46.55 10.5 46.55 10.26C46.55 10.02 46.5067 9.81667 46.42 9.65C46.34 9.48333 46.2233 9.35333 46.07 9.26C45.9167 9.16 45.7333 9.09333 45.52 9.06C45.3067 9.02 45.0667 9.01333 44.8 9.04V8.48C45.12 8.48 45.38 8.44667 45.58 8.38C45.7867 8.31333 45.9433 8.22333 46.05 8.11C46.1633 7.99667 46.24 7.86667 46.28 7.72C46.32 7.56667 46.34 7.41 46.34 7.25C46.34 7.11 46.3167 6.98333 46.27 6.87C46.23 6.75667 46.17 6.66 46.09 6.58C46.0167 6.5 45.9233 6.44 45.81 6.4C45.7033 6.35333 45.5833 6.33 45.45 6.33C45.3167 6.33 45.1833 6.34667 45.05 6.38C44.9233 6.40667 44.7967 6.45333 44.67 6.52C44.55 6.58667 44.43 6.67667 44.31 6.79L43.89 6.37C44.1167 6.13667 44.3633 5.97333 44.63 5.88C44.9033 5.78 45.1733 5.73 45.44 5.73C45.78 5.73 46.07 5.79667 46.31 5.93C46.55 6.05667 46.7333 6.23667 46.86 6.47C46.9933 6.70333 47.06 6.97333 47.06 7.28C47.06 7.49333 47.0233 7.69667 46.95 7.89C46.8833 8.07667 46.7767 8.24 46.63 8.38C46.4833 8.52 46.3 8.62667 46.08 8.7C46.3133 8.77333 46.52 8.88333 46.7 9.03C46.88 9.17 47.02 9.34333 47.12 9.55C47.22 9.75667 47.27 10.0033 47.27 10.29C47.27 10.6167 47.1967 10.92 47.05 11.2C46.91 11.4733 46.7 11.6933 46.42 11.86C46.1467 12.0267 45.8067 12.11 45.4 12.11ZM49.11 9.19V8.52H51.91V9.19H49.11ZM53.73 11.44C54.09 11.0733 54.42 10.74 54.72 10.44C55.02 10.14 55.2867 9.86333 55.52 9.61C55.76 9.35 55.9633 9.10667 56.13 8.88C56.2967 8.64667 56.4233 8.42 56.51 8.2C56.5967 7.97333 56.64 7.73667 56.64 7.49C56.64 7.27667 56.6133 7.09667 56.56 6.95C56.5067 6.80333 56.43 6.68667 56.33 6.6C56.2367 6.50667 56.1233 6.44 55.99 6.4C55.8633 6.36 55.7267 6.34 55.58 6.34C55.42 6.34 55.2667 6.36333 55.12 6.41C54.9733 6.45667 54.8333 6.52667 54.7 6.62C54.5667 6.70667 54.4433 6.82333 54.33 6.97C54.27 7.06333 54.2333 7.13667 54.22 7.19C54.2067 7.23667 54.2033 7.28667 54.21 7.34L54.17 7.39L54.09 7.34L53.58 6.94C53.7133 6.68 53.88 6.46 54.08 6.28C54.28 6.1 54.5067 5.96333 54.76 5.87C55.0133 5.77667 55.2833 5.73 55.57 5.73C55.9233 5.73 56.2333 5.80333 56.5 5.95C56.7667 6.09 56.9767 6.29333 57.13 6.56C57.2833 6.82667 57.36 7.14333 57.36 7.51C57.36 7.78333 57.31 8.05 57.21 8.31C57.11 8.56333 56.9733 8.81333 56.8 9.06C56.6267 9.30667 56.4233 9.55333 56.19 9.8C55.9567 10.0467 55.7067 10.3033 55.44 10.57C55.18 10.83 54.91 11.1033 54.63 11.39H56.95C57.0633 11.39 57.1433 11.3833 57.19 11.37C57.2367 11.3567 57.28 11.33 57.32 11.29H57.39V11.39V12H53.73V11.44ZM59.07 10.46L61.74 7.03L61.97 7.5L59.3 10.89L59.07 10.46ZM60.5 12.11C60.0867 12.11 59.7367 11.9867 59.45 11.74C59.1633 11.4933 58.9433 11.1333 58.79 10.66C58.6433 10.18 58.57 9.6 58.57 8.92C58.57 8.26 58.6433 7.69333 58.79 7.22C58.9433 6.74 59.1633 6.37333 59.45 6.12C59.7367 5.86 60.0867 5.73 60.5 5.73C60.9133 5.73 61.2633 5.86 61.55 6.12C61.8367 6.37333 62.0533 6.74 62.2 7.22C62.3533 7.69333 62.43 8.26 62.43 8.92C62.43 9.6 62.3533 10.18 62.2 10.66C62.0533 11.1333 61.8367 11.4933 61.55 11.74C61.2633 11.9867 60.9133 12.11 60.5 12.11ZM60.5 11.5C60.7533 11.5 60.97 11.4 61.15 11.2C61.33 11 61.4667 10.71 61.56 10.33C61.66 9.94333 61.71 9.47333 61.71 8.92C61.71 8.39333 61.66 7.94 61.56 7.56C61.4667 7.17333 61.33 6.87333 61.15 6.66C60.97 6.44667 60.7533 6.34 60.5 6.34C60.2467 6.34 60.03 6.44667 59.85 6.66C59.67 6.87333 59.53 7.17333 59.43 7.56C59.3367 7.94 59.29 8.39333 59.29 8.92C59.29 9.47333 59.3367 9.94333 59.43 10.33C59.53 10.71 59.67 11 59.85 11.2C60.03 11.4 60.2467 11.5 60.5 11.5ZM63.73 11.44C64.09 11.0733 64.42 10.74 64.72 10.44C65.02 10.14 65.2867 9.86333 65.52 9.61C65.76 9.35 65.9633 9.10667 66.13 8.88C66.2967 8.64667 66.4233 8.42 66.51 8.2C66.5967 7.97333 66.64 7.73667 66.64 7.49C66.64 7.27667 66.6133 7.09667 66.56 6.95C66.5067 6.80333 66.43 6.68667 66.33 6.6C66.2367 6.50667 66.1233 6.44 65.99 6.4C65.8633 6.36 65.7267 6.34 65.58 6.34C65.42 6.34 65.2667 6.36333 65.12 6.41C64.9733 6.45667 64.8333 6.52667 64.7 6.62C64.5667 6.70667 64.4433 6.82333 64.33 6.97C64.27 7.06333 64.2333 7.13667 64.22 7.19C64.2067 7.23667 64.2033 7.28667 64.21 7.34L64.17 7.39L64.09 7.34L63.58 6.94C63.7133 6.68 63.88 6.46 64.08 6.28C64.28 6.1 64.5067 5.96333 64.76 5.87C65.0133 5.77667 65.2833 5.73 65.57 5.73C65.9233 5.73 66.2333 5.80333 66.5 5.95C66.7667 6.09 66.9767 6.29333 67.13 6.56C67.2833 6.82667 67.36 7.14333 67.36 7.51C67.36 7.78333 67.31 8.05 67.21 8.31C67.11 8.56333 66.9733 8.81333 66.8 9.06C66.6267 9.30667 66.4233 9.55333 66.19 9.8C65.9567 10.0467 65.7067 10.3033 65.44 10.57C65.18 10.83 64.91 11.1033 64.63 11.39H66.95C67.0633 11.39 67.1433 11.3833 67.19 11.37C67.2367 11.3567 67.28 11.33 67.32 11.29H67.39V11.39V12H63.73V11.44ZM70.49 12.11C70.11 12.11 69.7567 12.0267 69.43 11.86C69.11 11.6933 68.8467 11.4567 68.64 11.15L69.2 10.73L69.28 10.67L69.32 10.72C69.3133 10.7733 69.32 10.8233 69.34 10.87C69.3667 10.9167 69.4133 10.9833 69.48 11.07C69.6133 11.2167 69.76 11.3267 69.92 11.4C70.0867 11.4667 70.29 11.5 70.53 11.5C70.69 11.5 70.8433 11.4667 70.99 11.4C71.1367 11.3267 71.2633 11.2267 71.37 11.1C71.4833 10.9733 71.5733 10.8167 71.64 10.63C71.7067 10.4433 71.74 10.2367 71.74 10.01C71.74 9.77667 71.7067 9.57 71.64 9.39C71.5733 9.20333 71.48 9.04667 71.36 8.92C71.2467 8.79333 71.1133 8.69667 70.96 8.63C70.8067 8.56333 70.64 8.53 70.46 8.53C70.32 8.53 70.1767 8.55333 70.03 8.6C69.89 8.64667 69.7567 8.71333 69.63 8.8C69.51 8.88667 69.3967 8.99333 69.29 9.12L68.85 8.94L69.06 5.77H72.22V6.4H69.65L69.55 8.19C69.6633 8.13667 69.7733 8.09333 69.88 8.06C69.9933 8.02 70.1067 7.99333 70.22 7.98C70.34 7.96 70.4567 7.95 70.57 7.95C70.8433 7.95 71.0933 8 71.32 8.1C71.5467 8.19333 71.7433 8.33333 71.91 8.52C72.0833 8.7 72.2167 8.92 72.31 9.18C72.4033 9.43333 72.45 9.72 72.45 10.04C72.45 10.4667 72.3633 10.8367 72.19 11.15C72.0167 11.4567 71.7833 11.6933 71.49 11.86C71.1967 12.0267 70.8633 12.11 70.49 12.11ZM75.38 12.11C75.22 12.11 75.0833 12.0533 74.97 11.94C74.8567 11.8267 74.8 11.6933 74.8 11.54C74.8 11.3867 74.8567 11.2533 74.97 11.14C75.0833 11.0267 75.22 10.97 75.38 10.97C75.5333 10.97 75.6667 11.0267 75.78 11.14C75.8933 11.2533 75.95 11.3867 75.95 11.54C75.95 11.6933 75.8933 11.8267 75.78 11.94C75.6667 12.0533 75.5333 12.11 75.38 12.11ZM79.07 10.46L81.74 7.03L81.97 7.5L79.3 10.89L79.07 10.46ZM80.5 12.11C80.0867 12.11 79.7367 11.9867 79.45 11.74C79.1633 11.4933 78.9433 11.1333 78.79 10.66C78.6433 10.18 78.57 9.6 78.57 8.92C78.57 8.26 78.6433 7.69333 78.79 7.22C78.9433 6.74 79.1633 6.37333 79.45 6.12C79.7367 5.86 80.0867 5.73 80.5 5.73C80.9133 5.73 81.2633 5.86 81.55 6.12C81.8367 6.37333 82.0533 6.74 82.2 7.22C82.3533 7.69333 82.43 8.26 82.43 8.92C82.43 9.6 82.3533 10.18 82.2 10.66C82.0533 11.1333 81.8367 11.4933 81.55 11.74C81.2633 11.9867 80.9133 12.11 80.5 12.11ZM80.5 11.5C80.7533 11.5 80.97 11.4 81.15 11.2C81.33 11 81.4667 10.71 81.56 10.33C81.66 9.94333 81.71 9.47333 81.71 8.92C81.71 8.39333 81.66 7.94 81.56 7.56C81.4667 7.17333 81.33 6.87333 81.15 6.66C80.97 6.44667 80.7533 6.34 80.5 6.34C80.2467 6.34 80.03 6.44667 79.85 6.66C79.67 6.87333 79.53 7.17333 79.43 7.56C79.3367 7.94 79.29 8.39333 79.29 8.92C79.29 9.47333 79.3367 9.94333 79.43 10.33C79.53 10.71 79.67 11 79.85 11.2C80.03 11.4 80.2467 11.5 80.5 11.5ZM85.61 12.1C85.1967 12.1 84.8433 11.98 84.55 11.74C84.2633 11.5 84.0433 11.16 83.89 10.72C83.7433 10.28 83.67 9.76 83.67 9.16C83.67 8.41333 83.76 7.78333 83.94 7.27C84.1267 6.75667 84.3833 6.36667 84.71 6.1C85.0433 5.83333 85.43 5.7 85.87 5.7C86.13 5.7 86.3733 5.74667 86.6 5.84C86.8333 5.93333 87.0467 6.07667 87.24 6.27L86.8 6.77L86.73 6.85L86.68 6.8C86.6733 6.74667 86.6567 6.69667 86.63 6.65C86.61 6.60333 86.5567 6.54333 86.47 6.47C86.4167 6.43 86.36 6.4 86.3 6.38C86.24 6.36 86.1767 6.34667 86.11 6.34C86.0433 6.32667 85.97 6.32 85.89 6.32C85.7833 6.32 85.6633 6.34 85.53 6.38C85.3967 6.42 85.2633 6.49 85.13 6.59C84.9967 6.69 84.87 6.83 84.75 7.01C84.6367 7.19 84.5433 7.42333 84.47 7.71C84.4033 7.99 84.3667 8.33 84.36 8.73C84.4533 8.57 84.57 8.43667 84.71 8.33C84.85 8.21667 85.0033 8.13 85.17 8.07C85.3367 8.01 85.5067 7.98 85.68 7.98C85.9133 7.98 86.1333 8.03 86.34 8.13C86.5467 8.22333 86.7267 8.36 86.88 8.54C87.04 8.72 87.1633 8.93667 87.25 9.19C87.3433 9.43667 87.39 9.71333 87.39 10.02C87.39 10.4333 87.31 10.7967 87.15 11.11C86.99 11.4233 86.7767 11.6667 86.51 11.84C86.2433 12.0133 85.9433 12.1 85.61 12.1ZM85.64 11.48C85.78 11.48 85.9133 11.45 86.04 11.39C86.1733 11.3233 86.29 11.23 86.39 11.11C86.49 10.99 86.5667 10.84 86.62 10.66C86.68 10.48 86.71 10.27 86.71 10.03C86.71 9.77667 86.6767 9.56 86.61 9.38C86.55 9.2 86.4667 9.05333 86.36 8.94C86.2533 8.82 86.1333 8.73333 86 8.68C85.8733 8.62 85.7467 8.59 85.62 8.59C85.5 8.59 85.38 8.61333 85.26 8.66C85.1467 8.7 85.0367 8.76 84.93 8.84C84.8233 8.91333 84.7233 9 84.63 9.1C84.5433 9.2 84.4667 9.31 84.4 9.43C84.3733 9.65667 84.38 9.89 84.42 10.13C84.4667 10.37 84.5433 10.5933 84.65 10.8C84.7633 11 84.9033 11.1633 85.07 11.29C85.2367 11.4167 85.4267 11.48 85.64 11.48Z" fill="white"/>
<path d="M37.5 35.0625V28.5H42.1875V29.4375H43.125V30.375H44.0625V33.1875H43.125V34.125H42.1875V35.0625H37.5ZM39.375 34.125H41.25V33.1875H42.1875V30.375H41.25V29.4375H39.375V34.125ZM45.9375 35.0625V34.125H45V33.1875H45.9375V32.25H49.6875V31.3125H45.9375V30.375H50.625V31.3125H51.5625V35.0625H45.9375ZM46.875 34.125H49.6875V33.1875H46.875V34.125ZM55.3125 35.0625V31.3125H53.4375V30.375H55.3125V28.5H57.1875V30.375H59.0625V31.3125H57.1875V35.0625H55.3125ZM60.9375 35.0625V34.125H60V33.1875H60.9375V32.25H64.6875V31.3125H60.9375V30.375H65.625V31.3125H66.5625V35.0625H60.9375ZM61.875 34.125H64.6875V33.1875H61.875V34.125ZM15 43.0625V36.5H20.625V37.4375H21.5625V40.25H20.625V41.1875H16.875V43.0625H15ZM16.875 40.25H19.6875V37.4375H16.875V40.25ZM25.3125 39.3125H26.25V40.25H25.3125V43.0625H23.4375V38.375H25.3125V39.3125ZM29.0625 38.375V39.3125H26.25V38.375H29.0625ZM30.9375 43.0625V42.125H30V39.3125H30.9375V38.375H35.625V39.3125H36.5625V42.125H35.625V43.0625H30.9375ZM31.875 42.125H34.6875V39.3125H31.875V42.125ZM38.4375 43.0625V42.125H37.5V39.3125H38.4375V38.375H44.0625V39.3125H39.375V42.125H44.0625V43.0625H38.4375ZM45.9375 43.0625V42.125H45V39.3125H45.9375V38.375H50.625V39.3125H51.5625V41.1875H46.875V42.125H50.625V43.0625H45.9375ZM46.875 40.25H49.6875V39.3125H46.875V40.25ZM52.5 43.0625V42.125H57.1875V41.1875H53.4375V40.25H52.5V39.3125H53.4375V38.375H58.125V39.3125H54.375V40.25H58.125V41.1875H59.0625V42.125H58.125V43.0625H52.5ZM60 43.0625V42.125H64.6875V41.1875H60.9375V40.25H60V39.3125H60.9375V38.375H65.625V39.3125H61.875V40.25H65.625V41.1875H66.5625V42.125H65.625V43.0625H60ZM70.3125 37.4375V36.5H72.1875V37.4375H70.3125ZM68.4375 43.0625V42.125H70.3125V39.3125H69.375V38.375H72.1875V42.125H74.0625V43.0625H68.4375ZM75 43.0625V38.375H80.625V39.3125H81.5625V43.0625H79.6875V39.3125H76.875V43.0625H75ZM83.4375 44V43.0625H87.1875V42.125H83.4375V41.1875H82.5V39.3125H83.4375V38.375H89.0625V43.0625H88.125V44H83.4375ZM84.375 41.1875H87.1875V39.3125H84.375V41.1875Z" fill="white"/>
</svg>
