<svg width="340" height="77" viewBox="0 0 340 77" fill="none" xmlns="http://www.w3.org/2000/svg">
<rect x="1" y="14" width="338" height="56" fill="white" stroke="black"/>
<path d="M181.5 14L91 14V1.00001L181.5 1V14Z" fill="black" stroke="black"/>
<path d="M102.432 11V6.952H101.144V6.016H104.872V6.952H103.504V11H102.432ZM107.16 11.096C106.893 11.096 106.643 11.0533 106.408 10.968C106.179 10.8773 105.976 10.7493 105.8 10.584C105.629 10.4187 105.496 10.216 105.4 9.976C105.304 9.73067 105.256 9.456 105.256 9.152C105.256 8.84267 105.301 8.56533 105.392 8.32C105.488 8.06933 105.616 7.85867 105.776 7.688C105.941 7.512 106.133 7.37867 106.352 7.288C106.571 7.192 106.808 7.144 107.064 7.144C107.283 7.144 107.491 7.184 107.688 7.264C107.891 7.344 108.069 7.464 108.224 7.624C108.379 7.77867 108.501 7.97333 108.592 8.208C108.683 8.43733 108.728 8.70133 108.728 9C108.728 9.064 108.728 9.144 108.728 9.24C108.728 9.336 108.725 9.41333 108.72 9.472H106.344C106.355 9.60533 106.387 9.72 106.44 9.816C106.493 9.90667 106.56 9.984 106.64 10.048C106.725 10.1067 106.816 10.152 106.912 10.184C107.013 10.2107 107.115 10.224 107.216 10.224C107.323 10.224 107.424 10.216 107.52 10.2C107.616 10.184 107.709 10.1547 107.8 10.112C107.891 10.064 107.979 9.99733 108.064 9.912L108.624 10.456C108.496 10.6053 108.355 10.728 108.2 10.824C108.045 10.92 107.88 10.9893 107.704 11.032C107.528 11.0747 107.347 11.096 107.16 11.096ZM106.352 8.64H107.656C107.656 8.53333 107.643 8.44267 107.616 8.368C107.589 8.288 107.549 8.224 107.496 8.176C107.443 8.12267 107.376 8.08533 107.296 8.064C107.216 8.03733 107.125 8.024 107.024 8.024C106.933 8.024 106.848 8.03733 106.768 8.064C106.693 8.08533 106.627 8.12267 106.568 8.176C106.509 8.224 106.461 8.288 106.424 8.368C106.387 8.44267 106.363 8.53333 106.352 8.64ZM111.192 11.096C110.915 11.096 110.656 11.0507 110.416 10.96C110.176 10.864 109.965 10.7307 109.784 10.56C109.608 10.384 109.469 10.1787 109.368 9.944C109.272 9.70933 109.224 9.45067 109.224 9.168C109.224 8.89067 109.272 8.62933 109.368 8.384C109.469 8.13867 109.608 7.92533 109.784 7.744C109.965 7.55733 110.176 7.41067 110.416 7.304C110.656 7.19733 110.917 7.144 111.2 7.144C111.573 7.144 111.893 7.21067 112.16 7.344C112.427 7.472 112.637 7.65333 112.792 7.888L112.192 8.568L112.144 8.624L112.072 8.568C112.067 8.52533 112.061 8.48 112.056 8.432C112.051 8.384 112.021 8.32533 111.968 8.256C111.877 8.16533 111.773 8.104 111.656 8.072C111.539 8.04 111.405 8.024 111.256 8.024C111.139 8.024 111.027 8.05067 110.92 8.104C110.813 8.152 110.717 8.224 110.632 8.32C110.547 8.416 110.48 8.536 110.432 8.68C110.384 8.824 110.36 8.992 110.36 9.184C110.36 9.34933 110.384 9.49867 110.432 9.632C110.485 9.76 110.552 9.86667 110.632 9.952C110.717 10.0373 110.811 10.104 110.912 10.152C111.019 10.1947 111.125 10.216 111.232 10.216C111.339 10.216 111.443 10.2027 111.544 10.176C111.651 10.1493 111.755 10.104 111.856 10.04C111.963 9.97067 112.064 9.87467 112.16 9.752L112.768 10.448C112.56 10.6827 112.312 10.8507 112.024 10.952C111.736 11.048 111.459 11.096 111.192 11.096ZM113.344 5.6H114.48H114.552V5.688C114.525 5.72 114.507 5.75467 114.496 5.792C114.491 5.82933 114.488 5.89333 114.488 5.984V7.616C114.573 7.49867 114.672 7.408 114.784 7.344C114.896 7.27467 115.013 7.224 115.136 7.192C115.264 7.16 115.387 7.144 115.504 7.144C115.76 7.144 115.979 7.2 116.16 7.312C116.347 7.41867 116.491 7.58933 116.592 7.824C116.693 8.05867 116.744 8.36267 116.744 8.736V11H115.608V8.744C115.608 8.552 115.592 8.4 115.56 8.288C115.528 8.17067 115.48 8.088 115.416 8.04C115.357 7.992 115.28 7.968 115.184 7.968C115.093 7.968 115.011 7.98133 114.936 8.008C114.867 8.03467 114.803 8.072 114.744 8.12C114.691 8.168 114.643 8.22933 114.6 8.304C114.563 8.37333 114.533 8.45333 114.512 8.544C114.496 8.63467 114.488 8.73333 114.488 8.84V11H113.344V5.6ZM124.12 11.12L123.752 10.608C123.645 10.7147 123.531 10.8053 123.408 10.88C123.291 10.9493 123.163 11.0027 123.024 11.04C122.885 11.0773 122.739 11.096 122.584 11.096C122.291 11.096 122.04 11.04 121.832 10.928C121.629 10.8107 121.472 10.6533 121.36 10.456C121.253 10.2533 121.2 10.0267 121.2 9.776C121.2 9.62133 121.216 9.47467 121.248 9.336C121.28 9.192 121.328 9.056 121.392 8.928C121.461 8.79467 121.549 8.672 121.656 8.56C121.763 8.44267 121.891 8.336 122.04 8.24C121.875 8.04267 121.757 7.85067 121.688 7.664C121.624 7.47733 121.592 7.27467 121.592 7.056C121.592 6.896 121.627 6.74933 121.696 6.616C121.765 6.47733 121.859 6.35733 121.976 6.256C122.099 6.15467 122.235 6.07733 122.384 6.024C122.539 5.96533 122.696 5.936 122.856 5.936C123.091 5.936 123.293 5.98933 123.464 6.096C123.64 6.20267 123.776 6.34133 123.872 6.512C123.968 6.68267 124.016 6.864 124.016 7.056C124.016 7.232 123.997 7.38933 123.96 7.528C123.923 7.66133 123.869 7.784 123.8 7.896C123.736 8.00267 123.659 8.104 123.568 8.2C123.483 8.29067 123.387 8.384 123.28 8.48L123.88 9.304C123.901 9.272 123.925 9.23467 123.952 9.192C123.984 9.144 124.013 9.09333 124.04 9.04C124.072 8.98667 124.096 8.936 124.112 8.888C124.133 8.83467 124.144 8.78667 124.144 8.744C124.144 8.712 124.147 8.68267 124.152 8.656C124.157 8.62933 124.176 8.59733 124.208 8.56L124.928 9.064C124.875 9.192 124.819 9.30933 124.76 9.416C124.707 9.52267 124.651 9.62133 124.592 9.712C124.539 9.79733 124.48 9.88 124.416 9.96L124.792 10.464L124.12 11.12ZM122.672 10.256C122.741 10.256 122.808 10.2453 122.872 10.224C122.936 10.2027 123 10.1707 123.064 10.128C123.128 10.08 123.187 10.0267 123.24 9.968L122.56 8.976C122.496 9.02933 122.44 9.08267 122.392 9.136C122.344 9.18933 122.304 9.24533 122.272 9.304C122.245 9.36267 122.224 9.42667 122.208 9.496C122.197 9.56 122.192 9.62933 122.192 9.704C122.192 9.78933 122.2 9.86667 122.216 9.936C122.237 10.0053 122.267 10.064 122.304 10.112C122.347 10.16 122.397 10.1973 122.456 10.224C122.515 10.2453 122.587 10.256 122.672 10.256ZM122.76 7.768C122.824 7.72533 122.88 7.68 122.928 7.632C122.976 7.584 123.016 7.53067 123.048 7.472C123.08 7.41333 123.104 7.352 123.12 7.288C123.136 7.224 123.144 7.15733 123.144 7.088C123.144 7.008 123.125 6.93333 123.088 6.864C123.051 6.78933 122.976 6.752 122.864 6.752C122.784 6.752 122.717 6.77067 122.664 6.808C122.611 6.84533 122.571 6.89067 122.544 6.944C122.523 6.99733 122.512 7.04533 122.512 7.088C122.512 7.152 122.52 7.224 122.536 7.304C122.552 7.37867 122.579 7.456 122.616 7.536C122.653 7.61067 122.701 7.688 122.76 7.768ZM129.504 11V10.096H130.472V6.92H129.552V6.016H132.496V6.92H131.528V10.096H132.536V11H129.504ZM133.344 11V7.232H134.488V7.664C134.573 7.56267 134.661 7.47467 134.752 7.4C134.843 7.32 134.944 7.25867 135.056 7.216C135.173 7.168 135.304 7.144 135.448 7.144C135.672 7.144 135.883 7.2 136.08 7.312C136.277 7.41867 136.437 7.58933 136.56 7.824C136.683 8.05333 136.744 8.35733 136.744 8.736V11H135.608V8.744C135.608 8.57333 135.592 8.432 135.56 8.32C135.528 8.20267 135.477 8.11467 135.408 8.056C135.339 7.99733 135.251 7.968 135.144 7.968C135.059 7.968 134.976 7.98667 134.896 8.024C134.816 8.056 134.744 8.104 134.68 8.168C134.621 8.232 134.573 8.30933 134.536 8.4C134.504 8.49067 134.488 8.592 134.488 8.704V11H133.344ZM139.392 11.096C139.195 11.096 139.013 11.064 138.848 11C138.683 10.9413 138.541 10.84 138.424 10.696C138.307 10.5467 138.219 10.344 138.16 10.088C138.101 9.832 138.08 9.50667 138.096 9.112L138.208 6.392L139.36 6.24L139.432 6.232L139.44 6.32C139.419 6.35733 139.397 6.39467 139.376 6.432C139.355 6.46933 139.341 6.53333 139.336 6.624L139.24 7.856H139.288L139.224 9.056C139.208 9.36 139.219 9.59733 139.256 9.768C139.299 9.93333 139.357 10.048 139.432 10.112C139.512 10.176 139.595 10.208 139.68 10.208C139.845 10.208 139.995 10.1733 140.128 10.104C140.267 10.0347 140.387 9.95733 140.488 9.872L140.68 10.664C140.499 10.7973 140.301 10.904 140.088 10.984C139.88 11.0587 139.648 11.096 139.392 11.096ZM137.408 7.232H140.432L140.416 8.112H137.392L137.408 7.232ZM143.16 11.096C142.893 11.096 142.643 11.0533 142.408 10.968C142.179 10.8773 141.976 10.7493 141.8 10.584C141.629 10.4187 141.496 10.216 141.4 9.976C141.304 9.73067 141.256 9.456 141.256 9.152C141.256 8.84267 141.301 8.56533 141.392 8.32C141.488 8.06933 141.616 7.85867 141.776 7.688C141.941 7.512 142.133 7.37867 142.352 7.288C142.571 7.192 142.808 7.144 143.064 7.144C143.283 7.144 143.491 7.184 143.688 7.264C143.891 7.344 144.069 7.464 144.224 7.624C144.379 7.77867 144.501 7.97333 144.592 8.208C144.683 8.43733 144.728 8.70133 144.728 9C144.728 9.064 144.728 9.144 144.728 9.24C144.728 9.336 144.725 9.41333 144.72 9.472H142.344C142.355 9.60533 142.387 9.72 142.44 9.816C142.493 9.90667 142.56 9.984 142.64 10.048C142.725 10.1067 142.816 10.152 142.912 10.184C143.013 10.2107 143.115 10.224 143.216 10.224C143.323 10.224 143.424 10.216 143.52 10.2C143.616 10.184 143.709 10.1547 143.8 10.112C143.891 10.064 143.979 9.99733 144.064 9.912L144.624 10.456C144.496 10.6053 144.355 10.728 144.2 10.824C144.045 10.92 143.88 10.9893 143.704 11.032C143.528 11.0747 143.347 11.096 143.16 11.096ZM142.352 8.64H143.656C143.656 8.53333 143.643 8.44267 143.616 8.368C143.589 8.288 143.549 8.224 143.496 8.176C143.443 8.12267 143.376 8.08533 143.296 8.064C143.216 8.03733 143.125 8.024 143.024 8.024C142.933 8.024 142.848 8.03733 142.768 8.064C142.693 8.08533 142.627 8.12267 142.568 8.176C142.509 8.224 142.461 8.288 142.424 8.368C142.387 8.44267 142.363 8.53333 142.352 8.64ZM145.552 7.232H146.712V8.264L146.584 8.232C146.6 8.072 146.64 7.928 146.704 7.8C146.773 7.66667 146.861 7.552 146.968 7.456C147.075 7.35467 147.192 7.27733 147.32 7.224C147.453 7.17067 147.589 7.144 147.728 7.144C147.947 7.144 148.141 7.17867 148.312 7.248C148.483 7.31733 148.643 7.42933 148.792 7.584L148.328 8.552L148.304 8.616L148.224 8.584C148.203 8.54133 148.187 8.496 148.176 8.448C148.165 8.39467 148.131 8.336 148.072 8.272C148.003 8.21333 147.923 8.16533 147.832 8.128C147.747 8.08533 147.651 8.064 147.544 8.064C147.421 8.064 147.307 8.08267 147.2 8.12C147.099 8.15733 147.011 8.216 146.936 8.296C146.861 8.376 146.803 8.47733 146.76 8.6C146.717 8.72267 146.696 8.86933 146.696 9.04V11H145.552V7.232ZM150.512 11.096C150.107 11.096 149.789 11 149.56 10.808C149.331 10.6107 149.216 10.352 149.216 10.032C149.216 9.82933 149.259 9.64267 149.344 9.472C149.429 9.296 149.563 9.144 149.744 9.016C149.925 8.88267 150.157 8.77867 150.44 8.704C150.723 8.62933 151.061 8.592 151.456 8.592C151.472 8.592 151.501 8.592 151.544 8.592C151.587 8.592 151.635 8.592 151.688 8.592C151.741 8.592 151.787 8.592 151.824 8.592L151.856 9.344C151.824 9.344 151.779 9.344 151.72 9.344C151.661 9.344 151.6 9.34667 151.536 9.352C151.477 9.352 151.432 9.352 151.4 9.352C151.171 9.352 150.987 9.368 150.848 9.4C150.709 9.42667 150.603 9.46667 150.528 9.52C150.459 9.568 150.411 9.624 150.384 9.688C150.357 9.74667 150.344 9.80533 150.344 9.864C150.344 9.928 150.355 9.984 150.376 10.032C150.397 10.08 150.427 10.1173 150.464 10.144C150.501 10.1707 150.547 10.192 150.6 10.208C150.653 10.2187 150.709 10.224 150.768 10.224C150.896 10.224 151.005 10.2027 151.096 10.16C151.187 10.1173 151.261 10.048 151.32 9.952C151.384 9.85067 151.429 9.72267 151.456 9.568C151.488 9.41333 151.504 9.224 151.504 9C151.504 8.728 151.477 8.52 151.424 8.376C151.376 8.232 151.304 8.136 151.208 8.088C151.117 8.03467 151.005 8.008 150.872 8.008C150.707 8.008 150.555 8.032 150.416 8.08C150.277 8.12267 150.131 8.224 149.976 8.384L149.336 7.728C149.576 7.50933 149.832 7.35733 150.104 7.272C150.381 7.18667 150.651 7.144 150.912 7.144C151.141 7.144 151.357 7.17067 151.56 7.224C151.768 7.272 151.952 7.35467 152.112 7.472C152.277 7.58933 152.405 7.752 152.496 7.96C152.592 8.16267 152.64 8.41867 152.64 8.728V11H151.496V10.704C151.427 10.768 151.357 10.8267 151.288 10.88C151.224 10.928 151.152 10.968 151.072 11C150.997 11.032 150.915 11.056 150.824 11.072C150.733 11.088 150.629 11.096 150.512 11.096ZM155.192 11.096C154.915 11.096 154.656 11.0507 154.416 10.96C154.176 10.864 153.965 10.7307 153.784 10.56C153.608 10.384 153.469 10.1787 153.368 9.944C153.272 9.70933 153.224 9.45067 153.224 9.168C153.224 8.89067 153.272 8.62933 153.368 8.384C153.469 8.13867 153.608 7.92533 153.784 7.744C153.965 7.55733 154.176 7.41067 154.416 7.304C154.656 7.19733 154.917 7.144 155.2 7.144C155.573 7.144 155.893 7.21067 156.16 7.344C156.427 7.472 156.637 7.65333 156.792 7.888L156.192 8.568L156.144 8.624L156.072 8.568C156.067 8.52533 156.061 8.48 156.056 8.432C156.051 8.384 156.021 8.32533 155.968 8.256C155.877 8.16533 155.773 8.104 155.656 8.072C155.539 8.04 155.405 8.024 155.256 8.024C155.139 8.024 155.027 8.05067 154.92 8.104C154.813 8.152 154.717 8.224 154.632 8.32C154.547 8.416 154.48 8.536 154.432 8.68C154.384 8.824 154.36 8.992 154.36 9.184C154.36 9.34933 154.384 9.49867 154.432 9.632C154.485 9.76 154.552 9.86667 154.632 9.952C154.717 10.0373 154.811 10.104 154.912 10.152C155.019 10.1947 155.125 10.216 155.232 10.216C155.339 10.216 155.443 10.2027 155.544 10.176C155.651 10.1493 155.755 10.104 155.856 10.04C155.963 9.97067 156.064 9.87467 156.16 9.752L156.768 10.448C156.56 10.6827 156.312 10.8507 156.024 10.952C155.736 11.048 155.459 11.096 155.192 11.096ZM159.392 11.096C159.195 11.096 159.013 11.064 158.848 11C158.683 10.9413 158.541 10.84 158.424 10.696C158.307 10.5467 158.219 10.344 158.16 10.088C158.101 9.832 158.08 9.50667 158.096 9.112L158.208 6.392L159.36 6.24L159.432 6.232L159.44 6.32C159.419 6.35733 159.397 6.39467 159.376 6.432C159.355 6.46933 159.341 6.53333 159.336 6.624L159.24 7.856H159.288L159.224 9.056C159.208 9.36 159.219 9.59733 159.256 9.768C159.299 9.93333 159.357 10.048 159.432 10.112C159.512 10.176 159.595 10.208 159.68 10.208C159.845 10.208 159.995 10.1733 160.128 10.104C160.267 10.0347 160.387 9.95733 160.488 9.872L160.68 10.664C160.499 10.7973 160.301 10.904 160.088 10.984C159.88 11.0587 159.648 11.096 159.392 11.096ZM157.408 7.232H160.432L160.416 8.112H157.392L157.408 7.232ZM161.592 11V10.12H162.488V8.112H161.632V7.232H163.624V10.12H164.44V11H161.592ZM163 6.72C162.813 6.72 162.653 6.65867 162.52 6.536C162.392 6.408 162.328 6.25867 162.328 6.088C162.328 5.90133 162.389 5.74933 162.512 5.632C162.64 5.51467 162.803 5.456 163 5.456C163.176 5.456 163.331 5.52 163.464 5.648C163.603 5.77067 163.672 5.91733 163.672 6.088C163.672 6.25867 163.603 6.408 163.464 6.536C163.331 6.65867 163.176 6.72 163 6.72ZM166.992 11.096C166.656 11.096 166.349 11.016 166.072 10.856C165.795 10.6907 165.573 10.4587 165.408 10.16C165.243 9.86133 165.16 9.51467 165.16 9.12C165.16 8.752 165.243 8.41867 165.408 8.12C165.573 7.82133 165.795 7.584 166.072 7.408C166.349 7.232 166.656 7.144 166.992 7.144C167.328 7.144 167.635 7.232 167.912 7.408C168.195 7.584 168.419 7.82133 168.584 8.12C168.755 8.41867 168.84 8.752 168.84 9.12C168.84 9.50933 168.755 9.85333 168.584 10.152C168.419 10.4507 168.195 10.6827 167.912 10.848C167.635 11.0133 167.328 11.096 166.992 11.096ZM166.992 10.208C167.136 10.208 167.261 10.1627 167.368 10.072C167.48 9.98133 167.568 9.856 167.632 9.696C167.696 9.53067 167.728 9.33867 167.728 9.12C167.728 8.88533 167.696 8.688 167.632 8.528C167.568 8.368 167.48 8.24533 167.368 8.16C167.261 8.07467 167.136 8.032 166.992 8.032C166.859 8.032 166.736 8.07467 166.624 8.16C166.517 8.24533 166.432 8.368 166.368 8.528C166.304 8.688 166.272 8.88533 166.272 9.12C166.272 9.33867 166.301 9.53067 166.36 9.696C166.424 9.856 166.509 9.98133 166.616 10.072C166.728 10.1627 166.853 10.208 166.992 10.208ZM169.344 11V7.232H170.488V7.664C170.573 7.56267 170.661 7.47467 170.752 7.4C170.843 7.32 170.944 7.25867 171.056 7.216C171.173 7.168 171.304 7.144 171.448 7.144C171.672 7.144 171.883 7.2 172.08 7.312C172.277 7.41867 172.437 7.58933 172.56 7.824C172.683 8.05333 172.744 8.35733 172.744 8.736V11H171.608V8.744C171.608 8.57333 171.592 8.432 171.56 8.32C171.528 8.20267 171.477 8.11467 171.408 8.056C171.339 7.99733 171.251 7.968 171.144 7.968C171.059 7.968 170.976 7.98667 170.896 8.024C170.816 8.056 170.744 8.104 170.68 8.168C170.621 8.232 170.573 8.30933 170.536 8.4C170.504 8.49067 170.488 8.592 170.488 8.704V11H169.344Z" fill="white"/>
<path d="M66.625 51.125V39.875H62.875V38H74.125V39.875H70.375V51.125H66.625ZM77.875 51.125V49.25H76V43.625H77.875V41.75H87.25V43.625H89.125V47.375H79.75V49.25H87.25V51.125H77.875ZM79.75 45.5H85.375V43.625H79.75V45.5ZM92.875 51.125V49.25H91V43.625H92.875V41.75H104.125V43.625H94.75V49.25H104.125V51.125H92.875ZM106 51.125V38H109.75V41.75H117.25V43.625H119.125V51.125H115.375V43.625H109.75V51.125H106ZM145.375 47.375H147.25V49.25H149.125V51.125H137.875V49.25H136V45.5H137.875V43.625H136V39.875H137.875V38H143.5V39.875H145.375V43.625H143.5V45.5H145.375V47.375ZM139.75 43.625H141.625V39.875H139.75V43.625ZM143.5 47.375H141.625V45.5H139.75V49.25H143.5V47.375ZM149.125 45.5V47.375H147.25V45.5H149.125ZM167.875 51.125V49.25H171.625V39.875H167.875V38H179.125V39.875H175.375V49.25H179.125V51.125H167.875ZM181 51.125V41.75H192.25V43.625H194.125V51.125H190.375V43.625H184.75V51.125H181ZM201.625 51.125V43.625H197.875V41.75H201.625V38H205.375V41.75H209.125V43.625H205.375V51.125H201.625ZM212.875 51.125V49.25H211V43.625H212.875V41.75H222.25V43.625H224.125V47.375H214.75V49.25H222.25V51.125H212.875ZM214.75 45.5H220.375V43.625H214.75V45.5ZM231.625 43.625H233.5V45.5H231.625V51.125H227.875V41.75H231.625V43.625ZM239.125 41.75V43.625H233.5V41.75H239.125ZM242.875 51.125V49.25H241V47.375H242.875V45.5H250.375V43.625H242.875V41.75H252.25V43.625H254.125V51.125H242.875ZM244.75 49.25H250.375V47.375H244.75V49.25ZM257.875 51.125V49.25H256V43.625H257.875V41.75H269.125V43.625H259.75V49.25H269.125V51.125H257.875ZM276.625 51.125V43.625H272.875V41.75H276.625V38H280.375V41.75H284.125V43.625H280.375V51.125H276.625ZM291.625 39.875V38H295.375V39.875H291.625ZM287.875 51.125V49.25H291.625V43.625H289.75V41.75H295.375V49.25H299.125V51.125H287.875ZM302.875 51.125V49.25H301V43.625H302.875V41.75H312.25V43.625H314.125V49.25H312.25V51.125H302.875ZM304.75 49.25H310.375V43.625H304.75V49.25ZM316 51.125V41.75H327.25V43.625H329.125V51.125H325.375V43.625H319.75V51.125H316Z" fill="black"/>
<path d="M21.7327 68C19.3327 62.4 23.3994 54.6667 25.7327 51.5L26.7327 49.5C28.2327 54.5 31.2327 65 31.2327 67C31.2327 69.5 29.7327 72 28.2327 74C27.0327 75.6 24.066 76 22.7327 76C23.3994 75.6667 24.1327 73.6 21.7327 68Z" fill="black" stroke="black" stroke-linejoin="round"/>
<path d="M52.5 42.5C52.5 44.8814 51.8867 50.8689 49.4333 55.7678C46.3667 61.8914 37.6778 63.4223 33.0778 58.8296C29.1452 54.9033 30.0111 54.2369 29.5 51.1751" stroke="black" stroke-linejoin="round"/>
<path d="M25.5 43C22.4998 38.5 23.7055 29.883 30.5004 26.0001C37.5002 22 44.7446 24.3722 48.0004 26.0001C51.0004 27.5 54.0004 32.5 54.0004 36C54.0004 38.8 53.0004 41.8333 52.5004 43" stroke="black" stroke-linejoin="round"/>
<path d="M27 49C27.5 49.5 30 58.5 30 62.5C30 65.7 29 69.1667 28.5 70.5" stroke="black" stroke-linejoin="round"/>
<path d="M44.5 60.5C44 60.8333 42.9001 62.5 42.5001 64.5C42.1001 66.5 43.0001 69.3333 43.5001 70.5" stroke="black" stroke-linejoin="round"/>
<path d="M47 45.5V44.5C47 43.9477 47.4477 43.5 48 43.5C48.5523 43.5 49 43.9477 49 44.5V45.5C49 46.0523 48.5523 46.5 48 46.5C47.4477 46.5 47 46.0523 47 45.5Z" fill="black" stroke="black" stroke-width="0.5" stroke-linejoin="round"/>
<path d="M37 45.5V44.5C37 43.9477 37.4477 43.5 38 43.5C38.5523 43.5 39 43.9477 39 44.5V45.5C39 46.0523 38.5523 46.5 38 46.5C37.4477 46.5 37 46.0523 37 45.5Z" fill="black" stroke="black" stroke-width="0.5" stroke-linejoin="round"/>
<path d="M44 46.5C44.3333 47.6667 45 50.1 45 50.5C45 51 43.5 51.5 43 51.5" stroke="black" stroke-linejoin="round"/>
<path d="M41 55H45" stroke="black" stroke-linejoin="round"/>
<path d="M52.5 43C53 42.5 54 41.5 55 42C55.4472 42.2237 55 46 54 47C53.2 47.8 52.3333 48 52 48" stroke="black" stroke-linejoin="round"/>
<path d="M36.563 39.5C40.163 38.7 44.7297 34.5 46.563 32.5C46.8963 33.8333 47.763 36.8 48.563 38C49.563 39.5 51.563 40.5 52.063 41.5C52.563 42.5 52.063 51 51.563 53.5C51.163 55.5 49.063 59 48.063 60.5C49.563 59 52.763 55.3 53.563 52.5C54.563 49 55.563 36.5 55.063 35C54.563 33.5 53.563 29 50.563 26.5C47.563 24 42.063 23 40.563 23C39.063 23 35.0631 23 30.5631 25.5C26.0631 28 23.5631 34.5 24.0631 38.5C24.5631 42.5 25.5631 43.5 25.5631 43C25.5631 42.6 27.2298 42.1667 28.0631 42H29.5631V47.5C29.5631 53.5 32.5631 59 34.0631 61C33.5631 59.6667 32.463 56.5 32.063 54.5C31.563 52 32.063 40.5 36.563 39.5Z" fill="black" stroke="black" stroke-linejoin="round"/>
<path d="M29.75 43.1626C28.75 42.6626 26.55 41.9626 25.75 43.1626C24.75 44.6626 24.75 46.6626 25.75 47.6626C26.55 48.4626 28.75 50.3293 29.75 51.1626" stroke="black" stroke-linejoin="round"/>
<path d="M39 41L35.5 42.5M47 40H49.5" stroke="black"/>
<path d="M41.5 45.5C42.3 45.5 43.8333 45.5 44.5 45.5" stroke="black"/>
<circle cx="37" cy="44.5" r="4.5" fill="white" stroke="black"/>
<circle cx="49" cy="45.5" r="4.5" fill="white" stroke="black"/>
</svg>
