<svg width="186" height="28" viewBox="0 0 186 28" fill="none" xmlns="http://www.w3.org/2000/svg">
<path d="M185.032 27.5065L0.506348 27.5065V1.00002L185.032 1V27.5065Z" fill="black" stroke="black"/>
<path d="M25.1631 21.1172V13.0212H22.5871V11.1492H30.0431V13.0212H27.3071V21.1172H25.1631ZM34.6191 21.3092C34.0857 21.3092 33.5844 21.2239 33.1151 21.0532C32.6564 20.8719 32.2511 20.6159 31.8991 20.2852C31.5577 19.9545 31.2911 19.5492 31.0991 19.0692C30.9071 18.5785 30.8111 18.0292 30.8111 17.4212C30.8111 16.8025 30.9017 16.2479 31.0831 15.7572C31.2751 15.2559 31.5311 14.8345 31.8511 14.4932C32.1817 14.1412 32.5657 13.8745 33.0031 13.6932C33.4404 13.5012 33.9151 13.4052 34.4271 13.4052C34.8644 13.4052 35.2804 13.4852 35.6751 13.6452C36.0804 13.8052 36.4377 14.0452 36.7471 14.3652C37.0564 14.6745 37.3017 15.0639 37.4831 15.5332C37.6644 15.9919 37.7551 16.5199 37.7551 17.1172C37.7551 17.2452 37.7551 17.4052 37.7551 17.5972C37.7551 17.7892 37.7497 17.9439 37.7391 18.0612H32.9871C33.0084 18.3279 33.0724 18.5572 33.1791 18.7492C33.2857 18.9305 33.4191 19.0852 33.5791 19.2132C33.7497 19.3305 33.9311 19.4212 34.1231 19.4852C34.3257 19.5385 34.5284 19.5652 34.7311 19.5652C34.9444 19.5652 35.1471 19.5492 35.3391 19.5172C35.5311 19.4852 35.7177 19.4265 35.8991 19.3412C36.0804 19.2452 36.2564 19.1119 36.4271 18.9412L37.5471 20.0292C37.2911 20.3279 37.0084 20.5732 36.6991 20.7652C36.3897 20.9572 36.0591 21.0959 35.7071 21.1812C35.3551 21.2665 34.9924 21.3092 34.6191 21.3092ZM33.0031 16.3972H35.6111C35.6111 16.1839 35.5844 16.0025 35.5311 15.8532C35.4777 15.6932 35.3977 15.5652 35.2911 15.4692C35.1844 15.3625 35.0511 15.2879 34.8911 15.2452C34.7311 15.1919 34.5497 15.1652 34.3471 15.1652C34.1657 15.1652 33.9951 15.1919 33.8351 15.2452C33.6857 15.2879 33.5524 15.3625 33.4351 15.4692C33.3177 15.5652 33.2217 15.6932 33.1471 15.8532C33.0724 16.0025 33.0244 16.1839 33.0031 16.3972ZM42.6831 21.3092C42.1284 21.3092 41.6111 21.2185 41.1311 21.0372C40.6511 20.8452 40.2297 20.5785 39.8671 20.2372C39.5151 19.8852 39.2377 19.4745 39.0351 19.0052C38.8431 18.5359 38.7471 18.0185 38.7471 17.4532C38.7471 16.8985 38.8431 16.3759 39.0351 15.8852C39.2377 15.3945 39.5151 14.9679 39.8671 14.6052C40.2297 14.2319 40.6511 13.9385 41.1311 13.7252C41.6111 13.5119 42.1337 13.4052 42.6991 13.4052C43.4457 13.4052 44.0857 13.5385 44.6191 13.8052C45.1524 14.0612 45.5737 14.4239 45.8831 14.8932L44.6831 16.2532L44.5871 16.3652L44.4431 16.2532C44.4324 16.1679 44.4217 16.0772 44.4111 15.9812C44.4004 15.8852 44.3417 15.7679 44.2351 15.6292C44.0537 15.4479 43.8457 15.3252 43.6111 15.2612C43.3764 15.1972 43.1097 15.1652 42.8111 15.1652C42.5764 15.1652 42.3524 15.2185 42.1391 15.3252C41.9257 15.4212 41.7337 15.5652 41.5631 15.7572C41.3924 15.9492 41.2591 16.1892 41.1631 16.4772C41.0671 16.7652 41.0191 17.1012 41.0191 17.4852C41.0191 17.8159 41.0671 18.1145 41.1631 18.3812C41.2697 18.6372 41.4031 18.8505 41.5631 19.0212C41.7337 19.1919 41.9204 19.3252 42.1231 19.4212C42.3364 19.5065 42.5497 19.5492 42.7631 19.5492C42.9764 19.5492 43.1844 19.5225 43.3871 19.4692C43.6004 19.4159 43.8084 19.3252 44.0111 19.1972C44.2244 19.0585 44.4271 18.8665 44.6191 18.6212L45.8351 20.0132C45.4191 20.4825 44.9231 20.8185 44.3471 21.0212C43.7711 21.2132 43.2164 21.3092 42.6831 21.3092ZM46.9871 10.3172H49.2591H49.4031V10.4932C49.3497 10.5572 49.3124 10.6265 49.2911 10.7012C49.2804 10.7759 49.2751 10.9039 49.2751 11.0852V14.3492C49.4457 14.1145 49.6431 13.9332 49.8671 13.8052C50.0911 13.6665 50.3257 13.5652 50.5711 13.5012C50.8271 13.4372 51.0724 13.4052 51.3071 13.4052C51.8191 13.4052 52.2564 13.5172 52.6191 13.7412C52.9924 13.9545 53.2804 14.2959 53.4831 14.7652C53.6857 15.2345 53.7871 15.8425 53.7871 16.5892V21.1172H51.5151V16.6052C51.5151 16.2212 51.4831 15.9172 51.4191 15.6932C51.3551 15.4585 51.2591 15.2932 51.1311 15.1972C51.0137 15.1012 50.8591 15.0532 50.6671 15.0532C50.4857 15.0532 50.3204 15.0799 50.1711 15.1332C50.0324 15.1865 49.9044 15.2612 49.7871 15.3572C49.6804 15.4532 49.5844 15.5759 49.4991 15.7252C49.4244 15.8639 49.3657 16.0239 49.3231 16.2052C49.2911 16.3865 49.2751 16.5839 49.2751 16.7972V21.1172H46.9871V10.3172ZM68.5391 21.3572L67.8031 20.3332C67.5897 20.5465 67.3604 20.7279 67.1151 20.8772C66.8804 21.0159 66.6244 21.1225 66.3471 21.1972C66.0697 21.2719 65.7764 21.3092 65.4671 21.3092C64.8804 21.3092 64.3791 21.1972 63.9631 20.9732C63.5577 20.7385 63.2431 20.4239 63.0191 20.0292C62.8057 19.6239 62.6991 19.1705 62.6991 18.6692C62.6991 18.3599 62.7311 18.0665 62.7951 17.7892C62.8591 17.5012 62.9551 17.2292 63.0831 16.9732C63.2217 16.7065 63.3977 16.4612 63.6111 16.2372C63.8244 16.0025 64.0804 15.7892 64.3791 15.5972C64.0484 15.2025 63.8137 14.8185 63.6751 14.4452C63.5471 14.0719 63.4831 13.6665 63.4831 13.2292C63.4831 12.9092 63.5524 12.6159 63.6911 12.3492C63.8297 12.0719 64.0164 11.8319 64.2511 11.6292C64.4964 11.4265 64.7684 11.2719 65.0671 11.1652C65.3764 11.0479 65.6911 10.9892 66.0111 10.9892C66.4804 10.9892 66.8857 11.0959 67.2271 11.3092C67.5791 11.5225 67.8511 11.7999 68.0431 12.1412C68.2351 12.4825 68.3311 12.8452 68.3311 13.2292C68.3311 13.5812 68.2937 13.8959 68.2191 14.1732C68.1444 14.4399 68.0377 14.6852 67.8991 14.9092C67.7711 15.1225 67.6164 15.3252 67.4351 15.5172C67.2644 15.6985 67.0724 15.8852 66.8591 16.0772L68.0591 17.7252C68.1017 17.6612 68.1497 17.5865 68.2031 17.5012C68.2671 17.4052 68.3257 17.3039 68.3791 17.1972C68.4431 17.0905 68.4911 16.9892 68.5231 16.8932C68.5657 16.7865 68.5871 16.6905 68.5871 16.6052C68.5871 16.5412 68.5924 16.4825 68.6031 16.4292C68.6137 16.3759 68.6511 16.3119 68.7151 16.2372L70.1551 17.2452C70.0484 17.5012 69.9364 17.7359 69.8191 17.9492C69.7124 18.1625 69.6004 18.3599 69.4831 18.5412C69.3764 18.7119 69.2591 18.8772 69.1311 19.0372L69.8831 20.0452L68.5391 21.3572ZM65.6431 19.6292C65.7817 19.6292 65.9151 19.6079 66.0431 19.5652C66.1711 19.5225 66.2991 19.4585 66.4271 19.3732C66.5551 19.2772 66.6724 19.1705 66.7791 19.0532L65.4191 17.0692C65.2911 17.1759 65.1791 17.2825 65.0831 17.3892C64.9871 17.4959 64.9071 17.6079 64.8431 17.7252C64.7897 17.8425 64.7471 17.9705 64.7151 18.1092C64.6937 18.2372 64.6831 18.3759 64.6831 18.5252C64.6831 18.6959 64.6991 18.8505 64.7311 18.9892C64.7737 19.1279 64.8324 19.2452 64.9071 19.3412C64.9924 19.4372 65.0937 19.5119 65.2111 19.5652C65.3284 19.6079 65.4724 19.6292 65.6431 19.6292ZM65.8191 14.6532C65.9471 14.5679 66.0591 14.4772 66.1551 14.3812C66.2511 14.2852 66.3311 14.1785 66.3951 14.0612C66.4591 13.9439 66.5071 13.8212 66.5391 13.6932C66.5711 13.5652 66.5871 13.4319 66.5871 13.2932C66.5871 13.1332 66.5497 12.9839 66.4751 12.8452C66.4004 12.6959 66.2511 12.6212 66.0271 12.6212C65.8671 12.6212 65.7337 12.6585 65.6271 12.7332C65.5204 12.8079 65.4404 12.8985 65.3871 13.0052C65.3444 13.1119 65.3231 13.2079 65.3231 13.2932C65.3231 13.4212 65.3391 13.5652 65.3711 13.7252C65.4031 13.8745 65.4564 14.0292 65.5311 14.1892C65.6057 14.3385 65.7017 14.4932 65.8191 14.6532ZM79.3071 21.1172V19.3092H81.2431V12.9572H79.4031V11.1492H85.2911V12.9572H83.3551V19.3092H85.3711V21.1172H79.3071ZM86.9871 21.1172V13.5812H89.2751V14.4452C89.4457 14.2425 89.6217 14.0665 89.8031 13.9172C89.9844 13.7572 90.1871 13.6345 90.4111 13.5492C90.6457 13.4532 90.9071 13.4052 91.1951 13.4052C91.6431 13.4052 92.0644 13.5172 92.4591 13.7412C92.8537 13.9545 93.1737 14.2959 93.4191 14.7652C93.6644 15.2239 93.7871 15.8319 93.7871 16.5892V21.1172H91.5151V16.6052C91.5151 16.2639 91.4831 15.9812 91.4191 15.7572C91.3551 15.5225 91.2537 15.3465 91.1151 15.2292C90.9764 15.1119 90.8004 15.0532 90.5871 15.0532C90.4164 15.0532 90.2511 15.0905 90.0911 15.1652C89.9311 15.2292 89.7871 15.3252 89.6591 15.4532C89.5417 15.5812 89.4457 15.7359 89.3711 15.9172C89.3071 16.0985 89.2751 16.3012 89.2751 16.5252V21.1172H86.9871ZM99.0831 21.3092C98.6884 21.3092 98.3257 21.2452 97.9951 21.1172C97.6644 20.9999 97.3817 20.7972 97.1471 20.5092C96.9124 20.2105 96.7364 19.8052 96.6191 19.2932C96.5017 18.7812 96.4591 18.1305 96.4911 17.3412L96.7151 11.9012L99.0191 11.5972L99.1631 11.5812L99.1791 11.7572C99.1364 11.8319 99.0937 11.9065 99.0511 11.9812C99.0084 12.0559 98.9817 12.1839 98.9711 12.3652L98.7791 14.8292H98.8751L98.7471 17.2292C98.7151 17.8372 98.7364 18.3119 98.8111 18.6532C98.8964 18.9839 99.0137 19.2132 99.1631 19.3412C99.3231 19.4692 99.4884 19.5332 99.6591 19.5332C99.9897 19.5332 100.288 19.4639 100.555 19.3252C100.832 19.1865 101.072 19.0319 101.275 18.8612L101.659 20.4452C101.296 20.7119 100.902 20.9252 100.475 21.0852C100.059 21.2345 99.5951 21.3092 99.0831 21.3092ZM95.1151 13.5812H101.163L101.131 15.3412H95.0831L95.1151 13.5812ZM106.619 21.3092C106.086 21.3092 105.584 21.2239 105.115 21.0532C104.656 20.8719 104.251 20.6159 103.899 20.2852C103.558 19.9545 103.291 19.5492 103.099 19.0692C102.907 18.5785 102.811 18.0292 102.811 17.4212C102.811 16.8025 102.902 16.2479 103.083 15.7572C103.275 15.2559 103.531 14.8345 103.851 14.4932C104.182 14.1412 104.566 13.8745 105.003 13.6932C105.44 13.5012 105.915 13.4052 106.427 13.4052C106.864 13.4052 107.28 13.4852 107.675 13.6452C108.08 13.8052 108.438 14.0452 108.747 14.3652C109.056 14.6745 109.302 15.0639 109.483 15.5332C109.664 15.9919 109.755 16.5199 109.755 17.1172C109.755 17.2452 109.755 17.4052 109.755 17.5972C109.755 17.7892 109.75 17.9439 109.739 18.0612H104.987C105.008 18.3279 105.072 18.5572 105.179 18.7492C105.286 18.9305 105.419 19.0852 105.579 19.2132C105.75 19.3305 105.931 19.4212 106.123 19.4852C106.326 19.5385 106.528 19.5652 106.731 19.5652C106.944 19.5652 107.147 19.5492 107.339 19.5172C107.531 19.4852 107.718 19.4265 107.899 19.3412C108.08 19.2452 108.256 19.1119 108.427 18.9412L109.547 20.0292C109.291 20.3279 109.008 20.5732 108.699 20.7652C108.39 20.9572 108.059 21.0959 107.707 21.1812C107.355 21.2665 106.992 21.3092 106.619 21.3092ZM105.003 16.3972H107.611C107.611 16.1839 107.584 16.0025 107.531 15.8532C107.478 15.6932 107.398 15.5652 107.291 15.4692C107.184 15.3625 107.051 15.2879 106.891 15.2452C106.731 15.1919 106.55 15.1652 106.347 15.1652C106.166 15.1652 105.995 15.1919 105.835 15.2452C105.686 15.2879 105.552 15.3625 105.435 15.4692C105.318 15.5652 105.222 15.6932 105.147 15.8532C105.072 16.0025 105.024 16.1839 105.003 16.3972ZM111.403 13.5812H113.723V15.6452L113.467 15.5812C113.499 15.2612 113.579 14.9732 113.707 14.7172C113.846 14.4505 114.022 14.2212 114.235 14.0292C114.448 13.8265 114.683 13.6719 114.939 13.5652C115.206 13.4585 115.478 13.4052 115.755 13.4052C116.192 13.4052 116.582 13.4745 116.923 13.6132C117.264 13.7519 117.584 13.9759 117.883 14.2852L116.955 16.2212L116.907 16.3492L116.747 16.2852C116.704 16.1999 116.672 16.1092 116.651 16.0132C116.63 15.9065 116.56 15.7892 116.443 15.6612C116.304 15.5439 116.144 15.4479 115.963 15.3732C115.792 15.2879 115.6 15.2452 115.387 15.2452C115.142 15.2452 114.912 15.2825 114.699 15.3572C114.496 15.4319 114.32 15.5492 114.171 15.7092C114.022 15.8692 113.904 16.0719 113.819 16.3172C113.734 16.5625 113.691 16.8559 113.691 17.1972V21.1172H111.403V13.5812ZM121.323 21.3092C120.512 21.3092 119.878 21.1172 119.419 20.7332C118.96 20.3385 118.731 19.8212 118.731 19.1812C118.731 18.7759 118.816 18.4025 118.987 18.0612C119.158 17.7092 119.424 17.4052 119.787 17.1492C120.15 16.8825 120.614 16.6745 121.179 16.5252C121.744 16.3759 122.422 16.3012 123.211 16.3012C123.243 16.3012 123.302 16.3012 123.387 16.3012C123.472 16.3012 123.568 16.3012 123.675 16.3012C123.782 16.3012 123.872 16.3012 123.947 16.3012L124.011 17.8052C123.947 17.8052 123.856 17.8052 123.739 17.8052C123.622 17.8052 123.499 17.8105 123.371 17.8212C123.254 17.8212 123.163 17.8212 123.099 17.8212C122.64 17.8212 122.272 17.8532 121.995 17.9172C121.718 17.9705 121.504 18.0505 121.355 18.1572C121.216 18.2532 121.12 18.3652 121.067 18.4932C121.014 18.6105 120.987 18.7279 120.987 18.8452C120.987 18.9732 121.008 19.0852 121.051 19.1812C121.094 19.2772 121.152 19.3519 121.227 19.4052C121.302 19.4585 121.392 19.5012 121.499 19.5332C121.606 19.5545 121.718 19.5652 121.835 19.5652C122.091 19.5652 122.31 19.5225 122.491 19.4372C122.672 19.3519 122.822 19.2132 122.939 19.0212C123.067 18.8185 123.158 18.5625 123.211 18.2532C123.275 17.9439 123.307 17.5652 123.307 17.1172C123.307 16.5732 123.254 16.1572 123.147 15.8692C123.051 15.5812 122.907 15.3892 122.715 15.2932C122.534 15.1865 122.31 15.1332 122.043 15.1332C121.712 15.1332 121.408 15.1812 121.131 15.2772C120.854 15.3625 120.56 15.5652 120.251 15.8852L118.971 14.5732C119.451 14.1359 119.963 13.8319 120.507 13.6612C121.062 13.4905 121.6 13.4052 122.123 13.4052C122.582 13.4052 123.014 13.4585 123.419 13.5652C123.835 13.6612 124.203 13.8265 124.523 14.0612C124.854 14.2959 125.11 14.6212 125.291 15.0372C125.483 15.4425 125.579 15.9545 125.579 16.5732V21.1172H123.291V20.5252C123.152 20.6532 123.014 20.7705 122.875 20.8772C122.747 20.9732 122.603 21.0532 122.443 21.1172C122.294 21.1812 122.128 21.2292 121.947 21.2612C121.766 21.2932 121.558 21.3092 121.323 21.3092ZM130.683 21.3092C130.128 21.3092 129.611 21.2185 129.131 21.0372C128.651 20.8452 128.23 20.5785 127.867 20.2372C127.515 19.8852 127.238 19.4745 127.035 19.0052C126.843 18.5359 126.747 18.0185 126.747 17.4532C126.747 16.8985 126.843 16.3759 127.035 15.8852C127.238 15.3945 127.515 14.9679 127.867 14.6052C128.23 14.2319 128.651 13.9385 129.131 13.7252C129.611 13.5119 130.134 13.4052 130.699 13.4052C131.446 13.4052 132.086 13.5385 132.619 13.8052C133.152 14.0612 133.574 14.4239 133.883 14.8932L132.683 16.2532L132.587 16.3652L132.443 16.2532C132.432 16.1679 132.422 16.0772 132.411 15.9812C132.4 15.8852 132.342 15.7679 132.235 15.6292C132.054 15.4479 131.846 15.3252 131.611 15.2612C131.376 15.1972 131.11 15.1652 130.811 15.1652C130.576 15.1652 130.352 15.2185 130.139 15.3252C129.926 15.4212 129.734 15.5652 129.563 15.7572C129.392 15.9492 129.259 16.1892 129.163 16.4772C129.067 16.7652 129.019 17.1012 129.019 17.4852C129.019 17.8159 129.067 18.1145 129.163 18.3812C129.27 18.6372 129.403 18.8505 129.563 19.0212C129.734 19.1919 129.92 19.3252 130.123 19.4212C130.336 19.5065 130.55 19.5492 130.763 19.5492C130.976 19.5492 131.184 19.5225 131.387 19.4692C131.6 19.4159 131.808 19.3252 132.011 19.1972C132.224 19.0585 132.427 18.8665 132.619 18.6212L133.835 20.0132C133.419 20.4825 132.923 20.8185 132.347 21.0212C131.771 21.2132 131.216 21.3092 130.683 21.3092ZM139.083 21.3092C138.688 21.3092 138.326 21.2452 137.995 21.1172C137.664 20.9999 137.382 20.7972 137.147 20.5092C136.912 20.2105 136.736 19.8052 136.619 19.2932C136.502 18.7812 136.459 18.1305 136.491 17.3412L136.715 11.9012L139.019 11.5972L139.163 11.5812L139.179 11.7572C139.136 11.8319 139.094 11.9065 139.051 11.9812C139.008 12.0559 138.982 12.1839 138.971 12.3652L138.779 14.8292H138.875L138.747 17.2292C138.715 17.8372 138.736 18.3119 138.811 18.6532C138.896 18.9839 139.014 19.2132 139.163 19.3412C139.323 19.4692 139.488 19.5332 139.659 19.5332C139.99 19.5332 140.288 19.4639 140.555 19.3252C140.832 19.1865 141.072 19.0319 141.275 18.8612L141.659 20.4452C141.296 20.7119 140.902 20.9252 140.475 21.0852C140.059 21.2345 139.595 21.3092 139.083 21.3092ZM135.115 13.5812H141.163L141.131 15.3412H135.083L135.115 13.5812ZM143.483 21.1172V19.3572H145.275V15.3412H143.563V13.5812H147.547V19.3572H149.179V21.1172H143.483ZM146.299 12.5572C145.926 12.5572 145.606 12.4345 145.339 12.1892C145.083 11.9332 144.955 11.6345 144.955 11.2932C144.955 10.9199 145.078 10.6159 145.323 10.3812C145.579 10.1465 145.904 10.0292 146.299 10.0292C146.651 10.0292 146.96 10.1572 147.227 10.4132C147.504 10.6585 147.643 10.9519 147.643 11.2932C147.643 11.6345 147.504 11.9332 147.227 12.1892C146.96 12.4345 146.651 12.5572 146.299 12.5572ZM154.283 21.3092C153.611 21.3092 152.998 21.1492 152.443 20.8292C151.888 20.4985 151.446 20.0345 151.115 19.4372C150.784 18.8399 150.619 18.1465 150.619 17.3572C150.619 16.6212 150.784 15.9545 151.115 15.3572C151.446 14.7599 151.888 14.2852 152.443 13.9332C152.998 13.5812 153.611 13.4052 154.283 13.4052C154.955 13.4052 155.568 13.5812 156.123 13.9332C156.688 14.2852 157.136 14.7599 157.467 15.3572C157.808 15.9545 157.979 16.6212 157.979 17.3572C157.979 18.1359 157.808 18.8239 157.467 19.4212C157.136 20.0185 156.688 20.4825 156.123 20.8132C155.568 21.1439 154.955 21.3092 154.283 21.3092ZM154.283 19.5332C154.571 19.5332 154.822 19.4425 155.035 19.2612C155.259 19.0799 155.435 18.8292 155.563 18.5092C155.691 18.1785 155.755 17.7945 155.755 17.3572C155.755 16.8879 155.691 16.4932 155.563 16.1732C155.435 15.8532 155.259 15.6079 155.035 15.4372C154.822 15.2665 154.571 15.1812 154.283 15.1812C154.016 15.1812 153.771 15.2665 153.547 15.4372C153.334 15.6079 153.163 15.8532 153.035 16.1732C152.907 16.4932 152.843 16.8879 152.843 17.3572C152.843 17.7945 152.902 18.1785 153.019 18.5092C153.147 18.8292 153.318 19.0799 153.531 19.2612C153.755 19.4425 154.006 19.5332 154.283 19.5332ZM158.987 21.1172V13.5812H161.275V14.4452C161.446 14.2425 161.622 14.0665 161.803 13.9172C161.984 13.7572 162.187 13.6345 162.411 13.5492C162.646 13.4532 162.907 13.4052 163.195 13.4052C163.643 13.4052 164.064 13.5172 164.459 13.7412C164.854 13.9545 165.174 14.2959 165.419 14.7652C165.664 15.2239 165.787 15.8319 165.787 16.5892V21.1172H163.515V16.6052C163.515 16.2639 163.483 15.9812 163.419 15.7572C163.355 15.5225 163.254 15.3465 163.115 15.2292C162.976 15.1119 162.8 15.0532 162.587 15.0532C162.416 15.0532 162.251 15.0905 162.091 15.1652C161.931 15.2292 161.787 15.3252 161.659 15.4532C161.542 15.5812 161.446 15.7359 161.371 15.9172C161.307 16.0985 161.275 16.3012 161.275 16.5252V21.1172H158.987Z" fill="white"/>
</svg>
