<svg width="186" height="28" viewBox="0 0 186 28" fill="none" xmlns="http://www.w3.org/2000/svg">
<path d="M185.032 27.5065L0.506348 27.5065V1.00002L185.032 1V27.5065Z" fill="white" stroke="black"/>
<path d="M25.1626 21.1167V13.0207H22.5866V11.1487H30.0426V13.0207H27.3066V21.1167H25.1626ZM34.6186 21.3087C34.0853 21.3087 33.5839 21.2234 33.1146 21.0527C32.6559 20.8714 32.2506 20.6154 31.8986 20.2847C31.5573 19.954 31.2906 19.5487 31.0986 19.0687C30.9066 18.578 30.8106 18.0287 30.8106 17.4207C30.8106 16.802 30.9013 16.2474 31.0826 15.7567C31.2746 15.2554 31.5306 14.834 31.8506 14.4927C32.1813 14.1407 32.5653 13.874 33.0026 13.6927C33.4399 13.5007 33.9146 13.4047 34.4266 13.4047C34.8639 13.4047 35.2799 13.4847 35.6746 13.6447C36.0799 13.8047 36.4373 14.0447 36.7466 14.3647C37.0559 14.674 37.3013 15.0634 37.4826 15.5327C37.6639 15.9914 37.7546 16.5194 37.7546 17.1167C37.7546 17.2447 37.7546 17.4047 37.7546 17.5967C37.7546 17.7887 37.7493 17.9434 37.7386 18.0607H32.9866C33.0079 18.3274 33.0719 18.5567 33.1786 18.7487C33.2853 18.93 33.4186 19.0847 33.5786 19.2127C33.7493 19.33 33.9306 19.4207 34.1226 19.4847C34.3253 19.538 34.5279 19.5647 34.7306 19.5647C34.9439 19.5647 35.1466 19.5487 35.3386 19.5167C35.5306 19.4847 35.7173 19.426 35.8986 19.3407C36.0799 19.2447 36.2559 19.1114 36.4266 18.9407L37.5466 20.0287C37.2906 20.3274 37.0079 20.5727 36.6986 20.7647C36.3893 20.9567 36.0586 21.0954 35.7066 21.1807C35.3546 21.266 34.9919 21.3087 34.6186 21.3087ZM33.0026 16.3967H35.6106C35.6106 16.1834 35.5839 16.002 35.5306 15.8527C35.4773 15.6927 35.3973 15.5647 35.2906 15.4687C35.1839 15.362 35.0506 15.2874 34.8906 15.2447C34.7306 15.1914 34.5493 15.1647 34.3466 15.1647C34.1653 15.1647 33.9946 15.1914 33.8346 15.2447C33.6853 15.2874 33.5519 15.362 33.4346 15.4687C33.3173 15.5647 33.2213 15.6927 33.1466 15.8527C33.0719 16.002 33.0239 16.1834 33.0026 16.3967ZM42.6826 21.3087C42.1279 21.3087 41.6106 21.218 41.1306 21.0367C40.6506 20.8447 40.2293 20.578 39.8666 20.2367C39.5146 19.8847 39.2373 19.474 39.0346 19.0047C38.8426 18.5354 38.7466 18.018 38.7466 17.4527C38.7466 16.898 38.8426 16.3754 39.0346 15.8847C39.2373 15.394 39.5146 14.9674 39.8666 14.6047C40.2293 14.2314 40.6506 13.938 41.1306 13.7247C41.6106 13.5114 42.1333 13.4047 42.6986 13.4047C43.4453 13.4047 44.0853 13.538 44.6186 13.8047C45.1519 14.0607 45.5733 14.4234 45.8826 14.8927L44.6826 16.2527L44.5866 16.3647L44.4426 16.2527C44.4319 16.1674 44.4213 16.0767 44.4106 15.9807C44.3999 15.8847 44.3413 15.7674 44.2346 15.6287C44.0533 15.4474 43.8453 15.3247 43.6106 15.2607C43.3759 15.1967 43.1093 15.1647 42.8106 15.1647C42.5759 15.1647 42.3519 15.218 42.1386 15.3247C41.9253 15.4207 41.7333 15.5647 41.5626 15.7567C41.3919 15.9487 41.2586 16.1887 41.1626 16.4767C41.0666 16.7647 41.0186 17.1007 41.0186 17.4847C41.0186 17.8154 41.0666 18.114 41.1626 18.3807C41.2693 18.6367 41.4026 18.85 41.5626 19.0207C41.7333 19.1914 41.9199 19.3247 42.1226 19.4207C42.3359 19.506 42.5493 19.5487 42.7626 19.5487C42.9759 19.5487 43.1839 19.522 43.3866 19.4687C43.5999 19.4154 43.8079 19.3247 44.0106 19.1967C44.2239 19.058 44.4266 18.866 44.6186 18.6207L45.8346 20.0127C45.4186 20.482 44.9226 20.818 44.3466 21.0207C43.7706 21.2127 43.2159 21.3087 42.6826 21.3087ZM46.9866 10.3167H49.2586H49.4026V10.4927C49.3493 10.5567 49.3119 10.626 49.2906 10.7007C49.2799 10.7754 49.2746 10.9034 49.2746 11.0847V14.3487C49.4453 14.114 49.6426 13.9327 49.8666 13.8047C50.0906 13.666 50.3253 13.5647 50.5706 13.5007C50.8266 13.4367 51.0719 13.4047 51.3066 13.4047C51.8186 13.4047 52.2559 13.5167 52.6186 13.7407C52.9919 13.954 53.2799 14.2954 53.4826 14.7647C53.6853 15.234 53.7866 15.842 53.7866 16.5887V21.1167H51.5146V16.6047C51.5146 16.2207 51.4826 15.9167 51.4186 15.6927C51.3546 15.458 51.2586 15.2927 51.1306 15.1967C51.0133 15.1007 50.8586 15.0527 50.6666 15.0527C50.4853 15.0527 50.3199 15.0794 50.1706 15.1327C50.0319 15.186 49.9039 15.2607 49.7866 15.3567C49.6799 15.4527 49.5839 15.5754 49.4986 15.7247C49.4239 15.8634 49.3653 16.0234 49.3226 16.2047C49.2906 16.386 49.2746 16.5834 49.2746 16.7967V21.1167H46.9866V10.3167ZM68.5386 21.3567L67.8026 20.3327C67.5893 20.546 67.3599 20.7274 67.1146 20.8767C66.8799 21.0154 66.6239 21.122 66.3466 21.1967C66.0693 21.2714 65.7759 21.3087 65.4666 21.3087C64.8799 21.3087 64.3786 21.1967 63.9626 20.9727C63.5573 20.738 63.2426 20.4234 63.0186 20.0287C62.8053 19.6234 62.6986 19.17 62.6986 18.6687C62.6986 18.3594 62.7306 18.066 62.7946 17.7887C62.8586 17.5007 62.9546 17.2287 63.0826 16.9727C63.2213 16.706 63.3973 16.4607 63.6106 16.2367C63.8239 16.002 64.0799 15.7887 64.3786 15.5967C64.0479 15.202 63.8133 14.818 63.6746 14.4447C63.5466 14.0714 63.4826 13.666 63.4826 13.2287C63.4826 12.9087 63.5519 12.6154 63.6906 12.3487C63.8293 12.0714 64.0159 11.8314 64.2506 11.6287C64.4959 11.426 64.7679 11.2714 65.0666 11.1647C65.3759 11.0474 65.6906 10.9887 66.0106 10.9887C66.4799 10.9887 66.8853 11.0954 67.2266 11.3087C67.5786 11.522 67.8506 11.7994 68.0426 12.1407C68.2346 12.482 68.3306 12.8447 68.3306 13.2287C68.3306 13.5807 68.2933 13.8954 68.2186 14.1727C68.1439 14.4394 68.0373 14.6847 67.8986 14.9087C67.7706 15.122 67.6159 15.3247 67.4346 15.5167C67.2639 15.698 67.0719 15.8847 66.8586 16.0767L68.0586 17.7247C68.1013 17.6607 68.1493 17.586 68.2026 17.5007C68.2666 17.4047 68.3253 17.3034 68.3786 17.1967C68.4426 17.09 68.4906 16.9887 68.5226 16.8927C68.5653 16.786 68.5866 16.69 68.5866 16.6047C68.5866 16.5407 68.5919 16.482 68.6026 16.4287C68.6133 16.3754 68.6506 16.3114 68.7146 16.2367L70.1546 17.2447C70.0479 17.5007 69.9359 17.7354 69.8186 17.9487C69.7119 18.162 69.5999 18.3594 69.4826 18.5407C69.3759 18.7114 69.2586 18.8767 69.1306 19.0367L69.8826 20.0447L68.5386 21.3567ZM65.6426 19.6287C65.7813 19.6287 65.9146 19.6074 66.0426 19.5647C66.1706 19.522 66.2986 19.458 66.4266 19.3727C66.5546 19.2767 66.6719 19.17 66.7786 19.0527L65.4186 17.0687C65.2906 17.1754 65.1786 17.282 65.0826 17.3887C64.9866 17.4954 64.9066 17.6074 64.8426 17.7247C64.7893 17.842 64.7466 17.97 64.7146 18.1087C64.6933 18.2367 64.6826 18.3754 64.6826 18.5247C64.6826 18.6954 64.6986 18.85 64.7306 18.9887C64.7733 19.1274 64.8319 19.2447 64.9066 19.3407C64.9919 19.4367 65.0933 19.5114 65.2106 19.5647C65.3279 19.6074 65.4719 19.6287 65.6426 19.6287ZM65.8186 14.6527C65.9466 14.5674 66.0586 14.4767 66.1546 14.3807C66.2506 14.2847 66.3306 14.178 66.3946 14.0607C66.4586 13.9434 66.5066 13.8207 66.5386 13.6927C66.5706 13.5647 66.5866 13.4314 66.5866 13.2927C66.5866 13.1327 66.5493 12.9834 66.4746 12.8447C66.3999 12.6954 66.2506 12.6207 66.0266 12.6207C65.8666 12.6207 65.7333 12.658 65.6266 12.7327C65.5199 12.8074 65.4399 12.898 65.3866 13.0047C65.3439 13.1114 65.3226 13.2074 65.3226 13.2927C65.3226 13.4207 65.3386 13.5647 65.3706 13.7247C65.4026 13.874 65.4559 14.0287 65.5306 14.1887C65.6053 14.338 65.7013 14.4927 65.8186 14.6527ZM79.3066 21.1167V19.3087H81.2426V12.9567H79.4026V11.1487H85.2906V12.9567H83.3546V19.3087H85.3706V21.1167H79.3066ZM86.9866 21.1167V13.5807H89.2746V14.4447C89.4453 14.242 89.6213 14.066 89.8026 13.9167C89.9839 13.7567 90.1866 13.634 90.4106 13.5487C90.6453 13.4527 90.9066 13.4047 91.1946 13.4047C91.6426 13.4047 92.0639 13.5167 92.4586 13.7407C92.8533 13.954 93.1733 14.2954 93.4186 14.7647C93.6639 15.2234 93.7866 15.8314 93.7866 16.5887V21.1167H91.5146V16.6047C91.5146 16.2634 91.4826 15.9807 91.4186 15.7567C91.3546 15.522 91.2533 15.346 91.1146 15.2287C90.9759 15.1114 90.7999 15.0527 90.5866 15.0527C90.4159 15.0527 90.2506 15.09 90.0906 15.1647C89.9306 15.2287 89.7866 15.3247 89.6586 15.4527C89.5413 15.5807 89.4453 15.7354 89.3706 15.9167C89.3066 16.098 89.2746 16.3007 89.2746 16.5247V21.1167H86.9866ZM99.0826 21.3087C98.6879 21.3087 98.3253 21.2447 97.9946 21.1167C97.6639 20.9994 97.3813 20.7967 97.1466 20.5087C96.9119 20.21 96.7359 19.8047 96.6186 19.2927C96.5013 18.7807 96.4586 18.13 96.4906 17.3407L96.7146 11.9007L99.0186 11.5967L99.1626 11.5807L99.1786 11.7567C99.1359 11.8314 99.0933 11.906 99.0506 11.9807C99.0079 12.0554 98.9813 12.1834 98.9706 12.3647L98.7786 14.8287H98.8746L98.7466 17.2287C98.7146 17.8367 98.7359 18.3114 98.8106 18.6527C98.8959 18.9834 99.0133 19.2127 99.1626 19.3407C99.3226 19.4687 99.4879 19.5327 99.6586 19.5327C99.9893 19.5327 100.288 19.4634 100.555 19.3247C100.832 19.186 101.072 19.0314 101.275 18.8607L101.659 20.4447C101.296 20.7114 100.901 20.9247 100.475 21.0847C100.059 21.234 99.5946 21.3087 99.0826 21.3087ZM95.1146 13.5807H101.163L101.131 15.3407H95.0826L95.1146 13.5807ZM106.619 21.3087C106.085 21.3087 105.584 21.2234 105.115 21.0527C104.656 20.8714 104.251 20.6154 103.899 20.2847C103.557 19.954 103.291 19.5487 103.099 19.0687C102.907 18.578 102.811 18.0287 102.811 17.4207C102.811 16.802 102.901 16.2474 103.083 15.7567C103.275 15.2554 103.531 14.834 103.851 14.4927C104.181 14.1407 104.565 13.874 105.003 13.6927C105.44 13.5007 105.915 13.4047 106.427 13.4047C106.864 13.4047 107.28 13.4847 107.675 13.6447C108.08 13.8047 108.437 14.0447 108.747 14.3647C109.056 14.674 109.301 15.0634 109.483 15.5327C109.664 15.9914 109.755 16.5194 109.755 17.1167C109.755 17.2447 109.755 17.4047 109.755 17.5967C109.755 17.7887 109.749 17.9434 109.739 18.0607H104.987C105.008 18.3274 105.072 18.5567 105.179 18.7487C105.285 18.93 105.419 19.0847 105.579 19.2127C105.749 19.33 105.931 19.4207 106.123 19.4847C106.325 19.538 106.528 19.5647 106.731 19.5647C106.944 19.5647 107.147 19.5487 107.339 19.5167C107.531 19.4847 107.717 19.426 107.899 19.3407C108.08 19.2447 108.256 19.1114 108.427 18.9407L109.547 20.0287C109.291 20.3274 109.008 20.5727 108.699 20.7647C108.389 20.9567 108.059 21.0954 107.707 21.1807C107.355 21.266 106.992 21.3087 106.619 21.3087ZM105.003 16.3967H107.611C107.611 16.1834 107.584 16.002 107.531 15.8527C107.477 15.6927 107.397 15.5647 107.291 15.4687C107.184 15.362 107.051 15.2874 106.891 15.2447C106.731 15.1914 106.549 15.1647 106.347 15.1647C106.165 15.1647 105.995 15.1914 105.835 15.2447C105.685 15.2874 105.552 15.362 105.435 15.4687C105.317 15.5647 105.221 15.6927 105.147 15.8527C105.072 16.002 105.024 16.1834 105.003 16.3967ZM111.403 13.5807H113.723V15.6447L113.467 15.5807C113.499 15.2607 113.579 14.9727 113.707 14.7167C113.845 14.45 114.021 14.2207 114.235 14.0287C114.448 13.826 114.683 13.6714 114.939 13.5647C115.205 13.458 115.477 13.4047 115.755 13.4047C116.192 13.4047 116.581 13.474 116.923 13.6127C117.264 13.7514 117.584 13.9754 117.883 14.2847L116.955 16.2207L116.907 16.3487L116.747 16.2847C116.704 16.1994 116.672 16.1087 116.651 16.0127C116.629 15.906 116.56 15.7887 116.443 15.6607C116.304 15.5434 116.144 15.4474 115.963 15.3727C115.792 15.2874 115.6 15.2447 115.387 15.2447C115.141 15.2447 114.912 15.282 114.699 15.3567C114.496 15.4314 114.32 15.5487 114.171 15.7087C114.021 15.8687 113.904 16.0714 113.819 16.3167C113.733 16.562 113.691 16.8554 113.691 17.1967V21.1167H111.403V13.5807ZM121.323 21.3087C120.512 21.3087 119.877 21.1167 119.419 20.7327C118.96 20.338 118.731 19.8207 118.731 19.1807C118.731 18.7754 118.816 18.402 118.987 18.0607C119.157 17.7087 119.424 17.4047 119.787 17.1487C120.149 16.882 120.613 16.674 121.179 16.5247C121.744 16.3754 122.421 16.3007 123.211 16.3007C123.243 16.3007 123.301 16.3007 123.387 16.3007C123.472 16.3007 123.568 16.3007 123.675 16.3007C123.781 16.3007 123.872 16.3007 123.947 16.3007L124.011 17.8047C123.947 17.8047 123.856 17.8047 123.739 17.8047C123.621 17.8047 123.499 17.81 123.371 17.8207C123.253 17.8207 123.163 17.8207 123.099 17.8207C122.64 17.8207 122.272 17.8527 121.995 17.9167C121.717 17.97 121.504 18.05 121.355 18.1567C121.216 18.2527 121.12 18.3647 121.067 18.4927C121.013 18.61 120.987 18.7274 120.987 18.8447C120.987 18.9727 121.008 19.0847 121.051 19.1807C121.093 19.2767 121.152 19.3514 121.227 19.4047C121.301 19.458 121.392 19.5007 121.499 19.5327C121.605 19.554 121.717 19.5647 121.835 19.5647C122.091 19.5647 122.309 19.522 122.491 19.4367C122.672 19.3514 122.821 19.2127 122.939 19.0207C123.067 18.818 123.157 18.562 123.211 18.2527C123.275 17.9434 123.307 17.5647 123.307 17.1167C123.307 16.5727 123.253 16.1567 123.147 15.8687C123.051 15.5807 122.907 15.3887 122.715 15.2927C122.533 15.186 122.309 15.1327 122.043 15.1327C121.712 15.1327 121.408 15.1807 121.131 15.2767C120.853 15.362 120.56 15.5647 120.251 15.8847L118.971 14.5727C119.451 14.1354 119.963 13.8314 120.507 13.6607C121.061 13.49 121.6 13.4047 122.123 13.4047C122.581 13.4047 123.013 13.458 123.419 13.5647C123.835 13.6607 124.203 13.826 124.523 14.0607C124.853 14.2954 125.109 14.6207 125.291 15.0367C125.483 15.442 125.579 15.954 125.579 16.5727V21.1167H123.291V20.5247C123.152 20.6527 123.013 20.77 122.875 20.8767C122.747 20.9727 122.603 21.0527 122.443 21.1167C122.293 21.1807 122.128 21.2287 121.947 21.2607C121.765 21.2927 121.557 21.3087 121.323 21.3087ZM130.683 21.3087C130.128 21.3087 129.611 21.218 129.131 21.0367C128.651 20.8447 128.229 20.578 127.867 20.2367C127.515 19.8847 127.237 19.474 127.035 19.0047C126.843 18.5354 126.747 18.018 126.747 17.4527C126.747 16.898 126.843 16.3754 127.035 15.8847C127.237 15.394 127.515 14.9674 127.867 14.6047C128.229 14.2314 128.651 13.938 129.131 13.7247C129.611 13.5114 130.133 13.4047 130.699 13.4047C131.445 13.4047 132.085 13.538 132.619 13.8047C133.152 14.0607 133.573 14.4234 133.883 14.8927L132.683 16.2527L132.587 16.3647L132.443 16.2527C132.432 16.1674 132.421 16.0767 132.411 15.9807C132.4 15.8847 132.341 15.7674 132.235 15.6287C132.053 15.4474 131.845 15.3247 131.611 15.2607C131.376 15.1967 131.109 15.1647 130.811 15.1647C130.576 15.1647 130.352 15.218 130.139 15.3247C129.925 15.4207 129.733 15.5647 129.563 15.7567C129.392 15.9487 129.259 16.1887 129.163 16.4767C129.067 16.7647 129.019 17.1007 129.019 17.4847C129.019 17.8154 129.067 18.114 129.163 18.3807C129.269 18.6367 129.403 18.85 129.563 19.0207C129.733 19.1914 129.92 19.3247 130.123 19.4207C130.336 19.506 130.549 19.5487 130.763 19.5487C130.976 19.5487 131.184 19.522 131.387 19.4687C131.6 19.4154 131.808 19.3247 132.011 19.1967C132.224 19.058 132.427 18.866 132.619 18.6207L133.835 20.0127C133.419 20.482 132.923 20.818 132.347 21.0207C131.771 21.2127 131.216 21.3087 130.683 21.3087ZM139.083 21.3087C138.688 21.3087 138.325 21.2447 137.995 21.1167C137.664 20.9994 137.381 20.7967 137.147 20.5087C136.912 20.21 136.736 19.8047 136.619 19.2927C136.501 18.7807 136.459 18.13 136.491 17.3407L136.715 11.9007L139.019 11.5967L139.163 11.5807L139.179 11.7567C139.136 11.8314 139.093 11.906 139.051 11.9807C139.008 12.0554 138.981 12.1834 138.971 12.3647L138.779 14.8287H138.875L138.747 17.2287C138.715 17.8367 138.736 18.3114 138.811 18.6527C138.896 18.9834 139.013 19.2127 139.163 19.3407C139.323 19.4687 139.488 19.5327 139.659 19.5327C139.989 19.5327 140.288 19.4634 140.555 19.3247C140.832 19.186 141.072 19.0314 141.275 18.8607L141.659 20.4447C141.296 20.7114 140.901 20.9247 140.475 21.0847C140.059 21.234 139.595 21.3087 139.083 21.3087ZM135.115 13.5807H141.163L141.131 15.3407H135.083L135.115 13.5807ZM143.483 21.1167V19.3567H145.275V15.3407H143.563V13.5807H147.547V19.3567H149.179V21.1167H143.483ZM146.299 12.5567C145.925 12.5567 145.605 12.434 145.339 12.1887C145.083 11.9327 144.955 11.634 144.955 11.2927C144.955 10.9194 145.077 10.6154 145.323 10.3807C145.579 10.146 145.904 10.0287 146.299 10.0287C146.651 10.0287 146.96 10.1567 147.227 10.4127C147.504 10.658 147.643 10.9514 147.643 11.2927C147.643 11.634 147.504 11.9327 147.227 12.1887C146.96 12.434 146.651 12.5567 146.299 12.5567ZM154.283 21.3087C153.611 21.3087 152.997 21.1487 152.443 20.8287C151.888 20.498 151.445 20.034 151.115 19.4367C150.784 18.8394 150.619 18.146 150.619 17.3567C150.619 16.6207 150.784 15.954 151.115 15.3567C151.445 14.7594 151.888 14.2847 152.443 13.9327C152.997 13.5807 153.611 13.4047 154.283 13.4047C154.955 13.4047 155.568 13.5807 156.123 13.9327C156.688 14.2847 157.136 14.7594 157.467 15.3567C157.808 15.954 157.979 16.6207 157.979 17.3567C157.979 18.1354 157.808 18.8234 157.467 19.4207C157.136 20.018 156.688 20.482 156.123 20.8127C155.568 21.1434 154.955 21.3087 154.283 21.3087ZM154.283 19.5327C154.571 19.5327 154.821 19.442 155.035 19.2607C155.259 19.0794 155.435 18.8287 155.563 18.5087C155.691 18.178 155.755 17.794 155.755 17.3567C155.755 16.8874 155.691 16.4927 155.563 16.1727C155.435 15.8527 155.259 15.6074 155.035 15.4367C154.821 15.266 154.571 15.1807 154.283 15.1807C154.016 15.1807 153.771 15.266 153.547 15.4367C153.333 15.6074 153.163 15.8527 153.035 16.1727C152.907 16.4927 152.843 16.8874 152.843 17.3567C152.843 17.794 152.901 18.178 153.019 18.5087C153.147 18.8287 153.317 19.0794 153.531 19.2607C153.755 19.442 154.005 19.5327 154.283 19.5327ZM158.987 21.1167V13.5807H161.275V14.4447C161.445 14.242 161.621 14.066 161.803 13.9167C161.984 13.7567 162.187 13.634 162.411 13.5487C162.645 13.4527 162.907 13.4047 163.195 13.4047C163.643 13.4047 164.064 13.5167 164.459 13.7407C164.853 13.954 165.173 14.2954 165.419 14.7647C165.664 15.2234 165.787 15.8314 165.787 16.5887V21.1167H163.515V16.6047C163.515 16.2634 163.483 15.9807 163.419 15.7567C163.355 15.522 163.253 15.346 163.115 15.2287C162.976 15.1114 162.8 15.0527 162.587 15.0527C162.416 15.0527 162.251 15.09 162.091 15.1647C161.931 15.2287 161.787 15.3247 161.659 15.4527C161.541 15.5807 161.445 15.7354 161.371 15.9167C161.307 16.098 161.275 16.3007 161.275 16.5247V21.1167H158.987Z" fill="black"/>
</svg>
