<svg width="1435" height="846" viewBox="0 0 1435 846" fill="none" xmlns="http://www.w3.org/2000/svg">
<circle cx="714.647" cy="126.154" r="691.506" fill="#ECBF65" stroke="black" stroke-width="2"/>
<path d="M714.5 -441C1027.92 -441 1282 -187.145 1282 126C1282 439.145 1027.92 693 714.5 693C401.078 693 147 439.145 147 126C147 -187.145 401.078 -441 714.5 -441Z" stroke="black" stroke-width="2"/>
<circle cx="714.647" cy="759.641" r="54.5857" fill="#D53F3E" stroke="black"/>
<circle cx="81.1629" cy="126.155" r="54.5857" fill="#D53F3E" stroke="black"/>
<circle cx="1348.13" cy="126.155" r="54.5857" fill="#D53F3E" stroke="black"/>
<circle cx="266.092" cy="574.71" r="54.5857" fill="#D53F3E" stroke="black"/>
<circle cx="1163.2" cy="574.71" r="54.5857" fill="#D53F3E" stroke="black"/>
<path d="M769.733 252.065H663.497L588.737 177.306V71.069L663.497 -3.69019H769.733L844.492 71.069V177.306L769.733 252.065Z" fill="#DBAB4C" stroke="black"/>
<path d="M768.866 252.564H664.359L716.591 686.603L768.866 252.564Z" fill="#ECAE31" stroke="black"/>
<path d="M844.96 176.439V71.9321L1279 124.164L844.96 176.439Z" fill="#ECAE31" stroke="black"/>
<path d="M588.237 176.439V71.9321L154.198 124.164L588.237 176.439Z" fill="#ECAE31" stroke="black"/>
<path d="M663.029 -3.29613L589.132 70.6014L318.195 -274.201L663.029 -3.29613Z" fill="#ECAE31" stroke="black"/>
<path d="M844.385 178.059L770.487 251.956L1114.33 521.935L844.385 178.059Z" fill="#ECAE31" stroke="black"/>
<path d="M844.385 69.6324L770.487 -4.26512L1114.33 -274.244L844.385 69.6324Z" fill="#ECAE31" stroke="black"/>
<path d="M662.06 251.954L588.162 178.057L318.184 521.902L662.06 251.954Z" fill="#ECAE31" stroke="black"/>
<path d="M293.635 672.802C301.504 658.375 319.604 631.488 321.178 631.488C323.145 631.488 346.753 584.272 392.002 609.847C428.201 630.308 426.759 660.342 421.512 672.802L390.035 735.757" stroke="black"/>
<path d="M401.839 743.627C407.084 728.052 420.715 697.762 422.265 697.489C424.202 697.147 445.302 645.637 494.304 662.966C533.506 676.83 531.252 707.571 528.249 720.753L508.182 788.217" stroke="black"/>
<path d="M527.749 790.843C530.775 774.691 541.905 737.38 543.402 736.894C545.273 736.286 553.135 684.085 604.072 694.426C644.822 702.699 652.732 731.71 651.592 745.181L641.11 814.782" stroke="black"/>
<path d="M1137.99 672.802C1130.12 658.375 1112.02 631.488 1110.45 631.488C1108.48 631.488 1084.87 584.272 1039.62 609.847C1003.42 630.308 1004.87 660.342 1010.11 672.802L1041.59 735.757" stroke="black"/>
<path d="M1029.78 743.627C1024.54 728.052 1010.91 697.762 1009.36 697.489C1007.42 697.147 986.321 645.637 937.319 662.966C898.117 676.83 900.371 707.571 903.374 720.753L923.441 788.217" stroke="black"/>
<path d="M903.873 790.843C900.848 774.691 889.717 737.38 888.22 736.894C886.349 736.286 878.487 684.085 827.55 694.426C786.8 702.699 778.89 731.71 780.03 745.181L790.512 814.782" stroke="black"/>
<path d="M170.011 549.177C184.438 541.307 211.325 523.208 211.325 521.634C211.325 519.666 258.541 496.058 232.966 450.809C212.505 414.61 182.471 416.053 170.011 421.299L107.056 452.776" stroke="black"/>
<path d="M99.1845 440.972C114.759 435.728 145.049 422.097 145.323 420.547C145.664 418.609 197.175 397.51 179.845 348.507C165.981 309.305 135.24 311.559 122.059 314.562L54.5941 334.629" stroke="black"/>
<path d="M51.9685 315.062C68.1214 312.036 105.432 300.906 105.918 299.409C106.526 297.538 158.727 289.676 148.386 238.738C140.113 197.988 111.102 190.079 97.6312 191.218L28.0302 201.701" stroke="black"/>
<path d="M51.9685 -61.0622C68.1214 -58.0362 105.432 -46.906 105.918 -45.4092C106.526 -43.5381 158.727 -35.6761 148.386 15.2615C140.113 56.0116 111.102 63.9208 97.6312 62.7816L28.0302 52.2989" stroke="black"/>
<path d="M1261.61 549.177C1247.19 541.307 1220.3 523.208 1220.3 521.634C1220.3 519.666 1173.08 496.058 1198.66 450.809C1219.12 414.61 1249.15 416.053 1261.61 421.299L1324.57 452.776" stroke="black"/>
<path d="M1332.44 440.972C1316.86 435.728 1286.57 422.097 1286.3 420.547C1285.96 418.609 1234.45 397.51 1251.78 348.507C1265.64 309.305 1296.38 311.559 1309.56 314.562L1377.03 334.629" stroke="black"/>
<path d="M1379.66 315.062C1363.5 312.036 1326.19 300.906 1325.71 299.409C1325.1 297.538 1272.9 289.676 1283.24 238.738C1291.51 197.988 1320.52 190.079 1333.99 191.218L1403.59 201.701" stroke="black"/>
<path d="M1379.66 -61.0622C1363.5 -58.0362 1326.19 -46.906 1325.71 -45.4092C1325.1 -43.5381 1272.9 -35.6761 1283.24 15.2615C1291.51 56.0116 1320.52 63.9208 1333.99 62.7816L1403.59 52.2989" stroke="black"/>
<circle cx="714.647" cy="126.155" r="54.5857" fill="#D53F3E" stroke="black"/>
</svg>
